<svg width="375" height="750" viewBox="0 0 375 750" fill="none" xmlns="http://www.w3.org/2000/svg">
    <path d="M42.4457 33.5145C42.5173 33.5813 42.6045 33.629 42.6993 33.6531C42.7942 33.6772 42.8935 33.6769 42.9883 33.6524C43.083 33.6279 43.17 33.58 43.2414 33.5129C43.3127 33.4458 43.3661 33.3618 43.3966 33.2687C44.2248 29.3663 44.869 25.4333 45.6053 21.5002C84.1954 22.6678 178.43 23.6511 224.076 23.8355C224.445 24.8686 225.083 25.7839 225.925 26.4863C226.766 27.1888 227.78 27.6527 228.861 27.83C231.223 27.83 232.787 25.9863 233.677 23.8662C236.223 23.8662 238.739 23.8662 241.285 23.8662C241.622 24.2349 241.929 24.6344 242.266 24.9724C243.877 26.8881 245.77 28.546 247.88 29.8888C249.486 30.9498 251.389 31.4667 253.31 31.3637C254.323 31.1859 255.289 30.8025 256.149 30.2371C257.009 29.6717 257.744 28.9362 258.31 28.0758C259.255 26.7709 260 25.3311 260.518 23.8047C309.078 23.5896 356.043 22.5448 396.32 21.2543L396.32 21.746C397.179 27.3691 398.161 32.9614 399.388 38.5231C399.572 39.2605 400.554 39.0147 400.615 38.5231C400.799 36.6794 401.075 34.8665 401.412 33.0844C402.149 29.0591 403.161 25.0952 404.235 21.1621C471.998 18.919 518.901 16.1843 518.901 16.1843L518.901 646.113C518.901 646.113 481.752 643.932 425.83 641.873C424.921 637.215 424.439 632.484 424.389 627.738C424.389 627.551 424.314 627.371 424.182 627.239C424.05 627.106 423.87 627.032 423.683 627.032C423.407 627.032 423.1 627.032 422.824 627.032C422.548 627.032 421.904 627.861 421.597 628.384C420.83 629.643 420.125 630.903 419.389 632.194L413.867 641.412C365.307 639.722 304.661 638.339 242.45 638.339C227.112 638.339 217.542 638.339 202.572 638.554L201.375 603.341C201.375 602.696 189.565 636.803 189.105 638.677C186.835 638.677 184.626 638.677 182.387 638.677L182.387 634.468C182.387 633.085 182.08 631.733 181.958 630.35C181.958 629.889 181.252 629.582 181.037 630.074C180.271 631.764 179.688 633.546 179.074 635.297L177.878 638.739C128.643 639.476 32.9668 640.92 -3.26135 642.334C-4.07254 637.333 -5.14768 632.379 -6.4823 627.493C-6.53292 627.322 -6.64307 627.176 -6.7926 627.081C-6.94214 626.986 -7.12096 626.948 -7.29627 626.974C-7.47157 627 -7.63163 627.089 -7.74695 627.223C-7.86227 627.358 -7.92515 627.53 -7.92407 627.708C-8.38421 631.641 -8.81368 635.574 -9.36585 639.476L-9.82593 642.549C-55.0728 644.362 -84.0001 646.052 -84.0001 646.052L-84.0001 16C-84.0001 16 -36.698 18.7655 31.4944 21.0086C34.811 25.459 38.4728 29.6406 42.4457 33.5145Z" fill="#F5D3A6"/>
    <g clip-path="url(#clip0_0_1)">
        <path d="M867 100.505H-432V752H867V100.505Z" fill="#F5D3A6"/>
        <path opacity="0.15" d="M843.303 694.842C838.944 689.051 834.643 683.26 830.833 677.064C829.505 675.018 828.206 672.962 826.935 670.896C827.325 668.373 827.325 665.804 826.935 663.281C830.181 666.168 834.027 668.295 838.194 669.506L832.42 661.196C828.696 655.897 824.972 650.541 821.682 644.894C820.123 642.202 818.795 639.422 817.381 636.555L819.719 638.032C823.192 640.156 826.867 641.931 830.688 643.331C826.375 636.952 822.517 630.276 819.141 623.352C817.842 620.63 816.601 617.879 815.447 615.099V614.433C816.505 615.722 817.695 616.897 818.997 617.937C821.057 619.575 823.38 620.848 825.867 621.701C823.176 615.857 819.846 610.331 815.937 605.226C814.581 603.286 813.253 601.317 812.011 599.435C811.867 598.826 811.723 598.247 811.549 597.668C812.491 598.929 813.576 600.076 814.783 601.085C816.266 602.321 817.944 603.299 819.748 603.981C810.712 592.04 803.197 579.016 797.376 565.209C796.098 574.521 792.754 583.426 787.59 591.269C777.58 577.851 769.224 563.268 762.707 547.836C760.917 563.588 752.835 577.631 743.136 589.503C745.503 588.142 747.754 587.215 749.833 585.941C750.676 585.437 751.477 584.866 752.229 584.233C751.824 586.405 751.334 588.374 750.872 590.372C750.092 591.79 749.284 593.267 748.418 594.541C745.286 599.656 741.732 604.498 737.795 609.019C740.133 607.889 742.443 606.644 744.694 605.312C745.965 604.56 747.235 603.778 748.476 602.967C746.34 607.195 744.117 611.422 741.894 615.592C741.663 616.055 741.404 616.489 741.173 616.924C738.715 613.911 736.458 610.738 734.418 607.426C733.667 606.239 732.974 605.052 732.311 603.836C731.906 602.156 731.502 600.477 731.156 598.624C731.799 599.17 732.484 599.664 733.205 600.101C734.966 601.143 736.9 601.954 738.979 602.996C730.694 592.862 723.795 580.874 722.265 567.439C716.537 581.031 709.138 593.851 700.24 605.602C702.013 604.912 703.662 603.934 705.118 602.707C706.321 601.722 707.388 600.583 708.293 599.319L707.86 601.056C706.648 603.025 705.349 604.936 703.992 606.847C701.827 610.003 699.605 613.13 697.642 616.431C696.516 614.839 695.419 613.246 694.38 611.567C693.745 610.524 693.138 609.482 692.532 608.411C692.186 606.905 691.811 605.515 691.493 603.778C692.071 604.25 692.679 604.685 693.312 605.081C694.899 606.007 696.602 606.702 698.392 607.745C690.547 598.885 685.406 587.95 683.584 576.241C680.009 584.692 675.7 592.811 670.709 600.506C668.198 596.105 665.253 591.819 662.338 587.766C660.808 585.536 659.278 583.306 657.863 581.019L657.344 579.021C658.408 580.474 659.649 581.787 661.039 582.93C662.759 584.356 664.712 585.472 666.812 586.231C656.451 572.557 647.84 557.635 641.178 541.813C639.389 557.478 631.364 571.406 621.722 583.22C624.061 581.859 626.312 580.932 628.362 579.687C629.209 579.19 630.011 578.618 630.758 577.979C630.353 580.15 629.892 582.09 629.401 584.059C628.631 585.488 627.823 586.878 626.976 588.229C623.866 593.336 620.342 598.179 616.44 602.707C618.749 601.577 621.03 600.361 623.252 599.029C624.522 598.276 625.764 597.495 627.005 596.713C624.869 600.911 622.675 605.11 620.452 609.25C616.642 616.431 612.716 623.525 608.703 630.59C612.225 628.795 615.689 626.826 619.038 624.799L621.924 622.946C621.924 623.149 621.924 623.381 621.924 623.612C620.741 626.508 619.471 629.23 618.114 631.98C614.339 639.646 609.956 646.995 605.009 653.957C601.133 648.067 597.651 641.924 594.588 635.571C593.26 632.849 592.019 630.04 590.835 627.232V626.566C591.903 627.864 593.103 629.048 594.414 630.098C596.497 631.773 598.863 633.058 601.4 633.891C598.659 627.989 595.281 622.406 591.326 617.242C589.969 615.273 588.612 613.304 587.371 611.451C587.227 610.843 587.082 610.264 586.909 609.656C587.852 610.943 588.947 612.11 590.171 613.13C591.669 614.375 593.368 615.354 595.194 616.026C586.055 603.962 578.453 590.801 572.562 576.849C570.975 590.661 563.902 602.909 555.416 613.362C557.465 612.175 559.457 611.364 561.189 610.264C561.929 609.818 562.634 609.314 563.296 608.758C562.95 610.669 562.517 612.407 562.084 614.115C561.42 615.36 560.698 616.576 559.948 617.792C557.199 622.285 554.09 626.546 550.653 630.533C552.702 629.519 554.694 628.448 556.686 627.29C557.812 626.624 558.908 625.929 560.005 625.234C558.129 628.94 556.195 632.646 554.232 636.295C551.952 640.58 549.585 644.779 547.217 649.006C543.317 642.883 539.771 636.541 536.594 630.011C535.036 626.855 533.708 623.612 532.236 620.34C532.25 620.08 532.25 619.819 532.236 619.558C533.477 621.079 534.88 622.457 536.421 623.67C538.824 625.605 541.552 627.095 544.475 628.071C541.336 621.232 537.465 614.756 532.928 608.758C531.341 606.5 529.782 604.212 528.339 601.867L527.819 599.811C528.896 601.306 530.168 602.65 531.601 603.807C533.324 605.25 535.275 606.395 537.374 607.195C526.74 593.188 517.887 577.908 511.019 561.706C509.2 577.718 501.002 591.964 491.129 604.038C493.554 602.649 495.835 601.722 497.942 600.448C498.793 599.931 499.604 599.351 500.367 598.711C499.992 600.911 499.472 602.909 499.01 604.907C498.202 606.355 497.365 607.774 496.499 609.164C493.318 614.373 489.717 619.312 485.731 623.931C488.098 622.773 490.437 621.527 492.717 620.167C494.016 619.414 495.315 618.603 496.585 617.792C494.391 622.107 492.14 626.479 489.888 630.619C488.849 632.559 487.752 634.47 486.713 636.41C479.746 628.066 475.175 617.976 473.492 607.224C468.422 619.256 461.877 630.607 454.007 641.014C455.573 640.426 457.027 639.574 458.308 638.495C459.402 637.672 460.374 636.697 461.195 635.6C461.05 636.121 460.906 636.642 460.791 637.134C459.723 638.872 458.568 640.58 457.384 642.259C453.981 646.755 451.077 651.61 448.724 656.737C450.909 656.026 452.944 654.916 454.729 653.465C455.865 652.61 456.909 651.64 457.846 650.57V651.149C456.836 653.581 455.768 655.984 454.613 658.33C452.154 663.416 449.387 668.348 446.328 673.097C437.357 661.223 429.891 648.277 424.101 634.557C422.837 643.872 419.492 652.78 414.315 660.617C404.315 647.193 395.961 632.61 389.432 617.184C387.643 632.936 379.56 646.979 369.861 658.851C372.228 657.49 374.479 656.563 376.558 655.318C377.392 654.802 378.193 654.231 378.954 653.61C378.578 655.753 378.088 657.751 377.597 659.72C376.817 661.138 376.009 662.615 375.143 663.889C372.011 668.996 368.468 673.839 364.549 678.367C366.887 677.238 369.168 675.992 371.419 674.66C372.718 673.908 373.96 673.126 375.23 672.315C373.065 676.514 370.871 680.741 368.619 684.911C368.388 685.374 368.129 685.808 367.898 686.243C365.449 683.223 363.193 680.051 361.143 676.745C360.421 675.558 359.728 674.4 359.064 673.184C358.631 671.475 358.227 669.796 357.881 667.943C358.524 668.489 359.209 668.983 359.931 669.42C361.72 670.462 363.625 671.273 365.704 672.315C357.448 662.181 350.549 650.222 349.019 636.758C343.28 650.345 335.882 663.164 326.994 674.921C328.765 674.226 330.412 673.248 331.872 672.026C333.06 671.037 334.126 669.909 335.047 668.667C334.874 669.217 334.73 669.796 334.586 670.404C333.344 672.373 332.045 674.284 330.717 676.195C328.524 679.351 326.301 682.507 324.338 685.779C323.212 684.187 322.115 682.594 321.105 680.915C320.441 679.872 319.835 678.83 319.257 677.759C318.882 676.253 318.507 674.863 318.218 673.126C318.786 673.611 319.395 674.047 320.037 674.429C321.596 675.355 323.299 676.05 325.088 677.093C317.259 668.234 312.12 657.312 310.28 645.618C306.699 654.057 302.391 662.166 297.405 669.854C294.923 665.453 291.949 661.167 289.063 657.114C287.504 654.884 285.974 652.654 284.56 650.367C284.406 649.691 284.232 649.025 284.04 648.369C285.112 649.815 286.352 651.127 287.735 652.278C289.46 653.698 291.412 654.814 293.508 655.579C283.165 641.904 274.555 626.994 267.875 611.19C266.085 626.826 258.06 640.754 248.419 652.568C250.786 651.207 253.008 650.28 255.087 649.035C255.925 648.538 256.717 647.966 257.454 647.327C257.079 649.498 256.588 651.467 256.097 653.407C255.347 654.836 254.538 656.226 253.672 657.577C250.571 662.691 247.047 667.534 243.136 672.054C245.445 670.925 247.726 669.709 249.977 668.377C251.247 667.653 252.489 666.872 253.759 666.061C251.623 670.259 249.429 674.458 247.235 678.598C243.396 685.779 239.499 692.902 235.457 699.938C238.979 698.143 242.443 696.203 245.792 694.147C246.744 693.539 247.697 692.931 248.678 692.294C248.665 692.516 248.665 692.738 248.678 692.96C247.504 695.779 246.234 698.558 244.868 701.299C240.934 708.901 236.397 716.173 231.301 723.045C227.446 717.141 223.966 711 220.88 704.658C219.552 701.936 218.311 699.157 217.156 696.319V695.653C218.234 696.952 219.443 698.136 220.764 699.186C222.842 700.858 225.197 702.152 227.721 703.008C224.987 697.092 221.608 691.499 217.647 686.329C216.29 684.361 214.933 682.392 213.692 680.394C213.548 679.786 213.403 679.206 213.23 678.598C214.172 679.885 215.268 681.052 216.492 682.073C218.006 683.294 219.701 684.271 221.515 684.969C212.386 672.887 204.785 659.719 198.883 645.763C197.325 659.575 190.223 671.823 181.737 682.276C183.815 681.089 185.778 680.278 187.51 679.178C188.25 678.731 188.955 678.228 189.617 677.672C189.271 679.583 188.838 681.32 188.434 683.029C187.741 684.303 187.019 685.519 186.269 686.706C183.539 691.211 180.429 695.474 176.974 699.446C179.023 698.462 181.044 697.361 183.007 696.203L186.355 694.147C184.479 697.854 182.545 701.56 180.582 705.208C178.301 709.494 175.934 713.692 173.596 717.92C169.687 711.797 166.13 705.456 162.944 698.925C161.414 695.769 160.058 692.526 158.614 689.254V688.472C159.863 689.985 161.266 691.363 162.8 692.584C165.203 694.518 167.93 696.009 170.854 696.985C167.716 690.145 163.844 683.669 159.307 677.672C157.691 675.413 156.132 673.126 154.688 670.78C154.544 670.086 154.371 669.391 154.169 668.725C155.254 670.213 156.525 671.556 157.95 672.72C159.678 674.157 161.628 675.302 163.724 676.108C153.131 662.121 144.326 646.859 137.513 630.677C135.665 646.69 127.467 660.936 117.624 673.01C120.02 671.62 122.3 670.694 124.407 669.42C125.263 668.896 126.083 668.316 126.861 667.682C126.457 669.883 125.966 671.881 125.475 673.908C124.696 675.326 123.859 676.803 122.993 678.164C119.805 683.367 116.194 688.296 112.197 692.902C114.564 691.744 116.902 690.499 119.182 689.138C120.481 688.385 121.752 687.575 123.022 686.764C120.828 691.078 118.576 695.45 116.325 699.591C115.285 701.531 114.189 703.442 113.149 705.382C106.228 696.995 101.717 686.875 100.102 676.108C95.017 688.139 88.4622 699.49 80.5877 709.899C82.1559 709.31 83.6183 708.469 84.9177 707.409C85.997 706.569 86.9669 705.596 87.8044 704.513C87.8044 705.035 87.5446 705.556 87.4003 706.077C86.3033 707.814 85.1487 709.523 83.9651 711.202C80.5561 715.694 77.6519 720.549 75.3051 725.68C77.4806 724.933 79.5116 723.817 81.3094 722.379C82.436 721.523 83.4711 720.553 84.3981 719.483V720.062C83.3878 722.495 82.2908 724.898 81.165 727.243C78.2588 733.263 74.9308 739.069 71.2061 744.617C74.5294 743.389 77.7287 741.848 80.7609 740.013C81.4537 739.607 82.1177 739.173 82.8105 738.71C81.6825 741.199 80.4201 743.626 79.0289 745.977C77.7877 748.12 76.4598 750.205 75.0742 752.29H228.731C228.775 751.499 228.775 750.706 228.731 749.915C229.742 749.307 230.781 748.757 231.762 748.062C231.532 749.481 231.329 750.958 231.099 752.29H461.281C459.953 750.321 458.568 748.352 457.269 746.325C455.97 744.298 454.642 742.213 453.401 740.157C453.79 737.634 453.79 735.066 453.401 732.542C456.631 735.436 460.469 737.564 464.63 738.768L458.857 730.486L455.595 725.709C457.991 723.045 460.415 720.41 462.84 717.746C463.822 721.134 464.832 724.55 465.727 727.967C465.958 728.691 466.449 729.589 467.112 729.386C467.286 729.096 467.459 728.807 467.603 728.517L466.939 745.369H477.562L477.273 738.188L476.898 729.01L476.667 723.219C477.995 725.303 479.381 727.359 480.853 729.328L483.105 718.817C483.711 719.512 484.346 720.178 484.952 720.844C484.952 722.582 484.75 724.348 484.606 726.085L487.146 723.19C489.022 725.245 490.899 727.33 492.919 729.386C492.602 725.477 492.4 721.597 492.284 717.804L493.294 716.675L499.645 720.613L500.771 725.911C502.763 723.276 504.639 720.526 506.4 717.717L506.082 725.477L505.592 737.812L505.216 747.454H519.679L518.784 724.84L519.448 725.998C520.343 726.259 521.007 725.043 521.295 724.087C522.662 719.512 523.999 714.937 525.308 710.362L536.421 722.524C537.23 718.47 538.038 714.416 538.875 710.362L540.549 709.32C543.516 712.089 546.691 714.625 550.046 716.906C550.046 717.485 550.046 718.065 550.046 718.673L551.086 717.514L553.366 718.962L552.76 715.661L557.176 710.855C558.953 711.852 560.831 712.657 562.777 713.258L563.902 718.499C565.606 716.211 567.222 713.837 568.752 711.434L568.492 718.122L568.059 728.778L567.742 737.088H580.039L579.259 717.572L579.837 718.557C580.616 718.788 581.165 717.746 581.424 716.906L584.888 705.064L594.472 715.574C595.309 711.463 596.118 707.322 596.955 703.21C600.612 706.746 604.649 709.863 608.992 712.505L607 701.647C610.333 704.803 614.418 707.046 618.864 708.162C614.679 702.66 610.724 696.985 606.914 691.165L616.728 685.113C616.728 690.904 616.324 696.927 615.805 702.834C620.096 698.201 624.349 693.539 628.564 688.849L631.45 702.631C633.384 700.054 635.232 697.361 636.964 694.611L636.646 702.226L636.184 714.271L635.809 723.711H649.579L648.713 701.589L649.377 702.718C650.243 702.979 650.878 701.792 651.166 700.836C651.975 698.143 652.754 695.45 653.533 692.787C654.89 691.918 656.218 691.02 657.517 690.065L665.946 699.33L667.072 693.8L672.066 688.327L673.856 689.775C674.577 692.323 675.328 694.871 676.078 697.419C676.309 698.143 676.771 699.041 677.464 698.838L677.955 697.969L677.291 714.822H687.885L687.596 707.641L687.279 699.562C688.318 698.925 689.299 698.201 690.309 697.506C690.627 697.912 690.887 698.375 691.204 698.78C691.204 698.056 691.522 697.304 691.666 696.551C693.53 695.2 695.313 693.74 697.007 692.178C697.844 693.134 698.71 694.061 699.547 695.074L701.106 702.863L710.43 692.642L713.807 704.224C714.067 705.035 714.615 706.048 715.366 705.816L715.943 704.832L715.193 723.856H727.143L726.826 715.748L726.422 705.382L726.162 699.359L726.393 699.215C727.807 701.473 729.28 703.645 730.867 705.758C731.647 702.197 732.397 698.607 733.177 695.045L733.985 694.524C735.255 695.972 736.583 697.419 737.853 698.78C737.709 702.458 737.507 706.135 737.189 709.812L742.558 704.021L744.377 705.99C744.377 704.774 744.204 703.529 744.117 702.313L750.035 695.827L752.921 709.725C754.846 707.119 756.693 704.427 758.464 701.647L758.175 709.291L757.684 721.423L757.309 730.921H771.338L770.443 708.654L771.107 709.783C772.002 710.073 772.637 708.857 772.926 707.901L775.813 698.462C775.813 700.865 775.524 703.297 775.322 705.701C777.343 703.529 779.334 701.328 781.326 699.128L787.937 706.395L788.543 703.297C788.716 704.05 788.86 704.803 789.034 705.556C790.708 703.297 792.324 700.952 793.825 698.549L793.566 705.179L793.133 715.719L792.815 723.942H804.968L804.217 704.629L804.795 705.614C805.574 705.845 806.123 704.803 806.354 703.992C807.22 701.097 808.057 698.201 808.923 695.306C810.762 696.262 812.697 697.019 814.696 697.564L819.343 702.689C820.181 698.607 820.989 694.524 821.826 690.441C825.429 693.954 829.419 697.043 833.719 699.649L831.727 688.935C835.042 691.83 839.018 693.859 843.303 694.842ZM109.021 708.249C108.646 706.772 108.3 705.353 107.982 703.645C108.556 704.115 109.164 704.54 109.801 704.919C110.667 705.469 111.591 705.903 112.687 706.395C111.966 707.756 111.186 709.117 110.465 710.478C109.772 709.725 109.426 709.001 109.021 708.249ZM113.698 722.726L113.525 723.016C112.63 721.279 111.706 719.57 110.811 717.804C111.764 718.412 112.716 719.02 113.698 719.57L114.852 720.207C114.448 721.076 114.102 721.916 113.698 722.755V722.726ZM117.595 714.04C116.989 715.459 116.325 716.935 115.69 718.209C115.083 717.399 114.477 716.617 113.9 715.777C114.218 715.611 114.526 715.427 114.824 715.227C115.805 714.619 116.758 713.982 117.71 713.345C117.694 713.627 117.655 713.908 117.595 714.184V714.04ZM172.182 749.336C172.168 748.045 172.052 746.758 171.835 745.485H172.008C172.528 745.948 173.077 746.354 173.625 746.759L172.182 749.336ZM181.737 717.688C180.668 720.178 179.572 722.639 178.359 725.043C176.685 728.488 174.837 731.847 172.874 735.119C170.421 731.5 168.025 727.822 165.831 724.029C163.971 720.872 162.284 717.614 160.779 714.271C161.674 714.879 162.598 715.459 163.666 716.009C166.443 717.683 169.338 719.154 172.326 720.41C171.691 721.568 171.085 722.755 170.421 723.884C171.922 723.132 173.307 722.321 174.866 721.51C175.444 721.713 175.963 722.002 176.541 722.205C176.252 721.8 176.05 721.365 175.761 720.96C177.031 720.236 178.301 719.483 179.543 718.702L181.939 717.254C181.886 717.452 181.818 717.645 181.737 717.833V717.688ZM243.02 718.586C240.134 724.087 236.872 729.502 233.552 734.772C232.773 736.017 231.936 737.204 231.156 738.42C228.443 734.482 225.758 730.486 223.333 726.317C221.775 723.595 220.274 720.815 218.975 717.92C219.754 718.441 220.562 718.933 221.342 719.396C224.293 721.169 227.382 722.699 230.579 723.971L229.713 725.216L231.56 724.377L232.426 724.753L232.08 724.145C234.505 723.074 236.93 721.916 239.297 720.642C240.567 719.976 241.779 719.281 243.02 718.557V718.586ZM291.632 695.392C291.257 694.582 290.824 693.8 290.477 692.989C291.055 693.395 291.632 693.742 292.238 694.118L291.632 695.392ZM288.37 668.377V667.595C289.579 669.079 290.944 670.429 292.44 671.62C293.246 672.226 294.084 672.787 294.952 673.3C294.086 674.574 293.191 675.848 292.267 677.093C290.881 674.226 289.582 671.331 288.341 668.377H288.37ZM297.434 675.384C296.337 677.093 295.211 678.772 294.028 680.452C293.653 679.728 293.248 679.033 292.873 678.28C293.625 677.848 294.339 677.354 295.009 676.803C295.821 676.124 296.565 675.368 297.232 674.545L297.607 674.689L297.434 675.384ZM322.173 689.572C321.769 688.82 321.336 688.038 320.96 687.285L322.721 688.385C322.49 688.762 322.317 689.167 322.144 689.572H322.173ZM326.907 711.897C326.474 710.999 326.07 710.102 325.666 709.204C326.07 708.944 326.532 708.77 326.936 708.509C327.34 708.77 327.744 708.944 328.148 709.204C327.773 710.16 327.34 711.028 326.878 711.897H326.907ZM327.484 694.003C326.994 694.958 326.445 695.914 325.954 696.898C325.002 695.103 324.078 693.279 323.068 691.455C323.929 691.047 324.767 690.593 325.579 690.094L328.466 691.686C328.148 692.381 327.831 693.192 327.455 694.089L327.484 694.003ZM331.122 685.866C330.342 687.719 329.505 689.543 328.668 691.368C328.033 690.644 327.484 689.891 326.878 689.138L327.6 688.675C328.879 687.629 330.058 686.465 331.122 685.2V685.866ZM366.021 707.467C366.021 707.467 365.762 706.917 365.646 706.656C365.66 706.473 365.66 706.289 365.646 706.106L366.512 706.656C366.357 706.937 366.183 707.208 365.993 707.467H366.021ZM364.953 691.194C363.625 688.675 362.298 686.185 361.027 683.666C362.096 684.36 363.164 685.026 364.261 685.663C365.213 686.214 366.195 686.706 367.147 687.198L364.953 691.194ZM369.861 698.954L369.572 699.649C369.428 699.359 369.254 699.099 369.11 698.838C369.419 698.662 369.718 698.469 370.005 698.259C369.941 698.516 369.893 698.778 369.861 699.041V698.954ZM410.822 675.79C410.649 675.355 410.418 674.921 410.245 674.458V673.821L411.4 675.095C411.227 675.326 411.025 675.587 410.822 675.877V675.79ZM410.822 663.078C409.264 660.82 407.734 658.561 406.29 656.274C406.117 655.608 405.944 654.913 405.742 654.247C406.816 655.709 408.067 657.032 409.466 658.185C410.812 659.261 412.285 660.166 413.853 660.878C413.132 662.007 412.381 663.107 411.602 664.208L410.822 663.078ZM414.431 668.261L413.392 666.756C413.936 666.415 414.457 666.038 414.95 665.626C414.806 666.611 414.604 667.48 414.431 668.348V668.261ZM444.366 689.022C443.615 687.372 442.836 685.75 442.114 684.071V683.405C443.172 684.694 444.362 685.868 445.664 686.909L444.366 689.022ZM447.685 695.856C447.31 695.132 446.906 694.437 446.559 693.684C446.992 693.337 447.425 693.018 447.858 692.642C447.715 693.736 447.657 694.839 447.685 695.943V695.856ZM450.572 717.543C451.236 716.964 451.929 716.443 452.535 715.835C453.025 718.18 453.487 720.526 453.949 722.871C452.795 721.221 451.698 719.425 450.572 717.63V717.543ZM456.172 669.449C455.046 671.939 453.776 674.371 452.419 676.716C451.063 679.062 449.85 680.944 448.465 683C446.646 680.104 444.596 677.209 442.691 674.313C441.334 672.373 440.007 670.404 438.765 668.522C438.621 667.914 438.477 667.335 438.303 666.756C439.229 668.031 440.315 669.179 441.537 670.172C442.941 671.384 444.529 672.361 446.242 673.068C445.722 673.908 445.231 674.776 444.683 675.616C447.999 674.394 451.19 672.852 454.209 671.012C454.902 670.607 455.595 670.172 456.259 669.709L456.172 669.449ZM482.469 639.277C482.123 637.8 481.748 636.382 481.459 634.673C482.028 635.15 482.636 635.576 483.278 635.947C484.144 636.468 485.068 636.932 486.164 637.424L483.913 641.507L482.469 639.277ZM487.146 653.755C487.109 653.857 487.061 653.954 487.002 654.044C486.078 652.307 485.183 650.57 484.288 648.832C485.241 649.44 486.193 650.048 487.175 650.599L488.329 651.236C487.925 652.104 487.579 652.944 487.175 653.784L487.146 653.755ZM491.072 645.068C490.494 646.487 489.802 647.964 489.167 649.238C488.56 648.427 487.983 647.645 487.406 646.805L488.329 646.255C489.311 645.647 490.264 645.01 491.216 644.373C491.156 644.65 491.117 644.93 491.101 645.213L491.072 645.068ZM545.659 680.509C545.64 679.22 545.534 677.933 545.341 676.658H545.514C546.005 677.122 546.582 677.527 547.102 677.932C546.64 678.888 546.149 679.612 545.659 680.509ZM555.242 648.861C554.174 651.351 553.048 653.813 551.865 656.216C550.162 659.662 548.314 663.02 546.38 666.292C543.927 662.673 541.531 658.996 539.308 655.203C537.489 652.046 535.786 648.803 534.256 645.445C535.18 646.053 536.075 646.632 537.143 647.182C539.927 648.845 542.82 650.315 545.803 651.583C545.139 652.741 544.533 653.928 543.869 655.058C545.399 654.305 546.756 653.494 548.343 652.683L549.989 653.378L549.238 652.133C550.508 651.409 551.75 650.656 552.991 649.875L555.473 648.253L555.242 648.861ZM560.092 707.322L561.218 706.077C561.478 707.409 561.766 708.712 562.055 710.015L560.092 707.322ZM604.171 686.764C603.536 685.75 602.872 684.737 602.237 683.695C602.382 682.736 602.459 681.768 602.468 680.799C603.479 680.191 604.518 679.612 605.499 678.946L604.171 686.764ZM616.642 649.759C613.755 655.26 610.522 660.675 607.202 665.945C606.423 667.161 605.586 668.377 604.806 669.593C602.064 665.655 599.38 661.66 596.984 657.49C595.388 654.768 593.934 651.965 592.625 649.093C593.404 649.614 594.184 650.106 594.992 650.57C597.94 652.347 601.03 653.878 604.229 655.145C603.912 655.55 603.652 655.984 603.334 656.39L605.211 655.55L606.077 655.926C605.932 655.724 605.846 655.521 605.701 655.318C608.155 654.247 610.58 653.089 612.947 651.815L616.671 649.73L616.642 649.759ZM665.253 626.421C664.849 625.61 664.445 624.828 664.07 623.989C664.647 624.394 665.253 624.741 665.831 625.118L665.253 626.421ZM665.917 608.121C664.532 605.226 663.233 602.33 661.991 599.435V598.537C663.201 600.021 664.565 601.37 666.062 602.562C666.858 603.181 667.697 603.742 668.573 604.241L665.917 608.121ZM671.055 606.413C669.987 608.121 668.833 609.801 667.678 611.48C667.303 610.756 666.87 610.032 666.523 609.308C667.275 608.876 667.99 608.383 668.659 607.832C669.464 607.145 670.208 606.389 670.882 605.573L671.229 605.718C671.027 605.978 670.94 606.181 670.911 606.413H671.055ZM687.105 698.114L686.874 692.323C687.192 692.844 687.538 693.308 687.885 693.8L687.105 698.114ZM695.765 620.601C695.361 619.819 694.957 619.066 694.582 618.284L696.372 619.385L695.765 620.601ZM700.528 642.925C700.095 642.028 699.691 641.13 699.287 640.233C699.691 639.972 700.124 639.769 700.528 639.538C700.904 639.798 701.337 639.972 701.741 640.233C701.279 641.159 700.846 641.97 700.384 642.925H700.528ZM701.077 625.031C700.615 625.987 700.066 626.913 699.576 627.927C698.623 626.131 697.671 624.307 696.689 622.483C697.547 622.077 698.376 621.612 699.172 621.093C700.153 621.643 701.135 622.193 702.058 622.686C701.539 623.41 701.337 624.22 700.932 625.031H701.077ZM704.743 616.895C703.963 618.748 703.097 620.572 702.26 622.396C701.654 621.672 701.077 620.919 700.5 620.167C700.73 619.993 700.99 619.877 701.221 619.674C702.504 618.653 703.675 617.498 704.714 616.229V616.895H704.743ZM739.643 638.495C739.643 638.206 739.383 637.945 739.267 637.685C739.254 637.501 739.254 637.318 739.267 637.134L740.133 637.685L739.643 638.495ZM738.575 622.28C737.276 619.79 735.948 617.3 734.678 614.781C735.746 615.476 736.814 616.142 737.911 616.779C738.834 617.329 739.816 617.792 740.797 618.313C739.931 619.645 739.065 620.977 738.43 622.28H738.575ZM743.482 630.069C743.388 630.306 743.282 630.538 743.164 630.764L742.731 629.953L743.597 629.374C743.527 629.612 743.44 629.844 743.338 630.069H743.482ZM784.473 606.905L783.866 605.573C783.866 605.312 783.866 605.052 783.866 604.791C784.213 605.226 784.617 605.631 785.021 606.065C784.732 606.355 784.501 606.615 784.328 606.905H784.473ZM784.473 594.165C782.885 591.935 781.355 589.677 779.941 587.389C779.796 586.723 779.623 586.028 779.421 585.362C780.487 586.831 781.739 588.155 783.145 589.3C784.48 590.376 785.945 591.281 787.504 591.993C786.782 593.122 786.031 594.223 785.281 595.323L784.473 594.165ZM788.052 599.348L787.042 597.871C787.582 597.523 788.102 597.146 788.601 596.742C788.283 597.639 788.139 598.537 787.908 599.348H788.052Z" fill="black"/>
        <path d="M49.2688 625.118C44.1306 618.198 39.1944 611.046 34.5757 603.691C33.0169 601.259 31.5158 598.769 30.0148 596.278C30.4921 593.267 30.4921 590.198 30.0148 587.186V587.331C33.857 590.818 38.4213 593.409 43.38 594.917L36.5675 584.928C32.1798 578.529 27.9075 572.072 23.9527 565.267C22.1341 562.024 20.431 558.694 18.93 555.278C19.8248 555.886 20.7486 556.523 21.8166 557.073C25.9402 559.638 30.2998 561.801 34.8355 563.53C29.8143 555.849 25.3479 547.818 21.4703 539.497C19.9499 536.254 18.5066 532.953 17.1403 529.594V528.784C18.3967 530.343 19.8089 531.769 21.3548 533.04C23.8156 535.086 26.6213 536.675 29.6395 537.731C26.512 530.732 22.6407 524.091 18.0928 517.925C16.5051 515.58 14.9175 513.235 13.4742 510.831C13.3298 510.136 13.1566 509.412 12.9546 508.718C14.0553 510.245 15.3345 511.636 16.765 512.858C18.4931 514.324 20.4416 515.507 22.5383 516.362C11.9085 501.972 3.10391 486.313 -3.67263 469.744C-5.72217 486.045 -14.2667 500.494 -24.4278 512.684C-21.9741 511.295 -19.6359 510.368 -17.4709 509.094C-16.5919 508.578 -15.7525 507.997 -14.9595 507.357C-15.3925 509.586 -15.9121 511.613 -16.4317 513.669C-17.2688 515.117 -18.1349 516.564 -19.0297 517.983C-22.3311 523.251 -26.0578 528.239 -30.1723 532.895C-27.7475 531.737 -25.3515 530.492 -23.0133 529.16C-21.6566 528.407 -20.3576 527.596 -19.0586 526.786C-21.339 531.158 -23.6772 535.472 -26.0154 539.787C-30.0856 547.257 -34.2713 554.612 -38.5436 561.908C-34.8486 560.084 -31.2115 558.086 -27.6897 555.886L-24.8031 554.004C-24.7868 554.225 -24.7868 554.448 -24.8031 554.67C-26.1021 557.565 -27.4588 560.461 -28.9021 563.356C-33.3508 572.184 -38.5772 580.595 -44.5189 588.489C-41.0838 587.1 -37.7353 585.594 -34.4445 583.828C-33.1455 583.162 -31.8465 582.438 -30.5475 581.685C-33.7228 587.476 -37.081 593.074 -40.622 598.479C-44.9712 605.255 -49.5995 611.827 -54.5068 618.198C-50.3195 616.495 -46.3154 614.37 -42.556 611.856C-43.422 616.866 -44.3169 621.875 -45.1829 626.884L-30.9805 618.198C-31.1826 624.336 -31.5578 630.504 -32.1352 636.642C-27.6031 631.864 -23.1288 627.058 -18.6544 622.164C-17.7018 626.971 -16.7204 631.778 -15.7678 636.642C-13.6894 633.949 -11.7553 631.198 -9.99444 628.332L-10.4852 636.179L-11.1202 648.745L-11.611 658.59H2.82237L2.1873 635.426L2.85122 636.613C3.77495 636.903 4.4389 635.658 4.75643 634.673L8.99983 620.717L20.2001 633.283C21.2008 628.419 22.2304 623.593 23.2888 618.806C27.5561 623.048 32.292 626.788 37.4046 629.953L35.153 617.097C39.0865 620.952 43.9506 623.715 49.2688 625.118Z" fill="#536966"/>
        <path d="M32.4358 655.81C37.372 649.469 42.1061 642.925 46.5516 636.179C48.0527 633.92 49.4383 631.662 50.9393 629.345C50.5251 626.528 50.5738 623.662 51.0837 620.861H50.9104C47.2757 624.046 42.9746 626.371 38.3246 627.666L44.8773 618.516C49.0918 612.725 53.3064 606.702 57.0302 600.477C58.8149 597.495 60.4433 594.421 61.9087 591.269C61.0427 591.819 60.1767 592.369 59.2818 592.891C55.397 595.211 51.2982 597.15 47.0423 598.682C51.8639 591.63 56.1853 584.248 59.9746 576.589C61.4756 573.693 62.8612 570.537 64.218 567.468C64.2324 567.217 64.2324 566.966 64.218 566.715C63.0285 568.135 61.6933 569.426 60.2344 570.566C57.9204 572.371 55.313 573.762 52.527 574.678C55.5971 568.208 59.3728 562.1 63.785 556.465C65.3149 554.322 66.8448 552.15 68.2304 549.979C68.4036 549.313 68.548 548.647 68.7501 548.01C67.7117 549.423 66.4883 550.689 65.1129 551.774C63.4746 553.187 61.6106 554.313 59.5993 555.104C69.7969 541.93 78.3204 527.535 84.9731 512.25C86.5319 527.452 94.1816 541.205 103.419 552.643C101.138 551.311 98.9735 550.384 96.9817 549.168C96.1829 548.663 95.4209 548.102 94.7012 547.489C95.0476 549.573 95.5094 551.484 95.9424 553.28C96.6641 554.67 97.4435 556.001 98.2518 557.362C101.232 562.323 104.601 567.038 108.326 571.464C106.103 570.363 103.91 569.147 101.745 567.844C100.503 567.12 99.291 566.339 98.1074 565.557C100.128 569.668 102.235 573.751 104.314 577.805C107.951 584.841 111.675 591.761 115.514 598.653C112.1 596.891 108.776 594.958 105.555 592.862L102.842 591.037V591.674C103.967 594.425 105.151 597.147 106.45 599.84C110.413 608.148 115.108 616.085 120.479 623.554C117.313 622.203 114.22 620.685 111.213 619.008L107.605 616.952C110.491 622.338 113.378 627.637 116.64 632.791C120.489 639.18 124.655 645.406 129.139 651.467C125.29 649.777 121.616 647.711 118.17 645.3C118.863 649.99 119.584 654.681 120.306 659.343L107.258 651.091C107.258 656.882 107.518 662.673 107.951 668.29C103.823 663.744 99.7528 659.198 95.7115 654.565C94.7012 659.025 93.6908 663.484 92.8248 667.943C90.9485 665.424 89.2165 662.789 87.5711 660.096L87.7732 667.479L88.1196 679.206L88.3794 688.356L74.8409 688.211L75.9379 666.727L75.2739 667.827C74.4079 668.059 73.8017 666.9 73.5419 665.974L69.8759 652.915L59.1952 664.497C58.3292 659.951 57.4921 655.405 56.6261 650.859C52.5614 654.71 48.0781 658.09 43.2608 660.936L45.599 649.035C41.8442 652.361 37.3187 654.69 32.4358 655.81Z" fill="#819C93"/>
        <path d="M194.955 657.895C189.836 651.004 184.977 643.91 180.377 636.613C178.819 634.181 177.318 631.72 175.845 629.229C176.321 626.237 176.321 623.188 175.845 620.195C179.656 623.674 184.193 626.255 189.124 627.753C186.844 624.452 184.592 621.122 182.34 617.821C178.01 611.48 173.68 605.081 169.841 598.334C167.999 595.116 166.332 591.801 164.847 588.402L167.734 590.198C171.829 592.744 176.16 594.887 180.666 596.597C175.68 588.98 171.243 581.017 167.387 572.766C165.858 569.523 164.501 566.251 163.115 562.922V562.111C166.303 566.112 170.557 569.124 175.384 570.797C172.275 563.834 168.402 557.24 163.837 551.137C162.249 548.791 160.69 546.475 159.247 544.101L158.727 541.987C159.834 543.632 161.154 545.122 162.653 546.417C164.379 547.879 166.329 549.052 168.427 549.892C157.885 535.589 149.158 520.027 142.447 503.563C140.397 519.72 131.939 534.053 121.836 546.157C124.29 544.767 126.599 543.84 128.764 542.595C129.635 542.082 130.466 541.501 131.246 540.858C130.813 543.087 130.294 545.114 129.774 547.141C128.966 548.589 128.1 550.037 127.205 551.426C123.925 556.658 120.217 561.607 116.12 566.223C118.545 565.093 120.912 563.848 123.25 562.516C124.578 561.763 125.877 560.982 127.176 560.171C124.925 564.485 122.586 568.858 120.248 573.085C116.207 580.469 112.079 587.765 107.835 595.033C111.502 593.209 115.11 591.211 118.603 589.039L121.489 587.186C121.489 587.389 121.489 587.621 121.345 587.852C120.075 590.748 118.718 593.643 117.304 596.539C112.889 605.297 107.702 613.64 101.802 621.469C105.18 620.108 108.528 618.574 111.79 616.865C113.089 616.199 114.388 615.476 115.658 614.752C112.483 620.388 109.154 625.938 105.67 631.401C101.34 638.119 96.7507 644.663 91.9011 650.975C96.0417 649.274 100.006 647.169 103.736 644.691L101.138 659.603L115.225 651.091C115.023 657.229 114.677 663.339 114.071 669.419C118.574 664.709 123.029 659.932 127.436 655.086C128.417 659.864 129.37 664.642 130.323 669.419C132.363 666.755 134.287 664.005 136.096 661.167L135.692 669.043L135.057 681.523L134.566 691.281H148.999L148.364 668.377C148.566 668.782 148.797 669.159 149.028 669.564C149.952 669.854 150.616 668.638 150.905 667.653L155.148 653.812L166.233 666.234C167.272 661.428 168.282 656.592 169.322 651.757C173.555 655.972 178.252 659.692 183.322 662.846C182.571 658.59 181.85 654.334 181.099 650.077C184.982 653.819 189.75 656.51 194.955 657.895Z" fill="#536966"/>
        <path d="M228.643 683.115C224.39 677.324 220.358 671.446 216.548 665.481C215.277 663.455 214.036 661.428 212.824 659.372C213.214 656.887 213.214 654.357 212.824 651.872C215.973 654.762 219.733 656.9 223.822 658.127C221.946 655.405 220.069 652.654 218.222 649.903C214.613 644.634 211.005 639.335 207.83 633.746C206.316 631.067 204.939 628.313 203.702 625.494C204.452 626.015 205.203 626.537 205.982 627C209.372 629.11 212.959 630.885 216.692 632.299C212.56 625.978 208.885 619.369 205.694 612.522C204.424 609.858 203.24 607.136 202.143 604.386V603.72C203.172 604.998 204.333 606.163 205.607 607.194C207.611 608.843 209.887 610.127 212.333 610.988C209.722 605.214 206.5 599.739 202.72 594.657C201.421 592.746 200.122 590.806 198.91 588.866C198.766 588.287 198.65 587.707 198.477 587.128C199.379 588.395 200.436 589.543 201.623 590.545C203.059 591.771 204.689 592.75 206.444 593.441C197.763 581.597 190.578 568.72 185.054 555.104C183.351 568.51 176.394 580.382 167.965 590.429C169.986 589.271 171.92 588.518 173.738 587.534C174.453 587.097 175.137 586.614 175.788 586.086C175.441 587.939 175.008 589.618 174.575 591.298C173.912 592.485 173.19 593.672 172.439 594.83C169.724 599.215 166.644 603.361 163.231 607.223C165.251 606.268 167.214 605.225 169.148 604.125L172.41 602.156C170.534 605.747 168.6 609.308 166.637 612.87C163.289 618.979 159.853 625.06 156.332 631.054C159.363 629.548 162.365 627.897 165.251 626.102C166.089 625.61 166.897 625.089 167.705 624.568C167.689 624.751 167.689 624.935 167.705 625.118C166.637 627.521 165.54 629.895 164.328 632.241C160.675 639.506 156.376 646.426 151.482 652.915C154.307 651.783 157.072 650.507 159.767 649.093C160.835 648.543 161.903 647.935 162.971 647.326C160.373 652.017 157.602 656.65 154.686 661.138C151.107 666.736 147.258 672.151 143.14 677.382C146.572 675.969 149.859 674.223 152.954 672.17L150.789 684.534L162.48 677.469C162.307 682.565 162.018 687.632 161.528 692.67C165.261 688.81 168.956 684.853 172.612 680.799C173.421 684.766 174.2 688.704 175.008 692.67C176.712 690.47 178.299 688.182 179.8 685.837L179.483 692.352L178.934 702.718L178.53 710.797H190.481L189.961 691.773C190.127 692.11 190.31 692.439 190.51 692.757C191.26 692.989 191.809 691.976 192.069 691.165C193.252 687.343 194.407 683.521 195.59 679.583L204.77 689.891C205.636 685.895 206.473 681.899 207.339 677.903C210.837 681.383 214.709 684.462 218.886 687.082C218.28 683.55 217.673 680.017 217.038 676.484C220.271 679.663 224.269 681.947 228.643 683.115Z" fill="#819C93"/>
        <path d="M-432 666.987V752H243.798L246.453 736.335C246.713 735.409 247.002 734.801 247.319 734.685L247.695 734.424C247.764 734.34 247.841 734.262 247.925 734.193L248.099 733.903C248.099 733.903 248.243 733.671 248.33 733.585C248.492 733.324 248.637 733.054 248.763 732.774C248.965 732.397 249.138 731.963 249.34 731.5C249.425 731.18 249.541 730.87 249.686 730.573C249.86 730.081 250.004 729.589 250.177 729.126L250.466 728.228C250.697 727.591 250.841 727.012 251.014 726.433C251.187 725.854 251.014 725.911 251.245 725.709V725.332L251.563 724.116L252.862 710.884L253.41 705.093L254.392 698.172L254.536 697.159L263.196 688.212L265.303 683.81L264.726 682.623L264.466 682.102L262.503 677.846L261.348 677.353L259.616 676.572L255.806 674.892L241.373 668.551L238.226 668.956L232.742 669.68L230.317 668.667L226.304 666.929L222.811 668.146L218.481 669.68L184.679 669.391H170.245L67.3934 668.898L-432 666.987Z" fill="#9F4C33"/>
        <path opacity="0.4" d="M221.974 752L231.674 737.783V752H221.974Z" fill="#1D1D1B"/>
        <path opacity="0.4" d="M231.673 734.424L217.298 715.458V692.149L202.576 682.333L209.908 700.315L214.411 722.35L231.673 734.424Z" fill="#1D1D1B"/>
        <path opacity="0.4" d="M254.623 696.985L254.478 697.998L253.497 704.919L252.948 710.71L251.649 723.942C251.649 723.942 251.649 724.434 251.332 725.158V725.506C251.332 725.738 251.188 726.027 251.101 726.288C251.014 726.548 250.783 727.417 250.552 728.054C250.552 728.343 250.379 728.662 250.264 728.952C250.121 729.435 249.947 729.909 249.744 730.37C249.744 730.689 249.542 731.007 249.427 731.326L248.849 732.6C248.723 732.88 248.579 733.15 248.416 733.411L248.214 733.729L247.983 734.019L247.781 734.25L247.406 734.511C247.088 734.511 246.8 735.235 246.54 736.161L243.884 751.826H237.707L239.381 733.816L238.457 702.428L236.09 691.976L226.16 688.298L228.036 678.917L228.267 677.643L229.047 673.763L229.913 677.816L231.587 685.953L245.732 689.92V698.317L244.173 704.6L247.233 705.643L254.825 689.92L264.841 682.507L265.39 683.665L263.283 688.096L254.623 696.985Z" fill="#1D1D1B"/>
        <path opacity="0.4" d="M148.74 752H126.945L137.164 737.783L140.137 717.978L162.422 703.008L157.746 737.783L148.74 752Z" fill="#1D1D1B"/>
        <path opacity="0.4" d="M175.874 752L171.313 699.041L197.091 699.62C197.091 700.46 187.219 732.89 181.359 752H175.874Z" fill="#1D1D1B"/>
        <path opacity="0.4" d="M89.332 752L95.827 737.783L91.4681 704.832L103.39 720.67L109.106 747.251L108.326 752H89.332Z" fill="#1D1D1B"/>
        <path opacity="0.4" d="M74.61 686.098C74.61 687.864 76.1111 734.424 76.1111 734.424L61.6778 751.653L66.1521 724.174L54.6055 695.508V682.333L74.61 686.098Z" fill="#1D1D1B"/>
        <path opacity="0.4" d="M0.0761454 752H-21.2852L-22.0068 748.439L-13.6066 727.272L-18.8315 677.875L0.393681 719.715L-2.26205 744.906C-2.26205 744.906 -1.22285 748.004 0.0761454 752Z" fill="#1D1D1B"/>
        <path opacity="0.2" d="M254.623 696.985L254.478 697.998L253.497 704.919L252.948 710.71L251.649 723.942C251.649 723.942 251.649 724.434 251.332 725.158V725.506C251.332 725.738 251.187 726.027 251.101 726.288C251.014 726.548 250.783 727.417 250.552 728.054C250.552 728.343 250.379 728.662 250.264 728.952C250.121 729.435 249.947 729.909 249.744 730.37C249.744 730.689 249.542 731.007 249.427 731.326L248.849 732.6C248.723 732.88 248.578 733.15 248.416 733.411L248.214 733.729L247.983 734.019L247.781 734.25L247.406 734.511C247.088 734.511 246.8 735.235 246.54 736.161L243.884 751.826H128.417L137.366 737.609L140.253 717.804L162.538 689.659L170.418 669.101L171.342 666.727L184.794 669.188L228.44 677.324L230.115 677.643L240.362 679.554C240.362 679.554 250.956 680.48 264.668 681.841L264.957 682.391L265.505 683.55L263.398 687.98L254.623 696.985Z" fill="#1D1D1B"/>
        <path d="M-432 635.078V688.617L-363.846 688.356L-346.728 688.269L-312.434 688.124L-290.957 688.038L-254.585 687.893H-254.557L-239.546 687.835L-186.258 687.632L-171.854 687.574L-148.212 687.487L-124.888 687.4L-109.011 687.314L-84.3876 687.227L-66.6635 686.242L-52.1147 681.783L-26.2213 686.242L-16.9839 695.479L-6.04349 706.453L-5.75481 706.337H-5.72596L23.949 696.521L39.537 691.367L44.1845 689.833L54.5477 692.265L73.8017 696.782L74.8698 696.55L95.3651 692.207L140.166 717.977L161.325 711.144H161.354L171.977 707.727L197.034 699.649L197.005 699.62L174.748 679.177L205.058 688.414L217.298 692.149L233.001 690.904L245.818 689.92L261.637 684.939H261.666L265.39 683.752L264.841 682.565L264.581 682.044L262.59 677.787L247.29 668.029L230.144 664.584L220.849 667.016L215.133 662.962L178.588 664.584L106.537 642.462L96.895 643.852L93.2001 643.128L28.4522 630.648L-59.8798 628.94L-98.9941 630.214L-432 635.078Z" fill="#A3C4B9"/>
        <path opacity="0.4" d="M23.9492 696.521L56.5108 720.641L39.5372 691.367L23.9492 696.521Z" fill="#1D1D1B"/>
        <path opacity="0.4" d="M6.02295 752H24.9017L32.0029 742.763L19.6191 725.506L24.7285 706.077L8.90962 723.479L11.2478 742.763L6.02295 752Z" fill="#1D1D1B"/>
        <path d="M-72.7021 392.627H58.9876C58.9015 391.205 58.4927 389.821 57.7923 388.582C57.0919 387.342 56.1185 386.28 54.9462 385.475C52.4524 383.71 49.4938 382.724 46.4427 382.642C43.3916 382.559 40.3844 383.384 37.7994 385.012C36.0059 383.293 33.8922 381.945 31.5791 381.046C29.266 380.146 26.7988 379.713 24.3187 379.771C22.3649 379.783 20.4222 380.066 18.5454 380.611C17.2175 370.36 6.19044 362.369 -7.26142 362.369C-18.3462 362.369 -27.7856 367.812 -31.4806 375.485C-33.052 375.121 -34.6596 374.937 -36.2724 374.935C-45.1345 374.935 -52.4377 380.234 -53.3037 386.981C-55.6143 385.334 -58.3786 384.449 -61.2132 384.449C-64.0478 384.449 -66.8122 385.334 -69.1227 386.981C-70.0745 387.624 -70.8836 388.458 -71.4995 389.429C-72.1154 390.401 -72.5248 391.489 -72.7021 392.627Z" fill="white"/>
        <g opacity="0.2">
            <path d="M406.348 183.614C404.715 184.528 401.45 186.632 398.73 188.461C393.288 191.846 385.76 197.151 385.851 197.059C385.942 196.968 394.013 189.742 399.274 184.803C401.582 182.294 403.647 179.568 405.441 176.662C405.781 175.978 406.084 175.276 406.348 174.559C406.348 174.559 406.801 172.912 406.348 173.004C405.894 173.095 405.169 174.01 404.806 174.376L403.355 175.931C397.823 181.967 356.738 216.816 352.294 219.285C351.35 219.904 350.442 220.576 349.573 221.297C349.123 221.519 348.722 221.83 348.394 222.212L346.762 224.041C345.57 225.287 344.45 226.6 343.406 227.974C342.462 228.969 341.64 230.075 340.957 231.267C339.73 230.734 338.383 230.545 337.057 230.718C336.06 228.981 335.334 226.602 333.52 225.413C331.706 224.224 324.451 224.59 325.63 229.712C325.095 230.05 324.658 230.523 324.36 231.084C323.907 232.182 324.36 234.468 325.448 235.017C325.298 234.471 325.353 233.888 325.605 233.381C325.856 232.874 326.285 232.479 326.809 232.273C327.36 233.589 327.844 234.932 328.26 236.298C327.983 236.735 327.74 237.194 327.534 237.67H326.537C325.16 237.856 323.797 238.131 322.455 238.493L317.467 239.773L315.2 240.505L313.84 241.145C313.84 241.145 311.119 242.517 310.847 242.792C306.765 245.81 257.79 267.945 249.991 270.231L247.995 270.872C247.267 270.952 246.575 271.237 246 271.695C246 272.244 246.998 272.427 247.36 272.518C248.113 272.614 248.875 272.614 249.628 272.518C253.016 272.214 256.361 271.54 259.604 270.506C266.316 267.945 275.476 264.103 276.383 263.646C277.29 263.189 268.492 268.128 263.051 271.603C260.239 273.341 256.974 275.354 255.432 276.451C253.89 277.549 252.349 278.463 252.53 279.195C252.53 280.018 255.523 279.195 256.339 278.646C259.725 277.703 263.007 276.416 266.134 274.805C272.301 271.329 282.913 264.469 283.094 264.378L275.113 270.323C272.664 272.152 270.125 273.982 267.585 275.994C266.039 277.021 264.609 278.218 263.323 279.561C263.323 279.561 261.418 281.207 261.69 281.756C261.962 282.305 262.869 281.756 263.323 281.756L266.95 280.11C273.513 276.075 279.87 271.71 285.996 267.03C285.996 267.03 280.101 273.25 277.834 275.445C276.839 276.4 275.928 277.44 275.113 278.555C275.113 278.555 274.387 279.561 274.569 279.835C274.75 280.11 275.294 279.835 275.657 279.835C277.692 279.011 279.663 278.033 281.552 276.908C283.333 275.65 285.029 274.275 286.631 272.792C289.533 270.323 292.345 267.488 292.345 267.488C291.789 268.63 291.153 269.73 290.44 270.78L288.627 273.524C288.627 274.073 287.357 275.628 287.81 276.085C288.354 276.634 289.987 275.445 290.531 274.988C291.437 274.329 292.286 273.595 293.07 272.792C294.884 271.055 297.152 268.494 296.88 269.134C296.608 269.774 296.154 271.146 296.88 271.603C297.605 272.061 298.149 271.603 298.512 270.963C299.295 270.357 299.996 269.649 300.598 268.859C301.051 268.311 301.233 268.859 301.142 269.408C301.052 269.957 301.142 270.872 301.142 271.146C301.142 271.42 302.412 271.146 302.865 270.414C303.565 269.769 304.176 269.03 304.679 268.219C305.103 267.564 305.623 266.978 306.221 266.481C306.126 266.964 306.126 267.462 306.221 267.945C306.221 267.945 306.221 268.585 306.947 268.585C307.672 268.585 308.035 268.585 308.398 267.853C308.994 267.168 309.428 266.354 309.667 265.475C309.667 265.475 309.667 265.475 309.667 265.018C309.869 265.249 310.122 265.427 310.406 265.539C310.691 265.65 310.997 265.691 311.3 265.658C311.989 265.542 312.627 265.218 313.129 264.728C313.631 264.238 313.974 263.605 314.112 262.914C314.184 263.159 314.312 263.384 314.485 263.57C314.658 263.757 314.872 263.9 315.109 263.989C315.347 264.077 315.602 264.109 315.853 264.081C316.105 264.054 316.347 263.967 316.56 263.829C317.083 263.482 317.508 263.006 317.794 262.445C318.08 261.884 318.217 261.258 318.193 260.628C318.193 261.725 319.553 261.634 320.188 261.176C320.521 260.861 320.782 260.478 320.954 260.051C321.126 259.625 321.205 259.167 321.186 258.707C321.821 259.53 322.637 258.707 323 258.707C323.303 258.328 323.511 257.88 323.606 257.402C323.701 256.924 323.68 256.431 323.544 255.963C323.645 256.197 323.809 256.398 324.017 256.544C324.225 256.689 324.47 256.773 324.723 256.786C324.932 256.774 325.136 256.719 325.323 256.624C325.51 256.53 325.676 256.398 325.811 256.237C326.138 255.871 326.367 255.427 326.478 254.947C326.589 254.468 326.578 253.968 326.446 253.493C326.446 253.493 326.99 253.493 327.262 253.493C327.61 253.4 327.924 253.21 328.169 252.944C328.457 252.653 328.619 252.258 328.619 251.847C328.619 251.435 328.457 251.041 328.169 250.749C329.53 250.749 330.074 248.646 328.804 247.914C328.897 247.981 329.008 248.017 329.122 248.017C329.235 248.017 329.347 247.981 329.439 247.914C332.281 252.469 336.015 256.391 340.413 259.439C340.413 263.646 339.96 268.585 339.96 268.585C340.144 269.109 340.432 269.59 340.806 269.999C341.18 270.408 341.633 270.736 342.136 270.963C342.412 271.124 342.725 271.208 343.043 271.208C343.362 271.208 343.674 271.124 343.95 270.963C344.146 271.461 344.466 271.899 344.879 272.236C345.292 272.572 345.784 272.796 346.308 272.884C346.52 272.989 346.753 273.043 346.988 273.043C347.224 273.043 347.457 272.989 347.668 272.884C347.926 273.209 348.26 273.463 348.641 273.623C349.021 273.783 349.435 273.843 349.845 273.799C350.125 273.756 350.389 273.641 350.612 273.465C350.835 273.289 351.008 273.057 351.115 272.792C351.407 272.953 351.735 273.036 352.067 273.036C352.4 273.036 352.727 272.953 353.02 272.792C353.277 272.677 353.502 272.501 353.676 272.277C353.85 272.054 353.967 271.791 354.017 271.512C354.244 271.669 354.513 271.754 354.788 271.754C355.063 271.754 355.332 271.669 355.559 271.512C355.835 271.32 356.055 271.059 356.198 270.753C356.341 270.448 356.403 270.111 356.375 269.774C356.643 269.857 356.931 269.848 357.193 269.749C357.456 269.65 357.679 269.466 357.826 269.225C358.09 268.916 358.271 268.542 358.35 268.142C358.43 267.741 358.405 267.327 358.28 266.939C358.493 266.846 358.685 266.708 358.841 266.534C358.998 266.361 359.115 266.156 359.187 265.933C359.459 265.477 359.602 264.955 359.602 264.423C359.602 263.892 359.459 263.37 359.187 262.914C359.458 262.756 359.685 262.53 359.844 262.257C360.003 261.985 360.089 261.675 360.094 261.359C360.203 260.798 360.186 260.219 360.045 259.666C359.903 259.112 359.641 258.597 359.277 258.158L351.841 253.859C351.199 248.224 349.506 242.762 346.852 237.761C346.899 238.069 347.036 238.356 347.247 238.584C347.457 238.813 347.73 238.972 348.031 239.042C348.575 239.042 349.029 239.042 349.029 238.31C349.029 239.682 351.568 240.231 351.75 238.95C351.911 239.325 352.204 239.626 352.573 239.796C352.941 239.965 353.359 239.989 353.745 239.865L354.652 239.316C354.749 239.05 354.749 238.759 354.652 238.493C355.02 238.815 355.46 239.041 355.934 239.153C356.408 239.264 356.902 239.258 357.373 239.133C357.787 239.03 358.146 238.768 358.371 238.401C358.476 238.172 358.531 237.923 358.531 237.67C358.531 237.417 358.476 237.167 358.371 236.938C358.716 237.268 359.136 237.507 359.595 237.635C360.054 237.763 360.536 237.775 361.001 237.67C361.726 237.67 362.543 237.029 362.089 236.206C362.499 236.408 362.948 236.513 363.404 236.513C363.86 236.513 364.31 236.408 364.719 236.206C365.445 236.206 366.079 234.834 364.719 234.194C365.257 234.507 365.867 234.672 366.488 234.672C367.109 234.672 367.719 234.507 368.256 234.194C369.073 233.554 369.617 232.365 368.256 231.633C368.937 231.775 369.643 231.713 370.289 231.452C370.934 231.192 371.489 230.746 371.884 230.17C372.035 229.905 372.115 229.606 372.115 229.301C372.115 228.996 372.035 228.696 371.884 228.432H372.428C373.296 228.614 374.191 228.614 375.058 228.432C375.693 228.432 376.328 228.432 376.419 227.426C376.484 227.282 376.518 227.126 376.518 226.968C376.518 226.81 376.484 226.654 376.419 226.511L375.149 225.688C375.878 225.389 376.639 225.174 377.416 225.048C378.341 224.921 379.252 224.707 380.137 224.407C380.591 224.407 381.588 223.767 381.498 223.127C381.407 222.486 380.591 222.304 380.046 222.212C379.502 222.121 379.14 221.663 380.046 221.48C381.027 221.283 381.973 220.944 382.858 220.474C382.858 220.474 384.219 219.834 384.128 219.285C384.037 218.736 382.586 218.371 381.86 218.279C383.438 217.53 385.077 216.918 386.758 216.45C387.854 216.087 388.916 215.628 389.932 215.078C390.476 215.078 392.29 213.797 392.018 213.066C392.018 212.425 390.114 213.066 389.388 213.066H386.214C384.947 213.195 383.671 213.195 382.405 213.066C382.405 213.066 386.123 211.694 389.57 210.23C391.602 209.435 393.573 208.488 395.465 207.395C397.298 206.17 399.028 204.793 400.634 203.279C400.634 203.279 401.269 202.639 401.178 202.364C401.088 202.09 400.181 202.364 399.818 202.364C398.425 202.593 397.058 202.96 395.737 203.462C392.834 204.559 384.763 207.395 384.763 207.303C384.763 207.212 398.548 200.077 404.715 195.596C405.776 194.786 406.776 193.9 407.708 192.943C407.708 192.943 408.797 191.937 408.525 191.571C408.253 191.205 406.439 191.571 405.804 192.12C404.108 192.735 402.469 193.501 400.906 194.407C397.913 195.87 395.192 197.333 392.472 198.797L383.402 203.462C383.402 203.462 394.195 196.693 400.09 192.669C402.862 190.456 405.441 188.008 407.799 185.352C408.343 184.803 410.52 182.608 409.885 182.15C409.522 181.693 407.164 183.156 406.348 183.614Z" fill="#3C3C3B"/>
        </g>
        <g opacity="0.2">
            <path d="M283.403 336.405C283.605 335.999 283.171 336.811 283.403 336.405Z" fill="#3C3C3B"/>
        </g>
    </g>
    <defs>
        <clipPath id="clip0_0_1">
            <rect width="375" height="872" fill="white" transform="translate(0 -120)"/>
        </clipPath>
    </defs>
</svg>
