<svg width="12" height="19" viewBox="0 0 12 19" fill="none" xmlns="http://www.w3.org/2000/svg">
    <path d="M9.14287 9.4285L9.7143 9.4285L9.71429 16.8571C9.71429 17.236 9.56378 17.5993 9.29588 17.8672C9.02797 18.1351 8.6646 18.2856 8.28572 18.2856C7.90684 18.2856 7.54348 18.1351 7.27557 17.8672C7.00766 17.5993 6.85715 17.236 6.85715 16.8571L6.85715 10.1514L7.42858 10.1514L7.42858 16.8571C7.42858 17.0844 7.51889 17.3024 7.67963 17.4632C7.84038 17.6239 8.05839 17.7142 8.28572 17.7142C8.51305 17.7142 8.73107 17.6239 8.89181 17.4632C9.05256 17.3024 9.14287 17.0844 9.14287 16.8571L9.14287 9.4285ZM9.4573e-06 8.28564L0.571438 8.28564L0.571438 10.5714C0.571438 10.7987 0.661744 11.0167 0.822489 11.1774C0.983235 11.3382 1.20125 11.4285 1.42858 11.4285C1.65591 11.4285 1.87393 11.3382 2.03467 11.1774C2.19542 11.0167 2.28572 10.7987 2.28572 10.5714L2.28572 8.28564L2.85715 8.28564L2.85715 10.5714C2.85715 10.9502 2.70664 11.3136 2.43873 11.5815C2.17082 11.8494 1.80746 11.9999 1.42858 11.9999C1.0497 11.9999 0.686337 11.8494 0.418428 11.5815C0.150519 11.3136 9.22435e-06 10.9502 9.25747e-06 10.5714L9.4573e-06 8.28564Z" fill="#707366"/>
    <path d="M2.28574 8.85713L2.85717 8.85713L2.85717 11.1428C2.85717 11.3702 2.94748 11.5882 3.10822 11.7489C3.26897 11.9097 3.48698 12 3.71431 12C3.94164 12 4.15966 11.9097 4.3204 11.7489C4.48115 11.5882 4.57145 11.3702 4.57145 11.1428L4.57146 8.85713L5.14288 8.85713L5.14288 11.1428C5.14288 11.5217 4.99237 11.8851 4.72446 12.153C4.45656 12.4209 4.09319 12.5714 3.71431 12.5714C3.33543 12.5714 2.97207 12.4209 2.70416 12.153C2.43625 11.8851 2.28574 11.5217 2.28574 11.1428L2.28574 8.85713Z" fill="#707366"/>
    <path d="M4.57145 9.71418L5.14287 9.71418L5.14287 11.9999C5.14287 12.2272 5.23318 12.4452 5.39393 12.606C5.55467 12.7667 5.77269 12.857 6.00002 12.857C6.22735 12.857 6.44536 12.7667 6.60611 12.606C6.76685 12.4452 6.85716 12.2272 6.85716 11.9999L6.85716 9.71418L7.42859 9.71418L7.42859 11.9999C7.42859 12.3788 7.27808 12.7421 7.01017 13.01C6.74226 13.278 6.3789 13.4285 6.00002 13.4285C5.62114 13.4285 5.25777 13.278 4.98986 13.01C4.72196 12.7421 4.57145 12.3788 4.57145 11.9999L4.57145 9.71418Z" fill="#707366"/>
    <path d="M6 -0.000123549C7.5913 -0.000123409 9.11742 0.632018 10.2426 1.75724C11.3679 2.88245 12 4.40858 12 5.99988L12 11.7142C12 11.7899 11.9699 11.8626 11.9163 11.9162C11.8627 11.9698 11.7901 11.9999 11.7143 11.9999C11.0323 11.9999 10.3782 11.729 9.89601 11.2467C9.41378 10.7645 9.14286 10.1104 9.14286 9.42845L9.14286 7.71416L9.71429 7.71416L9.71429 9.42845C9.71416 9.90947 9.88741 10.3744 10.2023 10.7381C10.5171 11.1017 10.9525 11.3397 11.4286 11.4084L11.4286 5.99988C11.4286 4.56013 10.8566 3.17935 9.83858 2.1613C8.82053 1.14324 7.43975 0.571306 6 0.571306C4.56025 0.571306 3.17948 1.14324 2.16142 2.1613C1.14337 3.17935 0.571429 4.56013 0.571429 5.99988L0.571429 9.42845L-7.28873e-07 9.42845L-4.29138e-07 5.99988C-2.90022e-07 4.40858 0.632141 2.88245 1.75736 1.75724C2.88258 0.632017 4.4087 -0.000123688 6 -0.000123549Z" fill="#707366"/>
</svg>
