<svg width="25" height="36" viewBox="0 0 25 36" fill="none" xmlns="http://www.w3.org/2000/svg">
    <path fill-rule="evenodd" clip-rule="evenodd" d="M12.2625 0C15.5177 0.0151791 18.6352 1.30324 20.9371 3.58404C23.2389 5.86484 24.5388 8.95391 24.5541 12.1794V22.7426C24.6701 24.4087 24.439 26.0805 23.8753 27.6544C23.3115 29.2282 22.4272 30.6703 21.2771 31.8911C20.1271 33.112 18.736 34.0854 17.1902 34.751C15.6444 35.4165 13.977 35.7599 12.2916 35.7599C10.6062 35.7599 8.93882 35.4165 7.39304 34.751C5.84727 34.0854 4.45612 33.112 3.30609 31.8911C2.15606 30.6703 1.2717 29.2282 0.707958 27.6544C0.144218 26.0805 -0.0868461 24.4087 0.0291133 22.7426V12.1794C0.0290768 8.95921 1.31608 5.87004 3.60862 3.58761C5.90117 1.30518 9.01265 0.0152616 12.2625 0Z" fill="url(#paint0_linear_112_1671)"/>
    <path style="mix-blend-mode:multiply" fill-rule="evenodd" clip-rule="evenodd" d="M12.2625 32.7863C9.01265 32.771 5.90117 31.4811 3.60862 29.1987C1.31608 26.9162 0.0290768 23.8271 0.0291133 20.6069V22.7426C-0.0868461 24.4087 0.144218 26.0805 0.707958 27.6544C1.2717 29.2282 2.15606 30.6703 3.30609 31.8912C4.45612 33.112 5.84727 34.0854 7.39304 34.751C8.93882 35.4165 10.6062 35.7599 12.2916 35.7599C13.977 35.7599 15.6444 35.4165 17.1902 34.751C18.736 34.0854 20.1271 33.112 21.2771 31.8912C22.4272 30.6703 23.3115 29.2282 23.8753 27.6544C24.439 26.0805 24.6701 24.4087 24.5541 22.7426V20.6069C24.5388 23.8324 23.2389 26.9214 20.9371 29.2022C18.6352 31.483 15.5177 32.7711 12.2625 32.7863Z" fill="url(#paint1_radial_112_1671)"/>
    <path style="mix-blend-mode:screen" fill-rule="evenodd" clip-rule="evenodd" d="M12.2625 1.61619C10.8631 1.60844 9.47611 1.8768 8.18244 2.40563C6.88877 2.93445 5.71427 3.71319 4.72744 4.69638C3.7406 5.67958 2.96117 6.84759 2.43457 8.13232C1.90797 9.41706 1.64473 10.7928 1.66022 12.1794V22.7426C1.55246 24.176 1.74439 25.616 2.22397 26.9726C2.70356 28.3292 3.46048 29.5731 4.44742 30.6266C5.43435 31.6801 6.63005 32.5204 7.95973 33.0951C9.2894 33.6697 10.7245 33.9664 12.1751 33.9664C13.6258 33.9664 15.0608 33.6697 16.3905 33.0951C17.7202 32.5204 18.9159 31.6801 19.9028 30.6266C20.8897 29.5731 21.6466 28.3292 22.1262 26.9726C22.6058 25.616 22.7977 24.176 22.69 22.7426V12.1794C22.7057 9.41293 21.6195 6.75199 19.6672 4.77429C17.7149 2.79658 15.0541 1.66175 12.2625 1.61619ZM12.2625 6.81121C13.6684 6.81121 15.0168 7.36462 16.0109 8.3497C17.0051 9.33478 17.5636 10.6708 17.5636 12.0639V22.6271C17.6414 23.3592 17.563 24.0994 17.3335 24.7996C17.104 25.4998 16.7285 26.1443 16.2314 26.6914C15.7343 27.2386 15.1267 27.6761 14.448 27.9755C13.7692 28.275 13.0346 28.4297 12.2916 28.4297C11.5486 28.4297 10.814 28.275 10.1353 27.9755C9.45654 27.6761 8.84891 27.2386 8.35181 26.6914C7.85472 26.1443 7.47925 25.4998 7.24975 24.7996C7.02024 24.0994 6.94182 23.3592 7.01959 22.6271V12.1794C7.01951 10.7962 7.57002 9.46882 8.55161 8.48538C9.5332 7.50195 10.8667 6.94183 12.2625 6.92663V6.81121Z" fill="url(#paint2_radial_112_1671)"/>
    <path style="mix-blend-mode:screen" fill-rule="evenodd" clip-rule="evenodd" d="M12.2625 3.46332C9.93966 3.47856 7.71721 4.40356 6.08014 6.03649C4.44308 7.66943 3.52431 9.87772 3.52436 12.1794V22.7426C3.38184 23.9636 3.50155 25.2006 3.87563 26.3725C4.24971 27.5444 4.86969 28.6246 5.6949 29.5423C6.5201 30.46 7.53185 31.1944 8.66374 31.6973C9.79563 32.2001 11.022 32.4601 12.2625 32.4601C13.5029 32.4601 14.7294 32.2001 15.8612 31.6973C16.9931 31.1944 18.0049 30.46 18.8301 29.5423C19.6553 28.6246 20.2753 27.5444 20.6494 26.3725C21.0234 25.2006 21.1431 23.9636 21.0006 22.7426V12.1794C20.9854 9.87243 20.0537 7.66424 18.4074 6.03293C16.761 4.40162 14.5325 3.47845 12.2043 3.46332H12.2625ZM12.2625 5.195C14.1015 5.2402 15.8498 5.99592 17.1341 7.30089C18.4185 8.60585 19.1371 10.3566 19.1365 12.1794V22.7426C19.2255 23.7093 19.1101 24.6837 18.7978 25.6037C18.4854 26.5237 17.983 27.3691 17.3225 28.086C16.662 28.8028 15.8579 29.3754 14.9616 29.7672C14.0654 30.1589 13.0965 30.3613 12.1169 30.3613C11.1372 30.3613 10.1684 30.1589 9.27207 29.7672C8.37578 29.3754 7.57173 28.8028 6.91123 28.086C6.25073 27.3691 5.7483 26.5237 5.43596 25.6037C5.12363 24.6837 5.00827 23.7093 5.09723 22.7426V12.1794C5.09717 10.337 5.83179 8.56917 7.14112 7.26099C8.45044 5.95281 10.2284 5.21023 12.0877 5.195H12.2625Z" fill="url(#paint3_radial_112_1671)"/>
    <path fill-rule="evenodd" clip-rule="evenodd" d="M12.2625 8.7161C11.3355 8.7161 10.4464 9.08098 9.79096 9.73048C9.13547 10.38 8.76723 11.2609 8.76723 12.1794V22.7426C8.7671 23.6665 9.13347 24.5535 9.78734 25.2122C10.4412 25.8709 11.3302 26.2485 12.2625 26.2636C13.2002 26.2488 14.0954 25.873 14.7586 25.2159C15.4218 24.5588 15.801 23.6718 15.816 22.7426V12.1794C15.8007 11.2556 15.4196 10.3748 14.7548 9.72687C14.09 9.07898 13.1949 8.71597 12.2625 8.7161Z" fill="url(#paint4_linear_112_1671)"/>
    <path style="mix-blend-mode:screen" fill-rule="evenodd" clip-rule="evenodd" d="M12.2625 0.865845C9.17249 0.865845 6.20905 2.08212 4.02409 4.24713C1.83914 6.41214 0.611649 9.34853 0.611649 12.4103V17.7207C0.611649 17.0281 2.1845 16.5086 4.10689 16.5086C6.02928 16.5086 7.60216 17.0281 7.60216 17.7207V12.4103C7.53068 11.7959 7.59111 11.1734 7.77951 10.5838C7.96792 9.99412 8.28003 9.4506 8.69536 8.9889C9.11068 8.5272 9.61986 8.15774 10.1894 7.90476C10.759 7.65178 11.3762 7.52101 12.0004 7.52101C12.6245 7.52101 13.2417 7.65178 13.8113 7.90476C14.3809 8.15774 14.89 8.5272 15.3053 8.9889C15.7207 9.4506 16.0328 9.99412 16.2212 10.5838C16.4096 11.1734 16.47 11.7959 16.3985 12.4103V17.7207C16.3985 17.0281 17.9714 16.5086 19.8938 16.5086C21.8162 16.5086 23.389 17.0281 23.389 17.7207V12.4103C23.389 9.34853 22.1616 6.41214 19.9766 4.24713C17.7916 2.08212 14.8282 0.865845 11.7382 0.865845H12.2625Z" fill="url(#paint5_linear_112_1671)"/>
    <path style="mix-blend-mode:screen" opacity="0.5" fill-rule="evenodd" clip-rule="evenodd" d="M15.816 22.7426C15.801 23.6718 15.4218 24.5588 14.7586 25.2159C14.0954 25.873 13.2002 26.2488 12.2625 26.2636C11.3302 26.2485 10.4412 25.8709 9.78734 25.2122C9.13347 24.5535 8.7671 23.6665 8.76723 22.7426V23.7816C8.7671 24.7055 9.13347 25.5925 9.78734 26.2512C10.4412 26.9099 11.3302 27.2875 12.2625 27.3026C13.2002 27.2878 14.0954 26.912 14.7586 26.2549C15.4218 25.5978 15.801 24.7108 15.816 23.7816V22.7426Z" fill="url(#paint6_radial_112_1671)"/>
    <path style="mix-blend-mode:screen" d="M12.2625 1.09671C12.4903 1.05266 12.7251 1.05908 12.9501 1.11556C13.1751 1.17204 13.3846 1.27718 13.5638 1.42339C13.7429 1.5696 13.8872 1.75325 13.9862 1.96123C14.0853 2.16922 14.1366 2.39638 14.1366 2.62635C14.1366 2.85632 14.0853 3.08344 13.9862 3.29142C13.8872 3.4994 13.7429 3.6831 13.5638 3.82931C13.3846 3.97552 13.1751 4.08061 12.9501 4.13709C12.7251 4.19358 12.4903 4.20004 12.2625 4.15599C11.1793 4.13158 10.1028 4.32917 9.10032 4.73642C8.09787 5.14367 7.19116 5.75177 6.43705 6.52258C5.67014 7.27795 5.06369 8.17788 4.65348 9.16926C4.24326 10.1606 4.0376 11.2234 4.04863 12.2948V17.6053C3.97874 17.9601 3.78652 18.2798 3.5049 18.5097C3.22327 18.7395 2.86976 18.8652 2.5049 18.8652C2.14004 18.8652 1.78653 18.7395 1.5049 18.5097C1.22327 18.2798 1.03106 17.9601 0.961166 17.6053V12.2948C0.976473 9.36018 2.15978 6.55004 4.25403 4.47492C6.34828 2.39979 9.18429 1.2273 12.146 1.21214L12.2625 1.09671Z" fill="url(#paint7_radial_112_1671)"/>
    <path style="mix-blend-mode:screen" d="M15.6995 33.3057C15.3132 33.4282 14.8937 33.3936 14.5332 33.2096C14.1727 33.0256 13.9007 32.7072 13.7771 32.3245C13.6535 31.9418 13.6884 31.526 13.8741 31.1688C14.0598 30.8116 14.3812 30.5421 14.7674 30.4196C16.3892 29.857 17.8076 28.833 18.8452 27.4758C19.8706 26.1073 20.4223 24.4471 20.4181 22.7426C20.488 22.3878 20.6802 22.068 20.9618 21.8382C21.2434 21.6083 21.5969 21.4826 21.9618 21.4826C22.3267 21.4826 22.6802 21.6083 22.9618 21.8382C23.2434 22.068 23.4357 22.3878 23.5055 22.7426C23.4977 25.0874 22.7435 27.3699 21.3501 29.2652C19.8807 31.1807 17.844 32.5933 15.5247 33.3057H15.6995Z" fill="url(#paint8_radial_112_1671)"/>
    <path style="mix-blend-mode:multiply" fill-rule="evenodd" clip-rule="evenodd" d="M8.76723 14.0843C8.7671 13.1603 9.13347 12.2734 9.78734 11.6147C10.4412 10.956 11.3302 10.5784 12.2625 10.5632C13.2002 10.5781 14.0954 10.9538 14.7586 11.6109C15.4218 12.2681 15.801 13.1551 15.816 14.0843V12.1794C15.8007 11.2556 15.4196 10.3748 14.7548 9.72687C14.09 9.07898 13.1949 8.71597 12.2625 8.7161C11.3355 8.7161 10.4464 9.08098 9.79096 9.73048C9.13547 10.38 8.76723 11.2609 8.76723 12.1794V14.0843Z" fill="url(#paint9_radial_112_1671)"/>
    <defs>
        <linearGradient id="paint0_linear_112_1671" x1="12.2625" y1="34.922" x2="12.2625" y2="0" gradientUnits="userSpaceOnUse">
            <stop stop-color="#349400"/>
            <stop offset="1" stop-color="#87E300"/>
        </linearGradient>
        <radialGradient id="paint1_radial_112_1671" cx="0" cy="0" r="1" gradientUnits="userSpaceOnUse" gradientTransform="translate(11.9712 23.3775) scale(11.8839 11.7753)">
            <stop offset="0.73" stop-color="white"/>
            <stop offset="0.79" stop-color="#FCFDFC"/>
            <stop offset="0.83" stop-color="#F3F8F3"/>
            <stop offset="0.86" stop-color="#E4EFE3"/>
            <stop offset="0.9" stop-color="#CEE2CD"/>
            <stop offset="0.93" stop-color="#B2D1B1"/>
            <stop offset="0.96" stop-color="#8FBD8E"/>
            <stop offset="0.98" stop-color="#67A565"/>
            <stop offset="1" stop-color="#4D964B"/>
        </radialGradient>
        <radialGradient id="paint2_radial_112_1671" cx="0" cy="0" r="1" gradientUnits="userSpaceOnUse" gradientTransform="translate(5.91277 5.88764) scale(30.2339 29.9579)">
            <stop stop-color="#66BA33"/>
            <stop offset="0.72"/>
            <stop offset="1" stop-color="#3F8515"/>
        </radialGradient>
        <radialGradient id="paint3_radial_112_1671" cx="0" cy="0" r="1" gradientUnits="userSpaceOnUse" gradientTransform="translate(7.66041 7.85021) scale(26.3309 26.0905)">
            <stop stop-color="#66BA33"/>
            <stop offset="0.72"/>
            <stop offset="1" stop-color="#3F8515"/>
        </radialGradient>
        <linearGradient id="paint4_linear_112_1671" x1="12.2625" y1="26.2636" x2="12.2625" y2="8.71609" gradientUnits="userSpaceOnUse">
            <stop stop-color="#75C400"/>
            <stop offset="1" stop-color="#349400"/>
        </linearGradient>
        <linearGradient id="paint5_linear_112_1671" x1="12.2625" y1="17.4899" x2="12.2625" y2="0.865845" gradientUnits="userSpaceOnUse">
            <stop stop-color="#133D13"/>
            <stop offset="1" stop-color="#73D439"/>
        </linearGradient>
        <radialGradient id="paint6_radial_112_1671" cx="0" cy="0" r="1" gradientUnits="userSpaceOnUse" gradientTransform="translate(12.4372 23.4353) scale(7.98082 7.90789)">
            <stop offset="0.29"/>
            <stop offset="0.54" stop-color="#66BA33"/>
        </radialGradient>
        <radialGradient id="paint7_radial_112_1671" cx="0" cy="0" r="1" gradientUnits="userSpaceOnUse" gradientTransform="translate(15.3499 28.9189) scale(28.7776 28.5148)">
            <stop stop-color="#133D13"/>
            <stop offset="1" stop-color="#73D439"/>
        </radialGradient>
        <radialGradient id="paint8_radial_112_1671" cx="0" cy="0" r="1" gradientUnits="userSpaceOnUse" gradientTransform="translate(9.05851 19.1061) scale(20.6802 20.4914)">
            <stop stop-color="#133D13"/>
            <stop offset="1" stop-color="#73D439"/>
        </radialGradient>
        <radialGradient id="paint9_radial_112_1671" cx="0" cy="0" r="1" gradientUnits="userSpaceOnUse" gradientTransform="translate(12.3207 15.7582) scale(7.39828 7.33074)">
            <stop offset="0.27" stop-color="white"/>
            <stop offset="0.43" stop-color="#FCFDFC"/>
            <stop offset="0.54" stop-color="#F3F8F3"/>
            <stop offset="0.64" stop-color="#E4EFE3"/>
            <stop offset="0.72" stop-color="#CEE2CD"/>
            <stop offset="0.81" stop-color="#B2D1B1"/>
            <stop offset="0.89" stop-color="#8FBD8E"/>
            <stop offset="0.96" stop-color="#67A565"/>
            <stop offset="1" stop-color="#4D964B"/>
        </radialGradient>
    </defs>
</svg>
