<svg width="333" height="237" viewBox="0 0 333 237" fill="none" xmlns="http://www.w3.org/2000/svg">
    <g clip-path="url(#clip0_117_3056)">
        <path fill-rule="evenodd" clip-rule="evenodd" d="M2.1055 222.075C1.79521 191.562 6.5381 163.842 8.53278 134.504C8.1552 124.675 7.02901 114.889 5.16399 105.232C6.86316 79.1585 7.53545 52.3464 7.18084 24.7957C8.39981 22.0923 15.7579 17.306 18.4175 16.9958C27.7044 15.7151 37.0908 15.3071 46.4538 15.777C52.9209 15.7363 59.3695 15.0835 65.7135 13.8271C94.6584 13.8271 145.102 14.6026 174.645 16.464C185.42 16.1641 196.171 15.269 206.848 13.7828C235.66 13.4725 224.002 13.8935 252.903 15.9986C270.877 14.2702 293.749 14.4697 311.724 14.5361C316.37 16.9842 320.603 20.1472 324.268 23.9093C326.351 47.0874 325.62 90.9839 327.836 113.674C326.285 137.717 325.93 163.598 326.573 187.951C323.891 199.783 328.412 208.137 326.573 220.103C323.775 225.973 319.737 231.167 314.738 235.326C297.517 235.481 271.852 235.503 254.299 234.019C249.046 234.351 243.749 236.013 236.835 236.811C227.504 236.19 219.104 235.038 210.904 234.595C186.768 234.129 138.187 232.379 114.051 234.373C90.3802 232.526 66.5954 232.689 42.952 234.861C34.7934 234.664 26.6338 235.206 18.5727 236.478C15.0487 236.212 5.05318 229.011 2.21631 222.075H2.1055Z" fill="url(#paint0_radial_117_3056)"/>
        <path fill-rule="evenodd" clip-rule="evenodd" d="M101.795 0.487488C98.3703 3.39432 95.0934 6.47086 91.9767 9.70554C83.2892 12.9065 75.0389 17.1872 67.42 22.4468C56.9817 26.4426 46.1041 29.18 35.0176 30.6012C31.4715 32.1745 13.5638 39.4647 2.06117 43.5641C13.4999 40.4171 24.6867 36.4173 35.5274 31.5984C44.7106 30.087 53.7868 27.9849 62.6993 25.3053C64.3244 24.7853 66.08 24.848 67.6638 25.4826C73.0937 27.976 78.181 31.156 82.8012 34.9444C85.6877 38.0416 88.791 40.9295 92.0875 43.5863C92.8059 44.1725 93.3709 44.9245 93.7339 45.7777C94.0968 46.6308 94.2468 47.5594 94.1709 48.4834C93.9271 51.6299 93.5946 55.5963 93.3286 59.5627C93.0184 64.3934 92.7746 69.1575 92.42 72.1711C91.9102 76.1375 91.4891 76.8244 87.7879 78.1539C74.9994 82.6561 62.6173 88.2381 50.7756 94.8395C37.4777 95.0168 9.53012 93.7094 0 94.4185C9.02037 95.4156 42.1098 96.2798 48.382 96.9002C48.8502 97.2244 49.1756 97.7164 49.2907 98.2741C49.6231 100.49 32.2029 137.761 23.382 147.533C22.5177 148.486 21.2987 148.309 19.7916 147.4L2.74822 137.008V137.118C5.42995 139.334 19.7695 148.752 22.1409 150.192C27.6599 157.755 34.0498 164.642 41.179 170.711C44.6586 173.725 45.7667 174.633 42.2206 177.602C33.8652 184.715 13.6524 208.403 4.34396 218.685C3.4252 219.653 2.67597 220.769 2.12765 221.986C7.75707 215.339 39.2729 182.101 43.4396 179.486C48.0938 176.561 50.6869 176.14 58.9538 178.666C87.5992 187.183 115.721 197.371 143.173 209.179C152.296 208.157 161.482 207.809 170.656 208.137C176.351 208.314 177.947 208.137 183.953 214.475C188.009 218.906 191.932 223.338 195.788 227.77H196.719L182.092 210.508C180.873 209.09 179.499 207.583 181.804 206.076C182.424 205.678 183.333 205.279 184.507 204.614C199.179 196.592 224.512 189.103 239.383 183.408C224.157 185.314 190.181 200.116 183.687 203.24C180.707 205.683 176.97 207.015 173.116 207.007L143.639 206.608C112.522 194.199 80.3189 183.12 47.03 173.37C39.6751 167.901 32.9812 161.595 27.0833 154.579C26.0416 153.339 23.7588 149.86 24.8669 148.264C29.6542 141.306 33.1116 134.216 38.1648 125.286C44.8137 113.719 46.6754 106.938 54.9644 94.7508H54.8092C67.5023 88.1804 80.7383 82.7165 94.3703 78.4198C119.263 82.7327 144.462 85.0446 169.725 85.3334C184.129 92.2929 199.062 98.1018 214.383 102.706C217.109 103.526 217.841 103.969 218.816 106.739C220.257 111.17 221.52 120.3 222.451 123.934C229.1 132.421 235.748 146.469 239.804 158.923C238.342 149.372 228.922 130.715 224.091 122.915C223.492 120.455 219.835 107.714 219.968 106.118C220.124 104.146 221.054 104.456 222.517 104.412C226.95 104.257 238.763 104.412 242.464 104.412C235.394 103.703 221.631 103.526 218.373 102.706C203.318 98.2925 188.606 92.7824 174.357 86.2197C171.165 84.7573 170.257 84.0038 174.623 82.1868C187.382 77.0356 199.67 70.7855 211.347 63.507C217.331 58.1667 235.061 42.6778 238.142 38.8443C233.355 42.9437 220.589 52.9151 209.64 61.8894C202.437 66.7422 183.045 78.1982 171.963 82.5414C169.685 83.6922 167.157 84.263 164.605 84.2033C142.265 83.6493 114.827 81.5221 98.9137 77.1346C97.433 76.7672 96.1439 75.8579 95.3012 74.5864C94.7259 73.3261 94.4166 71.9608 94.3925 70.5757C94.0899 66.9405 94.0899 63.2865 94.3925 59.6514C94.7693 55.0202 95.0795 50.7879 95.8552 46.1567C95.2877 44.3594 94.9453 42.4986 94.8357 40.617C94.1708 32.5291 93.1514 23.1781 93.1514 14.8907C92.8571 13.164 93.2294 11.39 94.193 9.92711C96.6278 6.61061 99.2861 3.46414 102.15 0.509634L101.795 0.487488ZM88.6744 13.5168C82.0127 15.7847 75.65 18.8501 69.725 22.6462C69.3039 23.4218 69.1709 23.865 69.2817 24.2195C69.5255 24.9951 82.0255 33.216 83.6212 34.3239C85.948 37.7434 88.9685 40.6351 92.4865 42.8107C94.193 43.9851 94.06 43.3868 93.9492 41.5698C93.8384 39.7528 93.0405 32.2853 92.6416 25.5047C92.3978 21.7599 92.287 18.0372 92.2427 15.7549C92.2427 13.9379 91.9324 12.7634 88.7187 13.6498L88.6744 13.5168ZM239.561 158.967C241.622 163.753 244.88 173.304 246.697 178.91C246.805 179.261 247.023 179.568 247.318 179.787C247.613 180.007 247.97 180.126 248.337 180.129C258.776 180.328 264.162 178.733 274.29 175.83L274.645 176.051C280.713 180.536 287.443 184.049 294.591 186.466C295.212 186.688 296.01 186.998 296.542 186.688C297.074 186.377 297.185 185.713 297.384 185.225C303.629 170.152 307.991 154.367 310.372 138.226C310.565 136.977 310.314 135.698 309.662 134.614C307.801 131.446 304.897 126.948 302.681 123.424C300.465 119.901 297.849 115.248 295.788 112.345C295.499 111.918 295.122 111.557 294.682 111.285C294.243 111.014 293.751 110.839 293.239 110.772C276.329 107.98 260.992 106.34 242.264 104.279C258.84 104.687 275.371 106.167 291.755 108.711C292.774 108.866 293.971 109.243 294.835 108.711C298.669 106.14 312.566 58.056 316.023 43.9187C316.337 43.0758 316.487 42.1809 316.466 41.2818C315.737 40.6877 314.903 40.2366 314.006 39.9522C294.854 32.1346 274.951 26.2985 254.609 22.5354C248.758 29.1831 243.927 32.8836 237.943 38.7335C243.084 32.7949 248.248 27.0115 253.457 21.1173C253.856 17.5497 255.053 7.53397 255.673 2.21587C255.54 8.42032 256.006 14.6248 255.318 20.8071C276.515 25.8477 297.404 32.0994 317.885 39.5312C320.484 38.9757 323.11 38.5541 325.753 38.2682C327.393 38.1131 329.011 37.9801 330.673 37.9136C330.673 38.3568 330.673 38.8 330.673 39.2432C329.112 39.1911 327.549 39.2503 325.996 39.4204C324.064 39.5577 322.153 39.9146 320.301 40.4841C319.76 40.6511 319.272 40.9553 318.883 41.3668C318.495 41.7784 318.22 42.2835 318.084 42.8329C312.262 65.1258 305.196 87.0752 296.919 108.578C296.713 109.082 296.62 109.625 296.647 110.168C296.674 110.712 296.819 111.243 297.074 111.724C299.046 115.624 301.174 119.414 303.501 123.092C305.828 126.77 308.599 130.781 311.413 134.459C314.583 130.028 318.395 124.311 321.697 119.148C324.999 113.985 328.966 106.34 332.778 101.11C332.778 101.775 332.889 102.418 332.956 103.038C333.022 103.659 332.956 104.146 332.845 104.722C329.299 109.553 325.886 114.524 322.606 119.635C319.237 124.842 315.957 130.183 312.898 135.634C312.591 136.145 312.381 136.708 312.278 137.296C308.872 154.077 304.311 170.602 298.625 186.754C298.436 187.132 298.337 187.55 298.337 187.973C298.503 188.429 298.804 188.823 299.201 189.103C304.809 194.332 322.14 211.262 326.484 219.837C317.317 208.858 307.314 198.605 296.564 189.169C289.266 186.173 282.186 182.671 275.376 178.688C274.937 178.416 274.448 178.236 273.937 178.16C273.426 178.084 272.905 178.113 272.406 178.245C261.192 180.993 246.719 180.705 239.162 183.342L243.882 181.126C244.246 180.954 244.54 180.661 244.713 180.298C244.887 179.935 244.93 179.523 244.835 179.131C243.417 173.215 240.78 164.905 239.45 158.923L239.561 158.967Z" fill="url(#paint1_radial_117_3056)"/>
        <path fill-rule="evenodd" clip-rule="evenodd" d="M91.9767 9.7498C95.0934 6.51512 98.3703 3.43861 101.795 0.531785C87.1673 0.310198 73.3597 0.199408 62.4998 0.15509C55.9299 1.45827 49.2509 2.13344 42.5531 2.17151C32.9314 1.69293 23.286 2.10837 13.7411 3.41243C10.9929 3.74481 3.41311 8.68621 2.14981 11.4782C2.31234 22.3065 2.31234 33.0165 2.14981 43.6084L7.38029 41.6584C18.4618 37.4926 32.0699 31.9972 35.1063 30.5791C46.1928 29.1578 57.0703 26.4204 67.5087 22.4246C72.2373 19.1798 77.2007 16.2912 82.3579 13.7827C85.5081 12.2549 88.7332 10.8867 92.021 9.68333L91.9767 9.7498Z" fill="url(#paint2_radial_117_3056)"/>
        <path fill-rule="evenodd" clip-rule="evenodd" d="M82.8012 35.033C78.181 31.2446 73.0937 28.0647 67.6638 25.5712C66.08 24.9367 64.3244 24.874 62.6993 25.394C53.7868 28.0736 44.7106 30.1756 35.5274 31.687C26.3696 35.8119 16.9347 39.2919 7.29165 42.1016L2.06117 43.6528C1.76566 60.8923 1.0786 77.8363 0 94.485C1.52925 94.485 3.50176 94.3077 5.80672 94.2855C18.0407 94.1526 39.5611 95.0611 50.7756 94.906C62.6173 88.3046 74.9994 82.7226 87.7879 78.2204C91.4891 76.8909 91.9102 76.204 92.42 72.2376C92.7746 69.224 93.0184 64.4598 93.3286 59.6292C93.5946 55.685 93.9271 51.7186 94.1709 48.5499C94.2468 47.6259 94.0968 46.6973 93.7339 45.8442C93.3709 44.9911 92.8059 44.239 92.0875 43.6528C88.791 40.996 85.6877 38.1081 82.8012 35.0108V35.033Z" fill="url(#paint3_radial_117_3056)"/>
        <path fill-rule="evenodd" clip-rule="evenodd" d="M69.2817 24.1309C69.5255 24.9064 82.0255 33.1273 83.6213 34.2353C85.948 37.6548 88.9685 40.5464 92.4865 42.7221C94.193 43.8965 94.0601 43.2982 93.9492 41.4812C93.8384 39.6642 93.0406 32.1967 92.6416 25.4161C92.3978 21.6713 92.287 17.9486 92.2427 15.6662C92.2806 15.0756 92.182 14.4843 91.9546 13.9379C91.5556 13.2509 90.6913 13.0072 88.7188 13.5611L87.7436 13.8935C81.4259 16.1211 75.3812 19.0574 69.725 22.6462C69.3039 23.4218 69.1709 23.865 69.2817 24.2195V24.1309Z" fill="url(#paint4_radial_117_3056)"/>
        <path fill-rule="evenodd" clip-rule="evenodd" d="M93.0184 14.9128C93.0184 23.2002 94.0379 32.6398 94.7028 40.6391C94.8123 42.5207 95.1547 44.3815 95.7223 46.1788C94.9466 50.7435 94.6363 55.0424 94.2595 59.6735C93.9569 63.3087 93.9569 66.9626 94.2595 70.5978C94.2836 71.9829 94.5929 73.3482 95.1682 74.6085C96.0109 75.8801 97.3 76.7894 98.7808 77.1568C114.694 81.5885 142.132 83.6714 164.472 84.2254C167.024 84.2851 169.552 83.7143 171.83 82.5635C182.712 78.1317 202.216 66.7643 209.507 61.9116C220.456 52.9373 233.222 42.9658 238.009 38.8665C243.151 32.9279 248.315 27.1444 253.523 21.2502C253.656 20.0315 253.878 18.0372 254.166 15.7549C254.676 11.3231 255.341 5.84989 255.762 2.4596C225.93 0.243722 238.031 -0.110818 208.222 0.243722C197.201 1.78965 186.102 2.72174 174.977 3.03571C155.629 1.81698 127.615 1.08575 102.083 0.686891C99.2197 3.6414 96.5613 6.78787 94.1265 10.1044C93.286 11.2628 92.9068 12.6925 93.0627 14.1151C93.0627 14.381 93.0627 14.7134 93.0627 15.0679L93.0184 14.9128Z" fill="url(#paint5_radial_117_3056)"/>
        <path fill-rule="evenodd" clip-rule="evenodd" d="M255.673 15.6219C255.673 17.3946 255.518 19.1673 255.318 20.94C276.515 25.9807 297.404 32.2323 317.885 39.6642C320.278 39.1545 322.716 38.7557 325.176 38.4676H325.753C327.393 38.3125 329.011 38.1795 330.673 38.1131C330.385 27.7206 330.008 18.1702 329.321 10.5919C325.545 6.70758 321.176 3.44667 316.378 0.930662C297.827 0.930662 274.268 0.642594 255.673 2.41529C255.673 6.84705 255.784 11.2788 255.673 15.7106V15.6219Z" fill="url(#paint6_radial_117_3056)"/>
        <path fill-rule="evenodd" clip-rule="evenodd" d="M314.028 40.0852C294.876 32.2675 274.973 26.4315 254.631 22.6684C248.78 29.316 243.949 33.0166 237.965 38.8665C234.884 42.6999 217.154 58.1889 211.17 63.5292C199.493 70.8077 187.205 77.0578 174.445 82.209C170.013 84.0039 170.988 84.7794 174.179 86.2419C188.429 92.8045 203.14 98.3146 218.195 102.728C221.453 103.548 235.217 103.725 242.287 104.434C258.862 104.842 275.393 106.322 291.777 108.866C292.796 109.021 293.993 109.398 294.857 108.866C298.692 106.296 312.588 58.2111 316.045 44.0738C316.359 43.2309 316.509 42.336 316.488 41.4369C315.759 40.8428 314.925 40.3917 314.028 40.1074V40.0852Z" fill="url(#paint7_radial_117_3056)"/>
        <path fill-rule="evenodd" clip-rule="evenodd" d="M318.173 42.9658C312.351 65.2587 305.285 87.2081 297.007 108.711C296.801 109.215 296.709 109.758 296.735 110.301C296.762 110.845 296.908 111.376 297.162 111.857C299.135 115.757 301.263 119.546 303.59 123.225C305.917 126.903 308.687 130.914 311.502 134.592C314.671 130.16 318.483 124.444 321.785 119.281C323.603 116.466 325.531 113.054 327.504 109.686C329.254 106.672 331.05 103.703 332.823 101.243C331.449 85.3776 331.271 60.8922 330.717 39.3761C329.156 39.324 327.593 39.3832 326.041 39.5533H325.221C323.565 39.7026 321.931 40.0295 320.345 40.5283C319.804 40.6954 319.316 40.9995 318.928 41.4111C318.539 41.8227 318.264 42.3277 318.129 42.8772L318.173 42.9658Z" fill="url(#paint8_radial_117_3056)"/>
        <path fill-rule="evenodd" clip-rule="evenodd" d="M322.65 119.768C319.281 124.975 316.001 130.316 312.942 135.767C312.635 136.278 312.425 136.841 312.322 137.429C308.917 154.21 304.355 170.735 298.669 186.887C298.48 187.265 298.381 187.683 298.381 188.106C298.547 188.562 298.849 188.956 299.246 189.236C304.853 194.465 322.184 211.394 326.528 219.97C328.479 207.605 328.922 192.028 331.692 179.818C331.05 155.266 331.382 129.163 332.889 104.855C331.138 107.248 329.41 109.686 327.703 112.145C325.996 114.605 324.312 117.198 322.65 119.768Z" fill="url(#paint9_radial_117_3056)"/>
        <path fill-rule="evenodd" clip-rule="evenodd" d="M309.662 134.747C307.801 131.579 304.897 127.08 302.681 123.557C300.465 120.034 297.849 115.381 295.788 112.478C295.499 112.051 295.122 111.689 294.682 111.418C294.243 111.147 293.751 110.972 293.239 110.905C276.329 108.113 260.992 106.473 242.264 104.412C238.497 104.412 226.75 104.412 222.318 104.412C220.855 104.412 219.924 104.146 219.769 106.118C219.636 107.714 223.293 120.455 223.891 122.915C228.723 130.714 238.142 149.372 239.605 158.923C241.666 163.709 244.924 173.259 246.741 178.865C246.85 179.217 247.067 179.524 247.362 179.743C247.657 179.962 248.014 180.082 248.381 180.084C258.82 180.284 264.206 178.688 274.334 175.785L274.689 176.007C280.758 180.491 287.487 184.005 294.636 186.422C295.256 186.643 296.054 186.953 296.586 186.643C297.118 186.333 297.229 185.668 297.428 185.181C303.673 170.108 308.035 154.322 310.416 138.182C310.609 136.932 310.358 135.654 309.707 134.57L309.662 134.747Z" fill="url(#paint10_radial_117_3056)"/>
        <path fill-rule="evenodd" clip-rule="evenodd" d="M239.561 159.011C235.394 146.558 228.878 132.421 222.207 124.023C221.276 120.389 219.991 111.237 218.572 106.827C217.663 104.058 216.932 103.614 214.14 102.794C198.818 98.1905 183.885 92.3815 169.481 85.422C144.218 85.1332 119.02 82.8213 94.1265 78.5085C80.4945 82.8052 67.2585 88.2691 54.5655 94.8395H54.7206C46.4316 107.027 44.5034 113.807 37.921 125.374C32.8457 134.238 29.3882 141.395 24.6232 148.353C23.515 149.948 25.7978 153.427 26.8395 154.668C32.7797 161.643 39.5107 167.905 46.897 173.326C80.186 183.12 112.389 194.199 143.506 206.564L172.983 206.963C176.837 206.97 180.574 205.639 183.554 203.196C190.048 200.071 224.024 185.269 239.25 183.364L243.971 181.148C244.335 180.976 244.628 180.683 244.802 180.32C244.976 179.957 245.019 179.545 244.924 179.154C243.506 173.237 240.868 164.928 239.538 158.945L239.561 159.011Z" fill="url(#paint11_radial_117_3056)"/>
        <path fill-rule="evenodd" clip-rule="evenodd" d="M23.382 147.599C32.2473 137.827 49.6231 100.623 49.2907 98.3406C49.1756 97.7829 48.8502 97.2909 48.382 96.9667C43.0628 96.4349 18.6835 95.748 5.78456 94.9503C3.39095 94.7952 1.35195 94.64 0 94.4849C1.93796 104.454 3.09396 114.56 3.45744 124.709C3.19148 128.742 2.94769 132.886 2.74822 137.074L8.06735 140.331L19.7916 147.467C21.2987 148.375 22.5177 148.552 23.382 147.599Z" fill="url(#paint12_radial_117_3056)"/>
        <path fill-rule="evenodd" clip-rule="evenodd" d="M41.179 170.778C34.0498 164.708 27.6599 157.821 22.1409 150.259C20.523 149.284 13.2757 144.542 8.02302 140.952C5.58508 139.29 3.59041 137.872 2.74821 137.185C1.44059 164.462 1.83952 194.798 2.10548 221.986C2.6538 220.769 3.40303 219.653 4.32179 218.685C13.6524 208.403 33.8651 184.715 42.2206 177.758C45.7667 174.788 44.6586 173.88 41.179 170.866V170.778Z" fill="url(#paint13_radial_117_3056)"/>
        <path fill-rule="evenodd" clip-rule="evenodd" d="M59.0202 178.666C50.6648 176.14 48.0717 176.561 43.5061 179.486C39.2508 182.189 7.73492 215.294 2.1055 222.075C2.16884 222.296 2.26603 222.505 2.39361 222.695C3.98935 225.377 11.5248 229.853 13.7189 230.03C22.0662 228.716 30.5152 228.16 38.9627 228.368C64.4945 228.235 87.1452 228.833 112.677 230.584C132.868 228.989 169.392 228.058 195.766 228.014C191.91 223.582 187.987 218.995 183.931 214.718C177.925 208.27 176.329 208.558 170.633 208.381C161.46 208.053 152.274 208.401 143.151 209.422C115.699 197.615 87.5771 187.426 58.9316 178.91L59.0202 178.666Z" fill="url(#paint14_radial_117_3056)"/>
        <path fill-rule="evenodd" clip-rule="evenodd" d="M239.272 183.475C224.401 189.103 199.069 196.659 184.397 204.68C183.222 205.345 182.313 205.744 181.693 206.143C179.476 207.583 180.762 209.09 181.981 210.575L196.697 227.925C202.504 227.925 207.779 227.925 212.211 228.058C220.722 228.457 229.343 229.653 238.984 230.274C246.121 229.476 251.573 227.748 256.981 227.393C275.11 228.944 297.672 229.875 315.447 229.72C319.518 226.942 323.238 223.683 326.528 220.014C317.361 209.035 307.358 198.782 296.608 189.347C289.31 186.35 282.23 182.848 275.42 178.865C274.982 178.593 274.492 178.413 273.981 178.337C273.47 178.261 272.95 178.29 272.451 178.422C261.236 181.17 246.764 180.882 239.206 183.519L239.272 183.475Z" fill="url(#paint15_radial_117_3056)"/>
        <path style="mix-blend-mode:multiply" fill-rule="evenodd" clip-rule="evenodd" d="M49.3571 226.507C111.857 224.889 255.053 223.914 311.568 226.751C312.923 227.021 314.33 226.776 315.513 226.064C316.444 225.199 316.378 223.515 316.4 222.23C316.4 217.954 316.71 213.056 316.533 209.666L304.033 208.536L316.333 205.633C315.21 182.352 314.427 158.937 313.984 135.39L307.335 133.174L313.984 130.958C313.474 97.4764 315.912 66.1882 317.087 32.795C313.982 25.0981 310.082 17.7459 305.451 10.8578C305.086 10.199 304.543 9.65517 303.886 9.28726C303.228 8.91934 302.481 8.74193 301.728 8.77488C276.75 10.9908 66.7995 13.4725 21.8528 11.2345C20.6772 11.2345 19.5497 11.7014 18.7185 12.5325C17.8872 13.3636 17.4202 14.4909 17.4202 15.6663C17.1764 25.5047 18.2624 31.8864 18.5948 41.2374L23.4485 44.3175L21.2322 47.176L21.6311 49.3919L18.9051 51.2975C19.9394 86.1606 19.8359 120.876 18.5948 155.444L22.2296 157.349L20.3014 160.673L25.4654 163.288L18.0851 165.171C17.5088 179.021 15.3812 193.003 15.2704 206.475C22.7393 214.32 37.655 222.651 49.335 226.418L49.3571 226.507Z" fill="url(#paint16_radial_117_3056)"/>
        <path fill-rule="evenodd" clip-rule="evenodd" d="M49.5344 220.413C58.8429 222.629 285.216 221.543 320.965 219.062L320.168 205.345L307.379 204.282L319.968 201.512C318.801 179.353 317.996 157.024 317.552 134.526L310.726 132.31L317.375 130.094C316.843 98.1633 317.131 66.1218 318.35 34.2575L302.149 11.5669C299.933 10.6141 49.9999 12.4311 13.3643 13.7828C13.9849 24.1235 14.4946 34.4125 14.8936 44.6499L19.8581 47.5527L17.6418 50.3004L18.0629 52.4055L15.2703 54.2225C16.3342 87.4606 16.2234 120.573 14.9379 153.56L18.6834 155.377L16.7996 158.59L22.0966 161.094L14.539 162.889C13.9184 176.554 13.0984 190.211 12.0789 203.861L49.5566 220.347L49.5344 220.413Z" fill="url(#paint17_linear_117_3056)"/>
        <path style="mix-blend-mode:multiply" fill-rule="evenodd" clip-rule="evenodd" d="M49.5345 220.391L12.0345 203.927C13.2092 202.132 24.8891 192.848 26.4849 192.715C28.0806 192.582 45.6338 217.089 49.5345 220.391Z" fill="url(#paint18_radial_117_3056)"/>
        <path style="mix-blend-mode:multiply" fill-rule="evenodd" clip-rule="evenodd" d="M318.439 34.3682C314.693 32.5955 298.692 29.9365 297.96 28.3632C297.229 26.7899 301.307 16.1094 302.149 11.589L318.439 34.3682Z" fill="url(#paint19_radial_117_3056)"/>
        <path fill-rule="evenodd" clip-rule="evenodd" d="M24.2464 196.593C32.2312 204.992 40.6734 212.944 49.5345 220.413C46.7862 220.413 12.0345 206.653 12.0345 203.927C15.8438 201.072 19.9358 198.614 24.2464 196.593Z" fill="url(#paint20_linear_117_3056)"/>
        <path fill-rule="evenodd" clip-rule="evenodd" d="M318.439 34.3682C312.012 31.4876 305.562 28.6734 299.401 25.3053C300.563 20.786 301.481 16.2072 302.149 11.589C303.745 11.589 318.439 32.6841 318.439 34.3682Z" fill="url(#paint21_linear_117_3056)"/>
        <path style="mix-blend-mode:screen" fill-rule="evenodd" clip-rule="evenodd" d="M41.7109 216.979C39.4946 209.157 22.7615 199.628 17.0877 200.47C19.3881 199.025 21.7793 197.73 24.2464 196.593C32.2091 204.97 40.6291 212.9 49.468 220.347C46.8617 219.763 44.3108 218.955 41.8439 217.931C41.8204 217.585 41.7534 217.242 41.6444 216.912L41.7109 216.979Z" fill="url(#paint22_radial_117_3056)"/>
        <path style="mix-blend-mode:screen" fill-rule="evenodd" clip-rule="evenodd" d="M301.95 23.7763C303.833 28.2081 312.056 31.1995 317.043 32.4404L317.597 32.5733C317.975 33.1206 318.26 33.7272 318.439 34.3682L317.907 34.1466C311.657 31.3546 305.407 28.5848 299.401 25.2831C300.563 20.7639 301.481 16.1851 302.149 11.5668C302.26 11.5668 302.393 11.5668 302.592 11.8106C302.58 11.8914 302.58 11.9736 302.592 12.0543C301.573 15.1566 300.753 20.7849 302.038 23.7542L301.95 23.7763Z" fill="url(#paint23_radial_117_3056)"/>
        <path style="mix-blend-mode:screen" opacity="0.5" fill-rule="evenodd" clip-rule="evenodd" d="M54.0114 216.203C49.5788 214.43 47.9165 210.685 45.5451 204.924C38.7189 188.505 29.7872 191.452 22.6285 186.976C17.8634 183.962 16.3563 174.943 25.1994 162.778C33.3332 151.566 18.5505 139.157 19.0602 115.691C19.3927 100.667 27.46 76.913 28.7677 69.9108C30.0088 63.4405 31.5159 60.0059 25.3989 50.7878C23.0274 47.2203 25.687 45.5805 19.8803 36.5398C16.8439 31.8199 17.8191 28.474 20.789 26.0365C38.3421 11.6998 83.178 20.8513 102.992 22.7348C112.034 23.5769 118.506 17.8156 133.444 19.2559C160.039 21.8042 155.939 8.77483 194.193 24.4854C219.148 34.7671 223.404 17.8378 244.592 19.7434C255.252 20.6298 258.842 18.2809 265.624 17.5275C270.877 16.9293 276.351 16.0651 280.872 17.4167C290.247 20.2309 285.837 29.5376 293.904 35.1437C305.54 43.3646 318.284 31.9086 312.433 55.7957C309.551 67.8058 306.138 81.7658 311.59 96.6343C313.164 100.911 313.142 111.747 311.369 115.713C304.277 131.534 297.716 129.008 307.136 138.115C314.804 145.472 304.011 151.544 309.529 159.787C315.048 168.03 312.344 175.542 306.404 191.873C305.606 194.089 309.596 196.814 302.149 201.157C296.941 204.193 315.447 212.901 273.736 212.901C261.923 212.901 258.222 217.089 246.342 216.713C225.775 216.114 213.829 210.287 188.364 212.547C171.742 214.031 163.43 216.447 145.678 215.671C135.128 215.228 132.956 218.596 118.572 214.386C96.7418 207.982 73.7808 224.025 54.0114 216.136V216.203Z" fill="url(#paint24_radial_117_3056)"/>
        <path style="mix-blend-mode:screen" opacity="0.5" fill-rule="evenodd" clip-rule="evenodd" d="M35.5495 184.915C29.8093 179.752 27.0611 175.83 31.1169 161.449C36.9901 140.11 25.4875 134.703 24.2464 121.408C22.6285 104.368 23.9583 112.699 30.0974 100.667C33.8873 93.244 23.7588 90.9173 35.5274 76.9573C44.3926 66.5649 42.1763 58.1002 34.1976 48.5941C27.726 40.905 26.9724 30.3353 33.9095 25.2388C44.725 17.2616 57.092 26.2581 65.5805 26.7899C69.4103 26.731 73.1852 25.8705 76.662 24.2638C82.779 21.8928 98.1823 30.6455 110.261 30.6455C125 30.6455 140.713 22.2474 162.034 22.2474C184.197 22.2474 190.492 41.1044 209.685 33.1938C211.901 32.3074 225.376 41.1931 244.68 31.0887C260.061 23.0451 281.094 26.5461 285.416 34.5898C286.591 36.8057 294.702 34.9222 296.143 47.4419C296.786 52.9151 310.349 56.4162 302.304 71.1296C300.841 73.833 299.822 89.4327 302.459 94.1082C305.473 99.4485 305.451 111.436 302.304 116.068C293.439 129.208 306.138 139.977 299.6 149.527C293.062 159.078 298.625 166.9 298.625 174.279C298.625 189.79 293.129 180.372 296.209 195.507C298.891 208.802 288.009 210.508 276.529 207.871C273.138 207.096 270.256 206.32 263.098 211.55C252.304 219.394 236.635 214.386 224.29 210.641C207.114 205.478 195.811 205.722 177.925 211.018C165.758 214.585 145.811 202.154 125.665 209.223C108.067 215.494 100.332 201.866 87.5441 210.198C77.7702 216.602 68.2844 215.006 64.0069 210.685C58.5326 205.146 64.9156 212.081 56.4493 200.426C48.2711 189.214 38.4751 187.552 35.5717 184.915H35.5495Z" fill="url(#paint25_radial_117_3056)"/>
    </g>
    <defs>
        <radialGradient id="paint0_radial_117_3056" cx="0" cy="0" r="1" gradientUnits="userSpaceOnUse" gradientTransform="translate(164.96 -13.2953) scale(290.935 290.878)">
            <stop stop-color="#9DA9AB"/>
            <stop offset="1" stop-color="#555763"/>
        </radialGradient>
        <radialGradient id="paint1_radial_117_3056" cx="0" cy="0" r="1" gradientUnits="userSpaceOnUse" gradientTransform="translate(106.582 -259.767) scale(556.625 556.517)">
            <stop stop-color="#E2F1F7"/>
            <stop offset="1" stop-color="#9A9DB5"/>
        </radialGradient>
        <radialGradient id="paint2_radial_117_3056" cx="0" cy="0" r="1" gradientUnits="userSpaceOnUse" gradientTransform="translate(70.8996 47.5305) scale(126.64 126.615)">
            <stop stop-color="#AAB4B8"/>
            <stop offset="1" stop-color="#828599"/>
        </radialGradient>
        <radialGradient id="paint3_radial_117_3056" cx="0" cy="0" r="1" gradientUnits="userSpaceOnUse" gradientTransform="translate(25.3989 12.7191) scale(148.182 148.153)">
            <stop stop-color="#717485"/>
            <stop offset="1" stop-color="#9DA9AB"/>
        </radialGradient>
        <radialGradient id="paint4_radial_117_3056" cx="0" cy="0" r="1" gradientUnits="userSpaceOnUse" gradientTransform="translate(102.903 47.2868) scale(80.0308 80.0153)">
            <stop stop-color="#AAB4B8"/>
            <stop offset="1" stop-color="#828599"/>
        </radialGradient>
        <radialGradient id="paint5_radial_117_3056" cx="0" cy="0" r="1" gradientUnits="userSpaceOnUse" gradientTransform="translate(134.042 181.569) scale(247.473 247.425)">
            <stop stop-color="#A3AAB0"/>
            <stop offset="1" stop-color="#828599"/>
        </radialGradient>
        <radialGradient id="paint6_radial_117_3056" cx="0" cy="0" r="1" gradientUnits="userSpaceOnUse" gradientTransform="translate(309.263 -36.3182) scale(137.5 137.473)">
            <stop stop-color="#717485"/>
            <stop offset="1" stop-color="#9DA9AB"/>
        </radialGradient>
        <radialGradient id="paint7_radial_117_3056" cx="0" cy="0" r="1" gradientUnits="userSpaceOnUse" gradientTransform="translate(274.999 154.203) scale(170.212 170.179)">
            <stop stop-color="#9DA9AB"/>
            <stop offset="1" stop-color="#717485"/>
        </radialGradient>
        <radialGradient id="paint8_radial_117_3056" cx="0" cy="0" r="1" gradientUnits="userSpaceOnUse" gradientTransform="translate(371.342 88.5242) scale(159.685 159.654)">
            <stop stop-color="#717485"/>
            <stop offset="1" stop-color="#9DA9AB"/>
        </radialGradient>
        <radialGradient id="paint9_radial_117_3056" cx="0" cy="0" r="1" gradientUnits="userSpaceOnUse" gradientTransform="translate(371.431 73.3233) scale(220.389 220.347)">
            <stop stop-color="#717485"/>
            <stop offset="1" stop-color="#9DA9AB"/>
        </radialGradient>
        <radialGradient id="paint10_radial_117_3056" cx="0" cy="0" r="1" gradientUnits="userSpaceOnUse" gradientTransform="translate(221.675 96.1025) scale(202.526 202.487)">
            <stop stop-color="#717485"/>
            <stop offset="1" stop-color="#9DA9AB"/>
        </radialGradient>
        <radialGradient id="paint11_radial_117_3056" cx="0" cy="0" r="1" gradientUnits="userSpaceOnUse" gradientTransform="translate(96.7639 56.9037) scale(307.579 307.519)">
            <stop stop-color="#717485"/>
            <stop offset="1" stop-color="#9DA9AB"/>
        </radialGradient>
        <radialGradient id="paint12_radial_117_3056" cx="0" cy="0" r="1" gradientUnits="userSpaceOnUse" gradientTransform="translate(-8.66576 83.4055) scale(134.441 134.415)">
            <stop stop-color="#717485"/>
            <stop offset="1" stop-color="#9DA9AB"/>
        </radialGradient>
        <radialGradient id="paint13_radial_117_3056" cx="0" cy="0" r="1" gradientUnits="userSpaceOnUse" gradientTransform="translate(5.29696 250.084) scale(129.72 129.695)">
            <stop stop-color="#AAB4B8"/>
            <stop offset="1" stop-color="#828599"/>
        </radialGradient>
        <radialGradient id="paint14_radial_117_3056" cx="0" cy="0" r="1" gradientUnits="userSpaceOnUse" gradientTransform="translate(87.3225 262.603) scale(227.881 227.836)">
            <stop stop-color="#717485"/>
            <stop offset="1" stop-color="#9DA9AB"/>
        </radialGradient>
        <radialGradient id="paint15_radial_117_3056" cx="0" cy="0" r="1" gradientUnits="userSpaceOnUse" gradientTransform="translate(212.411 148.464) scale(240.58 240.533)">
            <stop stop-color="#717485"/>
            <stop offset="1" stop-color="#9DA9AB"/>
        </radialGradient>
        <radialGradient id="paint16_radial_117_3056" cx="0" cy="0" r="1" gradientUnits="userSpaceOnUse" gradientTransform="translate(160.461 151.92) scale(276.684 276.63)">
            <stop stop-color="#706F6F"/>
            <stop offset="1" stop-color="white"/>
        </radialGradient>
        <linearGradient id="paint17_linear_117_3056" x1="166.511" y1="221.632" x2="166.511" y2="11.3231" gradientUnits="userSpaceOnUse">
            <stop stop-color="#EDD6B9"/>
            <stop offset="1" stop-color="#D4B492"/>
        </linearGradient>
        <radialGradient id="paint18_radial_117_3056" cx="0" cy="0" r="1" gradientUnits="userSpaceOnUse" gradientTransform="translate(24.7783 224.224) scale(43.9937 43.9851)">
            <stop stop-color="#A48A7B"/>
            <stop offset="1" stop-color="white"/>
        </radialGradient>
        <radialGradient id="paint19_radial_117_3056" cx="0" cy="0" r="1" gradientUnits="userSpaceOnUse" gradientTransform="translate(313.652 22.2252) scale(19.4813 19.4775)">
            <stop stop-color="#A48A7B"/>
            <stop offset="1" stop-color="white"/>
        </radialGradient>
        <linearGradient id="paint20_linear_117_3056" x1="30.3191" y1="213.278" x2="35.5922" y2="200.868" gradientUnits="userSpaceOnUse">
            <stop stop-color="#BF9F7E"/>
            <stop offset="1" stop-color="#EDD6B9"/>
        </linearGradient>
        <linearGradient id="paint21_linear_117_3056" x1="312.034" y1="21.228" x2="303.68" y2="29.5835" gradientUnits="userSpaceOnUse">
            <stop stop-color="#BF9F7E"/>
            <stop offset="1" stop-color="#EDD6B9"/>
        </linearGradient>
        <radialGradient id="paint22_radial_117_3056" cx="0" cy="0" r="1" gradientUnits="userSpaceOnUse" gradientTransform="translate(28.3687 220.923) scale(35.9707 35.9637)">
            <stop/>
            <stop offset="1" stop-color="#A3805F"/>
        </radialGradient>
        <radialGradient id="paint23_radial_117_3056" cx="0" cy="0" r="1" gradientUnits="userSpaceOnUse" gradientTransform="translate(315.801 16.3974) scale(23.4042 23.3996)">
            <stop/>
            <stop offset="1" stop-color="#A3805F"/>
        </radialGradient>
        <radialGradient id="paint24_radial_117_3056" cx="0" cy="0" r="1" gradientUnits="userSpaceOnUse" gradientTransform="translate(165.957 117.508) scale(224.335 224.291)">
            <stop stop-color="#CA9E67"/>
            <stop offset="1"/>
        </radialGradient>
        <radialGradient id="paint25_radial_117_3056" cx="0" cy="0" r="1" gradientUnits="userSpaceOnUse" gradientTransform="translate(164.162 118.815) scale(120.789 120.765)">
            <stop stop-color="#CA9E67"/>
            <stop offset="1"/>
        </radialGradient>
        <clipPath id="clip0_117_3056">
            <rect width="333" height="236.678" fill="white"/>
        </clipPath>
    </defs>
</svg>
