<svg width="347" height="189" viewBox="0 0 347 189" fill="none" xmlns="http://www.w3.org/2000/svg">
    <path d="M247.48 8.88998C245.15 6.63998 241.94 6.09998 240.31 7.66998C239.21 8.72998 239.13 10.48 239.88 12.2L221.18 30.29L211.49 20.92C211.49 20.45 212.17 19.22 212.1 18.68C212.093 18.6081 212.061 18.5409 212.01 18.49C211.01 17.49 208.9 17.9 207.36 19.39C205.82 20.88 205.41 22.89 206.44 23.89C206.8 24.24 208.44 23.29 209.03 23.31L214.71 28.8L216.92 30.94L218.07 32.05L217.07 31.12L205.42 42.39C203.698 39.4118 202.927 35.9786 203.21 32.55C192.717 31.47 182.3 30.9 171.96 30.84C161.62 30.8933 151.203 31.4633 140.71 32.55C140.993 35.9786 140.222 39.4118 138.5 42.39L126.85 31.12L135 23.3C135.56 23.3 137.23 24.23 137.59 23.88C138.59 22.88 138.21 20.88 136.67 19.38C135.13 17.88 133.04 17.49 132.02 18.48C131.969 18.5309 131.937 18.5981 131.93 18.67C131.86 19.21 132.55 20.44 132.54 20.91L122.85 30.28L104.15 12.19C104.9 10.47 104.82 8.71998 103.72 7.65998C102.09 6.08998 98.88 6.65998 96.55 8.87998C94.22 11.1 93.67 14.23 95.3 15.81C96.39 16.87 98.2 16.95 99.98 16.22L113.57 29.37L118.68 34.31L108.68 43.96L111.14 46.34L119.51 38.25L121.23 39.92L131.05 49.42C129.058 50.419 126.898 51.0428 124.68 51.26C126.48 71.72 131.42 90 139.9 105.8L137.79 107.8L132.01 113.4C124.646 120.463 118.557 128.745 114.01 137.88L113.94 138.01L114.08 137.95C123.435 133.615 131.992 127.732 139.39 120.55L145.32 114.82C152.493 125.557 161.528 134.925 172 142.48C182.467 134.94 191.503 125.589 198.68 114.87L204.61 120.6C212.008 127.782 220.565 133.665 229.92 138L230.06 138.06L229.99 137.93C225.443 128.795 219.354 120.513 211.99 113.45L204.1 105.81C212.58 90.01 217.52 71.73 219.32 51.27C217.102 51.0528 214.942 50.429 212.95 49.43L224.49 38.26L232.86 46.35L235.32 43.97L225.32 34.32L234.14 25.79L244.02 16.23C245.8 16.96 247.61 16.88 248.7 15.82C250.36 14.24 249.8 11.14 247.48 8.88998Z" fill="#2B2021"/>
    <path d="M108.08 43.83C107.72 43.71 107.28 43.53 106.91 43.42C106.54 43.31 106.21 43.25 106.08 43.42C105.08 44.42 105.46 46.42 107 47.92C108.54 49.42 110.62 49.81 111.65 48.81C112.02 48.46 111.12 46.93 111.13 46.38L108.67 44C108.465 43.9762 108.266 43.9188 108.08 43.83Z" fill="#2B2021"/>
    <path d="M232.35 48.78C232.611 49.0292 232.937 49.1991 233.29 49.27C233.477 49.3102 233.668 49.3303 233.86 49.33C235.049 49.2544 236.167 48.7414 237 47.89C238.54 46.4 238.95 44.38 237.92 43.39C237.79 43.25 237.47 43.3 237.09 43.39C236.71 43.48 236.28 43.68 235.92 43.8C235.732 43.8784 235.533 43.9257 235.33 43.94L232.87 46.32C232.88 46.9 232 48.43 232.35 48.78Z" fill="#2B2021"/>
    <path opacity="0.1" d="M247.48 8.88998C245.15 6.63998 241.94 6.09998 240.31 7.66998C239.21 8.72998 239.13 10.48 239.88 12.2L221.18 30.29L211.49 20.92C211.49 20.45 212.17 19.22 212.1 18.68C212.093 18.6081 212.061 18.5409 212.01 18.49C211.01 17.49 208.9 17.9 207.36 19.39C205.82 20.88 205.41 22.89 206.44 23.89C206.8 24.24 208.44 23.29 209.03 23.31L214.71 28.8L216.92 30.94L218.07 32.05L217.07 31.12L205.42 42.39C203.698 39.4118 202.927 35.9786 203.21 32.55C192.717 31.47 182.3 30.9 171.96 30.84C161.62 30.8933 151.203 31.4633 140.71 32.55C140.993 35.9786 140.222 39.4118 138.5 42.39L126.85 31.12L135 23.3C135.56 23.3 137.23 24.23 137.59 23.88C138.59 22.88 138.21 20.88 136.67 19.38C135.13 17.88 133.04 17.49 132.02 18.48C131.969 18.5309 131.937 18.5981 131.93 18.67C131.86 19.21 132.55 20.44 132.54 20.91L122.85 30.28L104.15 12.19C104.9 10.47 104.82 8.71998 103.72 7.65998C102.09 6.08998 98.88 6.65998 96.55 8.87998C94.22 11.1 93.67 14.23 95.3 15.81C96.39 16.87 98.2 16.95 99.98 16.22L113.57 29.37L118.68 34.31L108.68 43.96L111.14 46.34L119.51 38.25L121.23 39.92L131.05 49.42C129.058 50.419 126.898 51.0428 124.68 51.26C126.48 71.72 131.42 90 139.9 105.8L137.79 107.8L132.01 113.4C124.646 120.463 118.557 128.745 114.01 137.88L113.94 138.01L114.08 137.95C123.435 133.615 131.992 127.732 139.39 120.55L145.32 114.82C152.493 125.557 161.528 134.925 172 142.48C182.467 134.94 191.503 125.589 198.68 114.87L204.61 120.6C212.008 127.782 220.565 133.665 229.92 138L230.06 138.06L229.99 137.93C225.443 128.795 219.354 120.513 211.99 113.45L204.1 105.81C212.58 90.01 217.52 71.73 219.32 51.27C217.102 51.0528 214.942 50.429 212.95 49.43L224.49 38.26L232.86 46.35L235.32 43.97L225.32 34.32L234.14 25.79L244.02 16.23C245.8 16.96 247.61 16.88 248.7 15.82C250.36 14.24 249.8 11.14 247.48 8.88998Z" fill="#1D1D1B"/>
    <path opacity="0.1" d="M108.08 43.83C107.72 43.71 107.28 43.53 106.91 43.42C106.54 43.31 106.21 43.25 106.08 43.42C105.08 44.42 105.46 46.42 107 47.92C108.54 49.42 110.62 49.81 111.65 48.81C112.02 48.46 111.12 46.93 111.13 46.38L108.67 44C108.465 43.9762 108.266 43.9188 108.08 43.83Z" fill="#1D1D1B"/>
    <path opacity="0.1" d="M232.35 48.78C232.611 49.0292 232.937 49.1991 233.29 49.27C233.477 49.3102 233.668 49.3303 233.86 49.33C235.049 49.2544 236.167 48.7414 237 47.89C238.54 46.4 238.95 44.38 237.92 43.39C237.79 43.25 237.47 43.3 237.09 43.39C236.71 43.48 236.28 43.68 235.92 43.8C235.732 43.8784 235.533 43.9257 235.33 43.94L232.87 46.32C232.88 46.9 232 48.43 232.35 48.78Z" fill="#1D1D1B"/>
    <path d="M123.57 29.7C122.819 29.6946 122.1 29.3927 121.57 28.86L100.21 7.51C99.8915 7.26169 99.6295 6.94853 99.4412 6.5913C99.2529 6.23406 99.1427 5.84089 99.1179 5.43784C99.093 5.03479 99.1541 4.63106 99.2971 4.25341C99.4401 3.87575 99.6617 3.5328 99.9472 3.24726C100.233 2.96172 100.576 2.74011 100.953 2.59713C101.331 2.45416 101.735 2.39306 102.138 2.4179C102.541 2.44275 102.934 2.55296 103.291 2.74124C103.649 2.92951 103.962 3.19155 104.21 3.51L125.58 24.86C125.974 25.2592 126.243 25.7657 126.351 26.3164C126.46 26.867 126.404 27.4375 126.191 27.9567C125.978 28.4759 125.617 28.9209 125.152 29.2362C124.688 29.5515 124.141 29.7233 123.58 29.73L123.57 29.7Z" fill="#B34D22"/>
    <path d="M203.56 114L121.18 31.66L128.34 24.51L210.72 106.85C217.875 113.957 223.76 122.236 228.12 131.33L228.19 131.47L228.06 131.4C218.96 127.041 210.674 121.156 203.56 114Z" fill="#9DB9BF"/>
    <path opacity="0.1" d="M203.56 114L121.18 31.66L124.79 28.05L228.12 131.28L228.06 131.35C218.964 127.006 210.678 121.138 203.56 114Z" fill="#1D1D1B"/>
    <path d="M134.055 13.9774L110.706 37.3109L113.088 39.6947L136.438 16.3612L134.055 13.9774Z" fill="#44575F"/>
    <path d="M97.73 9.17C96.15 7.6 96.73 4.49 98.95 2.24C101.17 -0.00999784 104.3 -0.549997 105.88 1.03C107.46 2.61 106.88 5.71 104.66 7.96C102.44 10.21 99.31 10.75 97.73 9.17Z" fill="#F2BB5C"/>
    <path d="M99.73 7.16997C98.93 6.36997 99.21 4.78998 100.35 3.64998C101.49 2.50998 103.08 2.22997 103.88 3.02997C104.68 3.82997 104.4 5.40998 103.26 6.54998C102.12 7.68998 100.54 7.99997 99.73 7.16997Z" fill="#B34D22"/>
    <path d="M136.16 16.65C136.71 16.65 138.31 17.59 138.67 17.23C139.67 16.23 139.26 14.23 137.77 12.73C136.28 11.23 134.27 10.84 133.27 11.84C132.92 12.19 133.79 13.72 133.78 14.27L136.16 16.65Z" fill="#F2BB5C"/>
    <path d="M110.7 37.32C110.16 37.32 108.55 36.39 108.19 36.74C107.19 37.74 107.6 39.74 109.09 41.24C110.58 42.74 112.6 43.13 113.59 42.13C113.95 41.78 113.07 40.25 113.09 39.7L110.7 37.32Z" fill="#F2BB5C"/>
    <path d="M220.43 29.7C221.181 29.6946 221.9 29.3927 222.43 28.86L243.79 7.50999C244.218 6.96172 244.43 6.27607 244.387 5.58214C244.344 4.8882 244.049 4.23384 243.558 3.74222C243.066 3.2506 242.412 2.95564 241.718 2.91287C241.024 2.8701 240.338 3.08246 239.79 3.50999L218.42 24.86C218.026 25.2592 217.757 25.7657 217.648 26.3164C217.54 26.867 217.596 27.4375 217.809 27.9567C218.022 28.4759 218.383 28.9208 218.848 29.2362C219.312 29.5515 219.859 29.7232 220.42 29.73L220.43 29.7Z" fill="#B34D22"/>
    <path d="M140.44 114L222.82 31.66L215.66 24.51L133.28 106.8C126.125 113.907 120.24 122.186 115.88 131.28L115.81 131.42L115.94 131.35C125.036 127.006 133.322 121.138 140.44 114Z" fill="#9DB9BF"/>
    <path opacity="0.1" d="M140.44 114L222.82 31.66L219.21 28L115.88 131.28L115.94 131.35C125.036 127.006 133.322 121.138 140.44 114Z" fill="#1D1D1B"/>
    <path d="M209.959 14.0098L207.577 16.3936L230.927 39.727L233.309 37.3432L209.959 14.0098Z" fill="#44575F"/>
    <path d="M246.27 9.17C247.85 7.6 247.27 4.49 245.05 2.24C242.83 -0.00999784 239.7 -0.549997 238.12 1.03C236.54 2.61 237.12 5.71 239.34 7.96C241.56 10.21 244.69 10.75 246.27 9.17Z" fill="#F2BB5C"/>
    <path d="M244.27 7.16997C245.07 6.36997 244.79 4.78998 243.65 3.64998C242.51 2.50998 240.92 2.22997 240.12 3.02997C239.32 3.82997 239.6 5.40998 240.74 6.54998C241.88 7.68998 243.46 7.99997 244.27 7.16997Z" fill="#B34D22"/>
    <path d="M207.84 16.65C207.29 16.65 205.69 17.59 205.33 17.23C204.33 16.23 204.74 14.23 206.23 12.73C207.72 11.23 209.73 10.84 210.73 11.84C211.08 12.19 210.21 13.72 210.22 14.27L207.84 16.65Z" fill="#F2BB5C"/>
    <path d="M233.3 37.32C233.84 37.32 235.45 36.39 235.81 36.74C236.81 37.74 236.4 39.74 234.91 41.24C233.42 42.74 231.4 43.13 230.41 42.13C230.05 41.78 230.93 40.25 230.91 39.7L233.3 37.32Z" fill="#F2BB5C"/>
    <g opacity="0.1">
        <path d="M108.19 36.74C107.19 37.74 107.6 39.74 109.09 41.24C110.58 42.74 112.6 43.13 113.59 42.13C113.95 41.78 113.07 40.25 113.09 39.7L110.7 37.32C110.16 37.34 108.55 36.39 108.19 36.74Z" fill="#1D1D1B"/>
        <path d="M128.34 24.46L126.34 26.46L129.64 23.17C128.21 23.05 126.8 22.88 125.39 22.65L124.39 23.65L122.89 22.16C118.761 21.2779 114.738 19.9571 110.89 18.22L120.36 27.69L110.71 37.33L113.09 39.71L123.09 29.71L121.09 31.71L122.76 33.39C126.329 31.678 130.198 30.6826 134.15 30.46L128.34 24.46Z" fill="#1D1D1B"/>
        <path d="M152.11 88L138.88 101.2C140.195 104.953 141.11 108.835 141.61 112.78L166.42 88H152.11Z" fill="#1D1D1B"/>
        <path d="M177.58 88L202.76 113.17C203.033 109.138 203.875 105.166 205.26 101.37L191.89 88H177.58Z" fill="#1D1D1B"/>
        <path d="M218.28 22.32L210.22 14.32C210.22 13.77 211.08 12.24 210.73 11.89C209.73 10.89 207.73 11.29 206.23 12.78C204.73 14.27 204.34 16.29 205.33 17.28C205.69 17.64 207.33 16.69 207.84 16.7L213.34 22.19C214.981 22.3522 216.632 22.3956 218.28 22.32Z" fill="#1D1D1B"/>
        <path d="M232.17 19.15C228.666 20.6723 224.962 21.6827 221.17 22.15L219.64 23.68L218.32 22.36C216.671 22.419 215.02 22.3588 213.38 22.18L217.66 26.46L215.66 24.46L209.19 30.93C213.162 31.0197 217.061 32.0149 220.59 33.84L222.82 31.61L230.91 39.7L233.3 37.32L223.64 27.68L232.17 19.15Z" fill="#1D1D1B"/>
        <path d="M230.41 42.13C231.41 43.13 233.41 42.73 234.91 41.24C236.41 39.75 236.8 37.74 235.81 36.74C235.45 36.39 233.81 37.34 233.3 37.32L230.91 39.7C230.93 40.25 230.05 41.78 230.41 42.13Z" fill="#1D1D1B"/>
    </g>
    <path d="M172 135.84C143.86 114.71 129.51 83.64 126.19 44.62C130.714 44.1489 134.875 41.9269 137.782 38.4288C140.69 34.9307 142.114 30.4341 141.75 25.9C151.798 24.8179 161.894 24.2439 172 24.18C182.106 24.2439 192.202 24.8179 202.25 25.9C201.886 30.4341 203.31 34.9307 206.218 38.4288C209.125 41.9269 213.286 44.1489 217.81 44.62C214.49 83.64 200.14 114.71 172 135.84Z" fill="#FFAD3B"/>
    <path d="M172 126.62C150.41 108.62 137.93 83.42 134 49.99C137.619 48.422 140.816 46.02 143.329 42.9802C145.842 39.9405 147.6 36.3492 148.46 32.5C156.46 31.81 164.32 31.44 172 31.4C179.68 31.36 187.57 31.81 195.54 32.5C196.398 36.3511 198.156 39.9443 200.669 42.9859C203.182 46.0275 206.38 48.431 210 50C206.07 83.42 193.59 108.59 172 126.62Z" fill="#9F4C33"/>
    <path opacity="0.3" d="M151.1 35.39C156.92 34.95 159.55 34.63 168.88 33.26C162.67 33.36 156.31 33.67 149.88 34.19C148.88 37.8381 147.114 41.2313 144.7 44.1436C142.286 47.0559 139.279 49.4206 135.88 51.08C137.88 67.08 141.88 81.08 147.94 93.25C142.56 77 139.14 64.96 137.63 51.94C141.029 50.451 144.024 48.1728 146.367 45.2945C148.71 42.4162 150.332 39.0208 151.1 35.39Z" fill="white"/>
    <path d="M172 29.75C173.038 29.75 173.88 28.9083 173.88 27.87C173.88 26.8317 173.038 25.99 172 25.99C170.962 25.99 170.12 26.8317 170.12 27.87C170.12 28.9083 170.962 29.75 172 29.75Z" fill="white"/>
    <path d="M148.289 29.0699C148.29 28.0316 147.449 27.189 146.411 27.1879C145.372 27.1868 144.53 28.0277 144.529 29.066C144.528 30.1043 145.368 30.9468 146.407 30.9479C147.445 30.949 148.288 30.1082 148.289 29.0699Z" fill="white"/>
    <path d="M199.466 29.0716C199.467 28.0333 198.627 27.1906 197.588 27.1893C196.55 27.1881 195.707 28.0287 195.706 29.067C195.705 30.1053 196.545 30.948 197.584 30.9493C198.622 30.9506 199.465 30.1099 199.466 29.0716Z" fill="white"/>
    <path d="M130.47 49.54C130.096 49.54 129.731 49.4291 129.42 49.2215C129.109 49.0138 128.867 48.7186 128.724 48.3733C128.581 48.0279 128.543 47.6479 128.616 47.2813C128.689 46.9146 128.869 46.5779 129.134 46.3136C129.398 46.0492 129.735 45.8692 130.101 45.7963C130.468 45.7234 130.848 45.7608 131.193 45.9039C131.539 46.0469 131.834 46.2892 132.041 46.6C132.249 46.9108 132.36 47.2762 132.36 47.65C132.36 48.1512 132.161 48.632 131.806 48.9864C131.452 49.3409 130.971 49.54 130.47 49.54Z" fill="white"/>
    <path d="M213.53 49.54C213.904 49.54 214.269 49.4291 214.58 49.2215C214.891 49.0138 215.133 48.7186 215.276 48.3733C215.419 48.0279 215.457 47.6479 215.384 47.2813C215.311 46.9146 215.131 46.5779 214.866 46.3136C214.602 46.0492 214.265 45.8692 213.899 45.7963C213.532 45.7234 213.152 45.7608 212.807 45.9039C212.461 46.0469 212.166 46.2892 211.959 46.6C211.751 46.9108 211.64 47.2762 211.64 47.65C211.64 48.1512 211.839 48.632 212.194 48.9864C212.548 49.3409 213.029 49.54 213.53 49.54Z" fill="white"/>
    <path d="M134 73.1999C133.628 73.1999 133.265 73.0897 132.956 72.8831C132.646 72.6765 132.405 72.3829 132.263 72.0394C132.121 71.6959 132.084 71.3179 132.156 70.9532C132.229 70.5885 132.408 70.2535 132.671 69.9906C132.934 69.7277 133.269 69.5486 133.633 69.4761C133.998 69.4035 134.376 69.4408 134.719 69.583C135.063 69.7253 135.357 69.9663 135.563 70.2755C135.77 70.5846 135.88 70.9481 135.88 71.32C135.877 71.8178 135.678 72.2944 135.326 72.6464C134.974 72.9984 134.498 73.1973 134 73.1999Z" fill="white"/>
    <path d="M210 73.1999C210.372 73.1999 210.735 73.0897 211.044 72.8831C211.354 72.6765 211.595 72.3829 211.737 72.0394C211.879 71.6959 211.916 71.3179 211.844 70.9532C211.771 70.5885 211.592 70.2535 211.329 69.9906C211.066 69.7277 210.731 69.5486 210.367 69.4761C210.002 69.4035 209.624 69.4408 209.281 69.583C208.937 69.7253 208.643 69.9663 208.437 70.2755C208.23 70.5846 208.12 70.9481 208.12 71.32C208.123 71.8178 208.322 72.2944 208.674 72.6464C209.026 72.9984 209.502 73.1973 210 73.1999Z" fill="white"/>
    <path d="M142.63 95.73C142.259 95.728 141.896 95.6161 141.588 95.4083C141.28 95.2005 141.041 94.9062 140.9 94.5625C140.76 94.2189 140.724 93.8412 140.797 93.4771C140.871 93.1131 141.051 92.7791 141.314 92.5172C141.577 92.2552 141.912 92.0772 142.277 92.0054C142.641 91.9337 143.019 91.9715 143.362 92.1141C143.705 92.2567 143.998 92.4976 144.204 92.8066C144.41 93.1155 144.52 93.4786 144.52 93.85C144.52 94.0977 144.471 94.343 144.376 94.5718C144.281 94.8005 144.141 95.0082 143.966 95.1829C143.79 95.3576 143.582 95.4959 143.353 95.5898C143.123 95.6837 142.878 95.7313 142.63 95.73Z" fill="white"/>
    <path d="M201.37 95.73C201.741 95.728 202.104 95.6161 202.412 95.4083C202.72 95.2005 202.959 94.9062 203.1 94.5625C203.241 94.2189 203.276 93.8412 203.203 93.4771C203.129 93.1131 202.949 92.7791 202.686 92.5172C202.423 92.2552 202.088 92.0772 201.723 92.0054C201.359 91.9337 200.981 91.9715 200.638 92.1141C200.295 92.2567 200.002 92.4976 199.796 92.8066C199.59 93.1155 199.48 93.4786 199.48 93.85C199.48 94.0977 199.529 94.343 199.624 94.5718C199.719 94.8005 199.859 95.0082 200.034 95.1829C200.21 95.3576 200.418 95.4959 200.647 95.5898C200.877 95.6837 201.122 95.7313 201.37 95.73Z" fill="white"/>
    <path d="M155.06 116.5C154.688 116.5 154.325 116.39 154.016 116.183C153.706 115.977 153.465 115.683 153.323 115.339C153.181 114.996 153.144 114.618 153.216 114.253C153.289 113.889 153.468 113.554 153.731 113.291C153.994 113.028 154.329 112.849 154.693 112.776C155.058 112.704 155.436 112.741 155.779 112.883C156.123 113.025 156.417 113.266 156.623 113.576C156.83 113.885 156.94 114.248 156.94 114.62C156.937 115.118 156.738 115.594 156.386 115.946C156.034 116.298 155.558 116.497 155.06 116.5Z" fill="white"/>
    <path d="M188.94 116.5C189.312 116.5 189.675 116.39 189.984 116.183C190.294 115.977 190.535 115.683 190.677 115.339C190.819 114.996 190.856 114.618 190.784 114.253C190.711 113.889 190.532 113.554 190.269 113.291C190.006 113.028 189.671 112.849 189.307 112.776C188.942 112.704 188.564 112.741 188.221 112.883C187.877 113.025 187.583 113.266 187.377 113.576C187.17 113.885 187.06 114.248 187.06 114.62C187.063 115.118 187.262 115.594 187.614 115.946C187.966 116.298 188.442 116.497 188.94 116.5Z" fill="white"/>
    <path d="M172 132.6C171.628 132.6 171.265 132.49 170.956 132.283C170.646 132.077 170.405 131.783 170.263 131.439C170.121 131.096 170.084 130.718 170.156 130.353C170.229 129.989 170.408 129.654 170.671 129.391C170.934 129.128 171.269 128.949 171.633 128.876C171.998 128.804 172.376 128.841 172.719 128.983C173.063 129.125 173.357 129.366 173.563 129.675C173.77 129.985 173.88 130.348 173.88 130.72C173.88 131.219 173.682 131.697 173.329 132.049C172.977 132.402 172.499 132.6 172 132.6Z" fill="white"/>
    <path d="M164.88 93.39C165.16 93.39 165.43 93.39 165.7 93.39C165.39 93.43 165.12 93.44 164.84 93.45L164.88 93.39ZM165.07 73.31C165.065 73.3364 165.065 73.3636 165.07 73.39C165.043 73.3786 165.019 73.3615 165 73.34L165.07 73.31ZM163.5 47.74C163.54 47.7076 163.583 47.6807 163.63 47.66C163.553 47.6815 163.482 47.719 163.42 47.77L163.5 47.74ZM167.84 74.13C167.869 74.0614 167.903 73.9946 167.94 73.93C167.874 74.0018 167.814 74.0787 167.76 74.16L167.84 74.13ZM180.56 61.9C180.5 62.43 180.44 62.96 180.4 63.49C180.4 62.96 180.5 62.43 180.56 61.9ZM163 65.17C162.8 65.3594 162.652 65.597 162.57 65.86C162.953 65.9886 163.356 66.0528 163.76 66.05C163.76 66.05 163.76 66 163.76 65.97C163.47 65.71 163.22 65.45 163 65.17ZM152.41 65.76C152.328 65.8384 152.251 65.9219 152.18 66.01C152.245 65.9225 152.315 65.839 152.39 65.76H152.41ZM154 70C154 70 154 69.89 154.05 69.84C154.1 69.79 154.05 69.84 154.05 69.9C154.03 69.9315 154.013 69.9651 154 70ZM170.02 92.55C169.76 92.64 169.49 92.72 169.23 92.79C169.49 92.69 169.76 92.61 170 92.52L170.02 92.55ZM153.88 70.55C153.875 70.4901 153.875 70.4299 153.88 70.37C153.876 70.4265 153.876 70.4834 153.88 70.54V70.55ZM164.84 73.62C164.844 73.6002 164.844 73.5797 164.84 73.56C164.858 73.5761 164.872 73.5968 164.88 73.62H164.84ZM155.85 65.92C155.76 65.904 155.673 65.8771 155.59 65.84C155.688 65.8668 155.789 65.8803 155.89 65.88L155.85 65.92ZM156.17 65.96C156.27 65.9698 156.37 65.9698 156.47 65.96C156.382 65.9541 156.295 65.9407 156.21 65.92L156.17 65.96ZM180.28 63.53C180.28 63.97 180.28 64.41 180.28 64.85C180.27 64.37 180.29 63.93 180.32 63.49L180.28 63.53ZM186.66 78.97C186.629 79.2226 186.582 79.4731 186.52 79.72C186.601 79.4611 186.664 79.1972 186.71 78.93L186.66 78.97ZM158.54 69.9C158.461 69.8344 158.377 69.7742 158.29 69.72C158.366 69.7656 158.44 69.8157 158.51 69.87L158.54 69.9ZM153.92 70.62C153.93 70.7086 153.951 70.7958 153.98 70.88C153.938 70.8006 153.904 70.7167 153.88 70.63L153.92 70.62ZM154.89 65.29C154.791 65.2364 154.687 65.1929 154.58 65.16C154.674 65.1984 154.764 65.2453 154.85 65.3L154.89 65.29ZM163.84 45.49C163.886 45.5003 163.934 45.5003 163.98 45.49C163.931 45.5171 163.876 45.5308 163.82 45.53L163.84 45.49ZM180.73 42.2C180.584 42.1896 180.436 42.1896 180.29 42.2C180.422 42.1747 180.556 42.158 180.69 42.15L180.73 42.2ZM164.43 88.72C164.672 88.2078 164.879 87.6799 165.05 87.14L163.65 89.38C163.822 89.3606 163.992 89.3305 164.16 89.29L164.43 88.72ZM168.43 47.94C168.74 47.94 169.06 47.94 169.37 47.94C169.235 47.9206 169.101 47.8905 168.97 47.85C168.668 47.7666 168.371 47.6664 168.08 47.55C167.608 47.3414 167.104 47.2162 166.59 47.18C166.144 47.2033 165.704 47.3013 165.29 47.47C166.289 47.7697 167.328 47.9114 168.37 47.89L168.43 47.94ZM167.59 45.7C167.828 45.7631 168.061 45.8399 168.29 45.93C168.606 46.0738 168.944 46.1618 169.29 46.19C169.575 46.1762 169.851 46.0864 170.09 45.93C169.954 45.7044 169.766 45.5149 169.542 45.3773C169.317 45.2398 169.063 45.1584 168.8 45.14H168.47C167.91 45.1655 167.357 45.2768 166.83 45.47L166.47 45.6H166.6C166.911 45.5812 167.223 45.5979 167.53 45.65L167.59 45.7ZM180.84 42.21C180.992 42.2406 181.143 42.2807 181.29 42.33C181.121 42.2607 180.947 42.2039 180.77 42.16L180.84 42.21ZM164.69 47.88C164.948 47.9783 165.212 48.0618 165.48 48.13C165.221 48.0378 164.967 47.931 164.72 47.81L164.69 47.88ZM170.56 47.28C170.439 47.3205 170.316 47.3506 170.19 47.37C170.342 47.3323 170.489 47.2787 170.63 47.21L170.56 47.28ZM166.42 48.36C166.16 48.36 165.89 48.25 165.63 48.19C166 48.18 166.23 48.25 166.49 48.29L166.42 48.36ZM162.58 65.88C162.662 65.617 162.81 65.3794 163.01 65.19C163.25 65.47 163.5 65.73 163.76 65.99C163.566 64.7483 163.593 63.4822 163.84 62.25C164.094 61.0793 164.49 59.9442 165.02 58.87C164.113 58.6361 163.254 58.2471 162.48 57.72C162.02 57.4154 161.631 57.0144 161.341 56.5447C161.051 56.0751 160.866 55.548 160.8 55C160.883 54.2214 160.84 53.4344 160.67 52.67C160.513 52.3594 160.303 52.0786 160.05 51.84L158.76 50.43C158.412 49.9601 157.926 49.6106 157.37 49.43C157.164 49.3932 156.952 49.4175 156.76 49.5L156.58 49.44C156.077 49.3201 155.553 49.3201 155.05 49.44C155.48 49.4973 155.893 49.6475 156.26 49.88C156.176 50.0066 156.14 50.1593 156.16 50.31C155.933 50.1888 155.674 50.1402 155.418 50.1705C155.163 50.2009 154.922 50.3089 154.73 50.48C154.668 50.5454 154.611 50.6156 154.56 50.69C154.285 50.7201 154.02 50.8111 153.785 50.9564C153.55 51.1017 153.35 51.2977 153.2 51.53C153.567 51.3753 153.962 51.297 154.36 51.3C154.346 51.5028 154.384 51.7058 154.47 51.89C154.31 51.854 154.143 51.8706 153.994 51.9373C153.844 52.0039 153.72 52.1171 153.64 52.26C153.481 52.5478 153.399 52.8713 153.4 53.2C153.4 53.3 153.4 53.4 153.4 53.5C153.159 53.6995 152.966 53.9503 152.835 54.234C152.703 54.5177 152.637 54.8273 152.64 55.14C152.88 54.7663 153.173 54.4295 153.51 54.14C153.571 54.3039 153.679 54.4463 153.82 54.55C154.3 54.92 154.99 54.66 155.54 54.41C156.09 54.16 156.8 53.94 157.24 54.41C157.68 54.88 157.47 55.66 157.24 56.29C156.835 57.5896 156.814 58.9787 157.18 60.29L157.81 59.54C157.923 60.8094 158.338 62.0333 159.02 63.11C159.105 62.5648 159.288 62.0396 159.56 61.56C159.988 63.1341 160.81 64.5728 161.95 65.74C162.083 65.8083 162.22 65.8684 162.36 65.92L162.58 65.88ZM195.36 53.49C195.005 53.0968 194.572 52.7824 194.088 52.5671C193.604 52.3518 193.08 52.2404 192.55 52.24C191.284 52.4258 190.14 53.0964 189.36 54.11C188.575 55.1146 187.957 56.239 187.53 57.44C186.8 59.3 185.06 62.36 188.39 69.35C189.02 70.6622 189.522 72.0318 189.89 73.44C190.31 74.844 190.243 76.3488 189.7 77.71C189.459 78.2292 189.104 78.688 188.663 79.053C188.222 79.418 187.705 79.68 187.15 79.82C186.949 79.8602 186.745 79.8803 186.54 79.88L186.6 79.7C186.662 79.4531 186.709 79.2026 186.74 78.95C186.783 78.5264 186.767 78.0988 186.69 77.68C186.69 77.49 186.6 77.31 186.55 77.13C186.434 76.7855 186.29 76.4511 186.12 76.13C186.04 75.96 185.95 75.79 185.86 75.63C185.491 74.9168 185.045 74.2461 184.53 73.63C183.77 72.73 182.82 72.01 182.1 71.09C181.049 69.6674 180.44 67.9665 180.35 66.2C180.35 65.76 180.35 65.32 180.35 64.89C180.35 64.46 180.35 64.01 180.35 63.57C180.35 63.13 180.45 62.51 180.51 61.98C180.076 61.7775 179.655 61.547 179.25 61.29C179.071 61.8193 178.97 62.3717 178.95 62.93V63.81L178.16 63.41C177.361 63.0044 176.629 62.4783 175.99 61.85C175.64 62.37 175.31 62.91 174.99 63.45L174.48 64.34L173.99 63.44C173.839 63.1802 173.672 62.9297 173.49 62.69C173.3 63.0966 173.142 63.518 173.02 63.95L172.7 65.1L172.01 64.1C171.695 63.6637 171.448 63.1814 171.28 62.67C170.887 63.2417 170.552 63.8514 170.28 64.49L169.94 65.29L169.34 64.67C168.507 63.7876 167.975 62.6638 167.82 61.46C167.654 61.604 167.5 61.7612 167.36 61.93L166.36 63.05V61.57C166.322 60.3026 166.608 59.0465 167.19 57.92C167.078 57.9736 166.971 58.0372 166.87 58.11L165.59 59.11C165.48 59.33 165.38 59.56 165.28 59.79C165.2 59.9522 165.13 60.1191 165.07 60.29C164.862 60.7979 164.689 61.3191 164.55 61.85C164.501 62.0277 164.46 62.208 164.43 62.39C164.188 63.5999 164.171 64.8439 164.38 66.06C164.632 66.0249 164.88 65.9646 165.12 65.88C165.81 65.5934 166.459 65.2168 167.05 64.76L167.15 64.69L167.44 65.18C166.789 65.6878 166.073 66.1049 165.31 66.42C165.043 66.5112 164.769 66.5782 164.49 66.62H164.41H164.18H163.41H163.17H163.02L162.76 66.57H162.63L162.26 66.45L161.89 66.29L161.53 66.12L161.17 65.93C161.054 65.8793 160.94 65.8226 160.83 65.76H160.77L160.44 65.6H160.38L160.04 65.47L159.69 65.38C159.564 65.3701 159.436 65.3701 159.31 65.38H159.11C159.005 65.3894 158.901 65.4095 158.8 65.44H158.73L158.44 65.52H158.38L158.1 65.62L157.77 65.75L157.46 65.87L157.19 65.96H157.14L156.86 66.02H156.8C156.7 66.0298 156.6 66.0298 156.5 66.02H156.24H156.18C156.09 66.004 156.003 65.9771 155.92 65.94C155.64 65.81 155.41 65.59 155.14 65.44C155.041 65.3864 154.937 65.3429 154.83 65.31L154.51 65.26H154.11L153.78 65.33H153.7L153.45 65.43H153.37L153.08 65.6C153.064 65.5957 153.046 65.5957 153.03 65.6L152.8 65.77L152.73 65.83C152.648 65.9084 152.571 65.9919 152.5 66.08C152.253 66.3565 152.108 66.7095 152.09 67.08C151.773 67.5044 151.63 68.0337 151.69 68.56C151.723 68.3768 151.794 68.2027 151.899 68.0493C152.004 67.8958 152.141 67.7665 152.3 67.67L152.41 67.77L152.5 67.82H152.55L152.67 67.87C152.72 67.8797 152.77 67.8797 152.82 67.87H152.93C152.981 67.8605 153.028 67.84 153.07 67.81C152.857 68.1867 152.718 68.6009 152.66 69.03C152.625 69.3525 152.711 69.6764 152.9 69.94C152.729 70.3618 152.651 70.8153 152.67 71.27L153.3 70.27H153.54H153.72H153.86C153.911 70.2424 153.958 70.2089 154 70.17C154.033 70.1349 154.06 70.0943 154.08 70.05C154.08 70.05 154.08 70.05 154.08 69.99C154.08 69.93 154.08 70.1 154.03 70.15V70.26V70.42C154.03 70.42 154.03 70.49 154.03 70.53C154.025 70.5899 154.025 70.6501 154.03 70.71V70.8C154.04 70.8886 154.061 70.9758 154.09 71.06C154.138 71.1907 154.213 71.3099 154.31 71.41C154.219 71.9833 154.25 72.5693 154.4 73.13C154.473 72.6332 154.58 72.1421 154.72 71.66H154.9H155.07H155.15H155.22H155.3H155.36L155.44 71.6H155.5L155.57 71.53C155.57 71.53 155.57 71.53 155.62 71.48L155.69 71.41L155.76 71.32V71.27L155.85 71.13C156.022 70.7156 156.277 70.3411 156.6 70.03C156.661 69.9806 156.728 69.9402 156.8 69.91H156.88L157.03 69.85H157H157.17H157.35H157.55H157.66L157.85 69.9H157.96L158.14 69.99H158.23C158.317 70.0442 158.401 70.1044 158.48 70.17C158.996 70.6763 159.392 71.2912 159.64 71.97L159.94 71.15C160.508 71.5682 161.037 72.0367 161.52 72.55C161.51 72.4871 161.51 72.4229 161.52 72.36V72.3L161.58 72.19V72.13L161.66 72.04H161.71C161.748 72.0034 161.792 71.973 161.84 71.95L162.03 71.87H162.18H162.45C162.516 71.8759 162.58 71.8928 162.64 71.92C163.168 72.1725 163.602 72.5856 163.88 73.1L164.63 74.23C164.625 74.16 164.625 74.0899 164.63 74.02C164.634 74.0002 164.634 73.9797 164.63 73.96C164.63 73.91 164.63 73.86 164.63 73.82C164.625 73.7936 164.625 73.7664 164.63 73.74C164.626 73.7001 164.626 73.6599 164.63 73.62V73.54L164.7 73.43V73.37L164.77 73.28L164.84 73.22L164.92 73.16H165H165.09H165.17H165.32C165.551 73.2108 165.757 73.3419 165.9 73.53C166.377 74.0406 166.738 74.6476 166.96 75.31C167.048 75.0847 167.148 74.8643 167.26 74.65C167.289 74.5814 167.323 74.5146 167.36 74.45L167.62 73.99V73.93L167.7 73.8C168.238 72.962 168.869 72.1871 169.58 71.49C169.58 71.63 169.69 71.78 169.76 71.95L169.82 72.06C169.29 72.5964 168.808 73.1787 168.38 73.8C168.815 74.121 169.269 74.4149 169.74 74.68C170.96 75.36 172.29 75.85 173.48 76.56C173.86 76.56 174.24 76.49 174.61 76.43C175.148 76.3168 175.679 76.1733 176.2 76C176.53 75.89 176.87 75.79 177.2 75.7C178.08 75.4578 178.988 75.3334 179.9 75.33C180.048 75.3425 180.185 75.4102 180.285 75.5195C180.385 75.6288 180.441 75.7718 180.44 75.92H179.9C179.038 75.9263 178.181 76.0439 177.35 76.27C176.46 76.5 175.6 76.84 174.7 77.01C173.24 77.28 171.7 77.1 170.29 77.53C168.481 78.193 167.007 79.5446 166.19 81.29C165.39 83.0156 164.78 84.8228 164.37 86.68C164.65 86.2396 165.035 85.8754 165.49 85.62C165.31 86.9357 164.932 88.2168 164.37 89.42L165.37 88.61C165.34 88.939 165.219 89.2533 165.022 89.5181C164.824 89.7828 164.557 89.9877 164.25 90.11C163.632 90.3519 162.973 90.4708 162.31 90.46L157.6 90.7C157.193 90.7065 156.788 90.7534 156.39 90.84C155.581 91.0447 154.883 91.5533 154.44 92.26C154.193 92.6047 154.079 93.0276 154.12 93.45C154.12 93.45 154.12 93.45 154.12 93.51C153.988 94.0937 153.931 94.6918 153.95 95.29C154.026 94.8503 154.178 94.4272 154.4 94.04C154.538 94.1844 154.722 94.2763 154.92 94.3C154.835 94.4739 154.819 94.6733 154.875 94.8586C154.93 95.0439 155.054 95.2014 155.22 95.3C155.15 95.8009 155.15 96.3091 155.22 96.81C155.299 96.343 155.458 95.8931 155.69 95.48C155.818 95.5113 155.949 95.5281 156.08 95.53H156.52C156.495 95.7731 156.539 96.0184 156.647 96.2377C156.755 96.4571 156.922 96.6415 157.13 96.77L157.23 96.82C157.188 97.327 157.232 97.8376 157.36 98.33C157.49 97.87 157.61 97.41 157.74 96.95H157.96H158.08H158.16H158.28H158.34L158.52 96.85C159.28 96.33 159.29 95.15 159.96 94.52C160.03 94.4515 160.107 94.3911 160.19 94.34H160.26L160.48 94.23L160.75 94.15H160.83H161.06H161.12H161.42H162.09H162.45H163.45H164.24C164.52 94.15 164.79 94.15 165.06 94.15H165.23L165.88 94.08H166.17L166.7 93.99L167.01 93.94L167.53 93.83L167.83 93.77L168.37 93.63L168.63 93.56C168.89 93.49 169.16 93.41 169.42 93.32C169.672 93.261 169.899 93.1246 170.07 92.93C170.178 92.7412 170.233 92.5272 170.23 92.31C170.35 90.94 170.48 89.58 170.6 88.21C170.8 88.53 171.01 88.85 171.22 89.21C171.354 88.5415 171.612 87.9039 171.98 87.33C172.194 87.8334 172.507 88.289 172.9 88.67C172.923 87.5009 173.404 86.3877 174.24 85.57C174.842 85.1937 175.531 84.98 176.24 84.95C178.58 84.71 181.03 84.82 183.24 83.89C183.876 83.5799 184.457 83.1678 184.96 82.67C185.093 82.494 185.204 82.3026 185.29 82.1C185.506 82.1202 185.724 82.1202 185.94 82.1C186.793 82.0224 187.608 81.7148 188.3 81.21C191.37 78.7 190.57 75.04 190.02 73.28C189.47 71.52 188.73 70.18 187.85 68.08C187.139 66.3959 186.807 64.576 186.878 62.7493C186.949 60.9226 187.42 59.1339 188.26 57.51C188.687 56.3085 189.422 55.2398 190.39 54.41C190.899 54.0223 191.52 53.8124 192.16 53.8124C192.8 53.8124 193.421 54.0223 193.93 54.41C194.229 54.6887 194.429 55.0573 194.5 55.46C194.532 55.9963 194.392 56.5289 194.1 56.98C193.48 58.09 192.55 59.1 192.45 60.36C192.412 60.9959 192.589 61.6261 192.952 62.1499C193.314 62.6738 193.842 63.0611 194.45 63.25C194.287 62.7386 194.229 62.1998 194.279 61.6655C194.329 61.1312 194.486 60.6124 194.74 60.14C195.236 59.2018 195.574 58.1882 195.74 57.14C196.009 56.5482 196.114 55.8946 196.041 55.2484C195.969 54.6022 195.723 53.9877 195.33 53.47L195.36 53.49ZM151.9 68.69C151.921 68.5744 151.951 68.4606 151.99 68.35C151.951 68.4063 151.927 68.4717 151.92 68.54L151.9 68.69ZM178.7 84.53C178.18 84.53 177.7 84.6 177.14 84.65C176.912 86.0544 176.828 87.4785 176.89 88.9L177.48 88.08C177.501 89.3977 177.649 90.7103 177.92 92L178.55 90.88C178.802 92.2353 179.406 93.5008 180.3 94.55C180.287 93.9965 180.333 93.4432 180.44 92.9C180.87 93.4 181.28 93.9 181.68 94.44C181.792 94.5703 181.874 94.724 181.92 94.89C181.938 95.1353 181.878 95.3801 181.75 95.59C180.92 97.3039 180.331 99.1245 180 101C179.988 101.189 179.926 101.372 179.82 101.53C179.701 101.659 179.549 101.753 179.38 101.8C178.731 101.996 178.058 102.097 177.38 102.1C176.695 102.104 176.017 102.237 175.38 102.49C175.066 102.616 174.79 102.82 174.577 103.083C174.363 103.345 174.22 103.657 174.16 103.99C174.135 104.132 174.135 104.278 174.16 104.42C173.959 104.584 173.797 104.792 173.688 105.027C173.579 105.263 173.525 105.52 173.53 105.78C173.675 105.371 173.948 105.02 174.31 104.78C174.4 104.95 174.531 105.094 174.692 105.199C174.853 105.304 175.038 105.366 175.23 105.38C175.171 105.558 175.169 105.75 175.225 105.93C175.28 106.109 175.39 106.266 175.54 106.38C175.417 106.764 175.393 107.174 175.47 107.57C175.579 107.228 175.744 106.907 175.96 106.62C176.484 106.724 177.026 106.686 177.53 106.51C177.537 106.625 177.571 106.738 177.628 106.838C177.685 106.939 177.765 107.025 177.86 107.09C177.83 107.356 177.83 107.624 177.86 107.89C177.86 107.99 177.95 108.12 178.03 108.06C178.051 107.787 178.108 107.518 178.2 107.26C178.473 107.35 178.767 107.35 179.04 107.26C179.624 106.981 180.153 106.598 180.6 106.13C181.132 105.676 181.751 105.335 182.42 105.13C182.684 105.08 182.934 104.97 183.15 104.81C183.36 104.552 183.479 104.232 183.49 103.9C183.788 101.743 184.27 99.6151 184.93 97.54L185.66 98.54C185.71 97.07 186.66 95.69 186.43 94.23C186.21 92.57 184.64 91.31 184.5 89.65C184.882 89.9079 185.305 90.1006 185.75 90.22C185.017 89.3414 184.632 88.2237 184.67 87.08C185.083 87.4739 185.547 87.8103 186.05 88.08C185.27 86.4155 184.989 84.5608 185.24 82.74C184.83 83.0395 184.391 83.2974 183.93 83.51C182.257 84.1449 180.489 84.4899 178.7 84.53ZM167.75 54.37H167.95C168.168 54.3779 168.385 54.4013 168.6 54.44C167.603 55.2708 166.862 56.3662 166.46 57.6C166.84 57.3131 167.304 57.1585 167.78 57.16C167.923 57.1452 168.067 57.1452 168.21 57.16C167.302 58.4065 166.831 59.9182 166.87 61.46C167.276 60.984 167.764 60.5844 168.31 60.28C168.259 60.9902 168.357 61.7032 168.598 62.3732C168.839 63.0432 169.218 63.6552 169.71 64.17C170.162 63.1 170.779 62.1078 171.54 61.23C171.603 62.1088 171.908 62.953 172.42 63.67C172.625 62.9377 172.924 62.2351 173.31 61.58C173.76 62.0054 174.141 62.4979 174.44 63.04C174.867 62.2715 175.342 61.5301 175.86 60.82C176.552 61.6292 177.399 62.2921 178.35 62.77C178.382 61.9103 178.589 61.0662 178.96 60.29C179.657 60.8041 180.416 61.2275 181.22 61.55C180.769 60.4242 180.691 59.183 181 58.01C181.53 58.0288 182.044 58.1988 182.48 58.5C181.876 57.4392 181.533 56.2497 181.48 55.03C181.921 55.2618 182.314 55.5738 182.64 55.95C182.588 54.3653 182.093 52.827 181.21 51.51C181.723 51.6884 182.189 51.9827 182.57 52.37L181.16 48.09C181.374 48.0954 181.584 48.1506 181.773 48.2513C181.963 48.3519 182.126 48.4953 182.25 48.67C182.093 47.8405 181.799 47.043 181.38 46.31H181.46H181.6H181.73L181.92 46.36H182.04L182.22 46.46L182.32 46.51C182.407 46.5645 182.487 46.6282 182.56 46.7C182.271 45.6622 181.695 44.7267 180.9 44C181.307 44.0455 181.705 44.1535 182.08 44.32C181.58 43.4593 180.897 42.7187 180.08 42.15H180.29C180.436 42.1396 180.584 42.1396 180.73 42.15H180.81C180.962 42.1806 181.113 42.2207 181.26 42.27C180.513 41.4651 179.509 40.9454 178.42 40.8C178.811 40.4722 179.258 40.2181 179.74 40.05C179.495 40.0142 179.248 39.9974 179 40H178.78H178.33C178.18 39.99 178.03 39.99 177.88 40H177.64C177.42 40 177.19 40.07 176.97 40.12C176.866 39.5038 176.631 38.9172 176.28 38.4C176.09 38.8 175.9 39.19 175.7 39.59C175.148 39.0165 174.432 38.6286 173.65 38.48C173.7 38.88 173.76 39.28 173.81 39.69C173.661 39.6099 173.508 39.5397 173.35 39.48H173.28L172.83 39.34H172.74L172.27 39.25H172.2C172.04 39.24 171.88 39.24 171.72 39.25H171.36C171.655 39.523 171.876 39.8674 172 40.25C171.854 40.1654 171.704 40.0887 171.55 40.02H171.45L170.99 39.86H170.91L170.47 39.78H170.38C170.217 39.7697 170.053 39.7697 169.89 39.78H169.79C169.617 39.7649 169.443 39.7649 169.27 39.78C169.694 40.0902 170.023 40.5127 170.22 41C170.038 41.0334 169.86 41.0871 169.69 41.16C169.266 41.3822 168.861 41.6398 168.48 41.93L168.27 42.05H168.2L168.07 42.11H167.99H167.87H167.79H167.67H167.59H167.47H166.3H165.97H165.48H165.03H165L164.47 42.16C164.151 42.1914 163.836 42.2551 163.53 42.35C163.304 42.4375 163.111 42.5935 162.979 42.7962C162.846 42.9988 162.78 43.2379 162.79 43.48C162.813 43.9664 162.953 44.4401 163.2 44.86C163.314 45.176 163.547 45.4345 163.85 45.58C163.896 45.5903 163.944 45.5903 163.99 45.58H164.29H164.44C165.179 45.408 165.905 45.1807 166.61 44.9L167 44.78H167.08L167.48 44.68H167.55L167.95 44.61H168.36H168.45H168.81C169.189 44.6407 169.553 44.7693 169.866 44.9832C170.18 45.197 170.433 45.4889 170.6 45.83C170.646 45.947 170.683 46.0673 170.71 46.19C170.3 46.5546 169.778 46.7696 169.23 46.8H169H168.87H168.77H168.64H168.54H168.42H168.31H168.2L167.97 46.72H167.86H167.74H167.64L167.41 46.65C167.272 46.6169 167.131 46.5936 166.99 46.58H166.85H166.57H166.12H165.84H165.73L165.41 46.65L165.05 46.75H164.95L164.68 46.85H164.58L164.23 46.99L163.99 47.09H163.93L163.67 47.18H163.62L163.34 47.25H163.07H162.84C162.483 47.1539 162.145 46.9984 161.84 46.79L161.48 46.6L161.36 46.55L161.09 46.45H160.94L160.7 46.39H160.53H160.28C160.004 46.3857 159.732 46.4458 159.483 46.5656C159.235 46.6854 159.018 46.8615 158.85 47.08C158.913 47.0309 158.98 46.9874 159.05 46.95H159.12L159.26 46.89H159.35H159.49H159.98H160.13H160.23L160.39 46.94H160.47L160.71 47.03C161.281 47.3428 161.884 47.591 162.51 47.77C162.62 47.7799 162.73 47.7799 162.84 47.77H163H163.15H163.25H163.41H163.49L163.69 47.72H163.74L163.98 47.65H164.05L164.23 47.59H164.33L164.48 47.54L164.63 47.48L164.79 47.42L164.94 47.36H165.05L165.19 47.31H165.3H165.44H165.54H165.7H165.79H165.97H166C166.083 47.3002 166.167 47.3002 166.25 47.31H166.52C167.386 47.4316 168.233 47.6635 169.04 48C169.17 48.041 169.304 48.0678 169.44 48.08H169.57H169.85H170.24C170.366 48.0606 170.489 48.0305 170.61 47.99C170.581 48.1197 170.54 48.2468 170.49 48.37C170.416 48.6198 170.27 48.8424 170.07 49.01C169.874 49.1194 169.655 49.1811 169.43 49.19H168.86H168.3H167.49H167.31L166.57 49.09H166.47C166.21 49.09 165.94 48.98 165.68 48.92L165.49 48.86C165.222 48.7918 164.958 48.7083 164.7 48.61L164.52 48.55H164.46H164.33H164.26H164.13H163.67H163.57C163.523 48.5707 163.48 48.5976 163.44 48.63C163.312 48.7748 163.222 48.95 163.18 49.1389C163.138 49.3278 163.145 49.5244 163.2 49.71C163.353 50.7066 163.767 51.6449 164.4 52.43C164.401 52.119 164.469 51.812 164.6 51.53C164.819 51.8286 165.117 52.0606 165.46 52.2L165.58 51.05L166.18 51.63C166.234 51.3836 166.346 51.1538 166.508 50.9605C166.67 50.7672 166.877 50.616 167.11 50.52L167.36 50.45H167.42H167.67H167.95H168.09H168.17L168.3 50.5H168.36L168.55 50.6C168.742 50.7492 168.926 50.9095 169.1 51.08C169.422 51.3665 169.823 51.551 170.25 51.61C170.128 52.1321 169.904 52.625 169.59 53.06C168.93 53.9 167.84 54.31 167.19 55.14H167.77L167.75 54.37Z" fill="#F2D09C"/>
    <path opacity="0.1" d="M153.73 103.33C158.79 111.143 164.943 118.191 172 124.26C190.26 108.54 201.63 87.51 206.61 60.26C195.65 82.5 178.34 101.65 153.73 103.33Z" fill="#1D1D1B"/>
    <path d="M47.13 187.23L41.69 188.43L26.89 133.29L37.29 131L47.13 187.23Z" fill="#3B2B2D"/>
    <path d="M43.29 85.62C42.58 83.45 41.02 81.71 39.78 79.8C39.775 79.8699 39.775 79.9401 39.78 80.01C39.7362 79.775 39.6727 79.5442 39.59 79.32C39.518 79.0366 39.4613 78.7495 39.42 78.46C39.3537 77.8453 39.4395 77.2237 39.67 76.65C40.0916 75.6525 40.7845 74.7934 41.67 74.17C40.6692 74.2505 39.6951 74.5331 38.8065 75.0005C37.9179 75.468 37.1333 76.1108 36.5 76.89C35.9746 77.6326 35.5602 78.4478 35.27 79.31C35.1409 79.648 35.0797 80.0082 35.09 80.37C35.09 80.96 34.99 81.55 35.01 82.14C34.4608 81.6022 34.0283 80.957 33.7393 80.2448C33.4502 79.5325 33.3109 78.7684 33.33 78C33.4333 76.4643 33.8701 74.9696 34.61 73.62C35.94 70.91 37.76 68.44 38.61 65.54C39.1854 63.7956 39.3025 61.9326 38.95 60.13C38.7326 59.2075 38.325 58.3406 37.7533 57.5846C37.1816 56.8287 36.4584 56.2004 35.63 55.74C36.4095 56.7509 36.8284 57.9935 36.82 59.27C36.7324 60.4057 36.3269 61.4938 35.65 62.41C34.0505 64.4313 32.1441 66.1893 30 67.62C29.39 68.08 28.77 68.54 28.18 69.03C29.68 65.72 31.57 62.38 31.6 58.71C31.5444 56.9595 31.1213 55.2402 30.3581 53.6639C29.5949 52.0875 28.5087 50.6893 27.17 49.56C24.79 47.36 21.85 45.72 19.85 43.16C18.85 41.87 17.91 40.28 18.27 38.62C18.5118 37.5561 18.8812 36.5253 19.37 35.55C16.68 37.84 16.37 41.36 17.64 44.37C18.99 47.69 21.78 50.2 23.47 53.37C24.085 54.4011 24.4098 55.5794 24.41 56.78C24.2511 57.9481 23.7967 59.0564 23.09 60C21.77 62 19.96 63.67 18.51 65.6C19.1124 62.8355 18.7599 59.9483 17.51 57.41C16.12 54.92 13.65 53.11 11.27 51.5C13.44 54.57 15.67 58.23 14.13 62.02C13.3156 63.7644 12.3555 65.4369 11.26 67.02C10.2504 68.6207 9.4124 70.3235 8.76001 72.1C8.56001 72.67 8.38001 73.25 8.23001 73.83C6.89001 70.7 4.39001 67.75 0.640015 67.19C6.64001 70.33 4.42001 77.55 3.64001 82.67C2.91022 86.4721 3.36757 90.4067 4.95002 93.94C6.49072 97.069 8.83805 99.7304 11.75 101.65C14.5437 103.504 17.745 104.654 21.08 105C24.3194 105.306 27.5864 104.896 30.65 103.8C36.21 101.86 41.49 97.74 43.26 92.28C43.6365 91.1141 43.8222 89.8951 43.81 88.67C43.7968 88.0624 43.7332 87.457 43.62 86.86C43.56 86.55 43.48 86.23 43.39 85.92C43.39 85.81 43.25 85.64 43.26 85.52C43.2819 85.6894 43.3291 85.8546 43.4 86.01C43.4274 86.1903 43.4813 86.3655 43.56 86.53C43.5355 86.4648 43.5154 86.3979 43.5 86.33L43.29 85.61C42.56 83.37 44 88 43.29 85.62Z" fill="#FFAD3B"/>
    <path d="M4 65.45C3.68328 65.5304 3.34772 65.4846 3.06413 65.3223C2.78054 65.1599 2.57109 64.8938 2.48 64.58C2.34458 64.0892 2.34458 63.5708 2.48 63.08C2.53 62.85 2.59 62.61 2.65 62.38C2.73469 62.1235 2.73469 61.8465 2.65 61.59C2.38 61.09 1.91 60.23 2.46 59.74C2.77 60.25 3.45999 60.28 3.91999 60.66C4.15843 60.8636 4.34724 61.119 4.47201 61.4067C4.59679 61.6944 4.65424 62.0067 4.64 62.32C4.62941 62.6148 4.56854 62.9057 4.46 63.18C4.34504 63.4684 4.21143 63.749 4.06 64.02C3.99 64.15 3.85 64.29 3.86 64.45C3.79251 64.6141 3.76991 64.7932 3.79451 64.9689C3.81911 65.1447 3.89003 65.3107 4 65.45Z" fill="#F39200"/>
    <path d="M8.67998 58.69C6.25998 58.96 4.56998 57.43 4.53998 55.98C4.53998 54.9 5.33998 53.98 5.82998 52.98C5.99666 52.5273 6.03253 52.0367 5.9335 51.5646C5.83447 51.0924 5.60452 50.6576 5.26998 50.31C6.21585 50.3244 7.12481 50.6794 7.82998 51.31C8.14671 51.6021 8.37542 51.977 8.49028 52.3923C8.60515 52.8075 8.60158 53.2467 8.47998 53.66C8.30166 54.2384 8.04601 54.7901 7.71998 55.3C7.54941 55.5916 7.42779 55.9091 7.35998 56.24C7.33025 56.3784 7.33025 56.5216 7.35998 56.66C7.36451 56.7099 7.36451 56.7601 7.35998 56.81C7.35998 56.81 7.43998 57.03 7.35998 56.92C7.50998 57.14 7.52998 57.42 7.66998 57.65C7.94981 58.0477 8.29068 58.3986 8.67998 58.69Z" fill="#FFAD3B"/>
    <path d="M26 42.64C25.6076 42.7465 25.1933 42.7421 24.8031 42.6274C24.413 42.5126 24.0623 42.292 23.79 41.99C23.2948 41.5322 22.9822 40.9105 22.91 40.24C22.9351 40.0542 22.9351 39.8658 22.91 39.68C22.8921 39.3132 22.9292 38.9458 23.02 38.59C23.2214 37.656 23.5583 36.7565 24.02 35.92V35.98C24.3124 35.3404 24.5305 34.6693 24.67 33.98C24.8634 32.7914 24.7674 31.5736 24.39 30.43C27.12 30.71 28.29 33.72 27.87 35.96C27.6843 36.8076 27.3454 37.6141 26.87 38.34C26.4238 38.9703 26.0356 39.6397 25.71 40.34C25.7157 40.3136 25.7157 40.2864 25.71 40.26C25.5573 40.572 25.4721 40.9128 25.46 41.26C25.4567 41.7722 25.65 42.2661 26 42.64Z" fill="#FFAD3B"/>
    <path d="M35.17 51.9C34.3399 51.9219 33.5166 51.7436 32.77 51.38C32.2032 51.1102 31.717 50.6964 31.36 50.18C31.1484 49.7897 30.9807 49.3772 30.86 48.95C30.6985 48.0635 30.8137 47.1488 31.19 46.33C31.8546 45.1052 32.6101 43.9319 33.45 42.82V42.92C33.4616 42.7649 33.4988 42.6129 33.56 42.47C33.6232 42.2658 33.6569 42.0537 33.66 41.84C33.6343 41.385 33.4379 40.9565 33.11 40.64C33.5189 40.5259 33.9528 40.5384 34.3545 40.6758C34.7562 40.8133 35.1068 41.0693 35.36 41.41C35.6926 41.8258 35.9229 42.3139 36.0323 42.835C36.1417 43.356 36.1272 43.8955 35.99 44.41C35.7014 45.4261 35.256 46.3911 34.67 47.27C34.4419 47.676 34.2414 48.097 34.07 48.53C34 48.69 33.94 48.67 33.95 48.85V49.19L33.89 49.06C33.9041 49.1561 33.9041 49.2538 33.89 49.35C33.9692 49.6995 34.0971 50.0361 34.27 50.35C34.61 50.9 34.94 51.38 35.17 51.9Z" fill="#FFAD3B"/>
    <path d="M40.92 58.16C40.6505 58.1657 40.3829 58.1142 40.1347 58.0091C39.8865 57.904 39.6634 57.7475 39.48 57.55C39.2645 57.3124 39.0979 57.0347 38.9898 56.7327C38.8817 56.4307 38.8342 56.1103 38.85 55.79C39.0366 54.9788 39.3362 54.1978 39.74 53.47C39.8307 52.9171 39.7431 52.3498 39.49 51.85C39.8231 51.8842 40.1404 52.0096 40.4068 52.2125C40.6732 52.4154 40.8785 52.6879 41 53C41.2008 53.4531 41.2397 53.9616 41.11 54.44C40.97 55.01 40.61 55.51 40.49 56.08C40.4001 56.4648 40.4001 56.8652 40.49 57.25C40.5897 57.5721 40.7344 57.8785 40.92 58.16Z" fill="#FFAD3B"/>
    <path d="M41.11 71.08C40.9175 71.0098 40.7491 70.8857 40.625 70.7227C40.501 70.5596 40.4263 70.3643 40.41 70.16C40.3525 69.8376 40.4091 69.5052 40.57 69.22C40.57 69.16 40.67 68.98 40.72 68.88C40.8139 68.715 40.9209 68.5578 41.04 68.41C41.2 68.19 41.35 67.95 41.52 67.73V67.78C41.5957 67.6676 41.6499 67.5421 41.68 67.41C41.7258 67.1372 41.6726 66.857 41.53 66.62C41.29 66.11 40.99 65.27 41.6 64.86C41.71 65.46 42.37 65.7 42.78 66.11C43.0342 66.3451 43.217 66.6472 43.3072 66.9815C43.3974 67.3159 43.3914 67.6689 43.29 68C43.1941 68.2784 43.0521 68.5386 42.87 68.77C42.6794 69.0172 42.4613 69.242 42.22 69.44C42.0029 69.573 41.8074 69.7382 41.64 69.93C41.5011 70.0518 41.3769 70.1894 41.27 70.34C41.1382 70.5629 41.0821 70.8225 41.11 71.08Z" fill="#FFAD3B"/>
    <path d="M12.67 47.11C11.6904 47.1531 10.718 46.9247 9.86003 46.45C9.37956 46.1964 8.94923 45.8576 8.59003 45.45C8.42003 45.25 8.06003 44.84 8.05003 44.63C8.01831 44.4983 7.97132 44.3708 7.91003 44.25C7.78562 43.9308 7.71793 43.5924 7.71003 43.25C7.6774 42.3835 7.85586 41.5222 8.23003 40.74C8.74556 39.717 9.33723 38.7343 10 37.8C10.3072 37.356 10.5718 36.8838 10.79 36.39C10.79 36.39 10.88 35.93 10.93 36.14C10.97 35.7209 10.97 35.299 10.93 34.88C10.7997 34.2816 10.4409 33.7578 9.93003 33.42C10.58 33.2717 11.2563 33.2854 11.8998 33.4598C12.5432 33.6341 13.1339 33.9639 13.62 34.42C14.136 34.878 14.4874 35.4929 14.62 36.17C14.7651 36.8666 14.7341 37.5883 14.53 38.27C14 40.27 12.12 42.02 11.74 44.03C11.74 44.03 11.74 43.96 11.74 43.93C11.6162 45.0713 11.9507 46.2152 12.67 47.11Z" fill="#FFAD3B"/>
    <path d="M18.25 33.4C17.8938 33.389 17.5436 33.3057 17.2207 33.1552C16.8977 33.0047 16.6087 32.7901 16.3711 32.5245C16.1336 32.2589 15.9525 31.9479 15.8389 31.6101C15.7252 31.2724 15.6814 30.9152 15.71 30.56C15.8316 29.6335 16.2368 28.7672 16.87 28.08C17.2815 27.6518 17.6194 27.1584 17.87 26.62C17.8653 26.6397 17.8653 26.6603 17.87 26.68C17.9149 26.288 17.9149 25.892 17.87 25.5C17.7775 25.1454 17.629 24.8078 17.43 24.5C17.7841 24.5019 18.1341 24.5764 18.4583 24.7188C18.7825 24.8613 19.074 25.0688 19.3149 25.3284C19.5558 25.588 19.7408 25.8942 19.8587 26.2282C19.9765 26.5622 20.0246 26.9167 20 27.27C19.9212 28.1358 19.5713 28.9547 19 29.61C18.71 29.97 18.41 30.31 18.15 30.69C18.0158 30.8782 17.9237 31.0931 17.88 31.32V31.24C17.7435 31.9811 17.8746 32.7466 18.25 33.4Z" fill="#FFAD3B"/>
    <path d="M34 94.22C33.4821 93.0426 32.8095 91.9396 32 90.94C32.0049 90.9798 32.0049 91.0201 32 91.06C31.9699 90.9282 31.9332 90.798 31.89 90.67C31.8503 90.512 31.8202 90.3517 31.8 90.19C31.7638 89.8502 31.8119 89.5068 31.94 89.19C32.1829 88.6237 32.5817 88.1382 33.09 87.79C32.5268 87.8356 31.9788 87.9947 31.4787 88.2576C30.9786 88.5206 30.5368 88.8819 30.18 89.32C29.8842 89.7384 29.6486 90.1961 29.48 90.68C29.4105 90.872 29.3799 91.076 29.39 91.28C29.39 91.61 29.33 91.94 29.39 92.28C29.0717 91.9794 28.8186 91.6166 28.6466 91.214C28.4745 90.8114 28.3872 90.3778 28.39 89.94C28.4504 89.0746 28.696 88.2323 29.11 87.47C29.9941 86.0219 30.7503 84.4994 31.37 82.92C31.6886 81.9352 31.7506 80.8854 31.55 79.87C31.4275 79.3521 31.199 78.8652 30.8789 78.4401C30.5587 78.0149 30.1539 77.6608 29.69 77.4C30.1322 77.9716 30.3652 78.6775 30.35 79.4C30.3051 80.0396 30.0797 80.6533 29.7 81.17C28.7914 82.3128 27.7081 83.305 26.49 84.11C26.15 84.37 25.8 84.63 25.49 84.9C26.33 83.04 27.4 81.16 27.41 79.09C27.381 78.1046 27.1442 77.1365 26.7151 76.249C26.286 75.3615 25.6743 74.5747 24.92 73.94C23.58 72.7 21.92 71.77 20.79 70.33C20.4682 69.9935 20.2229 69.5914 20.0711 69.1512C19.9192 68.7111 19.8642 68.2433 19.91 67.78C20.0414 67.179 20.2498 66.5976 20.53 66.05C19.8422 66.6612 19.3724 67.4801 19.1919 68.3824C19.0115 69.2847 19.1302 70.2212 19.53 71.05C20.29 72.93 21.86 74.34 22.82 76.11C23.1945 76.6752 23.3772 77.3459 23.3412 78.023C23.3052 78.7001 23.0523 79.3476 22.62 79.87C21.88 81.01 20.86 81.94 20.05 83.03C20.3903 81.4732 20.1892 79.847 19.48 78.42C18.6026 77.0242 17.4108 75.853 16 75C17.22 76.73 18.47 78.79 17.61 80.93C17.1562 81.9117 16.6175 82.852 16 83.74C15.4329 84.6423 14.9604 85.6007 14.59 86.6C14.48 86.92 14.38 87.25 14.29 87.6C13.9612 86.6557 13.3931 85.8129 12.6412 85.1539C11.8892 84.4948 10.9792 84.0421 10 83.84C13.36 85.61 12.13 89.67 11.69 92.56C11.2716 94.6979 11.5267 96.913 12.42 98.9C13.2904 100.66 14.612 102.158 16.25 103.24C17.8257 104.286 19.6297 104.937 21.51 105.14C23.3347 105.307 25.1739 105.075 26.9 104.46C30 103.37 33 101.05 34 98C34.2084 97.3539 34.3131 96.6788 34.31 96C34.2932 95.4762 34.2161 94.9561 34.08 94.45C34.043 94.3773 34.0161 94.2999 34 94.22C34.016 94.316 34.0429 94.41 34.08 94.5C34.0979 94.6 34.1281 94.6974 34.17 94.79C34.17 94.79 34.17 94.71 34.17 94.68L34.05 94.28C33.62 93 34.42 95.54 34 94.22Z" fill="#F2D09C"/>
    <path d="M26.13 99.26C24.34 102.13 27.65 104.26 23.13 105.31C21.33 105.72 15.89 103.6 17.56 99.66C19.86 95.47 22.05 95.24 18.85 87.42C20.21 88.45 29 94.66 26.13 99.26Z" fill="white"/>
    <path d="M41.2 123.28L20.09 127.94L9.35999 105.35L41.4 98.27L41.2 123.28Z" fill="#3B2B2D"/>
    <path d="M44.61 97.56C44.7649 98.268 44.633 99.0085 44.2432 99.6195C43.8534 100.231 43.2374 100.662 42.53 100.82L9.43999 108.13C9.08933 108.208 8.7267 108.216 8.3729 108.154C8.0191 108.091 7.68108 107.96 7.37822 107.767C7.07537 107.573 6.81363 107.322 6.60801 107.028C6.40239 106.733 6.25694 106.401 6.17999 106.05C6.02505 105.342 6.15693 104.601 6.54677 103.99C6.9366 103.379 7.55262 102.948 8.25999 102.79L41.34 95.48C42.0492 95.3248 42.7911 95.4564 43.4036 95.8461C44.0162 96.2357 44.4499 96.8518 44.61 97.56Z" fill="#1E1717"/>
    <path d="M44.48 106.22C44.5506 106.535 44.5583 106.861 44.5024 107.18C44.4466 107.498 44.3283 107.802 44.1545 108.074C43.9807 108.346 43.7548 108.582 43.4897 108.766C43.2246 108.951 42.9257 109.081 42.61 109.15L12.88 115.72C12.2506 115.848 11.5962 115.724 11.0576 115.374C10.5189 115.024 10.1391 114.477 9.99997 113.85C9.93077 113.535 9.92427 113.21 9.98082 112.893C10.0374 112.576 10.1559 112.273 10.3296 112.002C10.5033 111.731 10.7287 111.497 10.993 111.313C11.2573 111.129 11.5553 110.999 11.87 110.93L41.6 104.36C41.9145 104.289 42.2399 104.281 42.5576 104.336C42.8753 104.392 43.1789 104.509 43.4511 104.682C43.7233 104.855 43.9587 105.079 44.1438 105.343C44.329 105.607 44.4602 105.905 44.53 106.22H44.48Z" fill="#1E1717"/>
    <path d="M33.64 138.65H33.43C32.0576 138.954 30.6389 138.984 29.2549 138.739C27.8708 138.494 26.5486 137.979 25.3636 137.223C24.1787 136.468 23.1543 135.486 22.3489 134.334C21.5436 133.182 20.973 131.882 20.67 130.51L20.09 127.89L41.2 123.23L41.78 125.85C42.0909 127.225 42.1267 128.648 41.8854 130.037C41.644 131.427 41.1302 132.754 40.3736 133.944C39.617 135.134 38.6326 136.162 37.4769 136.97C36.3213 137.777 35.0173 138.348 33.64 138.65Z" fill="#1E1717"/>
    <path d="M300.08 187.23L305.52 188.43L320.32 133.29L309.92 131L300.08 187.23Z" fill="#3B2B2D"/>
    <path d="M303.92 85.62C304.62 83.45 306.19 81.71 307.43 79.8C307.425 79.8699 307.425 79.9401 307.43 80.01C307.475 79.7763 307.535 79.5458 307.61 79.32C307.692 79.0389 307.749 78.7511 307.78 78.46C307.855 77.8461 307.772 77.2231 307.54 76.65C307.115 75.6545 306.423 74.7961 305.54 74.17C306.541 74.2505 307.515 74.5331 308.404 75.0005C309.292 75.468 310.077 76.1108 310.71 76.89C311.232 77.6349 311.646 78.4496 311.94 79.31C312.063 79.6496 312.124 80.0087 312.12 80.37C312.12 80.96 312.22 81.55 312.2 82.14C312.761 81.6062 313.206 80.9618 313.505 80.2475C313.805 79.5331 313.953 78.7645 313.94 77.99C313.837 76.4543 313.4 74.9596 312.66 73.61C311.33 70.9 309.51 68.43 308.66 65.53C308.085 63.7856 307.968 61.9226 308.32 60.12C308.537 59.1975 308.945 58.3306 309.517 57.5746C310.088 56.8187 310.812 56.1904 311.64 55.73C310.861 56.7409 310.442 57.9835 310.45 59.26C310.538 60.3957 310.943 61.4838 311.62 62.4C313.06 64.5 315.26 66.07 317.31 67.62C317.92 68.08 318.54 68.54 319.13 69.03C317.63 65.72 315.74 62.38 315.71 58.71C315.766 56.9606 316.189 55.2424 316.95 53.6664C317.711 52.0904 318.795 50.6915 320.13 49.56C322.52 47.36 325.46 45.72 327.46 43.16C328.46 41.87 329.4 40.28 329.04 38.62C328.798 37.5561 328.429 36.5253 327.94 35.55C330.63 37.84 330.89 41.36 329.67 44.37C328.32 47.69 325.53 50.2 323.83 53.37C323.223 54.4039 322.902 55.5809 322.9 56.78C323.037 57.9653 323.478 59.0951 324.18 60.06C325.49 62.06 327.31 63.73 328.76 65.66C328.152 62.8957 328.505 60.0067 329.76 57.47C331.14 54.98 333.61 53.17 336 51.56C333.83 54.63 331.6 58.29 333.14 62.08C333.954 63.8244 334.915 65.4969 336.01 67.08C337.02 68.6807 337.858 70.3835 338.51 72.16C338.71 72.73 338.89 73.31 339.04 73.89C340.38 70.76 342.88 67.81 346.63 67.25C340.63 70.39 342.85 77.61 343.63 82.73C344.36 86.5321 343.902 90.4667 342.32 94C340.779 97.129 338.432 99.7904 335.52 101.71C332.724 103.569 329.519 104.722 326.18 105.07C322.941 105.376 319.674 104.966 316.61 103.87C311.05 101.93 305.76 97.81 304 92.35C303.624 91.1841 303.438 89.9651 303.45 88.74C303.458 88.1321 303.522 87.5263 303.64 86.93C303.7 86.62 303.78 86.3 303.87 85.99C303.928 85.862 303.972 85.7278 304 85.59C303.973 85.7584 303.926 85.9229 303.86 86.08C303.833 86.2603 303.779 86.4355 303.7 86.6C303.726 86.536 303.743 86.4687 303.75 86.4C303.82 86.16 303.9 85.92 303.97 85.68C304.65 83.37 303.22 88 303.92 85.62Z" fill="#FFAD3B"/>
    <path d="M343.18 65.45C343.497 65.5304 343.832 65.4846 344.116 65.3223C344.399 65.1599 344.609 64.8938 344.7 64.58C344.835 64.0892 344.835 63.5708 344.7 63.08C344.64 62.85 344.59 62.61 344.52 62.38C344.435 62.1235 344.435 61.8465 344.52 61.59C344.79 61.09 345.26 60.23 344.71 59.74C344.4 60.25 343.71 60.28 343.25 60.66C343.012 60.8636 342.823 61.119 342.698 61.4067C342.573 61.6944 342.516 62.0067 342.53 62.32C342.541 62.6148 342.601 62.9057 342.71 63.18C342.825 63.4684 342.959 63.749 343.11 64.02C343.18 64.15 343.32 64.29 343.31 64.45C343.379 64.6132 343.403 64.7919 343.38 64.9676C343.357 65.1433 343.288 65.3098 343.18 65.45Z" fill="#F39200"/>
    <path d="M338.53 58.69C340.94 58.96 342.64 57.43 342.67 55.98C342.67 54.9 341.87 53.98 341.38 52.98C341.213 52.528 341.176 52.0383 341.274 51.5664C341.371 51.0945 341.598 50.6593 341.93 50.31C340.987 50.3241 340.081 50.6793 339.38 51.31C339.063 51.6021 338.835 51.977 338.72 52.3923C338.605 52.8075 338.608 53.2467 338.73 53.66C338.908 54.2384 339.164 54.7901 339.49 55.3C339.661 55.5916 339.782 55.9091 339.85 56.24C339.88 56.3784 339.88 56.5216 339.85 56.66V56.81C339.85 56.81 339.77 57.03 339.85 56.92C339.7 57.14 339.68 57.42 339.54 57.65C339.26 58.0477 338.919 58.3986 338.53 58.69Z" fill="#FFAD3B"/>
    <path d="M321.17 42.64C321.562 42.7465 321.977 42.7421 322.367 42.6274C322.757 42.5126 323.108 42.292 323.38 41.99C323.75 41.61 324.38 40.76 324.25 40.24C324.25 40.0517 324.27 39.8639 324.31 39.68C324.328 39.3132 324.291 38.9458 324.2 38.59C323.999 37.656 323.662 36.7565 323.2 35.92V35.98C322.903 35.3422 322.685 34.6706 322.55 33.98C322.357 32.7914 322.453 31.5736 322.83 30.43C320.1 30.71 318.93 33.72 319.35 35.96C319.536 36.8076 319.875 37.6141 320.35 38.34C320.789 38.975 321.177 39.6438 321.51 40.34C321.504 40.3136 321.504 40.2864 321.51 40.26C321.66 40.5727 321.741 40.9135 321.75 41.26C321.743 41.7777 321.535 42.2724 321.17 42.64Z" fill="#FFAD3B"/>
    <path d="M312 51.9C312.83 51.9219 313.653 51.7436 314.4 51.38C314.967 51.1102 315.453 50.6964 315.81 50.18C316.022 49.7897 316.189 49.3772 316.31 48.95C316.466 48.0633 316.351 47.1502 315.98 46.33C315.315 45.1052 314.56 43.9319 313.72 42.82C313.725 42.8531 313.725 42.8869 313.72 42.92C313.717 42.7649 313.683 42.612 313.62 42.47C313.557 42.2658 313.523 42.0537 313.52 41.84C313.546 41.385 313.742 40.9565 314.07 40.64C313.661 40.5259 313.227 40.5384 312.826 40.6758C312.424 40.8133 312.073 41.0693 311.82 41.41C311.487 41.8258 311.257 42.3139 311.148 42.835C311.038 43.356 311.053 43.8955 311.19 44.41C311.479 45.4242 311.921 46.3885 312.5 47.27C312.731 47.6759 312.935 48.0968 313.11 48.53C313.17 48.69 313.24 48.67 313.23 48.85C313.22 49.03 313.23 49.08 313.23 49.19C313.23 49.3 313.23 49.1 313.23 49.06C313.22 49.1564 313.22 49.2536 313.23 49.35C313.151 49.6995 313.023 50.0361 312.85 50.35C312.6 50.9 312.27 51.38 312 51.9Z" fill="#FFAD3B"/>
    <path d="M306.29 58.16C306.559 58.1657 306.827 58.1142 307.075 58.0091C307.323 57.904 307.547 57.7475 307.73 57.55C307.946 57.3124 308.112 57.0347 308.22 56.7327C308.328 56.4307 308.376 56.1103 308.36 55.79C308.169 54.9802 307.87 54.1998 307.47 53.47C307.445 53.2072 307.445 52.9427 307.47 52.68C307.525 52.3931 307.616 52.1143 307.74 51.85C307.417 51.8868 307.11 52.0091 306.849 52.2042C306.589 52.3993 306.386 52.6602 306.26 52.96C306.067 53.4154 306.032 53.9222 306.16 54.4C306.3 54.97 306.66 55.47 306.78 56.04C306.87 56.4248 306.87 56.8252 306.78 57.21C306.665 57.5494 306.5 57.8697 306.29 58.16Z" fill="#FFAD3B"/>
    <path d="M306.09 71.08C306.284 71.0113 306.455 70.888 306.581 70.7248C306.707 70.5616 306.783 70.3654 306.8 70.16C306.853 69.8376 306.796 69.5068 306.64 69.22C306.583 69.11 306.532 68.9965 306.49 68.88C306.393 68.7172 306.286 68.5603 306.17 68.41C306.01 68.19 305.86 67.95 305.69 67.73V67.78C305.614 67.6676 305.56 67.5421 305.53 67.41C305.484 67.1372 305.537 66.857 305.68 66.62C305.91 66.11 306.22 65.27 305.61 64.86C305.5 65.46 304.84 65.7 304.43 66.11C304.176 66.3451 303.993 66.6472 303.903 66.9815C303.813 67.3159 303.819 67.6689 303.92 68C304.016 68.2784 304.158 68.5386 304.34 68.77C304.528 69.0196 304.746 69.2447 304.99 69.44C305.204 69.5732 305.396 69.7384 305.56 69.93C305.696 70.0544 305.82 70.1917 305.93 70.34C306.066 70.5612 306.122 70.8223 306.09 71.08Z" fill="#FFAD3B"/>
    <path d="M334.54 47.11C335.519 47.1521 336.492 46.9238 337.35 46.45C337.83 46.1964 338.261 45.8576 338.62 45.45C338.853 45.2156 339.037 44.9367 339.16 44.63C339.187 44.497 339.234 44.3688 339.3 44.25C339.424 43.9309 339.492 43.5924 339.5 43.25C339.528 42.384 339.35 41.5237 338.98 40.74C338.471 39.7143 337.886 38.7281 337.23 37.79C336.923 37.346 336.658 36.8739 336.44 36.38C336.44 36.38 336.35 35.92 336.3 36.13C336.265 35.7107 336.265 35.2893 336.3 34.87C336.431 34.2721 336.79 33.7485 337.3 33.41C336.65 33.2618 335.974 33.2754 335.33 33.4498C334.687 33.6241 334.096 33.9539 333.61 34.41C333.094 34.8681 332.743 35.4829 332.61 36.16C332.465 36.8566 332.496 37.5784 332.7 38.26C333.23 40.26 335.11 42.01 335.49 44.02C335.49 44.02 335.49 43.95 335.49 43.92C335.55 44.4881 335.497 45.0624 335.334 45.6099C335.171 46.1574 334.901 46.6672 334.54 47.11Z" fill="#FFAD3B"/>
    <path d="M329 33.4C329.356 33.389 329.706 33.3057 330.029 33.1552C330.352 33.0047 330.641 32.7901 330.879 32.5245C331.116 32.2589 331.297 31.9478 331.411 31.6101C331.525 31.2724 331.569 30.9152 331.54 30.56C331.418 29.6335 331.013 28.7672 330.38 28.08C329.969 27.6517 329.631 27.1584 329.38 26.62C329.38 26.62 329.38 26.62 329.38 26.68C329.335 26.2879 329.335 25.892 329.38 25.5C329.472 25.1453 329.621 24.8078 329.82 24.5C329.463 24.4952 329.11 24.564 328.781 24.7022C328.452 24.8405 328.156 25.045 327.91 25.3032C327.664 25.5614 327.474 25.8675 327.352 26.2025C327.23 26.5375 327.178 26.8941 327.2 27.25C327.279 28.1158 327.629 28.9347 328.2 29.59C328.49 29.95 328.79 30.29 329.04 30.67C329.182 30.8535 329.275 31.0704 329.31 31.3C329.314 31.2735 329.314 31.2465 329.31 31.22C329.464 31.9606 329.355 32.7318 329 33.4Z" fill="#FFAD3B"/>
    <path d="M313.18 94.22C313.701 93.0444 314.374 91.9418 315.18 90.94V91.06C315.202 90.9272 315.235 90.7967 315.28 90.67C315.328 90.5133 315.361 90.3526 315.38 90.19C315.416 89.8502 315.368 89.5067 315.24 89.19C314.997 88.6237 314.598 88.1382 314.09 87.79C314.652 87.8331 315.199 87.9891 315.699 88.2485C316.199 88.508 316.641 88.8656 317 89.3C317.296 89.7164 317.529 90.1748 317.69 90.66C317.763 90.8514 317.797 91.0553 317.79 91.26C317.79 91.59 317.85 91.92 317.84 92.26C318.158 91.9594 318.411 91.5966 318.583 91.194C318.755 90.7914 318.843 90.3578 318.84 89.92C318.78 89.0546 318.534 88.2123 318.12 87.45C317.236 86.0018 316.48 84.4794 315.86 82.9C315.538 81.9161 315.473 80.8662 315.67 79.85C315.795 79.3317 316.025 78.8447 316.347 78.4197C316.669 77.9946 317.075 77.6407 317.54 77.38C317.099 77.9529 316.863 78.6571 316.87 79.38C316.923 80.0194 317.151 80.6319 317.53 81.15C318.439 82.2928 319.522 83.285 320.74 84.09C321.08 84.35 321.43 84.61 321.74 84.88C320.9 83.02 319.83 81.14 319.82 79.07C319.849 78.0846 320.086 77.1165 320.515 76.229C320.944 75.3415 321.556 74.5547 322.31 73.92C323.65 72.68 325.31 71.75 326.43 70.31C326.755 69.9755 327.003 69.574 327.157 69.1335C327.311 68.693 327.367 68.2242 327.32 67.76C327.189 67.159 326.98 66.5776 326.7 66.03C327.385 66.6431 327.853 67.4618 328.033 68.3633C328.213 69.2649 328.097 70.2005 327.7 71.03C326.94 72.91 325.36 74.32 324.41 76.09C324.061 76.6689 323.881 77.334 323.89 78.01C323.961 78.6766 324.21 79.312 324.61 79.85C325.35 80.99 326.37 81.92 327.18 83.01C326.84 81.4532 327.041 79.827 327.75 78.4C328.647 77.0335 329.848 75.8937 331.26 75.07C330.04 76.8 328.78 78.86 329.65 81C330.108 81.9752 330.65 82.9087 331.27 83.79C331.837 84.6923 332.31 85.6507 332.68 86.65C332.79 86.97 332.89 87.3 332.97 87.65C333.303 86.7122 333.872 85.8757 334.621 85.2209C335.371 84.566 336.276 84.1146 337.25 83.91C333.89 85.68 335.12 89.74 335.56 92.63C335.97 94.7692 335.712 96.9827 334.82 98.97C333.956 100.731 332.638 102.23 331 103.31C329.424 104.356 327.62 105.007 325.74 105.21C323.915 105.377 322.076 105.145 320.35 104.53C317.22 103.44 314.24 101.12 313.25 98.04C313.042 97.3939 312.937 96.7188 312.94 96.04C312.945 95.7044 312.978 95.3698 313.04 95.04C313.04 94.86 313.12 94.69 313.17 94.51C313.207 94.4373 313.234 94.3599 313.25 94.28C313.234 94.376 313.207 94.47 313.17 94.56C313.152 94.66 313.122 94.7574 313.08 94.85C313.08 94.85 313.08 94.77 313.08 94.74L313.2 94.34C313.59 93 312.78 95.54 313.18 94.22Z" fill="#F2D09C"/>
    <path d="M321.08 99.26C322.87 102.13 319.56 104.26 324.13 105.31C325.92 105.72 331.37 103.6 329.7 99.66C327.39 95.47 325.21 95.24 328.41 87.42C327 88.45 318.23 94.66 321.08 99.26Z" fill="white"/>
    <path d="M306.01 123.28L327.12 127.94L337.85 105.35L305.81 98.27L306.01 123.28Z" fill="#3B2B2D"/>
    <path d="M302.6 97.56C302.445 98.268 302.577 99.0085 302.967 99.6195C303.357 100.231 303.973 100.662 304.68 100.82L337.77 108.13C338.121 108.208 338.483 108.216 338.837 108.154C339.191 108.091 339.529 107.96 339.832 107.767C340.135 107.573 340.396 107.322 340.602 107.028C340.808 106.733 340.953 106.401 341.03 106.05C341.182 105.342 341.049 104.603 340.66 103.993C340.27 103.382 339.656 102.95 338.95 102.79L305.86 95.48C305.152 95.3278 304.413 95.4608 303.803 95.8502C303.192 96.2396 302.76 96.854 302.6 97.56Z" fill="#1E1717"/>
    <path d="M302.73 106.22C302.659 106.535 302.652 106.861 302.708 107.18C302.763 107.498 302.882 107.802 303.055 108.074C303.229 108.346 303.455 108.582 303.72 108.766C303.985 108.951 304.284 109.081 304.6 109.15L334.33 115.72C334.645 115.791 334.971 115.798 335.29 115.742C335.608 115.687 335.912 115.568 336.184 115.395C336.456 115.221 336.692 114.995 336.876 114.73C337.061 114.465 337.191 114.166 337.26 113.85C337.329 113.535 337.336 113.21 337.279 112.893C337.223 112.576 337.104 112.273 336.93 112.002C336.757 111.731 336.531 111.497 336.267 111.313C336.003 111.129 335.705 110.999 335.39 110.93L305.66 104.36C305.345 104.289 305.02 104.281 304.702 104.336C304.385 104.392 304.081 104.509 303.809 104.682C303.537 104.855 303.301 105.079 303.116 105.343C302.931 105.607 302.8 105.905 302.73 106.22Z" fill="#1E1717"/>
    <path d="M313.57 138.65H313.78C315.152 138.954 316.571 138.984 317.955 138.739C319.339 138.494 320.661 137.979 321.846 137.223C323.031 136.468 324.056 135.486 324.861 134.334C325.666 133.182 326.237 131.882 326.54 130.51L327.12 127.89L306 123.28L305.42 125.9C305.117 127.272 305.087 128.691 305.332 130.075C305.578 131.459 306.094 132.781 306.851 133.965C307.608 135.149 308.591 136.173 309.744 136.977C310.897 137.781 312.197 138.349 313.57 138.65Z" fill="#1E1717"/>
</svg>
