<svg width="130" height="167" viewBox="0 0 130 167" fill="none" xmlns="http://www.w3.org/2000/svg">
    <path d="M49.596 32.7845C53.5555 38.9029 49.1347 39.1845 35.1289 39.3893L0.530884 39.7349V153.655C0.530884 157.05 1.88093 160.305 4.28404 162.706C6.68714 165.106 9.94645 166.455 13.345 166.455H129.953L129.607 131.895C129.466 117.904 129.12 113.488 122.995 117.444C119.225 119.759 114.888 120.99 110.463 121.002C107.927 121.088 105.4 120.667 103.029 119.763C100.659 118.859 98.4936 117.491 96.6604 115.739C94.8272 113.987 93.3633 111.886 92.3548 109.561C91.3463 107.235 90.8135 104.731 90.7879 102.197C90.7622 99.6629 91.2442 97.149 92.2055 94.8036C93.1667 92.4581 94.5878 90.3283 96.3852 88.5396C98.1826 86.7508 100.32 85.3391 102.672 84.3876C105.023 83.4361 107.541 82.9639 110.078 82.9989C114.501 82.9224 118.86 84.065 122.675 86.3013C128.877 90.1413 129.082 85.7125 128.992 71.7093L128.646 38.4293L97.7897 38.7493H95.355C81.3364 38.8901 76.9156 38.6341 80.747 32.4389C82.9924 28.6343 84.1451 24.2853 84.0786 19.8693C84.1124 17.3353 83.6386 14.8202 82.6851 12.4719C81.7315 10.1235 80.3175 7.98931 78.5262 6.19481C76.7349 4.4003 74.6024 2.98172 72.2543 2.02248C69.9061 1.06325 67.3896 0.582732 64.8527 0.60919C62.3159 0.635649 59.81 1.16855 57.4824 2.17655C55.1548 3.18456 53.0524 4.64731 51.299 6.47878C49.5456 8.31025 48.1765 10.4735 47.2723 12.8412C46.368 15.2089 45.9469 17.7334 46.0337 20.2661C46.0449 24.6869 47.2776 29.0188 49.596 32.7845Z" fill="white"/>
    <path d="M49.596 32.7845C53.5555 38.9029 49.1347 39.1845 35.1289 39.3893L0.530884 39.7349V153.655C0.530884 157.05 1.88093 160.305 4.28404 162.706C6.68714 165.106 9.94645 166.455 13.345 166.455H129.953L129.607 131.895C129.466 117.904 129.12 113.488 122.995 117.444C119.225 119.759 114.888 120.99 110.463 121.002C107.927 121.088 105.4 120.667 103.029 119.763C100.659 118.859 98.4936 117.491 96.6604 115.739C94.8272 113.987 93.3633 111.886 92.3548 109.561C91.3463 107.235 90.8135 104.731 90.7879 102.197C90.7622 99.6629 91.2442 97.149 92.2055 94.8036C93.1667 92.4581 94.5878 90.3283 96.3852 88.5396C98.1826 86.7508 100.32 85.3391 102.672 84.3876C105.023 83.4361 107.541 82.9639 110.078 82.9989C114.501 82.9224 118.86 84.065 122.675 86.3013C128.877 90.1413 129.082 85.7125 128.992 71.7093L128.646 38.4293L97.7897 38.7493H95.355C81.3364 38.8901 76.9156 38.6341 80.747 32.4389C82.9924 28.6343 84.1451 24.2853 84.0786 19.8693C84.1124 17.3353 83.6386 14.8202 82.6851 12.4719C81.7315 10.1235 80.3175 7.98931 78.5262 6.19481C76.7349 4.4003 74.6024 2.98172 72.2543 2.02248C69.9061 1.06325 67.3896 0.582732 64.8527 0.60919C62.3159 0.635649 59.81 1.16855 57.4824 2.17655C55.1548 3.18456 53.0524 4.64731 51.299 6.47878C49.5456 8.31025 48.1765 10.4735 47.2723 12.8412C46.368 15.2089 45.9469 17.7334 46.0337 20.2661C46.0449 24.6869 47.2776 29.0188 49.596 32.7845Z" fill="url(#paint0_linear_224_684)"/>
    <mask id="mask0_224_684" style="mask-type:alpha" maskUnits="userSpaceOnUse" x="0" y="0" width="130" height="167">
        <path d="M49.596 32.7845C53.5555 38.9029 49.1347 39.1845 35.1289 39.3893L0.530884 39.7349V153.655C0.530884 157.05 1.88093 160.305 4.28404 162.706C6.68714 165.106 9.94645 166.455 13.345 166.455H129.953L129.607 131.895C129.466 117.904 129.12 113.488 122.995 117.444C119.225 119.759 114.888 120.99 110.463 121.002C107.927 121.088 105.4 120.667 103.029 119.763C100.659 118.859 98.4936 117.491 96.6604 115.739C94.8272 113.987 93.3633 111.886 92.3548 109.561C91.3463 107.235 90.8135 104.731 90.7879 102.197C90.7622 99.6629 91.2442 97.149 92.2055 94.8036C93.1667 92.4581 94.5878 90.3283 96.3852 88.5396C98.1826 86.7508 100.32 85.3391 102.672 84.3876C105.023 83.4361 107.541 82.9639 110.078 82.9989C114.501 82.9224 118.86 84.065 122.675 86.3013C128.877 90.1413 129.082 85.7125 128.992 71.7093L128.646 38.4293L97.7897 38.7493H95.355C81.3364 38.8901 76.9156 38.6341 80.747 32.4389C82.9924 28.6343 84.1451 24.2853 84.0786 19.8693C84.1124 17.3353 83.6386 14.8202 82.6851 12.4719C81.7315 10.1235 80.3175 7.98931 78.5262 6.19481C76.7349 4.4003 74.6024 2.98172 72.2543 2.02248C69.9061 1.06325 67.3896 0.582732 64.8527 0.60919C62.3159 0.635649 59.81 1.16855 57.4824 2.17655C55.1548 3.18456 53.0524 4.64731 51.299 6.47878C49.5456 8.31025 48.1765 10.4735 47.2723 12.8412C46.368 15.2089 45.9469 17.7334 46.0337 20.2661C46.0449 24.6869 47.2776 29.0188 49.596 32.7845Z" fill="white"/>
        <path d="M49.596 32.7845C53.5555 38.9029 49.1347 39.1845 35.1289 39.3893L0.530884 39.7349V153.655C0.530884 157.05 1.88093 160.305 4.28404 162.706C6.68714 165.106 9.94645 166.455 13.345 166.455H129.953L129.607 131.895C129.466 117.904 129.12 113.488 122.995 117.444C119.225 119.759 114.888 120.99 110.463 121.002C107.927 121.088 105.4 120.667 103.029 119.763C100.659 118.859 98.4936 117.491 96.6604 115.739C94.8272 113.987 93.3633 111.886 92.3548 109.561C91.3463 107.235 90.8135 104.731 90.7879 102.197C90.7622 99.6629 91.2442 97.149 92.2055 94.8036C93.1667 92.4581 94.5878 90.3283 96.3852 88.5396C98.1826 86.7508 100.32 85.3391 102.672 84.3876C105.023 83.4361 107.541 82.9639 110.078 82.9989C114.501 82.9224 118.86 84.065 122.675 86.3013C128.877 90.1413 129.082 85.7125 128.992 71.7093L128.646 38.4293L97.7897 38.7493H95.355C81.3364 38.8901 76.9156 38.6341 80.747 32.4389C82.9924 28.6343 84.1451 24.2853 84.0786 19.8693C84.1124 17.3353 83.6386 14.8202 82.6851 12.4719C81.7315 10.1235 80.3175 7.98931 78.5262 6.19481C76.7349 4.4003 74.6024 2.98172 72.2543 2.02248C69.9061 1.06325 67.3896 0.582732 64.8527 0.60919C62.3159 0.635649 59.81 1.16855 57.4824 2.17655C55.1548 3.18456 53.0524 4.64731 51.299 6.47878C49.5456 8.31025 48.1765 10.4735 47.2723 12.8412C46.368 15.2089 45.9469 17.7334 46.0337 20.2661C46.0449 24.6869 47.2776 29.0188 49.596 32.7845Z" fill="url(#paint1_linear_224_684)"/>
    </mask>
    <g mask="url(#mask0_224_684)">
        <g filter="url(#filter0_f_224_684)">
            <path d="M36.8145 -20.7507C36.8145 -20.0894 36.8972 -19.6836 37.0627 -19.5334C37.2282 -19.3831 37.6795 -19.3079 38.4166 -19.3079V-18.7669H32.4593V-19.3079C33.1965 -19.3079 33.6478 -19.3831 33.8132 -19.5334C33.9787 -19.6836 34.0615 -20.0894 34.0615 -20.7507V-26.8826C32.9031 -26.8826 31.9854 -26.8976 31.3085 -26.9277C30.6465 -26.9728 30.0222 -27.078 29.4355 -27.2433C28.8488 -27.4086 28.4276 -27.5965 28.1718 -27.8069C27.9161 -28.0323 27.6904 -28.4005 27.4949 -28.9115C27.2993 -29.4225 27.179 -29.9635 27.1338 -30.5347C27.1037 -31.1208 27.0887 -31.9173 27.0887 -32.9243C27.0887 -33.5856 27.006 -33.9913 26.8405 -34.1416C26.675 -34.307 26.2237 -34.3896 25.4865 -34.3896V-34.9307H31.4213V-34.3896C30.6992 -34.3896 30.2554 -34.3145 30.0899 -34.1642C29.9244 -34.0139 29.8417 -33.6006 29.8417 -32.9243C29.8417 -32.0075 29.8492 -31.2936 29.8643 -30.7826C29.8944 -30.2716 29.962 -29.7832 30.0674 -29.3173C30.1877 -28.8514 30.3231 -28.5132 30.4735 -28.3028C30.639 -28.1075 30.8948 -27.9271 31.2408 -27.7618C31.5868 -27.6115 31.9629 -27.5213 32.369 -27.4913C32.7903 -27.4612 33.3544 -27.4462 34.0615 -27.4462V-32.9243C34.0615 -33.5856 33.9787 -33.9913 33.8132 -34.1416C33.6478 -34.307 33.1965 -34.3896 32.4593 -34.3896V-34.9307H38.4166V-34.3896C37.6795 -34.3896 37.2282 -34.307 37.0627 -34.1416C36.8972 -33.9913 36.8145 -33.5856 36.8145 -32.9243V-20.7507Z" fill="#374A4B"/>
            <path d="M42.8747 -18.7669V-29.7456C42.2729 -29.7456 41.8291 -29.7231 41.5433 -29.678C41.2575 -29.6329 40.9942 -29.5127 40.7535 -29.3173C40.5279 -29.1219 40.3849 -28.8364 40.3248 -28.4606C40.2646 -28.0849 40.2345 -27.5439 40.2345 -26.8375H39.6704C39.6704 -27.4086 39.6102 -27.9346 39.4898 -28.4155C39.3695 -28.9115 39.2491 -29.2572 39.1288 -29.4526L38.9483 -29.7456V-30.3092H49.1028V-29.7456C48.6064 -29.0994 48.3581 -28.13 48.3581 -26.8375H47.8166C47.8166 -27.5439 47.7865 -28.0849 47.7263 -28.4606C47.6661 -28.8364 47.5157 -29.1219 47.275 -29.3173C47.0493 -29.5127 46.7936 -29.6329 46.5077 -29.678C46.2219 -29.7231 45.7781 -29.7456 45.1764 -29.7456V-18.7669H42.8747Z" fill="#374A4B"/>
            <path d="M55.4789 -19.8715C56.1258 -20.3524 56.5546 -20.8259 56.7652 -21.2918C56.9758 -21.7577 57.0811 -22.3889 57.0811 -23.1854C57.0811 -23.8317 56.9382 -24.4704 56.6523 -25.1016C56.3816 -25.7479 56.0732 -26.2814 55.7272 -26.7022C55.3811 -27.123 54.9975 -27.5814 54.5763 -28.0774C54.1551 -28.5734 53.8693 -28.9491 53.7188 -29.2046C53.0118 -28.7387 52.5379 -28.2728 52.2972 -27.8069C52.0565 -27.341 51.9361 -26.7097 51.9361 -25.9132C51.9361 -25.2519 52.0941 -24.5906 52.41 -23.9294C52.7259 -23.2831 53.0719 -22.7496 53.448 -22.3288C53.8392 -21.923 54.2378 -21.4796 54.644 -20.9987C55.0652 -20.5328 55.3435 -20.1571 55.4789 -19.8715ZM54.7343 -30.5347C56.0431 -29.9635 57.1638 -29.0468 58.0965 -27.7843C59.0443 -26.5369 59.5182 -25.4398 59.5182 -24.493C59.5182 -23.9218 59.3527 -23.2681 59.0217 -22.5317C58.7058 -21.8103 58.1341 -21.0438 57.3067 -20.2322C56.4944 -19.4357 55.5241 -18.842 54.3958 -18.4513C53.087 -19.0224 51.9587 -19.9316 51.0109 -21.179C50.0782 -22.4415 49.6119 -23.5461 49.6119 -24.493C49.6119 -25.0641 49.7698 -25.7103 50.0858 -26.4317C50.4167 -27.1681 50.9884 -27.9346 51.8007 -28.7312C52.6281 -29.5427 53.606 -30.1439 54.7343 -30.5347Z" fill="#374A4B"/>
            <path d="M69.1438 -18.7669H60.8171V-30.3092H68.354V-29.7456C67.8575 -29.0994 67.6093 -28.13 67.6093 -26.8375H67.0677C67.0677 -28.0849 66.9173 -28.8815 66.6164 -29.2271C66.3306 -29.5728 65.6762 -29.7456 64.6532 -29.7456H63.1413V-25.3271C64.7961 -25.282 66.0297 -25.0791 66.8421 -24.7184C67.6695 -24.3577 68.2562 -23.719 68.6022 -22.8022C68.9632 -21.9004 69.1438 -20.5553 69.1438 -18.7669ZM63.1413 -19.3305H66.8421C66.812 -21.134 66.5337 -22.449 66.0071 -23.2756C65.4806 -24.1022 64.5253 -24.5831 63.1413 -24.7184V-19.3305Z" fill="#374A4B"/>
            <path d="M81.2064 -30.3092H83.5307V-18.7669H81.2064V-30.3092ZM70.6683 -30.3092H72.9925V-26.1612L74.7527 -27.1756C75.3995 -26.6496 76.2269 -25.6352 77.2349 -24.1323C78.2579 -22.6293 79.168 -20.8409 79.9653 -18.7669H70.6683V-30.3092ZM72.9925 -19.3305H76.919C76.5429 -20.7733 76.069 -22.0958 75.4973 -23.2981C74.9257 -24.5005 74.3991 -25.4172 73.9177 -26.0485L72.9925 -25.53V-19.3305Z" fill="#374A4B"/>
            <path d="M93.1012 -18.7669H90.7769V-30.3092H93.1012V-26.8375L97.0276 -24.1097V-30.3092H99.3293V-18.7669H97.0276V-23.208L93.1012 -25.9357V-18.7669Z" fill="#374A4B"/>
            <path d="M107.014 -29.926L108.977 -18.7669H106.631L106.36 -20.1646C105.457 -19.0825 104.284 -18.5414 102.84 -18.5414C101.982 -18.5414 101.365 -18.8044 100.989 -19.3305C100.628 -19.8565 100.448 -20.4501 100.448 -21.1114C100.448 -23.0502 101.975 -25.297 105.028 -27.852L104.577 -30.3092H106.473C106.789 -30.3092 106.969 -30.1815 107.014 -29.926ZM106.202 -21.1565L105.119 -27.2433C103.449 -25.8456 102.614 -24.3652 102.614 -22.8022C102.614 -22.216 102.764 -21.6449 103.065 -21.0889C103.366 -20.5478 103.825 -20.2773 104.442 -20.2773C105.194 -20.2773 105.781 -20.5704 106.202 -21.1565Z" fill="#374A4B"/>
            <path d="M114.248 -31.7295C112.036 -31.7295 110.931 -32.1653 110.931 -33.037C110.931 -33.3526 111.006 -33.6006 111.156 -33.7809C111.307 -33.9763 111.495 -34.074 111.721 -34.074C112.036 -34.074 112.255 -33.9613 112.375 -33.7359C112.495 -33.5104 112.555 -33.1572 112.555 -32.6763C112.977 -32.4208 113.541 -32.2931 114.248 -32.2931C114.564 -32.2931 114.865 -32.3231 115.151 -32.3832C115.451 -32.4433 115.662 -32.5035 115.782 -32.5636L115.963 -32.6763C115.963 -33.1572 116.023 -33.5104 116.143 -33.7359C116.264 -33.9613 116.482 -34.074 116.798 -34.074C117.023 -34.074 117.211 -33.9763 117.362 -33.7809C117.512 -33.6006 117.588 -33.3526 117.588 -33.037C117.588 -32.1653 116.474 -31.7295 114.248 -31.7295ZM116.234 -30.3092H118.535V-18.7669H116.234V-26.3866L112.307 -21.6975V-18.7669H109.983V-30.3092H112.307V-22.8473L116.234 -27.5138V-30.3092Z" fill="#374A4B"/>
            <path d="M122.993 -18.7669V-29.7456C122.392 -29.7456 121.948 -29.7231 121.662 -29.678C121.376 -29.6329 121.113 -29.5127 120.872 -29.3173C120.647 -29.1219 120.504 -28.8364 120.443 -28.4606C120.383 -28.0849 120.353 -27.5439 120.353 -26.8375H119.789C119.789 -27.4086 119.729 -27.9346 119.609 -28.4155C119.488 -28.9115 119.368 -29.2572 119.248 -29.4526L119.067 -29.7456V-30.3092H129.222V-29.7456C128.725 -29.0994 128.477 -28.13 128.477 -26.8375H127.935C127.935 -27.5439 127.905 -28.0849 127.845 -28.4606C127.785 -28.8364 127.634 -29.1219 127.394 -29.3173C127.168 -29.5127 126.912 -29.6329 126.626 -29.678C126.341 -29.7231 125.897 -29.7456 125.295 -29.7456V-18.7669H122.993Z" fill="#374A4B"/>
            <path d="M136.117 -30.3092H138.418V-18.7669H136.117V-26.3866L132.19 -21.6975V-18.7669H129.866V-30.3092H132.19V-22.8473L136.117 -27.5138V-30.3092Z" fill="#374A4B"/>
            <path d="M157.241 -29.926L159.204 -18.7669H156.835L155.3 -27.5814C155.135 -27.3109 154.849 -26.9051 154.443 -26.3641C154.051 -25.823 153.713 -25.3045 153.427 -24.8086C153.141 -24.3126 152.923 -23.8016 152.773 -23.2756L153.563 -18.7669H151.216L149.726 -27.1756C148.222 -25.0115 147.47 -22.5091 147.47 -19.6686C147.47 -19.3079 147.5 -19.0073 147.56 -18.7669H145.1C145.131 -19.8189 145.183 -20.623 145.258 -21.179C145.334 -21.7351 145.514 -22.3964 145.8 -23.1629C146.086 -23.9294 146.522 -24.6958 147.109 -25.4623C147.696 -26.2438 148.508 -27.1756 149.546 -28.2577L149.162 -30.3092H151.058C151.374 -30.3092 151.554 -30.1815 151.599 -29.926L152.434 -25.1693C152.525 -25.2745 152.713 -25.4849 152.998 -25.8005C153.299 -26.1311 153.517 -26.3791 153.653 -26.5444C153.788 -26.7097 153.961 -26.9277 154.172 -27.1982C154.397 -27.4687 154.586 -27.7167 154.736 -27.9421C154.886 -28.1676 155.014 -28.393 155.12 -28.6184L154.804 -30.3092H156.744C157.03 -30.3092 157.196 -30.1815 157.241 -29.926Z" fill="#374A4B"/>
            <path d="M166.077 -19.8715C166.723 -20.3524 167.152 -20.8259 167.363 -21.2918C167.573 -21.7577 167.679 -22.3889 167.679 -23.1854C167.679 -23.8317 167.536 -24.4704 167.25 -25.1016C166.979 -25.7479 166.671 -26.2814 166.325 -26.7022C165.979 -27.123 165.595 -27.5814 165.174 -28.0774C164.753 -28.5734 164.467 -28.9491 164.316 -29.2046C163.609 -28.7387 163.136 -28.2728 162.895 -27.8069C162.654 -27.341 162.534 -26.7097 162.534 -25.9132C162.534 -25.2519 162.692 -24.5906 163.008 -23.9294C163.324 -23.2831 163.67 -22.7496 164.046 -22.3288C164.437 -21.923 164.835 -21.4796 165.242 -20.9987C165.663 -20.5328 165.941 -20.1571 166.077 -19.8715ZM165.332 -30.5347C166.641 -29.9635 167.761 -29.0468 168.694 -27.7843C169.642 -26.5369 170.116 -25.4398 170.116 -24.493C170.116 -23.9218 169.95 -23.2681 169.619 -22.5317C169.303 -21.8103 168.732 -21.0438 167.904 -20.2322C167.092 -19.4357 166.122 -18.842 164.993 -18.4513C163.685 -19.0224 162.556 -19.9316 161.609 -21.179C160.676 -22.4415 160.209 -23.5461 160.209 -24.493C160.209 -25.0641 160.367 -25.7103 160.683 -26.4317C161.014 -27.1681 161.586 -27.9346 162.398 -28.7312C163.226 -29.5427 164.204 -30.1439 165.332 -30.5347Z" fill="#374A4B"/>
            <path d="M178.252 -29.926L180.215 -18.7669H177.846L176.357 -27.3109C174.506 -25.0115 173.581 -22.4265 173.581 -19.5559C173.581 -19.1952 173.588 -18.9322 173.604 -18.7669H171.144C171.204 -20.5854 171.535 -22.0883 172.137 -23.2756C172.754 -24.4629 174.1 -26.1236 176.176 -28.2577L175.815 -30.3092H177.71C178.026 -30.3092 178.207 -30.1815 178.252 -29.926Z" fill="#374A4B"/>
            <path d="M187.065 -19.8715C187.712 -20.3524 188.141 -20.8259 188.351 -21.2918C188.562 -21.7577 188.667 -22.3889 188.667 -23.1854C188.667 -23.8317 188.524 -24.4704 188.239 -25.1016C187.968 -25.7479 187.659 -26.2814 187.313 -26.7022C186.967 -27.123 186.584 -27.5814 186.163 -28.0774C185.741 -28.5734 185.456 -28.9491 185.305 -29.2046C184.598 -28.7387 184.124 -28.2728 183.884 -27.8069C183.643 -27.341 183.522 -26.7097 183.522 -25.9132C183.522 -25.2519 183.68 -24.5906 183.996 -23.9294C184.312 -23.2831 184.658 -22.7496 185.034 -22.3288C185.425 -21.923 185.824 -21.4796 186.23 -20.9987C186.652 -20.5328 186.93 -20.1571 187.065 -19.8715ZM186.321 -30.5347C187.629 -29.9635 188.75 -29.0468 189.683 -27.7843C190.631 -26.5369 191.104 -25.4398 191.104 -24.493C191.104 -23.9218 190.939 -23.2681 190.608 -22.5317C190.292 -21.8103 189.72 -21.0438 188.893 -20.2322C188.081 -19.4357 187.11 -18.842 185.982 -18.4513C184.673 -19.0224 183.545 -19.9316 182.597 -21.179C181.665 -22.4415 181.198 -23.5461 181.198 -24.493C181.198 -25.0641 181.356 -25.7103 181.672 -26.4317C182.003 -27.1681 182.575 -27.9346 183.387 -28.7312C184.214 -29.5427 185.192 -30.1439 186.321 -30.5347Z" fill="#374A4B"/>
            <path d="M201.678 -18.7669H195.405C194.893 -18.3461 194.479 -17.7975 194.164 -17.1212C193.863 -16.4298 193.712 -15.7911 193.712 -15.205H193.148C193.148 -15.7761 193.05 -16.3622 192.855 -16.9634C192.659 -17.5645 192.456 -18.0154 192.245 -18.316L191.952 -18.7669V-19.3305H194.547L197.503 -30.3092H199.85L202.806 -19.3305H205.13V-18.7669C205.04 -18.6466 204.927 -18.4813 204.792 -18.2709C204.657 -18.0455 204.476 -17.6247 204.25 -17.0085C204.025 -16.3772 203.912 -15.7761 203.912 -15.205H203.37C203.37 -15.7911 203.212 -16.4298 202.896 -17.1212C202.596 -17.7975 202.189 -18.3461 201.678 -18.7669ZM195.089 -19.3305H200.414L197.751 -29.2271L195.089 -19.3305Z" fill="#374A4B"/>
            <path d="M216.945 -30.3092H219.269V-18.7669H216.945V-30.3092ZM206.407 -30.3092H208.731V-26.1612L210.491 -27.1756C211.138 -26.6496 211.965 -25.6352 212.973 -24.1323C213.996 -22.6293 214.906 -20.8409 215.704 -18.7669H206.407V-30.3092ZM208.731 -19.3305H212.657C212.281 -20.7733 211.807 -22.0958 211.236 -23.2981C210.664 -24.5005 210.138 -25.4172 209.656 -26.0485L208.731 -25.53V-19.3305Z" fill="#374A4B"/>
            <path d="M221.899 -30.3092H223.298L225.352 -26.7699L227.089 -29.7907C227.165 -29.926 227.24 -30.0161 227.315 -30.0612C227.39 -30.1214 227.601 -30.174 227.947 -30.219C228.293 -30.2792 228.804 -30.3092 229.481 -30.3092C229.707 -30.3092 229.82 -30.219 229.82 -30.0387C229.82 -29.7531 229.767 -29.2647 229.662 -28.5734C229.572 -27.897 229.466 -27.5589 229.346 -27.5589H228.015C227.037 -27.5589 226.465 -27.3936 226.3 -27.0629L225.735 -26.071L229.978 -18.7669H227.315L224.449 -23.7265L221.674 -18.7669H220.748L224.043 -24.4704L221.358 -29.0919C221.237 -29.2872 221.177 -29.4901 221.177 -29.7005C221.177 -30.1063 221.418 -30.3092 221.899 -30.3092Z" fill="#374A4B"/>
            <path d="M40.8424 -9.11368C40.1053 -9.98536 39.6765 -10.5264 39.5562 -10.7368C38.8491 -10.2709 38.3753 -9.80501 38.1346 -9.33911C37.8939 -8.87321 37.7735 -8.24199 37.7735 -7.44545C37.7735 -6.78417 37.9315 -6.12289 38.2474 -5.4616C38.5633 -4.81535 38.9168 -4.28182 39.308 -3.86101C39.6991 -3.45522 40.0978 -3.01186 40.5039 -2.53093C40.9252 -2.06503 41.2035 -1.6893 41.3389 -1.40375C42.1061 -1.97485 42.58 -2.56099 42.7605 -3.16215L44.0242 -2.68874C43.0764 -1.44132 41.8203 -0.539574 40.2557 0.0165024C38.9469 -0.554603 37.8186 -1.46386 36.8709 -2.71128C35.9382 -3.97372 35.4718 -5.07836 35.4718 -6.0252C35.4718 -6.5963 35.6298 -7.24255 35.9457 -7.96395C36.2767 -8.70038 36.8483 -9.46686 37.6607 -10.2634C38.473 -11.075 39.4434 -11.6761 40.5716 -12.0669C41.4442 -11.6912 42.2866 -11.0975 43.099 -10.2859L40.8424 -9.11368Z" fill="#374A4B"/>
            <path d="M47.354 -0.299109H45.0297V-11.8415H53.5821V-0.299109H51.2804V-11.2779H47.354V-0.299109Z" fill="#374A4B"/>
            <path d="M61.3798 -11.2779L57.5437 -9.49692V-6.9044L59.9808 -8.03158L60.906 -6.70151L57.5437 -5.12345V-2.37312C57.5437 -1.89219 57.7092 -1.65173 58.0401 -1.65173C58.1454 -1.65173 58.2206 -1.66676 58.2658 -1.69682L60.5449 -2.80145L62.0117 -1.67427L58.8525 -0.208934C58.4914 -0.043614 58.1153 0.039046 57.7242 0.039046C57.0472 0.039046 56.4605 -0.18639 55.9641 -0.637263C55.4827 -1.08814 55.242 -1.71936 55.242 -2.53093V-9.20385C55.242 -9.88016 55.5278 -10.3385 56.0995 -10.579L59.3941 -12.112L61.3798 -11.2779Z" fill="#374A4B"/>
            <path d="M70.0577 -11.8415H72.3819V-0.8627H75.8119V-0.299109C75.7216 -0.178876 75.6088 -0.0135559 75.4734 0.196852C75.338 0.422288 75.1575 0.843103 74.9318 1.4593C74.7212 2.09052 74.6159 2.69168 74.6159 3.26279H74.0743C74.0743 2.67665 73.9164 2.03792 73.6005 1.34658C73.2996 0.670268 72.8934 0.121706 72.3819 -0.299109H63.8296V-11.8415H66.1313V-0.8627H70.0577V-11.8415Z" fill="#374A4B"/>
            <path d="M82.7973 -11.8415H85.099V-0.299109H82.7973V-7.91886L78.8709 -3.22978V-0.299109H76.5466V-11.8415H78.8709V-4.37951L82.7973 -9.04604V-11.8415Z" fill="#374A4B"/>
            <path d="M92.7839 -11.4582L94.7471 -0.299109H92.4003L92.1295 -1.69682C91.2269 -0.61472 90.0535 -0.0736722 88.6093 -0.0736722C87.7518 -0.0736722 87.135 -0.336682 86.7589 -0.8627C86.3979 -1.38872 86.2173 -1.98237 86.2173 -2.64365C86.2173 -4.5824 87.7443 -6.82925 90.7982 -9.3842L90.3468 -11.8415H92.2424C92.5583 -11.8415 92.7388 -11.7137 92.7839 -11.4582ZM91.9716 -2.68874L90.8884 -8.77552C89.2186 -7.37781 88.3836 -5.89745 88.3836 -4.33442C88.3836 -3.74829 88.5341 -3.17718 88.835 -2.6211C89.1358 -2.08006 89.5947 -1.80953 90.2115 -1.80953C90.9636 -1.80953 91.5503 -2.1026 91.9716 -2.68874Z" fill="#374A4B"/>
            <path d="M102.59 -11.4582L104.553 -0.299109H102.184L100.695 -8.84315C98.8441 -6.5437 97.919 -3.95869 97.919 -1.08814C97.919 -0.727438 97.9265 -0.464429 97.9415 -0.299109H95.4819C95.542 -2.11763 95.873 -3.62054 96.4748 -4.80784C97.0915 -5.99514 98.438 -7.65585 100.514 -9.78999L100.153 -11.8415H102.048C102.364 -11.8415 102.545 -11.7137 102.59 -11.4582Z" fill="#374A4B"/>
            <path d="M111.922 -11.8415H114.224V-0.299109H111.922V-7.91886L107.996 -3.22978V-0.299109H105.672V-11.8415H107.996V-4.37951L111.922 -9.04604V-11.8415Z" fill="#374A4B"/>
            <path d="M120.555 -9.11368C119.818 -9.98536 119.389 -10.5264 119.269 -10.7368C118.562 -10.2709 118.088 -9.80501 117.847 -9.33911C117.606 -8.87321 117.486 -8.24199 117.486 -7.44545C117.486 -6.78417 117.644 -6.12289 117.96 -5.4616C118.276 -4.81535 118.629 -4.28182 119.021 -3.86101C119.412 -3.45522 119.81 -3.01186 120.216 -2.53093C120.638 -2.06503 120.916 -1.6893 121.051 -1.40375C121.819 -1.97485 122.293 -2.56099 122.473 -3.16215L123.737 -2.68874C122.789 -1.44132 121.533 -0.539574 119.968 0.0165024C118.659 -0.554603 117.531 -1.46386 116.583 -2.71128C115.651 -3.97372 115.184 -5.07836 115.184 -6.0252C115.184 -6.5963 115.342 -7.24255 115.658 -7.96395C115.989 -8.70038 116.561 -9.46686 117.373 -10.2634C118.186 -11.075 119.156 -11.6761 120.284 -12.0669C121.157 -11.6912 121.999 -11.0975 122.812 -10.2859L120.555 -9.11368Z" fill="#374A4B"/>
            <path d="M127.834 -0.299109V-11.2779C127.232 -11.2779 126.788 -11.2553 126.502 -11.2102C126.217 -11.1651 125.953 -11.0449 125.713 -10.8495C125.487 -10.6542 125.344 -10.3686 125.284 -9.99288C125.224 -9.61715 125.194 -9.0761 125.194 -8.36974H124.629C124.629 -8.94084 124.569 -9.46686 124.449 -9.94779C124.329 -10.4438 124.208 -10.7894 124.088 -10.9848L123.907 -11.2779V-11.8415H134.062V-11.2779C133.565 -10.6316 133.317 -9.66224 133.317 -8.36974H132.776C132.776 -9.0761 132.746 -9.61715 132.685 -9.99288C132.625 -10.3686 132.475 -10.6542 132.234 -10.8495C132.008 -11.0449 131.753 -11.1651 131.467 -11.2102C131.181 -11.2553 130.737 -11.2779 130.135 -11.2779V-0.299109H127.834Z" fill="#374A4B"/>
            <path d="M140.438 -1.40375C141.085 -1.88468 141.514 -2.3581 141.724 -2.824C141.935 -3.2899 142.04 -3.92112 142.04 -4.71766C142.04 -5.36392 141.897 -6.00265 141.611 -6.63387C141.341 -7.28013 141.032 -7.81366 140.686 -8.23447C140.34 -8.65529 139.957 -9.11368 139.535 -9.60964C139.114 -10.1056 138.828 -10.4813 138.678 -10.7368C137.971 -10.2709 137.497 -9.80501 137.256 -9.33911C137.016 -8.87321 136.895 -8.24199 136.895 -7.44545C136.895 -6.78417 137.053 -6.12289 137.369 -5.4616C137.685 -4.81535 138.031 -4.28182 138.407 -3.86101C138.798 -3.45522 139.197 -3.01186 139.603 -2.53093C140.024 -2.06503 140.303 -1.6893 140.438 -1.40375ZM139.693 -12.0669C141.002 -11.4958 142.123 -10.579 143.056 -9.31657C144.003 -8.06915 144.477 -6.97203 144.477 -6.0252C144.477 -5.45409 144.312 -4.80032 143.981 -4.0639C143.665 -3.3425 143.093 -2.57602 142.266 -1.76445C141.453 -0.967904 140.483 -0.374254 139.355 0.0165024C138.046 -0.554603 136.918 -1.46386 135.97 -2.71128C135.037 -3.97372 134.571 -5.07836 134.571 -6.0252C134.571 -6.5963 134.729 -7.24255 135.045 -7.96395C135.376 -8.70038 135.947 -9.46686 136.76 -10.2634C137.587 -11.075 138.565 -11.6761 139.693 -12.0669Z" fill="#374A4B"/>
            <path d="M154.486 -0.299109H146.182V-11.8415H153.9C153.9 -10.564 153.576 -9.4894 152.929 -8.61772C152.283 -7.76106 151.402 -7.13735 150.289 -6.74659C151.929 -6.55121 153.035 -6.00265 153.606 -5.10091C154.193 -4.19916 154.486 -2.59856 154.486 -0.299109ZM148.484 -0.8627H152.185C152.155 -2.66619 151.876 -3.98124 151.35 -4.80784C150.823 -5.63444 149.868 -6.11537 148.484 -6.25063V-0.8627ZM148.484 -11.2779V-6.9044C149.567 -7.02463 150.342 -7.43042 150.808 -8.12176C151.275 -8.81309 151.53 -9.86513 151.575 -11.2779H148.484Z" fill="#374A4B"/>
            <path d="M157.726 -1.92225C157.726 -1.1708 157.591 -0.434371 157.32 0.287026C157.064 1.00842 156.831 1.51941 156.62 1.81999C156.41 2.12058 156.222 2.35353 156.056 2.51885H155.492C155.838 1.75236 156.011 1.06854 156.011 0.467375C156.011 0.287026 155.913 -0.10373 155.718 -0.704894C155.537 -1.30606 155.447 -1.86214 155.447 -2.37312C155.447 -2.52342 155.522 -2.59856 155.672 -2.59856H157.5C157.651 -2.59856 157.726 -2.52342 157.726 -2.37312V-1.92225Z" fill="#374A4B"/>
            <path d="M166.619 -0.299109H164.295V-11.8415H166.619V-8.36974L170.546 -5.64195V-11.8415H172.848V-0.299109H170.546V-4.74021L166.619 -7.46799V-0.299109Z" fill="#374A4B"/>
            <path d="M181.006 0.715356C181.006 1.8726 181.119 2.77434 181.345 3.42059C181.571 4.06684 181.683 4.48766 181.683 4.68304C181.683 4.84836 181.638 4.98362 181.548 5.08882C181.473 5.19403 181.375 5.24663 181.255 5.24663C180.698 5.24663 180.42 3.70615 180.42 0.625181V-0.299109H178.05L173.921 -11.2779C173.876 -11.4131 173.853 -11.5258 173.853 -11.616C173.853 -11.7813 173.973 -11.864 174.214 -11.864H175.478C175.749 -11.864 175.937 -11.8264 176.042 -11.7513C176.147 -11.6912 176.238 -11.5484 176.313 -11.323L180.171 -1.02051H180.442C180.517 -3.72574 180.736 -5.98011 181.097 -7.7836C181.458 -9.58709 181.819 -10.7744 182.18 -11.3455C182.375 -11.6761 183.097 -11.849 184.346 -11.864C184.542 -11.864 184.639 -11.7738 184.639 -11.5935C184.639 -11.2929 184.594 -10.8044 184.504 -10.1281C184.414 -9.45183 184.308 -9.11368 184.188 -9.11368H183.489C183.022 -9.11368 182.699 -9.06107 182.518 -8.95587C182.338 -8.8657 182.18 -8.67032 182.044 -8.36974C181.909 -8.08418 181.766 -7.65585 181.616 -7.08475C181.48 -6.51364 181.345 -5.52924 181.209 -4.13153C181.074 -2.73382 181.006 -1.11819 181.006 0.715356Z" fill="#374A4B"/>
            <path d="M191.467 -11.8415H193.791V-7.0622C194.904 -7.43793 195.732 -8.00152 196.273 -8.75298C196.83 -9.50443 197.108 -10.5339 197.108 -11.8415H199.433V-11.2779C199.433 -10.0906 199.026 -9.15876 198.214 -8.48245C197.417 -7.80614 196.236 -7.22001 194.671 -6.72405C196.206 -6.42347 197.387 -5.77722 198.214 -4.7853C199.056 -3.79337 199.478 -2.29798 199.478 -0.299109H197.153C197.153 -2.17775 196.822 -3.59048 196.161 -4.53731C195.514 -5.49918 194.724 -6.0778 193.791 -6.27318V-0.299109H191.467V-6.27318C190.534 -6.0778 189.737 -5.49918 189.075 -4.53731C188.428 -3.59048 188.105 -2.17775 188.105 -0.299109H185.803C185.803 -2.29798 186.217 -3.79337 187.044 -4.7853C187.887 -5.77722 189.075 -6.42347 190.609 -6.72405C189.045 -7.22001 187.856 -7.80614 187.044 -8.48245C186.247 -9.15876 185.848 -10.0906 185.848 -11.2779V-11.8415H188.15C188.15 -10.5339 188.421 -9.50443 188.962 -8.75298C189.519 -8.00152 190.354 -7.43793 191.467 -7.0622V-11.8415Z" fill="#374A4B"/>
            <path d="M203.259 -0.299109H200.935V-11.8415H203.259V-8.36974L207.185 -5.64195V-11.8415H209.487V-0.299109H207.185V-4.74021L203.259 -7.46799V-0.299109Z" fill="#374A4B"/>
            <path d="M216.585 -1.40375C217.232 -1.88468 217.661 -2.3581 217.871 -2.824C218.082 -3.2899 218.187 -3.92112 218.187 -4.71766C218.187 -5.36392 218.044 -6.00265 217.759 -6.63387C217.488 -7.28013 217.179 -7.81366 216.833 -8.23447C216.487 -8.65529 216.104 -9.11368 215.682 -9.60964C215.261 -10.1056 214.975 -10.4813 214.825 -10.7368C214.118 -10.2709 213.644 -9.80501 213.403 -9.33911C213.163 -8.87321 213.042 -8.24199 213.042 -7.44545C213.042 -6.78417 213.2 -6.12289 213.516 -5.4616C213.832 -4.81535 214.178 -4.28182 214.554 -3.86101C214.945 -3.45522 215.344 -3.01186 215.75 -2.53093C216.171 -2.06503 216.45 -1.6893 216.585 -1.40375ZM215.84 -12.0669C217.149 -11.4958 218.27 -10.579 219.203 -9.31657C220.15 -8.06915 220.624 -6.97203 220.624 -6.0252C220.624 -5.45409 220.459 -4.80032 220.128 -4.0639C219.812 -3.3425 219.24 -2.57602 218.413 -1.76445C217.601 -0.967904 216.63 -0.374254 215.502 0.0165024C214.193 -0.554603 213.065 -1.46386 212.117 -2.71128C211.184 -3.97372 210.718 -5.07836 210.718 -6.0252C210.718 -6.5963 210.876 -7.24255 211.192 -7.96395C211.523 -8.70038 212.095 -9.46686 212.907 -10.2634C213.734 -11.075 214.712 -11.6761 215.84 -12.0669Z" fill="#374A4B"/>
            <path d="M41.3903 18.1686H35.1171C34.6056 18.5895 34.1919 19.138 33.876 19.8143C33.5751 20.5057 33.4247 21.1444 33.4247 21.7305H32.8605C32.8605 21.1594 32.7627 20.5733 32.5672 19.9721C32.3716 19.371 32.1685 18.9201 31.9579 18.6195L31.6646 18.1686V17.6051H34.2596L37.2157 6.6263H39.5625L42.5186 17.6051H44.8429V18.1686C44.7526 18.2889 44.6398 18.4542 44.5044 18.6646C44.369 18.89 44.1885 19.3109 43.9628 19.9271C43.7371 20.5583 43.6243 21.1594 43.6243 21.7305H43.0827C43.0827 21.1444 42.9248 20.5057 42.6089 19.8143C42.308 19.138 41.9018 18.5895 41.3903 18.1686ZM34.8012 17.6051H40.1267L37.4639 7.7084L34.8012 17.6051Z" fill="#374A4B"/>
            <path d="M52.5278 19.1831C52.5278 20.3404 52.6406 21.2421 52.8663 21.8884C53.0919 22.5346 53.2048 22.9554 53.2048 23.1508C53.2048 23.3161 53.1596 23.4514 53.0694 23.5566C52.9942 23.6618 52.8964 23.7144 52.776 23.7144C52.2194 23.7144 51.9411 22.1739 51.9411 19.0929V18.1686H49.5717L45.4422 7.18989C45.3971 7.05463 45.3745 6.94191 45.3745 6.85174C45.3745 6.68642 45.4949 6.60376 45.7356 6.60376H46.9992C47.27 6.60376 47.4581 6.64133 47.5634 6.71648C47.6687 6.77659 47.7589 6.91937 47.8342 7.1448L51.6929 17.4473H51.9637C52.0389 14.742 52.257 12.4876 52.6181 10.6842C52.9791 8.88067 53.3402 7.69337 53.7012 7.12226C53.8968 6.79162 54.6189 6.61879 55.8675 6.60376C56.0631 6.60376 56.1609 6.69393 56.1609 6.87428C56.1609 7.17486 56.1157 7.66331 56.0255 8.33962C55.9352 9.01593 55.8299 9.35408 55.7096 9.35408H55.01C54.5437 9.35408 54.2202 9.40668 54.0397 9.51189C53.8592 9.60206 53.7012 9.79744 53.5658 10.098C53.4304 10.3836 53.2875 10.8119 53.1371 11.383C53.0017 11.9541 52.8663 12.9385 52.7309 14.3362C52.5955 15.7339 52.5278 17.3496 52.5278 19.1831Z" fill="#374A4B"/>
            <path d="M69.081 7.00954L71.0442 18.1686H68.6748L67.1404 9.35408C66.9749 9.62461 66.6891 10.0304 66.2829 10.5714C65.8918 11.1125 65.5533 11.631 65.2674 12.127C64.9816 12.6229 64.7635 13.1339 64.613 13.6599L65.4028 18.1686H63.056L61.5667 9.75987C60.0623 11.9241 59.3101 14.4264 59.3101 17.2669C59.3101 17.6276 59.3402 17.9282 59.4004 18.1686H56.9407C56.9708 17.1166 57.0235 16.3126 57.0987 15.7565C57.1739 15.2004 57.3544 14.5391 57.6403 13.7726C57.9261 13.0062 58.3624 12.2397 58.9491 11.4732C59.5358 10.6917 60.3481 9.75987 61.3862 8.67777L61.0025 6.6263H62.898C63.214 6.6263 63.3945 6.75405 63.4396 7.00954L64.2746 11.7663C64.3648 11.661 64.5529 11.4506 64.8387 11.135C65.1396 10.8044 65.3577 10.5564 65.4931 10.3911C65.6285 10.2258 65.8015 10.0078 66.0121 9.73732C66.2378 9.4668 66.4258 9.21882 66.5762 8.99338C66.7267 8.76795 66.8546 8.54251 66.9599 8.31707L66.6439 6.6263H68.5846C68.8704 6.6263 69.0359 6.75405 69.081 7.00954Z" fill="#374A4B"/>
            <path d="M78.5035 7.00954L80.4667 18.1686H78.1199L77.8491 16.7709C76.9465 17.853 75.7731 18.3941 74.3289 18.3941C73.4714 18.3941 72.8546 18.1311 72.4785 17.6051C72.1175 17.079 71.9369 16.4854 71.9369 15.8241C71.9369 13.8854 73.4639 11.6385 76.5177 9.08356L76.0664 6.6263H77.9619C78.2779 6.6263 78.4584 6.75405 78.5035 7.00954ZM77.6912 15.779L76.608 9.69224C74.9382 11.0899 74.1032 12.5703 74.1032 14.1333C74.1032 14.7195 74.2537 15.2906 74.5545 15.8467C74.8554 16.3877 75.3142 16.6582 75.931 16.6582C76.6832 16.6582 77.2699 16.3652 77.6912 15.779Z" fill="#374A4B"/>
            <path d="M84.5637 18.1686V7.18989C83.962 7.18989 83.5182 7.21244 83.2324 7.25752C82.9465 7.30261 82.6833 7.42284 82.4426 7.61822C82.2169 7.8136 82.074 8.09915 82.0138 8.47488C81.9536 8.85061 81.9236 9.39165 81.9236 10.098H81.3594C81.3594 9.52692 81.2992 9.0009 81.1789 8.51997C81.0585 8.02401 80.9382 7.67834 80.8178 7.48296L80.6373 7.18989V6.6263H90.7918V7.18989C90.2954 7.83614 90.0472 8.80552 90.0472 10.098H89.5056C89.5056 9.39165 89.4755 8.85061 89.4153 8.47488C89.3552 8.09915 89.2047 7.8136 88.964 7.61822C88.7384 7.42284 88.4826 7.30261 88.1968 7.25752C87.911 7.21244 87.4672 7.18989 86.8654 7.18989V18.1686H84.5637Z" fill="#374A4B"/>
            <path d="M91.4363 6.6263H93.7606V10.7743L95.5207 9.75987C96.1676 10.2859 96.995 11.3004 98.0029 12.8033C99.0259 14.3062 99.936 16.0946 100.733 18.1686H91.4363V6.6263ZM93.7606 17.6051H97.687C97.3109 16.1623 96.837 14.8397 96.2654 13.6374C95.6937 12.435 95.1672 11.5183 94.6858 10.8871L93.7606 11.4056V17.6051Z" fill="#374A4B"/>
            <path d="M107.483 6.6263H109.785V11.4056C110.898 11.0298 111.733 10.4662 112.29 9.71478C112.846 8.96333 113.125 7.93383 113.125 6.6263H115.426V7.18989C115.426 8.37719 115.02 9.30899 114.208 9.9853C113.41 10.6616 112.229 11.2477 110.665 11.7437C112.199 12.0443 113.38 12.6905 114.208 13.6825C115.05 14.6744 115.471 16.1698 115.471 18.1686H113.17C113.17 16.29 112.839 14.8773 112.177 13.9304C111.515 12.9686 110.718 12.39 109.785 12.1946V18.1686H107.483V6.6263Z" fill="#374A4B"/>
            <path d="M123.247 7.00954L125.21 18.1686H122.863L122.592 16.7709C121.69 17.853 120.516 18.3941 119.072 18.3941C118.214 18.3941 117.598 18.1311 117.222 17.6051C116.861 17.079 116.68 16.4854 116.68 15.8241C116.68 13.8854 118.207 11.6385 121.261 9.08356L120.81 6.6263H122.705C123.021 6.6263 123.201 6.75405 123.247 7.00954ZM122.434 15.779L121.351 9.69224C119.681 11.0899 118.846 12.5703 118.846 14.1333C118.846 14.7195 118.997 15.2906 119.298 15.8467C119.598 16.3877 120.057 16.6582 120.674 16.6582C121.426 16.6582 122.013 16.3652 122.434 15.779Z" fill="#374A4B"/>
            <path d="M126.622 6.6263H128.923V11.4056C130.036 11.0298 130.871 10.4662 131.428 9.71478C131.985 8.96333 132.263 7.93383 132.263 6.6263H134.565V7.18989C134.565 8.37719 134.158 9.30899 133.346 9.9853C132.549 10.6616 131.368 11.2477 129.803 11.7437C131.338 12.0443 132.519 12.6905 133.346 13.6825C134.188 14.6744 134.61 16.1698 134.61 18.1686H132.308C132.308 16.29 131.977 14.8773 131.315 13.9304C130.653 12.9686 129.856 12.39 128.923 12.1946V18.1686H126.622V6.6263Z" fill="#374A4B"/>
            <path d="M153.522 7.00954L155.486 18.1686H153.116L151.582 9.35408C151.416 9.62461 151.13 10.0304 150.724 10.5714C150.333 11.1125 149.995 11.631 149.709 12.127C149.423 12.6229 149.205 13.1339 149.054 13.6599L149.844 18.1686H147.497L146.008 9.75987C144.504 11.9241 143.752 14.4264 143.752 17.2669C143.752 17.6276 143.782 17.9282 143.842 18.1686H141.382C141.412 17.1166 141.465 16.3126 141.54 15.7565C141.615 15.2004 141.796 14.5391 142.082 13.7726C142.367 13.0062 142.804 12.2397 143.39 11.4732C143.977 10.6917 144.79 9.75987 145.828 8.67777L145.444 6.6263H147.339C147.655 6.6263 147.836 6.75405 147.881 7.00954L148.716 11.7663C148.806 11.661 148.994 11.4506 149.28 11.135C149.581 10.8044 149.799 10.5564 149.934 10.3911C150.07 10.2258 150.243 10.0078 150.453 9.73732C150.679 9.4668 150.867 9.21882 151.018 8.99338C151.168 8.76795 151.296 8.54251 151.401 8.31707L151.085 6.6263H153.026C153.312 6.6263 153.477 6.75405 153.522 7.00954Z" fill="#374A4B"/>
            <path d="M162.358 17.064C163.005 16.5831 163.434 16.1097 163.644 15.6438C163.855 15.1779 163.96 14.5466 163.96 13.7501C163.96 13.1038 163.817 12.4651 163.532 11.8339C163.261 11.1876 162.952 10.6541 162.606 10.2333C162.26 9.81247 161.877 9.35408 161.456 8.85812C161.034 8.36216 160.749 7.98643 160.598 7.73094C159.891 8.19684 159.417 8.66274 159.176 9.12865C158.936 9.59455 158.815 10.2258 158.815 11.0223C158.815 11.6836 158.973 12.3449 159.289 13.0062C159.605 13.6524 159.951 14.1859 160.327 14.6068C160.718 15.0125 161.117 15.4559 161.523 15.9368C161.944 16.4027 162.223 16.7785 162.358 17.064ZM161.614 6.40086C162.922 6.97197 164.043 7.88874 164.976 9.15119C165.924 10.3986 166.397 11.4957 166.397 12.4426C166.397 13.0137 166.232 13.6674 165.901 14.4039C165.585 15.1253 165.013 15.8917 164.186 16.7033C163.374 17.4999 162.403 18.0935 161.275 18.4843C159.966 17.9132 158.838 17.0039 157.89 15.7565C156.957 14.494 156.491 13.3894 156.491 12.4426C156.491 11.8715 156.649 11.2252 156.965 10.5038C157.296 9.76738 157.868 9.0009 158.68 8.20436C159.507 7.39278 160.485 6.79162 161.614 6.40086Z" fill="#374A4B"/>
            <path d="M174.534 7.00954L176.497 18.1686H174.128L172.638 9.62461C170.788 11.9241 169.863 14.5091 169.863 17.3796C169.863 17.7403 169.87 18.0033 169.885 18.1686H167.426C167.486 16.3501 167.817 14.8472 168.418 13.6599C169.035 12.4726 170.382 10.8119 172.458 8.67777L172.097 6.6263H173.992C174.308 6.6263 174.489 6.75405 174.534 7.00954Z" fill="#374A4B"/>
            <path d="M183.347 17.064C183.994 16.5831 184.423 16.1097 184.633 15.6438C184.844 15.1779 184.949 14.5466 184.949 13.7501C184.949 13.1038 184.806 12.4651 184.52 11.8339C184.25 11.1876 183.941 10.6541 183.595 10.2333C183.249 9.81247 182.866 9.35408 182.444 8.85812C182.023 8.36216 181.737 7.98643 181.587 7.73094C180.88 8.19684 180.406 8.66274 180.165 9.12865C179.924 9.59455 179.804 10.2258 179.804 11.0223C179.804 11.6836 179.962 12.3449 180.278 13.0062C180.594 13.6524 180.94 14.1859 181.316 14.6068C181.707 15.0125 182.106 15.4559 182.512 15.9368C182.933 16.4027 183.212 16.7785 183.347 17.064ZM182.602 6.40086C183.911 6.97197 185.032 7.88874 185.965 9.15119C186.912 10.3986 187.386 11.4957 187.386 12.4426C187.386 13.0137 187.221 13.6674 186.89 14.4039C186.574 15.1253 186.002 15.8917 185.175 16.7033C184.362 17.4999 183.392 18.0935 182.264 18.4843C180.955 17.9132 179.827 17.0039 178.879 15.7565C177.946 14.494 177.48 13.3894 177.48 12.4426C177.48 11.8715 177.638 11.2252 177.954 10.5038C178.285 9.76738 178.856 9.0009 179.669 8.20436C180.496 7.39278 181.474 6.79162 182.602 6.40086Z" fill="#374A4B"/>
            <path d="M197.96 18.1686H191.686C191.175 18.5895 190.761 19.138 190.445 19.8143C190.144 20.5057 189.994 21.1444 189.994 21.7305H189.43C189.43 21.1594 189.332 20.5733 189.136 19.9721C188.941 19.371 188.738 18.9201 188.527 18.6195L188.234 18.1686V17.6051H190.829L193.785 6.6263H196.132L199.088 17.6051H201.412V18.1686C201.322 18.2889 201.209 18.4542 201.074 18.6646C200.938 18.89 200.758 19.3109 200.532 19.9271C200.306 20.5583 200.193 21.1594 200.193 21.7305H199.652C199.652 21.1444 199.494 20.5057 199.178 19.8143C198.877 19.138 198.471 18.5895 197.96 18.1686ZM191.37 17.6051H196.696L194.033 7.7084L191.37 17.6051Z" fill="#374A4B"/>
            <path d="M213.226 6.6263H215.551V18.1686H213.226V6.6263ZM202.688 6.6263H205.013V10.7743L206.773 9.75987C207.42 10.2859 208.247 11.3004 209.255 12.8033C210.278 14.3062 211.188 16.0946 211.985 18.1686H202.688V6.6263ZM205.013 17.6051H208.939C208.563 16.1623 208.089 14.8397 207.517 13.6374C206.946 12.435 206.419 11.5183 205.938 10.8871L205.013 11.4056V17.6051Z" fill="#374A4B"/>
            <path d="M223.687 7.18989L219.851 8.97084V11.5634L222.288 10.4362L223.213 11.7663L219.851 13.3443V16.0946C219.851 16.5756 220.016 16.816 220.347 16.816C220.453 16.816 220.528 16.801 220.573 16.7709L222.852 15.6663L224.319 16.7935L221.16 18.2588C220.799 18.4241 220.423 18.5068 220.031 18.5068C219.354 18.5068 218.768 18.2814 218.271 17.8305C217.79 17.3796 217.549 16.7484 217.549 15.9368V9.26391C217.549 8.5876 217.835 8.12921 218.407 7.88874L221.701 6.35578L223.687 7.18989Z" fill="#374A4B"/>
            <path d="M71.181 27.8218C70.4438 26.9502 70.0151 26.4091 69.8947 26.1987C69.1877 26.6646 68.7138 27.1305 68.4731 27.5964C68.2324 28.0623 68.1121 28.6935 68.1121 29.4901C68.1121 30.1514 68.27 30.8126 68.5859 31.4739C68.9019 32.1202 69.2554 32.6537 69.6465 33.0745C70.0377 33.4803 70.4363 33.9237 70.8425 34.4046C71.2637 34.8705 71.542 35.2462 71.6774 35.5318C72.4447 34.9607 72.9185 34.3745 73.0991 33.7734L74.3627 34.2468C73.415 35.4942 72.1588 36.3959 70.5943 36.952C69.2855 36.3809 68.1572 35.4717 67.2094 34.2242C66.2767 32.9618 65.8104 31.8572 65.8104 30.9103C65.8104 30.3392 65.9683 29.693 66.2842 28.9716C66.6152 28.2351 67.1869 27.4687 67.9992 26.6721C68.8116 25.8605 69.7819 25.2594 70.9102 24.8686C71.7827 25.2443 72.6252 25.838 73.4375 26.6496L71.181 27.8218Z" fill="#374A4B"/>
            <path d="M77.6925 36.6364H75.3682V25.0941H83.9206V36.6364H81.6189V25.6577H77.6925V36.6364Z" fill="#374A4B"/>
            <path d="M91.7184 25.6577L87.8822 27.4386V30.0311L90.3193 28.9039L91.2445 30.234L87.8822 31.8121V34.5624C87.8822 35.0433 88.0477 35.2838 88.3787 35.2838C88.484 35.2838 88.5592 35.2688 88.6043 35.2387L90.8835 34.1341L92.3502 35.2612L89.191 36.7266C88.83 36.8919 88.4539 36.9746 88.0628 36.9746C87.3858 36.9746 86.7991 36.7491 86.3026 36.2983C85.8212 35.8474 85.5805 35.2162 85.5805 34.4046V27.7317C85.5805 27.0554 85.8664 26.597 86.438 26.3565L89.7326 24.8235L91.7184 25.6577Z" fill="#374A4B"/>
            <path d="M100.396 25.0941H102.72V36.0728H106.15V36.6364C106.06 36.7566 105.947 36.922 105.812 37.1324C105.677 37.3578 105.496 37.7786 105.27 38.3948C105.06 39.026 104.954 39.6272 104.954 40.1983H104.413C104.413 39.6122 104.255 38.9734 103.939 38.2821C103.638 37.6058 103.232 37.0572 102.72 36.6364H94.1681V25.0941H96.4698V36.0728H100.396V25.0941Z" fill="#374A4B"/>
            <path d="M113.136 25.0941H115.438V36.6364H113.136V29.0167L109.209 33.7057V36.6364H106.885V25.0941H109.209V32.556L113.136 27.8895V25.0941Z" fill="#374A4B"/>
            <path d="M123.122 25.4773L125.086 36.6364H122.739L122.468 35.2387C121.565 36.3208 120.392 36.8618 118.948 36.8618C118.09 36.8618 117.474 36.5988 117.097 36.0728C116.736 35.5468 116.556 34.9531 116.556 34.2919C116.556 32.3531 118.083 30.1063 121.137 27.5513L120.685 25.0941H122.581C122.897 25.0941 123.077 25.2218 123.122 25.4773ZM122.31 34.2468L121.227 28.16C119.557 29.5577 118.722 31.0381 118.722 32.6011C118.722 33.1872 118.873 33.7583 119.173 34.3144C119.474 34.8555 119.933 35.126 120.55 35.126C121.302 35.126 121.889 34.8329 122.31 34.2468Z" fill="#374A4B"/>
            <path d="M132.929 25.4773L134.892 36.6364H132.522L131.033 28.0924C129.183 30.3918 128.258 32.9768 128.258 35.8474C128.258 36.2081 128.265 36.4711 128.28 36.6364H125.82C125.881 34.8179 126.212 33.315 126.813 32.1277C127.43 30.9404 128.777 29.2797 130.853 27.1455L130.492 25.0941H132.387C132.703 25.0941 132.883 25.2218 132.929 25.4773Z" fill="#374A4B"/>
            <path d="M142.261 25.0941H144.563V36.6364H142.261V29.0167L138.334 33.7057V36.6364H136.01V25.0941H138.334V32.556L142.261 27.8895V25.0941Z" fill="#374A4B"/>
            <path d="M150.894 27.8218C150.156 26.9502 149.728 26.4091 149.607 26.1987C148.9 26.6646 148.426 27.1305 148.186 27.5964C147.945 28.0623 147.825 28.6935 147.825 29.4901C147.825 30.1514 147.983 30.8126 148.298 31.4739C148.614 32.1202 148.968 32.6537 149.359 33.0745C149.75 33.4803 150.149 33.9237 150.555 34.4046C150.976 34.8705 151.255 35.2462 151.39 35.5318C152.157 34.9607 152.631 34.3745 152.812 33.7734L154.075 34.2468C153.128 35.4942 151.871 36.3959 150.307 36.952C148.998 36.3809 147.87 35.4717 146.922 34.2242C145.989 32.9618 145.523 31.8572 145.523 30.9103C145.523 30.3392 145.681 29.693 145.997 28.9716C146.328 28.2351 146.899 27.4687 147.712 26.6721C148.524 25.8605 149.494 25.2594 150.623 24.8686C151.495 25.2443 152.338 25.838 153.15 26.6496L150.894 27.8218Z" fill="#374A4B"/>
            <path d="M158.172 36.6364V25.6577C157.571 25.6577 157.127 25.6802 156.841 25.7253C156.555 25.7704 156.292 25.8906 156.051 26.086C155.825 26.2814 155.683 26.5669 155.622 26.9426C155.562 27.3184 155.532 27.8594 155.532 28.5658H154.968C154.968 27.9947 154.908 27.4687 154.787 26.9877C154.667 26.4918 154.547 26.1461 154.426 25.9507L154.246 25.6577V25.0941H164.4V25.6577C163.904 26.3039 163.656 27.2733 163.656 28.5658H163.114C163.114 27.8594 163.084 27.3184 163.024 26.9426C162.964 26.5669 162.813 26.2814 162.573 26.086C162.347 25.8906 162.091 25.7704 161.805 25.7253C161.519 25.6802 161.076 25.6577 160.474 25.6577V36.6364H158.172Z" fill="#374A4B"/>
            <path d="M175.967 25.0941H178.291V36.6364H175.967V25.0941ZM165.428 25.0941H167.753V29.2421L169.513 28.2276C170.16 28.7536 170.987 29.7681 171.995 31.271C173.018 32.7739 173.928 34.5624 174.726 36.6364H165.428V25.0941ZM167.753 36.0728H171.679C171.303 34.63 170.829 33.3075 170.258 32.1051C169.686 30.9028 169.159 29.986 168.678 29.3548L167.753 29.8733V36.0728Z" fill="#374A4B"/>
            <path d="M180.425 20.4726H182.929L182.478 32.9392H180.876L180.425 20.4726ZM180.876 36.6364C180.726 36.6364 180.65 36.5613 180.65 36.411V34.7878C180.65 34.6375 180.726 34.5624 180.876 34.5624H182.478C182.629 34.5624 182.704 34.6375 182.704 34.7878V36.411C182.704 36.5613 182.629 36.6364 182.478 36.6364H180.876Z" fill="#374A4B"/>
            <path d="M27.3356 39.4814V38.9404H33.2703V39.4814C32.2925 39.4814 31.8035 39.6392 31.8035 39.9548C31.8035 40.1352 31.8186 40.2704 31.8487 40.3606L35.3012 54.5406H37.7609V55.1042C37.6706 55.2244 37.5578 55.3897 37.4224 55.6001C37.287 55.8256 37.1065 56.2464 36.8808 56.8626C36.6702 57.4938 36.5649 58.095 36.5649 58.6661H36.0008C36.0008 58.0799 35.8428 57.4412 35.5269 56.7499C35.226 56.0735 34.8198 55.525 34.3083 55.1042H26.3201C25.8086 55.525 25.3949 56.0735 25.079 56.7499C24.7781 57.4412 24.6277 58.0799 24.6277 58.6661H24.0861C24.0861 58.095 23.9883 57.5088 23.7928 56.9077C23.5821 56.3065 23.3791 55.8556 23.1835 55.555L22.8901 55.1042V54.5406H25.44L28.8475 40.6537C28.8926 40.4884 28.9152 40.293 28.9152 40.0676C28.9152 39.6768 28.3886 39.4814 27.3356 39.4814ZM26.0945 54.5406H32.458L29.2536 41.33L26.0945 54.5406Z" fill="#374A4B"/>
            <path d="M44.1596 53.9995C44.8064 53.5186 45.2352 53.0452 45.4458 52.5793C45.6564 52.1134 45.7617 51.4822 45.7617 50.6856C45.7617 50.0394 45.6188 49.4006 45.333 48.7694C45.0622 48.1231 44.7538 47.5896 44.4078 47.1688C44.0618 46.748 43.6782 46.2896 43.2569 45.7936C42.8357 45.2977 42.5499 44.922 42.3995 44.6665C41.6924 45.1324 41.2185 45.5983 40.9778 46.0642C40.7371 46.5301 40.6168 47.1613 40.6168 47.9578C40.6168 48.6191 40.7747 49.2804 41.0906 49.9417C41.4066 50.5879 41.7526 51.1215 42.1287 51.5423C42.5198 51.9481 42.9185 52.3914 43.3246 52.8723C43.7459 53.3382 44.0242 53.714 44.1596 53.9995ZM43.4149 43.3364C44.7237 43.9075 45.8445 44.8243 46.7772 46.0867C47.7249 47.3341 48.1988 48.4312 48.1988 49.3781C48.1988 49.9492 48.0333 50.603 47.7024 51.3394C47.3865 52.0608 46.8148 52.8273 45.9874 53.6388C45.175 54.4354 44.2047 55.029 43.0764 55.4198C41.7676 54.8487 40.6393 53.9394 39.6916 52.692C38.7589 51.4296 38.2925 50.3249 38.2925 49.3781C38.2925 48.807 38.4505 48.1607 38.7664 47.4393C39.0974 46.7029 39.669 45.9364 40.4814 45.1399C41.3088 44.3283 42.2866 43.7271 43.4149 43.3364Z" fill="#374A4B"/>
            <path d="M63.7492 55.1042H55.4451V43.5618H63.1625C63.1625 44.8393 62.8391 45.9139 62.1922 46.7856C61.5453 47.6422 60.6653 48.2659 59.552 48.6567C61.1918 48.8521 62.2975 49.4006 62.8692 50.3024C63.4559 51.2041 63.7492 52.8047 63.7492 55.1042ZM57.7468 54.5406H61.4475C61.4174 52.7371 61.1391 51.422 60.6126 50.5954C60.0861 49.7688 59.1308 49.2879 57.7468 49.1526V54.5406ZM57.7468 44.1254V48.4989C58.8299 48.3786 59.6047 47.9729 60.071 47.2815C60.5374 46.5902 60.7931 45.5381 60.8383 44.1254H57.7468Z" fill="#374A4B"/>
            <path d="M70.0351 46.2896C69.298 45.4179 68.8692 44.8769 68.7489 44.6665C68.0418 45.1324 67.5679 45.5983 67.3272 46.0642C67.0865 46.5301 66.9662 47.1613 66.9662 47.9578C66.9662 48.6191 67.1241 49.2804 67.4401 49.9417C67.756 50.5879 68.1095 51.1215 68.5006 51.5423C68.8918 51.9481 69.2904 52.3914 69.6966 52.8723C70.1178 53.3382 70.3961 53.714 70.5315 53.9995C71.2988 53.4284 71.7726 52.8423 71.9532 52.2411L73.2168 52.7145C72.2691 53.962 71.0129 54.8637 69.4484 55.4198C68.1396 54.8487 67.0113 53.9394 66.0635 52.692C65.1308 51.4296 64.6645 50.3249 64.6645 49.3781C64.6645 48.807 64.8224 48.1607 65.1384 47.4393C65.4693 46.7029 66.041 45.9364 66.8533 45.1399C67.6657 44.3283 68.636 43.7271 69.7643 43.3364C70.6368 43.7121 71.4793 44.3058 72.2917 45.1173L70.0351 46.2896Z" fill="#374A4B"/>
            <path d="M77.3139 55.1042V44.1254C76.7121 44.1254 76.2683 44.148 75.9825 44.193C75.6967 44.2381 75.4334 44.3584 75.1927 44.5537C74.967 44.7491 74.8241 45.0347 74.7639 45.4104C74.7038 45.7861 74.6737 46.3272 74.6737 47.0335H74.1095C74.1095 46.4624 74.0494 45.9364 73.929 45.4555C73.8087 44.9595 73.6883 44.6139 73.568 44.4185L73.3874 44.1254V43.5618H83.542V44.1254C83.0455 44.7717 82.7973 45.741 82.7973 47.0335H82.2557C82.2557 46.3272 82.2256 45.7861 82.1655 45.4104C82.1053 45.0347 81.9548 44.7491 81.7141 44.5537C81.4885 44.3584 81.2327 44.2381 80.9469 44.193C80.6611 44.148 80.2173 44.1254 79.6155 44.1254V55.1042H77.3139Z" fill="#374A4B"/>
            <path d="M87.5261 55.555C87.7368 56.6071 87.8421 57.5464 87.8421 58.373C87.8421 58.8088 87.7518 59.2221 87.5713 59.6129C87.4058 60.0037 87.1952 60.3268 86.9394 60.5823C86.6837 60.8378 86.4355 61.0632 86.1948 61.2586C85.9541 61.454 85.7435 61.5967 85.5629 61.6869L85.2921 61.8222L84.6377 60.8979C84.6979 60.8528 84.7731 60.7777 84.8634 60.6724C84.9537 60.5823 85.074 60.3644 85.2245 60.0187C85.3749 59.673 85.4501 59.3048 85.4501 58.914C85.4501 57.5314 85.1944 55.9683 84.6829 54.225C84.1714 52.4816 83.9156 50.866 83.9156 49.3781C83.9156 48.807 84.0736 48.1607 84.3895 47.4393C84.7205 46.7029 85.2921 45.9364 86.1045 45.1399C86.9169 44.3283 87.8872 43.7271 89.0155 43.3364C90.3243 43.9075 91.445 44.8243 92.3777 46.0867C93.3255 47.3341 93.7994 48.4312 93.7994 49.3781C93.7994 50.1746 93.5286 51.0388 92.987 51.9706C92.4605 52.9024 91.6933 53.729 90.6853 54.4504C89.6924 55.1718 88.6394 55.54 87.5261 55.555ZM87.2779 54.5631C90.0159 54.4429 91.3849 53.1504 91.3849 50.6856C91.3849 50.0394 91.2419 49.4006 90.9561 48.7694C90.6703 48.1231 90.3544 47.5896 90.0084 47.1688C89.6774 46.748 89.2938 46.2896 88.8575 45.7936C88.4363 45.2977 88.1505 44.922 88 44.6665C87.293 45.1324 86.8191 45.5983 86.5784 46.0642C86.3527 46.515 86.2399 47.1463 86.2399 47.9578C86.2399 48.4087 86.2549 48.8596 86.285 49.3104C86.3302 49.7613 86.3678 50.1521 86.3979 50.4827C86.443 50.7983 86.5107 51.1816 86.601 51.6324C86.6912 52.0833 86.7589 52.414 86.804 52.6244C86.8492 52.8197 86.9319 53.1654 87.0523 53.6614C87.1726 54.1423 87.2478 54.4429 87.2779 54.5631Z" fill="#374A4B"/>
            <path d="M101.191 44.1254L97.3548 45.9064V48.4989L99.7919 47.3717L100.717 48.7018L97.3548 50.2798V53.0301C97.3548 53.5111 97.5203 53.7515 97.8513 53.7515C97.9566 53.7515 98.0318 53.7365 98.0769 53.7065L100.356 52.6018L101.823 53.729L98.6636 55.1943C98.3026 55.3597 97.9265 55.4423 97.5353 55.4423C96.8584 55.4423 96.2717 55.2169 95.7752 54.766C95.2938 54.3151 95.0531 53.6839 95.0531 52.8723V46.1994C95.0531 45.5231 95.339 45.0647 95.9106 44.8243L99.2052 43.2913L101.191 44.1254Z" fill="#374A4B"/>
            <path d="M108.718 43.5618H111.042V55.1042H108.718V50.4376C108.176 50.618 107.597 50.7082 106.98 50.7082C105.822 50.7082 104.859 50.3925 104.092 49.7613C103.325 49.1151 102.941 48.0781 102.941 46.6503V43.5618H105.265V47.3942C105.265 48.0255 105.318 48.544 105.423 48.9497C105.529 49.3555 105.679 49.6411 105.875 49.8064C106.07 49.9567 106.243 50.0544 106.394 50.0995C106.559 50.1446 106.755 50.1671 106.98 50.1671C107.206 50.1671 107.394 50.1446 107.545 50.0995C107.71 50.0544 107.891 49.9567 108.086 49.8064C108.297 49.6411 108.455 49.3555 108.56 48.9497C108.665 48.544 108.718 48.0255 108.718 47.3942V43.5618Z" fill="#374A4B"/>
            <path d="M118.998 43.5618H121.3V55.1042H118.998V47.4844L115.072 52.1735V55.1042H112.747V43.5618H115.072V51.0238L118.998 46.3572V43.5618Z" fill="#374A4B"/>
            <path d="M130.532 55.1042H128.207V43.5618H130.532V47.0335L134.458 49.7613V43.5618H136.76V55.1042H134.458V50.6631L130.532 47.9353V55.1042Z" fill="#374A4B"/>
            <path d="M144.445 43.9451L146.408 55.1042H144.061L143.79 53.7065C142.888 54.7886 141.714 55.3296 140.27 55.3296C139.413 55.3296 138.796 55.0666 138.42 54.5406C138.059 54.0146 137.878 53.4209 137.878 52.7596C137.878 50.8209 139.405 48.574 142.459 46.0191L142.008 43.5618H143.903C144.219 43.5618 144.4 43.6896 144.445 43.9451ZM143.632 52.7145L142.549 46.6278C140.879 48.0255 140.044 49.5058 140.044 51.0689C140.044 51.655 140.195 52.2261 140.496 52.7822C140.797 53.3232 141.255 53.5937 141.872 53.5937C142.624 53.5937 143.211 53.3007 143.632 52.7145Z" fill="#374A4B"/>
            <path d="M154.557 40.9468C154.557 40.2855 154.474 39.8797 154.309 39.7294C154.143 39.5641 153.692 39.4814 152.955 39.4814V38.9404H158.912V39.4814C158.175 39.4814 157.724 39.5641 157.558 39.7294C157.393 39.8797 157.31 40.2855 157.31 40.9468V46.7405H157.49C158.859 46.7405 159.935 46.1393 160.717 44.937C161.499 43.7347 161.891 42.4046 161.891 40.9468C161.891 40.2855 161.808 39.8797 161.642 39.7294C161.477 39.5641 161.026 39.4814 160.288 39.4814V38.9404H166.223V39.4814C166.073 39.4814 165.937 39.4889 165.817 39.504C165.712 39.504 165.606 39.504 165.501 39.504C165.411 39.504 165.336 39.519 165.275 39.549C165.215 39.5791 165.155 39.6016 165.095 39.6167C165.05 39.6317 165.005 39.6693 164.96 39.7294C164.929 39.7895 164.899 39.8346 164.869 39.8647C164.854 39.8947 164.832 39.9623 164.802 40.0676C164.787 40.1577 164.772 40.2329 164.756 40.293C164.756 40.3381 164.741 40.4358 164.711 40.5861C164.681 40.7363 164.659 40.8566 164.644 40.9468C164.508 41.6682 164.335 42.3144 164.125 42.8855C163.929 43.4566 163.651 44.0352 163.29 44.6214C162.944 45.1925 162.477 45.6884 161.891 46.1092C161.304 46.515 160.619 46.8231 159.837 47.0335C160.619 47.2439 161.304 47.5596 161.891 47.9804C162.477 48.3862 162.944 48.8746 163.29 49.4457C163.651 50.0168 163.929 50.5879 164.125 51.159C164.335 51.7301 164.508 52.3764 164.644 53.0978C164.659 53.188 164.681 53.3082 164.711 53.4585C164.741 53.6088 164.756 53.714 164.756 53.7741C164.772 53.8192 164.787 53.8943 164.802 53.9995C164.832 54.0897 164.854 54.1498 164.869 54.1799C164.899 54.2099 164.929 54.255 164.96 54.3151C165.005 54.3753 165.05 54.4128 165.095 54.4279C165.155 54.4429 165.215 54.4654 165.275 54.4955C165.336 54.5255 165.411 54.5406 165.501 54.5406C165.606 54.5406 165.712 54.5481 165.817 54.5631C165.937 54.5631 166.073 54.5631 166.223 54.5631V55.1042H160.288V54.5631C161.026 54.5631 161.477 54.488 161.642 54.3377C161.808 54.1724 161.891 53.7591 161.891 53.0978C161.891 51.64 161.499 50.3099 160.717 49.1076C159.935 47.9052 158.859 47.3041 157.49 47.3041H157.31V53.1203C157.31 53.7816 157.393 54.1874 157.558 54.3377C157.724 54.488 158.175 54.5631 158.912 54.5631V55.1042H152.955V54.5631C153.692 54.5631 154.143 54.488 154.309 54.3377C154.474 54.1874 154.557 53.7816 154.557 53.1203V40.9468Z" fill="#374A4B"/>
            <path d="M170.907 55.555C171.118 56.6071 171.223 57.5464 171.223 58.373C171.223 58.8088 171.133 59.2221 170.952 59.6129C170.787 60.0037 170.576 60.3268 170.32 60.5823C170.065 60.8378 169.816 61.0632 169.576 61.2586C169.335 61.454 169.124 61.5967 168.944 61.6869L168.673 61.8222L168.019 60.8979C168.079 60.8528 168.154 60.7777 168.244 60.6724C168.334 60.5823 168.455 60.3644 168.605 60.0187C168.756 59.673 168.831 59.3048 168.831 58.914C168.831 57.5314 168.575 55.9683 168.064 54.225C167.552 52.4816 167.296 50.866 167.296 49.3781C167.296 48.807 167.454 48.1607 167.77 47.4393C168.101 46.7029 168.673 45.9364 169.485 45.1399C170.298 44.3283 171.268 43.7271 172.396 43.3364C173.705 43.9075 174.826 44.8243 175.759 46.0867C176.706 47.3341 177.18 48.4312 177.18 49.3781C177.18 50.1746 176.909 51.0388 176.368 51.9706C175.841 52.9024 175.074 53.729 174.066 54.4504C173.073 55.1718 172.02 55.54 170.907 55.555ZM170.659 54.5631C173.397 54.4429 174.766 53.1504 174.766 50.6856C174.766 50.0394 174.623 49.4006 174.337 48.7694C174.051 48.1231 173.735 47.5896 173.389 47.1688C173.058 46.748 172.675 46.2896 172.238 45.7936C171.817 45.2977 171.531 44.922 171.381 44.6665C170.674 45.1324 170.2 45.5983 169.959 46.0642C169.734 46.515 169.621 47.1463 169.621 47.9578C169.621 48.4087 169.636 48.8596 169.666 49.3104C169.711 49.7613 169.749 50.1521 169.779 50.4827C169.824 50.7983 169.891 51.1816 169.982 51.6324C170.072 52.0833 170.14 52.414 170.185 52.6244C170.23 52.8197 170.313 53.1654 170.433 53.6614C170.553 54.1423 170.629 54.4429 170.659 54.5631Z" fill="#374A4B"/>
            <path d="M184.933 56.1186C184.933 57.2759 185.046 58.1776 185.271 58.8239C185.497 59.4701 185.61 59.8909 185.61 60.0863C185.61 60.2516 185.565 60.3869 185.474 60.4921C185.399 60.5973 185.301 60.6499 185.181 60.6499C184.624 60.6499 184.346 59.1094 184.346 56.0285V55.1042H181.977L177.847 44.1254C177.802 43.9901 177.78 43.8774 177.78 43.7873C177.78 43.6219 177.9 43.5393 178.141 43.5393H179.404C179.675 43.5393 179.863 43.5768 179.968 43.652C180.074 43.7121 180.164 43.8549 180.239 44.0803L184.098 54.3828H184.369C184.444 51.6775 184.662 49.4232 185.023 47.6197C185.384 45.8162 185.745 44.6289 186.106 44.0578C186.302 43.7271 187.024 43.5543 188.273 43.5393C188.468 43.5393 188.566 43.6294 188.566 43.8098C188.566 44.1104 188.521 44.5988 188.43 45.2751C188.34 45.9514 188.235 46.2896 188.115 46.2896H187.415C186.949 46.2896 186.625 46.3422 186.445 46.4474C186.264 46.5376 186.106 46.733 185.971 47.0335C185.835 47.3191 185.693 47.7474 185.542 48.3185C185.407 48.8896 185.271 49.874 185.136 51.2717C185.001 52.6695 184.933 54.2851 184.933 56.1186Z" fill="#374A4B"/>
            <path d="M191.896 44.1254V55.1042H189.571V43.5618H197.108V44.1254C196.612 44.7717 196.364 45.741 196.364 47.0335H195.822C195.822 45.7861 195.672 44.9896 195.371 44.6439C195.085 44.2982 194.431 44.1254 193.408 44.1254H191.896Z" fill="#374A4B"/>
            <path d="M204.861 43.9451L206.824 55.1042H204.455L202.965 46.5601C201.115 48.8596 200.19 51.4446 200.19 54.3151C200.19 54.6758 200.197 54.9388 200.212 55.1042H197.753C197.813 53.2856 198.144 51.7827 198.746 50.5954C199.362 49.4081 200.709 47.7474 202.785 45.6133L202.424 43.5618H204.319C204.635 43.5618 204.816 43.6896 204.861 43.9451Z" fill="#374A4B"/>
            <path d="M213.674 53.9995C214.321 53.5186 214.75 53.0452 214.96 52.5793C215.171 52.1134 215.276 51.4822 215.276 50.6856C215.276 50.0394 215.133 49.4006 214.848 48.7694C214.577 48.1231 214.268 47.5896 213.922 47.1688C213.576 46.748 213.193 46.2896 212.772 45.7936C212.35 45.2977 212.064 44.922 211.914 44.6665C211.207 45.1324 210.733 45.5983 210.492 46.0642C210.252 46.5301 210.131 47.1613 210.131 47.9578C210.131 48.6191 210.289 49.2804 210.605 49.9417C210.921 50.5879 211.267 51.1215 211.643 51.5423C212.034 51.9481 212.433 52.3914 212.839 52.8723C213.26 53.3382 213.539 53.714 213.674 53.9995ZM212.929 43.3364C214.238 43.9075 215.359 44.8243 216.292 46.0867C217.24 47.3341 217.713 48.4312 217.713 49.3781C217.713 49.9492 217.548 50.603 217.217 51.3394C216.901 52.0608 216.329 52.8273 215.502 53.6388C214.69 54.4354 213.719 55.029 212.591 55.4198C211.282 54.8487 210.154 53.9394 209.206 52.692C208.273 51.4296 207.807 50.3249 207.807 49.3781C207.807 48.807 207.965 48.1607 208.281 47.4393C208.612 46.7029 209.184 45.9364 209.996 45.1399C210.823 44.3283 211.801 43.7271 212.929 43.3364Z" fill="#374A4B"/>
            <path d="M230.927 43.9451L232.89 55.1042H230.521L228.986 46.2896C228.821 46.5601 228.535 46.9659 228.129 47.507C227.738 48.048 227.399 48.5665 227.113 49.0625C226.828 49.5584 226.609 50.0694 226.459 50.5954L227.249 55.1042H224.902L223.413 46.6954C221.908 48.8596 221.156 51.3619 221.156 54.2024C221.156 54.5631 221.186 54.8637 221.246 55.1042H218.787C218.817 54.0521 218.869 53.2481 218.945 52.692C219.02 52.1359 219.2 51.4746 219.486 50.7082C219.772 49.9417 220.208 49.1752 220.795 48.4087C221.382 47.6272 222.194 46.6954 223.232 45.6133L222.848 43.5618H224.744C225.06 43.5618 225.24 43.6896 225.286 43.9451L226.12 48.7018C226.211 48.5966 226.399 48.3862 226.685 48.0705C226.985 47.7399 227.204 47.4919 227.339 47.3266C227.474 47.1613 227.647 46.9434 227.858 46.6728C228.084 46.4023 228.272 46.1543 228.422 45.9289C228.573 45.7035 228.7 45.478 228.806 45.2526L228.49 43.5618H230.43C230.716 43.5618 230.882 43.6896 230.927 43.9451Z" fill="#374A4B"/>
            <path d="M42.3782 64.7574C41.6411 63.8857 41.2124 63.3446 41.092 63.1342C40.3849 63.6001 39.9111 64.066 39.6704 64.5319C39.4297 64.9978 39.3093 65.629 39.3093 66.4256C39.3093 67.0869 39.4673 67.7481 39.7832 68.4094C40.0991 69.0557 40.4526 69.5892 40.8438 70.01C41.2349 70.4158 41.6336 70.8592 42.0398 71.3401C42.461 71.806 42.7393 72.1817 42.8747 72.4673C43.6419 71.8962 44.1158 71.31 44.2963 70.7089L45.56 71.1823C44.6122 72.4297 43.3561 73.3315 41.7915 73.8875C40.4827 73.3164 39.3544 72.4072 38.4067 71.1598C37.474 69.8973 37.0076 68.7927 37.0076 67.8458C37.0076 67.2747 37.1656 66.6285 37.4815 65.9071C37.8125 65.1707 38.3841 64.4042 39.1965 63.6076C40.0089 62.7961 40.9792 62.1949 42.1075 61.8041C42.98 62.1799 43.8224 62.7735 44.6348 63.5851L42.3782 64.7574Z" fill="#374A4B"/>
            <path d="M49.657 73.5719V62.5932C49.0552 62.5932 48.6115 62.6157 48.3256 62.6608C48.0398 62.7059 47.7765 62.8261 47.5358 63.0215C47.3102 63.2169 47.1673 63.5024 47.1071 63.8782C47.0469 64.2539 47.0168 64.7949 47.0168 65.5013H46.4527C46.4527 64.9302 46.3925 64.4042 46.2722 63.9232C46.1518 63.4273 46.0315 63.0816 45.9111 62.8862L45.7306 62.5932V62.0296H55.8851V62.5932C55.3887 63.2394 55.1404 64.2088 55.1404 65.5013H54.5989C54.5989 64.7949 54.5688 64.2539 54.5086 63.8782C54.4484 63.5024 54.298 63.2169 54.0573 63.0215C53.8316 62.8261 53.5759 62.7059 53.2901 62.6608C53.0042 62.6157 52.5604 62.5932 51.9587 62.5932V73.5719H49.657Z" fill="#374A4B"/>
            <path d="M62.2612 72.4673C62.9081 71.9864 63.3369 71.5129 63.5475 71.047C63.7581 70.5811 63.8634 69.9499 63.8634 69.1534C63.8634 68.5071 63.7205 67.8684 63.4347 67.2372C63.1639 66.5909 62.8555 66.0574 62.5095 65.6366C62.1635 65.2157 61.7798 64.7574 61.3586 64.2614C60.9374 63.7654 60.6516 63.3897 60.5011 63.1342C59.7941 63.6001 59.3202 64.066 59.0795 64.5319C58.8388 64.9978 58.7184 65.629 58.7184 66.4256C58.7184 67.0869 58.8764 67.7481 59.1923 68.4094C59.5082 69.0557 59.8542 69.5892 60.2303 70.01C60.6215 70.4158 61.0201 70.8592 61.4263 71.3401C61.8475 71.806 62.1258 72.1817 62.2612 72.4673ZM61.5166 61.8041C62.8254 62.3752 63.9461 63.292 64.8789 64.5545C65.8266 65.8019 66.3005 66.899 66.3005 67.8458C66.3005 68.4169 66.135 69.0707 65.804 69.8071C65.4881 70.5285 64.9165 71.295 64.0891 72.1066C63.2767 72.9031 62.3064 73.4968 61.1781 73.8875C59.8693 73.3164 58.741 72.4072 57.7933 71.1598C56.8605 69.8973 56.3942 68.7927 56.3942 67.8458C56.3942 67.2747 56.5521 66.6285 56.8681 65.9071C57.199 65.1707 57.7707 64.4042 58.583 63.6076C59.4105 62.7961 60.3883 62.1949 61.5166 61.8041Z" fill="#374A4B"/>
            <path d="M74.4367 62.4128L76.3999 73.5719H74.0306L72.5412 65.0279C70.6909 67.3273 69.7657 69.9123 69.7657 72.7829C69.7657 73.1436 69.7732 73.4066 69.7882 73.5719H67.3286C67.3888 71.7534 67.7197 70.2505 68.3215 69.0632C68.9383 67.8759 70.2847 66.2152 72.3607 64.081L71.9997 62.0296H73.8952C74.2111 62.0296 74.3916 62.1573 74.4367 62.4128Z" fill="#374A4B"/>
            <path d="M83.9495 62.5932L80.1133 64.3741V66.9666L82.5504 65.8395L83.4756 67.1695L80.1133 68.7476V71.4979C80.1133 71.9788 80.2788 72.2193 80.6098 72.2193C80.7151 72.2193 80.7903 72.2043 80.8354 72.1742L83.1146 71.0696L84.5813 72.1968L81.4221 73.6621C81.0611 73.8274 80.685 73.9101 80.2939 73.9101C79.6169 73.9101 79.0302 73.6846 78.5337 73.2338C78.0524 72.7829 77.8117 72.1517 77.8117 71.3401V64.6672C77.8117 63.9909 78.0975 63.5325 78.6691 63.292L81.9637 61.7591L83.9495 62.5932Z" fill="#374A4B"/>
            <path d="M97.1531 65.0504C96.4009 65.0504 95.7766 65.1481 95.2801 65.3435C94.7837 65.5389 94.4828 65.6366 94.3775 65.6366C94.2572 65.6366 94.0541 65.5088 93.7682 65.2533C93.4824 64.9978 93.3395 64.8175 93.3395 64.7123C93.3395 64.592 93.4749 64.4267 93.7457 64.2163C94.0315 63.9909 94.2647 63.8782 94.4452 63.8782C94.4903 63.8782 94.5881 63.9232 94.7386 64.0134C94.904 64.1036 95.1598 64.1938 95.5058 64.2839C95.8518 64.3741 96.2881 64.4192 96.8146 64.4192C97.7323 64.4192 98.4243 64.081 98.8906 63.4047C99.357 62.7284 99.5902 61.9169 99.5902 60.97C99.5902 59.9631 99.3645 59.174 98.9132 58.6029C98.4769 58.0318 97.8977 57.7463 97.1756 57.7463C96.3182 57.7463 95.6863 58.092 95.2801 58.7833C94.889 59.4596 94.6934 60.5417 94.6934 62.0296C94.6934 62.24 94.2346 62.3452 93.3169 62.3452C92.3993 62.3452 91.9404 62.24 91.9404 62.0296C91.9404 61.4284 92.0307 60.8498 92.2112 60.2937C92.4068 59.7376 92.7001 59.2266 93.0913 58.7607C93.4824 58.2798 94.024 57.8966 94.716 57.611C95.4231 57.3255 96.2429 57.1827 97.1756 57.1827C98.9057 57.1827 100.192 57.5208 101.034 58.1972C101.892 58.8735 102.321 59.948 102.321 61.4209C102.321 63.0891 101.501 64.1938 99.861 64.7348C101.034 65.0955 101.892 65.6967 102.433 66.5383C102.975 67.3649 103.246 68.2817 103.246 69.2886C103.246 70.7915 102.817 71.9187 101.96 72.6702C101.117 73.4216 99.891 73.7974 98.2814 73.7974C97.5743 73.7974 96.965 73.6396 96.4535 73.3239C95.9421 72.9933 95.4381 72.828 94.9417 72.828C94.7611 72.828 94.4377 73.0459 93.9713 73.4817C93.52 73.9176 93.1815 74.1355 92.9559 74.1355C92.5798 74.1355 92.1811 73.9477 91.7599 73.5719C91.3537 73.2112 91.1506 72.813 91.1506 72.3771C91.1506 72.1968 91.3763 71.8887 91.8276 71.4528C92.2789 71.017 92.6851 70.7991 93.0461 70.7991C93.4072 70.7991 93.7908 70.9193 94.197 71.1598C94.6182 71.4002 94.9943 71.6632 95.3253 71.9488C95.6713 72.2193 96.1226 72.4748 96.6792 72.7153C97.2358 72.9557 97.83 73.076 98.4619 73.076C99.0185 73.076 99.4924 72.7228 99.8835 72.0164C100.29 71.295 100.493 70.3632 100.493 69.221C100.493 68.0487 100.23 67.0643 99.703 66.2678C99.1765 65.4562 98.3265 65.0504 97.1531 65.0504Z" fill="#374A4B"/>
            <path d="M110.705 57.7237C110.058 57.7237 109.524 57.9041 109.103 58.2648C108.682 58.6105 108.366 59.1515 108.155 59.8879C107.945 60.6093 107.794 61.4059 107.704 62.2776C107.629 63.1492 107.591 64.2238 107.591 65.5013C107.591 66.5233 107.614 67.4025 107.659 68.1389C107.704 68.8753 107.794 69.5817 107.93 70.258C108.065 70.9343 108.245 71.4829 108.471 71.9037C108.697 72.3245 108.998 72.6551 109.374 72.8956C109.75 73.1361 110.194 73.2563 110.705 73.2563C111.337 73.2563 111.863 73.0835 112.285 72.7378C112.706 72.3771 113.022 71.8361 113.232 71.1147C113.458 70.3782 113.609 69.5742 113.684 68.7025C113.774 67.8308 113.819 66.7562 113.819 65.4788C113.819 64.2013 113.774 63.1267 113.684 62.255C113.609 61.3683 113.458 60.5642 113.232 59.8428C113.022 59.1214 112.706 58.5879 112.285 58.2422C111.863 57.8966 111.337 57.7237 110.705 57.7237ZM106.192 59.4145C107.185 57.9116 108.689 57.1601 110.705 57.1601C112.721 57.1601 114.225 57.9191 115.218 59.4371C116.211 60.94 116.708 62.9614 116.708 65.5013C116.708 68.0412 116.211 70.0626 115.218 71.5655C114.225 73.0534 112.721 73.7974 110.705 73.7974C108.689 73.7974 107.185 73.0459 106.192 71.543C105.199 70.0401 104.703 68.0187 104.703 65.4788C104.703 62.9388 105.199 60.9174 106.192 59.4145Z" fill="#374A4B"/>
            <path d="M135.643 62.4128L137.606 73.5719H135.237L133.702 64.7574C133.537 65.0279 133.251 65.4337 132.845 65.9747C132.453 66.5158 132.115 67.0343 131.829 67.5302C131.543 68.0262 131.325 68.5372 131.175 69.0632L131.965 73.5719H129.618L128.128 65.1631C126.624 67.3273 125.872 69.8297 125.872 72.6702C125.872 73.0309 125.902 73.3315 125.962 73.5719H123.502C123.533 72.5199 123.585 71.7158 123.66 71.1598C123.736 70.6037 123.916 69.9424 124.202 69.1759C124.488 68.4094 124.924 67.6429 125.511 66.8765C126.098 66.0949 126.91 65.1631 127.948 64.081L127.564 62.0296H129.46C129.776 62.0296 129.956 62.1573 130.001 62.4128L130.836 67.1695C130.927 67.0643 131.115 66.8539 131.4 66.5383C131.701 66.2077 131.919 65.9597 132.055 65.7944C132.19 65.629 132.363 65.4111 132.574 65.1406C132.8 64.8701 132.988 64.6221 133.138 64.3967C133.288 64.1712 133.416 63.9458 133.522 63.7203L133.206 62.0296H135.146C135.432 62.0296 135.598 62.1573 135.643 62.4128Z" fill="#374A4B"/>
            <path d="M145.065 62.4128L147.028 73.5719H144.682L144.411 72.1742C143.508 73.2563 142.335 73.7974 140.891 73.7974C140.033 73.7974 139.416 73.5344 139.04 73.0083C138.679 72.4823 138.499 71.8887 138.499 71.2274C138.499 69.2886 140.026 67.0418 143.079 64.4868L142.628 62.0296H144.524C144.84 62.0296 145.02 62.1573 145.065 62.4128ZM144.253 71.1823L143.17 65.0955C141.5 66.4932 140.665 67.9736 140.665 69.5366C140.665 70.1227 140.815 70.6939 141.116 71.2499C141.417 71.791 141.876 72.0615 142.493 72.0615C143.245 72.0615 143.832 71.7684 144.253 71.1823Z" fill="#374A4B"/>
            <path d="M153.946 62.5932H150.245C150.306 65.3435 151.539 66.8314 153.946 67.0568V62.5932ZM153.946 73.5719V67.6655C153.013 67.6655 152.164 68.169 151.396 69.1759C150.629 70.1678 150.245 71.6332 150.245 73.5719H147.921C147.921 70.3858 149.17 68.3568 151.667 67.4851C150.238 67.2447 149.253 66.7187 148.711 65.9071C148.184 65.0805 147.921 63.788 147.921 62.0296H156.248V73.5719H153.946Z" fill="#374A4B"/>
            <path d="M162.703 68.2855V66.4849H183.962V68.2855H162.703Z" fill="#374A4B"/>
            <path d="M202.332 62.4128L204.295 73.5719H201.926L200.392 64.7574C200.226 65.0279 199.94 65.4337 199.534 65.9747C199.143 66.5158 198.805 67.0343 198.519 67.5302C198.233 68.0262 198.015 68.5372 197.864 69.0632L198.654 73.5719H196.307L194.818 65.1631C193.314 67.3273 192.561 69.8297 192.561 72.6702C192.561 73.0309 192.591 73.3315 192.652 73.5719H190.192C190.222 72.5199 190.275 71.7158 190.35 71.1598C190.425 70.6037 190.606 69.9424 190.891 69.1759C191.177 68.4094 191.614 67.6429 192.2 66.8765C192.787 66.0949 193.599 65.1631 194.637 64.081L194.254 62.0296H196.149C196.465 62.0296 196.646 62.1573 196.691 62.4128L197.526 67.1695C197.616 67.0643 197.804 66.8539 198.09 66.5383C198.391 66.2077 198.609 65.9597 198.744 65.7944C198.88 65.629 199.053 65.4111 199.263 65.1406C199.489 64.8701 199.677 64.6221 199.827 64.3967C199.978 64.1712 200.106 63.9458 200.211 63.7203L199.895 62.0296H201.836C202.122 62.0296 202.287 62.1573 202.332 62.4128Z" fill="#374A4B"/>
            <path d="M216.358 62.0296H218.682V73.5719H216.358V62.0296ZM205.82 62.0296H208.144V66.1776L209.904 65.1631C210.551 65.6892 211.379 66.7036 212.387 68.2065C213.41 69.7094 214.32 71.4979 215.117 73.5719H205.82V62.0296ZM208.144 73.0083H212.071C211.695 71.5655 211.221 70.243 210.649 69.0407C210.077 67.8383 209.551 66.9215 209.069 66.2903L208.144 66.8088V73.0083Z" fill="#374A4B"/>
            <path d="M47.3815 92.4906C47.5921 93.5426 47.6974 94.4819 47.6974 95.3085C47.6974 95.7444 47.6071 96.1577 47.4266 96.5484C47.2611 96.9392 47.0505 97.2623 46.7948 97.5178C46.539 97.7733 46.2908 97.9987 46.0501 98.1941C45.8094 98.3895 45.5988 98.5323 45.4183 98.6224L45.1475 98.7577L44.4931 97.8334C44.5533 97.7883 44.6285 97.7132 44.7188 97.608C44.809 97.5178 44.9294 97.2999 45.0798 96.9542C45.2302 96.6085 45.3055 96.2403 45.3055 95.8496C45.3055 94.4669 45.0497 92.9039 44.5382 91.1605C44.0267 89.4171 43.771 87.8015 43.771 86.3136C43.771 85.7425 43.929 85.0962 44.2449 84.3748C44.5758 83.6384 45.1475 82.8719 45.9599 82.0754C46.7722 81.2638 47.7425 80.6627 48.8708 80.2719C50.1796 80.843 51.3004 81.7598 52.2331 83.0222C53.1809 84.2696 53.6547 85.3668 53.6547 86.3136C53.6547 87.1101 53.3839 87.9743 52.8424 88.9061C52.3158 89.8379 51.5486 90.6645 50.5407 91.3859C49.5478 92.1073 48.4947 92.4755 47.3815 92.4906ZM47.1333 91.4986C49.8712 91.3784 51.2402 90.0859 51.2402 87.6211C51.2402 86.9749 51.0973 86.3361 50.8115 85.7049C50.5256 85.0587 50.2097 84.5251 49.8637 84.1043C49.5327 83.6835 49.1491 83.2251 48.7129 82.7292C48.2916 82.2332 48.0058 81.8575 47.8554 81.602C47.1483 82.0679 46.6744 82.5338 46.4337 82.9997C46.2081 83.4506 46.0953 84.0818 46.0953 84.8933C46.0953 85.3442 46.1103 85.7951 46.1404 86.246C46.1855 86.6968 46.2231 87.0876 46.2532 87.4182C46.2983 87.7338 46.366 88.1171 46.4563 88.568C46.5466 89.0188 46.6143 89.3495 46.6594 89.5599C46.7045 89.7553 46.7873 90.1009 46.9076 90.5969C47.028 91.0778 47.1032 91.3784 47.1333 91.4986Z" fill="#374A4B"/>
            <path d="M60.9335 80.8806L62.8967 92.0397H60.5499L60.2791 90.642C59.3765 91.7241 58.2031 92.2651 56.7589 92.2651C55.9014 92.2651 55.2846 92.0021 54.9085 91.4761C54.5474 90.9501 54.3669 90.3564 54.3669 89.6951C54.3669 87.7564 55.8938 85.5095 58.9477 82.9546L58.4964 80.4973H60.3919C60.7078 80.4973 60.8884 80.6251 60.9335 80.8806ZM60.1211 89.6501L59.038 83.5633C57.3681 84.961 56.5332 86.4413 56.5332 88.0044C56.5332 88.5905 56.6836 89.1616 56.9845 89.7177C57.2854 90.2587 57.7442 90.5293 58.361 90.5293C59.1132 90.5293 59.6999 90.2362 60.1211 89.6501Z" fill="#374A4B"/>
            <path d="M68.8667 83.2251C68.1295 82.3534 67.7008 81.8124 67.5804 81.602C66.8734 82.0679 66.3995 82.5338 66.1588 82.9997C65.9181 83.4656 65.7977 84.0968 65.7977 84.8933C65.7977 85.5546 65.9557 86.2159 66.2716 86.8772C66.5875 87.5234 66.9411 88.057 67.3322 88.4778C67.7233 88.8836 68.122 89.3269 68.5282 89.8079C68.9494 90.2738 69.2277 90.6495 69.3631 90.935C70.1303 90.3639 70.6042 89.7778 70.7847 89.1766L72.0484 89.6501C71.1006 90.8975 69.8445 91.7992 68.2799 92.3553C66.9711 91.7842 65.8429 90.8749 64.8951 89.6275C63.9624 88.3651 63.496 87.2604 63.496 86.3136C63.496 85.7425 63.654 85.0962 63.9699 84.3748C64.3009 83.6384 64.8725 82.8719 65.6849 82.0754C66.4973 81.2638 67.4676 80.6627 68.5959 80.2719C69.4684 80.6476 70.3108 81.2413 71.1232 82.0528L68.8667 83.2251Z" fill="#374A4B"/>
            <path d="M78.0184 83.2251C77.2812 82.3534 76.8525 81.8124 76.7321 81.602C76.0251 82.0679 75.5512 82.5338 75.3105 82.9997C75.0698 83.4656 74.9494 84.0968 74.9494 84.8933C74.9494 85.5546 75.1074 86.2159 75.4233 86.8772C75.7392 87.5234 76.0928 88.057 76.4839 88.4778C76.875 88.8836 77.2737 89.3269 77.6799 89.8079C78.1011 90.2738 78.3794 90.6495 78.5148 90.935C79.282 90.3639 79.7559 89.7778 79.9364 89.1766L81.2001 89.6501C80.2524 90.8975 78.9962 91.7992 77.4317 92.3553C76.1228 91.7842 74.9946 90.8749 74.0468 89.6275C73.1141 88.3651 72.6477 87.2604 72.6477 86.3136C72.6477 85.7425 72.8057 85.0962 73.1216 84.3748C73.4526 83.6384 74.0242 82.8719 74.8366 82.0754C75.649 81.2638 76.6193 80.6627 77.7476 80.2719C78.6201 80.6476 79.4626 81.2413 80.2749 82.0528L78.0184 83.2251Z" fill="#374A4B"/>
            <path d="M82.6118 80.4973H84.9135V85.2766C86.0267 84.9009 86.8617 84.3373 87.4183 83.5858C87.9749 82.8344 88.2532 81.8049 88.2532 80.4973H90.5549V81.0609C90.5549 82.2482 90.1487 83.18 89.3364 83.8563C88.539 84.5326 87.3581 85.1188 85.7936 85.6147C87.328 85.9153 88.509 86.5616 89.3364 87.5535C90.1788 88.5454 90.6 90.0408 90.6 92.0397H88.2983C88.2983 90.161 87.9674 88.7483 87.3055 87.8015C86.6435 86.8396 85.8462 86.261 84.9135 86.0656V92.0397H82.6118V80.4973Z" fill="#374A4B"/>
            <path d="M98.3752 80.8806L100.338 92.0397H97.9916L97.7208 90.642C96.8182 91.7241 95.6448 92.2651 94.2006 92.2651C93.3431 92.2651 92.7263 92.0021 92.3502 91.4761C91.9892 90.9501 91.8086 90.3564 91.8086 89.6951C91.8086 87.7564 93.3356 85.5095 96.3895 82.9546L95.9382 80.4973H97.8337C98.1496 80.4973 98.3301 80.6251 98.3752 80.8806ZM97.5629 89.6501L96.4797 83.5633C94.8099 84.961 93.9749 86.4413 93.9749 88.0044C93.9749 88.5905 94.1254 89.1616 94.4263 89.7177C94.7271 90.2587 95.186 90.5293 95.8028 90.5293C96.5549 90.5293 97.1417 90.2362 97.5629 89.6501Z" fill="#374A4B"/>
            <path d="M107.166 80.4973H109.49V85.2766C110.603 84.9009 111.431 84.3373 111.972 83.5858C112.529 82.8344 112.807 81.8049 112.807 80.4973H115.132V81.0609C115.132 82.2482 114.725 83.18 113.913 83.8563C113.116 84.5326 111.935 85.1188 110.37 85.6147C111.905 85.9153 113.086 86.5616 113.913 87.5535C114.755 88.5454 115.177 90.0408 115.177 92.0397H112.852C112.852 90.161 112.521 88.7483 111.86 87.8015C111.213 86.8396 110.423 86.261 109.49 86.0656V92.0397H107.166V86.0656C106.233 86.261 105.436 86.8396 104.774 87.8015C104.127 88.7483 103.804 90.161 103.804 92.0397H101.502C101.502 90.0408 101.916 88.5454 102.743 87.5535C103.585 86.5616 104.774 85.9153 106.308 85.6147C104.744 85.1188 103.555 84.5326 102.743 83.8563C101.946 83.18 101.547 82.2482 101.547 81.0609V80.4973H103.849C103.849 81.8049 104.12 82.8344 104.661 83.5858C105.218 84.3373 106.053 84.9009 107.166 85.2766V80.4973Z" fill="#374A4B"/>
            <path d="M123.065 81.0609L119.229 82.8419V85.4344L121.666 84.3072L122.591 85.6373L119.229 87.2153V89.9657C119.229 90.4466 119.394 90.6871 119.725 90.6871C119.83 90.6871 119.906 90.672 119.951 90.642L122.23 89.5373L123.697 90.6645L120.537 92.1299C120.176 92.2952 119.8 92.3778 119.409 92.3778C118.732 92.3778 118.145 92.1524 117.649 91.7015C117.168 91.2507 116.927 90.6194 116.927 89.8079V83.1349C116.927 82.4586 117.213 82.0002 117.784 81.7598L121.079 80.2268L123.065 81.0609Z" fill="#374A4B"/>
            <path d="M136.978 80.8806L138.941 92.0397H136.572L135.037 83.2251C134.872 83.4956 134.586 83.9014 134.18 84.4425C133.788 84.9835 133.45 85.502 133.164 85.998C132.878 86.4939 132.66 87.0049 132.51 87.531L133.3 92.0397H130.953L129.463 83.6309C127.959 85.7951 127.207 88.2974 127.207 91.1379C127.207 91.4986 127.237 91.7992 127.297 92.0397H124.837C124.868 90.9876 124.92 90.1836 124.995 89.6275C125.071 89.0714 125.251 88.4102 125.537 87.6437C125.823 86.8772 126.259 86.1107 126.846 85.3442C127.433 84.5627 128.245 83.6309 129.283 82.5488L128.899 80.4973H130.795C131.111 80.4973 131.291 80.6251 131.336 80.8806L132.171 85.6373C132.262 85.5321 132.45 85.3217 132.735 85.0061C133.036 84.6754 133.254 84.4274 133.39 84.2621C133.525 84.0968 133.698 83.8789 133.909 83.6084C134.134 83.3378 134.323 83.0899 134.473 82.8644C134.623 82.639 134.751 82.4135 134.857 82.1881L134.541 80.4973H136.481C136.767 80.4973 136.933 80.6251 136.978 80.8806Z" fill="#374A4B"/>
            <path d="M142 90.4165C142 91.168 141.865 91.9044 141.594 92.6258C141.338 93.3472 141.105 93.8582 140.894 94.1588C140.684 94.4594 140.496 94.6923 140.33 94.8576H139.766C140.112 94.0912 140.285 93.4073 140.285 92.8062C140.285 92.6258 140.187 92.2351 139.992 91.6339C139.811 91.0327 139.721 90.4767 139.721 89.9657C139.721 89.8154 139.796 89.7402 139.946 89.7402H141.774C141.925 89.7402 142 89.8154 142 89.9657V90.4165Z" fill="#374A4B"/>
            <path d="M148.975 80.4973H151.277V85.2766C152.39 84.9009 153.225 84.3373 153.782 83.5858C154.339 82.8344 154.617 81.8049 154.617 80.4973H156.919V81.0609C156.919 82.2482 156.512 83.18 155.7 83.8563C154.903 84.5326 153.722 85.1188 152.157 85.6147C153.692 85.9153 154.873 86.5616 155.7 87.5535C156.542 88.5454 156.964 90.0408 156.964 92.0397H154.662C154.662 90.161 154.331 88.7483 153.669 87.8015C153.007 86.8396 152.21 86.261 151.277 86.0656V92.0397H148.975V80.4973Z" fill="#374A4B"/>
            <path d="M164.739 80.8806L166.702 92.0397H164.355L164.084 90.642C163.182 91.7241 162.008 92.2651 160.564 92.2651C159.707 92.2651 159.09 92.0021 158.714 91.4761C158.353 90.9501 158.172 90.3564 158.172 89.6951C158.172 87.7564 159.699 85.5095 162.753 82.9546L162.302 80.4973H164.197C164.513 80.4973 164.694 80.6251 164.739 80.8806ZM163.927 89.6501L162.843 83.5633C161.173 84.961 160.339 86.4413 160.339 88.0044C160.339 88.5905 160.489 89.1616 160.79 89.7177C161.091 90.2587 161.55 90.5293 162.166 90.5293C162.919 90.5293 163.505 90.2362 163.927 89.6501Z" fill="#374A4B"/>
            <path d="M168.114 80.4973H170.415V85.2766C171.529 84.9009 172.364 84.3373 172.92 83.5858C173.477 82.8344 173.755 81.8049 173.755 80.4973H176.057V81.0609C176.057 82.2482 175.651 83.18 174.838 83.8563C174.041 84.5326 172.86 85.1188 171.296 85.6147C172.83 85.9153 174.011 86.5616 174.838 87.5535C175.681 88.5454 176.102 90.0408 176.102 92.0397H173.8C173.8 90.161 173.469 88.7483 172.807 87.8015C172.146 86.8396 171.348 86.261 170.415 86.0656V92.0397H168.114V80.4973Z" fill="#374A4B"/>
            <path d="M186.034 83.2251L183.777 82.0528C184.589 81.2413 185.432 80.6476 186.304 80.2719C187.433 80.6627 188.403 81.2638 189.215 82.0754C190.028 82.8719 190.592 83.6384 190.908 84.3748C191.239 85.0962 191.404 85.7425 191.404 86.3136C191.404 87.2604 190.93 88.3651 189.983 89.6275C189.05 90.8749 187.929 91.7842 186.62 92.3553C185.056 91.7992 183.8 90.8975 182.852 89.6501L184.116 89.1766C184.296 89.7778 184.77 90.3639 185.537 90.935C185.673 90.6345 185.981 90.2287 186.462 89.7177C186.944 89.2067 187.418 88.6431 187.884 88.0269C188.365 87.4107 188.704 86.787 188.899 86.1558H184.409V85.5922H189.035C189.08 85.3668 189.103 85.1338 189.103 84.8933C189.103 84.0968 188.982 83.4656 188.741 82.9997C188.501 82.5338 188.027 82.0679 187.32 81.602C187.199 81.8124 186.771 82.3534 186.034 83.2251Z" fill="#374A4B"/>
            <path d="M195.817 92.0397V81.0609C195.215 81.0609 194.772 81.0835 194.486 81.1286C194.2 81.1736 193.937 81.2939 193.696 81.4893C193.47 81.6846 193.327 81.9702 193.267 82.3459C193.207 82.7216 193.177 83.2627 193.177 83.9691H192.613C192.613 83.3979 192.553 82.8719 192.432 82.391C192.312 81.895 192.192 81.5494 192.071 81.354L191.891 81.0609V80.4973H202.045V81.0609C201.549 81.7072 201.301 82.6766 201.301 83.9691H200.759C200.759 83.2627 200.729 82.7216 200.669 82.3459C200.609 81.9702 200.458 81.6846 200.217 81.4893C199.992 81.2939 199.736 81.1736 199.45 81.1286C199.164 81.0835 198.721 81.0609 198.119 81.0609V92.0397H195.817Z" fill="#374A4B"/>
            <path d="M208.421 90.935C209.068 90.4541 209.497 89.9807 209.708 89.5148C209.918 89.0489 210.024 88.4177 210.024 87.6211C210.024 86.9749 209.881 86.3361 209.595 85.7049C209.324 85.0587 209.016 84.5251 208.67 84.1043C208.324 83.6835 207.94 83.2251 207.519 82.7292C207.098 82.2332 206.812 81.8575 206.661 81.602C205.954 82.0679 205.48 82.5338 205.24 82.9997C204.999 83.4656 204.879 84.0968 204.879 84.8933C204.879 85.5546 205.037 86.2159 205.352 86.8772C205.668 87.5234 206.014 88.057 206.39 88.4778C206.782 88.8836 207.18 89.3269 207.586 89.8079C208.008 90.2738 208.286 90.6495 208.421 90.935ZM207.677 80.2719C208.986 80.843 210.106 81.7598 211.039 83.0222C211.987 84.2696 212.461 85.3668 212.461 86.3136C212.461 86.8847 212.295 87.5385 211.964 88.2749C211.648 88.9963 211.077 89.7628 210.249 90.5743C209.437 91.3709 208.467 91.9645 207.338 92.3553C206.029 91.7842 204.901 90.8749 203.953 89.6275C203.021 88.3651 202.554 87.2604 202.554 86.3136C202.554 85.7425 202.712 85.0962 203.028 84.3748C203.359 83.6384 203.931 82.8719 204.743 82.0754C205.571 81.2638 206.548 80.6627 207.677 80.2719Z" fill="#374A4B"/>
            <path d="M97.9366 101.693C97.1994 100.821 96.7707 100.28 96.6503 100.07C95.9433 100.536 95.4694 101.002 95.2287 101.467C94.988 101.933 94.8676 102.565 94.8676 103.361C94.8676 104.022 95.0256 104.684 95.3415 105.345C95.6574 105.991 96.011 106.525 96.4021 106.946C96.7932 107.351 97.1919 107.795 97.5981 108.276C98.0193 108.742 98.2976 109.117 98.433 109.403C99.2002 108.832 99.6741 108.246 99.8546 107.644L101.118 108.118C100.171 109.365 98.9144 110.267 97.3499 110.823C96.041 110.252 94.9128 109.343 93.965 108.095C93.0323 106.833 92.5659 105.728 92.5659 104.781C92.5659 104.21 92.7239 103.564 93.0398 102.843C93.3708 102.106 93.9424 101.34 94.7548 100.543C95.5672 99.7316 96.5375 99.1304 97.6658 98.7397C98.5383 99.1154 99.3808 99.709 100.193 100.521L97.9366 101.693Z" fill="#374A4B"/>
            <path d="M111.398 110.507H105.125C104.614 110.928 104.2 111.477 103.884 112.153C103.583 112.844 103.433 113.483 103.433 114.069H102.868C102.868 113.498 102.771 112.912 102.575 112.311C102.38 111.71 102.176 111.259 101.966 110.958L101.673 110.507V109.944H104.268L107.224 98.9651H109.57L112.527 109.944H114.851V110.507C114.761 110.628 114.648 110.793 114.512 111.003C114.377 111.229 114.196 111.65 113.971 112.266C113.745 112.897 113.632 113.498 113.632 114.069H113.091C113.091 113.483 112.933 112.844 112.617 112.153C112.316 111.477 111.91 110.928 111.398 110.507ZM104.809 109.944H110.135L107.472 100.047L104.809 109.944Z" fill="#374A4B"/>
            <path d="M122.175 99.5287L118.339 101.31V103.902L120.776 102.775L121.701 104.105L118.339 105.683V108.433C118.339 108.914 118.504 109.155 118.835 109.155C118.94 109.155 119.016 109.14 119.061 109.11L121.34 108.005L122.807 109.132L119.647 110.598C119.286 110.763 118.91 110.846 118.519 110.846C117.842 110.846 117.255 110.62 116.759 110.169C116.278 109.718 116.037 109.087 116.037 108.276V101.603C116.037 100.926 116.323 100.468 116.894 100.228L120.189 98.6946L122.175 99.5287Z" fill="#374A4B"/>
            <path d="M131.011 99.3483L132.974 110.507H130.604L129.115 101.963C127.265 104.263 126.339 106.848 126.339 109.718C126.339 110.079 126.347 110.342 126.362 110.507H123.902C123.963 108.689 124.293 107.186 124.895 105.999C125.512 104.811 126.858 103.151 128.934 101.017L128.573 98.9651H130.469C130.785 98.9651 130.965 99.0928 131.011 99.3483Z" fill="#374A4B"/>
            <path d="M140.41 99.3483L142.374 110.507H140.027L139.756 109.11C138.853 110.192 137.68 110.733 136.236 110.733C135.378 110.733 134.762 110.47 134.385 109.944C134.024 109.418 133.844 108.824 133.844 108.163C133.844 106.224 135.371 103.977 138.425 101.422L137.973 98.9651H139.869C140.185 98.9651 140.365 99.0928 140.41 99.3483ZM139.598 108.118L138.515 102.031C136.845 103.429 136.01 104.909 136.01 106.472C136.01 107.058 136.161 107.629 136.461 108.185C136.762 108.726 137.221 108.997 137.838 108.997C138.59 108.997 139.177 108.704 139.598 108.118Z" fill="#374A4B"/>
            <path d="M146.471 110.507V99.5287C145.869 99.5287 145.425 99.5512 145.139 99.5963C144.853 99.6414 144.59 99.7616 144.349 99.957C144.124 100.152 143.981 100.438 143.921 100.814C143.861 101.189 143.83 101.73 143.83 102.437H143.266C143.266 101.866 143.206 101.34 143.086 100.859C142.965 100.363 142.845 100.017 142.725 99.8218L142.544 99.5287V98.9651H152.699V99.5287C152.202 100.175 151.954 101.144 151.954 102.437H151.413C151.413 101.73 151.382 101.189 151.322 100.814C151.262 100.438 151.112 100.152 150.871 99.957C150.645 99.7616 150.39 99.6414 150.104 99.5963C149.818 99.5512 149.374 99.5287 148.772 99.5287V110.507H146.471Z" fill="#374A4B"/>
            <path d="M153.343 98.9651H155.667V103.113L157.428 102.099C158.074 102.625 158.902 103.639 159.91 105.142C160.933 106.645 161.843 108.433 162.64 110.507H153.343V98.9651ZM155.667 109.944H159.594C159.218 108.501 158.744 107.178 158.172 105.976C157.601 104.774 157.074 103.857 156.593 103.226L155.667 103.744V109.944Z" fill="#374A4B"/>
        </g>
    </g>
    <defs>
        <filter id="filter0_f_224_684" x="19.8901" y="-37.9307" width="216" height="155" filterUnits="userSpaceOnUse" color-interpolation-filters="sRGB">
            <feFlood flood-opacity="0" result="BackgroundImageFix"/>
            <feBlend mode="normal" in="SourceGraphic" in2="BackgroundImageFix" result="shape"/>
            <feGaussianBlur stdDeviation="1.5" result="effect1_foregroundBlur_224_684"/>
        </filter>
        <linearGradient id="paint0_linear_224_684" x1="65.2683" y1="166.468" x2="65.2683" y2="-88.3298" gradientUnits="userSpaceOnUse">
            <stop stop-color="#EDD6B9"/>
            <stop offset="1" stop-color="#D4B492"/>
        </linearGradient>
        <linearGradient id="paint1_linear_224_684" x1="65.2683" y1="166.468" x2="65.2683" y2="-88.3298" gradientUnits="userSpaceOnUse">
            <stop stop-color="#EDD6B9"/>
            <stop offset="1" stop-color="#D4B492"/>
        </linearGradient>
    </defs>
</svg>
