<svg width="128" height="165" viewBox="0 0 128 165" fill="none" xmlns="http://www.w3.org/2000/svg">
    <path d="M1.08219 33.3226C1.22315 47.3258 1.56913 51.729 7.69426 47.7738C11.463 45.4541 15.7996 44.2183 20.2264 44.2026C22.7621 44.1164 25.2895 44.5377 27.6599 45.4416C30.0302 46.3454 32.1957 47.7137 34.0289 49.4658C35.8621 51.2179 37.326 53.3186 38.3345 55.6442C39.343 57.9697 39.8757 60.4733 39.9013 63.0076C39.927 65.5418 39.445 68.0556 38.4837 70.4011C37.5225 72.7466 36.1014 74.8764 34.304 76.6651C32.5066 78.4539 30.3693 79.8656 28.0177 80.8171C25.6661 81.7686 23.1478 82.2408 20.6108 82.2058C16.1881 82.2824 11.8297 81.1397 8.01461 78.9034C1.8126 75.0634 1.60756 79.4922 1.69726 93.4954L2.04325 126.775L35.3598 126.43C49.3784 126.289 53.7865 126.545 49.9679 132.74C47.7202 136.549 46.5674 140.902 46.6362 145.323C46.6012 147.857 47.0739 150.372 48.0265 152.721C48.979 155.07 50.3923 157.205 52.183 159.001C53.9737 160.796 56.1059 162.216 58.4539 163.176C60.802 164.136 63.3185 164.618 65.8556 164.592C68.3926 164.566 70.8989 164.034 73.2271 163.027C75.5552 162.019 77.6582 160.557 79.4122 158.726C81.1663 156.895 82.536 154.732 83.4409 152.364C84.3458 149.996 84.7675 147.472 84.6812 144.939C84.6614 140.519 83.4294 136.189 81.1189 132.42C77.1593 126.302 81.5802 126.02 95.586 125.815H98.0206L127.621 125.495L127.621 12.8554C127.621 9.46065 126.271 6.20492 123.868 3.80445C121.465 1.40399 118.206 0.0554199 114.807 0.0554199L0.761841 0.0554199L1.08219 33.3226Z" fill="white"/>
    <path d="M1.08219 33.3226C1.22315 47.3258 1.56913 51.729 7.69426 47.7738C11.463 45.4541 15.7996 44.2183 20.2264 44.2026C22.7621 44.1164 25.2895 44.5377 27.6599 45.4416C30.0302 46.3454 32.1957 47.7137 34.0289 49.4658C35.8621 51.2179 37.326 53.3186 38.3345 55.6442C39.343 57.9697 39.8757 60.4733 39.9013 63.0076C39.927 65.5418 39.445 68.0556 38.4837 70.4011C37.5225 72.7466 36.1014 74.8764 34.304 76.6651C32.5066 78.4539 30.3693 79.8656 28.0177 80.8171C25.6661 81.7686 23.1478 82.2408 20.6108 82.2058C16.1881 82.2824 11.8297 81.1397 8.01461 78.9034C1.8126 75.0634 1.60756 79.4922 1.69726 93.4954L2.04325 126.775L35.3598 126.43C49.3784 126.289 53.7865 126.545 49.9679 132.74C47.7202 136.549 46.5674 140.902 46.6362 145.323C46.6012 147.857 47.0739 150.372 48.0265 152.721C48.979 155.07 50.3923 157.205 52.183 159.001C53.9737 160.796 56.1059 162.216 58.4539 163.176C60.802 164.136 63.3185 164.618 65.8556 164.592C68.3926 164.566 70.8989 164.034 73.2271 163.027C75.5552 162.019 77.6582 160.557 79.4122 158.726C81.1663 156.895 82.536 154.732 83.4409 152.364C84.3458 149.996 84.7675 147.472 84.6812 144.939C84.6614 140.519 83.4294 136.189 81.1189 132.42C77.1593 126.302 81.5802 126.02 95.586 125.815H98.0206L127.621 125.495L127.621 12.8554C127.621 9.46065 126.271 6.20492 123.868 3.80445C121.465 1.40399 118.206 0.0554199 114.807 0.0554199L0.761841 0.0554199L1.08219 33.3226Z" fill="url(#paint0_linear_224_689)"/>
    <mask id="mask0_224_689" style="mask-type:alpha" maskUnits="userSpaceOnUse" x="0" y="0" width="128" height="165">
        <path d="M1.08219 33.3226C1.22315 47.3258 1.56913 51.729 7.69426 47.7738C11.463 45.4541 15.7996 44.2183 20.2264 44.2026C22.7621 44.1164 25.2895 44.5377 27.6599 45.4416C30.0302 46.3454 32.1957 47.7137 34.0289 49.4658C35.8621 51.2179 37.326 53.3186 38.3345 55.6442C39.343 57.9697 39.8757 60.4733 39.9013 63.0076C39.927 65.5418 39.445 68.0556 38.4837 70.4011C37.5225 72.7466 36.1014 74.8764 34.304 76.6651C32.5066 78.4539 30.3693 79.8656 28.0177 80.8171C25.6661 81.7686 23.1478 82.2408 20.6108 82.2058C16.1881 82.2824 11.8297 81.1397 8.01461 78.9034C1.8126 75.0634 1.60756 79.4922 1.69726 93.4954L2.04325 126.775L35.3598 126.43C49.3784 126.289 53.7865 126.545 49.9679 132.74C47.7202 136.549 46.5674 140.902 46.6362 145.323C46.6012 147.857 47.0739 150.372 48.0265 152.721C48.979 155.07 50.3923 157.205 52.183 159.001C53.9737 160.796 56.1059 162.216 58.4539 163.176C60.802 164.136 63.3185 164.618 65.8556 164.592C68.3926 164.566 70.8989 164.034 73.2271 163.027C75.5552 162.019 77.6582 160.557 79.4122 158.726C81.1663 156.895 82.536 154.732 83.4409 152.364C84.3458 149.996 84.7675 147.472 84.6812 144.939C84.6614 140.519 83.4294 136.189 81.1189 132.42C77.1593 126.302 81.5802 126.02 95.586 125.815H98.0206L127.621 125.495L127.621 12.8554C127.621 9.46065 126.271 6.20492 123.868 3.80445C121.465 1.40399 118.206 0.0554199 114.807 0.0554199L0.761841 0.0554199L1.08219 33.3226Z" fill="white"/>
        <path d="M1.08219 33.3226C1.22315 47.3258 1.56913 51.729 7.69426 47.7738C11.463 45.4541 15.7996 44.2183 20.2264 44.2026C22.7621 44.1164 25.2895 44.5377 27.6599 45.4416C30.0302 46.3454 32.1957 47.7137 34.0289 49.4658C35.8621 51.2179 37.326 53.3186 38.3345 55.6442C39.343 57.9697 39.8757 60.4733 39.9013 63.0076C39.927 65.5418 39.445 68.0556 38.4837 70.4011C37.5225 72.7466 36.1014 74.8764 34.304 76.6651C32.5066 78.4539 30.3693 79.8656 28.0177 80.8171C25.6661 81.7686 23.1478 82.2408 20.6108 82.2058C16.1881 82.2824 11.8297 81.1397 8.01461 78.9034C1.8126 75.0634 1.60756 79.4922 1.69726 93.4954L2.04325 126.775L35.3598 126.43C49.3784 126.289 53.7865 126.545 49.9679 132.74C47.7202 136.549 46.5674 140.902 46.6362 145.323C46.6012 147.857 47.0739 150.372 48.0265 152.721C48.979 155.07 50.3923 157.205 52.183 159.001C53.9737 160.796 56.1059 162.216 58.4539 163.176C60.802 164.136 63.3185 164.618 65.8556 164.592C68.3926 164.566 70.8989 164.034 73.2271 163.027C75.5552 162.019 77.6582 160.557 79.4122 158.726C81.1663 156.895 82.536 154.732 83.4409 152.364C84.3458 149.996 84.7675 147.472 84.6812 144.939C84.6614 140.519 83.4294 136.189 81.1189 132.42C77.1593 126.302 81.5802 126.02 95.586 125.815H98.0206L127.621 125.495L127.621 12.8554C127.621 9.46065 126.271 6.20492 123.868 3.80445C121.465 1.40399 118.206 0.0554199 114.807 0.0554199L0.761841 0.0554199L1.08219 33.3226Z" fill="url(#paint1_linear_224_689)"/>
    </mask>
    <g mask="url(#mask0_224_689)">
        <g filter="url(#filter0_f_224_689)">
            <path d="M-89.8138 67.5825C-89.8138 68.2438 -89.7311 68.6496 -89.5656 68.7999C-89.4001 68.9502 -88.9488 69.0253 -88.2117 69.0253L-88.2117 69.5664H-94.169L-94.169 69.0253C-93.4318 69.0253 -92.9805 68.9502 -92.8151 68.7999C-92.6496 68.6496 -92.5668 68.2438 -92.5668 67.5825V61.4507C-93.7252 61.4507 -94.6429 61.4356 -95.3198 61.4056C-95.9818 61.3605 -96.6061 61.2553 -97.1928 61.09C-97.7795 60.9247 -98.2007 60.7368 -98.4565 60.5264C-98.7122 60.3009 -98.9379 59.9327 -99.1334 59.4217C-99.329 58.9108 -99.4493 58.3697 -99.4945 57.7986C-99.5246 57.2125 -99.5396 56.4159 -99.5396 55.409C-99.5396 54.7477 -99.6223 54.3419 -99.7878 54.1916C-99.9533 54.0263 -100.405 53.9436 -101.142 53.9436V53.4026L-95.207 53.4026V53.9436C-95.9291 53.9436 -96.3729 54.0188 -96.5384 54.1691C-96.7039 54.3194 -96.7866 54.7327 -96.7866 55.409C-96.7866 56.3257 -96.7791 57.0396 -96.764 57.5506C-96.7339 58.0616 -96.6662 58.5501 -96.5609 59.016C-96.4406 59.4819 -96.3052 59.82 -96.1548 60.0304C-95.9893 60.2258 -95.7335 60.4061 -95.3875 60.5715C-95.0415 60.7218 -94.6654 60.8119 -94.2592 60.842C-93.838 60.8721 -93.2739 60.8871 -92.5668 60.8871V55.409C-92.5668 54.7477 -92.6496 54.3419 -92.8151 54.1916C-92.9805 54.0263 -93.4318 53.9436 -94.169 53.9436V53.4026H-88.2117V53.9436C-88.9488 53.9436 -89.4001 54.0263 -89.5656 54.1916C-89.7311 54.3419 -89.8138 54.7477 -89.8138 55.409V67.5825Z" fill="#374A4B"/>
            <path d="M-83.7536 69.5664V58.5876C-84.3554 58.5876 -84.7991 58.6102 -85.085 58.6553C-85.3708 58.7003 -85.6341 58.8206 -85.8748 59.016C-86.1004 59.2113 -86.2433 59.4969 -86.3035 59.8726C-86.3637 60.2483 -86.3938 60.7894 -86.3938 61.4958H-86.9579C-86.9579 60.9247 -87.0181 60.3986 -87.1384 59.9177C-87.2588 59.4217 -87.3791 59.0761 -87.4995 58.8807L-87.68 58.5876V58.024L-77.5255 58.024V58.5876C-78.0219 59.2339 -78.2702 60.2033 -78.2702 61.4958H-78.8117C-78.8117 60.7894 -78.8418 60.2483 -78.902 59.8726C-78.9622 59.4969 -79.1126 59.2113 -79.3533 59.016C-79.579 58.8206 -79.8347 58.7003 -80.1205 58.6553C-80.4064 58.6102 -80.8502 58.5876 -81.4519 58.5876V69.5664H-83.7536Z" fill="#374A4B"/>
            <path d="M-71.1494 68.4617C-70.5025 67.9808 -70.0737 67.5074 -69.8631 67.0415C-69.6525 66.5756 -69.5472 65.9444 -69.5472 65.1478C-69.5472 64.5016 -69.6901 63.8628 -69.976 63.2316C-70.2467 62.5854 -70.5551 62.0518 -70.9011 61.631C-71.2471 61.2102 -71.6308 60.7518 -72.052 60.2559C-72.4732 59.7599 -72.759 59.3842 -72.9095 59.1287C-73.6165 59.5946 -74.0904 60.0605 -74.3311 60.5264C-74.5718 60.9923 -74.6922 61.6235 -74.6922 62.42C-74.6922 63.0813 -74.5342 63.7426 -74.2183 64.4039C-73.9024 65.0501 -73.5564 65.5837 -73.1803 66.0045C-72.7891 66.4103 -72.3905 66.8536 -71.9843 67.3346C-71.5631 67.8005 -71.2848 68.1762 -71.1494 68.4617ZM-71.894 57.7986C-70.5852 58.3697 -69.4645 59.2865 -68.5318 60.5489C-67.584 61.7963 -67.1101 62.8935 -67.1101 63.8403C-67.1101 64.4114 -67.2756 65.0652 -67.6066 65.8016C-67.9225 66.523 -68.4941 67.2895 -69.3216 68.101C-70.1339 68.8976 -71.1042 69.4912 -72.2325 69.882C-73.5413 69.3109 -74.6696 68.4016 -75.6174 67.1542C-76.5501 65.8918 -77.0164 64.7871 -77.0164 63.8403C-77.0164 63.2692 -76.8585 62.6229 -76.5425 61.9015C-76.2116 61.1651 -75.6399 60.3986 -74.8276 59.6021C-74.0002 58.7905 -73.0223 58.1894 -71.894 57.7986Z" fill="#374A4B"/>
            <path d="M-57.4845 69.5664L-65.8112 69.5664V58.024H-58.2743V58.5876C-58.7708 59.2339 -59.019 60.2033 -59.019 61.4958H-59.5606C-59.5606 60.2483 -59.711 59.4518 -60.0119 59.1061C-60.2977 58.7605 -60.9521 58.5876 -61.9751 58.5876H-63.487L-63.487 63.0062C-61.8322 63.0513 -60.5986 63.2542 -59.7862 63.6149C-58.9588 63.9756 -58.3721 64.6143 -58.0261 65.5311C-57.6651 66.4328 -57.4845 67.7779 -57.4845 69.5664ZM-63.487 69.0028L-59.7862 69.0028C-59.8163 67.1993 -60.0946 65.8843 -60.6212 65.0577C-61.1477 64.2311 -62.103 63.7501 -63.487 63.6149V69.0028Z" fill="#374A4B"/>
            <path d="M-45.4219 58.024H-43.0976L-43.0976 69.5664H-45.4219L-45.4219 58.024ZM-55.96 58.024L-53.6357 58.024L-53.6357 62.1721L-51.8756 61.1576C-51.2288 61.6836 -50.4013 62.6981 -49.3934 64.201C-48.3704 65.7039 -47.4603 67.4924 -46.663 69.5664H-55.96L-55.96 58.024ZM-53.6357 69.0028H-49.7093C-50.0854 67.56 -50.5593 66.2374 -51.131 65.0351C-51.7026 63.8328 -52.2292 62.916 -52.7106 62.2848L-53.6357 62.8033V69.0028Z" fill="#374A4B"/>
            <path d="M-33.5271 69.5664H-35.8514L-35.8514 58.024H-33.5271V61.4958L-29.6007 64.2235V58.024H-27.299L-27.299 69.5664L-29.6007 69.5664L-29.6007 65.1253L-33.5271 62.3975L-33.5271 69.5664Z" fill="#374A4B"/>
            <path d="M-19.614 58.4073L-17.6508 69.5664H-19.9977L-20.2684 68.1687C-21.1711 69.2508 -22.3445 69.7918 -23.7887 69.7918C-24.6462 69.7918 -25.263 69.5288 -25.6391 69.0028C-26.0001 68.4768 -26.1806 67.8831 -26.1806 67.2218C-26.1806 65.2831 -24.6537 63.0362 -21.5998 60.4813L-22.0511 58.024H-20.1556C-19.8397 58.024 -19.6592 58.1518 -19.614 58.4073ZM-20.4264 67.1768L-21.5096 61.09C-23.1794 62.4877 -24.0143 63.968 -24.0143 65.5311C-24.0143 66.1172 -23.8639 66.6883 -23.563 67.2444C-23.2622 67.7854 -22.8033 68.056 -22.1865 68.056C-21.4343 68.056 -20.8476 67.7629 -20.4264 67.1768Z" fill="#374A4B"/>
            <path d="M-12.3804 56.6038C-14.5918 56.6038 -15.6976 56.1679 -15.6976 55.2963C-15.6976 54.9806 -15.6223 54.7327 -15.4719 54.5523C-15.3215 54.3569 -15.1334 54.2592 -14.9078 54.2592C-14.5918 54.2592 -14.3737 54.372 -14.2534 54.5974C-14.133 54.8228 -14.0728 55.176 -14.0728 55.657C-13.6516 55.9124 -13.0875 56.0402 -12.3804 56.0402C-12.0645 56.0402 -11.7636 56.0101 -11.4778 55.95C-11.1769 55.8899 -10.9663 55.8298 -10.846 55.7697L-10.6654 55.657C-10.6654 55.176 -10.6053 54.8228 -10.4849 54.5974C-10.3646 54.372 -10.1464 54.2592 -9.8305 54.2592C-9.60485 54.2592 -9.4168 54.3569 -9.26636 54.5523C-9.11592 54.7327 -9.04071 54.9806 -9.04071 55.2963C-9.04071 56.1679 -10.1539 56.6038 -12.3804 56.6038ZM-10.3946 58.024H-8.09295L-8.09295 69.5664H-10.3946L-10.3946 61.9466L-14.3211 66.6357L-14.3211 69.5664H-16.6453L-16.6453 58.024H-14.3211V65.486L-10.3946 60.8194V58.024Z" fill="#374A4B"/>
            <path d="M-3.63489 69.5664L-3.63489 58.5876C-4.23664 58.5876 -4.68043 58.6102 -4.96627 58.6553C-5.2521 58.7003 -5.51536 58.8206 -5.75606 59.016C-5.98172 59.2113 -6.12463 59.4969 -6.18481 59.8726C-6.24498 60.2483 -6.27507 60.7894 -6.27507 61.4958H-6.83921C-6.83921 60.9247 -6.89939 60.3986 -7.01974 59.9177C-7.14008 59.4217 -7.26043 59.0761 -7.38078 58.8807L-7.56131 58.5876V58.024L2.59321 58.024V58.5876C2.09677 59.2339 1.84855 60.2033 1.84855 61.4958H1.30697C1.30697 60.7894 1.27688 60.2483 1.21671 59.8726C1.15653 59.4969 1.0061 59.2113 0.765397 59.016C0.539741 58.8206 0.283998 58.7003 -0.00183301 58.6553C-0.287664 58.6102 -0.731454 58.5876 -1.3332 58.5876L-1.3332 69.5664H-3.63489Z" fill="#374A4B"/>
            <path d="M9.48836 58.024H11.7901L11.7901 69.5664H9.48836L9.48836 61.9466L5.56195 66.6357L5.56195 69.5664H3.23769L3.23769 58.024H5.56195V65.486L9.48836 60.8194V58.024Z" fill="#374A4B"/>
            <path d="M30.6125 58.4073L32.5757 69.5664H30.2063L28.6718 60.7518C28.5063 61.0223 28.2205 61.4281 27.8143 61.9692C27.4232 62.5102 27.0847 63.0287 26.7989 63.5247C26.5131 64.0206 26.2949 64.5316 26.1445 65.0577L26.9343 69.5664H24.5875L23.0981 61.1576C21.5938 63.3218 20.8416 65.8241 20.8416 68.6646C20.8416 69.0253 20.8717 69.3259 20.9318 69.5664H18.4722C18.5023 68.5143 18.5549 67.7103 18.6301 67.1542C18.7054 66.5981 18.8859 65.9369 19.1717 65.1704C19.4575 64.4039 19.8938 63.6374 20.4805 62.8709C21.0672 62.0894 21.8796 61.1576 22.9176 60.0755L22.534 58.024H24.4295C24.7454 58.024 24.9259 58.1518 24.9711 58.4073L25.806 63.164C25.8963 63.0588 26.0843 62.8484 26.3701 62.5328C26.671 62.2021 26.8891 61.9541 27.0245 61.7888C27.1599 61.6235 27.3329 61.4056 27.5435 61.1351C27.7692 60.8645 27.9572 60.6166 28.1077 60.3911C28.2581 60.1657 28.386 59.9402 28.4913 59.7148L28.1754 58.024H30.116C30.4019 58.024 30.5673 58.1518 30.6125 58.4073Z" fill="#374A4B"/>
            <path d="M39.4483 68.4617C40.0951 67.9808 40.5239 67.5074 40.7345 67.0415C40.9451 66.5756 41.0504 65.9444 41.0504 65.1478C41.0504 64.5016 40.9075 63.8628 40.6217 63.2316C40.3509 62.5854 40.0425 62.0518 39.6965 61.631C39.3505 61.2102 38.9669 60.7518 38.5456 60.2559C38.1244 59.7599 37.8386 59.3842 37.6881 59.1287C36.9811 59.5946 36.5072 60.0605 36.2665 60.5264C36.0258 60.9923 35.9055 61.6235 35.9055 62.42C35.9055 63.0813 36.0634 63.7426 36.3793 64.4039C36.6953 65.0501 37.0413 65.5837 37.4174 66.0045C37.8085 66.4103 38.2072 66.8536 38.6133 67.3346C39.0346 67.8005 39.3129 68.1762 39.4483 68.4617ZM38.7036 57.7986C40.0124 58.3697 41.1332 59.2865 42.0659 60.5489C43.0136 61.7963 43.4875 62.8935 43.4875 63.8403C43.4875 64.4114 43.322 65.0652 42.9911 65.8016C42.6751 66.523 42.1035 67.2895 41.2761 68.101C40.4637 68.8976 39.4934 69.4912 38.3651 69.882C37.0563 69.3109 35.928 68.4016 34.9803 67.1542C34.0476 65.8918 33.5812 64.7871 33.5812 63.8403C33.5812 63.2692 33.7392 62.6229 34.0551 61.9015C34.386 61.1651 34.9577 60.3986 35.7701 59.6021C36.5975 58.7905 37.5753 58.1894 38.7036 57.7986Z" fill="#374A4B"/>
            <path d="M51.6237 58.4073L53.587 69.5664H51.2176L49.7282 61.0223C47.8779 63.3218 46.9527 65.9068 46.9527 68.7774C46.9527 69.1381 46.9602 69.4011 46.9752 69.5664H44.5156C44.5758 67.7479 44.9067 66.245 45.5085 65.0577C46.1253 63.8704 47.4717 62.2096 49.5477 60.0755L49.1867 58.024H51.0822C51.3981 58.024 51.5786 58.1518 51.6237 58.4073Z" fill="#374A4B"/>
            <path d="M60.437 68.4617C61.0838 67.9808 61.5126 67.5074 61.7232 67.0415C61.9338 66.5756 62.0391 65.9444 62.0391 65.1478C62.0391 64.5016 61.8962 63.8628 61.6104 63.2316C61.3396 62.5854 61.0312 62.0518 60.6852 61.631C60.3392 61.2102 59.9556 60.7518 59.5343 60.2559C59.1131 59.7599 58.8273 59.3842 58.6768 59.1287C57.9698 59.5946 57.4959 60.0605 57.2552 60.5264C57.0145 60.9923 56.8942 61.6235 56.8942 62.42C56.8942 63.0813 57.0521 63.7426 57.368 64.4039C57.684 65.0501 58.03 65.5837 58.4061 66.0045C58.7972 66.4103 59.1958 66.8536 59.602 67.3346C60.0233 67.8005 60.3016 68.1762 60.437 68.4617ZM59.6923 57.7986C61.0011 58.3697 62.1219 59.2865 63.0546 60.5489C64.0023 61.7963 64.4762 62.8935 64.4762 63.8403C64.4762 64.4114 64.3107 65.0652 63.9798 65.8016C63.6638 66.523 63.0922 67.2895 62.2648 68.101C61.4524 68.8976 60.4821 69.4912 59.3538 69.882C58.045 69.3109 56.9167 68.4016 55.969 67.1542C55.0363 65.8918 54.5699 64.7871 54.5699 63.8403C54.5699 63.2692 54.7279 62.6229 55.0438 61.9015C55.3747 61.1651 55.9464 60.3986 56.7588 59.6021C57.5862 58.7905 58.564 58.1894 59.6923 57.7986Z" fill="#374A4B"/>
            <path d="M75.0496 69.5664H68.7763C68.2648 69.9872 67.8511 70.5358 67.5352 71.2121C67.2343 71.9034 67.0839 72.5421 67.0839 73.1283H66.5198C66.5198 72.5572 66.422 71.971 66.2264 71.3699C66.0308 70.7687 65.8277 70.3178 65.6171 70.0173L65.3238 69.5664V69.0028H67.9188L70.8749 58.024H73.2217L76.1778 69.0028H78.5021V69.5664C78.4118 69.6866 78.299 69.8519 78.1636 70.0623C78.0282 70.2878 77.8477 70.7086 77.622 71.3248C77.3964 71.956 77.2836 72.5572 77.2836 73.1283H76.742C76.742 72.5421 76.584 71.9034 76.2681 71.2121C75.9672 70.5358 75.561 69.9872 75.0496 69.5664ZM68.4604 69.0028H73.7859L71.1231 59.1061L68.4604 69.0028Z" fill="#374A4B"/>
            <path d="M90.3165 58.024H92.6408V69.5664H90.3165V58.024ZM79.7784 58.024H82.1026V62.1721L83.8628 61.1576C84.5096 61.6836 85.3371 62.6981 86.345 64.201C87.368 65.7039 88.2781 67.4924 89.0754 69.5664L79.7784 69.5664V58.024ZM82.1026 69.0028L86.0291 69.0028C85.653 67.56 85.1791 66.2374 84.6074 65.0351C84.0358 63.8328 83.5092 62.916 83.0278 62.2848L82.1026 62.8033V69.0028Z" fill="#374A4B"/>
            <path d="M95.271 58.024H96.6701L98.7236 61.5634L100.461 58.5425C100.536 58.4073 100.612 58.3171 100.687 58.272C100.762 58.2119 100.973 58.1593 101.319 58.1142C101.665 58.0541 102.176 58.024 102.853 58.024C103.079 58.024 103.192 58.1142 103.192 58.2946C103.192 58.5801 103.139 59.0686 103.034 59.7599C102.943 60.4362 102.838 60.7744 102.718 60.7744H101.386C100.408 60.7744 99.8368 60.9397 99.6713 61.2703L99.1072 62.2622L103.35 69.5664H100.687L97.8209 64.6068L95.0454 69.5664H94.1202L97.4147 63.8628L94.7294 59.2414C94.6091 59.046 94.5489 58.8431 94.5489 58.6327C94.5489 58.2269 94.7896 58.024 95.271 58.024Z" fill="#374A4B"/>
            <path d="M-85.7859 79.2196C-86.523 78.3479 -86.9518 77.8068 -87.0721 77.5964C-87.7792 78.0623 -88.253 78.5282 -88.4937 78.9941C-88.7344 79.46 -88.8548 80.0913 -88.8548 80.8878C-88.8548 81.5491 -88.6968 82.2104 -88.3809 82.8716C-88.065 83.5179 -87.7115 84.0514 -87.3203 84.4722C-86.9292 84.878 -86.5305 85.3214 -86.1243 85.8023C-85.7031 86.2682 -85.4248 86.644 -85.2894 86.9295C-84.5222 86.3584 -84.0483 85.7723 -83.8678 85.1711L-82.6041 85.6445C-83.5519 86.8919 -84.808 87.7937 -86.3726 88.3498C-87.6814 87.7786 -88.8097 86.8694 -89.7574 85.622C-90.6901 84.3595 -91.1565 83.2549 -91.1565 82.3081C-91.1565 81.737 -90.9985 81.0907 -90.6826 80.3693C-90.3516 79.6329 -89.78 78.8664 -88.9676 78.0698C-88.1553 77.2583 -87.1849 76.6571 -86.0567 76.2664C-85.1841 76.6421 -84.3417 77.2357 -83.5293 78.0473L-85.7859 79.2196Z" fill="#374A4B"/>
            <path d="M-79.2743 88.0341H-81.5986V76.4918H-73.0462V88.0341H-75.3479V77.0554H-79.2743V88.0341Z" fill="#374A4B"/>
            <path d="M-65.2485 77.0554L-69.0846 78.8363V81.4289L-66.6475 80.3017L-65.7223 81.6317L-69.0846 83.2098V85.9601C-69.0846 86.4411 -68.9191 86.6815 -68.5882 86.6815C-68.4829 86.6815 -68.4076 86.6665 -68.3625 86.6364L-66.0834 85.5318L-64.6166 86.659L-67.7758 88.1243C-68.1369 88.2896 -68.513 88.3723 -68.9041 88.3723C-69.5811 88.3723 -70.1678 88.1469 -70.6642 87.696C-71.1456 87.2451 -71.3863 86.6139 -71.3863 85.8023V79.1294C-71.3863 78.4531 -71.1005 77.9947 -70.5288 77.7542L-67.2342 76.2213L-65.2485 77.0554Z" fill="#374A4B"/>
            <path d="M-56.5706 76.4918H-54.2464V87.4706H-50.8164V88.0341C-50.9067 88.1544 -51.0195 88.3197 -51.1549 88.5301C-51.2903 88.7555 -51.4708 89.1764 -51.6965 89.7925C-51.9071 90.4238 -52.0124 91.0249 -52.0124 91.596H-52.554C-52.554 91.0099 -52.7119 90.3712 -53.0278 89.6798C-53.3287 89.0035 -53.7349 88.455 -54.2464 88.0341H-62.7987V76.4918H-60.497V87.4706H-56.5706V76.4918Z" fill="#374A4B"/>
            <path d="M-43.831 76.4918H-41.5293V88.0341H-43.831V80.4144L-47.7574 85.1035V88.0341H-50.0817V76.4918H-47.7574V83.9537L-43.831 79.2872V76.4918Z" fill="#374A4B"/>
            <path d="M-33.8444 76.875L-31.8812 88.0341H-34.228L-34.4988 86.6364C-35.4014 87.7185 -36.5748 88.2596 -38.019 88.2596C-38.8765 88.2596 -39.4933 87.9966 -39.8694 87.4706C-40.2304 86.9445 -40.411 86.3509 -40.411 85.6896C-40.411 83.7508 -38.884 81.504 -35.8301 78.9491L-36.2814 76.4918H-34.3859C-34.07 76.4918 -33.8895 76.6195 -33.8444 76.875ZM-34.6567 85.6445L-35.7399 79.5577C-37.4097 80.9554 -38.2447 82.4358 -38.2447 83.9988C-38.2447 84.585 -38.0942 85.1561 -37.7933 85.7121C-37.4925 86.2532 -37.0336 86.5237 -36.4168 86.5237C-35.6647 86.5237 -35.078 86.2307 -34.6567 85.6445Z" fill="#374A4B"/>
            <path d="M-24.0383 76.875L-22.0751 88.0341H-24.4444L-25.9338 79.4901C-27.7842 81.7896 -28.7093 84.3746 -28.7093 87.2451C-28.7093 87.6058 -28.7018 87.8688 -28.6868 88.0341H-31.1464C-31.0863 86.2156 -30.7553 84.7127 -30.1535 83.5254C-29.5367 82.3381 -28.1903 80.6774 -26.1143 78.5433L-26.4753 76.4918H-24.5798C-24.2639 76.4918 -24.0834 76.6195 -24.0383 76.875Z" fill="#374A4B"/>
            <path d="M-14.706 76.4918H-12.4043V88.0341H-14.706V80.4144L-18.6324 85.1035V88.0341H-20.9567V76.4918H-18.6324V83.9537L-14.706 79.2872V76.4918Z" fill="#374A4B"/>
            <path d="M-6.07333 79.2196C-6.81047 78.3479 -7.23922 77.8068 -7.35957 77.5964C-8.06662 78.0623 -8.5405 78.5282 -8.7812 78.9941C-9.0219 79.46 -9.14225 80.0913 -9.14225 80.8878C-9.14225 81.5491 -8.98429 82.2104 -8.66837 82.8716C-8.35245 83.5179 -7.99893 84.0514 -7.60779 84.4722C-7.21665 84.878 -6.81799 85.3214 -6.41181 85.8023C-5.99059 86.2682 -5.71228 86.644 -5.57689 86.9295C-4.80965 86.3584 -4.33578 85.7723 -4.15525 85.1711L-2.89158 85.6445C-3.83933 86.8919 -5.09549 87.7937 -6.66003 88.3498C-7.96884 87.7786 -9.09712 86.8694 -10.0449 85.622C-10.9776 84.3595 -11.4439 83.2549 -11.4439 82.3081C-11.4439 81.737 -11.286 81.0907 -10.9701 80.3693C-10.6391 79.6329 -10.0674 78.8664 -9.25508 78.0698C-8.44272 77.2583 -7.4724 76.6571 -6.34412 76.2664C-5.47158 76.6421 -4.62913 77.2357 -3.81677 78.0473L-6.07333 79.2196Z" fill="#374A4B"/>
            <path d="M1.20543 88.0341V77.0554C0.603677 77.0554 0.159887 77.0779 -0.125944 77.123C-0.411775 77.1681 -0.67504 77.2883 -0.91574 77.4837C-1.1414 77.6791 -1.28431 77.9646 -1.34449 78.3404C-1.40466 78.7161 -1.43475 79.2571 -1.43475 79.9635H-1.99889C-1.99889 79.3924 -2.05906 78.8664 -2.17941 78.3855C-2.29976 77.8895 -2.42011 77.5438 -2.54046 77.3485L-2.72099 77.0554V76.4918H7.43353V77.0554C6.93709 77.7016 6.68887 78.671 6.68887 79.9635H6.14729C6.14729 79.2571 6.11721 78.7161 6.05703 78.3404C5.99686 77.9646 5.84642 77.6791 5.60572 77.4837C5.38006 77.2883 5.12432 77.1681 4.83849 77.123C4.55266 77.0779 4.10887 77.0554 3.50712 77.0554V88.0341H1.20543Z" fill="#374A4B"/>
            <path d="M13.8097 86.9295C14.4566 86.4486 14.8853 85.9752 15.0959 85.5093C15.3065 85.0434 15.4118 84.4121 15.4118 83.6156C15.4118 82.9693 15.2689 82.3306 14.9831 81.6994C14.7123 81.0531 14.4039 80.5196 14.0579 80.0988C13.7119 79.678 13.3283 79.2196 12.907 78.7236C12.4858 78.2277 12.2 77.8519 12.0496 77.5964C11.3425 78.0623 10.8686 78.5282 10.6279 78.9941C10.3872 79.46 10.2669 80.0913 10.2669 80.8878C10.2669 81.5491 10.4248 82.2104 10.7408 82.8716C11.0567 83.5179 11.4027 84.0514 11.7788 84.4722C12.1699 84.878 12.5686 85.3214 12.9747 85.8023C13.396 86.2682 13.6743 86.644 13.8097 86.9295ZM13.065 76.2664C14.3738 76.8375 15.4946 77.7542 16.4273 79.0167C17.375 80.2641 17.8489 81.3612 17.8489 82.3081C17.8489 82.8792 17.6834 83.5329 17.3525 84.2694C17.0366 84.9908 16.4649 85.7572 15.6375 86.5688C14.8251 87.3653 13.8548 87.959 12.7265 88.3498C11.4177 87.7786 10.2894 86.8694 9.34168 85.622C8.40897 84.3595 7.94262 83.2549 7.94262 82.3081C7.94262 81.737 8.10058 81.0907 8.41649 80.3693C8.74746 79.6329 9.31912 78.8664 10.1315 78.0698C10.9589 77.2583 11.9367 76.6571 13.065 76.2664Z" fill="#374A4B"/>
            <path d="M27.8581 88.0341H19.554V76.4918H27.2714C27.2714 77.7693 26.948 78.8438 26.3011 79.7155C25.6542 80.5722 24.7742 81.1959 23.6609 81.5867C25.3007 81.782 26.4064 82.3306 26.9781 83.2323C27.5648 84.1341 27.8581 85.7347 27.8581 88.0341ZM21.8557 87.4706H25.5564C25.5263 85.6671 25.248 84.352 24.7215 83.5254C24.195 82.6988 23.2397 82.2179 21.8557 82.0826V87.4706ZM21.8557 77.0554V81.4289C22.9388 81.3086 23.7136 80.9028 24.1799 80.2115C24.6463 79.5202 24.902 78.4681 24.9472 77.0554H21.8557Z" fill="#374A4B"/>
            <path d="M31.0976 86.411C31.0976 87.1625 30.9622 87.8989 30.6914 88.6203C30.4357 89.3417 30.2025 89.8527 29.9919 90.1532C29.7813 90.4538 29.5933 90.6868 29.4278 90.8521H28.8636C29.2096 90.0856 29.3826 89.4018 29.3826 88.8006C29.3826 88.6203 29.2849 88.2295 29.0893 87.6284C28.9088 87.0272 28.8185 86.4711 28.8185 85.9601C28.8185 85.8098 28.8937 85.7347 29.0442 85.7347H30.872C31.0224 85.7347 31.0976 85.8098 31.0976 85.9601V86.411Z" fill="#374A4B"/>
            <path d="M39.9912 88.0341H37.6669L37.6669 76.4918H39.9912V79.9635L43.9176 82.6913L43.9176 76.4918H46.2193L46.2193 88.0341L43.9176 88.0341V83.593L39.9912 80.8653L39.9912 88.0341Z" fill="#374A4B"/>
            <path d="M54.3781 89.0486C54.3781 90.2058 54.4909 91.1076 54.7166 91.7538C54.9422 92.4001 55.0551 92.8209 55.0551 93.0163C55.0551 93.1816 55.0099 93.3169 54.9197 93.4221C54.8444 93.5273 54.7467 93.5799 54.6263 93.5799C54.0697 93.5799 53.7914 92.0394 53.7914 88.9584V88.0341H51.422L47.2925 77.0554C47.2474 76.9201 47.2248 76.8074 47.2248 76.7172C47.2248 76.5519 47.3451 76.4693 47.5858 76.4693H48.8495C49.1203 76.4693 49.3084 76.5068 49.4137 76.582C49.519 76.6421 49.6092 76.7849 49.6844 77.0103L53.5432 87.3127H53.814C53.8892 84.6075 54.1073 82.3531 54.4684 80.5497C54.8294 78.7462 55.1905 77.5589 55.5515 76.9878C55.7471 76.6571 56.4692 76.4843 57.7178 76.4693C57.9134 76.4693 58.0112 76.5594 58.0112 76.7398C58.0112 77.0404 57.966 77.5288 57.8758 78.2051C57.7855 78.8814 57.6802 79.2196 57.5598 79.2196H56.8603C56.394 79.2196 56.0705 79.2722 55.89 79.3774C55.7095 79.4676 55.5515 79.6629 55.4161 79.9635C55.2807 80.2491 55.1378 80.6774 54.9874 81.2485C54.852 81.8196 54.7166 82.804 54.5812 84.2017C54.4458 85.5994 54.3781 87.2151 54.3781 89.0486Z" fill="#374A4B"/>
            <path d="M64.8386 76.4918H67.1629V81.271C68.2761 80.8953 69.1035 80.3317 69.6451 79.5803C70.2017 78.8288 70.48 77.7993 70.48 76.4918H72.8043V77.0554C72.8043 78.2427 72.3981 79.1745 71.5857 79.8508C70.7884 80.5271 69.6075 81.1132 68.0429 81.6092C69.5774 81.9098 70.7583 82.556 71.5857 83.548C72.4282 84.5399 72.8494 86.0353 72.8494 88.0341H70.5252C70.5252 86.1555 70.1942 84.7428 69.5323 83.7959C68.8854 82.8341 68.0956 82.2555 67.1629 82.0601V88.0341H64.8386V82.0601C63.9059 82.2555 63.1086 82.8341 62.4467 83.7959C61.7998 84.7428 61.4763 86.1555 61.4763 88.0341H59.1747C59.1747 86.0353 59.5884 84.5399 60.4158 83.548C61.2582 82.556 62.4467 81.9098 63.9811 81.6092C62.4166 81.1132 61.2281 80.5271 60.4158 79.8508C59.6184 79.1745 59.2198 78.2427 59.2198 77.0554V76.4918H61.5215C61.5215 77.7993 61.7923 78.8288 62.3338 79.5803C62.8905 80.3317 63.7254 80.8953 64.8386 81.271V76.4918Z" fill="#374A4B"/>
            <path d="M76.6305 88.0341H74.3062L74.3062 76.4918H76.6305V79.9635L80.5569 82.6913L80.5569 76.4918H82.8586L82.8586 88.0341H80.5569V83.593L76.6305 80.8653L76.6305 88.0341Z" fill="#374A4B"/>
            <path d="M89.9568 86.9295C90.6037 86.4486 91.0324 85.9752 91.2431 85.5093C91.4537 85.0434 91.559 84.4121 91.559 83.6156C91.559 82.9693 91.4161 82.3306 91.1302 81.6994C90.8594 81.0531 90.551 80.5196 90.205 80.0988C89.859 79.678 89.4754 79.2196 89.0542 78.7236C88.633 78.2277 88.3471 77.8519 88.1967 77.5964C87.4896 78.0623 87.0158 78.5282 86.7751 78.9941C86.5344 79.46 86.414 80.0913 86.414 80.8878C86.414 81.5491 86.572 82.2104 86.8879 82.8716C87.2038 83.5179 87.5498 84.0514 87.9259 84.4722C88.3171 84.878 88.7157 85.3214 89.1219 85.8023C89.5431 86.2682 89.8214 86.644 89.9568 86.9295ZM89.2122 76.2664C90.521 76.8375 91.6417 77.7542 92.5744 79.0167C93.5222 80.2641 93.9961 81.3612 93.9961 82.3081C93.9961 82.8792 93.8306 83.5329 93.4996 84.2694C93.1837 84.9908 92.612 85.7572 91.7846 86.5688C90.9723 87.3653 90.0019 87.959 88.8737 88.3498C87.5649 87.7786 86.4366 86.8694 85.4888 85.622C84.5561 84.3595 84.0898 83.2549 84.0898 82.3081C84.0898 81.737 84.2477 81.0907 84.5636 80.3693C84.8946 79.6329 85.4663 78.8664 86.2786 78.0698C87.106 77.2583 88.0839 76.6571 89.2122 76.2664Z" fill="#374A4B"/>
            <path d="M-85.238 106.502H-91.5112C-92.0227 106.923 -92.4364 107.471 -92.7523 108.148C-93.0532 108.839 -93.2036 109.478 -93.2036 110.064H-93.7678C-93.7678 109.493 -93.8656 108.907 -94.0611 108.305C-94.2567 107.704 -94.4598 107.253 -94.6704 106.953L-94.9637 106.502V105.938H-92.3687L-89.4126 94.9596H-87.0658L-84.1097 105.938L-81.7854 105.938V106.502C-81.8757 106.622 -81.9885 106.787 -82.1239 106.998C-82.2593 107.223 -82.4398 107.644 -82.6655 108.26C-82.8911 108.892 -83.004 109.493 -83.004 110.064H-83.5456C-83.5456 109.478 -83.7035 108.839 -84.0194 108.148C-84.3203 107.471 -84.7265 106.923 -85.238 106.502ZM-91.8271 105.938H-86.5016L-89.1644 96.0416L-91.8271 105.938Z" fill="#374A4B"/>
            <path d="M-74.1005 107.516C-74.1005 108.674 -73.9877 109.575 -73.762 110.222C-73.5364 110.868 -73.4235 111.289 -73.4235 111.484C-73.4235 111.649 -73.4687 111.785 -73.5589 111.89C-73.6341 111.995 -73.7319 112.048 -73.8523 112.048C-74.4089 112.048 -74.6872 110.507 -74.6872 107.426V106.502H-77.0566L-81.1861 95.5231C-81.2312 95.3879 -81.2538 95.2752 -81.2538 95.185C-81.2538 95.0197 -81.1334 94.937 -80.8927 94.937H-79.6291C-79.3583 94.937 -79.1702 94.9746 -79.0649 95.0497C-78.9596 95.1098 -78.8694 95.2526 -78.7941 95.4781L-74.9354 105.781H-74.6646C-74.5894 103.075 -74.3713 100.821 -74.0102 99.0174C-73.6492 97.2139 -73.2881 96.0266 -72.9271 95.4555C-72.7315 95.1249 -72.0094 94.952 -70.7608 94.937C-70.5652 94.937 -70.4674 95.0272 -70.4674 95.2075C-70.4674 95.5081 -70.5126 95.9966 -70.6028 96.6729C-70.6931 97.3492 -70.7984 97.6873 -70.9187 97.6873H-71.6183C-72.0846 97.6873 -72.4081 97.7399 -72.5886 97.8451C-72.7691 97.9353 -72.9271 98.1307 -73.0625 98.4313C-73.1979 98.7168 -73.3408 99.1452 -73.4912 99.7163C-73.6266 100.287 -73.762 101.272 -73.8974 102.669C-74.0328 104.067 -74.1005 105.683 -74.1005 107.516Z" fill="#374A4B"/>
            <path d="M-57.5473 95.3428L-55.5841 106.502H-57.9535L-59.4879 97.6873C-59.6534 97.9579 -59.9392 98.3636 -60.3454 98.9047C-60.7365 99.4457 -61.075 99.9642 -61.3609 100.46C-61.6467 100.956 -61.8648 101.467 -62.0153 101.993L-61.2255 106.502H-63.5723L-65.0616 98.0931C-66.566 100.257 -67.3182 102.76 -67.3182 105.6C-67.3182 105.961 -67.2881 106.261 -67.2279 106.502L-69.6876 106.502C-69.6575 105.45 -69.6048 104.646 -69.5296 104.09C-69.4544 103.534 -69.2739 102.872 -68.988 102.106C-68.7022 101.339 -68.2659 100.573 -67.6792 99.8064C-67.0925 99.0249 -66.2802 98.0931 -65.2421 97.011L-65.6258 94.9596H-63.7302C-63.4143 94.9596 -63.2338 95.0873 -63.1887 95.3428L-62.3537 100.1C-62.2635 99.9943 -62.0754 99.7839 -61.7896 99.4683C-61.4887 99.1376 -61.2706 98.8897 -61.1352 98.7243C-60.9998 98.559 -60.8268 98.3411 -60.6162 98.0706C-60.3905 97.8001 -60.2025 97.5521 -60.0521 97.3266C-59.9016 97.1012 -59.7737 96.8758 -59.6684 96.6503L-59.9844 94.9596H-58.0437C-57.7579 94.9596 -57.5924 95.0873 -57.5473 95.3428Z" fill="#374A4B"/>
            <path d="M-48.1248 95.3428L-46.1616 106.502H-48.5084L-48.7792 105.104C-49.6818 106.186 -50.8552 106.727 -52.2994 106.727C-53.1569 106.727 -53.7737 106.464 -54.1498 105.938C-54.5108 105.412 -54.6914 104.819 -54.6914 104.157C-54.6914 102.219 -53.1644 99.9718 -50.1105 97.4168L-50.5619 94.9596H-48.6664C-48.3504 94.9596 -48.1699 95.0873 -48.1248 95.3428ZM-48.9371 104.112L-50.0203 98.0255C-51.6901 99.4232 -52.5251 100.904 -52.5251 102.467C-52.5251 103.053 -52.3746 103.624 -52.0738 104.18C-51.7729 104.721 -51.314 104.991 -50.6973 104.991C-49.9451 104.991 -49.3584 104.698 -48.9371 104.112Z" fill="#374A4B"/>
            <path d="M-42.0646 106.502L-42.0646 95.5231C-42.6663 95.5231 -43.1101 95.5457 -43.3959 95.5908C-43.6818 95.6359 -43.945 95.7561 -44.1857 95.9515C-44.4114 96.1469 -44.5543 96.4324 -44.6145 96.8081C-44.6746 97.1839 -44.7047 97.7249 -44.7047 98.4313H-45.2689C-45.2689 97.8602 -45.329 97.3342 -45.4494 96.8532C-45.5697 96.3573 -45.6901 96.0116 -45.8104 95.8162L-45.991 95.5231V94.9596H-35.8365V95.5231C-36.3329 96.1694 -36.5811 97.1388 -36.5811 98.4313H-37.1227C-37.1227 97.7249 -37.1528 97.1839 -37.213 96.8081C-37.2731 96.4324 -37.4236 96.1469 -37.6643 95.9515C-37.8899 95.7561 -38.1457 95.6359 -38.4315 95.5908C-38.7173 95.5457 -39.1611 95.5231 -39.7629 95.5231L-39.7629 106.502H-42.0646Z" fill="#374A4B"/>
            <path d="M-35.192 94.9596H-32.8677L-32.8677 99.1076L-31.1076 98.0931C-30.4607 98.6191 -29.6333 99.6336 -28.6254 101.137C-27.6024 102.639 -26.6923 104.428 -25.895 106.502H-35.192L-35.192 94.9596ZM-32.8677 105.938H-28.9413C-29.3174 104.496 -29.7913 103.173 -30.3629 101.971C-30.9346 100.768 -31.4611 99.8515 -31.9425 99.2203L-32.8677 99.7388V105.938Z" fill="#374A4B"/>
            <path d="M-19.1451 94.9596H-16.8434L-16.8434 99.7388C-15.7302 99.3631 -14.8953 98.7995 -14.3387 98.048C-13.782 97.2966 -13.5037 96.2671 -13.5037 94.9596L-11.202 94.9596V95.5231C-11.202 96.7104 -11.6082 97.6422 -12.4206 98.3186C-13.2179 98.9949 -14.3988 99.581 -15.9634 100.077C-14.4289 100.378 -13.248 101.024 -12.4206 102.016C-11.5781 103.008 -11.1569 104.503 -11.1569 106.502L-13.4586 106.502C-13.4586 104.623 -13.7896 103.211 -14.4515 102.264C-15.1134 101.302 -15.9107 100.723 -16.8434 100.528V106.502H-19.1451L-19.1451 94.9596Z" fill="#374A4B"/>
            <path d="M-3.3817 95.3428L-1.41849 106.502H-3.76532L-4.0361 105.104C-4.93873 106.186 -6.11214 106.727 -7.55634 106.727C-8.41383 106.727 -9.03062 106.464 -9.40672 105.938C-9.76777 105.412 -9.94829 104.819 -9.94829 104.157C-9.94829 102.219 -8.42135 99.9718 -5.36747 97.4168L-5.81879 94.9596H-3.92328C-3.60736 94.9596 -3.42683 95.0873 -3.3817 95.3428ZM-4.19406 104.112L-5.27721 98.0255C-6.94707 99.4232 -7.78199 100.904 -7.78199 102.467C-7.78199 103.053 -7.63156 103.624 -7.33068 104.18C-7.02981 104.721 -6.57097 104.991 -5.95418 104.991C-5.20199 104.991 -4.61529 104.698 -4.19406 104.112Z" fill="#374A4B"/>
            <path d="M-0.00679568 94.9596H2.2949L2.2949 99.7388C3.40813 99.3631 4.24306 98.7995 4.79968 98.048C5.3563 97.2966 5.6346 96.2671 5.6346 94.9596H7.9363V95.5231C7.9363 96.7104 7.53012 97.6422 6.71775 98.3186C5.92044 98.9949 4.7395 99.581 3.17495 100.077C4.70942 100.378 5.89035 101.024 6.71775 102.016C7.5602 103.008 7.98143 104.503 7.98143 106.502H5.67974C5.67974 104.623 5.34877 103.211 4.68685 102.264C4.02493 101.302 3.22761 100.723 2.2949 100.528V106.502H-0.00679568L-0.00679568 94.9596Z" fill="#374A4B"/>
            <path d="M26.8941 95.3428L28.8573 106.502H26.4879L24.9535 97.6873C24.788 97.9579 24.5022 98.3636 24.096 98.9047C23.7048 99.4457 23.3664 99.9642 23.0805 100.46C22.7947 100.956 22.5766 101.467 22.4261 101.993L23.2159 106.502H20.8691L19.3798 98.0931C17.8754 100.257 17.1232 102.76 17.1232 105.6C17.1232 105.961 17.1533 106.261 17.2135 106.502H14.7538C14.7839 105.45 14.8366 104.646 14.9118 104.09C14.987 103.534 15.1675 102.872 15.4534 102.106C15.7392 101.339 16.1755 100.573 16.7622 99.8064C17.3489 99.0249 18.1612 98.0931 19.1992 97.011L18.8156 94.9596H20.7111C21.0271 94.9596 21.2076 95.0873 21.2527 95.3428L22.0876 100.1C22.1779 99.9943 22.366 99.7839 22.6518 99.4683C22.9527 99.1376 23.1708 98.8897 23.3062 98.7243C23.4416 98.559 23.6146 98.3411 23.8252 98.0706C24.0509 97.8001 24.2389 97.5521 24.3893 97.3266C24.5398 97.1012 24.6676 96.8758 24.7729 96.6503L24.457 94.9596H26.3977C26.6835 94.9596 26.849 95.0873 26.8941 95.3428Z" fill="#374A4B"/>
            <path d="M35.7299 105.397C36.3768 104.916 36.8055 104.443 37.0161 103.977C37.2267 103.511 37.3321 102.88 37.3321 102.083C37.3321 101.437 37.1891 100.798 36.9033 100.167C36.6325 99.5209 36.3241 98.9874 35.9781 98.5665C35.6321 98.1457 35.2485 97.6873 34.8273 97.1914C34.406 96.6954 34.1202 96.3197 33.9698 96.0642C33.2627 96.5301 32.7888 96.996 32.5481 97.4619C32.3074 97.9278 32.1871 98.559 32.1871 99.3556C32.1871 100.017 32.3451 100.678 32.661 101.339C32.9769 101.986 33.3229 102.519 33.699 102.94C34.0901 103.346 34.4888 103.789 34.895 104.27C35.3162 104.736 35.5945 105.112 35.7299 105.397ZM34.9852 94.7341C36.294 95.3052 37.4148 96.222 38.3475 97.4844C39.2953 98.7319 39.7691 99.829 39.7691 100.776C39.7691 101.347 39.6037 102.001 39.2727 102.737C38.9568 103.459 38.3851 104.225 37.5577 105.037C36.7453 105.833 35.775 106.427 34.6467 106.818C33.3379 106.246 32.2097 105.337 31.2619 104.09C30.3292 102.827 29.8628 101.723 29.8628 100.776C29.8628 100.205 30.0208 99.5585 30.3367 98.8371C30.6677 98.1006 31.2393 97.3342 32.0517 96.5376C32.8791 95.726 33.857 95.1249 34.9852 94.7341Z" fill="#374A4B"/>
            <path d="M47.9054 95.3428L49.8686 106.502H47.4992L46.0099 97.9579C44.1595 100.257 43.2343 102.842 43.2343 105.713C43.2343 106.074 43.2418 106.337 43.2569 106.502H40.7972C40.8574 104.683 41.1884 103.18 41.7901 101.993C42.4069 100.806 43.7533 99.1452 45.8294 97.011L45.4683 94.9596L47.3638 94.9596C47.6797 94.9596 47.8603 95.0873 47.9054 95.3428Z" fill="#374A4B"/>
            <path d="M56.7186 105.397C57.3655 104.916 57.7942 104.443 58.0048 103.977C58.2155 103.511 58.3208 102.88 58.3208 102.083C58.3208 101.437 58.1778 100.798 57.892 100.167C57.6212 99.5209 57.3128 98.9874 56.9668 98.5665C56.6208 98.1457 56.2372 97.6873 55.816 97.1914C55.3948 96.6954 55.1089 96.3197 54.9585 96.0642C54.2514 96.5301 53.7776 96.996 53.5369 97.4619C53.2962 97.9278 53.1758 98.559 53.1758 99.3556C53.1758 100.017 53.3338 100.678 53.6497 101.339C53.9656 101.986 54.3116 102.519 54.6877 102.94C55.0788 103.346 55.4775 103.789 55.8837 104.27C56.3049 104.736 56.5832 105.112 56.7186 105.397ZM55.9739 94.7341C57.2827 95.3052 58.4035 96.222 59.3362 97.4844C60.284 98.7319 60.7578 99.829 60.7578 100.776C60.7578 101.347 60.5924 102.001 60.2614 102.737C59.9455 103.459 59.3738 104.225 58.5464 105.037C57.7341 105.833 56.7637 106.427 55.6355 106.818C54.3267 106.246 53.1984 105.337 52.2506 104.09C51.3179 102.827 50.8515 101.723 50.8515 100.776C50.8515 100.205 51.0095 99.5585 51.3254 98.8371C51.6564 98.1006 52.228 97.3342 53.0404 96.5376C53.8678 95.726 54.8457 95.1249 55.9739 94.7341Z" fill="#374A4B"/>
            <path d="M71.3312 106.502H65.058C64.5465 106.923 64.1328 107.471 63.8169 108.148C63.516 108.839 63.3655 109.478 63.3655 110.064H62.8014C62.8014 109.493 62.7036 108.907 62.5081 108.305C62.3125 107.704 62.1094 107.253 61.8988 106.953L61.6054 106.502V105.938H64.2005L67.1566 94.9596H69.5034L72.4595 105.938H74.7837V106.502C74.6935 106.622 74.5807 106.787 74.4453 106.998C74.3099 107.223 74.1293 107.644 73.9037 108.26C73.678 108.892 73.5652 109.493 73.5652 110.064H73.0236C73.0236 109.478 72.8657 108.839 72.5497 108.148C72.2489 107.471 71.8427 106.923 71.3312 106.502ZM64.7421 105.938H70.0675L67.4048 96.0416L64.7421 105.938Z" fill="#374A4B"/>
            <path d="M86.5982 94.9596L88.9224 94.9596V106.502L86.5982 106.502V94.9596ZM76.06 94.9596H78.3843V99.1076L80.1444 98.0931C80.7913 98.6191 81.6187 99.6336 82.6266 101.137C83.6496 102.639 84.5597 104.428 85.3571 106.502H76.06V94.9596ZM78.3843 105.938H82.3107C81.9346 104.496 81.4607 103.173 80.8891 101.971C80.3174 100.768 79.7909 99.8515 79.3095 99.2203L78.3843 99.7388V105.938Z" fill="#374A4B"/>
            <path d="M97.0587 95.5231L93.2226 97.3041V99.8966L95.6596 98.7694L96.5848 100.1L93.2226 101.678V104.428C93.2226 104.909 93.388 105.149 93.719 105.149C93.8243 105.149 93.8995 105.134 93.9447 105.104L96.2238 104L97.6905 105.127L94.5314 106.592C94.1703 106.757 93.7942 106.84 93.4031 106.84C92.7261 106.84 92.1394 106.615 91.643 106.164C91.1616 105.713 90.9209 105.082 90.9209 104.27V97.5972C90.9209 96.9209 91.2067 96.4625 91.7784 96.222L95.0729 94.689L97.0587 95.5231Z" fill="#374A4B"/>
            <path d="M-55.4473 116.155C-56.1845 115.283 -56.6132 114.742 -56.7336 114.532C-57.4406 114.998 -57.9145 115.464 -58.1552 115.93C-58.3959 116.396 -58.5162 117.027 -58.5162 117.823C-58.5162 118.485 -58.3583 119.146 -58.0424 119.807C-57.7264 120.453 -57.3729 120.987 -56.9818 121.408C-56.5906 121.814 -56.192 122.257 -55.7858 122.738C-55.3646 123.204 -55.0863 123.579 -54.9509 123.865C-54.1836 123.294 -53.7098 122.708 -53.5292 122.107L-52.2656 122.58C-53.2133 123.827 -54.4695 124.729 -56.034 125.285C-57.3428 124.714 -58.4711 123.805 -59.4189 122.557C-60.3516 121.295 -60.8179 120.19 -60.8179 119.244C-60.8179 118.672 -60.66 118.026 -60.3441 117.305C-60.0131 116.568 -59.4414 115.802 -58.6291 115.005C-57.8167 114.194 -56.8464 113.593 -55.7181 113.202C-54.8456 113.578 -54.0031 114.171 -53.1908 114.983L-55.4473 116.155Z" fill="#374A4B"/>
            <path d="M-48.9358 124.97H-51.26L-51.26 113.427H-42.7077L-42.7077 124.97H-45.0094L-45.0094 113.991H-48.9358L-48.9358 124.97Z" fill="#374A4B"/>
            <path d="M-34.9099 113.991L-38.7461 115.772V118.364L-36.309 117.237L-35.3838 118.567L-38.7461 120.145V122.896C-38.7461 123.377 -38.5806 123.617 -38.2496 123.617C-38.1443 123.617 -38.0691 123.602 -38.024 123.572L-35.7448 122.467L-34.2781 123.594L-37.4373 125.06C-37.7983 125.225 -38.1744 125.308 -38.5655 125.308C-39.2425 125.308 -39.8292 125.082 -40.3257 124.632C-40.8071 124.181 -41.0478 123.549 -41.0478 122.738L-41.0478 116.065C-41.0478 115.389 -40.7619 114.93 -40.1903 114.69L-36.8957 113.157L-34.9099 113.991Z" fill="#374A4B"/>
            <path d="M-26.2321 113.427L-23.9078 113.427V124.406H-20.4779L-20.4779 124.97C-20.5681 125.09 -20.681 125.255 -20.8163 125.466C-20.9517 125.691 -21.1323 126.112 -21.3579 126.728C-21.5685 127.359 -21.6738 127.96 -21.6738 128.532H-22.2154C-22.2154 127.945 -22.3734 127.307 -22.6893 126.615C-22.9902 125.939 -23.3963 125.39 -23.9078 124.97H-32.4602L-32.4602 113.427H-30.1585V124.406H-26.2321V113.427Z" fill="#374A4B"/>
            <path d="M-13.4924 113.427L-11.1908 113.427L-11.1908 124.97H-13.4924L-13.4924 117.35L-17.4189 122.039L-17.4189 124.97H-19.7431L-19.7431 113.427H-17.4189V120.889L-13.4924 116.223V113.427Z" fill="#374A4B"/>
            <path d="M-3.50582 113.811L-1.54261 124.97H-3.88944L-4.16022 123.572C-5.06285 124.654 -6.23626 125.195 -7.68046 125.195C-8.53795 125.195 -9.15474 124.932 -9.53084 124.406C-9.89189 123.88 -10.0724 123.286 -10.0724 122.625C-10.0724 120.686 -8.54547 118.44 -5.49159 115.885L-5.94291 113.427H-4.0474C-3.73148 113.427 -3.55095 113.555 -3.50582 113.811ZM-4.31818 122.58L-5.40133 116.493C-7.07119 117.891 -7.90611 119.371 -7.90611 120.934C-7.90611 121.52 -7.75568 122.092 -7.4548 122.648C-7.15393 123.189 -6.69509 123.459 -6.0783 123.459C-5.32611 123.459 -4.73941 123.166 -4.31818 122.58Z" fill="#374A4B"/>
            <path d="M6.30029 113.811L8.2635 124.97H5.89411L4.40478 116.426C2.5544 118.725 1.62921 121.31 1.62921 124.181C1.62921 124.541 1.63673 124.804 1.65178 124.97H-0.807875C-0.7477 123.151 -0.416737 121.648 0.185012 120.461C0.801805 119.274 2.14822 117.613 4.22425 115.479L3.8632 113.427H5.75872C6.07463 113.427 6.25516 113.555 6.30029 113.811Z" fill="#374A4B"/>
            <path d="M15.6325 113.427H17.9342L17.9342 124.97H15.6325L15.6325 117.35L11.7061 122.039L11.7061 124.97H9.38185L9.38185 113.427H11.7061V120.889L15.6325 116.223V113.427Z" fill="#374A4B"/>
            <path d="M24.2652 116.155C23.5281 115.283 23.0993 114.742 22.979 114.532C22.2719 114.998 21.7981 115.464 21.5574 115.93C21.3167 116.396 21.1963 117.027 21.1963 117.823C21.1963 118.485 21.3543 119.146 21.6702 119.807C21.9861 120.453 22.3396 120.987 22.7308 121.408C23.1219 121.814 23.5206 122.257 23.9267 122.738C24.348 123.204 24.6263 123.579 24.7617 123.865C25.5289 123.294 26.0028 122.708 26.1833 122.107L27.447 122.58C26.4992 123.827 25.2431 124.729 23.6785 125.285C22.3697 124.714 21.2414 123.805 20.2937 122.557C19.361 121.295 18.8946 120.19 18.8946 119.244C18.8946 118.672 19.0526 118.026 19.3685 117.305C19.6995 116.568 20.2711 115.802 21.0835 115.005C21.8958 114.194 22.8662 113.593 23.9944 113.202C24.867 113.578 25.7094 114.171 26.5218 114.983L24.2652 116.155Z" fill="#374A4B"/>
            <path d="M31.544 124.97V113.991C30.9422 113.991 30.4984 114.013 30.2126 114.059C29.9268 114.104 29.6635 114.224 29.4228 114.419C29.1971 114.615 29.0542 114.9 28.9941 115.276C28.9339 115.652 28.9038 116.193 28.9038 116.899H28.3397C28.3397 116.328 28.2795 115.802 28.1591 115.321C28.0388 114.825 27.9184 114.479 27.7981 114.284L27.6176 113.991V113.427L37.7721 113.427V113.991C37.2756 114.637 37.0274 115.607 37.0274 116.899H36.4858C36.4858 116.193 36.4557 115.652 36.3956 115.276C36.3354 114.9 36.185 114.615 35.9443 114.419C35.7186 114.224 35.4629 114.104 35.177 114.059C34.8912 114.013 34.4474 113.991 33.8457 113.991V124.97H31.544Z" fill="#374A4B"/>
            <path d="M49.3383 113.427H51.6626V124.97H49.3383V113.427ZM38.8002 113.427H41.1244V117.575L42.8845 116.561C43.5314 117.087 44.3588 118.101 45.3668 119.604C46.3897 121.107 47.2999 122.896 48.0972 124.97H38.8002V113.427ZM41.1244 124.406H45.0508C44.6748 122.963 44.2009 121.641 43.6292 120.438C43.0575 119.236 42.531 118.319 42.0496 117.688L41.1244 118.207V124.406Z" fill="#374A4B"/>
            <path d="M53.7964 108.806H56.3011L55.8498 121.273H54.2477L53.7964 108.806ZM54.2477 124.97C54.0972 124.97 54.022 124.895 54.022 124.744V123.121C54.022 122.971 54.0972 122.896 54.2477 122.896H55.8498C56.0003 122.896 56.0755 122.971 56.0755 123.121V124.744C56.0755 124.895 56.0003 124.97 55.8498 124.97H54.2477Z" fill="#374A4B"/>
            <path d="M-99.2927 127.815V127.274H-93.358V127.815C-94.3358 127.815 -94.8247 127.972 -94.8247 128.288C-94.8247 128.468 -94.8097 128.604 -94.7796 128.694L-91.3271 142.874H-88.8674V143.437C-88.9577 143.558 -89.0705 143.723 -89.2059 143.933C-89.3413 144.159 -89.5218 144.58 -89.7475 145.196C-89.9581 145.827 -90.0634 146.428 -90.0634 146.999H-90.6275C-90.6275 146.413 -90.7855 145.774 -91.1014 145.083C-91.4023 144.407 -91.8085 143.858 -92.32 143.437H-100.308C-100.82 143.858 -101.233 144.407 -101.549 145.083C-101.85 145.774 -102.001 146.413 -102.001 146.999H-102.542C-102.542 146.428 -102.64 145.842 -102.836 145.241C-103.046 144.64 -103.249 144.189 -103.445 143.888L-103.738 143.437V142.874H-101.188L-97.7808 128.987C-97.7357 128.822 -97.7131 128.626 -97.7131 128.401C-97.7131 128.01 -98.2397 127.815 -99.2927 127.815ZM-100.534 142.874H-94.1703L-97.3747 129.663L-100.534 142.874Z" fill="#374A4B"/>
            <path d="M-82.4687 142.333C-81.8218 141.852 -81.3931 141.378 -81.1825 140.913C-80.9719 140.447 -80.8666 139.815 -80.8666 139.019C-80.8666 138.373 -81.0095 137.734 -81.2953 137.103C-81.5661 136.456 -81.8745 135.923 -82.2205 135.502C-82.5665 135.081 -82.9501 134.623 -83.3714 134.127C-83.7926 133.631 -84.0784 133.255 -84.2288 133C-84.9359 133.466 -85.4098 133.932 -85.6505 134.397C-85.8912 134.863 -86.0115 135.495 -86.0115 136.291C-86.0115 136.952 -85.8536 137.614 -85.5376 138.275C-85.2217 138.921 -84.8757 139.455 -84.4996 139.876C-84.1085 140.281 -83.7098 140.725 -83.3037 141.206C-82.8824 141.671 -82.6041 142.047 -82.4687 142.333ZM-83.2134 131.67C-81.9046 132.241 -80.7838 133.158 -79.8511 134.42C-78.9034 135.667 -78.4295 136.764 -78.4295 137.711C-78.4295 138.282 -78.595 138.936 -78.9259 139.673C-79.2418 140.394 -79.8135 141.161 -80.6409 141.972C-81.4533 142.769 -82.4236 143.362 -83.5519 143.753C-84.8607 143.182 -85.989 142.273 -86.9367 141.025C-87.8694 139.763 -88.3358 138.658 -88.3358 137.711C-88.3358 137.14 -88.1778 136.494 -87.8619 135.773C-87.5309 135.036 -86.9593 134.27 -86.1469 133.473C-85.3195 132.662 -84.3417 132.06 -83.2134 131.67Z" fill="#374A4B"/>
            <path d="M-62.8791 143.437H-71.1832V131.895H-63.4658C-63.4658 133.173 -63.7892 134.247 -64.4361 135.119C-65.083 135.975 -65.963 136.599 -67.0763 136.99C-65.4365 137.185 -64.3308 137.734 -63.7591 138.636C-63.1724 139.537 -62.8791 141.138 -62.8791 143.437ZM-68.8815 142.874H-65.1808C-65.2109 141.07 -65.4892 139.755 -66.0157 138.929C-66.5422 138.102 -67.4975 137.621 -68.8815 137.486V142.874ZM-68.8815 132.459V136.832C-67.7984 136.712 -67.0236 136.306 -66.5573 135.615C-66.0909 134.923 -65.8352 133.871 -65.79 132.459H-68.8815Z" fill="#374A4B"/>
            <path d="M-56.5932 134.623C-57.3303 133.751 -57.7591 133.21 -57.8794 133C-58.5865 133.466 -59.0604 133.932 -59.3011 134.397C-59.5418 134.863 -59.6621 135.495 -59.6621 136.291C-59.6621 136.952 -59.5042 137.614 -59.1882 138.275C-58.8723 138.921 -58.5188 139.455 -58.1277 139.876C-57.7365 140.281 -57.3379 140.725 -56.9317 141.206C-56.5105 141.671 -56.2322 142.047 -56.0968 142.333C-55.3295 141.762 -54.8556 141.176 -54.6751 140.574L-53.4115 141.048C-54.3592 142.295 -55.6154 143.197 -57.1799 143.753C-58.4887 143.182 -59.617 142.273 -60.5647 141.025C-61.4975 139.763 -61.9638 138.658 -61.9638 137.711C-61.9638 137.14 -61.8059 136.494 -61.4899 135.773C-61.159 135.036 -60.5873 134.27 -59.775 133.473C-58.9626 132.662 -57.9923 132.06 -56.864 131.67C-55.9915 132.045 -55.149 132.639 -54.3366 133.451L-56.5932 134.623Z" fill="#374A4B"/>
            <path d="M-49.3144 143.437V132.459C-49.9162 132.459 -50.36 132.481 -50.6458 132.526C-50.9316 132.571 -51.1949 132.692 -51.4356 132.887C-51.6613 133.082 -51.8042 133.368 -51.8644 133.744C-51.9245 134.119 -51.9546 134.66 -51.9546 135.367H-52.5188C-52.5188 134.796 -52.5789 134.27 -52.6993 133.789C-52.8196 133.293 -52.94 132.947 -53.0603 132.752L-53.2409 132.459V131.895H-43.0863V132.459C-43.5828 133.105 -43.831 134.074 -43.831 135.367H-44.3726C-44.3726 134.66 -44.4027 134.119 -44.4628 133.744C-44.523 133.368 -44.6734 133.082 -44.9141 132.887C-45.1398 132.692 -45.3955 132.571 -45.6814 132.526C-45.9672 132.481 -46.411 132.459 -47.0128 132.459V143.437H-49.3144Z" fill="#374A4B"/>
            <path d="M-39.1022 143.888C-38.8915 144.94 -38.7862 145.88 -38.7862 146.706C-38.7862 147.142 -38.8765 147.555 -39.057 147.946C-39.2225 148.337 -39.4331 148.66 -39.6889 148.916C-39.9446 149.171 -40.1928 149.396 -40.4335 149.592C-40.6742 149.787 -40.8848 149.93 -41.0654 150.02L-41.3361 150.155L-41.9906 149.231C-41.9304 149.186 -41.8552 149.111 -41.7649 149.006C-41.6746 148.916 -41.5543 148.698 -41.4038 148.352C-41.2534 148.006 -41.1782 147.638 -41.1782 147.247C-41.1782 145.865 -41.4339 144.302 -41.9454 142.558C-42.4569 140.815 -42.7127 139.199 -42.7127 137.711C-42.7127 137.14 -42.5547 136.494 -42.2388 135.773C-41.9078 135.036 -41.3361 134.27 -40.5238 133.473C-39.7114 132.662 -38.7411 132.06 -37.6128 131.67C-36.304 132.241 -35.1833 133.158 -34.2505 134.42C-33.3028 135.667 -32.8289 136.764 -32.8289 137.711C-32.8289 138.508 -33.0997 139.372 -33.6413 140.304C-34.1678 141.236 -34.935 142.062 -35.943 142.784C-36.9359 143.505 -37.9889 143.873 -39.1022 143.888ZM-39.3504 142.896C-36.6124 142.776 -35.2434 141.484 -35.2434 139.019C-35.2434 138.373 -35.3864 137.734 -35.6722 137.103C-35.958 136.456 -36.2739 135.923 -36.6199 135.502C-36.9509 135.081 -37.3345 134.623 -37.7708 134.127C-38.192 133.631 -38.4778 133.255 -38.6283 133C-39.3353 133.466 -39.8092 133.932 -40.0499 134.397C-40.2756 134.848 -40.3884 135.48 -40.3884 136.291C-40.3884 136.742 -40.3733 137.193 -40.3433 137.644C-40.2981 138.095 -40.2605 138.485 -40.2304 138.816C-40.1853 139.132 -40.1176 139.515 -40.0273 139.966C-39.9371 140.417 -39.8694 140.747 -39.8243 140.958C-39.7791 141.153 -39.6964 141.499 -39.576 141.995C-39.4557 142.476 -39.3805 142.776 -39.3504 142.896Z" fill="#374A4B"/>
            <path d="M-25.4373 132.459L-29.2735 134.24V136.832L-26.8364 135.705L-25.9112 137.035L-29.2735 138.613V141.363C-29.2735 141.844 -29.108 142.085 -28.777 142.085C-28.6717 142.085 -28.5965 142.07 -28.5514 142.04L-26.2723 140.935L-24.8055 142.062L-27.9647 143.528C-28.3257 143.693 -28.7018 143.776 -29.093 143.776C-29.7699 143.776 -30.3566 143.55 -30.8531 143.099C-31.3345 142.648 -31.5752 142.017 -31.5752 141.206V134.533C-31.5752 133.856 -31.2893 133.398 -30.7177 133.158L-27.4231 131.625L-25.4373 132.459Z" fill="#374A4B"/>
            <path d="M-17.9103 131.895H-15.5861V143.437H-17.9103V138.771C-18.4519 138.951 -19.0311 139.041 -19.6479 139.041C-20.8063 139.041 -21.7691 138.726 -22.5363 138.095C-23.3035 137.448 -23.6871 136.411 -23.6871 134.984V131.895H-21.3629V135.727C-21.3629 136.359 -21.3102 136.877 -21.2049 137.283C-21.0996 137.689 -20.9492 137.974 -20.7536 138.14C-20.558 138.29 -20.385 138.388 -20.2346 138.433C-20.0691 138.478 -19.8736 138.5 -19.6479 138.5C-19.4222 138.5 -19.2342 138.478 -19.0838 138.433C-18.9183 138.388 -18.7377 138.29 -18.5422 138.14C-18.3316 137.974 -18.1736 137.689 -18.0683 137.283C-17.963 136.877 -17.9103 136.359 -17.9103 135.727V131.895Z" fill="#374A4B"/>
            <path d="M-7.63036 131.895H-5.32867V143.437H-7.63036V135.818L-11.5568 140.507V143.437H-13.881V131.895H-11.5568V139.357L-7.63036 134.69V131.895Z" fill="#374A4B"/>
            <path d="M3.90337 143.437H1.57912V131.895H3.90337V135.367L7.82979 138.095V131.895H10.1315V143.437H7.82979V138.996L3.90337 136.269V143.437Z" fill="#374A4B"/>
            <path d="M17.8164 132.278L19.7796 143.437H17.4328L17.162 142.04C16.2594 143.122 15.086 143.663 13.6418 143.663C12.7843 143.663 12.1675 143.4 11.7914 142.874C11.4304 142.348 11.2498 141.754 11.2498 141.093C11.2498 139.154 12.7768 136.907 15.8306 134.352L15.3793 131.895H17.2748C17.5908 131.895 17.7713 132.023 17.8164 132.278ZM17.0041 141.048L15.9209 134.961C14.2511 136.359 13.4161 137.839 13.4161 139.402C13.4161 139.988 13.5666 140.559 13.8674 141.115C14.1683 141.656 14.6271 141.927 15.2439 141.927C15.9961 141.927 16.5828 141.634 17.0041 141.048Z" fill="#374A4B"/>
            <path d="M27.9285 129.28C27.9285 128.619 27.8458 128.213 27.6803 128.063C27.5148 127.897 27.0635 127.815 26.3264 127.815V127.274H32.2837V127.815C31.5465 127.815 31.0952 127.897 30.9297 128.063C30.7643 128.213 30.6815 128.619 30.6815 129.28V135.074H30.862C32.231 135.074 33.3066 134.473 34.0889 133.27C34.8712 132.068 35.2623 130.738 35.2623 129.28C35.2623 128.619 35.1796 128.213 35.0141 128.063C34.8486 127.897 34.3973 127.815 33.6602 127.815V127.274H39.5949V127.815C39.4445 127.815 39.3091 127.822 39.1887 127.837C39.0834 127.837 38.9781 127.837 38.8728 127.837C38.7826 127.837 38.7073 127.852 38.6472 127.882C38.587 127.912 38.5268 127.935 38.4666 127.95C38.4215 127.965 38.3764 128.003 38.3313 128.063C38.3012 128.123 38.2711 128.168 38.241 128.198C38.2259 128.228 38.2034 128.296 38.1733 128.401C38.1583 128.491 38.1432 128.566 38.1282 128.626C38.1282 128.671 38.1131 128.769 38.083 128.919C38.0529 129.07 38.0304 129.19 38.0153 129.28C37.8799 130.001 37.7069 130.648 37.4963 131.219C37.3008 131.79 37.0224 132.368 36.6614 132.955C36.3154 133.526 35.849 134.022 35.2623 134.443C34.6756 134.848 33.9911 135.156 33.2089 135.367C33.9911 135.577 34.6756 135.893 35.2623 136.314C35.849 136.719 36.3154 137.208 36.6614 137.779C37.0224 138.35 37.3008 138.921 37.4963 139.492C37.7069 140.063 37.8799 140.71 38.0153 141.431C38.0304 141.521 38.0529 141.641 38.083 141.792C38.1131 141.942 38.1282 142.047 38.1282 142.107C38.1432 142.152 38.1583 142.228 38.1733 142.333C38.2034 142.423 38.2259 142.483 38.241 142.513C38.2711 142.543 38.3012 142.588 38.3313 142.648C38.3764 142.709 38.4215 142.746 38.4666 142.761C38.5268 142.776 38.587 142.799 38.6472 142.829C38.7073 142.859 38.7826 142.874 38.8728 142.874C38.9781 142.874 39.0834 142.881 39.1887 142.896C39.3091 142.896 39.4445 142.896 39.5949 142.896V143.437H33.6602V142.896C34.3973 142.896 34.8486 142.821 35.0141 142.671C35.1796 142.506 35.2623 142.092 35.2623 141.431C35.2623 139.973 34.8712 138.643 34.0889 137.441C33.3066 136.238 32.231 135.637 30.862 135.637H30.6815L30.6815 141.454C30.6815 142.115 30.7643 142.521 30.9297 142.671C31.0952 142.821 31.5465 142.896 32.2837 142.896V143.437H26.3264V142.896C27.0635 142.896 27.5148 142.821 27.6803 142.671C27.8458 142.521 27.9285 142.115 27.9285 141.454L27.9285 129.28Z" fill="#374A4B"/>
            <path d="M44.2786 143.888C44.4893 144.94 44.5946 145.88 44.5946 146.706C44.5946 147.142 44.5043 147.555 44.3238 147.946C44.1583 148.337 43.9477 148.66 43.6919 148.916C43.4362 149.171 43.188 149.396 42.9473 149.592C42.7066 149.787 42.496 149.93 42.3154 150.02L42.0447 150.155L41.3903 149.231C41.4504 149.186 41.5257 149.111 41.6159 149.006C41.7062 148.916 41.8265 148.698 41.977 148.352C42.1274 148.006 42.2026 147.638 42.2026 147.247C42.2026 145.865 41.9469 144.302 41.4354 142.558C40.9239 140.815 40.6682 139.199 40.6682 137.711C40.6682 137.14 40.8261 136.494 41.142 135.773C41.473 135.036 42.0447 134.27 42.857 133.473C43.6694 132.662 44.6397 132.06 45.768 131.67C47.0768 132.241 48.1975 133.158 49.1303 134.42C50.078 135.667 50.5519 136.764 50.5519 137.711C50.5519 138.508 50.2811 139.372 49.7395 140.304C49.213 141.236 48.4458 142.062 47.4378 142.784C46.4449 143.505 45.3919 143.873 44.2786 143.888ZM44.0304 142.896C46.7684 142.776 48.1374 141.484 48.1374 139.019C48.1374 138.373 47.9944 137.734 47.7086 137.103C47.4228 136.456 47.1069 135.923 46.7609 135.502C46.4299 135.081 46.0463 134.623 45.61 134.127C45.1888 133.631 44.903 133.255 44.7525 133C44.0455 133.466 43.5716 133.932 43.3309 134.397C43.1052 134.848 42.9924 135.48 42.9924 136.291C42.9924 136.742 43.0075 137.193 43.0375 137.644C43.0827 138.095 43.1203 138.485 43.1504 138.816C43.1955 139.132 43.2632 139.515 43.3535 139.966C43.4437 140.417 43.5114 140.747 43.5566 140.958C43.6017 141.153 43.6844 141.499 43.8048 141.995C43.9251 142.476 44.0003 142.776 44.0304 142.896Z" fill="#374A4B"/>
            <path d="M58.3045 144.452C58.3045 145.609 58.4173 146.511 58.643 147.157C58.8686 147.803 58.9815 148.224 58.9815 148.42C58.9815 148.585 58.9363 148.72 58.8461 148.825C58.7709 148.931 58.6731 148.983 58.5527 148.983C57.9961 148.983 57.7178 147.443 57.7178 144.362V143.437H55.3484L51.2189 132.459C51.1738 132.323 51.1512 132.211 51.1512 132.121C51.1512 131.955 51.2716 131.873 51.5123 131.873L52.7759 131.873C53.0467 131.873 53.2348 131.91 53.3401 131.985C53.4454 132.045 53.5356 132.188 53.6109 132.414L57.4696 142.716H57.7404C57.8156 140.011 58.0337 137.756 58.3948 135.953C58.7558 134.149 59.1169 132.962 59.4779 132.391C59.6735 132.06 60.3956 131.888 61.6442 131.873C61.8398 131.873 61.9376 131.963 61.9376 132.143C61.9376 132.444 61.8924 132.932 61.8022 133.608C61.7119 134.285 61.6066 134.623 61.4863 134.623H60.7867C60.3204 134.623 59.9969 134.675 59.8164 134.781C59.6359 134.871 59.4779 135.066 59.3425 135.367C59.2071 135.652 59.0642 136.081 58.9138 136.652C58.7784 137.223 58.643 138.207 58.5076 139.605C58.3722 141.003 58.3045 142.618 58.3045 144.452Z" fill="#374A4B"/>
            <path d="M65.2674 132.459L65.2674 143.437H62.9431L62.9431 131.895H70.48V132.459C69.9836 133.105 69.7354 134.074 69.7354 135.367H69.1938C69.1938 134.119 69.0433 133.323 68.7425 132.977C68.4566 132.631 67.8022 132.459 66.7793 132.459H65.2674Z" fill="#374A4B"/>
            <path d="M78.2326 132.278L80.1959 143.437H77.8265L76.3371 134.893C74.4868 137.193 73.5616 139.778 73.5616 142.648C73.5616 143.009 73.5691 143.272 73.5841 143.437H71.1245C71.1847 141.619 71.5156 140.116 72.1174 138.929C72.7342 137.741 74.0806 136.081 76.1566 133.947L75.7956 131.895H77.6911C78.007 131.895 78.1875 132.023 78.2326 132.278Z" fill="#374A4B"/>
            <path d="M87.0459 142.333C87.6927 141.852 88.1215 141.378 88.3321 140.913C88.5427 140.447 88.648 139.815 88.648 139.019C88.648 138.373 88.5051 137.734 88.2193 137.103C87.9485 136.456 87.6401 135.923 87.2941 135.502C86.9481 135.081 86.5645 134.623 86.1432 134.127C85.722 133.631 85.4362 133.255 85.2857 133C84.5787 133.466 84.1048 133.932 83.8641 134.397C83.6234 134.863 83.5031 135.495 83.5031 136.291C83.5031 136.952 83.661 137.614 83.9769 138.275C84.2929 138.921 84.6389 139.455 85.015 139.876C85.4061 140.281 85.8047 140.725 86.2109 141.206C86.6322 141.671 86.9105 142.047 87.0459 142.333ZM86.3012 131.67C87.61 132.241 88.7308 133.158 89.6635 134.42C90.6112 135.667 91.0851 136.764 91.0851 137.711C91.0851 138.282 90.9196 138.936 90.5887 139.673C90.2727 140.394 89.7011 141.161 88.8737 141.972C88.0613 142.769 87.091 143.362 85.9627 143.753C84.6539 143.182 83.5256 142.273 82.5779 141.025C81.6452 139.763 81.1788 138.658 81.1788 137.711C81.1788 137.14 81.3368 136.494 81.6527 135.773C81.9836 135.036 82.5553 134.27 83.3677 133.473C84.1951 132.662 85.1729 132.06 86.3012 131.67Z" fill="#374A4B"/>
            <path d="M104.299 132.278L106.262 143.437H103.892L102.358 134.623C102.193 134.893 101.907 135.299 101.5 135.84C101.109 136.381 100.771 136.9 100.485 137.396C100.199 137.892 99.9811 138.403 99.8306 138.929L100.62 143.437H98.2736L96.7843 135.029C95.2799 137.193 94.5277 139.695 94.5277 142.536C94.5277 142.896 94.5578 143.197 94.618 143.437H92.1583C92.1884 142.385 92.2411 141.581 92.3163 141.025C92.3915 140.469 92.572 139.808 92.8579 139.041C93.1437 138.275 93.58 137.508 94.1667 136.742C94.7534 135.96 95.5657 135.029 96.6038 133.947L96.2201 131.895H98.1157C98.4316 131.895 98.6121 132.023 98.6572 132.278L99.4922 137.035C99.5824 136.93 99.7705 136.719 100.056 136.404C100.357 136.073 100.575 135.825 100.711 135.66C100.846 135.495 101.019 135.277 101.23 135.006C101.455 134.736 101.643 134.488 101.794 134.262C101.944 134.037 102.072 133.811 102.177 133.586L101.862 131.895H103.802C104.088 131.895 104.254 132.023 104.299 132.278Z" fill="#374A4B"/>
            <path d="M-84.2501 153.091C-84.9872 152.219 -85.4159 151.678 -85.5363 151.467C-86.2434 151.933 -86.7172 152.399 -86.9579 152.865C-87.1986 153.331 -87.319 153.962 -87.319 154.759C-87.319 155.42 -87.161 156.081 -86.8451 156.743C-86.5292 157.389 -86.1757 157.922 -85.7845 158.343C-85.3934 158.749 -84.9947 159.192 -84.5885 159.673C-84.1673 160.139 -83.889 160.515 -83.7536 160.801C-82.9864 160.229 -82.5125 159.643 -82.332 159.042L-81.0683 159.516C-82.0161 160.763 -83.2722 161.665 -84.8368 162.221C-86.1456 161.65 -87.2738 160.74 -88.2216 159.493C-89.1543 158.231 -89.6207 157.126 -89.6207 156.179C-89.6207 155.608 -89.4627 154.962 -89.1468 154.24C-88.8158 153.504 -88.2442 152.737 -87.4318 151.941C-86.6194 151.129 -85.6491 150.528 -84.5208 150.137C-83.6483 150.513 -82.8059 151.107 -81.9935 151.918L-84.2501 153.091Z" fill="#374A4B"/>
            <path d="M-76.9713 161.905V150.926C-77.573 150.926 -78.0168 150.949 -78.3027 150.994C-78.5885 151.039 -78.8518 151.159 -79.0925 151.355C-79.3181 151.55 -79.461 151.836 -79.5212 152.211C-79.5814 152.587 -79.6115 153.128 -79.6115 153.835H-80.1756C-80.1756 153.263 -80.2358 152.737 -80.3561 152.256C-80.4765 151.761 -80.5968 151.415 -80.7172 151.219L-80.8977 150.926V150.363H-70.7432V150.926C-71.2396 151.573 -71.4879 152.542 -71.4879 153.835H-72.0294C-72.0294 153.128 -72.0595 152.587 -72.1197 152.211C-72.1799 151.836 -72.3303 151.55 -72.571 151.355C-72.7967 151.159 -73.0524 151.039 -73.3382 150.994C-73.6241 150.949 -74.0679 150.926 -74.6696 150.926V161.905H-76.9713Z" fill="#374A4B"/>
            <path d="M-64.3671 160.801C-63.7202 160.32 -63.2914 159.846 -63.0808 159.38C-62.8702 158.914 -62.7649 158.283 -62.7649 157.487C-62.7649 156.84 -62.9078 156.202 -63.1936 155.57C-63.4644 154.924 -63.7728 154.391 -64.1188 153.97C-64.4648 153.549 -64.8485 153.091 -65.2697 152.595C-65.6909 152.099 -65.9767 151.723 -66.1272 151.467C-66.8342 151.933 -67.3081 152.399 -67.5488 152.865C-67.7895 153.331 -67.9099 153.962 -67.9099 154.759C-67.9099 155.42 -67.7519 156.081 -67.436 156.743C-67.1201 157.389 -66.7741 157.922 -66.398 158.343C-66.0068 158.749 -65.6082 159.192 -65.202 159.673C-64.7808 160.139 -64.5024 160.515 -64.3671 160.801ZM-65.1117 150.137C-63.8029 150.708 -62.6822 151.625 -61.7494 152.888C-60.8017 154.135 -60.3278 155.232 -60.3278 156.179C-60.3278 156.75 -60.4933 157.404 -60.8243 158.14C-61.1402 158.862 -61.7118 159.628 -62.5392 160.44C-63.3516 161.236 -64.3219 161.83 -65.4502 162.221C-66.759 161.65 -67.8873 160.74 -68.835 159.493C-69.7678 158.231 -70.2341 157.126 -70.2341 156.179C-70.2341 155.608 -70.0762 154.962 -69.7602 154.24C-69.4293 153.504 -68.8576 152.737 -68.0452 151.941C-67.2178 151.129 -66.24 150.528 -65.1117 150.137Z" fill="#374A4B"/>
            <path d="M-52.1916 150.746L-50.2283 161.905H-52.5977L-54.0871 153.361C-55.9374 155.661 -56.8626 158.246 -56.8626 161.116C-56.8626 161.477 -56.8551 161.74 -56.8401 161.905H-59.2997C-59.2395 160.087 -58.9086 158.584 -58.3068 157.396C-57.69 156.209 -56.3436 154.548 -54.2676 152.414L-54.6286 150.363H-52.7331C-52.4172 150.363 -52.2367 150.491 -52.1916 150.746Z" fill="#374A4B"/>
            <path d="M-42.6788 150.926L-46.515 152.707V155.3L-44.0779 154.173L-43.1527 155.503L-46.515 157.081V159.831C-46.515 160.312 -46.3495 160.553 -46.0185 160.553C-45.9132 160.553 -45.838 160.538 -45.7929 160.507L-43.5137 159.403L-42.047 160.53L-45.2061 161.995C-45.5672 162.161 -45.9433 162.243 -46.3344 162.243C-47.0114 162.243 -47.5981 162.018 -48.0945 161.567C-48.5759 161.116 -48.8166 160.485 -48.8166 159.673V153C-48.8166 152.324 -48.5308 151.866 -47.9592 151.625L-44.6646 150.092L-42.6788 150.926Z" fill="#374A4B"/>
            <path d="M-29.4752 153.384C-30.2274 153.384 -30.8517 153.481 -31.3482 153.677C-31.8446 153.872 -32.1455 153.97 -32.2508 153.97C-32.3711 153.97 -32.5742 153.842 -32.8601 153.587C-33.1459 153.331 -33.2888 153.151 -33.2888 153.046C-33.2888 152.925 -33.1534 152.76 -32.8826 152.55C-32.5968 152.324 -32.3636 152.211 -32.1831 152.211C-32.138 152.211 -32.0402 152.256 -31.8897 152.347C-31.7243 152.437 -31.4685 152.527 -31.1225 152.617C-30.7765 152.707 -30.3402 152.752 -29.8137 152.752C-28.896 152.752 -28.204 152.414 -27.7377 151.738C-27.2713 151.062 -27.0381 150.25 -27.0381 149.303C-27.0381 148.296 -27.2638 147.507 -27.7151 146.936C-28.1514 146.365 -28.7305 146.08 -29.4526 146.08C-30.3101 146.08 -30.942 146.425 -31.3482 147.117C-31.7393 147.793 -31.9349 148.875 -31.9349 150.363C-31.9349 150.573 -32.3937 150.678 -33.3114 150.678C-34.229 150.678 -34.6879 150.573 -34.6879 150.363C-34.6879 149.762 -34.5976 149.183 -34.4171 148.627C-34.2215 148.071 -33.9282 147.56 -33.537 147.094C-33.1459 146.613 -32.6043 146.23 -31.9123 145.944C-31.2052 145.659 -30.3854 145.516 -29.4526 145.516C-27.7226 145.516 -26.4364 145.854 -25.5939 146.53C-24.7364 147.207 -24.3077 148.281 -24.3077 149.754C-24.3077 151.422 -25.1276 152.527 -26.7673 153.068C-25.5939 153.429 -24.7364 154.03 -24.1949 154.872C-23.6533 155.698 -23.3825 156.615 -23.3825 157.622C-23.3825 159.125 -23.8112 160.252 -24.6687 161.003C-25.5112 161.755 -26.7373 162.131 -28.3469 162.131C-29.054 162.131 -29.6633 161.973 -30.1747 161.657C-30.6862 161.327 -31.1902 161.161 -31.6866 161.161C-31.8672 161.161 -32.1906 161.379 -32.657 161.815C-33.1083 162.251 -33.4468 162.469 -33.6724 162.469C-34.0485 162.469 -34.4472 162.281 -34.8684 161.905C-35.2746 161.544 -35.4777 161.146 -35.4777 160.71C-35.4777 160.53 -35.252 160.222 -34.8007 159.786C-34.3494 159.35 -33.9432 159.132 -33.5822 159.132C-33.2211 159.132 -32.8375 159.253 -32.4313 159.493C-32.0101 159.733 -31.634 159.996 -31.303 160.282C-30.957 160.553 -30.5057 160.808 -29.9491 161.049C-29.3925 161.289 -28.7982 161.409 -28.1664 161.409C-27.6098 161.409 -27.1359 161.056 -26.7448 160.35C-26.3386 159.628 -26.1355 158.696 -26.1355 157.554C-26.1355 156.382 -26.3988 155.398 -26.9253 154.601C-27.4518 153.789 -28.3018 153.384 -29.4752 153.384Z" fill="#374A4B"/>
            <path d="M-15.9232 146.057C-16.5701 146.057 -17.1042 146.237 -17.5254 146.598C-17.9466 146.944 -18.2625 147.485 -18.4731 148.221C-18.6837 148.943 -18.8342 149.739 -18.9244 150.611C-18.9997 151.482 -19.0373 152.557 -19.0373 153.835C-19.0373 154.857 -19.0147 155.736 -18.9696 156.472C-18.9244 157.209 -18.8342 157.915 -18.6988 158.591C-18.5634 159.268 -18.3829 159.816 -18.1572 160.237C-17.9316 160.658 -17.6307 160.988 -17.2546 161.229C-16.8785 161.469 -16.4347 161.59 -15.9232 161.59C-15.2914 161.59 -14.7649 161.417 -14.3436 161.071C-13.9224 160.71 -13.6065 160.169 -13.3959 159.448C-13.1702 158.711 -13.0198 157.907 -12.9446 157.036C-12.8543 156.164 -12.8092 155.089 -12.8092 153.812C-12.8092 152.535 -12.8543 151.46 -12.9446 150.588C-13.0198 149.702 -13.1702 148.897 -13.3959 148.176C-13.6065 147.455 -13.9224 146.921 -14.3436 146.575C-14.7649 146.23 -15.2914 146.057 -15.9232 146.057ZM-20.4363 147.748C-19.4435 146.245 -17.9391 145.493 -15.9232 145.493C-13.9074 145.493 -12.403 146.252 -11.4101 147.77C-10.4172 149.273 -9.92077 151.295 -9.92077 153.835C-9.92077 156.374 -10.4172 158.396 -11.4101 159.899C-12.403 161.387 -13.9074 162.131 -15.9232 162.131C-17.9391 162.131 -19.4435 161.379 -20.4363 159.876C-21.4292 158.373 -21.9257 156.352 -21.9257 153.812C-21.9257 151.272 -21.4292 149.251 -20.4363 147.748Z" fill="#374A4B"/>
            <path d="M9.01447 150.746L10.9777 161.905H8.60829L7.07383 153.091C6.90835 153.361 6.62252 153.767 6.21634 154.308C5.8252 154.849 5.48672 155.368 5.20089 155.863C4.91506 156.359 4.69692 156.87 4.54648 157.396L5.33628 161.905H2.98946L1.50013 153.496C-0.00424535 155.661 -0.756432 158.163 -0.756432 161.003C-0.756432 161.364 -0.726345 161.665 -0.66617 161.905H-3.12582C-3.09573 160.853 -3.04308 160.049 -2.96786 159.493C-2.89264 158.937 -2.71212 158.276 -2.42629 157.509C-2.14046 156.743 -1.70419 155.976 -1.11748 155.21C-0.530776 154.428 0.281586 153.496 1.3196 152.414L0.935988 150.363H2.8315C3.14742 150.363 3.32794 150.491 3.37307 150.746L4.208 155.503C4.29826 155.398 4.48631 155.187 4.77214 154.872C5.07302 154.541 5.29115 154.293 5.42654 154.128C5.56194 153.962 5.73494 153.744 5.94555 153.474C6.17121 153.203 6.35925 152.955 6.50969 152.73C6.66013 152.504 6.788 152.279 6.89331 152.054L6.57739 150.363H8.51803C8.80386 150.363 8.96934 150.491 9.01447 150.746Z" fill="#374A4B"/>
            <path d="M18.437 150.746L20.4002 161.905H18.0534L17.7826 160.507C16.8799 161.59 15.7065 162.131 14.2623 162.131C13.4048 162.131 12.788 161.868 12.412 161.342C12.0509 160.816 11.8704 160.222 11.8704 159.561C11.8704 157.622 13.3973 155.375 16.4512 152.82L15.9999 150.363H17.8954C18.2113 150.363 18.3918 150.491 18.437 150.746ZM17.6246 159.516L16.5415 153.429C14.8716 154.826 14.0367 156.307 14.0367 157.87C14.0367 158.456 14.1871 159.027 14.488 159.583C14.7889 160.124 15.2477 160.395 15.8645 160.395C16.6167 160.395 17.2034 160.102 17.6246 159.516Z" fill="#374A4B"/>
            <path d="M27.3179 150.926H23.6171C23.6773 153.677 24.9109 155.165 27.3179 155.39V150.926ZM27.3179 161.905V155.999C26.3852 155.999 25.5352 156.502 24.768 157.509C24.0007 158.501 23.6171 159.966 23.6171 161.905H21.2929C21.2929 158.719 22.5415 156.69 25.0388 155.818C23.6096 155.578 22.6242 155.052 22.0827 154.24C21.5561 153.414 21.2929 152.121 21.2929 150.363H29.6196V161.905H27.3179Z" fill="#374A4B"/>
            <path d="M36.0752 156.619V154.818L57.3338 154.818V156.619L36.0752 156.619Z" fill="#374A4B"/>
            <path d="M75.704 150.746L77.6672 161.905H75.2978L73.7633 153.091C73.5978 153.361 73.312 153.767 72.9058 154.308C72.5147 154.849 72.1762 155.368 71.8904 155.863C71.6045 156.359 71.3864 156.87 71.236 157.396L72.0258 161.905H69.6789L68.1896 153.496C66.6852 155.661 65.9331 158.163 65.9331 161.003C65.9331 161.364 65.9631 161.665 66.0233 161.905H63.5637C63.5938 160.853 63.6464 160.049 63.7216 159.493C63.7968 158.937 63.9774 158.276 64.2632 157.509C64.549 156.743 64.9853 155.976 65.572 155.21C66.1587 154.428 66.9711 153.496 68.0091 152.414L67.6255 150.363H69.521C69.8369 150.363 70.0174 150.491 70.0626 150.746L70.8975 155.503C70.9878 155.398 71.1758 155.187 71.4616 154.872C71.7625 154.541 71.9806 154.293 72.116 154.128C72.2514 153.962 72.4244 153.744 72.635 153.474C72.8607 153.203 73.0487 152.955 73.1992 152.73C73.3496 152.504 73.4775 152.279 73.5828 152.054L73.2669 150.363H75.2075C75.4933 150.363 75.6588 150.491 75.704 150.746Z" fill="#374A4B"/>
            <path d="M89.7298 150.363H92.0541V161.905H89.7298V150.363ZM79.1917 150.363L81.5159 150.363V154.511L83.2761 153.496C83.9229 154.022 84.7503 155.037 85.7583 156.54C86.7813 158.043 87.6914 159.831 88.4887 161.905L79.1917 161.905V150.363ZM81.5159 161.342H85.4424C85.0663 159.899 84.5924 158.576 84.0207 157.374C83.4491 156.172 82.9225 155.255 82.4411 154.624L81.5159 155.142V161.342Z" fill="#374A4B"/>
            <path d="M-79.2468 180.824C-79.0362 181.876 -78.9309 182.815 -78.9309 183.642C-78.9309 184.078 -79.0211 184.491 -79.2017 184.882C-79.3672 185.272 -79.5778 185.596 -79.8335 185.851C-80.0893 186.107 -80.3375 186.332 -80.5782 186.527C-80.8189 186.723 -81.0295 186.866 -81.21 186.956L-81.4808 187.091L-82.1352 186.167C-82.075 186.122 -81.9998 186.046 -81.9095 185.941C-81.8193 185.851 -81.6989 185.633 -81.5485 185.287C-81.3981 184.942 -81.3228 184.574 -81.3228 184.183C-81.3228 182.8 -81.5786 181.237 -82.0901 179.494C-82.6016 177.75 -82.8573 176.135 -82.8573 174.647C-82.8573 174.076 -82.6993 173.429 -82.3834 172.708C-82.0525 171.972 -81.4808 171.205 -80.6684 170.409C-79.8561 169.597 -78.8858 168.996 -77.7575 168.605C-76.4487 169.176 -75.3279 170.093 -74.3952 171.355C-73.4474 172.603 -72.9736 173.7 -72.9736 174.647C-72.9736 175.443 -73.2444 176.308 -73.7859 177.239C-74.3125 178.171 -75.0797 178.998 -76.0876 179.719C-77.0805 180.441 -78.1336 180.809 -79.2468 180.824ZM-79.495 179.832C-76.7571 179.712 -75.3881 178.419 -75.3881 175.954C-75.3881 175.308 -75.531 174.669 -75.8168 174.038C-76.1027 173.392 -76.4186 172.858 -76.7646 172.438C-77.0956 172.017 -77.4792 171.558 -77.9154 171.062C-78.3367 170.566 -78.6225 170.191 -78.7729 169.935C-79.48 170.401 -79.9539 170.867 -80.1946 171.333C-80.4202 171.784 -80.533 172.415 -80.533 173.227C-80.533 173.677 -80.518 174.128 -80.4879 174.579C-80.4428 175.03 -80.4052 175.421 -80.3751 175.751C-80.33 176.067 -80.2623 176.45 -80.172 176.901C-80.0817 177.352 -80.014 177.683 -79.9689 177.893C-79.9238 178.089 -79.841 178.434 -79.7207 178.93C-79.6003 179.411 -79.5251 179.712 -79.495 179.832Z" fill="#374A4B"/>
            <path d="M-65.6948 169.214L-63.7316 180.373H-66.0784L-66.3492 178.975C-67.2518 180.057 -68.4252 180.598 -69.8694 180.598C-70.7269 180.598 -71.3437 180.335 -71.7198 179.809C-72.0809 179.283 -72.2614 178.69 -72.2614 178.028C-72.2614 176.09 -70.7345 173.843 -67.6806 171.288L-68.1319 168.831H-66.2364C-65.9205 168.831 -65.7399 168.958 -65.6948 169.214ZM-66.5072 177.983L-67.5903 171.897C-69.2602 173.294 -70.0951 174.775 -70.0951 176.338C-70.0951 176.924 -69.9447 177.495 -69.6438 178.051C-69.3429 178.592 -68.8841 178.863 -68.2673 178.863C-67.5151 178.863 -66.9284 178.569 -66.5072 177.983Z" fill="#374A4B"/>
            <path d="M-57.7616 171.558C-58.4988 170.687 -58.9275 170.146 -59.0479 169.935C-59.7549 170.401 -60.2288 170.867 -60.4695 171.333C-60.7102 171.799 -60.8306 172.43 -60.8306 173.227C-60.8306 173.888 -60.6726 174.549 -60.3567 175.21C-60.0408 175.857 -59.6872 176.39 -59.2961 176.811C-58.905 177.217 -58.5063 177.66 -58.1001 178.141C-57.6789 178.607 -57.4006 178.983 -57.2652 179.268C-56.498 178.697 -56.0241 178.111 -55.8436 177.51L-54.5799 177.983C-55.5277 179.231 -56.7838 180.132 -58.3484 180.689C-59.6572 180.117 -60.7854 179.208 -61.7332 177.961C-62.6659 176.698 -63.1323 175.594 -63.1323 174.647C-63.1323 174.076 -62.9743 173.429 -62.6584 172.708C-62.3274 171.972 -61.7558 171.205 -60.9434 170.409C-60.131 169.597 -59.1607 168.996 -58.0324 168.605C-57.1599 168.981 -56.3174 169.575 -55.5051 170.386L-57.7616 171.558Z" fill="#374A4B"/>
            <path d="M-48.6099 171.558C-49.3471 170.687 -49.7758 170.146 -49.8962 169.935C-50.6032 170.401 -51.0771 170.867 -51.3178 171.333C-51.5585 171.799 -51.6789 172.43 -51.6789 173.227C-51.6789 173.888 -51.5209 174.549 -51.205 175.21C-50.8891 175.857 -50.5355 176.39 -50.1444 176.811C-49.7533 177.217 -49.3546 177.66 -48.9484 178.141C-48.5272 178.607 -48.2489 178.983 -48.1135 179.268C-47.3463 178.697 -46.8724 178.111 -46.6919 177.51L-45.4282 177.983C-46.3759 179.231 -47.6321 180.132 -49.1966 180.689C-50.5054 180.117 -51.6337 179.208 -52.5815 177.961C-53.5142 176.698 -53.9805 175.594 -53.9805 174.647C-53.9805 174.076 -53.8226 173.429 -53.5067 172.708C-53.1757 171.972 -52.604 171.205 -51.7917 170.409C-50.9793 169.597 -50.009 168.996 -48.8807 168.605C-48.0082 168.981 -47.1657 169.575 -46.3534 170.386L-48.6099 171.558Z" fill="#374A4B"/>
            <path d="M-44.0165 168.831H-41.7148V173.61C-40.6016 173.234 -39.7666 172.671 -39.21 171.919C-38.6534 171.168 -38.3751 170.138 -38.3751 168.831H-36.0734V169.394C-36.0734 170.581 -36.4796 171.513 -37.2919 172.19C-38.0893 172.866 -39.2702 173.452 -40.8347 173.948C-39.3003 174.249 -38.1193 174.895 -37.2919 175.887C-36.4495 176.879 -36.0283 178.374 -36.0283 180.373H-38.33C-38.33 178.494 -38.6609 177.082 -39.3228 176.135C-39.9848 175.173 -40.7821 174.594 -41.7148 174.399V180.373H-44.0165L-44.0165 168.831Z" fill="#374A4B"/>
            <path d="M-28.2531 169.214L-26.2899 180.373H-28.6367L-28.9075 178.975C-29.8101 180.057 -30.9835 180.598 -32.4277 180.598C-33.2852 180.598 -33.902 180.335 -34.2781 179.809C-34.6391 179.283 -34.8196 178.69 -34.8196 178.028C-34.8196 176.09 -33.2927 173.843 -30.2388 171.288L-30.6901 168.831H-28.7946C-28.4787 168.831 -28.2982 168.958 -28.2531 169.214ZM-29.0654 177.983L-30.1486 171.897C-31.8184 173.294 -32.6534 174.775 -32.6534 176.338C-32.6534 176.924 -32.5029 177.495 -32.202 178.051C-31.9012 178.592 -31.4423 178.863 -30.8255 178.863C-30.0733 178.863 -29.4866 178.569 -29.0654 177.983Z" fill="#374A4B"/>
            <path d="M-19.4624 168.831H-17.1381V173.61C-16.0249 173.234 -15.1975 172.671 -14.6559 171.919C-14.0993 171.168 -13.821 170.138 -13.821 168.831H-11.4967V169.394C-11.4967 170.581 -11.9029 171.513 -12.7153 172.19C-13.5126 172.866 -14.6935 173.452 -16.2581 173.948C-14.7236 174.249 -13.5427 174.895 -12.7153 175.887C-11.8728 176.879 -11.4516 178.374 -11.4516 180.373H-13.7759C-13.7759 178.494 -14.1068 177.082 -14.7688 176.135C-15.4156 175.173 -16.2054 174.594 -17.1381 174.399V180.373H-19.4624V174.399C-20.3951 174.594 -21.1924 175.173 -21.8544 176.135C-22.5012 177.082 -22.8247 178.494 -22.8247 180.373H-25.1264C-25.1264 178.374 -24.7127 176.879 -23.8853 175.887C-23.0428 174.895 -21.8544 174.249 -20.3199 173.948C-21.8844 173.452 -23.0729 172.866 -23.8853 172.19C-24.6826 171.513 -25.0812 170.581 -25.0812 169.394V168.831H-22.7795C-22.7795 170.138 -22.5088 171.168 -21.9672 171.919C-21.4106 172.671 -20.5756 173.234 -19.4624 173.61V168.831Z" fill="#374A4B"/>
            <path d="M-3.56358 169.394L-7.39974 171.175V173.768L-4.96265 172.64L-4.03746 173.971L-7.39974 175.549V178.299C-7.39974 178.78 -7.23426 179.02 -6.90329 179.02C-6.79799 179.02 -6.72277 179.005 -6.67764 178.975L-4.39851 177.871L-2.93175 178.998L-6.09093 180.463C-6.45198 180.628 -6.82807 180.711 -7.21921 180.711C-7.89618 180.711 -8.48289 180.486 -8.97933 180.035C-9.46073 179.584 -9.70143 178.953 -9.70143 178.141V171.468C-9.70143 170.792 -9.4156 170.333 -8.84393 170.093L-5.54936 168.56L-3.56358 169.394Z" fill="#374A4B"/>
            <path d="M10.3495 169.214L12.3127 180.373H9.94329L8.40882 171.558C8.24334 171.829 7.95751 172.235 7.55133 172.776C7.1602 173.317 6.82171 173.835 6.53588 174.331C6.25005 174.827 6.03191 175.338 5.88148 175.864L6.67127 180.373H4.32445L2.83512 171.964C1.33075 174.128 0.578561 176.631 0.578561 179.471C0.578561 179.832 0.608649 180.132 0.668824 180.373H-1.79083C-1.76074 179.321 -1.70809 178.517 -1.63287 177.961C-1.55765 177.405 -1.37712 176.743 -1.09129 175.977C-0.805462 175.21 -0.369194 174.444 0.217512 173.677C0.804217 172.896 1.61658 171.964 2.6546 170.882L2.27098 168.831H4.16649C4.48241 168.831 4.66294 168.958 4.70807 169.214L5.54299 173.971C5.63326 173.865 5.8213 173.655 6.10713 173.339C6.40801 173.009 6.62614 172.761 6.76154 172.595C6.89693 172.43 7.06993 172.212 7.28054 171.942C7.5062 171.671 7.69425 171.423 7.84468 171.198C7.99512 170.972 8.12299 170.747 8.2283 170.521L7.91238 168.831H9.85302C10.1389 168.831 10.3043 168.958 10.3495 169.214Z" fill="#374A4B"/>
            <path d="M15.3717 178.75C15.3717 179.501 15.2363 180.238 14.9655 180.959C14.7097 181.68 14.4766 182.191 14.2659 182.492C14.0553 182.793 13.8673 183.026 13.7018 183.191H13.1377C13.4837 182.424 13.6567 181.741 13.6567 181.139C13.6567 180.959 13.5589 180.568 13.3633 179.967C13.1828 179.366 13.0925 178.81 13.0925 178.299C13.0925 178.149 13.1678 178.073 13.3182 178.073H15.146C15.2964 178.073 15.3717 178.149 15.3717 178.299V178.75Z" fill="#374A4B"/>
            <path d="M22.3471 168.831H24.6488V173.61C25.7621 173.234 26.597 172.671 27.1536 171.919C27.7102 171.168 27.9885 170.138 27.9885 168.831H30.2902V169.394C30.2902 170.581 29.8841 171.513 29.0717 172.19C28.2744 172.866 27.0934 173.452 25.5289 173.948C27.0634 174.249 28.2443 174.895 29.0717 175.887C29.9141 176.879 30.3354 178.374 30.3354 180.373H28.0337C28.0337 178.494 27.7027 177.082 27.0408 176.135C26.3789 175.173 25.5816 174.594 24.6488 174.399V180.373H22.3471V168.831Z" fill="#374A4B"/>
            <path d="M38.1106 169.214L40.0738 180.373H37.727L37.4562 178.975C36.5535 180.057 35.3801 180.598 33.9359 180.598C33.0784 180.598 32.4616 180.335 32.0856 179.809C31.7245 179.283 31.544 178.69 31.544 178.028C31.544 176.09 33.0709 173.843 36.1248 171.288L35.6735 168.831H37.569C37.8849 168.831 38.0654 168.958 38.1106 169.214ZM37.2982 177.983L36.2151 171.897C34.5452 173.294 33.7103 174.775 33.7103 176.338C33.7103 176.924 33.8607 177.495 34.1616 178.051C34.4625 178.592 34.9213 178.863 35.5381 178.863C36.2903 178.863 36.877 178.569 37.2982 177.983Z" fill="#374A4B"/>
            <path d="M41.4855 168.831H43.7872V173.61C44.9004 173.234 45.7353 172.671 46.292 171.919C46.8486 171.168 47.1269 170.138 47.1269 168.831H49.4286V169.394C49.4286 170.581 49.0224 171.513 48.21 172.19C47.4127 172.866 46.2318 173.452 44.6672 173.948C46.2017 174.249 47.3826 174.895 48.21 175.887C49.0525 176.879 49.4737 178.374 49.4737 180.373H47.172C47.172 178.494 46.8411 177.082 46.1791 176.135C45.5172 175.173 44.7199 174.594 43.7872 174.399V180.373H41.4855V168.831Z" fill="#374A4B"/>
            <path d="M59.4053 171.558L57.1487 170.386C57.9611 169.575 58.8035 168.981 59.6761 168.605C60.8044 168.996 61.7747 169.597 62.587 170.409C63.3994 171.205 63.9635 171.972 64.2795 172.708C64.6104 173.429 64.7759 174.076 64.7759 174.647C64.7759 175.594 64.302 176.698 63.3543 177.961C62.4216 179.208 61.3008 180.117 59.992 180.689C58.4274 180.132 57.1713 179.231 56.2235 177.983L57.4872 177.51C57.6677 178.111 58.1416 178.697 58.9088 179.268C59.0442 178.968 59.3526 178.562 59.834 178.051C60.3154 177.54 60.7893 176.976 61.2557 176.36C61.7371 175.744 62.0755 175.12 62.2711 174.489H57.7806V173.925H62.4065C62.4516 173.7 62.4742 173.467 62.4742 173.227C62.4742 172.43 62.3539 171.799 62.1132 171.333C61.8725 170.867 61.3986 170.401 60.6915 169.935C60.5712 170.146 60.1424 170.687 59.4053 171.558Z" fill="#374A4B"/>
            <path d="M69.1888 180.373V169.394C68.5871 169.394 68.1433 169.417 67.8574 169.462C67.5716 169.507 67.3083 169.627 67.0676 169.823C66.842 170.018 66.6991 170.303 66.6389 170.679C66.5787 171.055 66.5486 171.596 66.5486 172.302H65.9845C65.9845 171.731 65.9243 171.205 65.804 170.724C65.6836 170.228 65.5633 169.883 65.4429 169.687L65.2624 169.394V168.831H75.4169V169.394C74.9205 170.04 74.6723 171.01 74.6723 172.302H74.1307C74.1307 171.596 74.1006 171.055 74.0404 170.679C73.9802 170.303 73.8298 170.018 73.5891 169.823C73.3635 169.627 73.1077 169.507 72.8219 169.462C72.536 169.417 72.0923 169.394 71.4905 169.394V180.373H69.1888Z" fill="#374A4B"/>
            <path d="M81.7931 179.268C82.44 178.787 82.8687 178.314 83.0793 177.848C83.2899 177.382 83.3952 176.751 83.3952 175.954C83.3952 175.308 83.2523 174.669 82.9665 174.038C82.6957 173.392 82.3873 172.858 82.0413 172.438C81.6953 172.017 81.3117 171.558 80.8905 171.062C80.4692 170.566 80.1834 170.191 80.033 169.935C79.3259 170.401 78.852 170.867 78.6113 171.333C78.3706 171.799 78.2503 172.43 78.2503 173.227C78.2503 173.888 78.4082 174.549 78.7242 175.21C79.0401 175.857 79.3861 176.39 79.7622 176.811C80.1533 177.217 80.552 177.66 80.9582 178.141C81.3794 178.607 81.6577 178.983 81.7931 179.268ZM81.0484 168.605C82.3572 169.176 83.478 170.093 84.4107 171.355C85.3584 172.603 85.8323 173.7 85.8323 174.647C85.8323 175.218 85.6668 175.872 85.3359 176.608C85.02 177.33 84.4483 178.096 83.6209 178.908C82.8085 179.704 81.8382 180.298 80.7099 180.689C79.4011 180.117 78.2728 179.208 77.3251 177.961C76.3924 176.698 75.926 175.594 75.926 174.647C75.926 174.076 76.084 173.429 76.3999 172.708C76.7309 171.972 77.3025 171.205 78.1149 170.409C78.9423 169.597 79.9201 168.996 81.0484 168.605Z" fill="#374A4B"/>
            <path d="M-28.6917 190.026C-29.4289 189.154 -29.8576 188.613 -29.978 188.403C-30.685 188.869 -31.1589 189.335 -31.3996 189.801C-31.6403 190.267 -31.7607 190.898 -31.7607 191.694C-31.7607 192.356 -31.6027 193.017 -31.2868 193.678C-30.9709 194.324 -30.6173 194.858 -30.2262 195.279C-29.8351 195.685 -29.4364 196.128 -29.0302 196.609C-28.609 197.075 -28.3307 197.451 -28.1953 197.736C-27.4281 197.165 -26.9542 196.579 -26.7737 195.978L-25.51 196.451C-26.4577 197.698 -27.7139 198.6 -29.2784 199.156C-30.5872 198.585 -31.7155 197.676 -32.6633 196.429C-33.596 195.166 -34.0624 194.061 -34.0624 193.115C-34.0624 192.543 -33.9044 191.897 -33.5885 191.176C-33.2575 190.439 -32.6859 189.673 -31.8735 188.876C-31.0611 188.065 -30.0908 187.464 -28.9625 187.073C-28.09 187.449 -27.2475 188.042 -26.4352 188.854L-28.6917 190.026Z" fill="#374A4B"/>
            <path d="M-15.23 198.841L-21.5032 198.841C-22.0147 199.262 -22.4284 199.81 -22.7443 200.486C-23.0452 201.178 -23.1957 201.816 -23.1957 202.403H-23.7598C-23.7598 201.831 -23.8576 201.245 -24.0532 200.644C-24.2487 200.043 -24.4518 199.592 -24.6624 199.292L-24.9558 198.841V198.277H-22.3607L-19.4046 187.298L-17.0578 187.298L-14.1017 198.277H-11.7775V198.841C-11.8677 198.961 -11.9806 199.126 -12.1159 199.337C-12.2513 199.562 -12.4319 199.983 -12.6575 200.599C-12.8832 201.23 -12.996 201.831 -12.996 202.403H-13.5376C-13.5376 201.816 -13.6955 201.178 -14.0115 200.486C-14.3123 199.81 -14.7185 199.262 -15.23 198.841ZM-21.8192 198.277L-16.4937 198.277L-19.1564 188.38L-21.8192 198.277Z" fill="#374A4B"/>
            <path d="M-4.45358 187.862L-8.28973 189.643V192.235L-5.85264 191.108L-4.92745 192.438L-8.28973 194.016V196.767C-8.28973 197.248 -8.12425 197.488 -7.79329 197.488C-7.68798 197.488 -7.61276 197.473 -7.56763 197.443L-5.2885 196.338L-3.82174 197.466L-6.98092 198.931C-7.34197 199.096 -7.71807 199.179 -8.1092 199.179C-8.78617 199.179 -9.37288 198.953 -9.86932 198.503C-10.3507 198.052 -10.5914 197.42 -10.5914 196.609V189.936C-10.5914 189.26 -10.3056 188.801 -9.73393 188.561L-6.43935 187.028L-4.45358 187.862Z" fill="#374A4B"/>
            <path d="M4.38221 187.682L6.34542 198.841H3.97603L2.4867 190.297C0.636324 192.596 -0.288866 195.181 -0.288866 198.052C-0.288866 198.412 -0.281344 198.675 -0.2663 198.841H-2.72595C-2.66578 197.022 -2.33481 195.519 -1.73306 194.332C-1.11627 193.145 0.230143 191.484 2.30618 189.35L1.94513 187.298H3.84064C4.15656 187.298 4.33708 187.426 4.38221 187.682Z" fill="#374A4B"/>
            <path d="M13.7821 187.682L15.7454 198.841H13.3985L13.1277 197.443C12.2251 198.525 11.0517 199.066 9.60751 199.066C8.75002 199.066 8.13322 198.803 7.75713 198.277C7.39608 197.751 7.21555 197.157 7.21555 196.496C7.21555 194.557 8.74249 192.311 11.7964 189.756L11.3451 187.298H13.2406C13.5565 187.298 13.737 187.426 13.7821 187.682ZM12.9698 196.451L11.8866 190.364C10.2168 191.762 9.38185 193.242 9.38185 194.805C9.38185 195.392 9.53229 195.963 9.83316 196.519C10.134 197.06 10.5929 197.33 11.2097 197.33C11.9619 197.33 12.5486 197.037 12.9698 196.451Z" fill="#374A4B"/>
            <path d="M19.8424 198.841V187.862C19.2406 187.862 18.7968 187.884 18.511 187.93C18.2252 187.975 17.9619 188.095 17.7212 188.29C17.4955 188.486 17.3526 188.771 17.2924 189.147C17.2323 189.523 17.2022 190.064 17.2022 190.77H16.638C16.638 190.199 16.5779 189.673 16.4575 189.192C16.3372 188.696 16.2168 188.35 16.0965 188.155L15.9159 187.862V187.298H26.0705V187.862C25.574 188.508 25.3258 189.478 25.3258 190.77H24.7842C24.7842 190.064 24.7541 189.523 24.694 189.147C24.6338 188.771 24.4833 188.486 24.2426 188.29C24.017 188.095 23.7612 187.975 23.4754 187.93C23.1896 187.884 22.7458 187.862 22.144 187.862V198.841H19.8424Z" fill="#374A4B"/>
            <path d="M26.7149 187.298H29.0392V191.446L30.7993 190.432C31.4462 190.958 32.2736 191.972 33.2815 193.475C34.3045 194.978 35.2146 196.767 36.012 198.841H26.7149L26.7149 187.298ZM29.0392 198.277H32.9656C32.5895 196.834 32.1156 195.512 31.544 194.309C30.9723 193.107 30.4458 192.19 29.9644 191.559L29.0392 192.078L29.0392 198.277Z" fill="#374A4B"/>
        </g>
    </g>
    <defs>
        <filter id="filter0_f_224_689" x="-106.738" y="50.4026" width="216" height="155" filterUnits="userSpaceOnUse" color-interpolation-filters="sRGB">
            <feFlood flood-opacity="0" result="BackgroundImageFix"/>
            <feBlend mode="normal" in="SourceGraphic" in2="BackgroundImageFix" result="shape"/>
            <feGaussianBlur stdDeviation="1.5" result="effect1_foregroundBlur_224_689"/>
        </filter>
        <linearGradient id="paint0_linear_224_689" x1="64.2173" y1="256.004" x2="64.2173" y2="0.141677" gradientUnits="userSpaceOnUse">
            <stop stop-color="#EDD6B9"/>
            <stop offset="1" stop-color="#D4B492"/>
        </linearGradient>
        <linearGradient id="paint1_linear_224_689" x1="64.2173" y1="256.004" x2="64.2173" y2="0.141677" gradientUnits="userSpaceOnUse">
            <stop stop-color="#EDD6B9"/>
            <stop offset="1" stop-color="#D4B492"/>
        </linearGradient>
    </defs>
</svg>
