<svg width="73" height="101" viewBox="0 0 73 101" fill="none" xmlns="http://www.w3.org/2000/svg">
    <path d="M35.6812 68.8277C27.5812 68.9376 21.0623 72.717 21.1215 77.2827C21.1807 81.8485 27.801 85.4165 35.901 85.3066C44.001 85.1967 50.5198 81.4257 50.4607 76.8515C50.4015 72.2773 43.7811 68.6839 35.6812 68.8277Z" fill="#D78419"/>
    <path d="M11.9985 91.3265C11.9985 91.3265 29.1961 102.191 39.9003 100.627C50.6044 99.063 59.3977 92.5018 59.3977 92.5018C29.213 74.2388 11.9985 91.3265 11.9985 91.3265Z" fill="#F8C465"/>
    <g style="mix-blend-mode:multiply" opacity="0.35">
        <path d="M24.1231 88.7733C23.8941 88.1864 23.7836 87.5599 23.7982 86.9301C23.8127 86.3002 23.9518 85.6795 24.2076 85.1038C16.2429 87.1161 11.9985 91.3267 11.9985 91.3267C11.9985 91.3267 29.1961 102.191 39.9003 100.627C43.7439 100.027 47.4839 98.888 51.0103 97.2453C47.5979 96.5795 44.1295 96.2426 40.6528 96.2391C33.3391 96.3998 27.336 96.3237 24.1231 88.7733Z" fill="#F6A434"/>
    </g>
    <path d="M46.7236 50.4041C46.7236 50.4041 33.4998 54.5555 25.7126 50.6915C25.7126 50.6915 36.6113 64.82 26.2791 91.7241C29.5086 93.6058 33.2234 94.488 36.9541 94.2593C40.6848 94.0305 44.2639 92.7011 47.2393 90.4389C47.2393 90.4389 34.5567 70.5948 46.7236 50.4041Z" fill="#F6A434"/>
    <g style="mix-blend-mode:multiply" opacity="0.55">
        <path d="M41.3207 78.5596C39.0921 78.5559 36.8879 78.0955 34.8441 77.2068C33.2981 77.5777 31.6883 77.5951 30.1346 77.2575C29.5441 81.1445 28.6046 84.9704 27.3275 88.6888L28.5873 89.0608C33.6604 90.5066 40.4244 89.1876 45.4383 86.9978C44.181 84.2617 43.2009 81.4065 42.5129 78.4751C42.1662 78.5173 41.7519 78.5512 41.3207 78.5596Z" fill="#F6A434"/>
    </g>
    <g style="mix-blend-mode:multiply" opacity="0.55">
        <path d="M25.7126 50.6915C25.7126 50.6915 30.0078 56.2634 30.6504 67.0606C33.9733 68.2105 38.2093 66.9338 41.5659 66.2827C42.0084 60.6571 43.7758 55.2159 46.7236 50.4041C46.7236 50.4041 33.4998 54.5555 25.7126 50.6915Z" fill="#F6A434"/>
    </g>
    <path d="M44.838 70.468C43.4881 71.5571 41.9306 72.3601 40.2605 72.8281C38.5904 73.2962 36.8424 73.4195 35.1231 73.1905C32.6277 72.9495 30.2807 71.8948 28.4436 70.1889C28.3929 70.1382 28.359 70.0791 28.3083 70.0283C23.9793 71.508 21.0792 74.1967 21.1215 77.2236C21.1891 81.764 27.801 85.3574 35.901 85.2475C44.001 85.1376 50.5198 81.3666 50.4607 76.7924C50.4184 74.2136 48.2285 71.9307 44.838 70.468Z" fill="#F8C465"/>
    <g style="mix-blend-mode:multiply" opacity="0.35">
        <path d="M27.6235 72.751C27.2464 72.0805 26.9943 71.347 26.8794 70.5864C23.3537 72.1337 21.0877 74.5434 21.1215 77.2237C21.1892 81.7641 27.801 85.3575 35.901 85.2476C41.4814 85.1715 46.3092 83.3536 48.7528 80.7495C40.4752 81.7303 31.8003 80.2506 27.6235 72.751Z" fill="#F6A434"/>
    </g>
    <path d="M3.50958 6.99556C3.50958 6.99556 7.24674 10.8342 27.7588 17.4883C48.2708 24.1425 69.4593 8.67812 69.4593 8.67812C69.4593 8.67812 57.7744 3.4698 38.5052 0.56125C19.2361 -2.3473 3.50958 6.99556 3.50958 6.99556Z" fill="#F6A434"/>
    <g style="mix-blend-mode:multiply" opacity="0.55">
        <path d="M22.4574 8.19624C19.1768 8.82191 10.8148 12.1448 10.8148 12.1448C14.1207 13.4807 22.3813 15.7382 27.7249 17.4884C40.9825 21.792 55.4238 18.224 63.3378 14.1994C58.9215 12.2375 54.3588 10.6233 49.6913 9.37148C37.6174 6.53903 33.4237 6.08246 22.4574 8.19624Z" fill="#D18C34"/>
    </g>
    <path d="M68.5546 25.7659C66.4155 22.4431 62.9066 14.9265 69.5438 8.60207C69.5438 8.60207 41.642 27.4823 3.50957 6.99561C3.50957 6.99561 12.8609 13.5229 3.74631 24.6329C-6.78028 37.4678 5.20904 58.5125 35.529 57.6923C35.529 57.6923 79.9774 59.637 71.2518 31.3547C70.6088 29.3787 69.7016 27.4987 68.5546 25.7659Z" fill="#F8C465"/>
    <g style="mix-blend-mode:multiply" opacity="0.35">
        <path d="M3.50958 6.99561C3.50958 6.99561 10.6795 12.001 6.34204 20.7098C21.5612 25.0388 38.9702 27.6176 54.1556 22.1302C55.8043 21.5299 63.2617 18.6129 65.8067 18.6636C65.5455 16.8081 65.7504 14.9168 66.4028 13.1602C67.0553 11.4037 68.1347 9.83719 69.5439 8.60207C69.5439 8.60207 41.6505 27.4823 3.50958 6.99561Z" fill="#F49411"/>
    </g>
    <path d="M52.0164 33.2656C49.1163 36.6476 49.3446 42.1181 45.9964 45.1027C44.6369 46.2121 42.9119 46.7734 41.1599 46.6764C39.4079 46.5794 37.7554 45.8312 36.5267 44.5785C36.5274 45.7381 36.8461 46.8752 37.4481 47.8663C38.0501 48.8574 38.9123 49.6644 39.9409 50.1997C40.9695 50.7349 42.1253 50.9779 43.2824 50.9021C44.4395 50.8263 45.5536 50.4347 46.5037 49.7699C48.5329 48.3579 49.5475 45.9144 50.2831 43.5554C51.0187 41.1964 51.6021 38.7107 53.1156 36.7491C54.629 34.7875 57.4107 33.5446 59.626 34.6438C60.182 34.9744 60.6528 35.4305 61.0009 35.9758C61.3489 36.521 61.5644 37.1402 61.6302 37.7837C61.6959 38.4272 61.61 39.0772 61.3795 39.6815C61.1489 40.2859 60.78 40.8279 60.3024 41.2641C59.8808 41.611 59.3795 41.8476 58.8437 41.9524C58.3079 42.0572 57.7544 42.0269 57.2332 41.8644C56.7168 41.6831 56.2749 41.3359 55.9767 40.877C55.6784 40.4182 55.5405 39.8734 55.5844 39.3279C55.6257 39.0619 55.7208 38.8071 55.8639 38.5792C56.007 38.3512 56.1951 38.1548 56.4167 38.0021C56.6383 37.8493 56.8888 37.7434 57.1527 37.6908C57.4167 37.6382 57.6886 37.6399 57.9519 37.696C57.4501 37.581 56.9303 37.5678 56.4233 37.6573C55.9164 37.7468 55.4325 37.9371 55.0005 38.217C54.5684 38.4969 54.1969 38.8607 53.908 39.2868C53.6191 39.7129 53.4186 40.1926 53.3185 40.6976C53.178 41.7369 53.379 42.7937 53.8915 43.7087C54.4039 44.6237 55.1999 45.3474 56.1594 45.7707C57.1265 46.1599 58.1724 46.313 59.2105 46.2174C60.2486 46.1219 61.2489 45.7803 62.1287 45.2211C66.0265 42.8536 66.9988 36.8083 64.048 33.3417C61.0972 29.8751 54.9757 29.799 52.0164 33.2656Z" fill="#FBD693"/>
    <path d="M26.6173 46.6163C24.4021 44.8492 24.9263 41.4418 24.6219 38.6178C24.4016 36.6608 23.6568 34.7997 22.4662 33.2311C21.2756 31.6625 19.6834 30.4446 17.8578 29.7061C16.0094 29.0268 13.9994 28.9191 12.0889 29.397C10.1785 29.875 8.45598 30.9166 7.14524 32.3864C5.89999 33.9099 5.19401 35.8028 5.13742 37.7697C5.08083 39.7366 5.67682 41.667 6.83241 43.2596C8.0752 44.7852 9.827 45.8109 11.7657 46.148C13.7043 46.4851 15.6995 46.1109 17.3844 45.0944C18.1076 44.6399 18.7239 44.0344 19.1909 43.3192C19.6579 42.6041 19.9647 41.7963 20.09 40.9514C20.1905 40.1013 20.0208 39.2412 19.605 38.493C19.1892 37.7447 18.5483 37.1465 17.7733 36.783C17.3799 36.6288 16.9593 36.5556 16.537 36.5679C16.1146 36.5802 15.699 36.6777 15.3152 36.8546C14.9315 37.0315 14.5874 37.2841 14.3036 37.5972C14.0199 37.9104 13.8024 38.2776 13.6641 38.677C14.1038 37.4256 16.133 37.3326 16.877 38.4233C17.1861 39.0003 17.2601 39.6744 17.0836 40.3047C16.9071 40.935 16.4938 41.4727 15.9301 41.8053C15.3354 42.1059 14.6718 42.2438 14.0066 42.2052C13.3413 42.1666 12.6982 41.9528 12.1422 41.5855C11.0642 40.9278 10.2746 39.8869 9.93176 38.6715C9.58893 37.456 9.71819 36.156 10.2936 35.0318C10.8691 33.9077 11.8481 33.0426 13.0346 32.61C14.221 32.1775 15.5271 32.2093 16.691 32.6992C19.4812 33.8745 20.6057 37.1973 21.0539 40.182C21.502 43.1666 21.7134 46.4387 23.6834 48.7301C24.7405 49.8568 26.1096 50.6429 27.6156 50.9878C29.1217 51.3327 30.6964 51.2207 32.1385 50.6663C33.5617 50.0733 34.833 49.1671 35.8577 48.0151C36.8824 46.863 37.6341 45.4948 38.0571 44.0121C36.0786 44.5955 34.3791 45.8892 32.4936 46.7178C30.6081 47.5464 28.2322 47.9015 26.6173 46.6163Z" fill="#FBD693"/>
    <path d="M36.7803 26.2563C36.8395 27.7698 35.4782 29.0381 34.0239 29.8413C32.5697 30.6446 30.9209 31.2279 29.7203 32.3102C27.3444 34.4493 27.522 38.0597 29.2468 40.63C30.9717 43.2004 33.9056 44.9252 36.7972 46.4809C39.9087 45.1789 42.8257 43.2849 44.4575 40.6216C46.0894 37.9582 46.1993 34.4409 44.094 32.0566C41.9886 29.6722 38.3699 28.8098 36.7803 26.2563ZM42.4875 39.1673C41.2277 41.4924 38.818 43.1496 36.4928 44.7223C34.4805 43.5555 32.4175 42.321 31.1661 40.4947C29.9148 38.6684 29.7541 36.115 31.4367 34.5762C32.5139 33.7696 33.6833 33.094 34.9202 32.5638C36.2054 31.8452 37.4567 31.1857 37.1439 29.7145C37.1439 29.7145 37.7611 31.0927 40.7204 32.9697C43.0878 34.5085 43.7558 36.8421 42.4875 39.1673Z" fill="#FBD693"/>
    <path d="M36.4929 35.8528C36.3112 36.8855 35.9073 37.8663 35.3092 38.7275L32.7726 37.0365C33.1898 38.5077 33.5984 39.9789 33.9986 41.45H38.6067C39.3225 39.9563 40.0384 38.4569 40.7543 36.9519L37.6851 38.643C37.2961 37.7467 36.8903 36.8167 36.4929 35.8528Z" fill="#FBD693"/>
    <g style="mix-blend-mode:screen" opacity="0.55">
        <path d="M3.50958 6.99561C5.36182 8.43005 6.71406 10.4125 7.37357 12.6605C17.5197 16.1356 27.057 19.4246 37.9134 19.4753C47.3915 19.4753 56.7259 17.0403 65.9251 14.8166C66.4577 12.4199 67.7223 10.2482 69.5439 8.60207C69.5439 8.60207 41.6505 27.4823 3.50958 6.99561Z" fill="#F8C465"/>
    </g>
    <g style="mix-blend-mode:multiply" opacity="0.54">
        <path d="M32.3245 47.9353C25.0447 43.4118 20.9101 37.1128 19.439 28.6746C18.7541 24.7768 17.9086 19.2979 17.0208 15.8567C13.8163 14.6476 10.578 13.8697 7.37355 12.6606C8.38816 16.6768 7.22135 20.3971 3.74631 24.6331C-6.78028 37.4679 5.20904 58.5126 35.529 57.6924C35.529 57.6924 50.5199 58.3435 61.3847 53.355C51.0948 53.6848 40.6274 53.1014 32.3245 47.9353Z" fill="#F6A434"/>
    </g>
</svg>
