<svg width="450" height="748" viewBox="0 0 450 748" fill="none" xmlns="http://www.w3.org/2000/svg">
    <g style="mix-blend-mode:overlay" opacity="0.3">
        <path d="M112.91 248.49C112.91 248.54 112.91 248.61 112.84 248.61L112.91 248.49Z" fill="white"/>
    </g>
    <g style="mix-blend-mode:overlay" opacity="0.3">
        <path d="M92.93 276.6C92.8998 276.762 92.8234 276.911 92.71 277.03C92.736 276.867 92.813 276.716 92.93 276.6Z" fill="white"/>
    </g>
    <g style="mix-blend-mode:overlay" opacity="0.3">
        <path d="M313.79 277C313.678 276.877 313.596 276.73 313.55 276.57C313.66 276.65 313.74 276.84 313.79 277Z" fill="white"/>
    </g>
    <g style="mix-blend-mode:overlay" opacity="0.3">
        <path d="M293.71 248.61H293.64C293.64 248.61 293.64 248.56 293.59 248.5C293.635 248.531 293.675 248.568 293.71 248.61Z" fill="white"/>
    </g>
    <g opacity="0.90">
        <g style="mix-blend-mode:overlay" opacity="0.6">
            <path d="M430 385.22C429.204 385.22 428.441 385.536 427.879 386.099C427.316 386.661 427 387.424 427 388.22V399.55C427 400.346 427.316 401.109 427.879 401.671C428.441 402.234 429.204 402.55 430 402.55H450V385.22H430Z" fill="#1D1D1B"/>
        </g>
        <g style="mix-blend-mode:overlay" opacity="0.6">
            <path d="M427.6 425.2C426.804 425.2 426.041 425.516 425.479 426.079C424.916 426.641 424.6 427.404 424.6 428.2V439.53C424.6 440.326 424.916 441.089 425.479 441.651C426.041 442.214 426.804 442.53 427.6 442.53H450V425.2H427.6Z" fill="#1D1D1B"/>
        </g>
        <g style="mix-blend-mode:overlay" opacity="0.6">
            <path d="M449.51 408.44V419.77C449.511 420.353 449.681 420.923 450 421.41V406.79C449.679 407.28 449.509 407.854 449.51 408.44Z" fill="#1D1D1B"/>
        </g>
    </g>
    <g opacity="0.90">
        <g style="mix-blend-mode:overlay" opacity="0.6">
            <path d="M425.53 92.33C424.734 92.33 423.971 92.6461 423.409 93.2087C422.846 93.7713 422.53 94.5344 422.53 95.33V106.7C422.53 107.496 422.846 108.259 423.409 108.821C423.971 109.384 424.734 109.7 425.53 109.7H450V92.3L425.53 92.33Z" fill="#1D1D1B"/>
        </g>
        <g style="mix-blend-mode:overlay" opacity="0.6">
            <path d="M375.2 92.33H417.2C417.996 92.33 418.759 92.6461 419.321 93.2087C419.884 93.7713 420.4 94.5344 420.4 95.33V106.66C420.4 107.456 419.884 108.219 419.321 108.781C418.759 109.344 417.996 109.66 417.2 109.66H375.2C374.404 109.66 373.641 109.344 373.079 108.781C372.516 108.219 372.2 107.456 372.2 106.66V95.37C372.195 94.9727 372.268 94.5783 372.417 94.2097C372.565 93.8411 372.785 93.5056 373.064 93.2228C373.343 92.94 373.676 92.7154 374.043 92.5621C374.409 92.4089 374.803 92.33 375.2 92.33Z" fill="#1D1D1B"/>
        </g>
        <g style="mix-blend-mode:overlay" opacity="0.6">
            <path d="M447.44 75.57V86.9C447.432 87.625 447.687 88.3283 448.158 88.8798C448.628 89.4313 449.283 89.7937 450 89.9V72.59C449.286 72.6958 448.635 73.0554 448.164 73.6027C447.694 74.15 447.437 74.8485 447.44 75.57Z" fill="#1D1D1B"/>
        </g>
        <g style="mix-blend-mode:overlay" opacity="0.6">
            <path d="M400.14 72.54H442.14C442.936 72.54 443.699 72.8561 444.261 73.4187C444.824 73.9813 445.14 74.7444 445.14 75.54V86.9C445.14 87.6957 444.824 88.4588 444.261 89.0214C443.699 89.584 442.936 89.9 442.14 89.9H400.14C399.344 89.9 398.581 89.584 398.019 89.0214C397.456 88.4588 397.14 87.6957 397.14 86.9V75.57C397.136 75.1736 397.211 74.7802 397.36 74.4128C397.509 74.0453 397.729 73.7111 398.008 73.4293C398.287 73.1475 398.619 72.9239 398.985 72.7712C399.351 72.6186 399.744 72.54 400.14 72.54Z" fill="#1D1D1B"/>
        </g>
    </g>
    <g opacity="0.90">
        <g style="mix-blend-mode:overlay" opacity="0.6">
            <path d="M417.3 234.17C416.504 234.17 415.741 234.486 415.179 235.049C414.616 235.611 414.3 236.374 414.3 237.17V248.5C414.3 249.296 414.616 250.059 415.179 250.621C415.741 251.184 416.504 251.5 417.3 251.5H450V234.1L417.3 234.17Z" fill="#1D1D1B"/>
        </g>
        <g style="mix-blend-mode:overlay" opacity="0.6">
            <path d="M414.9 274.15C414.104 274.15 413.341 274.466 412.779 275.029C412.216 275.591 411.9 276.354 411.9 277.15V288.48C411.9 289.276 412.216 290.039 412.779 290.601C413.341 291.164 414.104 291.48 414.9 291.48H450V274.08L414.9 274.15Z" fill="#1D1D1B"/>
        </g>
        <g style="mix-blend-mode:overlay" opacity="0.6">
            <path d="M364.57 274.15H406.57C407.366 274.15 408.129 274.466 408.691 275.029C409.254 275.591 409.57 276.354 409.57 277.15V288.48C409.57 289.276 409.254 290.039 408.691 290.601C408.129 291.164 407.366 291.48 406.57 291.48H364.57C363.774 291.48 363.011 291.164 362.449 290.601C361.886 290.039 361.57 289.276 361.57 288.48V277.19C361.565 276.793 361.638 276.398 361.787 276.03C361.935 275.661 362.155 275.326 362.434 275.043C362.713 274.76 363.046 274.535 363.413 274.382C363.779 274.229 364.173 274.15 364.57 274.15Z" fill="#1D1D1B"/>
        </g>
        <g style="mix-blend-mode:overlay" opacity="0.6">
            <path d="M439.85 254.36C439.054 254.36 438.291 254.676 437.729 255.239C437.166 255.801 436.85 256.564 436.85 257.36V268.69C436.85 269.486 437.166 270.449 437.729 270.811C438.291 271.374 439.054 271.69 439.85 271.69H450V254.29L439.85 254.36Z" fill="#1D1D1B"/>
        </g>
        <g style="mix-blend-mode:overlay" opacity="0.6">
            <path d="M389.51 254.36H431.51C432.306 254.36 433.069 254.676 433.631 255.239C434.194 255.801 434.51 256.564 434.51 257.36V268.69C434.51 269.486 434.194 270.449 433.631 270.811C433.069 271.374 432.306 271.69 431.51 271.69H389.51C388.714 271.69 387.951 271.374 387.389 270.811C386.826 270.449 386.51 269.486 386.51 268.69V257.39C386.506 256.994 386.581 256.6 386.73 256.233C386.879 255.865 387.099 255.531 387.378 255.249C387.657 254.968 387.989 254.744 388.355 254.591C388.721 254.439 389.114 254.36 389.51 254.36Z" fill="#1D1D1B"/>
        </g>
    </g>
    <g opacity="0.90">
        <g style="mix-blend-mode:overlay" opacity="0.6">
            <path d="M24.39 293.9H66.39C67.1856 293.9 67.9487 294.216 68.5113 294.779C69.0739 295.341 69.39 296.104 69.39 296.9V308.23C69.39 309.026 69.0739 309.789 68.5113 310.351C67.9487 310.914 67.1856 311.23 66.39 311.23H24.39C23.5943 311.23 22.8313 310.914 22.2687 310.351C21.706 309.789 21.39 309.026 21.39 308.23V296.94C21.3847 296.543 21.4584 296.148 21.6068 295.78C21.7551 295.411 21.9753 295.076 22.2544 294.793C22.5335 294.51 22.866 294.285 23.2326 294.132C23.5992 293.979 23.9926 293.9 24.39 293.9Z" fill="#1D1D1B"/>
        </g>
        <g style="mix-blend-mode:overlay" opacity="0.6">
            <path d="M19.12 308.26V296.94C19.12 296.144 18.8039 295.381 18.2413 294.819C17.6787 294.256 16.9157 293.94 16.12 293.94H0V311.34H16.09C16.4933 311.344 16.8933 311.267 17.2661 311.113C17.6389 310.959 17.9768 310.732 18.2597 310.444C18.5425 310.37 18.7645 309.815 18.9123 309.44C19.0601 309.064 19.1308 308.663 19.12 308.26Z" fill="#1D1D1B"/>
        </g>
        <g style="mix-blend-mode:overlay" opacity="0.6">
            <path d="M49.33 274.11H91.33C92.1256 274.11 92.8887 274.426 93.4513 274.989C94.0139 275.551 94.33 276.314 94.33 277.11V288.44C94.33 289.236 94.0139 289.999 93.4513 290.561C92.8887 291.124 92.1256 291.44 91.33 291.44H49.33C48.5343 291.44 47.7713 291.124 47.2087 290.561C46.6461 289.999 46.33 289.236 46.33 288.44V277.14C46.326 276.744 46.4007 276.35 46.5497 275.983C46.6987 275.615 46.919 275.281 47.198 274.999C47.477 274.718 47.809 274.494 48.175 274.341C48.5409 274.189 48.9335 274.11 49.33 274.11Z" fill="#1D1D1B"/>
        </g>
        <g style="mix-blend-mode:overlay" opacity="0.6">
            <path d="M44.07 288.47V277.14C44.07 276.344 43.7539 275.581 43.1913 275.019C42.6287 274.456 41.8656 274.14 41.07 274.14H0V291.5H41C41.4024 291.509 41.8025 291.438 42.1766 291.289C42.5507 291.141 42.8911 290.919 43.1775 290.636C43.464 290.353 43.6906 290.016 43.8439 289.644C43.9973 289.272 44.0741 288.872 44.07 288.47Z" fill="#1D1D1B"/>
        </g>
    </g>
    <g opacity="0.90">
        <g style="mix-blend-mode:overlay" opacity="0.6">
            <path d="M87.84 89.5H129.84C130.636 89.5 131.399 89.8161 131.961 90.3787C132.524 90.9413 132.84 91.7044 132.84 92.5V103.82C132.84 104.616 132.524 105.379 131.961 105.941C131.399 106.504 130.636 106.82 129.84 106.82H87.84C87.0443 106.82 86.2813 106.504 85.7187 105.941C85.1561 105.379 84.84 104.616 84.84 103.82V92.53C84.836 92.1335 84.9107 91.7402 85.0597 91.3727C85.2087 91.0053 85.429 90.671 85.708 90.3893C85.987 90.1075 86.319 89.8838 86.685 89.7312C87.0509 89.5786 87.4435 89.5 87.84 89.5Z" fill="#1D1D1B"/>
        </g>
        <g style="mix-blend-mode:overlay" opacity="0.6">
            <path d="M90.43 49.52H132.23C133.026 49.52 133.789 49.8361 134.351 50.3987C134.914 50.9613 135.23 51.7244 135.23 52.52V63.88C135.23 64.6757 134.914 65.4387 134.351 66.0013C133.789 66.564 133.026 66.88 132.23 66.88H90.43C89.4344 66.88 88.6713 66.564 88.1087 66.0013C87.5461 65.4387 87.23 64.6757 87.23 63.88V52.55C87.226 52.1535 87.3007 51.7602 87.4497 51.3928C87.5987 51.0253 87.819 50.691 88.098 50.4093C88.377 50.1275 88.709 49.9039 89.075 49.7512C89.4409 49.5986 89.8335 49.52 90.43 49.52Z" fill="#1D1D1B"/>
        </g>
        <g style="mix-blend-mode:overlay" opacity="0.6">
            <path d="M140.57 49.52H182.57C183.366 49.52 184.129 49.8361 184.691 50.3987C185.254 50.9613 185.57 51.7244 185.57 52.52V63.88C185.57 64.6757 185.254 65.4387 184.691 66.0013C184.129 66.564 183.366 66.88 182.57 66.88H140.57C139.774 66.88 139.011 66.564 138.449 66.0013C137.886 65.4387 137.57 64.6757 137.57 63.88V52.55C137.566 52.1535 137.641 51.7602 137.79 51.3928C137.939 51.0253 138.159 50.691 138.438 50.4093C138.717 50.1275 139.049 49.9039 139.415 49.7512C139.781 49.5986 140.174 49.52 140.57 49.52Z" fill="#1D1D1B"/>
        </g>
        <g style="mix-blend-mode:overlay" opacity="0.6">
            <path d="M110.35 72.34V83.68C110.35 84.4757 110.034 85.2387 109.471 85.8014C108.909 86.364 108.146 86.68 107.35 86.68H73.91V69.31H107.32C107.719 69.306 108.115 69.3817 108.484 69.5325C108.854 69.6834 109.189 69.9064 109.472 70.1886C109.754 70.4707 109.977 70.8063 110.128 71.1758C110.478 71.5452 110.354 71.941 110.35 72.34Z" fill="#1D1D1B"/>
        </g>
        <g style="mix-blend-mode:overlay" opacity="0.6">
            <path d="M115.62 69.31H157.62C158.416 69.31 159.179 69.6261 159.741 70.1887C160.304 70.9013 160.62 71.5143 160.62 72.31V83.64C160.62 84.4356 160.304 85.1987 159.741 85.7613C159.179 86.3239 158.416 86.64 157.62 86.64H115.62C114.824 86.64 114.061 86.3239 113.499 85.7613C112.936 85.1987 112.62 84.4356 112.62 83.64V72.35C112.615 71.9527 112.688 71.5583 112.837 71.1897C112.985 70.8211 113.205 70.4856 113.484 70.4028C113.764 69.9199 114.096 69.6954 114.463 69.5421C114.829 69.3889 115.223 69.31 115.62 69.31Z" fill="#1D1D1B"/>
        </g>
    </g>
    <g opacity="0.90">
        <g style="mix-blend-mode:overlay" opacity="0.6">
            <path d="M250.81 69.51H292.81C293.606 69.51 294.369 69.8261 294.931 70.3887C295.494 70.9513 295.81 71.7144 295.81 72.51V83.84C295.81 84.6357 295.494 85.3987 294.931 85.9613C294.369 86.5239 293.606 86.84 292.81 86.84H250.81C250.014 86.84 249.251 86.5239 248.689 85.9613C248.126 85.3987 247.81 84.6357 247.81 83.84V72.55C247.805 72.1527 247.878 71.7583 248.027 71.3897C248.175 71.0211 248.395 70.6856 248.674 70.4028C248.953 70.12 249.286 69.8954 249.653 69.7421C250.019 69.5889 250.413 69.51 250.81 69.51Z" fill="#1D1D1B"/>
        </g>
        <g style="mix-blend-mode:overlay" opacity="0.6">
            <path d="M248.42 109.49H290.42C290.814 109.49 291.204 109.568 291.568 109.718C291.932 109.869 292.263 110.09 292.541 110.369C292.82 110.647 293.041 110.978 293.192 111.342C293.342 111.706 293.42 112.096 293.42 112.49V123.82C293.42 124.616 293.104 125.379 292.541 125.941C291.979 126.504 291.216 126.82 290.42 126.82H248.42C247.624 126.82 246.861 126.504 246.299 125.941C245.736 125.379 245.42 124.616 245.42 123.82V112.52C245.416 112.124 245.491 111.73 245.64 111.363C245.789 110.995 246.009 110.661 246.288 110.379C246.567 110.097 246.899 109.874 247.265 109.721C247.631 109.569 248.024 109.49 248.42 109.49Z" fill="#1D1D1B"/>
        </g>
        <g style="mix-blend-mode:overlay" opacity="0.6">
            <path d="M243.16 112.52V123.85C243.16 124.646 242.844 125.409 242.281 125.971C241.719 126.534 240.956 126.85 240.16 126.85H211.16V109.49H240.16C240.557 109.49 240.949 109.569 241.315 109.721C241.681 109.874 242.013 110.097 242.292 110.379C242.571 110.661 242.791 110.995 242.94 111.363C243.089 111.73 243.164 112.124 243.16 112.52Z" fill="#1D1D1B"/>
        </g>
        <g style="mix-blend-mode:overlay" opacity="0.6">
            <path d="M310.8 107.09H273.38C272.584 107.09 271.821 106.774 271.259 106.211C270.696 105.649 270.38 104.886 270.38 104.09V92.73C270.38 91.9343 270.696 91.1713 271.259 90.6087C271.821 90.046 272.584 89.73 273.38 89.73H309.08C309.2 91.9366 309.35 94.1433 309.53 96.35C309.658 99.5298 309.952 102.701 310.41 105.85C310.49 106.278 310.62 106.694 310.8 107.09Z" fill="#1D1D1B"/>
        </g>
        <g style="mix-blend-mode:overlay" opacity="0.6">
            <path d="M223 89.6899H265C265.796 89.6899 266.559 90.006 267.121 90.5686C267.684 91.1312 268 91.8943 268 92.6899V104.02C268 104.816 267.684 105.579 267.121 106.141C266.559 106.704 265.796 107.02 265 107.02H223C222.204 107.02 221.441 106.704 220.879 106.141C220.316 105.579 220 104.816 220 104.02V92.7299C219.995 92.3326 220.069 91.9382 220.417 91.5696C220.365 91.201 220.585 90.8655 220.865 90.5827C221.144 90.4999 221.476 90.0753 221.843 89.9221C222.209 89.7688 222.603 89.6899 223 89.6899Z" fill="#1D1D1B"/>
        </g>
    </g>
    <g opacity="0.90">
        <g style="mix-blend-mode:overlay" opacity="0.6">
            <path d="M314 160.68H356C356.796 160.68 357.559 160.996 358.121 161.559C358.684 162.121 359 162.884 359 163.68V175C359 175.796 358.684 176.559 358.121 177.121C357.559 177.684 356.796 178 356 178H314C313.204 178 312.441 177.684 311.879 177.121C311.316 176.559 311 175.796 311 175V163.71C310.996 163.314 311.071 162.92 311.22 162.553C311.369 162.185 311.589 161.851 311.868 161.569C312.147 161.287 312.479 161.064 312.845 160.911C313.211 160.909 313.603 160.68 314 160.68Z" fill="#1D1D1B"/>
        </g>
        <g style="mix-blend-mode:overlay" opacity="0.6">
            <path d="M316.39 200.66H358.39C359.186 200.66 359.949 200.976 360.511 201.539C361.074 202.101 361.39 202.864 361.39 203.66V215C361.39 215.796 361.074 216.559 360.511 217.121C359.949 217.684 359.186 218 358.39 218H316.39C315.594 218 314.831 217.684 314.269 217.121C313.706 216.559 313.39 215.796 313.39 215V203.69C313.386 203.293 313.461 202.9 313.61 202.533C313.759 202.165 313.979 201.831 314.258 201.549C314.537 201.267 314.869 201.044 315.235 200.891C315.601 200.739 315.994 200.66 316.39 200.66Z" fill="#1D1D1B"/>
        </g>
        <g style="mix-blend-mode:overlay" opacity="0.6">
            <path d="M403.5 200.65V218H366.72C365.924 218 365.161 217.684 364.599 217.121C364.036 216.559 363.72 215.796 363.72 215V203.69C363.72 202.894 364.036 202.131 364.599 201.569C365.161 201.006 365.924 200.69 366.72 200.69L403.5 200.65Z" fill="#1D1D1B"/>
        </g>
        <g style="mix-blend-mode:overlay" opacity="0.6">
            <path d="M291.44 180.86H333.44C334.236 180.86 334.999 181.176 335.561 181.739C336.124 182.301 336.44 183.064 336.44 183.86V195.19C336.44 195.986 336.124 196.749 335.561 197.311C334.999 197.874 334.236 198.19 333.44 198.19H291.44C290.644 198.19 289.881 197.874 289.319 197.311C288.756 196.749 288.44 195.986 288.44 195.19V183.9C288.435 183.503 288.508 183.108 288.657 182.74C288.805 182.371 289.025 182.036 289.304 181.753C289.583 181.47 289.916 181.245 290.483 181.092C290.649 180.939 291.043 180.86 291.44 180.86Z" fill="#1D1D1B"/>
        </g>
        <g style="mix-blend-mode:overlay" opacity="0.6">
            <path d="M341.78 180.86H383.78C384.576 180.86 385.339 181.176 385.901 181.739C386.464 182.301 386.78 183.064 386.78 183.86V195.19C386.78 195.986 386.464 196.749 385.901 197.311C385.339 197.874 384.576 198.19 383.78 198.19H341.78C340.984 198.19 340.421 197.874 339.659 197.311C339.096 196.749 338.78 195.986 338.78 195.19V183.9C338.775 183.503 338.848 183.108 338.997 182.74C339.145 182.371 339.365 182.036 339.644 181.753C339.923 181.47 340.456 181.245 340.623 181.092C340.989 180.939 341.383 180.86 341.78 180.86Z" fill="#1D1D1B"/>
        </g>
    </g>
    <g opacity="0.90">
        <g style="mix-blend-mode:overlay" opacity="0.6">
            <path d="M74.85 152.43H116.85C117.646 152.43 118.409 152.746 118.971 153.309C119.534 153.871 119.85 154.634 119.85 155.43V166.76C119.85 167.556 119.534 168.319 118.971 168.881C118.409 169.444 117.646 169.76 116.85 169.76H74.85C74.0543 169.76 73.2913 169.444 72.7287 168.881C72.166 168.319 71.85 167.556 71.85 166.76V155.46C71.85 154.664 72.166 153.901 72.7287 153.339C73.2913 152.776 74.0543 152.46 74.85 152.46V152.43Z" fill="#1D1D1B"/>
        </g>
        <g style="mix-blend-mode:overlay" opacity="0.6">
            <path d="M72.46 192.41H114.46C115.256 192.41 116.019 192.726 116.581 193.289C117.144 193.851 117.46 194.614 117.46 195.41V206.74C117.46 207.536 117.144 208.299 116.581 208.861C116.019 209.424 115.256 209.74 114.46 209.74H72.46C71.6643 209.74 70.9013 209.424 70.3387 208.861C69.7761 208.299 69.46 207.536 69.46 206.74V195.44C69.456 195.044 69.5307 194.65 69.6797 194.283C69.8287 193.915 70.049 193.581 70.328 193.299C70.607 193.017 70.939 192.794 71.305 192.641C71.6709 192.489 72.0635 192.41 72.46 192.41Z" fill="#1D1D1B"/>
        </g>
        <g style="mix-blend-mode:overlay" opacity="0.6">
            <path d="M22.12 192.41H64.12C64.9156 192.41 65.6787 192.726 66.2413 193.289C66.8039 193.851 67.12 194.614 67.12 195.41V206.74C67.12 207.536 66.8039 208.299 66.2413 208.861C65.6787 209.424 64.9156 209.74 64.12 209.74H22.12C21.3243 209.74 20.5613 209.424 19.9987 208.861C19.4361 208.299 19.12 207.536 19.12 206.74V195.44C19.12 194.644 19.4361 193.881 19.9987 193.319C20.5613 192.756 21.3243 192.44 22.12 192.44V192.41Z" fill="#1D1D1B"/>
        </g>
        <g style="mix-blend-mode:overlay" opacity="0.6">
            <path d="M97.41 172.61H139.41C140.406 172.61 140.969 172.926 141.531 173.489C142.094 174.051 142.41 174.814 142.41 175.61V187C142.41 187.796 142.094 188.559 141.531 189.121C140.969 189.684 140.406 190 139.41 190H97.41C96.6143 190 95.8513 189.684 95.2887 189.121C94.7261 188.559 94.41 187.796 94.41 187V175.65C94.4047 175.253 94.4784 174.858 94.6268 174.49C94.7752 174.121 94.9953 173.786 95.2744 173.503C95.5535 173.22 95.886 172.995 96.2526 172.842C96.6192 172.689 97.0126 172.61 97.41 172.61Z" fill="#1D1D1B"/>
        </g>
        <g style="mix-blend-mode:overlay" opacity="0.6">
            <path d="M47.07 172.61H89.07C89.8656 172.61 90.6287 172.926 91.1913 173.489C91.7539 174.051 92.07 174.814 92.07 175.61V187C92.07 187.796 91.7539 188.559 91.1913 189.121C90.6287 189.684 89.8656 190 89.07 190H47.07C46.2743 190 45.5113 189.684 44.9487 189.121C44.386 188.559 44.07 187.796 44.07 187V175.65C44.0647 175.253 44.1384 174.858 44.2867 174.49C44.4351 174.121 44.6553 173.786 44.9344 173.503C45.2135 173.22 45.546 172.995 45.9126 172.842C46.2792 172.689 46.6726 172.61 47.07 172.61Z" fill="#1D1D1B"/>
        </g>
    </g>
    <g style="mix-blend-mode:overlay" opacity="0.6">
        <path d="M36.0003 619.79H78.0003C78.7959 619.79 79.559 620.106 80.1216 620.669C80.6842 621.231 81.0003 621.994 81.0003 622.79V634.12C81.0003 634.916 80.6842 635.679 80.1216 636.241C79.559 636.804 78.7959 637.12 78.0003 637.12H36.0003C35.2046 637.12 34.4415 636.804 33.8789 636.241C33.3163 635.679 33.0003 634.916 33.0003 634.12V622.83C32.995 622.433 33.0686 622.038 33.217 621.67C33.3654 621.301 33.5856 620.966 33.8647 620.683C34.1438 620.4 34.4763 620.175 34.8429 620.022C35.2095 619.869 35.6029 619.79 36.0003 619.79Z" fill="#1D1D1B"/>
    </g>
    <g style="mix-blend-mode:overlay" opacity="0.6">
        <path d="M60.9403 600H102.94C103.736 600 104.499 600.316 105.062 600.879C105.624 601.441 105.94 602.204 105.94 603V614.33C105.94 615.126 105.624 615.889 105.062 616.451C104.499 617.014 103.736 617.33 102.94 617.33H60.9403C60.1447 617.33 59.3816 617.014 58.819 616.451C58.2564 615.889 57.9403 615.126 57.9403 614.33V603.03C57.9364 602.634 58.011 602.24 58.16 601.873C58.309 601.505 58.5293 601.171 58.8083 600.889C59.0873 600.608 59.4194 600.384 59.7853 600.431C60.313 600.079 60.5438 600 60.9403 600Z" fill="#1D1D1B"/>
    </g>
    <g style="mix-blend-mode:overlay" opacity="0.6">
        <path d="M158.81 668H200.81C201.606 668 202.369 668.316 202.931 668.879C203.494 669.441 203.81 670.404 203.81 671V682.33C203.81 683.126 203.494 683.889 202.931 684.451C202.369 685.014 201.606 685.33 200.81 685.33H158.81C158.014 685.33 157.251 685.014 156.689 684.451C156.126 683.889 155.81 683.126 155.81 682.33V671.04C155.805 670.643 155.878 670.448 156.027 669.88C156.175 669.511 156.395 669.176 156.674 668.893C156.954 668.61 157.286 668.385 157.653 668.232C158.019 668.079 158.413 668 158.81 668Z" fill="#1D1D1B"/>
    </g>
    <g style="mix-blend-mode:overlay" opacity="0.6">
        <path d="M218.8 705.58H181.38C180.584 705.58 179.821 705.264 179.259 704.701C178.696 704.139 178.38 703.376 178.38 702.58V691.22C178.38 690.424 178.696 689.661 179.259 689.099C179.821 688.536 180.584 688.22 181.38 688.22H217.08C217.2 690.427 217.35 692.633 217.53 694.84C217.658 698.02 217.952 701.191 218.41 704.34C218.49 704.768 218.621 705.184 218.8 705.58Z" fill="#1D1D1B"/>
    </g>
    <g style="mix-blend-mode:overlay" opacity="0.6">
        <path d="M131 688.18H173C173.796 688.18 174.559 688.496 175.122 689.059C175.684 689.621 176 690.384 176 691.18V702.51C176 703.306 175.684 704.069 175.122 704.631C174.559 705.194 173.796 705.51 173 705.51H131C130.405 705.51 129.442 705.194 128.879 704.631C128.316 704.069 128 703.306 128 702.51V691.22C127.995 690.823 128.069 690.428 128.217 690.06C128.365 689.691 128.586 689.356 128.865 689.073C129.144 688.79 129.476 688.565 129.843 688.412C130.41 688.259 130.603 688.18 131 688.18Z" fill="#1D1D1B"/>
    </g>
    <g style="mix-blend-mode:overlay" opacity="0.6">
        <path d="M334.56 593H376.56C377.356 593 378.119 593.316 378.682 593.879C379.244 594.441 379.56 595.204 379.56 596V607.32C379.56 608.116 379.244 608.879 378.682 609.441C378.119 610.004 377.356 610.32 376.56 610.32H334.56C333.765 610.32 333.002 610.004 332.439 609.441C331.876 608.879 331.56 608.116 331.56 607.32V596.03C331.556 595.634 331.631 595.24 331.78 594.873C331.929 594.505 332.149 594.171 332.428 593.889C332.707 593.608 333.039 593.384 333.405 593.231C333.771 593.079 334.164 593 334.56 593Z" fill="#1D1D1B"/>
    </g>
    <g style="mix-blend-mode:overlay" opacity="0.6">
        <path d="M336.95 632.98H378.95C379.746 632.98 380.509 633.296 381.072 633.859C381.634 634.421 381.95 635.184 381.95 635.98V647.32C381.95 648.116 381.634 648.879 381.072 649.441C380.509 650.004 379.746 650.32 378.95 650.32H336.95C336.155 650.32 335.392 650.004 334.829 649.441C334.266 648.879 333.95 648.116 333.95 647.32V636.01C333.946 635.613 334.021 635.22 334.17 634.853C334.319 634.485 334.539 634.151 334.818 633.869C335.097 633.587 335.429 633.364 335.795 633.211C336.161 633.059 336.554 632.98 336.95 632.98Z" fill="#1D1D1B"/>
    </g>
    <g style="mix-blend-mode:overlay" opacity="0.6">
        <path d="M312 613.18H354C354.796 613.18 355.559 613.496 356.122 614.059C356.684 614.621 357 615.384 357 616.18V627.51C357 628.306 356.684 629.069 356.122 629.631C355.559 630.194 354.796 630.51 354 630.51H312C311.205 630.51 310.442 630.194 309.879 629.631C309.316 629.069 309 628.306 309 627.51V616.22C308.995 615.823 309.069 615.428 309.217 615.06C309.365 614.691 309.586 614.356 309.865 614.073C310.144 613.79 310.476 613.565 310.843 613.412C311.209 613.259 311.603 613.18 312 613.18Z" fill="#1D1D1B"/>
    </g>
</svg>
