<svg width="141" height="46" viewBox="0 0 141 46" fill="none" xmlns="http://www.w3.org/2000/svg">
    <g clip-path="url(#clip0_117_3086)">
        <path fill-rule="evenodd" clip-rule="evenodd" d="M5.48088 1.80411C14.6807 1.53752 22.972 0.642562 32.2665 0.280762C38.5701 0.395015 46.9181 0.79489 54.8308 0.509258C69.3499 0.852016 84.3801 0.871047 88.3175 0.794878C103.783 1.30902 119.892 1.88028 136.323 2.37538C137.335 2.73001 138.209 3.39633 138.822 4.27959C139.333 6.52656 139.825 8.41174 140.185 10.354C140.185 11.706 140.62 15.8001 140.62 18.5231C140.185 26.8445 139.523 34.8232 139.201 40.9167C137.727 42.1452 136.02 43.0588 134.184 43.6016C117.583 44.211 100.489 44.5537 82.1653 45.2202C65.7722 44.4394 45.1198 43.5635 28.5563 43.773C19.8107 43.2588 11.8413 43.0113 4.78047 43.0684C3.84624 42.5659 3.02724 41.8718 2.3764 41.0309C1.61921 32.7666 1.27847 25.0926 0.956665 16.8283C1.20275 11.9155 2.0546 8.48791 2.33854 4.43193C3.20279 3.35543 4.27087 2.46222 5.48088 1.80411Z" fill="url(#paint0_radial_117_3086)"/>
        <path fill-rule="evenodd" clip-rule="evenodd" d="M4.02329 15.9334C4.51547 13.058 5.53767 10.5064 6.23807 7.02168L2.33854 4.43195C2.0546 8.48792 1.20275 11.9155 0.956665 16.8284L4.02329 15.9334Z" fill="url(#paint1_radial_117_3086)"/>
        <path fill-rule="evenodd" clip-rule="evenodd" d="M2.33853 4.43196L6.23806 7.02169L7.43063 5.86012L5.53765 1.80414C4.32764 2.46225 3.25956 3.35546 2.39532 4.43196H2.33853Z" fill="url(#paint2_radial_117_3086)"/>
        <path fill-rule="evenodd" clip-rule="evenodd" d="M5.48089 1.80411L7.37387 5.86009C15.9301 5.57446 26.7012 4.35576 34.557 3.59407L32.2097 0.280762C22.9152 0.642562 14.624 1.53752 5.4241 1.80411H5.48089Z" fill="url(#paint3_radial_117_3086)"/>
        <path fill-rule="evenodd" clip-rule="evenodd" d="M32.2665 0.280762L34.6138 3.59407C41.7166 3.39626 48.8239 3.75277 55.8719 4.66043L54.9633 0.509258H54.8308C46.9181 0.79489 38.5701 0.395015 32.2665 0.280762Z" fill="url(#paint4_radial_117_3086)"/>
        <path fill-rule="evenodd" clip-rule="evenodd" d="M54.9633 0.509277L55.8719 4.66045C62.4524 3.9467 69.0945 4.03621 75.6535 4.92704C79.9127 4.6414 83.4715 4.60334 87.4278 3.99399L88.3175 0.794898C84.3991 0.794898 69.3878 0.794909 54.9633 0.509277Z" fill="url(#paint5_radial_117_3086)"/>
        <path fill-rule="evenodd" clip-rule="evenodd" d="M88.3175 0.794861L87.4278 3.99395C102.117 4.98414 119.608 5.57445 134.393 6.43134L136.286 2.37536C119.855 1.88027 103.745 1.309 88.2797 0.794861H88.3175Z" fill="url(#paint6_radial_117_3086)"/>
        <path fill-rule="evenodd" clip-rule="evenodd" d="M136.323 2.37537L134.43 6.43135C134.731 6.63726 134.999 6.88763 135.225 7.17399L138.86 4.35576C138.247 3.4725 137.373 2.80618 136.361 2.45155L136.323 2.37537Z" fill="url(#paint7_radial_117_3086)"/>
        <path fill-rule="evenodd" clip-rule="evenodd" d="M138.822 4.35577L135.188 7.174C135.32 8.48791 135.415 9.78278 135.661 11.0776C136.304 13.6674 137.27 17.3235 137.554 18.6945H140.715C140.715 15.9715 140.374 11.8774 140.28 10.5254C139.92 8.62119 139.428 6.71698 138.917 4.45096L138.822 4.35577Z" fill="url(#paint8_radial_117_3086)"/>
        <path fill-rule="evenodd" clip-rule="evenodd" d="M140.62 18.5993H137.459C136.929 25.1117 136.891 32.5191 136.494 39.2791L139.144 41.0309C139.466 34.9375 140.128 26.9588 140.564 18.6374L140.62 18.5993Z" fill="url(#paint9_radial_117_3086)"/>
        <path fill-rule="evenodd" clip-rule="evenodd" d="M136.494 39.3171C135.924 39.6147 135.336 39.8754 134.733 40.0978L134.184 43.6778C135.997 43.1393 137.684 42.2391 139.144 41.0309L136.437 39.3552L136.494 39.3171Z" fill="url(#paint10_radial_117_3086)"/>
        <path fill-rule="evenodd" clip-rule="evenodd" d="M134.733 40.0978C117.697 40.7262 99.2021 41.507 82.1275 42.1163V45.2964C100.452 44.6299 117.545 44.2871 134.146 43.6778L134.695 40.0978H134.733Z" fill="url(#paint11_radial_117_3086)"/>
        <path fill-rule="evenodd" clip-rule="evenodd" d="M82.1275 42.1163C74.8017 41.4118 60.6611 40.2121 55.0958 40.0598C48.8111 39.9265 39.952 40.1931 31.1686 40.2883L28.7645 43.8492C45.2902 43.6397 65.829 44.5157 82.1653 45.2964V42.1163H82.1275Z" fill="url(#paint12_radial_117_3086)"/>
        <path fill-rule="evenodd" clip-rule="evenodd" d="M28.7645 43.8491L31.1686 40.2883C24.297 39.8884 13.6017 38.7839 6.67343 38.7078L4.78046 43.1446C11.8413 43.1446 19.8107 43.335 28.5562 43.8491H28.7645Z" fill="url(#paint13_radial_117_3086)"/>
        <path fill-rule="evenodd" clip-rule="evenodd" d="M4.74262 43.1446L6.6356 38.7078C6.23484 38.6243 5.86667 38.4259 5.57554 38.1365L2.3764 41.0309C3.0193 41.8994 3.83888 42.62 4.78048 43.1446H4.74262Z" fill="url(#paint14_radial_117_3086)"/>
        <path fill-rule="evenodd" clip-rule="evenodd" d="M2.3764 41.0309L5.61338 38.1365C4.96977 30.7672 4.30724 23.3218 4.02329 15.9334L0.956665 16.8284C1.27847 25.0926 1.61921 32.7666 2.3764 41.0309Z" fill="url(#paint15_radial_117_3086)"/>
        <path fill-rule="evenodd" clip-rule="evenodd" d="M25.7547 12.4677C27.5465 11.3226 29.2546 10.0499 30.8657 8.65927C31.6229 7.42154 32.399 6.1838 33.1751 4.85085C33.5348 4.26054 33.6862 3.89873 33.3076 3.65118C25.5843 4.39383 15.5137 5.55542 7.43065 5.78392L6.23808 6.94549C5.57553 10.1827 4.6669 12.6581 4.13687 15.2669C4.20068 15.3725 4.29244 15.4583 4.40189 15.5145C5.14015 15.8572 19.5457 13.1342 23.0288 12.5439C23.7481 12.4296 25.1868 12.4487 25.7547 12.3154V12.4677Z" fill="url(#paint16_radial_117_3086)"/>
        <path fill-rule="evenodd" clip-rule="evenodd" d="M31.3768 8.84971C30.0896 9.68756 28.8402 10.5825 27.5908 11.4966C26.9283 12.0107 26.5497 12.3725 26.5686 12.4867C26.5876 12.601 26.9472 12.8295 27.7612 13.039C42.4474 16.7559 56.733 21.9223 70.41 28.4631C71.0536 28.4631 71.1293 28.3298 71.735 27.511C75.5624 22.4591 80.247 18.127 85.5727 14.7147C86.5003 14.0863 86.3867 13.8959 86.3677 13.3246C86.2741 10.8844 86.4263 8.44085 86.8221 6.03145C86.6519 8.39491 86.6014 10.7656 86.6706 13.1342C86.6706 13.6674 86.6706 13.8959 87.2574 13.5912C88.3364 13.077 91.5166 11.1348 95.0187 9.45904C98.5207 7.78334 102.344 6.45039 103.632 5.65062C104.465 5.07935 103.935 5.02225 103.367 4.98416C97.8581 4.71757 92.4631 4.41289 87.4089 4.08918C83.4526 4.69853 79.837 4.73659 75.6346 5.02222C69.0793 4.09971 62.4372 3.97823 55.853 4.66042C48.8295 3.76223 41.7481 3.40574 34.6706 3.59406C33.2418 5.11626 32.1172 6.90052 31.3579 8.84971H31.3768Z" fill="url(#paint17_radial_117_3086)"/>
        <path fill-rule="evenodd" clip-rule="evenodd" d="M69.3688 28.5393C61.0397 24.5785 38.9108 15.8953 28.348 13.5341C25.8147 12.8971 23.1606 12.9299 20.6436 13.6293C14.3589 14.5814 5.06442 15.8763 4.26937 16.1809C4.16906 16.2054 4.08137 16.2665 4.02328 16.3523C4.34509 23.6074 4.9887 30.9196 5.61338 38.1365C5.90451 38.4259 6.27268 38.6243 6.67344 38.7078C8.26354 38.7078 10.043 38.7078 11.9359 38.8982C18.2963 39.26 25.8682 39.9836 31.1686 40.2883C39.9709 40.1931 48.8111 39.9265 55.0958 40.0598C57.4241 40.0598 61.2669 40.3264 65.4882 40.6501C70.1639 40.9167 74.8206 41.4879 79.4963 41.6212C80.1335 41.6711 80.7744 41.6066 81.3892 41.4308C81.5975 41.2975 80.8024 39.6599 79.9695 38.1175C77.3004 35.7182 74.726 33.2808 72.1515 30.7291C71.4032 29.7942 70.451 29.0449 69.3688 28.5393Z" fill="url(#paint18_radial_117_3086)"/>
        <path fill-rule="evenodd" clip-rule="evenodd" d="M95.1511 9.63045C86.9924 13.4389 77.5086 20.3131 72.2461 27.5681C71.5457 28.5393 71.5457 28.7868 71.8297 29.7009C74.5106 32.6936 77.4154 35.4755 80.5184 38.0223C81.0393 39.1328 81.6737 40.1859 82.4114 41.1642C82.7321 41.4732 83.16 41.644 83.604 41.6403C87.6317 41.9068 91.6724 41.9068 95.7001 41.6403C102.31 40.4126 108.821 38.6941 115.179 36.4989C118.207 35.3732 121.092 33.8903 123.773 32.0811C127.559 29.3391 131.156 26.5018 134.658 23.4551C135.558 22.3218 136.326 21.0887 136.948 19.7799C137.287 19.2898 137.453 18.7002 137.421 18.1042C137.421 17.9709 137.421 17.8186 137.327 17.6662C136.91 15.9905 136.229 13.2104 135.718 11.1157C135.472 9.82087 135.377 8.52602 135.244 7.21212C135.018 6.92575 134.75 6.67539 134.449 6.46948C126.026 5.97438 116.731 5.57447 107.588 5.1365H106.263C105.821 5.12594 105.382 5.21034 104.976 5.38406C104.454 5.6707 103.971 6.0226 103.537 6.43138C100.7 7.36831 97.9194 8.46821 95.2079 9.72566L95.1511 9.63045Z" fill="url(#paint19_radial_117_3086)"/>
        <path fill-rule="evenodd" clip-rule="evenodd" d="M122.864 33.4141C120.29 34.5566 117.829 35.8515 115.292 37.2225C108.829 39.101 102.253 40.5639 95.6055 41.6022L120.214 40.6501L134.771 40.0979C135.374 39.8754 135.962 39.6147 136.532 39.3171C136.891 33.1475 136.948 26.4447 137.365 20.275C137.365 20.0465 137.213 19.9513 137.156 19.9132C136.233 21.1203 135.499 22.4625 134.979 23.893C131.761 26.1405 128.677 28.5758 125.742 31.1861C124.379 32.3858 125.136 32.4048 126.442 33.2998C127.748 34.1948 128.6 34.8613 129.736 35.7562C127.521 34.4804 125.174 32.3096 122.864 33.3189V33.4141Z" fill="url(#paint20_radial_117_3086)"/>
        <path opacity="0.5" fill-rule="evenodd" clip-rule="evenodd" d="M6.04878 2.94665C15.0026 2.62294 24.2403 2.77528 33.0805 1.40425L55.2472 1.78508C66.359 1.28999 77.2436 1.78508 87.9579 2.05167C98.0853 2.31826 127.37 1.57563 135.604 3.67026C136.058 3.67026 137.497 4.35578 137.63 5.25076C139.177 7.61063 140.12 10.3189 140.374 13.1342C140.374 11.9536 140.223 10.9634 140.185 10.4112C139.825 8.50695 139.333 6.60274 138.822 4.33672C138.209 3.45346 137.335 2.78714 136.323 2.43251C119.892 1.93741 103.783 1.36614 88.3175 0.852007C84.3801 0.852007 69.3878 0.852019 54.8308 0.566387C46.9181 0.852019 38.5701 0.452143 32.2665 0.337891C22.972 0.699691 14.6807 1.59465 5.48088 1.86124C4.27087 2.51935 3.20279 3.41256 2.33854 4.48906C2.09246 7.99281 1.42991 11.0396 1.08917 14.9813C2.4306 11.7759 3.10697 8.3286 3.0768 4.85087C4.19545 4.44541 5.21057 3.795 6.04878 2.94665Z" fill="#EDF5F7"/>
        <path opacity="0.5" fill-rule="evenodd" clip-rule="evenodd" d="M120.214 40.6501C123.489 40.6501 126.764 40.5359 130.039 40.4406C131.44 40.4406 132.859 40.3454 134.279 40.4406C134.393 40.4406 134.506 40.593 134.506 40.7263C134.503 41.4524 134.453 42.1776 134.355 42.8971C134.478 42.069 134.648 41.2488 134.866 40.4406C135.11 40.187 135.405 39.988 135.732 39.8568C136.058 39.7255 136.408 39.6649 136.759 39.6789C137.535 39.9836 138.235 40.4216 138.974 40.7834L137.44 39.5838C136.778 39.0696 136.835 39.0125 136.891 38.1556C136.891 36.8036 137.062 35.4516 137.137 34.0996C137.137 29.282 137.289 24.9594 137.686 20.1798C137.686 19.7228 137.686 19.0944 137.951 18.8659C138.216 18.6374 140.09 18.6564 140.355 18.5993C140.147 18.5993 137.97 18.4279 137.932 18.3899C137.584 17.4553 137.312 16.4936 137.118 15.5145L136.551 12.8677C136.418 12.3154 136.323 11.7251 136.551 11.5728C136.763 11.4191 137 11.3032 137.251 11.23L139.03 10.7159C138.277 10.915 137.5 11.0111 136.721 11.0015C135.964 11.0015 136.096 10.6207 136.039 9.87802C135.983 9.13538 135.737 8.88782 135.699 8.41177C135.661 7.93572 135.49 7.44064 136.039 6.94555L138.519 4.71759L136.077 6.48852C135.188 7.155 134.828 6.48853 135.244 5.42217L136.323 2.71819C135.85 3.57509 135.377 4.43197 134.885 5.28886C134.393 6.14576 134.071 6.06961 132.878 6.05056C125.401 5.8411 117.943 5.30791 110.484 4.69856C107.361 4.69856 88.9422 4.27964 88.1282 3.63221C87.8443 3.42274 88.1282 2.43255 88.4311 1.04247C87.5603 3.47987 88.0147 3.59412 85.232 4.10826C82.3947 4.46861 79.5347 4.615 76.6757 4.54622C76.1268 4.54622 76.0132 4.54623 75.9942 3.89879V2.10883C75.9942 2.7753 75.8428 3.38465 75.7671 4.01304C75.6914 4.64143 75.3885 4.29866 74.9531 4.24154C72.7762 3.93686 70.6182 3.72741 68.4034 3.59411C64.6175 3.59411 61.3237 4.01305 57.462 4.2606C55.9098 4.2606 55.8719 2.8134 55.2662 0.871102C55.4738 1.7951 55.5566 2.74306 55.5122 3.68933C55.3797 3.994 54.9633 3.93687 54.225 3.8607L48.7733 3.32752C45.7634 3.21327 42.7915 3.1752 39.7816 3.13712C38.0911 3.28804 36.3889 3.2433 34.7084 3.00381C34.5949 3.00381 33.0616 0.985341 32.8155 0.737793C33.0237 1.15672 33.8187 2.52776 33.7241 2.88956C33.6294 3.25136 32.8912 3.28944 32.2665 3.32752C30.5628 3.32752 29.0484 3.55605 27.3448 3.61317C21.1169 4.3939 15.3244 4.92707 9.03968 5.32695C8.18784 5.32695 7.97962 5.63163 7.52531 4.90802C7.07099 4.18442 6.42737 3.00382 5.85948 2.14692C6.34345 3.31529 6.76059 4.51056 7.10885 5.72685C7.10885 5.95536 6.29488 6.41237 5.992 6.26003C4.87514 5.68876 3.94758 5.23173 2.84965 4.60334C3.58791 5.21269 4.11794 5.76493 4.8562 6.37428C5.95413 7.26926 5.84056 6.9265 5.49982 8.27849L3.90971 14.7909C3.70149 15.7049 3.66364 15.7049 2.8118 16.0286C2.28177 16.2381 1.97888 16.4856 1.46777 16.6951L3.03895 16.3714C3.60684 16.2571 3.96651 16.0858 3.98544 16.7522C4.00436 17.4187 3.98544 18.6565 3.98544 19.4943C4.25045 22.7505 4.49654 26.0067 4.74263 29.2629C4.96979 31.9479 5.19695 34.6328 5.44303 37.3368C5.45443 37.5604 5.40882 37.7833 5.31053 37.9842C4.6716 38.8595 3.95568 39.6753 3.17145 40.4216L5.68912 38.5174C5.68912 38.4222 6.4463 38.6316 6.54095 38.8792L5.97307 40.612L6.90062 38.9744C7.02612 38.8545 7.18428 38.775 7.35493 38.7459H12.1063C10.2133 38.6316 8.43393 38.5745 6.84383 38.5555C6.44307 38.472 6.07491 38.2736 5.78377 37.9842C5.15909 30.7672 4.51547 23.4551 4.19366 16.2C4.25175 16.1142 4.33944 16.0531 4.43975 16.0286C5.2348 15.7239 14.5293 14.4291 20.814 13.477C23.331 12.7776 25.9851 12.7448 28.5184 13.3818C39.0812 15.743 61.2101 24.4262 69.5392 28.387C70.6214 28.8926 71.5735 29.6419 72.3219 30.5768C74.8963 33.1285 77.4708 35.5659 80.1399 37.9652C80.9728 39.5076 81.7678 41.1452 81.5596 41.2785C80.9448 41.4543 80.3039 41.5187 79.6666 41.4689C74.991 41.3356 70.3342 40.7644 65.6586 40.4978C70.5425 41.1452 75.5021 41.4499 80.8024 42.0783C81.446 42.0783 81.8057 42.1925 82.0139 42.383C82.2721 43.0973 82.4066 43.8508 82.4114 44.6109C82.5439 43.1637 82.5629 42.3258 82.8468 42.2116C83.2756 42.1887 83.7053 42.1887 84.1341 42.2116C88.0462 42.1354 91.9646 41.9005 95.8894 41.507C102.472 40.4921 108.984 39.0611 115.387 37.2225C117.829 35.8896 120.29 34.5947 122.959 33.4141C125.628 32.2335 127.616 34.5757 129.83 35.8515C128.695 34.9565 127.672 34.1948 126.537 33.3951C125.401 32.5953 124.473 32.481 125.836 31.2814C128.738 28.6414 131.791 26.1744 134.979 23.893C135.491 22.4781 136.212 21.1492 137.118 19.9513C137.118 19.9513 137.232 20.0846 137.327 20.3131C136.91 26.4066 136.853 33.1094 136.494 39.3552C135.924 39.6527 135.336 39.9135 134.733 40.136L120.176 40.6882L120.214 40.6501ZM95.6055 41.6022C91.5778 41.8688 87.5371 41.8688 83.5094 41.6022C83.0654 41.6059 82.6375 41.4351 82.3168 41.1262C81.5791 40.1478 80.9447 39.0948 80.4238 37.9842C77.3207 35.4375 74.416 32.6555 71.7351 29.6628C71.4511 28.7488 71.4511 28.5012 72.1515 27.5301C77.414 20.275 86.8978 13.458 95.0565 9.5924C97.768 8.33495 100.549 7.23502 103.386 6.29809C103.819 5.88931 104.303 5.53743 104.824 5.2508C105.667 4.97772 106.563 4.9124 107.437 5.06036C116.58 5.49833 125.874 5.89821 134.298 6.39331C134.599 6.59922 134.867 6.84959 135.093 7.13595C135.225 8.44986 135.32 9.74473 135.566 11.0396C136.077 13.1342 136.759 15.9144 137.175 17.5901C137.281 17.9476 137.302 18.3252 137.236 18.6923C137.171 19.0595 137.02 19.4059 136.797 19.7038C136.175 21.0126 135.406 22.2456 134.506 23.3789C131.004 26.4256 127.351 29.2629 123.622 32.005C120.941 33.8141 118.056 35.2971 115.027 36.4228C108.689 38.6281 102.197 40.3593 95.6055 41.6022ZM70.391 28.4631C56.7141 21.9223 42.4285 16.7559 27.7423 13.039C26.9283 12.8296 26.5497 12.582 26.5497 12.4868C26.5497 12.3916 26.9094 12.0108 27.5719 11.4966C28.8024 10.5826 30.0517 9.5924 31.3579 8.84976C32.1172 6.90056 33.2418 5.11631 34.6706 3.59411C41.7481 3.40579 48.8295 3.76228 55.853 4.66047C62.4334 3.94671 69.0755 4.03623 75.6346 4.92706C79.8938 4.64142 83.4526 4.60336 87.4089 3.99401C92.4253 4.31773 97.7445 4.6224 103.177 4.88899C103.821 4.88899 104.54 4.88898 103.632 5.55545C102.344 6.45043 98.5396 7.76434 95.0187 9.36388C91.4977 10.9634 88.3364 12.9819 87.2575 13.496C86.6328 13.8007 86.6896 13.496 86.6706 13.039C86.6014 10.6704 86.652 8.29977 86.8221 5.93632C86.4263 8.34571 86.2741 10.7892 86.3678 13.2294C86.3678 13.8007 86.5003 13.9911 85.5727 14.6195C80.247 18.0319 75.5625 22.3639 71.7351 27.4158C71.1293 28.2346 71.0536 28.406 70.41 28.3679L70.391 28.4631ZM4.13688 15.3431C4.66691 12.6962 5.57554 10.2589 6.23808 7.0217L7.43065 5.86013C15.5137 5.59354 25.5843 4.47006 33.3076 3.72742C33.6862 3.97497 33.5348 4.33675 33.1751 4.92706C32.399 6.16479 31.6229 7.40253 30.8657 8.73548C29.2546 10.1261 27.5465 11.3988 25.7547 12.5439C25.1868 12.6772 23.7481 12.6582 23.0288 12.7724C19.5457 13.3627 5.14015 16.0858 4.40189 15.743C4.29244 15.6868 4.20069 15.6011 4.13688 15.4954V15.3431Z" fill="url(#paint21_radial_117_3086)"/>
        <g style="mix-blend-mode:screen" opacity="0.5">
            <path fill-rule="evenodd" clip-rule="evenodd" d="M24.7325 26.5398C24.5251 26.5179 24.3154 26.5461 24.1211 26.6223C23.9268 26.6985 23.7535 26.8204 23.6156 26.9778C23.0794 27.6442 22.7036 28.4262 22.5177 29.2629C22.3284 30.1198 23.8238 30.9576 24.5242 30.9767C24.8181 30.9993 25.1132 30.9525 25.386 30.8401C25.6588 30.7277 25.9017 30.5528 26.0954 30.3292C26.6444 29.5866 25.8493 26.6541 24.7325 26.5208V26.5398Z" fill="#BDC8C9"/>
        </g>
        <g style="mix-blend-mode:screen" opacity="0.5">
            <path fill-rule="evenodd" clip-rule="evenodd" d="M16.6873 18.5041C15.4929 18.7638 14.3849 19.3277 13.4692 20.1417C12.447 21.151 11.1219 24.331 11.8791 25.7211C12.0937 26.1305 12.4039 26.4813 12.7831 26.7433C13.1624 27.0054 13.5992 27.1708 14.0561 27.2254C15.4498 27.3253 16.8331 26.92 17.9556 26.0829C18.8761 25.2016 19.678 24.203 20.3407 23.1123C20.9116 22.4693 21.4306 21.7816 21.893 21.0557C22.0166 20.7938 22.0791 20.5069 22.0758 20.217C22.0724 19.927 22.0033 19.6417 21.8737 19.3827C21.744 19.1237 21.5573 18.8979 21.3277 18.7225C21.0981 18.5472 20.8318 18.4269 20.549 18.3708C19.2944 18.1122 17.9966 18.1579 16.763 18.5041H16.6873Z" fill="#BDC8C9"/>
        </g>
        <g style="mix-blend-mode:screen" opacity="0.5">
            <path fill-rule="evenodd" clip-rule="evenodd" d="M127.029 17.7805C125.515 18.0661 123.905 20.6558 123.546 22.1792C123.186 23.7026 123.868 24.6166 124.625 24.331C126.31 23.6645 131.023 21.7412 131.326 19.7037C131.384 19.4655 131.392 19.2177 131.35 18.9761C131.308 18.7346 131.216 18.5044 131.081 18.3004C130.946 18.0963 130.77 17.9227 130.564 17.7906C130.359 17.6585 130.128 17.5707 129.887 17.5329C128.927 17.4446 127.96 17.5283 127.029 17.7805Z" fill="#BDC8C9"/>
        </g>
        <path fill-rule="evenodd" clip-rule="evenodd" d="M126.783 17.4949C125.268 17.7996 123.659 20.3893 123.3 21.9127C122.94 23.436 123.64 24.3501 124.379 24.0454C126.063 23.3789 130.777 21.4556 131.099 19.4181C131.154 19.1798 131.159 18.9327 131.114 18.6922C131.069 18.4517 130.976 18.2232 130.839 18.021C130.702 17.8189 130.525 17.6474 130.318 17.5175C130.112 17.3877 129.882 17.3022 129.641 17.2664C128.682 17.1718 127.715 17.2492 126.783 17.4949Z" fill="url(#paint22_radial_117_3086)"/>
        <path fill-rule="evenodd" clip-rule="evenodd" d="M24.4864 26.2733C24.2807 26.252 24.0729 26.2787 23.8792 26.3514C23.6855 26.424 23.5111 26.5407 23.3695 26.6922C22.8378 27.3614 22.4626 28.1424 22.2716 28.9772C22.0823 29.8532 23.5777 30.691 24.2781 30.7101C24.5736 30.7304 24.8697 30.6806 25.1425 30.5649C25.4154 30.4491 25.6575 30.2706 25.8493 30.0436C26.3983 29.32 25.6032 26.3875 24.4864 26.2352V26.2733Z" fill="url(#paint23_radial_117_3086)"/>
        <path fill-rule="evenodd" clip-rule="evenodd" d="M16.4412 18.1804C15.2452 18.4245 14.1349 18.983 13.2231 19.7989C12.2009 20.8272 10.8758 24.0072 11.633 25.3973C11.8538 25.8018 12.1657 26.1485 12.5437 26.4098C12.9218 26.671 13.3555 26.8395 13.81 26.9017C15.2018 26.9836 16.5791 26.58 17.7095 25.7591C18.631 24.8788 19.433 23.88 20.0946 22.7885C20.6611 22.1419 21.1799 21.4546 21.6469 20.732C21.7742 20.4692 21.8396 20.1805 21.8381 19.8881C21.8366 19.5958 21.7682 19.3078 21.6383 19.0463C21.5083 18.7849 21.3203 18.557 21.0887 18.3804C20.8571 18.2038 20.5882 18.0833 20.3029 18.028C19.046 17.7855 17.7505 17.8377 16.5169 18.1804H16.4412Z" fill="url(#paint24_radial_117_3086)"/>
    </g>
    <defs>
        <radialGradient id="paint0_radial_117_3086" cx="0" cy="0" r="1" gradientUnits="userSpaceOnUse" gradientTransform="translate(25.2057 0.852024) scale(159.635 160.582)">
            <stop stop-color="#9DA9AB"/>
            <stop offset="1" stop-color="#717485"/>
        </radialGradient>
        <radialGradient id="paint1_radial_117_3086" cx="0" cy="0" r="1" gradientUnits="userSpaceOnUse" gradientTransform="translate(1.14596 18.485) scale(32.4645 32.6572)">
            <stop stop-color="#BDCACF"/>
            <stop offset="1" stop-color="#828599"/>
        </radialGradient>
        <radialGradient id="paint2_radial_117_3086" cx="0" cy="0" r="1" gradientUnits="userSpaceOnUse" gradientTransform="translate(10.0997 6.79319) scale(12.0014 12.0727)">
            <stop stop-color="#E4ECF0"/>
            <stop offset="1" stop-color="#A6B4BD"/>
        </radialGradient>
        <radialGradient id="paint3_radial_117_3086" cx="0" cy="0" r="1" gradientUnits="userSpaceOnUse" gradientTransform="translate(34.6895 -27.5397) scale(48.6495 48.9382)">
            <stop stop-color="#E4ECF0"/>
            <stop offset="1" stop-color="#A6B4BD"/>
        </radialGradient>
        <radialGradient id="paint4_radial_117_3086" cx="0" cy="0" r="1" gradientUnits="userSpaceOnUse" gradientTransform="translate(48.1486 -36.3371) scale(47.8923 48.1763)">
            <stop stop-color="#E4ECF0"/>
            <stop offset="1" stop-color="#A6B4BD"/>
        </radialGradient>
        <radialGradient id="paint5_radial_117_3086" cx="0" cy="0" r="1" gradientUnits="userSpaceOnUse" gradientTransform="translate(76.2025 -20.0371) scale(50.0503 50.3472)">
            <stop stop-color="#BDCACF"/>
            <stop offset="1" stop-color="#828599"/>
        </radialGradient>
        <radialGradient id="paint6_radial_117_3086" cx="0" cy="0" r="1" gradientUnits="userSpaceOnUse" gradientTransform="translate(96.5709 -36.6611) scale(61.2189 61.5824)">
            <stop stop-color="#BDCACF"/>
            <stop offset="1" stop-color="#828599"/>
        </radialGradient>
        <radialGradient id="paint7_radial_117_3086" cx="0" cy="0" r="1" gradientUnits="userSpaceOnUse" gradientTransform="translate(129.13 -12.1728) scale(19.6492 19.7658)">
            <stop stop-color="#D3DBDE"/>
            <stop offset="1" stop-color="#BCC0DE"/>
        </radialGradient>
        <radialGradient id="paint8_radial_117_3086" cx="0" cy="0" r="1" gradientUnits="userSpaceOnUse" gradientTransform="translate(136.115 6.73604) scale(45.7532 46.0248)">
            <stop stop-color="#9DA9AB"/>
            <stop offset="1" stop-color="#5B5E6B"/>
        </radialGradient>
        <radialGradient id="paint9_radial_117_3086" cx="0" cy="0" r="1" gradientUnits="userSpaceOnUse" gradientTransform="translate(122.94 12.9438) scale(42.8001 43.0543)">
            <stop stop-color="#9DA9AB"/>
            <stop offset="1" stop-color="#5B5E6B"/>
        </radialGradient>
        <radialGradient id="paint10_radial_117_3086" cx="0" cy="0" r="1" gradientUnits="userSpaceOnUse" gradientTransform="translate(134.62 29.8342) scale(25.0251 25.1736)">
            <stop stop-color="#9DA9AB"/>
            <stop offset="1" stop-color="#555763"/>
        </radialGradient>
        <radialGradient id="paint11_radial_117_3086" cx="0" cy="0" r="1" gradientUnits="userSpaceOnUse" gradientTransform="translate(98.426 4.14616) scale(63.6229 64.0009)">
            <stop stop-color="#9DA9AB"/>
            <stop offset="1" stop-color="#555763"/>
        </radialGradient>
        <radialGradient id="paint12_radial_117_3086" cx="0" cy="0" r="1" gradientUnits="userSpaceOnUse" gradientTransform="translate(53.3542 5.32693) scale(53.3062 53.6227)">
            <stop stop-color="#9DA9AB"/>
            <stop offset="1" stop-color="#555763"/>
        </radialGradient>
        <radialGradient id="paint13_radial_117_3086" cx="0" cy="0" r="1" gradientUnits="userSpaceOnUse" gradientTransform="translate(30.9982 12.4677) scale(51.9244 52.2325)">
            <stop stop-color="#9DA9AB"/>
            <stop offset="1" stop-color="#555763"/>
        </radialGradient>
        <radialGradient id="paint14_radial_117_3086" cx="0" cy="0" r="1" gradientUnits="userSpaceOnUse" gradientTransform="translate(10.024 31.7955) scale(25.5173 25.6688)">
            <stop stop-color="#9DA9AB"/>
            <stop offset="1" stop-color="#555763"/>
        </radialGradient>
        <radialGradient id="paint15_radial_117_3086" cx="0" cy="0" r="1" gradientUnits="userSpaceOnUse" gradientTransform="translate(0.67272 13.5912) scale(45.3178 45.5868)">
            <stop stop-color="#9DA7AB"/>
            <stop offset="1" stop-color="#828599"/>
        </radialGradient>
        <radialGradient id="paint16_radial_117_3086" cx="0" cy="0" r="1" gradientUnits="userSpaceOnUse" gradientTransform="translate(26.474 12.2011) scale(54.6691 54.9938)">
            <stop stop-color="#AAB4B8"/>
            <stop offset="1" stop-color="#828599"/>
        </radialGradient>
        <radialGradient id="paint17_radial_117_3086" cx="0" cy="0" r="1" gradientUnits="userSpaceOnUse" gradientTransform="translate(58.5789 29.777) scale(103.394 104.008)">
            <stop stop-color="#AAB4B8"/>
            <stop offset="1" stop-color="#828599"/>
        </radialGradient>
        <radialGradient id="paint18_radial_117_3086" cx="0" cy="0" r="1" gradientUnits="userSpaceOnUse" gradientTransform="translate(44.6844 -13.182) scale(124.463 125.202)">
            <stop stop-color="#9DA9AB"/>
            <stop offset="1" stop-color="#717485"/>
        </radialGradient>
        <radialGradient id="paint19_radial_117_3086" cx="0" cy="0" r="1" gradientUnits="userSpaceOnUse" gradientTransform="translate(65.9425 19.0373) scale(130.975 131.753)">
            <stop stop-color="#9DA9AB"/>
            <stop offset="1" stop-color="#717485"/>
        </radialGradient>
        <radialGradient id="paint20_radial_117_3086" cx="0" cy="0" r="1" gradientUnits="userSpaceOnUse" gradientTransform="translate(100.622 -0.880803) scale(63.7365 64.1149)">
            <stop stop-color="#9DA9AB"/>
            <stop offset="1" stop-color="#717485"/>
        </radialGradient>
        <radialGradient id="paint21_radial_117_3086" cx="0" cy="0" r="1" gradientUnits="userSpaceOnUse" gradientTransform="translate(21.6848 -27.3494) scale(157.155 158.088)">
            <stop stop-color="#E2F1F7"/>
            <stop offset="1" stop-color="#9A9DB5"/>
        </radialGradient>
        <radialGradient id="paint22_radial_117_3086" cx="0" cy="0" r="1" gradientUnits="userSpaceOnUse" gradientTransform="translate(129.584 28.3108) scale(12.6261 12.7011)">
            <stop stop-color="#9DA9AB"/>
            <stop offset="1" stop-color="#717485"/>
        </radialGradient>
        <radialGradient id="paint23_radial_117_3086" cx="0" cy="0" r="1" gradientUnits="userSpaceOnUse" gradientTransform="translate(25.9061 32.462) scale(7.96943 8.01676)">
            <stop stop-color="#9DA9AB"/>
            <stop offset="1" stop-color="#717485"/>
        </radialGradient>
        <radialGradient id="paint24_radial_117_3086" cx="0" cy="0" r="1" gradientUnits="userSpaceOnUse" gradientTransform="translate(20.9465 27.53) scale(13.7241 13.8056)">
            <stop stop-color="#9DA9AB"/>
            <stop offset="1" stop-color="#717485"/>
        </radialGradient>
        <clipPath id="clip0_117_3086">
            <rect width="139.664" height="45.0156" fill="white" transform="translate(0.956665 0.280762)"/>
        </clipPath>
    </defs>
</svg>
