<svg width="299" height="66" viewBox="0 0 299 66" fill="none" xmlns="http://www.w3.org/2000/svg">
    <g clip-path="url(#clip0_103_1867)">
        <g opacity="0.6">
            <path d="M298.968 13.1521L298.839 15.326L298.587 19.4694L298.106 27.3074L297.802 32.3325L297.707 33.8795L297.373 39.4162L297.21 42.1118L297.025 45.1329L296.787 49.0903V49.1894L296.717 50.3117L296.679 50.9447L296.668 51.1469V51.2116L296.449 54.7707C296.403 55.5598 296.296 56.344 296.131 57.1164C295.856 58.4482 295.387 59.7309 294.74 60.9221C294.589 61.1992 294.431 61.4641 294.264 61.731C294.242 61.7674 294.218 61.8038 294.19 61.8443C294.162 61.8847 294.127 61.9393 294.093 61.9858C293.731 62.5169 293.323 63.0137 292.873 63.4701C292.865 63.4811 292.857 63.4913 292.847 63.5004L292.69 63.6521C292.559 63.7795 292.422 63.9028 292.293 64.0221C292.221 64.0848 292.148 64.1455 292.076 64.2041L291.852 64.378L291.808 64.4104C291.699 64.4953 291.59 64.5702 291.478 64.647L291.266 64.7845C291.225 64.8141 291.183 64.8411 291.139 64.8654C290.913 65.0058 290.68 65.1334 290.441 65.2476C290.403 65.2685 290.364 65.2874 290.324 65.3042C290.264 65.3345 290.207 65.3608 290.147 65.3851L290.03 65.4357H290.01L289.812 65.5145C289.778 65.5287 289.744 65.5428 289.712 65.5529L289.613 65.5893C289.48 65.6359 289.345 65.6783 289.215 65.7167C289.086 65.7551 288.916 65.7956 288.763 65.83L288.639 65.8563C288.341 65.9167 288.039 65.9579 287.735 65.9796H287.586H287.517H287.42H10.8671C8.20294 65.9796 5.79111 64.4953 4.09647 62.0991C3.96137 61.913 3.83224 61.7148 3.71105 61.5167C2.99711 60.3586 2.46115 59.0964 2.1217 57.7736C2.10183 57.7028 2.08594 57.632 2.06806 57.5572C1.82265 56.5636 1.67622 55.5474 1.63099 54.5239L1.48199 51.2581L1.40848 49.5979L0.993262 40.4637L0.895916 38.2838L0.68334 33.5478L0.585991 31.4245L0.365472 26.7007L0.274083 24.717L0.0158135 19.0225C-0.00802669 18.4725 -0.00405332 17.9265 0.0158135 17.3926C0.092787 15.9219 0.384038 14.471 0.880022 13.0874C1.11497 12.4276 1.40268 11.7884 1.74026 11.1764C2.01689 10.6643 2.33311 10.1754 2.68592 9.71439C4.32295 7.53852 6.58379 6.16547 9.10489 6.11087L75.9946 4.65894L106.546 3.99161L173.435 2.53564L278.285 0.248543L289.573 -0.000181732C292.074 -0.0568029 294.341 1.19695 296.028 3.25755C296.409 3.72633 296.754 4.22389 297.061 4.7459C297.892 6.18061 298.461 7.75623 298.742 9.39692C298.769 9.53443 298.789 9.67194 298.811 9.80136C298.983 10.9092 299.035 12.0327 298.968 13.1521Z" fill="#CCBDA8"/>
            <g style="mix-blend-mode:multiply" opacity="0.54">
                <path d="M294.184 61.8424C294.154 61.8909 294.121 61.9374 294.087 61.9839C293.725 62.5151 293.317 63.0119 292.867 63.4682C292.808 63.5309 292.746 63.5896 292.684 63.6502C292.553 63.7776 292.416 63.901 292.287 64.0203C292.215 64.083 292.142 64.1436 292.07 64.2023L291.846 64.3762L291.802 64.4085C291.693 64.4935 291.584 64.5683 291.472 64.6451L291.26 64.7826C291.219 64.8122 291.177 64.8392 291.133 64.8635C290.907 65.0039 290.675 65.1315 290.435 65.2457C290.397 65.2666 290.358 65.2855 290.318 65.3024C290.259 65.3327 290.201 65.359 290.141 65.3832L290.024 65.4338H290.004L289.806 65.5127C289.772 65.5268 289.738 65.541 289.706 65.5511L289.607 65.5875C289.474 65.634 289.339 65.6765 289.21 65.7149C289.08 65.7533 288.914 65.7937 288.765 65.8261L288.641 65.8524C288.343 65.9129 288.041 65.9541 287.738 65.9757H287.589H287.519H287.422H10.8672C8.20303 65.9757 5.7912 64.4915 4.09656 62.0952L4.54753 61.5006L7.50571 57.5999L7.611 57.4623L9.97714 54.3482L12.2002 51.4201L13.2969 49.9742L13.6684 49.4848L16.5749 49.5111L24.7481 49.59L68.2565 50.0126H68.491L71.5147 50.0409L194.03 51.23L230.871 51.5879L236.411 51.6425L269.39 51.962L285.916 52.1218L287.92 54.4715L290.541 57.5473L293.457 60.9607L294.017 61.6179L294.184 61.8424Z" fill="#9D958A"/>
            </g>
            <g style="mix-blend-mode:screen" opacity="0.85">
                <path d="M297.073 4.74806L292.724 8.42035L288.606 8.4871L237.248 9.31012L230.97 9.41123L199.779 9.91475L132.351 10.9966L103.576 11.4597L10.1718 12.9622L6.33154 13.0249L6.07923 12.7943L4.22168 11.1119L2.68597 9.71455C4.32499 7.53869 6.58583 6.16361 9.10892 6.11104L75.9946 4.6591L106.546 3.99379L173.436 2.53378L278.285 0.248707L289.573 -1.77004e-05C292.074 -0.0566388 294.341 1.19711 296.028 3.25772C296.414 3.72621 296.763 4.22449 297.073 4.74806Z" fill="#D6B88B"/>
            </g>
            <g style="mix-blend-mode:screen" opacity="0.44">
                <path d="M6.65936 49.5091C6.65936 49.5091 7.88714 51.3695 7.76595 52.4676C6.4559 50.9142 5.68262 48.9664 5.5647 46.9227L4.82367 34.0758C5.84483 39.0362 5.41967 44.397 6.65936 49.5091Z" fill="#D6B88B"/>
            </g>
            <g style="mix-blend-mode:screen" opacity="0.44">
                <path d="M12.8478 9.98553L129.993 7.98357C128.429 8.12107 126.886 8.31927 125.372 8.60844C116.968 10.2262 65.9698 10.5962 58.3171 10.3718C46.85 10.032 35.5735 10.8531 24.1998 11.2514C17.0994 11.5022 6.22622 10.5558 4.0369 20.5029L3.99915 19.8356C3.6932 14.5537 7.71624 10.0725 12.8478 9.98553Z" fill="#D6B88B"/>
            </g>
            <g style="mix-blend-mode:screen" opacity="0.44">
                <path d="M294.987 15.3565L292.583 46.4981C292.583 45.5153 292.595 44.5325 292.597 43.572C292.597 38.8745 292.935 34.3993 292.933 29.7241C292.933 25.5199 294.025 21.3401 293.602 17.1865C292.47 6.06453 283.504 6.83296 276.689 7.27784C248.844 9.12004 220.762 9.90667 192.784 9.90667C182.489 9.90667 172.162 8.22625 161.867 7.41536L285.854 5.29611C291.172 5.22736 295.41 9.88647 294.987 15.3565Z" fill="#D6B88B"/>
            </g>
            <g style="mix-blend-mode:screen" opacity="0.44">
                <path d="M46.4685 55.6646H34.4491C34.5266 54.5261 42.1296 55.248 46.4685 55.6646Z" fill="#D6B88B"/>
            </g>
            <g style="mix-blend-mode:screen" opacity="0.44">
                <path d="M130.74 55.6646H59.0363C66.6255 55.1975 74.2325 54.2956 80.3952 55.0276C88.1095 55.9417 95.3092 54.5908 102.861 53.9053C111.858 53.0904 121.502 55.6646 130.74 55.6646Z" fill="#D6B88B"/>
            </g>
            <g style="mix-blend-mode:screen" opacity="0.44">
                <path d="M246.478 55.6646H130.74C156.169 55.6646 181.766 54.7122 207.028 54.785C219.584 54.8234 233.65 52.9893 246.478 55.6646Z" fill="#D6B88B"/>
            </g>
            <path d="M295.013 14.3373C295.013 14.2503 295.013 14.1593 295.001 14.0724C294.989 13.9854 294.989 13.8702 294.979 13.7569C294.979 13.6902 294.965 13.6214 294.957 13.5547C294.955 13.5031 294.949 13.4517 294.939 13.401C294.939 13.3363 294.923 13.2675 294.913 13.1988C294.903 13.13 294.896 13.0815 294.886 13.0229C294.876 12.9642 294.856 12.855 294.84 12.7721C294.824 12.6892 294.806 12.6022 294.786 12.5193C294.754 12.3697 294.719 12.2241 294.677 12.0785C294.649 11.9814 294.623 11.8763 294.592 11.7893C294.56 11.7024 294.514 11.5467 294.472 11.4274C294.431 11.308 294.395 11.2251 294.353 11.1119C294.311 10.9987 294.27 10.9097 294.226 10.8005C294.164 10.665 294.101 10.5295 294.027 10.396C293.978 10.2963 293.927 10.1972 293.872 10.0988C293.819 9.9997 293.767 9.89656 293.709 9.8096C293.652 9.72265 293.594 9.6074 293.535 9.52247C293.475 9.43754 293.415 9.33845 293.352 9.24543C293.288 9.15241 293.183 9.00479 293.094 8.8875C293.004 8.77021 292.913 8.65696 292.819 8.54372C292.784 8.50125 292.746 8.46081 292.712 8.41834L292.529 8.21612L292.376 8.05639C292.187 7.86091 291.988 7.67284 291.78 7.49219L291.582 7.31626C291.441 7.201 291.298 7.08977 291.149 6.9826C291 6.87542 290.849 6.78038 290.694 6.67724C290.539 6.57411 290.445 6.52356 290.318 6.45279C290.191 6.38201 290.1 6.33348 289.99 6.27686C289.881 6.22024 289.818 6.1899 289.73 6.14743C289.631 6.10092 289.531 6.05845 289.43 6.01599C289.329 5.97352 289.231 5.92903 289.122 5.88859L288.912 5.81377L288.699 5.743C288.604 5.71064 288.5 5.68234 288.403 5.65201L288.361 5.64189C288.26 5.61156 288.163 5.58729 288.059 5.56302C287.95 5.53471 287.839 5.51045 287.73 5.49022C287.62 5.47 287.509 5.44777 287.398 5.42957C287.3 5.4134 287.199 5.40125 287.1 5.38709L286.945 5.37092L286.718 5.34868C286.605 5.34868 286.49 5.33251 286.375 5.32846H286.029H285.866L161.879 7.44568L130.003 7.99166L12.8598 9.99161C12.7247 9.99161 12.5896 9.9916 12.4625 10.0078C12.3353 10.024 12.1963 10.028 12.0651 10.0422C11.8665 10.0644 11.6678 10.0907 11.4691 10.1251C11.4036 10.1372 11.34 10.1473 11.2705 10.1615C11.1234 10.1898 10.9804 10.2241 10.8374 10.2605C10.5493 10.3354 10.2652 10.4223 9.98906 10.5214L9.73277 10.6205C9.64933 10.6549 9.56391 10.6872 9.48047 10.7257L9.23213 10.8389L8.98777 10.9602L8.7891 11.0613C8.65996 11.1321 8.53679 11.2049 8.41361 11.2797L8.22687 11.395C8.10568 11.4739 7.98648 11.5548 7.86926 11.6397L7.69443 11.7691C7.63483 11.8116 7.57921 11.8561 7.52159 11.9006C7.09198 12.2405 6.69306 12.6188 6.32958 13.031L6.19449 13.1887L6.06138 13.3484C5.97595 13.4576 5.89251 13.5648 5.81106 13.678C5.76735 13.7347 5.72761 13.7893 5.68788 13.8459C5.32737 14.3601 5.01918 14.9102 4.76805 15.4879C4.74024 15.5526 4.71242 15.6173 4.68659 15.6901C4.66077 15.7629 4.60911 15.8802 4.57335 15.9793C4.55349 16.0319 4.53362 16.0844 4.51574 16.139C4.47402 16.2543 4.43627 16.3716 4.40051 16.4889C4.38064 16.5516 4.36276 16.6142 4.3429 16.679V16.7052C4.32502 16.7659 4.30912 16.8266 4.29522 16.8893C4.28131 16.952 4.25747 17.0349 4.23959 17.1097L4.19191 17.3119L4.15019 17.5141C4.12833 17.6334 4.10847 17.7527 4.09059 17.8741C4.08066 17.9408 4.07072 18.0035 4.06476 18.0763C4.05085 18.1794 4.04092 18.2785 4.029 18.3897C4.01708 18.501 4.01112 18.6162 4.00516 18.7315C4.00516 18.7659 4.00516 18.7962 4.00516 18.8306C3.98615 19.1673 3.98615 19.5049 4.00516 19.8416L4.0429 20.509L4.83758 34.0798L5.57861 46.9288C5.69176 48.9706 6.45941 50.9183 7.76397 52.4736C7.85535 52.5808 7.94674 52.6758 8.04409 52.7891C8.10965 52.8619 8.18117 52.9347 8.24276 53.0075C8.35401 53.1187 8.47123 53.2299 8.58844 53.3371C8.64804 53.3917 8.70764 53.4463 8.76724 53.4968C8.88843 53.602 9.01359 53.6991 9.13677 53.8022C9.25994 53.9053 9.39305 54.0044 9.52417 54.0853C9.58973 54.1318 9.65728 54.1763 9.72284 54.2188C9.7884 54.2612 9.848 54.3017 9.92151 54.3401L9.9831 54.3785C10.0824 54.4392 10.1818 54.4978 10.2831 54.5524L10.4818 54.6637C10.7162 54.787 10.9586 54.9023 11.2069 55.0034C11.2804 55.0357 11.3539 55.064 11.4294 55.0944L11.642 55.1732L11.6837 55.1854L11.8824 55.2541C12.1128 55.3269 12.3453 55.3937 12.5856 55.4462L12.8241 55.4988C13.0644 55.5473 13.3088 55.5858 13.5552 55.6141L13.7697 55.6363H13.8293L14.0538 55.6525C14.2187 55.6525 14.3876 55.6687 14.5584 55.6687H283.556C283.776 55.6687 283.993 55.6687 284.211 55.6404C284.356 55.6404 284.497 55.6181 284.642 55.5979L284.853 55.5696C284.924 55.5696 284.996 55.5494 285.065 55.5352C285.208 55.513 285.348 55.4847 285.485 55.4523L285.683 55.4018C285.89 55.3536 286.094 55.2949 286.295 55.2258L286.494 55.1571C286.693 55.0863 286.891 55.0115 287.078 54.9245C287.141 54.8982 287.203 54.8679 287.277 54.8396C287.35 54.8113 287.404 54.7789 287.475 54.7486C287.6 54.6879 287.723 54.6205 287.845 54.5463L287.942 54.4918C288.171 54.3603 288.393 54.2208 288.608 54.0691C288.695 54.0105 288.784 53.9478 288.87 53.879C288.883 53.8727 288.895 53.8637 288.906 53.8528C289.013 53.7739 289.116 53.691 289.218 53.6061C289.271 53.5616 289.325 53.5171 289.375 53.4726C289.482 53.3796 289.573 53.2865 289.684 53.1895C289.736 53.143 289.784 53.0944 289.835 53.0439L289.98 52.8983C290.175 52.6975 290.359 52.4862 290.531 52.2653C290.571 52.2188 290.608 52.1683 290.646 52.1197C290.684 52.0712 290.741 51.9944 290.785 51.9317L290.896 51.778C291.059 51.5434 291.214 51.2967 291.359 51.0419C291.395 50.9792 291.427 50.9186 291.461 50.8559C291.494 50.7932 291.512 50.7608 291.536 50.7123C291.56 50.6638 291.604 50.5768 291.637 50.5101C291.671 50.4433 291.693 50.3928 291.719 50.3342C291.788 50.1845 291.854 50.0349 291.917 49.8812C291.939 49.8266 291.961 49.77 291.981 49.7154L292.009 49.6426C292.031 49.5859 292.051 49.5273 292.07 49.4687C292.108 49.3595 292.146 49.2462 292.18 49.131C292.214 49.0157 292.233 48.9469 292.259 48.8539L292.271 48.8034C292.305 48.68 292.333 48.5546 292.362 48.4292C292.362 48.4151 292.362 48.4009 292.362 48.3868C292.408 48.1846 292.442 47.9824 292.476 47.7801C292.51 47.5779 292.533 47.3373 292.551 47.1088L292.597 46.5021L295.005 15.3605C295.025 15.1077 295.033 14.857 295.033 14.6082C295.017 14.5152 295.015 14.4283 295.013 14.3373ZM9.57781 21.6171C9.57582 21.6078 9.57582 21.5981 9.57781 21.5888C9.57584 21.5639 9.57584 21.5389 9.57781 21.514C9.57781 21.4877 9.57781 21.4594 9.57781 21.4331C9.57781 21.3664 9.57781 21.2996 9.59172 21.2309C9.59528 21.1706 9.60191 21.1105 9.61158 21.0509C9.61158 20.9984 9.6235 20.9478 9.63145 20.8952C9.63145 20.875 9.63145 20.8548 9.63145 20.8366C9.63145 20.8184 9.64734 20.7456 9.65529 20.6971C9.66324 20.6485 9.67317 20.606 9.68311 20.5595C9.69304 20.513 9.70099 20.4746 9.70893 20.4342C9.7288 20.3472 9.75065 20.2582 9.77449 20.1733C9.77449 20.145 9.7884 20.1187 9.79833 20.0924C9.80577 20.0602 9.81506 20.0285 9.82615 19.9974C9.84204 19.9428 9.85992 19.8902 9.87979 19.8336C9.89965 19.777 9.9076 19.7507 9.92349 19.7062C9.93939 19.6617 9.94138 19.6536 9.95131 19.6253C9.96124 19.597 9.99303 19.5201 10.0149 19.4676C10.0566 19.3644 10.1003 19.2653 10.15 19.1602C10.1758 19.1015 10.2036 19.0449 10.2334 18.9883C10.2632 18.9317 10.293 18.8751 10.3248 18.8184L10.4162 18.6506C10.45 18.596 10.4837 18.5414 10.5155 18.4848C10.5473 18.4282 10.5851 18.3776 10.6208 18.323C10.6566 18.2684 10.6923 18.2138 10.7301 18.1612L10.8433 18.0035C10.9208 17.9004 11.0023 17.8013 11.0837 17.6941C11.1274 17.6456 11.1711 17.593 11.2129 17.5445C11.2546 17.4959 11.3479 17.3908 11.4215 17.3159C11.4433 17.2917 11.4671 17.2674 11.489 17.2411L11.6221 17.1117C11.646 17.0854 11.6738 17.0591 11.6996 17.0349L11.7592 16.9803C11.8128 16.9317 11.8625 16.8832 11.9161 16.8367L12.0711 16.7032L12.2698 16.5394L12.4684 16.3837C12.538 16.3332 12.6095 16.2806 12.681 16.2321C12.8241 16.133 12.9731 16.0299 13.1221 15.9429L13.3525 15.8074C13.5075 15.7205 13.6664 15.6375 13.8273 15.5587C13.8363 15.5571 13.8446 15.5529 13.8512 15.5465C14.0041 15.4717 14.1651 15.401 14.326 15.3322C14.4869 15.2634 14.5982 15.223 14.7372 15.1724C14.8445 15.132 14.9558 15.0976 15.069 15.0592L15.3193 14.9803C15.4048 14.9541 15.4922 14.9298 15.5796 14.9075L15.6451 14.8893C15.7922 14.8509 15.9451 14.8185 16.0961 14.7862H16.11C16.1994 14.766 16.2908 14.7478 16.3802 14.7336L16.6822 14.6831L16.9047 14.6527L17.0756 14.6345L17.2961 14.6123L17.4948 14.5961L17.6795 14.586H17.8782H18.0669L130.712 13.033L152.083 12.7377L161.361 12.6103L192.095 12.1857L280.583 10.9724H280.746H281.03C281.118 10.9724 281.207 10.9724 281.295 10.9845H281.338H281.511L281.71 11.0027C281.773 11.0027 281.833 11.0148 281.895 11.0209C282.081 11.0431 282.272 11.0714 282.459 11.0998H282.485L282.735 11.1483L283.009 11.2069C283.367 11.2871 283.72 11.3877 284.066 11.5082C284.404 11.6254 284.735 11.7604 285.059 11.9127L285.258 12.0178C285.357 12.0684 285.457 12.121 285.554 12.1756L285.626 12.216C285.699 12.2564 285.771 12.3009 285.842 12.3454C285.995 12.4384 286.148 12.5335 286.293 12.6366C286.357 12.6811 286.422 12.7276 286.492 12.7741L286.677 12.9157C286.74 12.9622 286.8 13.0128 286.859 13.0613C286.977 13.1604 287.092 13.2635 287.203 13.3646C287.314 13.4657 287.372 13.5223 287.449 13.6073L287.507 13.6679C287.567 13.7286 287.624 13.7913 287.682 13.8519C287.682 13.8661 287.704 13.8762 287.712 13.8884C287.769 13.9531 287.827 14.0178 287.883 14.0906C287.898 14.1065 287.913 14.1234 287.926 14.1411L287.972 14.1978C288 14.2342 288.026 14.2705 288.055 14.3069C288.085 14.3433 288.119 14.3919 288.153 14.4343C288.286 14.618 288.41 14.8091 288.522 15.0066L288.594 15.1259C288.63 15.1906 288.665 15.2594 288.701 15.3281C288.779 15.4798 288.85 15.6315 288.916 15.7872C288.924 15.8113 288.934 15.835 288.945 15.858C288.971 15.9247 288.997 15.9914 289.021 16.0602C289.045 16.1289 289.082 16.226 289.108 16.3109C289.134 16.3959 289.154 16.4626 289.176 16.5394V16.5657C289.196 16.6365 289.214 16.7053 289.228 16.7679C289.239 16.8064 289.245 16.8448 289.255 16.8792C289.265 16.9135 289.279 16.9985 289.291 17.0571V17.0935C289.294 17.1146 289.298 17.1356 289.303 17.1562C289.303 17.2169 289.323 17.2816 289.329 17.3422C289.335 17.4029 289.329 17.411 289.343 17.4454C289.357 17.4797 289.355 17.5465 289.359 17.5991C289.359 17.6901 289.373 17.779 289.377 17.87C289.381 17.961 289.377 18.05 289.377 18.139C289.377 18.228 289.377 18.3291 289.377 18.4261C289.377 18.4666 289.377 18.507 289.377 18.5495C289.377 18.5919 289.377 18.6668 289.365 18.7274L288.967 23.2834L288.707 26.0174L288.218 31.1214L287.974 33.5763L287.432 39.2506L287.126 42.4375L287.078 42.9289L287.038 43.3475V43.3981C287.038 43.4709 287.022 43.5416 287.012 43.6003C287.012 43.6003 287.012 43.6144 287.012 43.6205C287.009 43.6545 287.004 43.6882 286.996 43.7216C286.996 43.7782 286.979 43.8369 286.969 43.8915C286.959 43.942 286.949 43.9946 286.937 44.0452C286.938 44.0607 286.938 44.0762 286.937 44.0917C286.925 44.1362 286.917 44.1827 286.903 44.2292C286.892 44.2858 286.878 44.3418 286.861 44.397C286.845 44.4536 286.83 44.5082 286.812 44.5649C286.794 44.6215 286.78 44.6741 286.76 44.7307L286.718 44.854C286.718 44.8783 286.7 44.9046 286.689 44.9309C286.677 44.9572 286.661 45.0118 286.643 45.0542C286.624 45.1088 286.601 45.1622 286.575 45.214C286.575 45.2362 286.557 45.2564 286.549 45.2767C286.542 45.2969 286.52 45.3434 286.506 45.3737C286.492 45.4041 286.456 45.4789 286.432 45.5294C286.408 45.58 286.381 45.6326 286.353 45.6852C286.245 45.8874 286.126 46.0896 285.999 46.2918C285.936 46.3889 285.866 46.494 285.8 46.581L285.695 46.7205C285.659 46.767 285.622 46.8115 285.584 46.856C285.546 46.9005 285.483 46.9834 285.427 47.0441C285.326 47.1613 285.228 47.2726 285.109 47.3858C285.067 47.4283 285.026 47.4707 284.98 47.5112C284.934 47.5516 284.853 47.6366 284.781 47.6952L284.678 47.7842L284.618 47.8368L284.485 47.948L284.457 47.9722L284.434 47.9925C284.42 48.0006 284.407 48.0101 284.396 48.0208C284.352 48.0572 284.305 48.0895 284.261 48.1239C284.183 48.1846 284.108 48.2412 284.028 48.2958C283.949 48.3504 283.903 48.3828 283.83 48.4252C283.756 48.4677 283.647 48.5465 283.552 48.6052L283.526 48.6214C283.515 48.629 283.504 48.6351 283.492 48.6396C283.416 48.6881 283.339 48.7326 283.26 48.7771L283.212 48.8034L282.985 48.9247L282.787 49.0238C282.695 49.0683 282.602 49.1148 282.509 49.1552C282.415 49.1957 282.332 49.2341 282.242 49.2705C282.044 49.3514 281.857 49.4242 281.658 49.4909L281.535 49.5314C281.516 49.5386 281.497 49.5447 281.477 49.5495C281.436 49.5657 281.388 49.5778 281.344 49.59C281.318 49.5999 281.292 49.6081 281.265 49.6143C281.236 49.6242 281.207 49.6323 281.177 49.6385C281.163 49.6457 281.148 49.6505 281.132 49.6527C281.036 49.679 280.933 49.7053 280.846 49.7275L280.792 49.7416L280.454 49.8124C280.389 49.8286 280.323 49.8428 280.256 49.8529L280.136 49.8711H280.101C280.073 49.8789 280.045 49.8836 280.017 49.8852C279.896 49.9055 279.775 49.9237 279.652 49.9378H279.622C279.511 49.952 279.397 49.9621 279.286 49.9722H279.163C279.048 49.9722 278.931 49.9884 278.813 49.9924C278.696 49.9965 278.539 50.0025 278.402 50.0025H19.6265C19.5867 50.0025 19.545 50.0025 19.5053 50.0025H19.3066H19.2172C19.1497 50.0025 19.0801 50.0025 19.0185 49.9884C18.9569 49.9742 18.8576 49.9883 18.7801 49.9701C18.7027 49.9519 18.6192 49.956 18.5437 49.9459L18.3808 49.956H18.3212C18.2437 49.9459 18.1682 49.9358 18.0927 49.9216C18.0769 49.9236 18.0609 49.9236 18.0451 49.9216C17.9835 49.9216 17.9199 49.9014 17.8583 49.8893C17.7451 49.8691 17.6338 49.8468 17.5246 49.8205L17.4053 49.7942L17.1828 49.7376C17.1332 49.7376 17.0835 49.7133 17.0358 49.6992C16.9544 49.6769 16.8709 49.6547 16.7895 49.6284C16.708 49.6021 16.6544 49.588 16.5908 49.5617C16.5292 49.5435 16.4736 49.5233 16.418 49.503L16.3246 49.4707C16.2995 49.463 16.2749 49.4536 16.2511 49.4424C16.1787 49.419 16.1077 49.3913 16.0385 49.3595C16.0096 49.351 15.9816 49.3395 15.9551 49.3251C15.8756 49.2968 15.7981 49.2644 15.7226 49.23L15.6869 49.2139C15.5577 49.1572 15.4306 49.0966 15.3074 49.0339L15.214 48.9894L15.1703 48.9651C15.0869 48.9227 15.0034 48.8782 14.922 48.8317C14.8088 48.7669 14.6995 48.7022 14.5882 48.6294C14.5286 48.593 14.469 48.5546 14.4094 48.5142C14.3459 48.4758 14.2823 48.4333 14.2227 48.3888L14.1949 48.3706C14.1432 48.3362 14.0955 48.2998 14.0459 48.2634L14.0041 48.2331L13.8571 48.1199C13.8507 48.1177 13.8451 48.1134 13.8412 48.1077C13.734 48.0268 13.6306 47.9419 13.5313 47.855L13.4141 47.7316L13.2154 47.5496L13.1022 47.4364C13.0664 47.402 13.0287 47.3636 12.9929 47.3231L12.8995 47.2281L12.8082 47.1249C12.7847 47.1015 12.7628 47.0765 12.7426 47.0501C12.7088 47.0158 12.681 46.9814 12.6512 46.945C12.6363 46.929 12.6224 46.9121 12.6095 46.8944C12.5598 46.8358 12.5121 46.7771 12.4684 46.7185C12.4533 46.7013 12.4394 46.683 12.4267 46.6639C12.3977 46.6283 12.3705 46.5912 12.3453 46.5527C12.3453 46.5527 12.3333 46.5405 12.3333 46.5365V46.5244C12.3197 46.5096 12.3077 46.4933 12.2976 46.4758C12.238 46.3949 12.1824 46.31 12.1267 46.2251C12.1029 46.1887 12.081 46.1563 12.0612 46.1199C12.0361 46.0845 12.0135 46.0474 11.9936 46.0087C11.9618 45.9561 11.93 45.8995 11.8983 45.8429C11.8665 45.7863 11.8486 45.7559 11.8267 45.7094C11.8012 45.6656 11.778 45.6203 11.7572 45.5739C11.7334 45.5294 11.7115 45.4829 11.6916 45.4385C11.6718 45.394 11.6499 45.3474 11.6301 45.3009C11.5943 45.2221 11.5605 45.1432 11.5307 45.0644C11.524 45.0508 11.5187 45.0365 11.5148 45.0219C11.4791 44.9349 11.4473 44.848 11.4195 44.759L11.4016 44.7105C11.3837 44.6518 11.3638 44.5932 11.3479 44.5325C11.3321 44.4719 11.3221 44.4476 11.3102 44.4051C11.2983 44.3627 11.2824 44.2979 11.2705 44.2474C11.2585 44.1968 11.2546 44.1847 11.2486 44.1503C11.2427 44.1159 11.2248 44.0452 11.2129 43.9906C11.2009 43.936 11.195 43.8976 11.189 43.851C11.1692 43.7501 11.1546 43.6482 11.1453 43.5457C11.1314 43.4466 11.1215 43.3435 11.1135 43.2444L10.7321 37.9018L10.3983 33.271L10.3546 32.6643L9.97515 27.3703L9.82218 25.2287L9.67913 23.2066L9.64536 22.7334L9.62748 22.5008L9.60562 22.2197C9.5937 22.0741 9.58973 21.9306 9.58973 21.789C9.57384 21.7324 9.57384 21.6738 9.57781 21.6171Z" fill="#C4B5A3"/>
            <g style="mix-blend-mode:screen" opacity="0.44">
                <path d="M19.7476 50.0389H65.1572C63.111 50.231 61.3309 51.0743 59.3084 51.3331C53.7457 52.0409 48.0896 50.9731 42.6203 51.9701C35.8437 53.2077 28.4036 52.5767 21.6508 51.6384C19.0225 51.2765 14.8504 52.0429 12.7485 49.414C11.2366 47.5253 11.1691 44.6215 10.7122 42.1342C9.83603 37.3497 5.26864 17.6233 12.1028 16.7113C11.2944 17.3779 10.6382 18.2156 10.1797 19.1662C9.72912 20.1169 9.53051 21.1709 9.60359 22.2238L9.64332 22.7435L9.6771 23.2147L9.97311 27.3763L10.3526 32.6724L10.3963 33.2791L10.73 37.9078L11.1115 43.2525C11.155 43.8776 11.2951 44.4918 11.5267 45.0724C11.9068 46.0161 12.4853 46.8637 13.2213 47.5557C13.8027 48.1088 14.4582 48.5752 15.1683 48.9409C15.1825 48.9502 15.1979 48.9577 15.214 48.9631C16.6218 49.6775 18.1746 50.0459 19.7476 50.0389Z" fill="#D6B88B"/>
            </g>
            <g style="mix-blend-mode:screen" opacity="0.44">
                <path d="M290.672 21.4432C290.116 26.2237 289.877 30.7695 289.547 35.825C289.303 39.653 288.826 46.9025 286.478 49.6102C283.77 52.7365 279.366 51.4302 276.038 51.6324C269.528 52.0368 262.989 52.3098 256.403 52.3098C250.994 52.3098 228.711 51.4484 225.809 51.046C212.927 49.2644 199.584 51.1491 186.844 51.6526C161.901 52.6354 136.978 51.2724 112.047 50.9914C99.3322 50.8478 86.4426 51.3169 73.7259 50.6638C71.5266 50.5505 69.4187 50.1663 67.2413 50.043H278.398C280.005 50.0522 281.59 49.6695 283.021 48.9267C285.258 47.7518 286.812 45.7397 287.036 43.398L287.08 42.9249L287.128 42.4375L287.434 39.2486L287.974 33.5864L288.21 31.1356L288.699 26.0315L288.959 23.2976L289.394 18.7578C289.394 18.6567 289.41 18.5555 289.416 18.4565C289.474 16.9103 288.966 15.3974 287.992 14.2099C287.204 13.2357 286.21 12.4558 285.083 11.9288C287.346 12.1978 289.311 12.9966 289.833 14.9965C291.969 15.3322 290.888 19.5909 290.672 21.4432Z" fill="#D6B88B"/>
            </g>
            <g style="mix-blend-mode:screen" opacity="0.44">
                <path d="M192.124 12.1736L161.39 12.5982L152.112 12.7256L130.742 13.0208L18.0967 14.5739C16.6375 14.5872 15.1983 14.9204 13.877 15.5506C14.4352 15.0066 14.8822 14.2402 15.4663 14.0198C16.0504 13.7994 16.8173 14.1796 17.4212 14.0481C18.5616 13.8034 19.4079 13.3828 20.6674 13.1321C23.7349 12.5254 27.146 13.0593 30.2492 13.0593C37.8205 13.0593 45.656 13.9106 53.1795 12.9945C66.981 11.3141 81.1322 12.4021 95.1145 12.4021H151.29C162.582 12.4021 174 12.6205 185.064 11.4112C187.434 11.1544 189.79 11.7469 192.124 12.1736Z" fill="#D6B88B"/>
            </g>
            <g style="mix-blend-mode:multiply" opacity="0.83">
                <path d="M58.2376 58.4957C58.186 58.5927 58.1284 58.6979 58.0747 58.7929C58.0449 58.8415 58.0171 58.894 57.9913 58.9426C57.4291 59.9537 56.8708 60.9425 56.2271 61.9111C56.2271 61.9577 56.2132 62.0082 56.2033 62.0567C56.1437 62.4288 56.0761 62.8151 56.0046 63.2013C55.9331 63.5875 55.8755 63.9414 55.8199 64.2953C55.7007 64.8756 55.5373 65.4455 55.3311 66H51.4789L52.9312 63.1042C53.2745 62.4629 53.7242 61.8869 54.2603 61.4016L55.9251 59.8404C56.5688 59.2338 57.1847 58.4249 57.8264 57.7596C58.0131 57.9477 58.2297 58.1034 58.2376 58.4957Z" fill="#A69E90"/>
            </g>
            <g style="mix-blend-mode:multiply" opacity="0.4">
                <path d="M58.2376 58.4957C58.186 58.5927 58.1284 58.6979 58.0747 58.7929L57.9754 58.9264C57.3496 59.7575 56.6999 60.5765 56.0384 61.353C55.4126 62.0972 54.7748 62.813 54.1371 63.4824C53.7649 64.3209 53.3941 65.1588 53.0246 65.9959H51.4789L52.9312 63.1002C53.2745 62.4589 53.7242 61.8829 54.2603 61.3975L55.9251 59.8364C56.5688 59.2297 57.1847 58.4209 57.8264 57.7556C58.0131 57.9477 58.2297 58.1034 58.2376 58.4957Z" fill="#A69E90"/>
            </g>
            <g style="mix-blend-mode:screen">
                <path d="M56.2033 62.0567C56.054 62.4184 55.9861 62.8095 56.0046 63.2013C56.0401 63.6671 56.1065 64.1298 56.2033 64.5865C56.2857 65.0533 56.315 65.5283 56.2907 66.002H55.2298C55.7026 64.3843 55.792 62.8312 56.0245 61.3773C56.0245 61.3773 56.0245 61.3652 56.0364 61.3591L57.9535 58.5745C57.9252 58.6299 57.912 58.692 57.9155 58.7543C57.919 58.8166 57.939 58.8767 57.9734 58.9284C57.9771 58.9353 57.9826 58.9409 57.9893 58.9446C58.035 59.0032 58.0966 59.0498 58.1443 59.1165C57.5946 59.9173 57.0456 60.7187 56.4973 61.5208C56.382 61.6891 56.2835 61.8686 56.2033 62.0567Z" fill="#C5C1B9"/>
            </g>
            <g style="mix-blend-mode:multiply" opacity="0.83">
                <path d="M297.087 51.4625L296.668 51.2199C296.399 51.0662 296.135 50.9125 295.873 50.7608L295.714 50.6658C294.435 50.3928 293.195 50.0591 291.955 49.7234C291.786 49.6749 291.617 49.6284 291.447 49.5839L291.236 49.5253L290.817 49.412C290.465 49.1209 290.515 48.8782 290.501 48.6274C291.065 48.6699 291.657 48.7407 292.245 48.8114C292.873 48.8863 293.497 48.955 294.075 48.9793L296.793 49.0966V49.1957L296.723 50.318L296.686 50.9509L296.674 51.1531C296.818 51.2467 296.956 51.3501 297.087 51.4625Z" fill="#A69E90"/>
            </g>
            <g style="mix-blend-mode:multiply" opacity="0.4">
                <path d="M296.795 49.0945V49.1936L296.725 50.316L295.406 50.1521C294.278 50.0065 293.133 49.8387 291.991 49.6486L291.451 49.5597L291.252 49.5232L290.833 49.41C290.481 49.1188 290.531 48.8762 290.517 48.6254C291.081 48.6679 291.673 48.7386 292.261 48.8094C292.889 48.8842 293.513 48.953 294.091 48.9773L296.795 49.0945Z" fill="#A69E90"/>
            </g>
            <g style="mix-blend-mode:screen">
                <path d="M296.681 50.9489L296.67 51.1511C296.42 50.9872 296.154 50.8516 295.875 50.7467C295.628 50.6567 295.375 50.5851 295.118 50.5323L291.894 49.8751L291.468 49.7902C291.449 49.7134 291.468 49.6405 291.449 49.5698C291.45 49.5624 291.45 49.5549 291.449 49.5475C291.431 49.4606 291.363 49.3756 291.141 49.2806L292.051 49.4626C293.163 49.6891 294.341 49.9277 295.404 50.14C295.825 50.407 296.25 50.6759 296.681 50.9489Z" fill="#C5C1B9"/>
            </g>
            <g style="mix-blend-mode:multiply" opacity="0.83">
                <path d="M294.001 20.3492C293.95 20.4807 293.902 20.6121 293.851 20.7415C293.334 22.1262 292.928 23.5511 292.637 25.0023C292.146 25.2673 291.582 25.3577 291.035 25.2591C291.135 23.1743 290.962 21.0854 290.521 19.0469C290.396 18.4807 290.241 17.8943 289.881 17.5C289.559 17.138 289.086 16.954 288.9 16.4646C288.767 16.1087 288.84 15.6921 288.858 15.3039C288.876 14.9156 288.806 14.4445 288.518 14.2726C288.562 13.943 288.614 13.6113 288.669 13.2817C288.844 12.2449 289.069 11.2177 289.345 10.2039C289.077 9.4618 289.243 8.61248 289.851 8.28085C290.012 9.78515 290.325 11.2685 290.785 12.7074C290.979 13.4178 291.291 14.0894 291.707 14.6932C292.343 15.5344 293.262 15.9591 294.139 16.3574C294.095 17.686 294.476 19.1501 294.001 20.3492Z" fill="#A69E90"/>
            </g>
            <g style="mix-blend-mode:multiply" opacity="0.4">
                <path d="M294.002 20.3492C293.95 20.4807 293.902 20.6121 293.851 20.7415C293.592 20.0196 293.366 19.2815 293.165 18.5313C292.273 18.4645 291.729 17.3463 291.258 16.4161C290.682 15.0006 289.337 14.4222 288.675 13.2817C288.85 12.2449 289.075 11.2177 289.351 10.2039C289.083 9.4618 289.249 8.61248 289.857 8.28085C290.018 9.78515 290.331 11.2685 290.791 12.7074C290.985 13.4178 291.297 14.0894 291.713 14.6932C292.349 15.5344 293.268 15.9591 294.145 16.3574C294.095 17.686 294.476 19.1501 294.002 20.3492Z" fill="#A69E90"/>
            </g>
            <g style="mix-blend-mode:screen">
                <path d="M291.037 25.1155C291.002 24.0417 291.298 22.9861 291.282 21.9124C291.266 20.6991 290.853 19.5464 290.447 18.4383C290.343 18.1285 290.216 17.8271 290.068 17.5364C289.737 16.9302 289.215 16.4551 288.586 16.1876C288.425 16.3756 288.53 16.7255 288.703 16.8974C288.876 17.0692 289.1 17.1522 289.257 17.3463C289.506 17.6537 289.522 18.1552 289.75 18.4908C289.865 18.6167 289.969 18.752 290.062 18.8953C290.121 19.0385 290.154 19.1911 290.161 19.3462C290.352 21.2114 290.425 23.0871 290.38 24.9618C290.362 25.1169 290.387 25.2739 290.453 25.4148C290.525 25.5161 290.63 25.5878 290.749 25.617C291.396 25.8389 292.076 25.9437 292.758 25.9264C292.861 25.9326 292.963 25.9042 293.048 25.8455C293.968 25.0832 291.016 24.4502 291.037 25.1155Z" fill="#C5C1B9"/>
            </g>
        </g>
    </g>
    <defs>
        <clipPath id="clip0_103_1867">
            <rect width="299" height="66" fill="white"/>
        </clipPath>
    </defs>
</svg>
