<svg width="232" height="57" viewBox="0 0 232 57" fill="none" xmlns="http://www.w3.org/2000/svg">
    <path fill-rule="evenodd" clip-rule="evenodd" d="M7.51531 1.9289C22.7975 1.59134 36.5703 0.458122 52.0098 0C62.4809 0.14467 76.3481 0.651003 89.492 0.289328C113.61 0.723338 138.577 0.747435 145.118 0.650989C170.808 1.302 197.568 2.02536 224.862 2.65226C226.542 3.1013 227.994 3.94502 229.013 5.06343C229.862 7.90861 230.679 10.2957 231.277 12.7551C231.277 14.467 232 19.651 232 23.099C231.277 33.6358 230.176 43.7386 229.642 51.4543C227.194 53.0099 224.359 54.1667 221.309 54.8541C193.732 55.6256 165.337 56.0596 134.898 56.9035C107.667 55.915 73.3608 54.8058 45.8466 55.0711C31.3191 54.42 18.0808 54.1066 6.35185 54.1789C4.79996 53.5426 3.4395 52.6637 2.35836 51.599C1.10057 41.1345 0.534562 31.4175 0 20.953C0.408783 14.7322 1.82381 10.3921 2.29548 5.25633C3.7311 3.89323 5.50533 2.76222 7.51531 1.9289Z" fill="url(#paint0_radial_107_160)"/>
    <path fill-rule="evenodd" clip-rule="evenodd" d="M5.09407 19.8198C5.91164 16.179 7.60965 12.948 8.77311 8.53554L2.29548 5.25635C1.82381 10.3921 0.408783 14.7322 0 20.953L5.09407 19.8198Z" fill="url(#paint1_radial_107_160)"/>
    <path fill-rule="evenodd" clip-rule="evenodd" d="M2.29547 5.25638L8.7731 8.53557L10.7541 7.06475L7.60963 1.92896C5.59965 2.76227 3.82542 3.89328 2.3898 5.25638H2.29547Z" fill="url(#paint2_radial_107_160)"/>
    <path fill-rule="evenodd" clip-rule="evenodd" d="M7.51529 1.9289L10.6598 7.0647C24.8728 6.70303 42.765 5.15988 55.8146 4.19541L51.9154 0C36.476 0.458122 22.7032 1.59134 7.42096 1.9289H7.51529Z" fill="url(#paint3_radial_107_160)"/>
    <path fill-rule="evenodd" clip-rule="evenodd" d="M52.0098 0L55.9089 4.19541C67.7076 3.94492 79.5138 4.39636 91.2215 5.54566L89.7121 0.289328H89.492C76.3481 0.651003 62.4809 0.14467 52.0098 0Z" fill="url(#paint4_radial_107_160)"/>
    <path fill-rule="evenodd" clip-rule="evenodd" d="M89.7121 0.289307L91.2215 5.54563C102.152 4.64186 113.186 4.7552 124.081 5.8832C131.156 5.52152 137.068 5.47332 143.64 4.70175L145.118 0.650967C138.609 0.650967 113.673 0.650982 89.7121 0.289307Z" fill="url(#paint5_radial_107_160)"/>
    <path fill-rule="evenodd" clip-rule="evenodd" d="M145.118 0.651001L143.64 4.70178C168.041 5.95559 197.096 6.70305 221.655 7.78807L224.799 2.65227C197.505 2.02537 170.745 1.30202 145.055 0.651001H145.118Z" fill="url(#paint6_radial_107_160)"/>
    <path fill-rule="evenodd" clip-rule="evenodd" d="M224.862 2.65222L221.718 7.78802C222.217 8.04875 222.662 8.36577 223.038 8.72837L229.076 5.15986C228.057 4.04145 226.605 3.19773 224.925 2.74869L224.862 2.65222Z" fill="url(#paint7_radial_107_160)"/>
    <path fill-rule="evenodd" clip-rule="evenodd" d="M229.013 5.15991L222.975 8.72843C223.195 10.3921 223.353 12.0317 223.761 13.6713C224.831 16.9505 226.434 21.58 226.906 23.316H232.157C232.157 19.868 231.591 14.684 231.434 12.9721C230.837 10.5609 230.019 8.14973 229.17 5.28044L229.013 5.15991Z" fill="url(#paint8_radial_107_160)"/>
    <path fill-rule="evenodd" clip-rule="evenodd" d="M232 23.1954H226.749C225.868 31.4416 225.805 40.8211 225.145 49.3807L229.547 51.599C230.082 43.8832 231.182 33.7805 231.906 23.2437L232 23.1954Z" fill="url(#paint9_radial_107_160)"/>
    <path fill-rule="evenodd" clip-rule="evenodd" d="M225.145 49.429C224.199 49.8057 223.222 50.1358 222.221 50.4175L221.309 54.9505C224.32 54.2686 227.122 53.1288 229.547 51.599L225.051 49.4772L225.145 49.429Z" fill="url(#paint10_radial_107_160)"/>
    <path fill-rule="evenodd" clip-rule="evenodd" d="M222.221 50.4175C193.92 51.2132 163.199 52.2018 134.835 52.9733V57C165.274 56.1561 193.669 55.7221 221.246 54.9505L222.158 50.4175H222.221Z" fill="url(#paint11_radial_107_160)"/>
    <path fill-rule="evenodd" clip-rule="evenodd" d="M134.835 52.9734C122.666 52.0813 99.177 50.5622 89.9323 50.3693C79.4926 50.2006 64.7764 50.5381 50.186 50.6587L46.1925 55.1675C73.6438 54.9023 107.761 56.0115 134.898 57.0001V52.9734H134.835Z" fill="url(#paint12_radial_107_160)"/>
    <path fill-rule="evenodd" clip-rule="evenodd" d="M46.1925 55.1675L50.186 50.6586C38.7715 50.1523 21.0052 48.7538 9.49635 48.6573L6.35187 54.2754C18.0808 54.2754 31.3191 54.5165 45.8466 55.1675H46.1925Z" fill="url(#paint13_radial_107_160)"/>
    <path fill-rule="evenodd" clip-rule="evenodd" d="M6.28894 54.2753L9.43343 48.6573C8.76771 48.5516 8.15614 48.3003 7.67252 47.934L2.35834 51.5989C3.42628 52.6986 4.7877 53.611 6.35182 54.2753H6.28894Z" fill="url(#paint14_radial_107_160)"/>
    <path fill-rule="evenodd" clip-rule="evenodd" d="M2.35836 51.599L7.73543 47.934C6.6663 38.6028 5.56574 29.1752 5.09407 19.8198L0 20.953C0.534562 31.4175 1.10057 41.1345 2.35836 51.599Z" fill="url(#paint15_radial_107_160)"/>
    <path fill-rule="evenodd" clip-rule="evenodd" d="M41.1927 15.4314C44.1693 13.9814 47.0066 12.3699 49.6828 10.6091C50.9406 9.04182 52.2299 7.47456 53.5191 5.78675C54.1165 5.03929 54.3681 4.58115 53.7392 4.2677C40.9097 5.20806 24.1811 6.67889 10.7541 6.96823L8.77309 8.43905C7.67252 12.538 6.16317 15.6725 5.28271 18.9758C5.38871 19.1096 5.54113 19.2181 5.72294 19.2893C6.94929 19.7233 30.8788 16.2753 36.6647 15.5278C37.8596 15.3832 40.2494 15.4073 41.1927 15.2385V15.4314Z" fill="url(#paint16_radial_107_160)"/>
    <path fill-rule="evenodd" clip-rule="evenodd" d="M50.5319 10.8502C48.3936 11.9111 46.3183 13.0444 44.2429 14.2018C43.1423 14.8528 42.5134 15.3109 42.5449 15.4555C42.5763 15.6002 43.1738 15.8896 44.5259 16.1548C68.9217 20.8612 92.6519 27.4031 115.371 35.6852C116.44 35.6852 116.566 35.5164 117.572 34.4796C123.93 28.0828 131.712 22.5975 140.558 18.2766C142.099 17.4809 141.911 17.2398 141.879 16.5165C141.724 13.4266 141.976 10.3325 142.634 7.28168C142.351 10.2744 142.267 13.2761 142.382 16.2754C142.382 16.9505 142.382 17.2398 143.357 16.854C145.149 16.203 150.432 13.7436 156.249 11.6218C162.067 9.49996 168.419 7.81214 170.557 6.79945C171.94 6.0761 171.06 6.00379 170.117 5.95556C160.966 5.618 152.004 5.23221 143.609 4.82231C137.037 5.59388 131.031 5.64208 124.05 6.00376C113.161 4.83565 102.127 4.68182 91.1901 5.54563C79.5232 4.40832 67.7599 3.95693 56.0033 4.19538C53.6299 6.12283 51.7617 8.3821 50.5004 10.8502H50.5319Z" fill="url(#paint17_radial_107_160)"/>
    <path fill-rule="evenodd" clip-rule="evenodd" d="M113.642 35.7817C99.8059 30.7664 63.0469 19.7715 45.5007 16.7817C41.2924 15.9751 36.8837 16.0166 32.7026 16.9022C22.2629 18.1078 6.82351 19.7474 5.50283 20.1332C5.33621 20.1642 5.19054 20.2415 5.09406 20.3502C5.62862 29.5367 6.69773 38.7956 7.73541 47.9339C8.21903 48.3003 8.8306 48.5516 9.49631 48.6573C12.1377 48.6573 15.0935 48.6573 18.238 48.8984C28.8035 49.3566 41.3814 50.2728 50.1859 50.6586C64.8078 50.538 79.4925 50.2005 89.9322 50.3692C93.7999 50.3692 100.183 50.7068 107.195 51.1167C114.962 51.4543 122.698 52.1776 130.465 52.3464C131.523 52.4095 132.588 52.3279 133.609 52.1053C133.955 51.9365 132.634 49.8629 131.251 47.9098C126.817 44.8718 122.541 41.7855 118.264 38.5545C117.021 37.3706 115.439 36.4219 113.642 35.7817Z" fill="url(#paint18_radial_107_160)"/>
    <path fill-rule="evenodd" clip-rule="evenodd" d="M156.469 11.8388C142.917 16.6611 127.163 25.3655 118.421 34.552C117.258 35.7817 117.258 36.0952 117.729 37.2525C122.183 41.042 127.008 44.5646 132.163 47.7893C133.028 49.1956 134.082 50.5289 135.307 51.7678C135.84 52.159 136.551 52.3753 137.288 52.3706C143.979 52.7081 150.691 52.7081 157.381 52.3706C168.362 50.816 179.177 48.64 189.738 45.8604C194.768 44.4351 199.561 42.5573 204.014 40.2665C210.303 36.7944 216.278 33.2018 222.095 29.3439C223.59 27.9089 224.867 26.3476 225.9 24.6903C226.462 24.0697 226.739 23.3232 226.686 22.5685C226.686 22.3998 226.686 22.2068 226.529 22.0139C225.837 19.8921 224.705 16.3718 223.856 13.7195C223.447 12.0799 223.29 10.4404 223.07 8.77666C222.694 8.41405 222.248 8.09703 221.749 7.8363C207.756 7.2094 192.317 6.70302 177.129 6.14846H174.928C174.194 6.13508 173.465 6.24195 172.789 6.46192C171.923 6.82487 171.12 7.27046 170.4 7.78807C165.687 8.97444 161.068 10.3672 156.564 11.9594L156.469 11.8388Z" fill="url(#paint19_radial_107_160)"/>
    <path fill-rule="evenodd" clip-rule="evenodd" d="M202.505 41.9543C198.228 43.401 194.14 45.0406 189.927 46.7766C179.19 49.1553 168.267 51.0076 157.224 52.3223L198.102 51.1167L222.284 50.4175C223.285 50.1358 224.261 49.8057 225.208 49.4289C225.805 41.6168 225.9 33.1294 226.591 25.3173C226.591 25.0279 226.34 24.9074 226.246 24.8591C224.712 26.3876 223.493 28.0871 222.629 29.8985C217.284 32.7443 212.16 35.8279 207.284 39.1332C205.02 40.6523 206.278 40.6764 208.448 41.8096C210.617 42.9429 212.033 43.7868 213.919 44.92C210.24 43.3045 206.341 40.5558 202.505 41.8337V41.9543Z" fill="url(#paint20_radial_107_160)"/>
    <path opacity="0.5" fill-rule="evenodd" clip-rule="evenodd" d="M8.45865 3.37568C23.3321 2.96578 38.6771 3.15868 53.3619 1.42264L90.1838 1.90486C108.642 1.27796 126.723 1.90486 144.52 2.24242C161.343 2.57999 209.989 1.63965 223.667 4.29193C224.422 4.29193 226.812 5.15996 227.032 6.2932C229.602 9.28134 231.168 12.7106 231.591 16.2754C231.591 14.7805 231.34 13.5267 231.277 12.8274C230.679 10.4163 229.862 8.00511 229.013 5.13582C227.994 4.01741 226.542 3.17369 224.862 2.72465C197.568 2.09775 170.808 1.37439 145.118 0.723376C138.577 0.723376 113.673 0.723391 89.492 0.361716C76.348 0.723391 62.4809 0.217058 52.0097 0.0723877C36.5703 0.53051 22.7975 1.66373 7.51529 2.00129C5.50531 2.83461 3.73108 3.96562 2.29546 5.32872C1.88668 9.76526 0.7861 13.6232 0.220093 18.6143C2.44838 14.5555 3.57192 10.1904 3.52181 5.78684C5.38003 5.27345 7.06627 4.44988 8.45865 3.37568Z" fill="#EDF5F7"/>
    <path opacity="0.5" fill-rule="evenodd" clip-rule="evenodd" d="M198.102 51.1167C203.542 51.1167 208.982 50.972 214.422 50.8515C216.749 50.8515 219.108 50.7309 221.466 50.8515C221.655 50.8515 221.843 51.0444 221.843 51.2131C221.839 52.1326 221.755 53.0509 221.592 53.9619C221.796 52.9133 222.08 51.8748 222.441 50.8515C222.847 50.5302 223.337 50.2783 223.879 50.1121C224.421 49.946 225.002 49.8692 225.585 49.887C226.875 50.2728 228.038 50.8273 229.264 51.2855L226.717 49.7665C225.617 49.1154 225.711 49.0431 225.805 47.9581C225.805 46.2462 226.088 44.5342 226.214 42.8223C226.214 36.722 226.466 31.2487 227.126 25.1967C227.126 24.618 227.126 23.8223 227.566 23.5329C228.006 23.2436 231.12 23.2677 231.56 23.1954C231.214 23.1954 227.598 22.9784 227.535 22.9301C226.956 21.7468 226.503 20.5291 226.183 19.2893L225.239 15.9378C225.019 15.2385 224.862 14.4911 225.239 14.2982C225.592 14.1036 225.986 13.9568 226.403 13.8642L229.359 13.2131C228.107 13.4653 226.817 13.587 225.522 13.5748C224.265 13.5748 224.485 13.0926 224.39 12.1522C224.296 11.2119 223.887 10.8984 223.824 10.2956C223.761 9.69282 223.478 9.06595 224.39 8.43904L228.51 5.61794L224.453 7.86035C222.975 8.70426 222.378 7.86036 223.07 6.5101L224.862 3.08625C224.076 4.17127 223.29 5.25628 222.472 6.3413C221.655 7.42633 221.12 7.3299 219.139 7.30579C206.718 7.04056 194.329 6.36542 181.94 5.59385C176.751 5.59385 146.156 5.0634 144.803 4.2436C144.332 3.97837 144.803 2.72456 145.307 0.964409C143.86 4.0507 144.615 4.19537 139.992 4.84639C135.279 5.30268 130.528 5.48804 125.779 5.40095C124.867 5.40095 124.679 5.40096 124.647 4.58116V2.31466C124.647 3.15857 124.396 3.93014 124.27 4.72582C124.144 5.52151 123.641 5.08749 122.918 5.01515C119.302 4.62937 115.717 4.36415 112.038 4.19536C105.749 4.19536 100.278 4.72584 93.8628 5.03929C91.2844 5.03929 91.2215 3.2068 90.2152 0.747413C90.5602 1.91741 90.6977 3.11774 90.624 4.31593C90.4039 4.70172 89.7121 4.62937 88.4858 4.53293L79.4297 3.8578C74.4299 3.71313 69.4931 3.66493 64.4934 3.61671C61.6851 3.8078 58.8576 3.75115 56.0661 3.44791C55.8775 3.44791 53.3304 0.892065 52.9217 0.578613C53.2676 1.10907 54.5882 2.84512 54.431 3.30324C54.2738 3.76137 53.0474 3.80958 52.0098 3.8578C49.1797 3.8578 46.6641 4.14716 43.8341 4.2195C33.4888 5.20808 23.8666 5.88319 13.4269 6.38954C12.0119 6.38954 11.666 6.77532 10.9114 5.85908C10.1567 4.94283 9.08755 3.44792 8.1442 2.36289C8.94814 3.84231 9.64107 5.35579 10.2196 6.8959C10.2196 7.18524 8.86745 7.76392 8.36434 7.57102C6.50909 6.84767 4.96828 6.26897 3.14448 5.47328C4.37083 6.24485 5.25128 6.94411 6.47763 7.71569C8.30143 8.84893 8.11277 8.41492 7.54676 10.1269L4.90539 18.373C4.55949 19.5304 4.49662 19.5304 3.0816 19.9403C2.20115 20.2055 1.69801 20.519 0.848999 20.7842L3.45893 20.3743C4.40227 20.2296 4.99972 20.0126 5.03117 20.8565C5.06261 21.7005 5.03117 23.2677 5.03117 24.3286C5.4714 28.4517 5.88018 32.5748 6.28897 36.6979C6.6663 40.0977 7.04365 43.4974 7.45243 46.9213C7.47137 47.2044 7.3956 47.4866 7.23232 47.741C6.17098 48.8494 4.98175 49.8823 3.67904 50.8273L7.86121 48.4162C7.86121 48.2956 9.11899 48.5608 9.27622 48.8743L8.33289 51.0685L9.87368 48.9949C10.0821 48.8431 10.3449 48.7423 10.6283 48.7055H18.521C15.3765 48.5609 12.4207 48.4885 9.77934 48.4644C9.11363 48.3587 8.50206 48.1074 8.01844 47.741C6.98076 38.6027 5.91163 29.3439 5.37706 20.1573C5.47355 20.0486 5.61921 19.9713 5.78584 19.9403C7.10652 19.5545 22.5459 17.9149 32.9856 16.7093C37.1667 15.8237 41.5755 15.7822 45.7837 16.5888C63.3299 19.5786 100.089 30.5735 113.925 35.5888C115.722 36.229 117.304 37.1777 118.547 38.3616C122.824 41.5926 127.1 44.6789 131.534 47.7169C132.917 49.67 134.238 51.7436 133.892 51.9124C132.871 52.135 131.806 52.2166 130.748 52.1535C122.981 51.9847 115.245 51.2614 107.478 50.9238C115.591 51.7436 123.83 52.1294 132.634 52.9251C133.703 52.9251 134.301 53.0698 134.647 53.3109C135.076 54.2154 135.299 55.1695 135.307 56.1319C135.527 54.2994 135.559 53.2385 136.03 53.0938C136.743 53.065 137.456 53.065 138.169 53.0938C144.667 52.9974 151.176 52.7 157.696 52.2017C168.63 50.9166 179.447 49.1046 190.084 46.7766C194.14 45.0888 198.228 43.4492 202.662 41.9543C207.096 40.4593 210.397 43.4251 214.076 45.0406C212.19 43.9073 210.492 42.9429 208.605 41.9302C206.718 40.9175 205.178 40.7728 207.442 39.2538C212.262 35.9109 217.333 32.7871 222.629 29.8984C223.479 28.1069 224.677 26.4241 226.183 24.9073C226.183 24.9073 226.371 25.0761 226.529 25.3654C225.837 33.0812 225.742 41.5685 225.145 49.4771C224.199 49.8538 223.222 50.184 222.221 50.4657L198.04 51.1649L198.102 51.1167ZM157.224 52.3223C150.534 52.6598 143.821 52.6598 137.131 52.3223C136.393 52.327 135.683 52.1107 135.15 51.7195C133.924 50.4806 132.871 49.1473 132.005 47.741C126.851 44.5163 122.026 40.9937 117.572 37.2043C117.101 36.0469 117.101 35.7335 118.264 34.5038C127.006 25.3172 142.76 16.6852 156.312 11.7906C160.816 10.1983 165.436 8.80559 170.148 7.61922C170.868 7.10161 171.671 6.65605 172.538 6.29311C173.938 5.94732 175.426 5.86461 176.877 6.05197C192.065 6.60654 207.504 7.11288 221.497 7.73978C221.997 8.00052 222.442 8.31753 222.818 8.68014C223.038 10.3438 223.195 11.9834 223.604 13.623C224.453 16.2753 225.585 19.7956 226.277 21.9175C226.453 22.3702 226.488 22.8482 226.379 23.3131C226.269 23.778 226.019 24.2167 225.648 24.5939C224.615 26.2511 223.339 27.8124 221.843 29.2474C216.026 33.1053 209.957 36.6979 203.763 40.17C199.309 42.4608 194.517 44.3386 189.487 45.7639C178.958 48.5564 168.174 50.7485 157.224 52.3223ZM115.34 35.6852C92.6204 27.4031 68.8902 20.8612 44.4944 16.1548C43.1423 15.8895 42.5134 15.5761 42.5134 15.4555C42.5134 15.335 43.1109 14.8527 44.2114 14.2017C46.2553 13.0444 48.3307 11.7906 50.5004 10.8502C51.7617 8.38209 53.6299 6.12281 56.0032 4.19536C67.7599 3.95691 79.5231 4.4083 91.19 5.54561C102.121 4.64184 113.154 4.75518 124.05 5.88317C131.125 5.5215 137.037 5.4733 143.609 4.70173C151.941 5.11162 160.777 5.49741 169.802 5.83498C170.871 5.83498 172.066 5.83496 170.557 6.67886C168.419 7.81211 162.098 9.47582 156.249 11.5012C150.401 13.5266 145.149 16.0824 143.357 16.7334C142.319 17.1192 142.414 16.7335 142.382 16.1548C142.267 13.1556 142.351 10.1538 142.634 7.16113C141.976 10.212 141.724 13.306 141.879 16.3959C141.879 17.1192 142.099 17.3604 140.558 18.156C131.712 22.4769 123.93 27.9622 117.572 34.3591C116.566 35.3959 116.44 35.6129 115.371 35.5647L115.34 35.6852ZM5.28273 19.0723C6.16319 15.7207 7.67254 12.6345 8.77311 8.53547L10.7541 7.06466C24.1811 6.7271 40.9097 5.30452 53.7392 4.36416C54.3681 4.67762 54.1166 5.13571 53.5191 5.88317C52.2299 7.45043 50.9406 9.01769 49.6828 10.7055C47.0066 12.4663 44.1693 14.0779 41.1927 15.5278C40.2494 15.6966 37.8596 15.6725 36.6647 15.8172C30.8788 16.5647 6.94931 20.0126 5.72296 19.5786C5.54115 19.5075 5.38873 19.3989 5.28273 19.2652V19.0723Z" fill="url(#paint21_radial_107_160)"/>
    <g style="mix-blend-mode:screen" opacity="0.5">
        <path fill-rule="evenodd" clip-rule="evenodd" d="M39.4947 33.2501C39.1502 33.2222 38.802 33.258 38.4792 33.3545C38.1565 33.451 37.8685 33.6053 37.6395 33.8046C36.7488 34.6484 36.1246 35.6387 35.8157 36.698C35.5012 37.7831 37.9854 38.844 39.1488 38.8681C39.637 38.8967 40.1273 38.8374 40.5804 38.6951C41.0335 38.5528 41.437 38.3313 41.7587 38.0483C42.6706 37.1079 41.35 33.3947 39.4947 33.226V33.2501Z" fill="#BDC8C9"/>
    </g>
    <g style="mix-blend-mode:screen" opacity="0.5">
        <path fill-rule="evenodd" clip-rule="evenodd" d="M26.1306 23.0749C24.1466 23.4038 22.306 24.1178 20.785 25.1485C19.087 26.4264 16.8858 30.4531 18.1436 32.2132C18.5 32.7316 19.0154 33.1758 19.6453 33.5076C20.2752 33.8394 21.0009 34.0489 21.7598 34.118C24.075 34.2446 26.3729 33.7313 28.2374 32.6713C29.7666 31.5555 31.0986 30.2909 32.1995 28.9099C33.1477 28.0957 34.0099 27.2249 34.778 26.3058C34.9833 25.9741 35.0872 25.6109 35.0816 25.2437C35.0761 24.8766 34.9612 24.5153 34.7459 24.1873C34.5305 23.8594 34.2203 23.5735 33.839 23.3515C33.4576 23.1294 33.0152 22.9771 32.5454 22.9061C30.4613 22.5787 28.3055 22.6365 26.2564 23.0749H26.1306Z" fill="#BDC8C9"/>
    </g>
    <g style="mix-blend-mode:screen" opacity="0.5">
        <path fill-rule="evenodd" clip-rule="evenodd" d="M209.423 22.1586C206.907 22.5203 204.234 25.7995 203.637 27.7284C203.039 29.6574 204.171 30.8147 205.429 30.453C208.228 29.6091 216.057 27.1738 216.561 24.5939C216.657 24.2922 216.67 23.9785 216.6 23.6726C216.53 23.3667 216.378 23.0753 216.153 22.8169C215.929 22.5585 215.636 22.3387 215.295 22.1714C214.954 22.0041 214.571 21.893 214.171 21.8452C212.576 21.7333 210.969 21.8394 209.423 22.1586Z" fill="#BDC8C9"/>
    </g>
    <path fill-rule="evenodd" clip-rule="evenodd" d="M209.014 21.797C206.498 22.1827 203.825 25.462 203.228 27.3909C202.631 29.3198 203.794 30.4772 205.02 30.0914C207.819 29.2475 215.649 26.8122 216.183 24.2322C216.274 23.9305 216.283 23.6175 216.209 23.313C216.134 23.0086 215.979 22.7192 215.751 22.4632C215.524 22.2072 215.229 21.9901 214.887 21.8257C214.545 21.6612 214.162 21.5529 213.762 21.5076C212.169 21.3879 210.562 21.4858 209.014 21.797Z" fill="url(#paint22_radial_107_160)"/>
    <path fill-rule="evenodd" clip-rule="evenodd" d="M39.086 32.9125C38.7443 32.8855 38.3992 32.9194 38.0774 33.0114C37.7557 33.1034 37.4659 33.2511 37.2307 33.443C36.3475 34.2904 35.7242 35.2792 35.4069 36.3363C35.0925 37.4455 37.5766 38.5064 38.7401 38.5305C39.2309 38.5562 39.7227 38.4932 40.176 38.3467C40.6293 38.2001 41.0314 37.974 41.35 37.6866C42.2619 36.7703 40.9412 33.0572 39.086 32.8643V32.9125Z" fill="url(#paint23_radial_107_160)"/>
    <path fill-rule="evenodd" clip-rule="evenodd" d="M25.7219 22.665C23.7352 22.9742 21.8908 23.6814 20.3763 24.7145C18.6782 26.0165 16.4771 30.0432 17.7349 31.8033C18.1015 32.3155 18.6196 32.7546 19.2477 33.0854C19.8757 33.4162 20.5961 33.6295 21.351 33.7082C23.663 33.8119 25.9509 33.3009 27.8287 32.2614C29.3594 31.1468 30.6916 29.882 31.7907 28.5C32.7316 27.6812 33.5934 26.8109 34.3692 25.896C34.5806 25.5632 34.6893 25.1976 34.6869 24.8275C34.6844 24.4573 34.5708 24.0926 34.3549 23.7615C34.1391 23.4305 33.8267 23.142 33.442 22.9184C33.0573 22.6948 32.6106 22.5421 32.1366 22.4721C30.0488 22.1651 27.8968 22.2311 25.8477 22.665H25.7219Z" fill="url(#paint24_radial_107_160)"/>
    <defs>
        <radialGradient id="paint0_radial_107_160" cx="0" cy="0" r="1" gradientUnits="userSpaceOnUse" gradientTransform="translate(40.2808 0.723348) scale(265.174 203.334)">
            <stop stop-color="#9DA9AB"/>
            <stop offset="1" stop-color="#717485"/>
        </radialGradient>
        <radialGradient id="paint1_radial_107_160" cx="0" cy="0" r="1" gradientUnits="userSpaceOnUse" gradientTransform="translate(0.314447 23.0507) scale(53.9279 41.3515)">
            <stop stop-color="#BDCACF"/>
            <stop offset="1" stop-color="#828599"/>
        </radialGradient>
        <radialGradient id="paint2_radial_107_160" cx="0" cy="0" r="1" gradientUnits="userSpaceOnUse" gradientTransform="translate(15.1878 8.24623) scale(19.936 15.2868)">
            <stop stop-color="#E4ECF0"/>
            <stop offset="1" stop-color="#A6B4BD"/>
        </radialGradient>
        <radialGradient id="paint3_radial_107_160" cx="0" cy="0" r="1" gradientUnits="userSpaceOnUse" gradientTransform="translate(56.0347 -35.2271) scale(80.8132 61.9669)">
            <stop stop-color="#E4ECF0"/>
            <stop offset="1" stop-color="#A6B4BD"/>
        </radialGradient>
        <radialGradient id="paint4_radial_107_160" cx="0" cy="0" r="1" gradientUnits="userSpaceOnUse" gradientTransform="translate(78.392 -46.3665) scale(79.5554 61.0022)">
            <stop stop-color="#E4ECF0"/>
            <stop offset="1" stop-color="#A6B4BD"/>
        </radialGradient>
        <radialGradient id="paint5_radial_107_160" cx="0" cy="0" r="1" gradientUnits="userSpaceOnUse" gradientTransform="translate(124.993 -25.7271) scale(83.1401 63.751)">
            <stop stop-color="#BDCACF"/>
            <stop offset="1" stop-color="#828599"/>
        </radialGradient>
        <radialGradient id="paint6_radial_107_160" cx="0" cy="0" r="1" gradientUnits="userSpaceOnUse" gradientTransform="translate(158.828 -46.7768) scale(101.693 77.9773)">
            <stop stop-color="#BDCACF"/>
            <stop offset="1" stop-color="#828599"/>
        </radialGradient>
        <radialGradient id="paint7_radial_107_160" cx="0" cy="0" r="1" gradientUnits="userSpaceOnUse" gradientTransform="translate(212.913 -15.7691) scale(32.6399 25.028)">
            <stop stop-color="#D3DBDE"/>
            <stop offset="1" stop-color="#BCC0DE"/>
        </radialGradient>
        <radialGradient id="paint8_radial_107_160" cx="0" cy="0" r="1" gradientUnits="userSpaceOnUse" gradientTransform="translate(224.516 8.17387) scale(76.0021 58.2779)">
            <stop stop-color="#9DA9AB"/>
            <stop offset="1" stop-color="#5B5E6B"/>
        </radialGradient>
        <radialGradient id="paint9_radial_107_160" cx="0" cy="0" r="1" gradientUnits="userSpaceOnUse" gradientTransform="translate(202.631 16.0343) scale(71.0965 54.5165)">
            <stop stop-color="#9DA9AB"/>
            <stop offset="1" stop-color="#5B5E6B"/>
        </radialGradient>
        <radialGradient id="paint10_radial_107_160" cx="0" cy="0" r="1" gradientUnits="userSpaceOnUse" gradientTransform="translate(222.032 37.4214) scale(41.57 31.8755)">
            <stop stop-color="#9DA9AB"/>
            <stop offset="1" stop-color="#555763"/>
        </radialGradient>
        <radialGradient id="paint11_radial_107_160" cx="0" cy="0" r="1" gradientUnits="userSpaceOnUse" gradientTransform="translate(161.909 4.89446) scale(105.686 81.0397)">
            <stop stop-color="#9DA9AB"/>
            <stop offset="1" stop-color="#555763"/>
        </radialGradient>
        <radialGradient id="paint12_radial_107_160" cx="0" cy="0" r="1" gradientUnits="userSpaceOnUse" gradientTransform="translate(87.0393 6.38963) scale(88.5486 67.8985)">
            <stop stop-color="#9DA9AB"/>
            <stop offset="1" stop-color="#555763"/>
        </radialGradient>
        <radialGradient id="paint13_radial_107_160" cx="0" cy="0" r="1" gradientUnits="userSpaceOnUse" gradientTransform="translate(49.903 15.4315) scale(86.2532 66.1382)">
            <stop stop-color="#9DA9AB"/>
            <stop offset="1" stop-color="#555763"/>
        </radialGradient>
        <radialGradient id="paint14_radial_107_160" cx="0" cy="0" r="1" gradientUnits="userSpaceOnUse" gradientTransform="translate(15.0621 39.9048) scale(42.3876 32.5026)">
            <stop stop-color="#9DA9AB"/>
            <stop offset="1" stop-color="#555763"/>
        </radialGradient>
        <radialGradient id="paint15_radial_107_160" cx="0" cy="0" r="1" gradientUnits="userSpaceOnUse" gradientTransform="translate(-0.471671 16.8541) scale(75.2789 57.7233)">
            <stop stop-color="#9DA7AB"/>
            <stop offset="1" stop-color="#828599"/>
        </radialGradient>
        <radialGradient id="paint16_radial_107_160" cx="0" cy="0" r="1" gradientUnits="userSpaceOnUse" gradientTransform="translate(42.3876 15.0939) scale(90.8127 69.6346)">
            <stop stop-color="#AAB4B8"/>
            <stop offset="1" stop-color="#828599"/>
        </radialGradient>
        <radialGradient id="paint17_radial_107_160" cx="0" cy="0" r="1" gradientUnits="userSpaceOnUse" gradientTransform="translate(95.7181 37.3489) scale(171.752 131.698)">
            <stop stop-color="#AAB4B8"/>
            <stop offset="1" stop-color="#828599"/>
        </radialGradient>
        <radialGradient id="paint18_radial_107_160" cx="0" cy="0" r="1" gradientUnits="userSpaceOnUse" gradientTransform="translate(72.6376 -17.047) scale(206.75 158.534)">
            <stop stop-color="#9DA9AB"/>
            <stop offset="1" stop-color="#717485"/>
        </radialGradient>
        <radialGradient id="paint19_radial_107_160" cx="0" cy="0" r="1" gradientUnits="userSpaceOnUse" gradientTransform="translate(107.95 23.75) scale(217.567 166.829)">
            <stop stop-color="#9DA9AB"/>
            <stop offset="1" stop-color="#717485"/>
        </radialGradient>
        <radialGradient id="paint20_radial_107_160" cx="0" cy="0" r="1" gradientUnits="userSpaceOnUse" gradientTransform="translate(165.557 -1.47082) scale(105.875 81.184)">
            <stop stop-color="#9DA9AB"/>
            <stop offset="1" stop-color="#717485"/>
        </radialGradient>
        <radialGradient id="paint21_radial_107_160" cx="0" cy="0" r="1" gradientUnits="userSpaceOnUse" gradientTransform="translate(34.4321 -34.9861) scale(261.055 200.175)">
            <stop stop-color="#E2F1F7"/>
            <stop offset="1" stop-color="#9A9DB5"/>
        </radialGradient>
        <radialGradient id="paint22_radial_107_160" cx="0" cy="0" r="1" gradientUnits="userSpaceOnUse" gradientTransform="translate(213.668 35.4924) scale(20.9737 16.0825)">
            <stop stop-color="#9DA9AB"/>
            <stop offset="1" stop-color="#717485"/>
        </radialGradient>
        <radialGradient id="paint23_radial_107_160" cx="0" cy="0" r="1" gradientUnits="userSpaceOnUse" gradientTransform="translate(41.4443 40.7488) scale(13.2383 10.151)">
            <stop stop-color="#9DA9AB"/>
            <stop offset="1" stop-color="#717485"/>
        </radialGradient>
        <radialGradient id="paint24_radial_107_160" cx="0" cy="0" r="1" gradientUnits="userSpaceOnUse" gradientTransform="translate(33.2057 34.5038) scale(22.7975 17.481)">
            <stop stop-color="#9DA9AB"/>
            <stop offset="1" stop-color="#717485"/>
        </radialGradient>
    </defs>
</svg>
