<svg width="603" height="846" viewBox="0 0 603 846" fill="none" xmlns="http://www.w3.org/2000/svg">
    <mask id="mask0_230_934" style="mask-type:alpha" maskUnits="userSpaceOnUse" x="0" y="0" width="603" height="846">
        <rect width="603" height="846" fill="#D9D9D9"/>
    </mask>
    <g mask="url(#mask0_230_934)">
        <path d="M126.446 17.5145C126.517 17.5813 126.605 17.629 126.699 17.6531C126.794 17.6772 126.894 17.6769 126.988 17.6524C127.083 17.6279 127.17 17.58 127.241 17.5129C127.313 17.4458 127.366 17.3618 127.397 17.2687C128.225 13.3663 128.869 9.43329 129.605 5.5002C168.195 6.66784 262.43 7.6511 308.076 7.83546C308.445 8.86858 309.083 9.7839 309.925 10.4863C310.766 11.1888 311.78 11.6527 312.861 11.83C315.223 11.83 316.787 9.98634 317.677 7.86616C320.223 7.86616 322.739 7.86616 325.285 7.86616C325.622 8.23489 325.929 8.63442 326.266 8.97242C327.877 10.8881 329.77 12.546 331.88 13.8888C333.486 14.9498 335.389 15.4667 337.31 15.3637C338.323 15.1859 339.289 14.8025 340.149 14.2371C341.009 13.6717 341.744 12.9362 342.31 12.0758C343.255 10.7709 344 9.33114 344.518 7.8047C393.078 7.58961 440.043 6.54482 480.32 5.25428L480.32 5.74598C481.179 11.3691 482.161 16.9614 483.388 22.5231C483.572 23.2605 484.554 23.0147 484.615 22.5231C484.799 20.6794 485.075 18.8665 485.412 17.0844C486.149 13.0591 487.161 9.09521 488.235 5.16211C555.998 2.91902 602.901 0.184326 602.901 0.184326L602.901 630.113C602.901 630.113 565.752 627.932 509.83 625.873C508.921 621.215 508.439 616.484 508.389 611.738C508.389 611.551 508.314 611.371 508.182 611.239C508.05 611.106 507.87 611.032 507.683 611.032C507.407 611.032 507.1 611.032 506.824 611.032C506.548 611.032 505.904 611.861 505.597 612.384C504.83 613.643 504.125 614.903 503.389 616.194L497.867 625.412C449.307 623.722 388.661 622.339 326.45 622.339C311.112 622.339 301.542 622.339 286.572 622.554L285.375 587.341C285.375 586.696 273.565 620.803 273.105 622.677C270.835 622.677 268.626 622.677 266.387 622.677L266.387 618.468C266.387 617.085 266.08 615.733 265.958 614.35C265.958 613.889 265.252 613.582 265.037 614.074C264.271 615.764 263.688 617.546 263.074 619.297L261.878 622.739C212.643 623.476 116.967 624.92 80.7386 626.334C79.9275 621.333 78.8523 616.379 77.5177 611.493C77.4671 611.322 77.3569 611.176 77.2074 611.081C77.0579 610.986 76.879 610.948 76.7037 610.974C76.5284 611 76.3684 611.089 76.2531 611.223C76.1377 611.358 76.0748 611.53 76.0759 611.708C75.6158 615.641 75.1863 619.574 74.6342 623.476L74.1741 626.549C28.9272 628.362 -6.10378e-05 630.052 -6.10378e-05 630.052L-8.85783e-05 2.63536e-05C-8.85783e-05 2.63536e-05 47.302 2.76548 115.494 5.00857C118.811 9.45902 122.473 13.6406 126.446 17.5145Z" fill="#F5D3A6"/>
        <path d="M951 194.505H-348V846H951V194.505Z" fill="#F5D3A6"/>
        <path opacity="0.2" d="M-139.088 765.765L-136.779 764.259H-120.44L-119.315 770.05L-114.147 764.259H-103.755C-103.034 766.749 -102.283 769.24 -101.562 771.73C-101.215 772.888 -100.465 774.307 -99.3965 773.988L-98.6171 772.627L-99.6852 799.208H-82.9425L-83.4044 787.887L-83.9817 773.409L-84.357 764.288C-82.2497 767.589 -80.0558 770.832 -77.7465 773.93C-77.5156 772.888 -77.2846 771.846 -77.0826 770.803L-76.2166 775.089L-67.1236 765.099C-64.3812 767.994 -61.6389 771.151 -58.8677 774.162C-59.1564 770.822 -59.3873 767.493 -59.5605 764.172L-55.7501 777.173C-55.346 778.505 -54.48 780.069 -53.2387 779.779L-52.3438 778.187L-53.4985 808.821H-34.1867L-34.7063 795.763L-35.3702 779.026L-35.8032 768.516C-33.3977 772.376 -30.8574 776.083 -28.1824 779.635C-26.8257 773.264 -25.4401 766.894 -24.1122 760.524L-15.9718 769.442C-15.9718 771.122 -16.1739 772.83 -16.3182 774.509L-13.8068 771.788C-11.3532 774.48 -8.8995 777.202 -6.41697 779.895C-6.84997 774.828 -7.13862 769.761 -7.36955 764.694C-5.57982 762.754 -3.79009 760.814 -2.02923 758.903L-0.903449 759.626C0.135751 764.52 1.20381 769.442 2.24301 774.365C4.40801 771.469 6.45754 768.574 8.42047 765.36L8.70916 765.562L8.39162 773.843L7.8143 788.118L7.38127 799.266H23.8353L22.825 773.206L23.5755 774.538C24.6435 774.857 25.3941 773.438 25.7116 772.309L30.2148 756.239L43.0605 770.311C43.7533 766.72 44.475 763.159 45.1966 759.597L48.7184 755.746C51.0565 757.88 53.5039 759.891 56.0505 761.769C56.2525 762.783 56.4835 763.796 56.6855 764.809C57.1185 764.259 57.4938 763.622 57.9268 763.043L58.533 763.477V622.784C55.1483 629.028 51.1755 634.933 46.6688 640.417C49.1225 638.97 51.4607 638.014 53.6257 636.711C54.5041 636.198 55.3349 635.607 56.1082 634.945C55.7041 637.203 55.1845 639.259 54.6937 641.315C53.8855 642.792 53.0484 644.21 52.1535 645.658C50.739 647.946 49.2668 650.175 47.6792 652.347C44.9657 647.83 41.9058 643.516 39.0192 639.172C37.1717 636.566 35.3531 633.902 33.6788 631.21C33.4767 630.399 33.2747 629.617 33.0437 628.806C34.3079 630.537 35.7818 632.103 37.4315 633.468C39.4396 635.117 41.7015 636.427 44.1286 637.348C31.8929 621.194 21.7202 603.568 13.8474 584.881C11.7113 603.355 2.30077 619.83 -9.24589 633.787C-6.35923 632.165 -3.84784 631.094 -1.39418 629.617C-0.375181 629.038 0.590796 628.369 1.49249 627.619C1.03062 630.167 0.482147 632.484 -0.0951862 634.8C-1.01892 636.479 -1.9715 638.101 -2.98183 639.722C-5.8026 644.268 -8.90716 648.629 -12.2769 652.781C-12.5944 652.173 -12.9408 651.594 -13.2872 650.957C-16.3471 645.166 -19.3781 639.375 -22.3514 633.584C-20.6194 634.684 -18.8874 635.784 -17.1265 636.798C-14.0378 638.622 -10.8913 640.302 -7.68709 641.865C-13.0895 635.622 -17.9655 628.939 -22.2648 621.886C-23.4483 620.004 -24.5741 618.093 -25.6422 616.095C-26.3061 613.373 -26.97 610.68 -27.5185 607.698C-26.4804 608.56 -25.3805 609.343 -24.2277 610.043C-21.341 611.752 -18.2523 612.939 -15.0192 614.908C-28.3556 598.577 -39.4693 579.264 -41.9518 557.605C-50.8926 578.792 -62.3488 598.819 -76.0722 617.253C-83.2 606.443 -87.8077 594.161 -89.553 581.32C-96.5995 598.085 -105.467 614.019 -115.995 628.835H-123.587C-126.473 624.087 -129.1 619.222 -131.525 614.184C-133.113 610.941 -134.585 607.611 -135.971 604.281V603.47C-134.701 605.02 -133.268 606.427 -131.698 607.669C-129.229 609.645 -126.436 611.174 -123.442 612.186C-126.669 605.178 -130.668 598.554 -135.364 592.438C-136.981 590.093 -138.597 587.748 -140.07 585.373C-140.243 584.649 -140.416 583.954 -140.618 583.26C-139.497 584.78 -138.198 586.16 -136.75 587.371C-134.975 588.847 -132.965 590.012 -130.803 590.817C-141.635 576.489 -150.652 560.869 -157.649 544.315C-159.353 559.371 -166.627 572.894 -175.605 584.563C-177.048 581.928 -178.491 579.322 -179.963 576.629C-183.081 570.838 -186.16 564.96 -189.201 558.995C-187.44 560.124 -185.679 561.225 -183.889 562.267C-180.772 564.12 -177.539 565.828 -174.277 567.421C-179.78 561.094 -184.743 554.314 -189.114 547.152C-190.327 545.212 -191.452 543.272 -192.549 541.361C-193.213 538.466 -193.906 535.831 -194.454 532.675C-193.395 533.565 -192.265 534.369 -191.077 535.078C-188.19 536.815 -185.044 538.118 -181.724 540.029C-195.292 523.38 -206.492 503.748 -209.09 481.742C-218.498 503.986 -230.618 524.974 -245.173 544.228C-242.283 543.13 -239.592 541.565 -237.206 539.595C-235.242 537.977 -233.486 536.119 -231.981 534.064C-232.241 534.991 -232.501 535.947 -232.732 536.96C-234.752 540.145 -236.888 543.301 -239.082 546.428C-245.384 554.674 -250.766 563.588 -255.132 573.009C-251.099 571.657 -247.336 569.598 -244.019 566.929C-241.898 565.205 -239.963 563.264 -238.245 561.138C-238.245 561.485 -238.245 561.862 -238.245 562.238C-240.17 566.736 -242.161 571.166 -244.221 575.528C-248.599 584.488 -253.486 593.189 -258.856 601.588C-262.118 595.797 -265.38 590.006 -268.497 584.215C-271.192 579.158 -273.847 574.081 -276.465 568.985C-274.935 569.969 -273.434 570.925 -271.875 571.88C-269.161 573.473 -266.39 574.978 -263.561 576.339C-268.303 570.912 -272.59 565.101 -276.378 558.966C-277.388 557.316 -278.399 555.636 -279.265 553.928C-279.842 551.525 -280.419 549.15 -280.91 546.544C-280.013 547.318 -279.047 548.006 -278.023 548.6C-275.541 550.106 -272.827 551.235 -269.97 552.885C-281.661 538.408 -291.389 521.643 -293.583 502.648C-301.743 521.81 -312.245 539.881 -324.845 556.447C-322.335 555.506 -320.002 554.145 -317.946 552.422C-316.212 551.066 -314.651 549.5 -313.299 547.76C-313.529 548.571 -313.732 549.382 -313.934 550.193C-315.666 553.088 -317.513 555.665 -319.418 558.358C-324.848 565.473 -329.485 573.163 -333.245 581.291C-329.77 580.119 -326.526 578.345 -323.662 576.05C-321.849 574.608 -320.194 572.977 -318.725 571.185C-318.725 571.475 -318.725 571.793 -318.725 572.112C-320.342 575.992 -322.045 579.814 -323.893 583.694C-328.145 592.438 -332.966 600.892 -338.326 609.001C-345.135 599.414 -351.168 589.295 -356.368 578.743C-358.215 574.978 -359.976 571.156 -361.621 567.16L-361.795 566.263L-357.898 568.811C-353.183 571.687 -348.42 574.322 -343.609 576.716C-349.151 567.064 -354.539 557.287 -359.774 547.384C-362.834 541.593 -365.836 535.802 -368.78 530.011C-367.048 531.111 -365.345 532.182 -363.584 533.196C-360.524 535.02 -357.378 536.699 -354.203 538.263C-359.556 532.056 -364.383 525.412 -368.636 518.4C-369.444 517.097 -370.224 515.765 -370.974 514.433V764.057H-138.828L-139.088 765.765ZM44.1574 688.367C43.5224 687.18 42.9162 685.964 42.31 684.748C42.8584 684.4 43.4358 684.14 43.9842 683.792C44.5327 684.14 45.1389 684.4 45.7162 684.748C45.3121 685.906 44.6482 687.151 44.1574 688.367ZM52.3267 654.49C51.8071 655.561 51.2297 656.603 50.6813 657.646C50.4215 657.096 50.1906 656.517 49.9019 655.995L52.3267 654.49ZM49.44 660.136C48.141 662.626 46.8709 665.145 45.543 667.606C44.8791 666.274 44.1285 665 43.4646 663.64C42.8007 662.279 42.512 661.439 41.9924 660.339C43.378 659.644 44.7059 658.891 46.0626 658.138C47.1231 658.878 48.2321 659.546 49.3823 660.136H49.44ZM38.4129 651.652C39.8509 653.399 41.4665 654.99 43.2337 656.401C43.5512 656.661 43.9265 656.835 44.244 657.067C43.4358 658.08 42.6563 659.122 41.7903 660.136C40.6357 657.617 39.4521 655.127 38.4129 652.579V651.652ZM-9.01495 681.331L-9.53455 682.431V682.258L-9.96756 681.302L-8.78404 680.52C-8.9861 680.955 -9.01497 680.955 -9.0727 681.331H-9.01495ZM-7.25411 652.376C-5.75304 651.507 -4.36744 650.581 -2.80864 649.654C-4.5695 653.1 -6.38809 656.545 -8.20669 659.991C-9.18816 658.167 -10.2274 656.343 -11.0934 654.519C-9.93869 653.795 -8.58196 653.158 -7.31183 652.405L-7.25411 652.376ZM-13.8646 670.531L-14.4708 671.631C-14.4708 671.313 -14.7883 670.994 -14.9038 670.676C-14.9038 670.386 -14.9038 670.068 -14.9038 669.778L-13.8646 670.531ZM-70.4721 636.943C-70.7319 637.58 -71.0494 638.159 -71.3092 638.796L-72.0886 637.609C-71.569 637.03 -71.0206 636.479 -70.501 635.871V636.943H-70.4721ZM-69.4329 614.531C-67.5065 612.941 -65.7896 611.112 -64.3235 609.088C-64.5833 610.014 -64.8142 610.97 -65.0452 611.983C-67.0081 615.139 -69.1154 618.238 -71.2515 621.336C-71.6268 621.828 -71.9732 622.349 -72.3484 622.87C-73.3876 621.365 -74.4268 619.83 -75.4083 618.295C-73.2973 617.286 -71.3113 616.033 -69.4906 614.56L-69.4329 614.531ZM-74.831 626.345L-76.2454 628.401C-76.5052 627.243 -76.765 626.056 -76.996 624.81C-76.332 625.418 -75.6104 625.94 -74.8887 626.374L-74.831 626.345ZM-109.067 625.94C-109.298 626.75 -109.5 627.561 -109.702 628.372L-109.875 628.633H-111.376C-110.54 627.794 -109.768 626.894 -109.067 625.94ZM-321.295 601.82C-323.09 605.779 -325.084 609.645 -327.27 613.402C-330.33 618.643 -333.678 623.681 -337.114 628.661H-338.932C-339.74 627.474 -340.549 626.258 -341.328 625.013C-345.927 617.909 -350.267 610.497 -354.347 602.775C-352.644 603.76 -350.941 604.744 -349.209 605.671C-345.947 607.437 -342.627 609.001 -339.25 610.506L-339.769 611.317L-338.557 610.825C-337.72 611.201 -336.883 611.607 -336.017 611.954C-336.421 611.404 -336.796 610.796 -337.2 610.246C-332.809 608.509 -328.57 606.407 -324.528 603.963C-323.402 603.326 -322.334 602.631 -321.266 601.907L-321.295 601.82ZM-241.132 596.984C-243.226 601.567 -245.547 606.042 -248.089 610.391C-250.975 615.632 -254.411 620.67 -257.788 625.679C-260.473 621.162 -263.013 616.529 -265.351 611.809C-266.996 608.48 -268.526 605.092 -269.97 601.646C-269.956 601.386 -269.956 601.125 -269.97 600.864L-266.535 603.094C-264.831 604.194 -263.099 605.208 -261.367 606.221C-261.714 606.771 -262.031 607.35 -262.407 607.901C-261.627 607.64 -260.906 607.264 -260.126 606.945C-258.105 608.103 -256.056 609.204 -254.006 610.246C-254.901 608.653 -255.738 607.061 -256.633 605.468C-252.539 603.709 -248.565 601.677 -244.74 599.388C-243.47 598.635 -242.2 597.824 -240.959 597.013L-241.132 596.984ZM-181.724 596.666L-181.897 595.768L-177.943 598.345L-176.644 599.127C-177.452 600.256 -178.26 601.357 -179.097 602.457C-180.021 600.488 -180.945 598.606 -181.782 596.666H-181.724ZM-172.4 601.646C-173.613 604.049 -174.883 606.424 -176.153 608.798L-176.355 608.422C-176.903 607.263 -177.394 606.076 -177.943 604.918C-177.423 604.629 -176.875 604.397 -176.355 604.078C-174.998 603.297 -173.699 602.486 -172.4 601.646ZM-169.918 588.471C-170.495 589.485 -171.101 590.498 -171.707 591.512C-172.747 589.63 -173.786 587.777 -174.796 585.894C-173.497 585.229 -172.227 584.591 -171.015 583.868C-170.123 583.362 -169.281 582.77 -168.503 582.101C-168.965 584.36 -169.485 586.416 -169.975 588.471H-169.918Z" fill="black"/>
        <path opacity="0.15" d="M927.303 788.842C922.944 783.051 918.643 777.26 914.833 771.064C913.505 769.018 912.206 766.962 910.935 764.896C911.325 762.373 911.325 759.804 910.935 757.281C914.181 760.168 918.027 762.295 922.194 763.506L916.42 755.196C912.696 749.897 908.972 744.541 905.682 738.894C904.123 736.202 902.795 733.422 901.381 730.555L903.719 732.032C907.192 734.156 910.867 735.931 914.688 737.331C910.375 730.952 906.517 724.276 903.141 717.352C901.842 714.63 900.601 711.879 899.447 709.099V708.433C900.505 709.722 901.695 710.897 902.997 711.937C905.057 713.575 907.38 714.848 909.867 715.701C907.176 709.857 903.846 704.331 899.937 699.226C898.581 697.286 897.253 695.317 896.011 693.435C895.867 692.826 895.723 692.247 895.549 691.668C896.491 692.929 897.576 694.076 898.783 695.085C900.266 696.321 901.944 697.299 903.748 697.981C894.712 686.04 887.197 673.016 881.376 659.209C880.098 668.521 876.754 677.426 871.59 685.269C861.58 671.851 853.224 657.268 846.707 641.836C844.917 657.588 836.835 671.631 827.136 683.503C829.503 682.142 831.754 681.215 833.833 679.941C834.676 679.437 835.477 678.866 836.229 678.233C835.824 680.405 835.334 682.374 834.872 684.372C834.092 685.79 833.284 687.267 832.418 688.541C829.286 693.656 825.732 698.498 821.795 703.019C824.133 701.889 826.443 700.644 828.694 699.312C829.965 698.56 831.235 697.778 832.476 696.967C830.34 701.195 828.117 705.422 825.894 709.592C825.663 710.055 825.404 710.489 825.173 710.924C822.715 707.911 820.458 704.738 818.418 701.426C817.667 700.239 816.974 699.052 816.311 697.836C815.906 696.156 815.502 694.477 815.156 692.624C815.799 693.17 816.484 693.664 817.205 694.101C818.966 695.143 820.9 695.954 822.979 696.996C814.694 686.862 807.795 674.874 806.265 661.439C800.537 675.031 793.138 687.851 784.24 699.602C786.013 698.912 787.662 697.934 789.118 696.707C790.321 695.722 791.388 694.583 792.293 693.319L791.86 695.056C790.648 697.025 789.349 698.936 787.992 700.847C785.827 704.003 783.605 707.13 781.642 710.431C780.516 708.839 779.419 707.246 778.38 705.567C777.745 704.524 777.138 703.482 776.532 702.411C776.186 700.905 775.811 699.515 775.493 697.778C776.071 698.25 776.679 698.685 777.312 699.081C778.899 700.007 780.602 700.702 782.392 701.745C774.547 692.885 769.406 681.95 767.584 670.241C764.009 678.692 759.7 686.811 754.709 694.506C752.198 690.105 749.253 685.819 746.338 681.766C744.808 679.536 743.278 677.306 741.863 675.019L741.344 673.021C742.408 674.474 743.649 675.787 745.039 676.93C746.759 678.356 748.712 679.472 750.812 680.231C740.451 666.557 731.84 651.635 725.178 635.813C723.389 651.478 715.364 665.406 705.722 677.22C708.061 675.859 710.312 674.932 712.362 673.687C713.209 673.19 714.011 672.618 714.758 671.979C714.353 674.15 713.892 676.09 713.401 678.059C712.631 679.488 711.823 680.878 710.976 682.229C707.866 687.336 704.342 692.179 700.44 696.707C702.749 695.577 705.03 694.361 707.252 693.029C708.522 692.276 709.764 691.495 711.005 690.713C708.869 694.911 706.675 699.11 704.452 703.25C700.642 710.431 696.716 717.525 692.703 724.59C696.225 722.795 699.689 720.826 703.038 718.799L705.924 716.946C705.924 717.149 705.924 717.381 705.924 717.612C704.741 720.508 703.471 723.23 702.114 725.98C698.339 733.646 693.956 740.995 689.009 747.957C685.133 742.067 681.651 735.924 678.588 729.571C677.26 726.849 676.019 724.04 674.835 721.232V720.566C675.903 721.864 677.103 723.048 678.414 724.098C680.497 725.773 682.863 727.058 685.4 727.891C682.659 721.989 679.281 716.406 675.326 711.242C673.969 709.273 672.612 707.304 671.371 705.451C671.227 704.843 671.082 704.264 670.909 703.656C671.852 704.943 672.947 706.11 674.171 707.13C675.669 708.375 677.368 709.354 679.194 710.026C670.055 697.962 662.453 684.801 656.562 670.849C654.975 684.661 647.902 696.909 639.416 707.362C641.465 706.175 643.457 705.364 645.189 704.264C645.929 703.818 646.634 703.314 647.296 702.758C646.95 704.669 646.517 706.407 646.084 708.115C645.42 709.36 644.698 710.576 643.948 711.792C641.199 716.285 638.09 720.546 634.653 724.533C636.702 723.519 638.694 722.448 640.686 721.29C641.812 720.624 642.908 719.929 644.005 719.234C642.129 722.94 640.195 726.646 638.232 730.295C635.952 734.58 633.585 738.779 631.217 743.006C627.317 736.883 623.771 730.541 620.594 724.011C619.036 720.855 617.708 717.612 616.236 714.34C616.25 714.08 616.25 713.819 616.236 713.558C617.477 715.079 618.88 716.457 620.421 717.67C622.824 719.605 625.552 721.095 628.475 722.071C625.336 715.232 621.465 708.756 616.928 702.758C615.341 700.5 613.782 698.212 612.339 695.867L611.819 693.811C612.896 695.306 614.168 696.65 615.601 697.807C617.324 699.25 619.275 700.395 621.374 701.195C610.74 687.188 601.887 671.908 595.019 655.706C593.2 671.718 585.002 685.964 575.129 698.038C577.554 696.649 579.835 695.722 581.942 694.448C582.793 693.931 583.604 693.351 584.367 692.711C583.992 694.911 583.472 696.909 583.01 698.907C582.202 700.355 581.365 701.774 580.499 703.164C577.318 708.373 573.717 713.312 569.731 717.931C572.098 716.773 574.437 715.527 576.717 714.167C578.016 713.414 579.315 712.603 580.585 711.792C578.391 716.107 576.14 720.479 573.888 724.619C572.849 726.559 571.752 728.47 570.713 730.41C563.746 722.066 559.175 711.976 557.492 701.224C552.422 713.256 545.877 724.607 538.007 735.014C539.573 734.426 541.027 733.574 542.308 732.495C543.402 731.672 544.374 730.697 545.195 729.6C545.05 730.121 544.906 730.642 544.791 731.134C543.723 732.872 542.568 734.58 541.384 736.259C537.981 740.755 535.077 745.61 532.724 750.737C534.909 750.026 536.944 748.916 538.729 747.465C539.865 746.61 540.909 745.64 541.846 744.57V745.149C540.836 747.581 539.768 749.984 538.613 752.33C536.154 757.416 533.387 762.348 530.328 767.097C521.357 755.223 513.891 742.277 508.101 728.557C506.837 737.872 503.492 746.78 498.315 754.617C488.315 741.193 479.961 726.61 473.432 711.184C471.643 726.936 463.56 740.979 453.861 752.851C456.228 751.49 458.479 750.563 460.558 749.318C461.392 748.802 462.193 748.231 462.954 747.61C462.578 749.753 462.088 751.751 461.597 753.72C460.817 755.138 460.009 756.615 459.143 757.889C456.011 762.996 452.468 767.839 448.549 772.367C450.887 771.238 453.168 769.992 455.419 768.66C456.718 767.908 457.96 767.126 459.23 766.315C457.065 770.514 454.871 774.741 452.619 778.911C452.388 779.374 452.129 779.808 451.898 780.243C449.449 777.223 447.193 774.051 445.143 770.745C444.421 769.558 443.728 768.4 443.064 767.184C442.631 765.475 442.227 763.796 441.881 761.943C442.524 762.489 443.209 762.983 443.931 763.42C445.72 764.462 447.625 765.273 449.704 766.315C441.448 756.181 434.549 744.222 433.019 730.758C427.28 744.345 419.882 757.164 410.994 768.921C412.765 768.226 414.412 767.248 415.872 766.026C417.06 765.037 418.126 763.909 419.047 762.667C418.874 763.217 418.73 763.796 418.586 764.404C417.344 766.373 416.045 768.284 414.717 770.195C412.524 773.351 410.301 776.507 408.338 779.779C407.212 778.187 406.115 776.594 405.105 774.915C404.441 773.872 403.835 772.83 403.257 771.759C402.882 770.253 402.507 768.863 402.218 767.126C402.786 767.611 403.395 768.047 404.037 768.429C405.596 769.355 407.299 770.05 409.088 771.093C401.259 762.234 396.12 751.312 394.28 739.618C390.699 748.057 386.391 756.166 381.405 763.854C378.923 759.453 375.949 755.167 373.063 751.114C371.504 748.884 369.974 746.654 368.56 744.367C368.406 743.691 368.232 743.025 368.04 742.369C369.112 743.815 370.352 745.127 371.735 746.278C373.46 747.698 375.412 748.814 377.508 749.579C367.165 735.904 358.555 720.994 351.875 705.19C350.085 720.826 342.06 734.754 332.419 746.568C334.786 745.207 337.008 744.28 339.087 743.035C339.925 742.538 340.717 741.966 341.454 741.327C341.079 743.498 340.588 745.467 340.097 747.407C339.347 748.836 338.538 750.226 337.672 751.577C334.571 756.691 331.047 761.534 327.136 766.054C329.445 764.925 331.726 763.709 333.977 762.377C335.247 761.653 336.489 760.872 337.759 760.061C335.623 764.259 333.429 768.458 331.235 772.598C327.396 779.779 323.499 786.902 319.457 793.938C322.979 792.143 326.443 790.203 329.792 788.147C330.744 787.539 331.697 786.931 332.678 786.294C332.665 786.516 332.665 786.738 332.678 786.96C331.504 789.779 330.234 792.558 328.868 795.299C324.934 802.901 320.397 810.173 315.301 817.045C311.446 811.141 307.966 805 304.88 798.658C303.552 795.936 302.311 793.157 301.156 790.319V789.653C302.234 790.952 303.443 792.136 304.764 793.186C306.842 794.858 309.197 796.152 311.721 797.008C308.987 791.092 305.608 785.499 301.647 780.329C300.29 778.361 298.933 776.392 297.692 774.394C297.548 773.786 297.403 773.206 297.23 772.598C298.172 773.885 299.268 775.052 300.492 776.073C302.006 777.294 303.701 778.271 305.515 778.969C296.386 766.887 288.785 753.719 282.883 739.763C281.325 753.575 274.223 765.823 265.737 776.276C267.815 775.089 269.778 774.278 271.51 773.178C272.25 772.731 272.955 772.228 273.617 771.672C273.271 773.583 272.838 775.32 272.434 777.029C271.741 778.303 271.019 779.519 270.269 780.706C267.539 785.211 264.429 789.474 260.974 793.446C263.023 792.462 265.044 791.361 267.007 790.203L270.355 788.147C268.479 791.854 266.545 795.56 264.582 799.208C262.301 803.494 259.934 807.692 257.596 811.92C253.687 805.797 250.13 799.456 246.944 792.925C245.414 789.769 244.058 786.526 242.614 783.254V782.472C243.863 783.985 245.266 785.363 246.8 786.584C249.203 788.518 251.93 790.009 254.854 790.985C251.716 784.145 247.844 777.669 243.307 771.672C241.691 769.413 240.132 767.126 238.688 764.78C238.544 764.086 238.371 763.391 238.169 762.725C239.254 764.213 240.525 765.556 241.95 766.72C243.678 768.157 245.628 769.302 247.724 770.108C237.131 756.121 228.326 740.859 221.513 724.677C219.665 740.69 211.467 754.936 201.624 767.01C204.02 765.62 206.3 764.694 208.407 763.42C209.263 762.896 210.083 762.316 210.861 761.682C210.457 763.883 209.966 765.881 209.475 767.908C208.696 769.326 207.859 770.803 206.993 772.164C203.805 777.367 200.194 782.296 196.197 786.902C198.564 785.744 200.902 784.499 203.182 783.138C204.481 782.385 205.752 781.575 207.022 780.764C204.828 785.078 202.576 789.45 200.325 793.591C199.285 795.531 198.189 797.442 197.149 799.382C190.228 790.995 185.717 780.875 184.102 770.108C179.017 782.139 172.462 793.49 164.588 803.899C166.156 803.31 167.618 802.469 168.918 801.409C169.997 800.569 170.967 799.596 171.804 798.513C171.804 799.035 171.545 799.556 171.4 800.077C170.303 801.814 169.149 803.523 167.965 805.202C164.556 809.694 161.652 814.549 159.305 819.68C161.481 818.933 163.512 817.817 165.309 816.379C166.436 815.523 167.471 814.553 168.398 813.483V814.062C167.388 816.495 166.291 818.898 165.165 821.243C162.259 827.263 158.931 833.069 155.206 838.617C158.529 837.389 161.729 835.848 164.761 834.013C165.454 833.607 166.118 833.173 166.81 832.71C165.682 835.199 164.42 837.626 163.029 839.977C161.788 842.12 160.46 844.205 159.074 846.29H312.731C312.775 845.499 312.775 844.706 312.731 843.915C313.742 843.307 314.781 842.757 315.762 842.062C315.532 843.481 315.329 844.958 315.099 846.29H545.281C543.953 844.321 542.568 842.352 541.269 840.325C539.97 838.298 538.642 836.213 537.401 834.157C537.79 831.634 537.79 829.066 537.401 826.542C540.631 829.436 544.469 831.564 548.63 832.768L542.857 824.486L539.595 819.709C541.991 817.045 544.415 814.41 546.84 811.746C547.822 815.134 548.832 818.55 549.727 821.967C549.958 822.691 550.449 823.589 551.112 823.386C551.286 823.096 551.459 822.807 551.603 822.517L550.939 839.369H561.562L561.273 832.188L560.898 823.01L560.667 817.219C561.995 819.303 563.381 821.359 564.853 823.328L567.105 812.817C567.711 813.512 568.346 814.178 568.952 814.844C568.952 816.582 568.75 818.348 568.606 820.085L571.146 817.19C573.022 819.245 574.899 821.33 576.919 823.386C576.602 819.477 576.4 815.597 576.284 811.804L577.294 810.675L583.645 814.613L584.771 819.911C586.763 817.276 588.639 814.526 590.4 811.717L590.082 819.477L589.592 831.812L589.216 841.454H603.679L602.784 818.84L603.448 819.998C604.343 820.259 605.007 819.043 605.295 818.087C606.662 813.512 607.999 808.937 609.308 804.362L620.421 816.524C621.23 812.47 622.038 808.416 622.875 804.362L624.549 803.32C627.516 806.089 630.691 808.625 634.046 810.906C634.046 811.485 634.046 812.065 634.046 812.673L635.086 811.514L637.366 812.962L636.76 809.661L641.176 804.855C642.953 805.852 644.831 806.657 646.777 807.258L647.902 812.499C649.606 810.211 651.222 807.837 652.752 805.434L652.492 812.122L652.059 822.778L651.742 831.088H664.039L663.259 811.572L663.837 812.557C664.616 812.788 665.165 811.746 665.424 810.906L668.888 799.064L678.472 809.574C679.309 805.463 680.118 801.322 680.955 797.21C684.612 800.746 688.649 803.863 692.992 806.505L691 795.647C694.333 798.803 698.418 801.046 702.864 802.162C698.679 796.66 694.724 790.985 690.914 785.165L700.728 779.113C700.728 784.904 700.324 790.927 699.805 796.834C704.096 792.201 708.349 787.539 712.564 782.849L715.45 796.631C717.384 794.054 719.232 791.361 720.964 788.611L720.646 796.226L720.184 808.271L719.809 817.711H733.579L732.713 795.589L733.377 796.718C734.243 796.979 734.878 795.792 735.166 794.836C735.975 792.143 736.754 789.45 737.533 786.787C738.89 785.918 740.218 785.02 741.517 784.065L749.946 793.33L751.072 787.8L756.066 782.327L757.856 783.775C758.577 786.323 759.328 788.871 760.078 791.419C760.309 792.143 760.771 793.041 761.464 792.838L761.955 791.969L761.291 808.822H771.885L771.596 801.641L771.279 793.562C772.318 792.925 773.299 792.201 774.309 791.506C774.627 791.912 774.887 792.375 775.204 792.78C775.204 792.056 775.522 791.304 775.666 790.551C777.53 789.2 779.313 787.74 781.007 786.178C781.844 787.134 782.71 788.061 783.547 789.074L785.106 796.863L794.43 786.642L797.807 798.224C798.067 799.035 798.615 800.048 799.366 799.816L799.943 798.832L799.193 817.856H811.143L810.826 809.748L810.422 799.382L810.162 793.359L810.393 793.215C811.807 795.473 813.28 797.645 814.867 799.758C815.647 796.197 816.397 792.607 817.177 789.045L817.985 788.524C819.255 789.972 820.583 791.419 821.853 792.78C821.709 796.458 821.507 800.135 821.189 803.812L826.558 798.021L828.377 799.99C828.377 798.774 828.204 797.529 828.117 796.313L834.035 789.827L836.921 803.725C838.846 801.119 840.693 798.427 842.464 795.647L842.175 803.291L841.684 815.423L841.309 824.921H855.338L854.443 802.654L855.107 803.783C856.002 804.073 856.637 802.857 856.926 801.901L859.813 792.462C859.813 794.865 859.524 797.297 859.322 799.701C861.343 797.529 863.334 795.328 865.326 793.128L871.937 800.395L872.543 797.297C872.716 798.05 872.86 798.803 873.034 799.556C874.708 797.297 876.324 794.952 877.825 792.549L877.566 799.179L877.133 809.719L876.815 817.942H888.968L888.217 798.629L888.795 799.614C889.574 799.845 890.123 798.803 890.354 797.992C891.22 795.097 892.057 792.201 892.923 789.306C894.762 790.262 896.697 791.019 898.696 791.564L903.343 796.689C904.181 792.607 904.989 788.524 905.826 784.441C909.429 787.954 913.419 791.043 917.719 793.649L915.727 782.935C919.042 785.83 923.018 787.859 927.303 788.842ZM193.021 802.249C192.646 800.772 192.3 799.353 191.982 797.645C192.556 798.115 193.164 798.54 193.801 798.919C194.667 799.469 195.591 799.903 196.687 800.395C195.966 801.756 195.186 803.117 194.465 804.478C193.772 803.725 193.426 803.001 193.021 802.249ZM197.698 816.726L197.525 817.016C196.63 815.279 195.706 813.57 194.811 811.804C195.764 812.412 196.716 813.02 197.698 813.57L198.852 814.207C198.448 815.076 198.102 815.916 197.698 816.755V816.726ZM201.595 808.04C200.989 809.459 200.325 810.935 199.69 812.209C199.083 811.399 198.477 810.617 197.9 809.777C198.218 809.611 198.526 809.427 198.824 809.227C199.805 808.619 200.758 807.982 201.71 807.345C201.694 807.627 201.655 807.908 201.595 808.184V808.04ZM256.182 843.336C256.168 842.045 256.052 840.758 255.835 839.485H256.008C256.528 839.948 257.077 840.354 257.625 840.759L256.182 843.336ZM265.737 811.688C264.668 814.178 263.572 816.639 262.359 819.043C260.685 822.488 258.837 825.847 256.874 829.119C254.421 825.5 252.025 821.822 249.831 818.029C247.971 814.872 246.284 811.614 244.779 808.271C245.674 808.879 246.598 809.459 247.666 810.009C250.443 811.683 253.338 813.154 256.326 814.41C255.691 815.568 255.085 816.755 254.421 817.884C255.922 817.132 257.307 816.321 258.866 815.51C259.444 815.713 259.963 816.002 260.541 816.205C260.252 815.8 260.05 815.365 259.761 814.96C261.031 814.236 262.301 813.483 263.543 812.702L265.939 811.254C265.886 811.452 265.818 811.645 265.737 811.833V811.688ZM327.02 812.586C324.134 818.087 320.872 823.502 317.552 828.772C316.773 830.017 315.936 831.204 315.156 832.42C312.443 828.482 309.758 824.486 307.333 820.317C305.775 817.595 304.274 814.815 302.975 811.92C303.754 812.441 304.562 812.933 305.342 813.396C308.293 815.169 311.382 816.699 314.579 817.971L313.713 819.216L315.56 818.377L316.426 818.753L316.08 818.145C318.505 817.074 320.93 815.916 323.297 814.642C324.567 813.976 325.779 813.281 327.02 812.557V812.586ZM375.632 789.392C375.257 788.582 374.824 787.8 374.477 786.989C375.055 787.395 375.632 787.742 376.238 788.118L375.632 789.392ZM372.37 762.377V761.595C373.579 763.079 374.944 764.429 376.44 765.62C377.246 766.226 378.084 766.787 378.952 767.3C378.086 768.574 377.191 769.848 376.267 771.093C374.881 768.226 373.582 765.331 372.341 762.377H372.37ZM381.434 769.384C380.337 771.093 379.211 772.772 378.028 774.452C377.653 773.728 377.248 773.033 376.873 772.28C377.625 771.848 378.339 771.354 379.009 770.803C379.821 770.124 380.565 769.368 381.232 768.545L381.607 768.689L381.434 769.384ZM406.173 783.572C405.769 782.82 405.336 782.038 404.96 781.285L406.721 782.385C406.49 782.762 406.317 783.167 406.144 783.572H406.173ZM410.907 805.897C410.474 804.999 410.07 804.102 409.666 803.204C410.07 802.944 410.532 802.77 410.936 802.509C411.34 802.77 411.744 802.944 412.148 803.204C411.773 804.16 411.34 805.028 410.878 805.897H410.907ZM411.484 788.003C410.994 788.958 410.445 789.914 409.954 790.898C409.002 789.103 408.078 787.279 407.068 785.455C407.929 785.047 408.767 784.593 409.579 784.094L412.466 785.686C412.148 786.381 411.831 787.192 411.455 788.089L411.484 788.003ZM415.122 779.866C414.342 781.719 413.505 783.543 412.668 785.368C412.033 784.644 411.484 783.891 410.878 783.138L411.6 782.675C412.879 781.629 414.058 780.465 415.122 779.2V779.866ZM450.021 801.467C450.021 801.467 449.762 800.917 449.646 800.656C449.66 800.473 449.66 800.289 449.646 800.106L450.512 800.656C450.357 800.937 450.183 801.208 449.993 801.467H450.021ZM448.953 785.194C447.625 782.675 446.298 780.185 445.027 777.666C446.096 778.36 447.164 779.026 448.261 779.663C449.213 780.214 450.195 780.706 451.147 781.198L448.953 785.194ZM453.861 792.954L453.572 793.649C453.428 793.359 453.254 793.099 453.11 792.838C453.419 792.662 453.718 792.469 454.005 792.259C453.941 792.516 453.893 792.778 453.861 793.041V792.954ZM494.822 769.79C494.649 769.355 494.418 768.921 494.245 768.458V767.821L495.4 769.095C495.227 769.326 495.025 769.587 494.822 769.877V769.79ZM494.822 757.078C493.264 754.82 491.734 752.561 490.29 750.274C490.117 749.608 489.944 748.913 489.742 748.247C490.816 749.709 492.067 751.032 493.466 752.185C494.812 753.261 496.285 754.166 497.853 754.878C497.132 756.007 496.381 757.107 495.602 758.208L494.822 757.078ZM498.431 762.261L497.392 760.756C497.936 760.415 498.457 760.038 498.95 759.626C498.806 760.611 498.604 761.48 498.431 762.348V762.261ZM528.366 783.022C527.615 781.372 526.836 779.75 526.114 778.071V777.405C527.172 778.694 528.362 779.868 529.664 780.909L528.366 783.022ZM531.685 789.856C531.31 789.132 530.906 788.437 530.559 787.684C530.992 787.337 531.425 787.018 531.858 786.642C531.715 787.736 531.657 788.839 531.685 789.943V789.856ZM534.572 811.543C535.236 810.964 535.929 810.443 536.535 809.835C537.025 812.18 537.487 814.526 537.949 816.871C536.795 815.221 535.698 813.425 534.572 811.63V811.543ZM540.172 763.449C539.046 765.939 537.776 768.371 536.419 770.716C535.063 773.062 533.85 774.944 532.465 777C530.646 774.104 528.596 771.209 526.691 768.313C525.334 766.373 524.007 764.404 522.765 762.522C522.621 761.914 522.477 761.335 522.303 760.756C523.229 762.031 524.315 763.179 525.537 764.172C526.941 765.384 528.529 766.361 530.242 767.068C529.722 767.908 529.231 768.776 528.683 769.616C531.999 768.394 535.19 766.852 538.209 765.012C538.902 764.607 539.595 764.172 540.259 763.709L540.172 763.449ZM566.469 733.277C566.123 731.8 565.748 730.382 565.459 728.673C566.028 729.15 566.636 729.576 567.278 729.947C568.144 730.468 569.068 730.932 570.164 731.424L567.913 735.507L566.469 733.277ZM571.146 747.755C571.109 747.857 571.061 747.954 571.002 748.044C570.078 746.307 569.183 744.57 568.288 742.832C569.241 743.44 570.193 744.048 571.175 744.599L572.329 745.236C571.925 746.104 571.579 746.944 571.175 747.784L571.146 747.755ZM575.072 739.068C574.494 740.487 573.802 741.964 573.167 743.238C572.56 742.427 571.983 741.645 571.406 740.805L572.329 740.255C573.311 739.647 574.264 739.01 575.216 738.373C575.156 738.65 575.117 738.93 575.101 739.213L575.072 739.068ZM629.659 774.509C629.64 773.22 629.534 771.933 629.341 770.658H629.514C630.005 771.122 630.582 771.527 631.102 771.932C630.64 772.888 630.149 773.612 629.659 774.509ZM639.242 742.861C638.174 745.351 637.048 747.813 635.865 750.216C634.162 753.662 632.314 757.02 630.38 760.292C627.927 756.673 625.531 752.996 623.308 749.203C621.489 746.046 619.786 742.803 618.256 739.445C619.18 740.053 620.075 740.632 621.143 741.182C623.927 742.845 626.82 744.315 629.803 745.583C629.139 746.741 628.533 747.928 627.869 749.058C629.399 748.305 630.756 747.494 632.343 746.683L633.989 747.378L633.238 746.133C634.508 745.409 635.75 744.656 636.991 743.875L639.473 742.253L639.242 742.861ZM644.092 801.322L645.218 800.077C645.478 801.409 645.766 802.712 646.055 804.015L644.092 801.322ZM688.171 780.764C687.536 779.75 686.872 778.737 686.237 777.695C686.382 776.736 686.459 775.768 686.468 774.799C687.479 774.191 688.518 773.612 689.499 772.946L688.171 780.764ZM700.642 743.759C697.755 749.26 694.522 754.675 691.202 759.945C690.423 761.161 689.586 762.377 688.806 763.593C686.064 759.655 683.38 755.66 680.984 751.49C679.388 748.768 677.934 745.965 676.625 743.093C677.404 743.614 678.184 744.106 678.992 744.57C681.94 746.347 685.03 747.878 688.229 749.145C687.912 749.55 687.652 749.984 687.334 750.39L689.211 749.55L690.077 749.926C689.932 749.724 689.846 749.521 689.701 749.318C692.155 748.247 694.58 747.089 696.947 745.815L700.671 743.73L700.642 743.759ZM749.253 720.421C748.849 719.61 748.445 718.828 748.07 717.989C748.647 718.394 749.253 718.741 749.831 719.118L749.253 720.421ZM749.917 702.121C748.532 699.226 747.233 696.33 745.991 693.435V692.537C747.201 694.021 748.565 695.37 750.062 696.562C750.858 697.181 751.697 697.742 752.573 698.241L749.917 702.121ZM755.055 700.413C753.987 702.121 752.833 703.801 751.678 705.48C751.303 704.756 750.87 704.032 750.523 703.308C751.275 702.876 751.99 702.383 752.659 701.832C753.464 701.145 754.208 700.389 754.882 699.573L755.229 699.718C755.027 699.978 754.94 700.181 754.911 700.413H755.055ZM771.105 792.114L770.874 786.323C771.192 786.844 771.538 787.308 771.885 787.8L771.105 792.114ZM779.765 714.601C779.361 713.819 778.957 713.066 778.582 712.284L780.372 713.385L779.765 714.601ZM784.528 736.925C784.095 736.028 783.691 735.13 783.287 734.233C783.691 733.972 784.124 733.769 784.528 733.538C784.904 733.798 785.337 733.972 785.741 734.233C785.279 735.159 784.846 735.97 784.384 736.925H784.528ZM785.077 719.031C784.615 719.987 784.066 720.913 783.576 721.927C782.623 720.131 781.671 718.307 780.689 716.483C781.547 716.077 782.376 715.612 783.172 715.093C784.153 715.643 785.135 716.193 786.058 716.686C785.539 717.41 785.337 718.22 784.932 719.031H785.077ZM788.743 710.895C787.963 712.748 787.097 714.572 786.26 716.396C785.654 715.672 785.077 714.919 784.5 714.167C784.73 713.993 784.99 713.877 785.221 713.674C786.504 712.653 787.675 711.498 788.714 710.229V710.895H788.743ZM823.643 732.495C823.643 732.206 823.383 731.945 823.267 731.685C823.254 731.501 823.254 731.318 823.267 731.134L824.133 731.685L823.643 732.495ZM822.575 716.28C821.276 713.79 819.948 711.3 818.678 708.781C819.746 709.476 820.814 710.142 821.911 710.779C822.834 711.329 823.816 711.792 824.797 712.313C823.931 713.645 823.065 714.977 822.43 716.28H822.575ZM827.482 724.069C827.388 724.306 827.282 724.538 827.164 724.764L826.731 723.953L827.597 723.374C827.527 723.612 827.44 723.844 827.338 724.069H827.482ZM868.473 700.905L867.866 699.573C867.866 699.312 867.866 699.052 867.866 698.791C868.213 699.226 868.617 699.631 869.021 700.065C868.732 700.355 868.501 700.615 868.328 700.905H868.473ZM868.473 688.165C866.885 685.935 865.355 683.677 863.941 681.389C863.796 680.723 863.623 680.028 863.421 679.362C864.487 680.831 865.739 682.155 867.145 683.3C868.48 684.376 869.945 685.281 871.504 685.993C870.782 687.122 870.031 688.223 869.281 689.323L868.473 688.165ZM872.052 693.348L871.042 691.871C871.582 691.523 872.102 691.146 872.601 690.742C872.283 691.639 872.139 692.537 871.908 693.348H872.052Z" fill="black"/>
        <path d="M133.269 719.118C128.131 712.198 123.194 705.046 118.576 697.691C117.017 695.259 115.516 692.769 114.015 690.278C114.492 687.267 114.492 684.198 114.015 681.186V681.331C117.857 684.818 122.421 687.409 127.38 688.917L120.568 678.928C116.18 672.529 111.908 666.072 107.953 659.267C106.134 656.024 104.431 652.694 102.93 649.278C103.825 649.886 104.749 650.523 105.817 651.073C109.94 653.638 114.3 655.801 118.836 657.53C113.814 649.849 109.348 641.818 105.47 633.497C103.95 630.254 102.507 626.953 101.14 623.594V622.784C102.397 624.343 103.809 625.769 105.355 627.04C107.816 629.086 110.621 630.675 113.64 631.731C110.512 624.732 106.641 618.091 102.093 611.925C100.505 609.58 98.9176 607.235 97.4743 604.831C97.33 604.136 97.1567 603.412 96.9547 602.718C98.0554 604.245 99.3347 605.636 100.765 606.858C102.493 608.324 104.442 609.507 106.538 610.362C95.9086 595.972 87.104 580.313 80.3275 563.744C78.278 580.045 69.7334 594.494 59.5723 606.684C62.026 605.295 64.3642 604.368 66.5292 603.094C67.4082 602.578 68.2477 601.997 69.0406 601.357C68.6076 603.586 68.088 605.613 67.5684 607.669C66.7313 609.117 65.8653 610.564 64.9704 611.983C61.669 617.251 57.9423 622.239 53.8279 626.895C56.2527 625.737 58.6486 624.492 60.9868 623.16C62.3436 622.407 63.6426 621.596 64.9416 620.786C62.6611 625.158 60.3229 629.472 57.9847 633.787C53.9145 641.257 49.7288 648.612 45.4565 655.908C49.1515 654.084 52.7887 652.086 56.3104 649.886L59.1971 648.004C59.2133 648.225 59.2133 648.448 59.1971 648.67C57.8981 651.565 56.5413 654.461 55.098 657.356C50.6493 666.184 45.4229 674.595 39.4812 682.489C42.9163 681.1 46.2648 679.594 49.5556 677.828C50.8546 677.162 52.1536 676.438 53.4526 675.685C50.2773 681.476 46.9191 687.074 43.3781 692.479C39.0289 699.255 34.4006 705.827 29.4933 712.198C33.6806 710.495 37.6847 708.37 41.4441 705.856C40.5781 710.866 39.6832 715.875 38.8172 720.884L53.0196 712.198C52.8175 718.336 52.4423 724.504 51.865 730.642C56.397 725.864 60.8713 721.058 65.3457 716.164C66.2983 720.971 67.2797 725.778 68.2323 730.642C70.3107 727.949 72.2448 725.198 74.0057 722.332L73.515 730.179L72.8799 742.745L72.3892 752.59H86.8225L86.1874 729.426L86.8513 730.613C87.7751 730.903 88.439 729.658 88.7566 728.673L93 714.717L104.2 727.283C105.201 722.419 106.231 717.593 107.289 712.806C111.556 717.048 116.292 720.788 121.405 723.953L119.153 711.097C123.087 714.952 127.951 717.715 133.269 719.118Z" fill="#536966"/>
        <path d="M116.436 749.81C121.372 743.469 126.106 736.925 130.552 730.179C132.053 727.92 133.438 725.662 134.939 723.345C134.525 720.528 134.574 717.662 135.084 714.861H134.91C131.276 718.046 126.975 720.371 122.325 721.666L128.877 712.516C133.092 706.725 137.306 700.702 141.03 694.477C142.815 691.495 144.443 688.421 145.909 685.269C145.043 685.819 144.177 686.369 143.282 686.891C139.397 689.211 135.298 691.15 131.042 692.682C135.864 685.63 140.185 678.248 143.975 670.589C145.476 667.693 146.861 664.537 148.218 661.468C148.232 661.217 148.232 660.966 148.218 660.715C147.028 662.135 145.693 663.426 144.234 664.566C141.92 666.371 139.313 667.762 136.527 668.678C139.597 662.208 143.373 656.1 147.785 650.465C149.315 648.322 150.845 646.15 152.23 643.979C152.404 643.313 152.548 642.647 152.75 642.01C151.712 643.423 150.488 644.689 149.113 645.774C147.475 647.187 145.611 648.313 143.599 649.104C153.797 635.93 162.32 621.535 168.973 606.25C170.532 621.452 178.182 635.205 187.419 646.643C185.138 645.311 182.973 644.384 180.982 643.168C180.183 642.663 179.421 642.102 178.701 641.489C179.048 643.573 179.509 645.484 179.942 647.28C180.664 648.67 181.444 650.001 182.252 651.362C185.232 656.323 188.601 661.038 192.326 665.464C190.103 664.363 187.91 663.147 185.745 661.844C184.503 661.12 183.291 660.339 182.107 659.557C184.128 663.668 186.235 667.751 188.314 671.805C191.951 678.841 195.675 685.761 199.514 692.653C196.1 690.891 192.776 688.958 189.555 686.862L186.842 685.037V685.674C187.967 688.425 189.151 691.147 190.45 693.84C194.413 702.148 199.108 710.085 204.479 717.554C201.313 716.203 198.22 714.685 195.213 713.008L191.605 710.952C194.491 716.338 197.378 721.637 200.64 726.791C204.489 733.18 208.655 739.406 213.139 745.467C209.29 743.777 205.616 741.711 202.17 739.3C202.863 743.99 203.584 748.681 204.306 753.343L191.258 745.091C191.258 750.882 191.518 756.673 191.951 762.29C187.823 757.744 183.753 753.198 179.712 748.565C178.701 753.025 177.691 757.484 176.825 761.943C174.949 759.424 173.217 756.789 171.571 754.096L171.773 761.479L172.12 773.206L172.379 782.356L158.841 782.211L159.938 760.727L159.274 761.827C158.408 762.059 157.802 760.9 157.542 759.974L153.876 746.915L143.195 758.497C142.329 753.951 141.492 749.405 140.626 744.859C136.561 748.71 132.078 752.09 127.261 754.936L129.599 743.035C125.844 746.361 121.319 748.69 116.436 749.81Z" fill="#819C93"/>
        <path d="M278.955 751.895C273.836 745.004 268.977 737.91 264.377 730.613C262.819 728.181 261.318 725.72 259.845 723.229C260.321 720.237 260.321 717.188 259.845 714.195C263.656 717.674 268.193 720.255 273.124 721.753C270.844 718.452 268.592 715.122 266.34 711.821C262.01 705.48 257.68 699.081 253.841 692.334C251.999 689.116 250.332 685.801 248.847 682.402L251.734 684.198C255.829 686.744 260.16 688.887 264.666 690.597C259.68 682.98 255.243 675.017 251.387 666.766C249.858 663.523 248.501 660.251 247.115 656.922V656.111C250.303 660.112 254.557 663.124 259.384 664.797C256.275 657.834 252.402 651.24 247.837 645.137C246.249 642.791 244.69 640.475 243.247 638.101L242.727 635.987C243.834 637.632 245.154 639.122 246.653 640.417C248.379 641.879 250.329 643.052 252.427 643.892C241.885 629.589 233.158 614.027 226.447 597.563C224.397 613.72 215.939 628.053 205.836 640.157C208.29 638.767 210.599 637.84 212.764 636.595C213.635 636.082 214.466 635.501 215.246 634.858C214.813 637.087 214.294 639.114 213.774 641.141C212.966 642.589 212.1 644.037 211.205 645.426C207.925 650.658 204.217 655.607 200.12 660.223C202.545 659.093 204.912 657.848 207.25 656.516C208.578 655.763 209.877 654.982 211.176 654.171C208.925 658.485 206.586 662.858 204.248 667.085C200.207 674.469 196.079 681.765 191.835 689.033C195.502 687.209 199.11 685.211 202.603 683.039L205.489 681.186C205.489 681.389 205.489 681.621 205.345 681.852C204.075 684.748 202.718 687.643 201.304 690.539C196.889 699.297 191.702 707.64 185.802 715.469C189.18 714.108 192.528 712.574 195.79 710.865C197.089 710.199 198.388 709.476 199.658 708.752C196.483 714.388 193.154 719.938 189.67 725.401C185.34 732.119 180.751 738.663 175.901 744.975C180.042 743.274 184.006 741.169 187.736 738.691L185.138 753.603L199.225 745.091C199.023 751.229 198.677 757.339 198.071 763.419C202.574 758.709 207.029 753.932 211.436 749.086C212.417 753.864 213.37 758.642 214.323 763.419C216.363 760.755 218.287 758.005 220.096 755.167L219.692 763.043L219.057 775.523L218.566 785.281H232.999L232.364 762.377C232.566 762.782 232.797 763.159 233.028 763.564C233.952 763.854 234.616 762.638 234.905 761.653L239.148 747.812L250.233 760.234C251.272 755.428 252.282 750.592 253.322 745.757C257.555 749.972 262.252 753.692 267.322 756.846C266.571 752.59 265.85 748.334 265.099 744.077C268.982 747.819 273.75 750.51 278.955 751.895Z" fill="#536966"/>
        <path d="M312.643 777.115C308.39 771.324 304.358 765.446 300.548 759.481C299.277 757.455 298.036 755.428 296.824 753.372C297.214 750.887 297.214 748.357 296.824 745.872C299.973 748.762 303.733 750.9 307.822 752.127C305.946 749.405 304.069 746.654 302.222 743.903C298.613 738.634 295.005 733.335 291.83 727.746C290.316 725.067 288.939 722.313 287.702 719.494C288.452 720.015 289.203 720.537 289.982 721C293.372 723.11 296.959 724.885 300.692 726.299C296.56 719.978 292.885 713.369 289.694 706.522C288.424 703.858 287.24 701.136 286.143 698.386V697.72C287.172 698.998 288.333 700.163 289.607 701.194C291.611 702.843 293.887 704.127 296.333 704.988C293.722 699.214 290.5 693.739 286.72 688.657C285.421 686.746 284.122 684.806 282.91 682.866C282.766 682.287 282.65 681.707 282.477 681.128C283.379 682.395 284.436 683.543 285.623 684.545C287.059 685.771 288.689 686.75 290.444 687.441C281.763 675.597 274.578 662.72 269.054 649.104C267.351 662.51 260.394 674.382 251.965 684.429C253.986 683.271 255.92 682.518 257.738 681.534C258.453 681.097 259.137 680.614 259.788 680.086C259.441 681.939 259.008 683.618 258.575 685.298C257.912 686.485 257.19 687.672 256.439 688.83C253.724 693.215 250.644 697.361 247.231 701.223C249.251 700.268 251.214 699.225 253.148 698.125L256.41 696.156C254.534 699.747 252.6 703.308 250.637 706.87C247.289 712.979 243.853 719.06 240.332 725.054C243.363 723.548 246.365 721.897 249.251 720.102C250.089 719.61 250.897 719.089 251.705 718.568C251.689 718.751 251.689 718.935 251.705 719.118C250.637 721.521 249.54 723.895 248.328 726.241C244.675 733.506 240.376 740.426 235.482 746.915C238.307 745.783 241.072 744.507 243.767 743.093C244.835 742.543 245.903 741.935 246.971 741.326C244.373 746.017 241.602 750.65 238.686 755.138C235.107 760.736 231.258 766.151 227.14 771.382C230.572 769.969 233.859 768.223 236.954 766.17L234.789 778.534L246.48 771.469C246.307 776.565 246.018 781.632 245.528 786.67C249.261 782.81 252.956 778.853 256.612 774.799C257.421 778.766 258.2 782.704 259.008 786.67C260.712 784.47 262.299 782.182 263.8 779.837L263.483 786.352L262.934 796.718L262.53 804.797H274.481L273.961 785.773C274.127 786.11 274.31 786.439 274.51 786.757C275.26 786.989 275.809 785.976 276.069 785.165C277.252 781.343 278.407 777.521 279.59 773.583L288.77 783.891C289.636 779.895 290.473 775.899 291.339 771.903C294.837 775.383 298.709 778.462 302.886 781.082C302.28 777.55 301.673 774.017 301.038 770.484C304.271 773.663 308.269 775.947 312.643 777.115Z" fill="#819C93"/>
        <path d="M-348 760.987V846H327.798L330.453 830.335C330.713 829.409 331.002 828.801 331.319 828.685L331.695 828.424C331.764 828.34 331.841 828.262 331.925 828.193L332.099 827.903C332.099 827.903 332.243 827.671 332.33 827.585C332.492 827.324 332.637 827.054 332.763 826.774C332.965 826.397 333.138 825.963 333.34 825.5C333.425 825.18 333.541 824.87 333.686 824.573C333.86 824.081 334.004 823.589 334.177 823.126L334.466 822.228C334.697 821.591 334.841 821.012 335.014 820.433C335.187 819.854 335.014 819.911 335.245 819.709V819.332L335.563 818.116L336.862 804.884L337.41 799.093L338.392 792.172L338.536 791.159L347.196 782.212L349.303 777.81L348.726 776.623L348.466 776.102L346.503 771.846L345.348 771.353L343.616 770.572L339.806 768.892L325.373 762.551L322.226 762.956L316.742 763.68L314.317 762.667L310.304 760.929L306.811 762.146L302.481 763.68L268.679 763.391H254.245L151.393 762.898L-348 760.987Z" fill="#9F4C33"/>
        <path opacity="0.4" d="M305.974 846L315.674 831.783V846H305.974Z" fill="#1D1D1B"/>
        <path opacity="0.4" d="M315.673 828.424L301.298 809.458V786.149L286.576 776.333L293.908 794.315L298.411 816.35L315.673 828.424Z" fill="#1D1D1B"/>
        <path opacity="0.4" d="M338.623 790.985L338.478 791.998L337.497 798.919L336.948 804.71L335.649 817.942C335.649 817.942 335.649 818.434 335.332 819.158V819.506C335.332 819.738 335.188 820.027 335.101 820.288C335.014 820.548 334.783 821.417 334.552 822.054C334.552 822.343 334.379 822.662 334.264 822.952C334.121 823.435 333.947 823.909 333.744 824.37C333.744 824.689 333.542 825.007 333.427 825.326L332.849 826.6C332.723 826.88 332.579 827.15 332.416 827.411L332.214 827.729L331.983 828.019L331.781 828.25L331.406 828.511C331.088 828.511 330.8 829.235 330.54 830.161L327.884 845.826H321.707L323.381 827.816L322.457 796.428L320.09 785.976L310.16 782.298L312.036 772.917L312.267 771.643L313.047 767.763L313.913 771.816L315.587 779.953L329.732 783.92V792.317L328.173 798.6L331.233 799.643L338.825 783.92L348.841 776.507L349.39 777.665L347.283 782.096L338.623 790.985Z" fill="#1D1D1B"/>
        <path opacity="0.4" d="M232.74 846H210.945L221.164 831.783L224.137 811.978L246.422 797.008L241.746 831.783L232.74 846Z" fill="#1D1D1B"/>
        <path opacity="0.4" d="M259.874 846L255.313 793.041L281.091 793.62C281.091 794.46 271.219 826.89 265.359 846H259.874Z" fill="#1D1D1B"/>
        <path opacity="0.4" d="M173.332 846L179.827 831.783L175.468 798.832L187.39 814.67L193.106 841.251L192.326 846H173.332Z" fill="#1D1D1B"/>
        <path opacity="0.4" d="M158.61 780.098C158.61 781.864 160.111 828.424 160.111 828.424L145.678 845.653L150.152 818.174L138.606 789.508V776.333L158.61 780.098Z" fill="#1D1D1B"/>
        <path opacity="0.4" d="M48.2816 845.653L48.1084 846H22.9944L23.7738 830.017L43.6052 818.174L52.092 797.905L57.7787 818.174L44.0959 828.424L48.2816 845.653Z" fill="#1D1D1B"/>
        <path opacity="0.4" d="M84.0763 846H62.715L61.9933 842.439L70.3935 821.272L65.1686 771.875L84.3938 813.715L81.7381 838.906C81.7381 838.906 82.7773 842.004 84.0763 846Z" fill="#1D1D1B"/>
        <path opacity="0.4" d="M-25.0107 817.624L-16.6683 804.247L-25.0107 792.433V771.527L-1.59987 773.612C-1.59987 774.133 -1.10914 777.173 -0.445204 781.111C1.027 789.798 3.39407 802.712 3.39407 802.712L-25.0107 828.627V817.624Z" fill="#1D1D1B"/>
        <path opacity="0.2" d="M338.623 790.985L338.478 791.998L337.497 798.919L336.948 804.71L335.649 817.942C335.649 817.942 335.649 818.434 335.332 819.158V819.506C335.332 819.738 335.187 820.027 335.101 820.288C335.014 820.548 334.783 821.417 334.552 822.054C334.552 822.343 334.379 822.662 334.264 822.952C334.121 823.435 333.947 823.909 333.744 824.37C333.744 824.689 333.542 825.007 333.427 825.326L332.849 826.6C332.723 826.88 332.578 827.15 332.416 827.411L332.214 827.729L331.983 828.019L331.781 828.25L331.406 828.511C331.088 828.511 330.8 829.235 330.54 830.161L327.884 845.826H212.417L221.366 831.609L224.253 811.804L246.538 783.659L254.418 763.101L255.342 760.727L268.794 763.188L312.44 771.324L314.115 771.643L324.362 773.554C324.362 773.554 334.956 774.48 348.668 775.841L348.957 776.391L349.505 777.55L347.398 781.98L338.623 790.985Z" fill="#1D1D1B"/>
        <path d="M-348 729.078V782.617L-279.846 782.356L-262.728 782.269L-228.434 782.124L-206.957 782.038L-170.585 781.893H-170.557L-155.546 781.835L-102.258 781.632L-87.8536 781.574L-64.2118 781.487L-40.8875 781.4L-25.0109 781.314L-0.387621 781.227L17.3365 780.242L31.8853 775.783L57.7787 780.242L67.0161 789.479L77.9565 800.453L78.2452 800.337H78.274L107.949 790.521L123.537 785.367L128.185 783.833L138.548 786.265L157.802 790.782L158.87 790.55L179.365 786.207L224.166 811.977L245.325 805.144H245.354L255.977 801.727L281.034 793.649L281.005 793.62L258.748 773.177L289.058 782.414L301.298 786.149L317.001 784.904L329.818 783.92L345.637 778.939H345.666L349.39 777.752L348.841 776.565L348.581 776.044L346.59 771.787L331.29 762.029L314.144 758.584L304.849 761.016L299.133 756.962L262.588 758.584L190.537 736.462L180.895 737.852L177.2 737.128L112.452 724.648L24.1202 722.94L-14.9941 724.214L-348 729.078Z" fill="#A3C4B9"/>
        <path opacity="0.4" d="M31.3945 784.094L34.3101 806.534L18.2602 819.882L7.3775 834.736L-20.0747 838.877L-0.185578 819.882L7.11768 808.937L19.8768 803.436L31.3945 784.094Z" fill="#1D1D1B"/>
        <path opacity="0.4" d="M107.949 790.521L140.511 814.641L123.537 785.367L107.949 790.521Z" fill="#1D1D1B"/>
        <path opacity="0.4" d="M90.0228 846H108.902L116.003 836.763L103.619 819.506L108.728 800.077L92.9095 817.479L95.2477 836.763L90.0228 846Z" fill="#1D1D1B"/>
        <path d="M951 641.651V915.308H532.433L535.32 875.002L532.289 856.963L529.951 843.47L510.235 727.649C509.917 726.49 509.571 725.738 509.167 725.593C508.998 725.51 508.842 725.403 508.705 725.274C508.625 725.153 508.539 725.037 508.445 724.927L508.185 724.493C507.994 724.174 507.821 723.845 507.666 723.508C507.392 722.993 507.151 722.461 506.944 721.916L506.511 720.757C506.28 720.178 506.078 719.57 505.876 718.991C505.674 718.412 505.645 718.209 505.501 717.862C505.241 717.08 505.039 716.327 504.837 715.661C504.635 714.995 504.664 714.995 504.577 714.706C504.564 714.561 504.564 714.416 504.577 714.271C504.317 713.345 504.173 712.766 504.173 712.766L502.585 696.348L501.893 689.196L500.651 680.509L500.478 679.264L489.74 668.174L487.142 662.673L487.488 661.949V661.688L487.719 661.225L488.036 660.559L490.519 655.289L491.933 654.652L494.07 653.726L498.804 651.641L516.701 643.794H516.845L520.742 644.286L527.526 645.184L530.413 643.881L535.407 641.738L539.737 643.273L545.135 645.184L587.02 644.836H604.802L651.566 644.46L812.382 643.157L951 641.651Z" fill="#9F4C33"/>
        <path opacity="0.4" d="M541.209 678.667L528.536 660.107V729.339L541.209 678.667Z" fill="#1D1D1B"/>
        <path opacity="0.4" d="M528.536 725.245L546.376 701.733V672.836L564.62 660.646L555.527 682.97L549.955 710.275L528.536 725.245Z" fill="#1D1D1B"/>
        <path opacity="0.4" d="M519.068 724.724L529.922 843.441L510.206 727.619C509.888 726.461 509.542 725.708 509.138 725.564C508.963 725.479 508.806 725.361 508.676 725.216L508.416 724.956C508.337 724.835 508.25 724.719 508.156 724.608L507.897 724.174C507.706 723.855 507.532 723.527 507.377 723.189C507.103 722.674 506.862 722.142 506.655 721.597L506.222 720.439C505.991 719.859 505.789 719.251 505.587 718.672C505.385 718.093 505.356 717.89 505.212 717.543C504.952 716.761 504.75 716.008 504.548 715.342C504.346 714.676 504.375 714.676 504.288 714.387C504.275 714.242 504.275 714.097 504.288 713.953C504.028 713.026 503.884 712.447 503.884 712.447L502.296 696.029L501.604 688.877L500.362 680.191L500.189 678.946L489.451 667.856L486.853 662.354L487.517 660.906L499.814 669.998L509.224 689.485L513.035 688.211L511.101 680.451V670.056L528.623 665.163L530.73 655.057V654.913L531.798 649.845L532.78 654.652L533.068 656.273L535.378 667.856L523.225 672.778L520.338 685.75L519.068 724.724Z" fill="#1D1D1B"/>
        <path opacity="0.4" d="M535.291 805.694L532.462 846H551.398L569.931 817.276V789.624L552.986 805.694L556.161 753.951L534.944 726.183L541.324 756.991L532.26 787.655L535.291 805.694Z" fill="#1D1D1B"/>
        <path opacity="0.4" d="M571.519 682.102C571.519 683.579 596.228 764.016 596.228 764.016L603.503 681.378L571.519 682.102Z" fill="#1D1D1B"/>
        <path opacity="0.2" d="M700.495 883.225L663.834 896.602L643.859 903.928L620.275 912.615L620.881 915.366H532.433L535.32 875.06L532.289 857.021L529.951 843.527L510.235 727.706C509.917 726.548 509.571 725.795 509.167 725.65C508.998 725.568 508.842 725.46 508.705 725.332C508.625 725.211 508.539 725.095 508.445 724.984L508.185 724.55C507.994 724.232 507.821 723.903 507.666 723.565C507.392 723.051 507.151 722.519 506.944 721.973L506.511 720.815C506.28 720.236 506.078 719.628 505.876 719.048C505.674 718.469 505.645 718.267 505.501 717.919C505.241 717.137 505.039 716.385 504.837 715.719C504.635 715.053 504.664 715.053 504.577 714.763C504.564 714.619 504.564 714.473 504.577 714.329C504.317 713.402 504.173 712.823 504.173 712.823L502.585 696.405L501.893 689.253L500.651 680.567L500.478 679.322L489.74 668.232L487.142 662.73L487.488 662.006V661.746L487.719 661.283L488.036 660.617C505.068 658.908 518.173 657.721 518.173 657.721L530.932 655.347L532.982 654.941L587.136 644.894L603.792 641.796L604.918 644.691L614.703 670.201L642.329 704.947L646.024 729.501L667.789 764.074L660.486 798.502L694.087 869.703L700.495 883.225Z" fill="#1D1D1B"/>
        <path d="M951 629.432V668.464L920.459 666.756L898.463 665.511L880.45 660.009L848.35 665.511L836.861 677.006L823.294 690.586L822.919 690.441L761.028 669.97L748.183 672.981L724.339 678.57L722.982 678.28L697.579 672.923L642.011 704.861L615.771 696.406H615.742L602.55 692.15L571.519 682.131L599.115 656.766L561.531 668.232L546.376 672.836L526.891 671.302L510.985 670.057L491.356 663.86L486.708 662.412L487.43 660.965L487.748 660.299L490.201 655.029L509.167 642.954L530.441 638.64L541.959 641.68L549.061 636.642L594.381 638.64L683.723 611.219L695.645 612.957L790.444 626.624L888.792 609.164L923.317 620.398L951 629.432Z" fill="#A3C4B9"/>
        <path opacity="0.2" d="M683.753 611.219L594.381 638.64L549.089 636.642L541.959 641.68L530.442 638.64L509.167 642.954L490.201 655.029L486.738 662.412L511.014 670.056L546.376 672.836L599.144 656.766L571.519 682.102L642.04 704.861L697.58 672.923L724.339 678.569L761.029 669.941L823.323 690.586L781.149 652.886L645.735 649.846L683.753 611.219Z" fill="#1D1D1B"/>
        <path d="M739.729 213.826C739.721 214.382 739.653 214.935 739.527 215.476H535.873C535.843 215.149 535.843 214.819 535.873 214.492C535.894 212.453 536.436 210.454 537.447 208.684C538.457 206.915 539.903 205.436 541.646 204.386C544.744 202.408 548.338 201.354 552.01 201.346C555.374 201.278 558.7 202.065 561.68 203.634C562.474 202.231 563.444 200.937 564.567 199.783C567.15 197.252 570.213 195.267 573.575 193.944C576.936 192.621 580.528 191.987 584.138 192.08C587.828 192.084 591.486 192.761 594.934 194.078C600.419 185.392 611.792 179.427 624.984 179.427C625.995 179.427 627.005 179.427 627.871 179.427C643.344 180.498 655.756 189.822 658.008 201.694C661.17 200.141 664.649 199.348 668.169 199.377C671.292 199.362 674.385 199.983 677.262 201.201C679.597 197.834 682.743 195.113 686.406 193.291C690.07 191.468 694.133 190.604 698.219 190.777C708.525 190.777 717.242 196.047 720.244 203.344C720.631 204.275 720.912 205.246 721.082 206.24C722.541 205.504 724.111 205.015 725.729 204.792C726.315 204.748 726.904 204.748 727.49 204.792C734.187 204.589 739.585 208.672 739.729 213.826Z" fill="white"/>
        <path d="M11.2979 536.627H142.988C142.902 535.205 142.493 533.821 141.792 532.582C141.092 531.342 140.118 530.28 138.946 529.475C136.452 527.71 133.494 526.724 130.443 526.642C127.392 526.559 124.384 527.384 121.799 529.012C120.006 527.293 117.892 525.945 115.579 525.046C113.266 524.146 110.799 523.713 108.319 523.771C106.365 523.783 104.422 524.066 102.545 524.611C101.218 514.36 90.1904 506.369 76.7386 506.369C65.6538 506.369 56.2144 511.812 52.5194 519.485C50.948 519.121 49.3404 518.937 47.7276 518.935C38.8655 518.935 31.5623 524.234 30.6963 530.981C28.3857 529.334 25.6214 528.449 22.7868 528.449C19.9522 528.449 17.1878 529.334 14.8773 530.981C13.9255 531.624 13.1164 532.458 12.5005 533.429C11.8846 534.401 11.4752 535.489 11.2979 536.627Z" fill="white"/>
        <g opacity="0.2">
            <path d="M490.348 507.614C488.715 508.528 485.45 510.632 482.73 512.461C477.288 515.846 469.76 521.151 469.851 521.059C469.942 520.968 478.013 513.742 483.274 508.803C485.582 506.294 487.647 503.568 489.441 500.662C489.781 499.978 490.084 499.276 490.348 498.559C490.348 498.559 490.801 496.912 490.348 497.004C489.894 497.095 489.169 498.01 488.806 498.376L487.355 499.931C481.823 505.967 440.738 540.816 436.294 543.285C435.35 543.904 434.442 544.576 433.573 545.297C433.123 545.519 432.722 545.83 432.394 546.212L430.762 548.041C429.57 549.287 428.45 550.6 427.406 551.974C426.462 552.969 425.64 554.075 424.957 555.267C423.73 554.734 422.383 554.545 421.057 554.718C420.06 552.981 419.334 550.602 417.52 549.413C415.706 548.224 408.451 548.59 409.63 553.712C409.095 554.05 408.658 554.523 408.36 555.084C407.907 556.182 408.36 558.468 409.448 559.017C409.298 558.471 409.353 557.888 409.605 557.381C409.856 556.874 410.285 556.479 410.809 556.273C411.36 557.589 411.844 558.932 412.26 560.298C411.983 560.735 411.74 561.194 411.534 561.67H410.537C409.16 561.856 407.797 562.131 406.455 562.493L401.467 563.773L399.2 564.505L397.84 565.145C397.84 565.145 395.119 566.517 394.847 566.792C390.765 569.81 341.79 591.945 333.991 594.231L331.995 594.872C331.267 594.952 330.575 595.237 330 595.695C330 596.244 330.998 596.427 331.36 596.518C332.113 596.614 332.875 596.614 333.628 596.518C337.016 596.214 340.361 595.54 343.604 594.506C350.316 591.945 359.476 588.103 360.383 587.646C361.29 587.189 352.492 592.128 347.051 595.603C344.239 597.341 340.974 599.354 339.432 600.451C337.89 601.549 336.349 602.463 336.53 603.195C336.53 604.018 339.523 603.195 340.339 602.646C343.725 601.703 347.007 600.416 350.134 598.805C356.301 595.329 366.913 588.469 367.094 588.378L359.113 594.323C356.664 596.152 354.125 597.982 351.585 599.994C350.039 601.021 348.609 602.218 347.323 603.561C347.323 603.561 345.418 605.207 345.69 605.756C345.962 606.305 346.869 605.756 347.323 605.756L350.95 604.11C357.513 600.075 363.87 595.71 369.996 591.03C369.996 591.03 364.101 597.25 361.834 599.445C360.839 600.4 359.928 601.44 359.113 602.555C359.113 602.555 358.387 603.561 358.569 603.835C358.75 604.11 359.294 603.835 359.657 603.835C361.692 603.011 363.663 602.033 365.552 600.908C367.333 599.65 369.029 598.275 370.631 596.792C373.533 594.323 376.345 591.488 376.345 591.488C375.789 592.63 375.153 593.73 374.44 594.78L372.627 597.524C372.627 598.073 371.357 599.628 371.81 600.085C372.354 600.634 373.987 599.445 374.531 598.988C375.437 598.329 376.286 597.595 377.07 596.792C378.884 595.055 381.152 592.494 380.88 593.134C380.608 593.774 380.154 595.146 380.88 595.603C381.605 596.061 382.149 595.603 382.512 594.963C383.295 594.357 383.996 593.649 384.598 592.859C385.051 592.311 385.233 592.859 385.142 593.408C385.052 593.957 385.142 594.872 385.142 595.146C385.142 595.42 386.412 595.146 386.865 594.414C387.565 593.769 388.176 593.03 388.679 592.219C389.103 591.564 389.623 590.978 390.221 590.481C390.126 590.964 390.126 591.462 390.221 591.945C390.221 591.945 390.221 592.585 390.947 592.585C391.672 592.585 392.035 592.585 392.398 591.853C392.994 591.168 393.428 590.354 393.667 589.475C393.667 589.475 393.667 589.475 393.667 589.018C393.869 589.249 394.122 589.427 394.406 589.539C394.691 589.65 394.997 589.691 395.3 589.658C395.989 589.542 396.627 589.218 397.129 588.728C397.631 588.238 397.974 587.605 398.112 586.914C398.184 587.159 398.312 587.384 398.485 587.57C398.658 587.757 398.872 587.9 399.109 587.989C399.347 588.077 399.602 588.109 399.853 588.081C400.105 588.054 400.347 587.967 400.56 587.829C401.083 587.482 401.508 587.006 401.794 586.445C402.08 585.884 402.217 585.258 402.193 584.628C402.193 585.725 403.553 585.634 404.188 585.176C404.521 584.861 404.782 584.478 404.954 584.051C405.126 583.625 405.205 583.167 405.186 582.707C405.821 583.53 406.637 582.707 407 582.707C407.303 582.328 407.511 581.88 407.606 581.402C407.701 580.924 407.68 580.431 407.544 579.963C407.645 580.197 407.809 580.398 408.017 580.544C408.225 580.689 408.47 580.773 408.723 580.786C408.932 580.774 409.136 580.719 409.323 580.624C409.51 580.53 409.676 580.398 409.811 580.237C410.138 579.871 410.367 579.427 410.478 578.947C410.589 578.468 410.578 577.968 410.446 577.493C410.446 577.493 410.99 577.493 411.262 577.493C411.61 577.4 411.924 577.21 412.169 576.944C412.457 576.653 412.619 576.258 412.619 575.847C412.619 575.435 412.457 575.041 412.169 574.749C413.53 574.749 414.074 572.646 412.804 571.914C412.897 571.981 413.008 572.017 413.122 572.017C413.235 572.017 413.347 571.981 413.439 571.914C416.281 576.469 420.015 580.391 424.413 583.439C424.413 587.646 423.96 592.585 423.96 592.585C424.144 593.109 424.432 593.59 424.806 593.999C425.18 594.408 425.633 594.736 426.136 594.963C426.412 595.124 426.725 595.208 427.043 595.208C427.362 595.208 427.674 595.124 427.95 594.963C428.146 595.461 428.466 595.899 428.879 596.236C429.292 596.572 429.784 596.796 430.308 596.884C430.52 596.989 430.753 597.043 430.988 597.043C431.224 597.043 431.457 596.989 431.668 596.884C431.926 597.209 432.26 597.463 432.641 597.623C433.021 597.783 433.435 597.843 433.845 597.799C434.125 597.756 434.389 597.641 434.612 597.465C434.835 597.289 435.008 597.057 435.115 596.792C435.407 596.953 435.735 597.036 436.067 597.036C436.4 597.036 436.727 596.953 437.02 596.792C437.277 596.677 437.502 596.501 437.676 596.277C437.85 596.054 437.967 595.791 438.017 595.512C438.244 595.669 438.513 595.754 438.788 595.754C439.063 595.754 439.332 595.669 439.559 595.512C439.835 595.32 440.055 595.059 440.198 594.753C440.341 594.448 440.403 594.111 440.375 593.774C440.643 593.857 440.931 593.848 441.193 593.749C441.456 593.65 441.679 593.466 441.826 593.225C442.09 592.916 442.271 592.542 442.35 592.142C442.43 591.741 442.405 591.327 442.28 590.939C442.493 590.846 442.685 590.708 442.841 590.534C442.998 590.361 443.115 590.156 443.187 589.933C443.459 589.477 443.602 588.955 443.602 588.423C443.602 587.892 443.459 587.37 443.187 586.914C443.458 586.756 443.685 586.53 443.844 586.257C444.003 585.985 444.089 585.675 444.094 585.359C444.203 584.798 444.186 584.219 444.045 583.666C443.903 583.112 443.641 582.597 443.277 582.158L435.841 577.859C435.199 572.224 433.506 566.762 430.852 561.761C430.899 562.069 431.036 562.356 431.247 562.584C431.457 562.813 431.73 562.972 432.031 563.042C432.575 563.042 433.029 563.042 433.029 562.31C433.029 563.682 435.568 564.231 435.75 562.95C435.911 563.325 436.204 563.626 436.573 563.796C436.941 563.965 437.359 563.989 437.745 563.865L438.652 563.316C438.749 563.05 438.749 562.759 438.652 562.493C439.02 562.815 439.46 563.041 439.934 563.153C440.408 563.264 440.902 563.258 441.373 563.133C441.787 563.03 442.146 562.768 442.371 562.401C442.476 562.172 442.531 561.923 442.531 561.67C442.531 561.417 442.476 561.167 442.371 560.938C442.716 561.268 443.136 561.507 443.595 561.635C444.054 561.763 444.536 561.775 445.001 561.67C445.726 561.67 446.543 561.029 446.089 560.206C446.499 560.408 446.948 560.513 447.404 560.513C447.86 560.513 448.31 560.408 448.719 560.206C449.445 560.206 450.079 558.834 448.719 558.194C449.257 558.507 449.867 558.672 450.488 558.672C451.109 558.672 451.719 558.507 452.256 558.194C453.073 557.554 453.617 556.365 452.256 555.633C452.937 555.775 453.643 555.713 454.289 555.452C454.934 555.192 455.489 554.746 455.884 554.17C456.035 553.905 456.115 553.606 456.115 553.301C456.115 552.996 456.035 552.696 455.884 552.432H456.428C457.296 552.614 458.191 552.614 459.058 552.432C459.693 552.432 460.328 552.432 460.419 551.426C460.484 551.282 460.518 551.126 460.518 550.968C460.518 550.81 460.484 550.654 460.419 550.511L459.149 549.688C459.878 549.389 460.639 549.174 461.416 549.048C462.341 548.921 463.252 548.707 464.137 548.407C464.591 548.407 465.588 547.767 465.498 547.127C465.407 546.486 464.591 546.304 464.046 546.212C463.502 546.121 463.14 545.663 464.046 545.48C465.027 545.283 465.973 544.944 466.858 544.474C466.858 544.474 468.219 543.834 468.128 543.285C468.037 542.736 466.586 542.371 465.86 542.279C467.438 541.53 469.077 540.918 470.758 540.45C471.854 540.087 472.916 539.628 473.932 539.078C474.476 539.078 476.29 537.797 476.018 537.066C476.018 536.425 474.114 537.066 473.388 537.066H470.214C468.947 537.195 467.671 537.195 466.405 537.066C466.405 537.066 470.123 535.694 473.57 534.23C475.602 533.435 477.573 532.488 479.465 531.395C481.298 530.17 483.028 528.793 484.634 527.279C484.634 527.279 485.269 526.639 485.178 526.364C485.088 526.09 484.181 526.364 483.818 526.364C482.425 526.593 481.058 526.96 479.737 527.462C476.834 528.559 468.763 531.395 468.763 531.303C468.763 531.212 482.548 524.077 488.715 519.596C489.776 518.786 490.776 517.9 491.708 516.943C491.708 516.943 492.797 515.937 492.525 515.571C492.253 515.205 490.439 515.571 489.804 516.12C488.108 516.735 486.469 517.501 484.906 518.407C481.913 519.87 479.192 521.333 476.472 522.797L467.402 527.462C467.402 527.462 478.195 520.693 484.09 516.669C486.862 514.456 489.441 512.008 491.799 509.352C492.343 508.803 494.52 506.608 493.885 506.15C493.522 505.693 491.164 507.156 490.348 507.614Z" fill="#3C3C3B"/>
        </g>
        <g opacity="0.2">
            <path d="M367.403 430.405C367.605 429.999 367.171 430.811 367.403 430.405Z" fill="#3C3C3B"/>
        </g>
    </g>
</svg>
