<svg width="323" height="320" viewBox="0 0 323 320" fill="none" xmlns="http://www.w3.org/2000/svg">
    <g clip-path="url(#clip0_111_168)">
        <path fill-rule="evenodd" clip-rule="evenodd" d="M291.029 318.232C283.658 315.386 275.881 313.728 267.99 313.319C237.461 312.69 176.673 317.393 146.144 319.94C111.93 316.105 59.7996 309.065 24.8665 319.311C19.7135 318.861 2.75622 303.882 2.6963 299.238C2.33678 261.189 9.8567 220.504 12.3134 184.522C11.8577 171.532 10.4357 158.593 8.05912 145.814C10.1763 111.36 11.0251 75.9279 10.6057 39.5169C12.1636 35.9217 21.4511 29.6002 24.8066 29.1808C36.5398 27.4878 48.4114 26.9559 60.249 27.5929C68.4432 27.5418 76.6122 26.6787 84.6362 25.0164C121.247 25.0164 185.061 26.005 222.451 28.4917C236.079 28.0773 249.673 26.887 263.166 24.9265C282.191 24.6868 286.445 24.6868 292.107 25.1661C298.022 28.4241 303.381 32.6006 307.986 37.5395C309.154 68.6377 310.383 126.19 314.757 155.761C313.409 187.698 310.293 222.99 310.892 254.388C308.046 270.027 314.278 277.727 312.091 295.793C307.687 304.331 296.721 315.596 291.119 318.232H291.029Z" fill="url(#paint0_radial_111_168)"/>
        <path fill-rule="evenodd" clip-rule="evenodd" d="M297.86 308.915C288.542 308.046 282.401 307.836 273.892 307.387C241.745 306.758 177.541 308.046 145.395 310.712C112.439 308.405 83.2281 307.716 50.3024 307.716C39.4001 307.421 28.4946 308.173 17.7362 309.963C14.7402 309.694 3.56521 302.623 2.7563 299.208C2.33686 256.755 1.76761 208.879 4.52391 168.074C4.04451 154.401 2.55245 140.782 0.0599365 127.329C2.3169 91.0376 3.20571 53.7377 2.72635 15.4292C4.34418 11.6543 14.141 4.9733 17.7062 4.55387C30.0523 2.75091 42.548 2.18887 55.0061 2.87613C63.6238 2.81967 72.2147 1.90639 80.6517 0.149781C119.21 0.149781 186.35 1.22834 225.687 3.80487C240.038 3.39015 254.353 2.13971 268.559 0.0599058C288.572 -0.179772 293.066 -0.179783 299.028 0.329532C305.251 3.7543 310.885 8.15427 315.716 13.362C316.974 46.0781 318.262 106.687 322.846 137.785C321.438 171.4 318.172 208.55 318.802 241.595C315.806 258.043 314.427 276.738 312.121 295.763C307.915 300.658 303.149 305.042 297.92 308.825L297.86 308.915Z" fill="url(#paint1_radial_111_168)"/>
        <path fill-rule="evenodd" clip-rule="evenodd" d="M135.029 0.809012C130.163 4.80386 125.513 9.05413 121.097 13.5419C109.461 17.7372 98.3904 23.3628 88.1416 30.2894C74.1141 35.5257 59.5257 39.115 44.67 40.985C39.7865 43.1122 18.0058 52.0701 2.72634 57.4928C17.3304 53.5907 31.5972 48.5212 45.389 42.3332C57.719 40.3705 69.9083 37.6084 81.8799 34.0643C84.064 33.4021 86.4077 33.4972 88.531 34.334C95.8105 37.5836 102.638 41.7628 108.844 46.7672C112.727 50.829 116.881 54.6226 121.277 58.122C122.241 58.8733 123.004 59.8526 123.495 60.9718C123.987 62.091 124.192 63.315 124.093 64.5334C123.764 68.6678 123.314 73.8808 122.985 79.0339C122.535 85.3854 122.236 91.6469 121.726 95.6016C121.067 100.815 120.468 101.594 115.525 103.451C98.3865 109.369 81.7713 116.704 65.8515 125.382C47.8757 125.621 12.8228 124.992 -0.0599365 127.419C12.8527 127.419 54.0773 127.269 62.526 128.078C63.1463 128.502 63.5848 129.144 63.7543 129.876C64.1738 132.872 40.8051 181.736 29.001 194.589C27.8326 195.847 26.1848 195.577 24.1775 194.409L3.74496 182.185C5.45267 183.953 24.0876 196.057 27.4431 198.064C34.8898 208.02 43.4768 217.069 53.0287 225.028C57.6725 228.982 59.1705 230.151 54.4069 234.016C48.8643 238.599 36.2513 248.726 24.8067 259.032C17.107 265.953 10.1564 273.323 5.63244 278.206C4.37856 279.461 3.36337 280.933 2.63647 282.55C9.86156 274.467 17.5545 266.814 25.6755 259.631C35.1224 251.057 45.2635 243.281 55.9948 236.382C62.2563 232.548 65.7616 231.978 76.9666 235.334C115.332 246.483 153.015 259.857 189.825 275.39C202.079 274.034 214.415 273.574 226.735 274.012C234.375 274.252 236.502 273.862 244.711 282.341C252.92 290.819 259.691 298.789 266.941 307.237H268.23L242.075 277.277C240.487 275.39 238.629 273.413 241.715 271.525C242.554 271.016 243.753 270.447 245.34 269.608C265.024 259.062 298.998 249.145 318.981 241.745C298.549 244.262 253.07 263.706 244.232 267.81C240.212 271.029 235.211 272.774 230.061 272.754L190.514 272.214C148.57 255.916 105.289 241.296 60.6685 228.353C50.7381 221.217 41.6872 212.93 33.7047 203.666C32.3266 202.049 29.2707 197.495 30.7087 195.368C37.1201 186.38 41.7639 176.942 48.6846 165.198C57.4927 150.038 60.0992 141.23 71.2143 125.112H71.0046C88.0639 116.477 105.824 109.301 124.093 103.661C157.501 109.295 191.3 112.3 225.177 112.649C244.523 121.813 264.558 129.446 285.097 135.478C288.782 136.527 289.741 137.126 291.089 140.781C293.006 146.533 294.714 158.577 295.972 163.341C304.96 174.486 313.649 192.941 319.251 209.299C317.274 196.746 304.631 172.239 298.279 162.022C297.47 158.787 292.587 142.039 292.737 139.942C292.946 137.366 294.205 137.785 296.152 137.695C302.144 137.485 317.993 137.695 323.116 137.695C313.619 136.766 295.163 136.527 290.789 135.478C270.513 129.762 250.677 122.582 231.439 113.997C227.155 112.079 225.926 111.001 231.799 108.694C248.581 101.765 264.721 93.374 280.034 83.6177C289.022 72.2031 313.229 54.7964 317.154 54.9462V51.7705C303.133 60.1765 290.374 70.5255 279.255 82.5092C262.981 92.6805 245.954 101.594 228.323 109.173C225.259 110.676 221.878 111.416 218.466 111.33C188.507 110.611 151.656 107.825 130.295 102.073C128.316 101.597 126.585 100.401 125.441 98.7174C124.68 97.062 124.272 95.2663 124.243 93.4445C123.833 88.6697 123.833 83.8686 124.243 79.0938C124.752 73.1018 125.172 67.3796 126.19 61.3876C125.452 59.022 124.99 56.5791 124.812 54.1074C123.943 43.4717 122.595 31.2181 122.565 20.3128C122.186 18.0454 122.69 15.7188 123.973 13.8115C126.969 8.83821 133.92 2.75639 135.118 0.809012H135.029ZM291.239 0.0300293C296.032 6.02198 301.035 11.5945 306.219 17.1071C309.394 19.0245 312.57 20.942 315.866 22.7096V21.2415C312.786 19.7943 309.786 18.1842 306.878 16.418C301.784 11.1451 297.051 5.66249 292.587 0.0600183L291.239 0.0300293ZM116.663 18.635C107.752 21.5608 99.2149 25.5227 91.2274 30.4392C90.6582 31.4578 90.4784 32.057 90.6282 32.5364C90.9578 33.525 107.735 44.3405 109.862 45.7786C112.989 50.2764 117.019 54.0724 121.696 56.9236C124.003 58.4815 123.824 57.7026 123.674 55.3058C123.524 52.909 122.475 43.1122 121.906 34.1842C121.607 29.2708 121.457 24.4173 121.397 21.3913C121.397 19.0245 120.977 17.4666 116.663 18.635Z" fill="url(#paint2_radial_111_168)"/>
        <path fill-rule="evenodd" clip-rule="evenodd" d="M121.097 13.5419C125.513 9.05411 130.163 4.80384 135.029 0.808989C114.776 0.449472 95.5416 0.299666 80.5917 0.239746C72.1546 1.99635 63.5639 2.90964 54.9461 2.96609C42.488 2.27883 29.9924 2.84088 17.6463 4.64383C14.081 5.06327 4.28421 11.7443 2.66638 15.5192C2.84614 29.6602 2.84614 43.6414 2.66638 57.4629C5.21296 56.5641 7.9393 55.5754 10.7256 54.4669C24.7767 49.194 40.6853 42.6627 44.67 40.8951C59.5257 39.025 74.114 35.4358 88.1416 30.1995C90.8679 28.3719 93.5942 26.6642 96.3805 25.0464C104.241 20.421 112.516 16.5394 121.097 13.452V13.5419Z" fill="url(#paint3_radial_111_168)"/>
        <path fill-rule="evenodd" clip-rule="evenodd" d="M108.784 46.7672C102.578 41.7627 95.7507 37.5835 88.4711 34.3339C86.3478 33.4971 84.0041 33.4021 81.8201 34.0643C69.8484 37.6084 57.6591 40.3705 45.3291 42.3332C34.1177 47.4332 22.5532 51.7186 10.7256 55.1559C8.05918 55.9349 5.36279 56.7438 2.66642 57.4928C2.3069 81.2209 1.41809 104.53 0 127.419C3.02497 126.906 6.07527 126.556 9.13773 126.37C25.1962 125.202 51.0813 125.561 65.7916 125.382C81.7113 116.704 98.3266 109.369 115.465 103.451C120.408 101.713 121.007 100.815 121.666 95.6016C122.176 91.6469 122.475 85.3853 122.925 79.0339C123.254 73.8808 123.704 68.6678 124.033 64.5334C124.132 63.315 123.927 62.091 123.435 60.9718C122.944 59.8526 122.181 58.8732 121.217 58.1219C116.821 54.6225 112.667 50.8289 108.784 46.7672Z" fill="url(#paint4_radial_111_168)"/>
        <path fill-rule="evenodd" clip-rule="evenodd" d="M90.6282 32.4465C90.9577 33.4351 107.735 44.2506 109.862 45.6887C112.989 50.1865 117.019 53.9825 121.696 56.8337C124.003 58.3916 123.824 57.6127 123.674 55.2159C123.524 52.8191 122.475 43.0223 121.906 34.0943C121.726 31.0983 121.577 28.1023 121.487 25.376C121.487 23.8181 121.487 22.38 121.487 21.3014C121.487 18.9346 121.067 17.3767 116.753 18.5452C111.238 20.3359 105.869 22.5495 100.695 25.1662C97.4889 26.7841 94.3432 28.5218 91.3173 30.3493C90.748 31.3679 90.5683 31.9671 90.718 32.4465H90.6282Z" fill="url(#paint5_radial_111_168)"/>
        <path fill-rule="evenodd" clip-rule="evenodd" d="M122.565 25.376C122.895 34.9032 123.973 45.0895 124.722 54.1074C124.9 56.5791 125.362 59.022 126.101 61.3876C125.082 67.3796 124.663 73.0419 124.153 79.0938C123.743 83.8686 123.743 88.6697 124.153 93.4445C124.182 95.2663 124.59 97.062 125.352 98.7174C126.496 100.401 128.226 101.597 130.205 102.073C151.566 107.825 188.387 110.611 218.377 111.331C221.788 111.416 225.169 110.676 228.233 109.173C245.864 101.594 262.891 92.6805 279.165 82.5092C287.927 72.8815 297.85 64.3779 308.705 57.1932C312.091 54.8863 314.967 53.1187 317.064 51.7705C316.674 41.3146 316.345 31.3979 316.045 22.7096C312.75 20.942 309.574 19.0245 306.398 17.1071C301.095 11.5945 296.092 5.87218 291.418 0.0300293C286.924 0.0300293 280.513 0.0300293 268.679 0.0300293C254.473 2.10983 240.158 3.36027 225.807 3.775C201.839 2.18713 167.205 1.22842 135.208 0.779023C134.01 2.72641 127.149 8.80827 124.063 13.7816C122.78 15.6888 122.276 18.0154 122.655 20.2828C122.655 21.9306 122.655 23.6383 122.655 25.346L122.565 25.376Z" fill="url(#paint6_radial_111_168)"/>
        <path fill-rule="evenodd" clip-rule="evenodd" d="M279.974 83.6175C264.661 93.3738 248.521 101.765 231.739 108.694C225.747 111.061 227.095 112.079 231.379 113.997C250.525 122.631 270.27 129.87 290.46 135.658C293.456 136.407 303.612 136.736 312.63 137.186C316.405 137.395 319.97 137.605 322.786 137.875C319.79 117.502 318.202 84.4864 317.094 54.946C314.051 55.7854 311.202 57.2101 308.705 59.1404C299.717 64.9526 286.116 75.7082 279.974 83.6175Z" fill="url(#paint7_radial_111_168)"/>
        <path fill-rule="evenodd" clip-rule="evenodd" d="M295.912 137.965C293.965 137.965 292.707 137.635 292.497 140.212C292.347 142.309 297.231 159.056 298.04 162.292C303.629 171.439 308.584 180.958 312.87 190.784C315.663 196.787 317.764 203.089 319.131 209.568C319.97 185.601 321.828 160.944 322.786 137.875H312.69C306.518 137.875 299.478 137.875 295.912 137.875V137.965Z" fill="url(#paint8_radial_111_168)"/>
        <path fill-rule="evenodd" clip-rule="evenodd" d="M290.969 141.051C289.741 137.395 288.782 136.796 284.977 135.748C264.438 129.716 244.403 122.082 225.058 112.918C191.18 112.57 157.381 109.565 123.973 103.93C105.704 109.57 87.9441 116.746 70.8848 125.382H71.0945C59.9795 141.38 57.3729 150.308 48.5648 165.468C41.734 177.212 37.0902 186.44 30.5889 195.637C29.1209 197.764 32.1768 202.318 33.5849 203.936C41.5674 213.2 50.6183 221.487 60.5487 228.623C105.189 241.466 148.401 256.036 190.184 272.334L229.731 272.873C234.881 272.894 239.882 271.149 243.902 267.93C251.632 264.275 288.243 248.636 310.712 243.363C313.331 242.725 315.981 242.225 318.652 241.865C318.442 231.499 318.652 220.713 319.041 209.748C317.214 204.415 315.027 198.843 312.63 193.36C308.258 182.841 302.592 172.908 295.763 163.79C294.504 159.026 292.767 146.983 290.879 141.23L290.969 141.051Z" fill="url(#paint9_radial_111_168)"/>
        <path fill-rule="evenodd" clip-rule="evenodd" d="M29.0609 194.589C40.865 181.736 64.2336 132.901 63.8142 129.876C63.6446 129.143 63.2063 128.502 62.5859 128.078C55.6353 127.419 26.3645 127.359 9.07777 127.389H0.0898438C2.58236 140.842 4.07446 154.461 4.55386 168.134C4.21432 172.708 3.94467 177.382 3.74494 182.155L12.2235 187.188L24.2074 194.379C26.2147 195.547 27.8625 195.817 29.031 194.559L29.0609 194.589Z" fill="url(#paint10_radial_111_168)"/>
        <path fill-rule="evenodd" clip-rule="evenodd" d="M52.9389 225.028C43.387 217.069 34.8 208.02 27.3533 198.064C25.376 196.895 18.0658 192.072 12.0738 188.177C9.15914 186.337 6.34862 184.336 3.65513 182.185C2.09722 214.212 2.24704 249.505 2.54663 282.61C3.27353 280.992 4.28872 279.52 5.54261 278.266C6.92076 276.768 8.53855 275.03 10.3361 273.173C14.4107 268.919 19.3241 263.915 24.7168 259.092C36.1614 248.786 48.6846 238.659 54.3171 234.075C59.0807 230.151 57.5827 228.982 52.9389 225.087V225.028Z" fill="url(#paint11_radial_111_168)"/>
        <path fill-rule="evenodd" clip-rule="evenodd" d="M76.8767 235.394C65.6718 232.038 62.1665 232.607 55.9049 236.442C45.1737 243.341 35.0325 251.117 25.5856 259.691C20.103 264.604 14.8601 269.578 10.3361 274.191C7.34016 277.187 4.73369 280.034 2.54663 282.61C2.54663 288.243 2.54659 293.815 2.69639 299.298C3.14579 301.245 6.89076 304.331 10.6058 306.698C12.7488 308.22 15.1417 309.356 17.6763 310.053C28.4347 308.263 39.3402 307.511 50.2425 307.806C83.1983 307.597 112.409 308.405 145.335 310.802C175.295 308.316 232.907 307.027 266.702 307.387C259.421 298.938 252.171 290.549 244.472 282.49C236.772 274.431 234.285 274.401 226.496 274.162C214.175 273.723 201.839 274.184 189.585 275.54C152.776 260.007 115.092 246.632 76.7269 235.483L76.8767 235.394Z" fill="url(#paint12_radial_111_168)"/>
        <path fill-rule="evenodd" clip-rule="evenodd" d="M241.476 271.465C238.48 273.353 240.247 275.33 241.835 277.217L267.99 307.177H273.832C282.4 307.627 288.542 307.836 297.8 308.705C300.261 307.04 302.613 305.219 304.84 303.252C307.39 300.919 309.801 298.438 312.061 295.822C314.368 276.798 315.746 258.103 318.742 241.655L310.802 244.651C290.639 251.632 262.357 260.41 245.101 269.668C243.513 270.506 242.314 271.076 241.476 271.585V271.465Z" fill="url(#paint13_radial_111_168)"/>
        <path style="mix-blend-mode:multiply" fill-rule="evenodd" clip-rule="evenodd" d="M61.2077 306.518C145.694 304.331 216.07 303.013 292.467 306.848C294.295 307.208 296.191 306.889 297.8 305.949C299.058 304.75 298.968 302.473 298.998 300.736C298.998 294.954 299.418 288.362 299.178 283.749L282.371 282.281L298.998 278.326C297.44 246.828 296.372 215.171 295.793 183.354L286.805 180.358L295.793 177.362C295.103 132.092 298.399 89.7892 299.987 44.6399C295.791 34.2267 290.509 24.285 284.228 14.9798C283.733 14.096 283.005 13.3657 282.122 12.8689C281.239 12.3721 280.237 12.128 279.225 12.1635C245.46 15.1595 84.9658 18.515 24.1176 15.4891C22.5285 15.4891 21.0044 16.1204 19.8807 17.2441C18.757 18.3678 18.1257 19.8919 18.1257 21.481C17.8261 34.7832 19.2641 43.4116 19.7435 56.0546L26.2747 60.219L23.2788 64.0838L23.818 67.0798L20.103 69.6563C21.5211 116.773 21.3813 163.71 19.6836 210.467L24.6269 213.044L22.1403 217.568L29.1508 221.133L19.1742 223.649C18.3653 242.374 15.4892 261.279 15.3694 279.494C25.4359 290.1 45.5987 301.365 61.3875 306.458L61.2077 306.518Z" fill="url(#paint14_radial_111_168)"/>
        <path fill-rule="evenodd" clip-rule="evenodd" d="M61.4773 298.279C74.0305 301.275 256.815 299.807 305.17 296.452C304.79 290.28 304.431 284.098 304.091 277.907L286.775 276.469L303.822 272.724C302.224 242.764 301.135 212.574 300.556 182.155L291.299 179.159L300.286 176.163C299.567 132.991 299.957 89.6695 301.575 46.5874C294.225 36.3412 286.894 26.075 279.584 15.7888C276.588 14.5005 61.9567 16.9572 12.4333 18.7848C13.2721 32.766 13.9612 46.6773 14.5005 60.5187L21.2115 64.4734L18.2155 68.1584L18.7548 71.0046L14.9799 73.4613C16.4179 118.401 16.2681 163.171 14.5305 207.771L19.5936 210.228L17.077 214.572L24.2075 217.957L14.0211 220.384C13.1823 238.859 12.0638 257.324 10.6656 275.779L26 289.5L37.5 298.279H61.4773Z" fill="url(#paint15_linear_111_168)"/>
        <g clip-path="url(#clip1_111_168)">
            <path d="M157.13 238.349C163.256 234.394 163.537 238.81 163.742 252.8L164.088 287.36H275.571C278.969 287.36 282.229 286.012 284.632 283.611C287.035 281.211 288.385 277.955 288.385 274.56V158.08L256.35 158.426C242.344 158.566 237.923 158.912 241.883 165.03C244.193 168.8 245.425 173.129 245.445 177.549C245.531 180.082 245.11 182.606 244.205 184.974C243.3 187.342 241.93 189.505 240.176 191.336C238.422 193.167 236.319 194.63 233.991 195.637C231.663 196.644 229.156 197.177 226.619 197.202C224.082 197.228 221.566 196.746 219.218 195.786C216.87 194.826 214.738 193.406 212.947 191.611C211.156 189.816 209.743 187.681 208.79 185.332C207.838 182.983 207.365 180.467 207.4 177.933C207.323 173.515 208.467 169.161 210.706 165.35C214.55 159.155 210.117 158.95 196.098 159.04L162.781 159.386L163.102 190.221V192.64C163.243 206.643 162.986 211.046 156.784 207.232C152.969 204.996 148.611 203.853 144.188 203.93C141.651 203.895 139.133 204.367 136.781 205.318C134.43 206.27 132.292 207.682 130.495 209.47C128.698 211.259 127.277 213.389 126.315 215.734C125.354 218.08 124.872 220.594 124.898 223.128C124.923 225.662 125.456 228.166 126.465 230.491C127.473 232.817 128.937 234.918 130.77 236.67C132.603 238.422 134.769 239.79 137.139 240.694C139.51 241.598 142.037 242.019 144.573 241.933C149.009 241.918 153.356 240.678 157.13 238.349Z" fill="white"/>
            <path d="M157.13 238.349C163.256 234.394 163.537 238.81 163.742 252.8L164.088 287.36H275.571C278.969 287.36 282.229 286.012 284.632 283.611C287.035 281.211 288.385 277.955 288.385 274.56V158.08L256.35 158.426C242.344 158.566 237.923 158.912 241.883 165.03C244.193 168.8 245.425 173.129 245.445 177.549C245.531 180.082 245.11 182.606 244.205 184.974C243.3 187.342 241.93 189.505 240.176 191.336C238.422 193.167 236.319 194.63 233.991 195.637C231.663 196.644 229.156 197.177 226.619 197.202C224.082 197.228 221.566 196.746 219.218 195.786C216.87 194.826 214.738 193.406 212.947 191.611C211.156 189.816 209.743 187.681 208.79 185.332C207.838 182.983 207.365 180.467 207.4 177.933C207.323 173.515 208.467 169.161 210.706 165.35C214.55 159.155 210.117 158.95 196.098 159.04L162.781 159.386L163.102 190.221V192.64C163.243 206.643 162.986 211.046 156.784 207.232C152.969 204.996 148.611 203.853 144.188 203.93C141.651 203.895 139.133 204.367 136.781 205.318C134.43 206.27 132.292 207.682 130.495 209.47C128.698 211.259 127.277 213.389 126.315 215.734C125.354 218.08 124.872 220.594 124.898 223.128C124.923 225.662 125.456 228.166 126.465 230.491C127.473 232.817 128.937 234.918 130.77 236.67C132.603 238.422 134.769 239.79 137.139 240.694C139.51 241.598 142.037 242.019 144.573 241.933C149.009 241.918 153.356 240.678 157.13 238.349Z" fill="url(#paint16_linear_111_168)"/>
            <path d="M157.13 238.349C163.256 234.394 163.537 238.81 163.742 252.8L164.088 287.36H275.571C278.969 287.36 282.229 286.012 284.632 283.611C287.035 281.211 288.385 277.955 288.385 274.56V158.08L256.35 158.426C242.344 158.566 237.923 158.912 241.883 165.03C244.193 168.8 245.425 173.129 245.445 177.549C245.531 180.082 245.11 182.606 244.205 184.974C243.3 187.342 241.93 189.505 240.176 191.336C238.422 193.167 236.319 194.63 233.991 195.637C231.663 196.644 229.156 197.177 226.619 197.202C224.082 197.228 221.566 196.746 219.218 195.786C216.87 194.826 214.738 193.406 212.947 191.611C211.156 189.816 209.743 187.681 208.79 185.332C207.838 182.983 207.365 180.467 207.4 177.933C207.323 173.515 208.467 169.161 210.706 165.35C214.55 159.155 210.117 158.95 196.098 159.04L162.781 159.386L163.102 190.221V192.64C163.243 206.643 162.986 211.046 156.784 207.232C152.969 204.996 148.611 203.853 144.188 203.93C141.651 203.895 139.133 204.367 136.781 205.318C134.43 206.27 132.292 207.682 130.495 209.47C128.698 211.259 127.277 213.389 126.315 215.734C125.354 218.08 124.872 220.594 124.898 223.128C124.923 225.662 125.456 228.166 126.465 230.491C127.473 232.817 128.937 234.918 130.77 236.67C132.603 238.422 134.769 239.79 137.139 240.694C139.51 241.598 142.037 242.019 144.573 241.933C149.009 241.918 153.356 240.678 157.13 238.349Z" stroke="#666666" stroke-miterlimit="10"/>
            <path d="M69.2387 160.32C83.2445 160.179 87.6653 159.833 83.7058 153.715C81.3896 149.953 80.157 145.626 80.1435 141.209C80.0563 138.677 80.4768 136.153 81.3805 133.785C82.2841 131.417 83.6525 129.254 85.4053 127.422C87.158 125.59 89.2598 124.127 91.5869 123.119C93.914 122.11 96.4195 121.576 98.956 121.549C101.493 121.522 104.009 122.001 106.357 122.96C108.706 123.918 110.838 125.336 112.63 127.129C114.422 128.923 115.837 131.056 116.792 133.404C117.746 135.752 118.221 138.266 118.188 140.8C118.265 145.218 117.121 149.571 114.882 153.382C111.038 159.577 115.472 159.782 129.49 159.693L162.807 159.347L162.461 126.067C162.32 112.064 162.576 107.661 168.778 111.475C172.593 113.711 176.952 114.854 181.375 114.777C183.912 114.812 186.43 114.34 188.781 113.389C191.133 112.437 193.27 111.026 195.068 109.237C196.865 107.448 198.286 105.318 199.248 102.973C200.209 100.627 200.691 98.1135 200.665 95.5792C200.639 93.045 200.107 90.5414 199.098 88.2158C198.09 85.8902 196.626 83.7896 194.793 82.0375C192.959 80.2853 190.794 78.9171 188.424 78.0132C186.053 77.1094 183.526 76.6881 180.99 76.7743C176.565 76.7861 172.228 78.0175 168.458 80.3327C162.333 84.2879 162.051 79.8847 161.846 65.8815V63.4495L161.5 32.6399H47.4548C44.0563 32.6399 40.797 33.9885 38.3939 36.3889C35.9908 38.7894 34.6407 42.0451 34.6407 45.4399V160.64L69.2387 160.32Z" fill="white"/>
            <path d="M69.2387 160.32C83.2445 160.179 87.6653 159.833 83.7058 153.715C81.3896 149.953 80.157 145.626 80.1435 141.209C80.0563 138.677 80.4768 136.153 81.3805 133.785C82.2841 131.417 83.6525 129.254 85.4053 127.422C87.158 125.59 89.2598 124.127 91.5869 123.119C93.914 122.11 96.4195 121.576 98.956 121.549C101.493 121.522 104.009 122.001 106.357 122.96C108.706 123.918 110.838 125.336 112.63 127.129C114.422 128.923 115.837 131.056 116.792 133.404C117.746 135.752 118.221 138.266 118.188 140.8C118.265 145.218 117.121 149.571 114.882 153.382C111.038 159.577 115.472 159.782 129.49 159.693L162.807 159.347L162.461 126.067C162.32 112.064 162.576 107.661 168.778 111.475C172.593 113.711 176.952 114.854 181.375 114.777C183.912 114.812 186.43 114.34 188.781 113.389C191.133 112.437 193.27 111.026 195.068 109.237C196.865 107.448 198.286 105.318 199.248 102.973C200.209 100.627 200.691 98.1135 200.665 95.5792C200.639 93.045 200.107 90.5414 199.098 88.2158C198.09 85.8902 196.626 83.7896 194.793 82.0375C192.959 80.2853 190.794 78.9171 188.424 78.0132C186.053 77.1094 183.526 76.6881 180.99 76.7743C176.565 76.7861 172.228 78.0175 168.458 80.3327C162.333 84.2879 162.051 79.8847 161.846 65.8815V63.4495L161.5 32.6399H47.4548C44.0563 32.6399 40.797 33.9885 38.3939 36.3889C35.9908 38.7894 34.6407 42.0451 34.6407 45.4399V160.64L69.2387 160.32Z" fill="url(#paint17_linear_111_168)"/>
            <path d="M69.2387 160.32C83.2445 160.179 87.6653 159.833 83.7058 153.715C81.3896 149.953 80.157 145.626 80.1435 141.209C80.0563 138.677 80.4768 136.153 81.3805 133.785C82.2841 131.417 83.6525 129.254 85.4053 127.422C87.158 125.59 89.2598 124.127 91.5869 123.119C93.914 122.11 96.4195 121.576 98.956 121.549C101.493 121.522 104.009 122.001 106.357 122.96C108.706 123.918 110.838 125.336 112.63 127.129C114.422 128.923 115.837 131.056 116.792 133.404C117.746 135.752 118.221 138.266 118.188 140.8C118.265 145.218 117.121 149.571 114.882 153.382C111.038 159.577 115.472 159.782 129.49 159.693L162.807 159.347L162.461 126.067C162.32 112.064 162.576 107.661 168.778 111.475C172.593 113.711 176.952 114.854 181.375 114.777C183.912 114.812 186.43 114.34 188.781 113.389C191.133 112.437 193.27 111.026 195.068 109.237C196.865 107.448 198.286 105.318 199.248 102.973C200.209 100.627 200.691 98.1135 200.665 95.5792C200.639 93.045 200.107 90.5414 199.098 88.2158C198.09 85.8902 196.626 83.7896 194.793 82.0375C192.959 80.2853 190.794 78.9171 188.424 78.0132C186.053 77.1094 183.526 76.6881 180.99 76.7743C176.565 76.7861 172.228 78.0175 168.458 80.3327C162.333 84.2879 162.051 79.8847 161.846 65.8815V63.4495L161.5 32.6399H47.4548C44.0563 32.6399 40.797 33.9885 38.3939 36.3889C35.9908 38.7894 34.6407 42.0451 34.6407 45.4399V160.64L69.2387 160.32Z" stroke="#666666" stroke-miterlimit="10"/>
            <path d="M83.7058 153.715C87.6653 159.834 83.2445 160.115 69.2387 160.32L34.6407 160.666V274.586C34.6407 277.98 35.9908 281.236 38.3939 283.637C40.797 286.037 44.0563 287.386 47.4548 287.386H164.063L163.717 252.826C163.576 238.835 163.23 234.419 157.105 238.374C153.335 240.69 148.998 241.921 144.573 241.933C142.037 242.019 139.51 241.598 137.139 240.694C134.769 239.79 132.603 238.422 130.77 236.67C128.937 234.917 127.473 232.817 126.465 230.491C125.456 228.166 124.923 225.662 124.898 223.128C124.872 220.594 125.354 218.08 126.315 215.734C127.277 213.389 128.698 211.259 130.495 209.47C132.292 207.681 134.43 206.27 136.781 205.318C139.133 204.367 141.651 203.895 144.188 203.93C148.611 203.853 152.969 204.996 156.784 207.232C162.986 211.072 163.191 206.643 163.102 192.64L162.756 159.36L131.9 159.68H129.465C115.446 159.821 111.025 159.565 114.857 153.37C117.102 149.565 118.255 145.216 118.188 140.8C118.222 138.266 117.748 135.751 116.795 133.403C115.841 131.054 114.427 128.92 112.636 127.125C110.845 125.331 108.712 123.912 106.364 122.953C104.016 121.994 101.499 121.513 98.9626 121.54C96.4258 121.566 93.9198 122.099 91.5922 123.107C89.2646 124.115 87.1622 125.578 85.4088 127.409C83.6554 129.241 82.2863 131.404 81.3821 133.772C80.4779 136.14 80.0567 138.664 80.1435 141.197C80.1547 145.618 81.3874 149.949 83.7058 153.715Z" fill="white"/>
            <path d="M83.7058 153.715C87.6653 159.834 83.2445 160.115 69.2387 160.32L34.6407 160.666V274.586C34.6407 277.98 35.9908 281.236 38.3939 283.637C40.797 286.037 44.0563 287.386 47.4548 287.386H164.063L163.717 252.826C163.576 238.835 163.23 234.419 157.105 238.374C153.335 240.69 148.998 241.921 144.573 241.933C142.037 242.019 139.51 241.598 137.139 240.694C134.769 239.79 132.603 238.422 130.77 236.67C128.937 234.917 127.473 232.817 126.465 230.491C125.456 228.166 124.923 225.662 124.898 223.128C124.872 220.594 125.354 218.08 126.315 215.734C127.277 213.389 128.698 211.259 130.495 209.47C132.292 207.681 134.43 206.27 136.781 205.318C139.133 204.367 141.651 203.895 144.188 203.93C148.611 203.853 152.969 204.996 156.784 207.232C162.986 211.072 163.191 206.643 163.102 192.64L162.756 159.36L131.9 159.68H129.465C115.446 159.821 111.025 159.565 114.857 153.37C117.102 149.565 118.255 145.216 118.188 140.8C118.222 138.266 117.748 135.751 116.795 133.403C115.841 131.054 114.427 128.92 112.636 127.125C110.845 125.331 108.712 123.912 106.364 122.953C104.016 121.994 101.499 121.513 98.9626 121.54C96.4258 121.566 93.9198 122.099 91.5922 123.107C89.2646 124.115 87.1622 125.578 85.4088 127.409C83.6554 129.241 82.2863 131.404 81.3821 133.772C80.4779 136.14 80.0567 138.664 80.1435 141.197C80.1547 145.618 81.3874 149.949 83.7058 153.715Z" fill="url(#paint18_linear_111_168)"/>
            <path d="M83.7058 153.715C87.6653 159.834 83.2445 160.115 69.2387 160.32L34.6407 160.666V274.586C34.6407 277.98 35.9908 281.236 38.3939 283.637C40.797 286.037 44.0563 287.386 47.4548 287.386H164.063L163.717 252.826C163.576 238.835 163.23 234.419 157.105 238.374C153.335 240.69 148.998 241.921 144.573 241.933C142.037 242.019 139.51 241.598 137.139 240.694C134.769 239.79 132.603 238.422 130.77 236.67C128.937 234.917 127.473 232.817 126.465 230.491C125.456 228.166 124.923 225.662 124.898 223.128C124.872 220.594 125.354 218.08 126.315 215.734C127.277 213.389 128.698 211.259 130.495 209.47C132.292 207.681 134.43 206.27 136.781 205.318C139.133 204.367 141.651 203.895 144.188 203.93C148.611 203.853 152.969 204.996 156.784 207.232C162.986 211.072 163.191 206.643 163.102 192.64L162.756 159.36L131.9 159.68H129.465C115.446 159.821 111.025 159.565 114.857 153.37C117.102 149.565 118.255 145.216 118.188 140.8C118.222 138.266 117.748 135.751 116.795 133.403C115.841 131.054 114.427 128.92 112.636 127.125C110.845 125.331 108.712 123.912 106.364 122.953C104.016 121.994 101.499 121.513 98.9626 121.54C96.4258 121.566 93.9198 122.099 91.5922 123.107C89.2646 124.115 87.1622 125.578 85.4088 127.409C83.6554 129.241 82.2863 131.404 81.3821 133.772C80.4779 136.14 80.0567 138.664 80.1435 141.197C80.1547 145.618 81.3874 149.949 83.7058 153.715Z" stroke="#666666" stroke-miterlimit="10"/>
            <path d="M161.82 65.92C161.961 79.9232 162.307 84.3264 168.432 80.3712C172.201 78.0515 176.538 76.8157 180.965 76.8C183.5 76.7139 186.028 77.1351 188.398 78.039C190.768 78.9428 192.934 80.3111 194.767 82.0632C196.6 83.8153 198.064 85.916 199.073 88.2416C200.081 90.5671 200.614 93.0707 200.64 95.605C200.665 98.1393 200.183 100.653 199.222 102.999C198.261 105.344 196.84 107.474 195.042 109.263C193.245 111.051 191.107 112.463 188.756 113.415C186.404 114.366 183.886 114.838 181.349 114.803C176.926 114.88 172.568 113.737 168.753 111.501C162.551 107.661 162.346 112.09 162.435 126.093L162.781 159.373L196.098 159.027C210.117 158.886 214.525 159.142 210.706 165.338C208.458 169.146 207.306 173.5 207.374 177.92C207.339 180.454 207.812 182.97 208.765 185.319C209.717 187.668 211.13 189.803 212.921 191.598C214.712 193.394 216.844 194.813 219.192 195.773C221.54 196.733 224.057 197.215 226.594 197.189C229.131 197.164 231.637 196.632 233.965 195.624C236.293 194.617 238.396 193.154 240.15 191.323C241.904 189.492 243.274 187.329 244.179 184.961C245.084 182.594 245.506 180.069 245.419 177.536C245.4 173.116 244.168 168.787 241.857 165.018C237.898 158.899 242.318 158.618 256.324 158.413H258.759L288.359 158.093V45.4528C288.359 42.0581 287.009 38.8023 284.606 36.4019C282.203 34.0014 278.944 32.6528 275.545 32.6528H161.5L161.82 65.92Z" fill="white"/>
            <path d="M161.82 65.92C161.961 79.9232 162.307 84.3264 168.432 80.3712C172.201 78.0515 176.538 76.8157 180.965 76.8C183.5 76.7139 186.028 77.1351 188.398 78.039C190.768 78.9428 192.934 80.3111 194.767 82.0632C196.6 83.8153 198.064 85.916 199.073 88.2416C200.081 90.5671 200.614 93.0707 200.64 95.605C200.665 98.1393 200.183 100.653 199.222 102.999C198.261 105.344 196.84 107.474 195.042 109.263C193.245 111.051 191.107 112.463 188.756 113.415C186.404 114.366 183.886 114.838 181.349 114.803C176.926 114.88 172.568 113.737 168.753 111.501C162.551 107.661 162.346 112.09 162.435 126.093L162.781 159.373L196.098 159.027C210.117 158.886 214.525 159.142 210.706 165.338C208.458 169.146 207.306 173.5 207.374 177.92C207.339 180.454 207.812 182.97 208.765 185.319C209.717 187.668 211.13 189.803 212.921 191.598C214.712 193.394 216.844 194.813 219.192 195.773C221.54 196.733 224.057 197.215 226.594 197.189C229.131 197.164 231.637 196.632 233.965 195.624C236.293 194.617 238.396 193.154 240.15 191.323C241.904 189.492 243.274 187.329 244.179 184.961C245.084 182.594 245.506 180.069 245.419 177.536C245.4 173.116 244.168 168.787 241.857 165.018C237.898 158.899 242.318 158.618 256.324 158.413H258.759L288.359 158.093V45.4528C288.359 42.0581 287.009 38.8023 284.606 36.4019C282.203 34.0014 278.944 32.6528 275.545 32.6528H161.5L161.82 65.92Z" fill="url(#paint19_linear_111_168)"/>
            <path d="M161.82 65.92C161.961 79.9232 162.307 84.3264 168.432 80.3712C172.201 78.0515 176.538 76.8157 180.965 76.8C183.5 76.7139 186.028 77.1351 188.398 78.039C190.768 78.9428 192.934 80.3111 194.767 82.0632C196.6 83.8153 198.064 85.916 199.073 88.2416C200.081 90.5671 200.614 93.0707 200.64 95.605C200.665 98.1393 200.183 100.653 199.222 102.999C198.261 105.344 196.84 107.474 195.042 109.263C193.245 111.051 191.107 112.463 188.756 113.415C186.404 114.366 183.886 114.838 181.349 114.803C176.926 114.88 172.568 113.737 168.753 111.501C162.551 107.661 162.346 112.09 162.435 126.093L162.781 159.373L196.098 159.027C210.117 158.886 214.525 159.142 210.706 165.338C208.458 169.146 207.306 173.5 207.374 177.92C207.339 180.454 207.812 182.97 208.765 185.319C209.717 187.668 211.13 189.803 212.921 191.598C214.712 193.394 216.844 194.813 219.192 195.773C221.54 196.733 224.057 197.215 226.594 197.189C229.131 197.164 231.637 196.632 233.965 195.624C236.293 194.617 238.396 193.154 240.15 191.323C241.904 189.492 243.274 187.329 244.179 184.961C245.084 182.594 245.506 180.069 245.419 177.536C245.4 173.116 244.168 168.787 241.857 165.018C237.898 158.899 242.318 158.618 256.324 158.413H258.759L288.359 158.093V45.4528C288.359 42.0581 287.009 38.8023 284.606 36.4019C282.203 34.0014 278.944 32.6528 275.545 32.6528H161.5L161.82 65.92Z" stroke="#666666" stroke-miterlimit="10"/>
        </g>
    </g>
    <defs>
        <radialGradient id="paint0_radial_111_168" cx="0" cy="0" r="1" gradientUnits="userSpaceOnUse" gradientTransform="translate(161.237 87.812) scale(292.143 286.415)">
            <stop stop-color="#9DA9AB"/>
            <stop offset="1" stop-color="#555763"/>
        </radialGradient>
        <radialGradient id="paint1_radial_111_168" cx="0" cy="0" r="1" gradientUnits="userSpaceOnUse" gradientTransform="translate(250.591 -66.8102) scale(159.793 156.659)">
            <stop stop-color="#717485"/>
            <stop offset="1" stop-color="#9DA9AB"/>
        </radialGradient>
        <radialGradient id="paint2_radial_111_168" cx="0" cy="0" r="1" gradientUnits="userSpaceOnUse" gradientTransform="translate(-299.195 -425.728) scale(1039.92 1019.53)">
            <stop stop-color="#E2F1F7"/>
            <stop offset="1" stop-color="#9A9DB5"/>
        </radialGradient>
        <radialGradient id="paint3_radial_111_168" cx="0" cy="0" r="1" gradientUnits="userSpaceOnUse" gradientTransform="translate(85.6645 81.3708) scale(143.505 140.691)">
            <stop stop-color="#AAB4B8"/>
            <stop offset="1" stop-color="#828599"/>
        </radialGradient>
        <radialGradient id="paint4_radial_111_168" cx="0" cy="0" r="1" gradientUnits="userSpaceOnUse" gradientTransform="translate(29.8944 22.0205) scale(177.731 174.246)">
            <stop stop-color="#717485"/>
            <stop offset="1" stop-color="#9DA9AB"/>
        </radialGradient>
        <radialGradient id="paint5_radial_111_168" cx="0" cy="0" r="1" gradientUnits="userSpaceOnUse" gradientTransform="translate(128.6 71.2144) scale(60.69 59.5001)">
            <stop stop-color="#AAB4B8"/>
            <stop offset="1" stop-color="#828599"/>
        </radialGradient>
        <radialGradient id="paint6_radial_111_168" cx="0" cy="0" r="1" gradientUnits="userSpaceOnUse" gradientTransform="translate(206.158 205.045) scale(232.095 227.544)">
            <stop stop-color="#A3AAB0"/>
            <stop offset="1" stop-color="#828599"/>
        </radialGradient>
        <radialGradient id="paint7_radial_111_168" cx="0" cy="0" r="1" gradientUnits="userSpaceOnUse" gradientTransform="translate(258.414 226.975) scale(214.89 210.677)">
            <stop stop-color="#9DA9AB"/>
            <stop offset="1" stop-color="#717485"/>
        </radialGradient>
        <radialGradient id="paint8_radial_111_168" cx="0" cy="0" r="1" gradientUnits="userSpaceOnUse" gradientTransform="translate(338.662 128.797) scale(135.712 133.051)">
            <stop stop-color="#717485"/>
            <stop offset="1" stop-color="#9DA9AB"/>
        </radialGradient>
        <radialGradient id="paint9_radial_111_168" cx="0" cy="0" r="1" gradientUnits="userSpaceOnUse" gradientTransform="translate(133.245 95.2721) scale(338.899 332.254)">
            <stop stop-color="#717485"/>
            <stop offset="1" stop-color="#9DA9AB"/>
        </radialGradient>
        <radialGradient id="paint10_radial_111_168" cx="0" cy="0" r="1" gradientUnits="userSpaceOnUse" gradientTransform="translate(21.8879 114.386) scale(151.481 148.51)">
            <stop stop-color="#717485"/>
            <stop offset="1" stop-color="#9DA9AB"/>
        </radialGradient>
        <radialGradient id="paint11_radial_111_168" cx="0" cy="0" r="1" gradientUnits="userSpaceOnUse" gradientTransform="translate(-37.7324 328.508) scale(151.45 148.48)">
            <stop stop-color="#AAB4B8"/>
            <stop offset="1" stop-color="#828599"/>
        </radialGradient>
        <radialGradient id="paint12_radial_111_168" cx="0" cy="0" r="1" gradientUnits="userSpaceOnUse" gradientTransform="translate(122.274 178.979) scale(316.591 310.383)">
            <stop stop-color="#717485"/>
            <stop offset="1" stop-color="#9DA9AB"/>
        </radialGradient>
        <radialGradient id="paint13_radial_111_168" cx="0" cy="0" r="1" gradientUnits="userSpaceOnUse" gradientTransform="translate(268.774 223.08) scale(201.2 197.255)">
            <stop stop-color="#717485"/>
            <stop offset="1" stop-color="#9DA9AB"/>
        </radialGradient>
        <radialGradient id="paint14_radial_111_168" cx="0" cy="0" r="1" gradientUnits="userSpaceOnUse" gradientTransform="translate(161.902 243.842) scale(268.769 268.769)">
            <stop stop-color="#706F6F"/>
            <stop offset="1" stop-color="white"/>
        </radialGradient>
        <linearGradient id="paint15_linear_111_168" x1="157.978" y1="299.927" x2="157.978" y2="15.5791" gradientUnits="userSpaceOnUse">
            <stop stop-color="#EDD6B9"/>
            <stop offset="1" stop-color="#D4B492"/>
        </linearGradient>
        <linearGradient id="paint16_linear_111_168" x1="206.674" y1="415.994" x2="206.674" y2="32.601" gradientUnits="userSpaceOnUse">
            <stop offset="0.335412" stop-color="#EDD6B9"/>
            <stop offset="1" stop-color="#D4B492"/>
        </linearGradient>
        <linearGradient id="paint17_linear_111_168" x1="117.687" y1="288" x2="117.687" y2="32.707" gradientUnits="userSpaceOnUse">
            <stop stop-color="#EDD6B9"/>
            <stop offset="1" stop-color="#D4B492"/>
        </linearGradient>
        <linearGradient id="paint18_linear_111_168" x1="99.3781" y1="287.399" x2="99.3781" y2="32.6009" gradientUnits="userSpaceOnUse">
            <stop stop-color="#EDD6B9"/>
            <stop offset="1" stop-color="#D4B492"/>
        </linearGradient>
        <linearGradient id="paint19_linear_111_168" x1="224.955" y1="288.601" x2="224.955" y2="32.7391" gradientUnits="userSpaceOnUse">
            <stop stop-color="#EDD6B9"/>
            <stop offset="1" stop-color="#D4B492"/>
        </linearGradient>
        <clipPath id="clip0_111_168">
            <rect width="322.786" height="320" fill="white"/>
        </clipPath>
        <clipPath id="clip1_111_168">
            <rect width="255" height="256" fill="white" transform="translate(34 32)"/>
        </clipPath>
    </defs>
</svg>
