<svg width="339" height="655" viewBox="0 0 339 655" fill="none" xmlns="http://www.w3.org/2000/svg">
    <path fill-rule="evenodd" clip-rule="evenodd" d="M317.765 654.608C276.576 649.59 183.004 640.271 139.576 650.247C101.852 649.59 61.4236 651.98 25.2198 654.668C21.3333 652.159 9.71607 631.251 6.25201 616.376C3.80181 596.423 11.8283 396.122 13.2646 363.864C12.806 342.075 11.5085 320.338 9.37808 298.749C8.91338 240.087 9.37803 263.922 12.5041 205.319C10.0539 168.879 10.3497 122.463 10.4342 85.8434C13.9407 76.4169 18.474 67.8292 23.868 60.395C58.3819 57.7068 123.101 54.4213 153.264 51.3746C188.411 54.4213 226.516 55.1979 259.171 55.7355C276.618 59.1406 296.727 60.3353 314.976 65.8909C320.041 72.3432 324.563 79.5995 328.452 87.5161C328.452 122.463 327.354 166.788 325.242 202.392C326.509 214.818 328.579 228.02 329.255 237.817C329.132 255.427 328.073 273 326.087 290.386C325.453 339.371 326.763 388.296 329.509 437.282C325.284 529.816 329.255 535.969 337.662 612.373C334.198 633.58 321.271 653.294 317.765 654.548V654.608Z" fill="url(#paint0_radial_210_223)"/>
    <path fill-rule="evenodd" clip-rule="evenodd" d="M325.749 636.507C279.575 637.165 227.488 638.12 183.088 633.7C168.208 634.464 153.392 636.861 138.774 640.868C99.2749 637.224 58.7622 635.731 17.0244 636.567C11.4552 630.488 7.32902 622.153 5.19594 612.672C3.25153 592.886 2.64318 572.883 3.37932 552.934C3.31595 539.093 2.3259 525.292 0.422266 511.715C0.422266 449.767 1.56288 393.374 4.39328 330.172C3.86745 307.101 2.45722 284.088 0.168808 261.234C-0.338129 199.405 0.168803 224.555 3.46389 162.666C0.844718 124.255 1.14035 75.2698 1.26708 36.7986C4.9656 26.8682 9.74077 17.8179 15.4191 9.97628C51.8763 7.10886 120.144 4.00249 151.996 0.418213C189.045 3.58432 229.304 4.48039 263.734 5.01803C282.152 8.60231 303.401 9.91654 322.665 15.7709C328.024 22.5491 332.789 30.2103 336.859 38.5907C337.113 75.449 335.719 122.224 333.48 159.799C334.831 172.941 336.986 186.86 337.704 197.135C337.587 215.724 336.485 234.275 334.409 252.632C333.691 304.305 335.085 355.978 338 407.95C335.507 460.878 334.62 507.832 334.832 560.82C334.511 578.332 335.331 595.85 337.282 613.15C336.986 618.108 329.297 635.97 325.58 637.045L325.749 636.507Z" fill="url(#paint1_radial_210_223)"/>
    <path fill-rule="evenodd" clip-rule="evenodd" d="M70.8441 113.86C82.2922 94.8717 95.2642 77.8313 109.498 63.0832C111.094 60.1285 112.8 57.2968 114.61 54.6005C125.593 37.6349 150.095 2.74794 152.165 0C120.313 3.52454 52.0452 6.69065 15.5881 9.55807C10.8584 16.0801 6.75374 23.4508 3.37926 31.4819C9.12455 39.1283 15.6303 48.2085 21.9248 57.8263C22.4739 58.7224 23.0654 59.6184 23.6568 60.4548C37.851 82.4981 51.4961 106.035 57.8328 116.668C63.4513 126.107 65.1411 123.12 70.8441 113.86Z" fill="url(#paint2_radial_210_223)"/>
    <path fill-rule="evenodd" clip-rule="evenodd" d="M114.525 66.4286C132.944 89.9653 203.239 136.322 207.464 135.486C208.511 135.161 209.432 134.286 210.04 133.036C210.759 122.941 210.632 87.0979 210.378 54.6602C210.378 33.3338 210.04 13.5008 209.998 3.34532C190.735 2.62847 171.091 1.61292 152.25 0L116.426 54.481L114.863 56.8705C113.173 60.8729 112.793 64.1585 114.61 66.4286H114.525Z" fill="url(#paint3_radial_210_223)"/>
    <path fill-rule="evenodd" clip-rule="evenodd" d="M212.786 54.7796C213.547 84.6486 213.631 118.759 213.843 139.428C226.315 170.966 236.844 203.964 245.315 238.056C247.807 247.912 249.117 249.107 256.594 250.362C262.255 251.377 271.253 252.034 280.336 252.871C287.771 253.528 295.248 254.424 301.162 255.081C302.907 255.278 304.659 254.876 306.27 253.908C307.881 252.941 309.303 251.437 310.414 249.525C315.422 240.738 320.872 232.473 326.72 224.794L327.523 223.3C330.438 217.984 334.282 210.576 337.788 202.75C337.788 200.779 337.788 198.748 337.788 196.777C337.07 186.502 334.916 172.583 333.564 159.44C334.324 146.716 334.958 132.917 335.507 118.819C334.578 112.188 333.733 105.497 332.93 98.8065C323.898 70.7581 316.467 41.7324 310.71 12.0073C294.952 8.60221 278.519 7.22823 263.903 4.36081C247.005 4.36081 228.628 3.76344 209.914 3.10632C211.655 20.1455 212.614 37.3262 212.786 54.5407V54.7796Z" fill="url(#paint4_radial_210_223)"/>
    <path fill-rule="evenodd" clip-rule="evenodd" d="M310.71 12.0073C318.483 42.4737 331.832 87.516 335 97.1936C335.282 100.539 335.62 103.884 336.014 107.23C336.775 83.3344 337.155 58.9613 337.028 37.9336C332.958 29.5531 328.192 21.8919 322.834 15.1137C318.863 13.8592 314.807 12.9034 310.71 12.0073Z" fill="url(#paint5_radial_210_223)"/>
    <path fill-rule="evenodd" clip-rule="evenodd" d="M244.766 255.2C236.662 218.888 226.358 183.631 213.969 149.823V150.181C191.03 128.078 178.23 122.941 156.432 105.437C139.534 91.8769 126.227 82.6773 113.131 69.9531C110.089 66.9662 103.542 73.0595 101.218 75.9269C87.9765 91.6803 76.0942 109.586 65.817 129.273C47.3983 217.864 41.2306 303.648 17.827 386.624L17.0667 465.179C17.0595 475.455 19.5671 485.417 24.1637 493.375C27.4166 514.642 41.0616 594.213 46.2155 636.388C64.9721 636.388 83.5035 636.965 101.81 638.12C122.932 627.129 144.899 611.895 158.924 596.304C165.768 593.795 183.046 590.33 191.326 586.567C196.564 584.177 197.409 582.265 198.93 574.977C207.602 534.142 218.564 494.35 231.712 455.98C232.231 388.668 236.583 321.524 244.723 255.2H244.766Z" fill="url(#paint6_radial_210_223)"/>
    <path fill-rule="evenodd" clip-rule="evenodd" d="M13.1801 385.608C34.7249 316.312 39.4563 238.115 55.8472 161.352C60.6209 139.07 59.8183 132.2 54.3265 119.536C44.8318 99.0743 34.1794 79.7355 22.4739 61.7093L20.9531 59.3198C14.7853 49.8812 8.57546 40.7413 2.70345 32.6169L1.3093 36.1415C1.3093 74.6127 0.886804 123.598 3.50598 162.009C0.379867 223.898 -0.296043 198.748 0.210893 260.577C2.49931 283.431 3.90954 306.444 4.43537 329.514C1.81619 388.117 0.760106 440.866 0.506637 497.617L3.21036 494.033C5.48442 491.118 7.64222 488.027 9.6738 484.773C15.1656 475.574 14.9121 470.376 15.1656 458.608C15.7843 434.161 15.1348 409.682 13.2223 385.369L13.1801 385.608Z" fill="url(#paint7_radial_210_223)"/>
    <path fill-rule="evenodd" clip-rule="evenodd" d="M45.8353 636.328C38.02 596.722 29.5288 531.966 21.629 495.526C20.9624 492.944 20.0378 490.509 18.8831 488.298C16.1372 482.324 13.3068 485.848 10.6454 489.074L9.54709 490.329L0.4645 501.261C0.4645 504.606 0.4645 507.951 0.4645 511.297C2.36813 524.874 3.35818 538.675 3.42155 552.516C2.68541 572.465 3.29363 592.468 5.23805 612.254C7.01659 620.017 10.0215 627.106 14.025 632.983C14.9068 634.319 15.9335 635.449 17.0666 636.328C26.7548 636.328 36.3584 636.328 45.8776 636.328H45.8353Z" fill="url(#paint8_radial_210_223)"/>
    <path fill-rule="evenodd" clip-rule="evenodd" d="M233.993 442.598C233.862 449.377 234.937 456.094 237.119 462.132C248.048 497.123 260.887 530.858 275.52 563.03C292.354 584.544 306.946 609.322 318.863 636.627H325.876C326.792 636.174 327.618 635.416 328.283 634.417C332.503 628.208 335.679 620.735 337.577 612.553C335.627 595.252 334.806 577.735 335.127 560.222C334.916 507.235 335.803 460.281 338.295 407.353C335.423 356.337 334.071 305.38 334.662 254.364L328.748 255.081C324.524 255.619 320.299 256.156 316.286 256.574C312.745 256.924 309.244 257.846 305.851 259.322C297.403 257.291 288.954 256.455 280.505 255.439C273.658 254.654 266.778 254.654 259.931 255.439C257.322 255.497 254.748 256.31 252.37 257.829C249.992 260.102 248.281 263.521 247.554 267.447C239.316 309.92 235.303 382.98 234.247 442.598H233.993Z" fill="url(#paint9_radial_210_223)"/>
    <path fill-rule="evenodd" clip-rule="evenodd" d="M314.554 254.364L328.706 252.572L334.62 251.915C336.295 237.083 337.324 222.121 337.704 207.111C333.48 215.833 329.255 225.033 328.241 226.944H327.988C321.656 233.092 316.291 241.023 312.23 250.242C309.992 254.782 311.132 254.424 314.554 254.125V254.364Z" fill="url(#paint10_radial_210_223)"/>
    <path fill-rule="evenodd" clip-rule="evenodd" d="M273.788 564.822C259.814 534.53 247.77 502.545 237.795 469.241C234.373 457.294 232.937 459.982 230.191 468.525C217.822 506.388 207.43 545.481 199.099 585.491C197.916 592.182 197.452 615.719 196.691 634.775C234.247 637.523 276.111 637.105 314.723 636.567C312.146 624.62 289.376 581.25 273.788 564.882V564.822Z" fill="url(#paint11_radial_210_223)"/>
    <path fill-rule="evenodd" clip-rule="evenodd" d="M195.762 596.483C195.762 592.54 196.269 590.091 192.551 589.673C189.552 589.315 165.515 599.052 160.868 600.605C143.088 615.746 124.297 628.372 104.767 638.3C116.173 638.957 127.537 639.853 138.774 640.868C153.392 636.861 168.208 634.464 183.088 633.7L195.762 634.835C195.762 621.513 195.762 604.488 195.762 596.483Z" fill="url(#paint12_radial_210_223)"/>
    <path style="mix-blend-mode:multiply" fill-rule="evenodd" clip-rule="evenodd" d="M241.935 29.4508C225.375 21.5056 104.555 23.1783 37.0906 30.1677C34.8422 30.3968 32.7421 31.8391 31.2246 34.1962C29.7071 36.5534 28.8882 39.6452 28.9374 42.8321C28.9374 49.5825 29.1486 55.4965 29.2753 64.278L53.3971 68.3999L29.4443 75.5087C30.2892 140.205 30.4582 205.379 29.8668 270.672L42.5402 277.662L29.6555 283.217C28.7684 376.409 26.276 469.42 22.0515 562.074C24.9711 583.886 31.3557 604.476 40.7237 622.29C41.6099 624.065 42.8216 625.464 44.2284 626.338C45.6353 627.212 47.184 627.526 48.7079 627.248C77.9835 622.708 224.784 624.859 292.629 633.222C293.244 633.31 293.866 633.206 294.45 632.917C295.034 632.628 295.566 632.161 296.009 631.549C296.457 630.952 296.813 630.229 297.053 629.427C297.293 628.625 297.412 627.761 297.403 626.89C296.924 599.012 296.628 571.333 296.515 543.854L287.348 534.953L291.573 527.187L290.897 521.213L296.304 516.136C296.304 419.32 298.557 322.943 303.063 227.004L296.262 221.09L299.98 211.89L290.136 204.184L304.5 199.584C306.527 159.799 308.724 123.717 311.639 84.111C289.373 63.5242 266.077 45.2558 241.935 29.4508Z" fill="url(#paint13_radial_210_223)"/>
    <path fill-rule="evenodd" clip-rule="evenodd" d="M253.139 40.2424C233.8 33.1832 91.6074 30.6108 16.63 34.26C16.9291 47.0622 17.1983 59.8644 17.4376 72.6667L44.3595 76.7346L17.4825 83.6742C18.5594 145.771 18.8436 208.187 18.335 270.921L32.5139 277.682L18.2453 283.006C17.3479 372.262 14.7454 461.698 10.1687 550.536L42.9685 615.804C47.4555 618.615 239.049 621.247 315.867 620.47C315.238 591.675 314.82 562.9 314.61 534.145L304.649 525.35L309.495 517.932L308.777 511.95L314.745 507.045C314.745 414.159 317.048 321.692 321.655 229.643L313.937 224.259L318.065 215.465L307.162 208.047L323.091 203.68C325.244 165.513 327.177 113.787 330.169 75.7794L253.363 40.2424H253.139Z" fill="url(#paint14_linear_210_223)"/>
    <path style="mix-blend-mode:multiply" fill-rule="evenodd" clip-rule="evenodd" d="M248.169 40.6507L329.669 75.608C327.893 80.6477 302.697 98.3508 299.569 98.6071C296.441 98.8633 255.65 47.3561 248.169 40.608V40.6507Z" fill="url(#paint15_radial_210_223)"/>
    <path fill-rule="evenodd" clip-rule="evenodd" d="M296.652 90.608C281.391 73.0397 265.206 56.3479 248.169 40.608C253.579 40.608 330.338 70.7944 330.169 76.108C322.498 81.7058 305.281 86.7658 296.652 90.608Z" fill="url(#paint16_linear_210_223)"/>
    <path style="mix-blend-mode:screen" opacity="0.5" fill-rule="evenodd" clip-rule="evenodd" d="M273.297 102.849C280.832 113.347 287.235 125.396 286.973 135.893C286.277 167.923 314.326 150.089 304.962 194.884C299.561 220.889 312.715 225.005 311.016 245.225C309.797 259.659 300.911 263.119 299.125 287.991C297.34 312.864 297.862 348.95 303.481 360.76C316.548 387.839 296.948 432.693 301.477 458.997C304.792 479.282 306.688 499.953 307.14 520.731L304.57 524.787L307.096 526.994C307.108 531.277 306.653 535.539 305.746 539.639C299.474 561.887 295.293 546.021 287.888 575.427C283.053 594.454 266.851 597.555 250.213 594.215C223.513 588.847 205.481 564.988 182.745 564.929C162.71 564.929 153.999 588.429 133.048 591.591C120.809 593.44 108.309 588.549 95.547 593.857C66.4954 605.787 81.2608 553.179 46.1986 543.993C20.9364 537.372 41.8431 464.723 42.3657 444.742C43.5417 390.523 31.7382 389.748 34.9178 323.242C35.5275 310.18 42.0172 303.141 35.6581 279.879L40.7542 277.911L34.5258 274.988C26.9471 239.201 54.1257 196.375 42.1915 135.774C38.1512 118.329 36.5987 99.9827 37.6182 81.7346L52.0787 77.9769L38.4458 75.8296C41.9738 56.2657 52.9933 44.575 76.2519 46.9012C121.506 51.4939 134.616 57.8165 178.085 69.9843C193.46 74.2788 211.405 78.3944 225.517 80.2434C252.042 83.7029 260.361 84.9555 273.428 103.088L273.297 102.849Z" fill="url(#paint17_radial_210_223)"/>
    <path style="mix-blend-mode:screen" opacity="0.5" fill-rule="evenodd" clip-rule="evenodd" d="M221.447 102.212C250.553 102.809 272.351 128.795 273.83 172.165C274.886 202.631 297.36 214.459 268.93 269.478C254.059 298.331 289.08 351.378 277.928 385.787C268.93 413.566 286.377 432.741 280.716 456.457C274.252 483.16 296.938 509.027 277.379 539.672C259.467 567.689 252.75 582.385 220.94 568.107C214.518 565.24 191.115 553.113 167.542 561.716C163.656 563.09 156.136 565.18 149.123 567.689C95.3037 587.463 123.227 552.874 83.264 549.171C72.914 548.155 73.4211 534.654 65.0144 533.34C38.3157 529.158 43.6385 483.519 54.2842 452.037C61.3813 431.069 59.9027 403.769 52.0452 381.128C30.9228 321.032 51.0313 285.547 68.9431 253.707C80.3069 233.814 68.3094 177.601 64.2117 160.217C54.5377 119.297 67.9292 114.518 78.4482 83.0954C85.1651 63.0832 117.482 65.8909 129.395 79.3917C152.968 106.035 212.491 101.973 221.447 102.152V102.212Z" fill="url(#paint18_radial_210_223)"/>
    <path style="mix-blend-mode:screen" fill-rule="evenodd" clip-rule="evenodd" d="M263.357 48.1626C267.132 64.1888 302.341 85.6364 313.669 84.108C309.015 86.9147 301.698 88.4122 296.744 90.608C281.478 73.0155 265.26 56.3223 248.169 40.608C253.199 41.9528 258.11 43.735 262.847 45.9355C262.902 46.6574 263.015 47.3732 263.187 48.0753L263.357 48.1626Z" fill="url(#paint19_radial_210_223)"/>
    <path style="mix-blend-mode:multiply" opacity="0.4" fill-rule="evenodd" clip-rule="evenodd" d="M271.243 616.032C302.681 615.617 311.763 592.334 314.252 564.608C314.252 582.914 314.776 601.162 315.169 619.468C258.405 620.06 137.019 618.698 80.1687 616.802C124.837 614.136 140.119 607.323 178.719 597.903C204.917 591.505 209.807 596.778 234.827 607.797C246.52 613.394 258.843 616.181 271.243 616.032Z" fill="url(#paint20_radial_210_223)"/>
    <path style="mix-blend-mode:multiply" opacity="0.35" fill-rule="evenodd" clip-rule="evenodd" d="M243.076 39.3076C231.887 41.2463 220.786 44.0986 209.829 47.8501C198.251 51.4388 186.26 51.4388 174.682 47.8501C149.174 40.7747 123.385 35.907 97.4583 33.274C157.192 33.274 221.954 35.3051 243.076 39.2478V39.3076Z" fill="url(#paint21_radial_210_223)"/>
    <defs>
        <radialGradient id="paint0_radial_210_223" cx="0" cy="0" r="1" gradientUnits="userSpaceOnUse" gradientTransform="translate(169.993 -11.6489) scale(492.193 696.006)">
            <stop stop-color="#9DA9AB"/>
            <stop offset="1" stop-color="#555763"/>
        </radialGradient>
        <radialGradient id="paint1_radial_210_223" cx="0" cy="0" r="1" gradientUnits="userSpaceOnUse" gradientTransform="translate(41.7376 -258.366) scale(752.674 1064.35)">
            <stop stop-color="#E2F1F7"/>
            <stop offset="1" stop-color="#9A9DB5"/>
        </radialGradient>
        <radialGradient id="paint2_radial_210_223" cx="0" cy="0" r="1" gradientUnits="userSpaceOnUse" gradientTransform="translate(-32.7822 -215.594) scale(272.14 384.832)">
            <stop stop-color="#717485"/>
            <stop offset="1" stop-color="#9DA9AB"/>
        </radialGradient>
        <radialGradient id="paint3_radial_210_223" cx="0" cy="0" r="1" gradientUnits="userSpaceOnUse" gradientTransform="translate(245.272 183.097) scale(273.365 386.564)">
            <stop stop-color="#AAB4B8"/>
            <stop offset="1" stop-color="#828599"/>
        </radialGradient>
        <radialGradient id="paint4_radial_210_223" cx="0" cy="0" r="1" gradientUnits="userSpaceOnUse" gradientTransform="translate(330.1 298.391) scale(374.922 530.174)">
            <stop stop-color="#9DA9AB"/>
            <stop offset="1" stop-color="#717485"/>
        </radialGradient>
        <radialGradient id="paint5_radial_210_223" cx="0" cy="0" r="1" gradientUnits="userSpaceOnUse" gradientTransform="translate(398.325 13.68) scale(158.249 223.778)">
            <stop stop-color="#717485"/>
            <stop offset="1" stop-color="#9DA9AB"/>
        </radialGradient>
        <radialGradient id="paint6_radial_210_223" cx="0" cy="0" r="1" gradientUnits="userSpaceOnUse" gradientTransform="translate(-35.8237 15.293) scale(497.854 704.011)">
            <stop stop-color="#717485"/>
            <stop offset="1" stop-color="#9DA9AB"/>
        </radialGradient>
        <radialGradient id="paint7_radial_210_223" cx="0" cy="0" r="1" gradientUnits="userSpaceOnUse" gradientTransform="translate(-135.31 162.786) scale(398.326 563.269)">
            <stop stop-color="#717485"/>
            <stop offset="1" stop-color="#9DA9AB"/>
        </radialGradient>
        <radialGradient id="paint8_radial_210_223" cx="0" cy="0" r="1" gradientUnits="userSpaceOnUse" gradientTransform="translate(-40.6819 640.271) scale(201.634 285.129)">
            <stop stop-color="#717485"/>
            <stop offset="1" stop-color="#9DA9AB"/>
        </radialGradient>
        <radialGradient id="paint9_radial_210_223" cx="0" cy="0" r="1" gradientUnits="userSpaceOnUse" gradientTransform="translate(441.964 178.855) scale(504.908 713.988)">
            <stop stop-color="#717485"/>
            <stop offset="1" stop-color="#9DA9AB"/>
        </radialGradient>
        <radialGradient id="paint10_radial_210_223" cx="0" cy="0" r="1" gradientUnits="userSpaceOnUse" gradientTransform="translate(389.707 249.047) scale(173.668 245.583)">
            <stop stop-color="#717485"/>
            <stop offset="1" stop-color="#9DA9AB"/>
        </radialGradient>
        <radialGradient id="paint11_radial_210_223" cx="0" cy="0" r="1" gradientUnits="userSpaceOnUse" gradientTransform="translate(212.195 728.504) scale(269.183 380.65)">
            <stop stop-color="#717485"/>
            <stop offset="1" stop-color="#9DA9AB"/>
        </radialGradient>
        <radialGradient id="paint12_radial_210_223" cx="0" cy="0" r="1" gradientUnits="userSpaceOnUse" gradientTransform="translate(177.681 715.123) scale(269.859 381.606)">
            <stop stop-color="#717485"/>
            <stop offset="1" stop-color="#9DA9AB"/>
        </radialGradient>
        <radialGradient id="paint13_radial_210_223" cx="0" cy="0" r="1" gradientUnits="userSpaceOnUse" gradientTransform="translate(162.684 448.572) scale(454.553 642.78)">
            <stop stop-color="#706F6F"/>
            <stop offset="1" stop-color="white"/>
        </radialGradient>
        <linearGradient id="paint14_linear_210_223" x1="170.444" y1="620.41" x2="170.444" y2="32.7046" gradientUnits="userSpaceOnUse">
            <stop stop-color="#EDD6B9"/>
            <stop offset="1" stop-color="#D4B492"/>
        </linearGradient>
        <radialGradient id="paint15_radial_210_223" cx="0" cy="0" r="1" gradientUnits="userSpaceOnUse" gradientTransform="translate(303.838 48.7228) scale(94.2617 95.2414)">
            <stop stop-color="#A48A7B"/>
            <stop offset="1" stop-color="white"/>
        </radialGradient>
        <linearGradient id="paint16_linear_210_223" x1="286.888" y1="56.2004" x2="254.859" y2="86.8618" gradientUnits="userSpaceOnUse">
            <stop stop-color="#BF9F7E"/>
            <stop offset="1" stop-color="#EDD6B9"/>
        </linearGradient>
        <radialGradient id="paint17_radial_210_223" cx="0" cy="0" r="1" gradientUnits="userSpaceOnUse" gradientTransform="translate(172.161 320.976) scale(316.518 433.449)">
            <stop stop-color="#CA9E67"/>
            <stop offset="1"/>
        </radialGradient>
        <radialGradient id="paint18_radial_210_223" cx="0" cy="0" r="1" gradientUnits="userSpaceOnUse" gradientTransform="translate(164.289 321.27) scale(261.833 370.256)">
            <stop stop-color="#CA9E67"/>
            <stop offset="1"/>
        </radialGradient>
        <radialGradient id="paint19_radial_210_223" cx="0" cy="0" r="1" gradientUnits="userSpaceOnUse" gradientTransform="translate(284.272 19.9967) scale(78.8667 81.179)">
            <stop/>
            <stop offset="1" stop-color="#A3805F"/>
        </radialGradient>
        <radialGradient id="paint20_radial_210_223" cx="0" cy="0" r="1" gradientUnits="userSpaceOnUse" gradientTransform="translate(222.514 463.715) scale(278.708 378.154)">
            <stop stop-color="white"/>
            <stop offset="1" stop-color="#A48A7B"/>
        </radialGradient>
        <radialGradient id="paint21_radial_210_223" cx="0" cy="0" r="1" gradientUnits="userSpaceOnUse" gradientTransform="translate(178.779 -144.446) scale(235.768 333.397)">
            <stop stop-color="#A48A7B"/>
            <stop offset="1" stop-color="white"/>
        </radialGradient>
    </defs>
</svg>
