<svg width="338" height="692" viewBox="0 0 338 692" fill="none" xmlns="http://www.w3.org/2000/svg">
    <path fill-rule="evenodd" clip-rule="evenodd" d="M317.597 692C276.409 686.701 182.837 676.86 139.409 687.395C101.685 686.701 61.2565 689.224 25.0528 692.063C21.1663 689.414 9.54904 667.335 6.08497 651.628C3.63478 630.558 11.6613 419.045 13.0976 384.981C12.6389 361.973 11.3414 339.019 9.21104 316.222C8.74635 254.275 9.211 279.445 12.3371 217.562C9.88691 179.082 10.1827 130.067 10.2672 91.3982C13.7737 81.4441 18.307 72.3756 23.7009 64.5253C58.2149 61.6867 122.934 58.2172 153.097 55C188.244 58.2172 226.349 59.0372 259.004 59.605C276.451 63.2006 296.56 64.4623 314.809 70.3289C319.874 77.1423 324.396 84.8047 328.285 93.1645C328.285 130.067 327.187 176.874 325.075 214.471C326.342 227.592 328.412 241.533 329.088 251.878C328.965 270.475 327.906 289.031 325.92 307.39C325.286 359.117 326.596 410.781 329.342 462.508C325.117 560.222 329.088 566.719 337.495 647.401C334.031 669.795 321.104 690.612 317.597 691.937V692Z" fill="url(#paint0_radial_302_409)"/>
    <path fill-rule="evenodd" clip-rule="evenodd" d="M325.581 672.886C279.407 673.58 227.32 674.589 182.92 669.921C168.04 670.728 153.224 673.259 138.606 677.491C99.1069 673.643 58.5942 672.066 16.8564 672.949C11.2873 666.529 7.16106 657.727 5.02797 647.716C3.08356 626.823 2.47521 605.7 3.21135 584.634C3.14798 570.019 2.15793 555.445 0.254297 541.108C0.254297 475.692 1.39491 416.143 4.22531 349.402C3.69948 325.041 2.28925 300.74 0.000839314 276.606C-0.506097 211.316 0.000834216 237.874 3.29592 172.521C0.67675 131.959 0.97238 80.2324 1.09911 39.6077C4.79763 29.1215 9.5728 19.5645 15.2511 11.284C51.7083 8.25608 119.976 4.97583 151.828 1.19092C188.877 4.53425 229.136 5.48048 263.566 6.04822C281.984 9.83313 303.233 11.2209 322.497 17.4029C327.856 24.5606 332.621 32.6506 336.691 41.5002C336.945 80.4217 335.551 129.815 333.312 169.493C334.664 183.371 336.818 198.069 337.536 208.919C337.419 228.549 336.317 248.138 334.241 267.522C333.523 322.088 334.917 376.654 337.832 431.535C335.339 487.425 334.452 537.008 334.664 592.961C334.343 611.454 335.163 629.952 337.114 648.221C336.818 653.457 329.129 672.318 325.412 673.454L325.581 672.886Z" fill="url(#paint1_radial_302_409)"/>
    <path fill-rule="evenodd" clip-rule="evenodd" d="M70.6758 120.983C82.1239 100.932 95.0958 82.9375 109.33 67.3639C110.925 64.2437 112.632 61.2536 114.441 58.4063C125.425 40.491 149.927 3.65127 151.997 0.749512C120.144 4.47134 51.8769 7.81467 15.4197 10.8426C10.69 17.7297 6.58542 25.513 3.21094 33.9936C8.95622 42.0681 15.462 51.6565 21.7564 61.8127C22.3056 62.7589 22.8971 63.7051 23.4885 64.5883C37.6827 87.8655 51.3277 112.72 57.6644 123.948C63.283 133.915 64.9727 130.761 70.6758 120.983Z" fill="url(#paint2_radial_302_409)"/>
    <path fill-rule="evenodd" clip-rule="evenodd" d="M114.357 70.8965C132.775 95.7507 203.07 144.702 207.295 143.819C208.343 143.477 209.264 142.552 209.872 141.233C210.59 130.572 210.463 92.7228 210.21 58.4693C210.21 35.9491 209.872 15.006 209.829 4.28209C190.566 3.52511 170.922 2.45272 152.081 0.749512L116.257 58.2801L114.694 60.8034C113.005 65.0298 112.624 68.4994 114.441 70.8965H114.357Z" fill="url(#paint3_radial_302_409)"/>
    <path fill-rule="evenodd" clip-rule="evenodd" d="M212.619 58.5955C213.379 90.1364 213.464 126.156 213.675 147.982C226.147 181.286 236.677 216.131 245.147 252.13C247.64 262.539 248.949 263.801 256.426 265.125C262.087 266.198 271.085 266.892 280.168 267.775C287.603 268.469 295.08 269.415 300.995 270.109C302.739 270.317 304.492 269.892 306.103 268.87C307.713 267.849 309.135 266.261 310.246 264.242C315.255 254.964 320.704 246.236 326.553 238.126L327.355 236.549C330.27 230.935 334.115 223.113 337.621 214.849C337.621 212.767 337.621 210.623 337.621 208.541C336.903 197.691 334.748 182.993 333.396 169.115C334.157 155.678 334.791 141.107 335.34 126.219C334.41 119.217 333.565 112.152 332.763 105.087C323.73 75.4685 316.299 44.818 310.542 13.429C294.785 9.83331 278.352 8.38242 263.735 5.3545C246.837 5.3545 228.461 4.72368 209.746 4.02979C211.487 22.0228 212.447 40.1652 212.619 58.3432V58.5955Z" fill="url(#paint4_radial_302_409)"/>
    <path fill-rule="evenodd" clip-rule="evenodd" d="M310.541 13.4287C318.314 45.6004 331.663 93.1641 334.832 103.383C335.113 106.916 335.451 110.449 335.846 113.981C336.606 88.7484 336.986 63.011 336.86 40.8062C332.789 31.9566 328.024 23.8666 322.665 16.709C318.694 15.3842 314.639 14.3749 310.541 13.4287Z" fill="url(#paint5_radial_302_409)"/>
    <path fill-rule="evenodd" clip-rule="evenodd" d="M244.597 270.235C236.493 231.89 226.19 194.66 213.801 158.958V159.337C190.862 135.997 178.062 130.572 156.264 112.089C139.366 97.7691 126.059 88.0545 112.963 74.6181C109.921 71.464 103.373 77.8984 101.05 80.9263C87.8083 97.5615 75.926 116.469 65.6488 137.258C47.2301 230.809 41.0624 321.394 17.6588 409.015L16.8985 491.967C16.8913 502.818 19.3989 513.338 23.9955 521.742C27.2484 544.199 40.8934 628.224 46.0473 672.76C64.8039 672.76 83.3353 673.369 101.641 674.589C122.764 662.982 144.731 646.896 158.756 630.432C165.6 627.782 182.878 624.124 191.158 620.149C196.396 617.626 197.241 615.607 198.762 607.912C207.434 564.79 218.396 522.771 231.544 482.253C232.063 411.173 236.414 340.271 244.555 270.235H244.597Z" fill="url(#paint6_radial_302_409)"/>
    <path fill-rule="evenodd" clip-rule="evenodd" d="M13.012 407.943C34.5568 334.768 39.2883 252.194 55.6792 171.134C60.4529 147.604 59.6503 140.35 54.1585 126.976C44.6638 105.37 34.0113 84.9485 22.3059 65.9132L20.785 63.3899C14.6173 53.423 8.40742 43.7715 2.53541 35.1924L1.14126 38.9142C1.14126 79.5389 0.718766 131.266 3.33794 171.828C0.21183 237.18 -0.464081 210.623 0.0428559 275.913C2.33127 300.046 3.7415 324.347 4.26733 348.709C1.64815 410.592 0.592068 466.293 0.3386 526.221L3.04232 522.436C5.31638 519.358 7.47418 516.094 9.50576 512.659C14.9976 502.944 14.7441 497.456 14.9975 485.029C15.6162 459.213 14.9668 433.364 13.0543 407.69L13.012 407.943Z" fill="url(#paint7_radial_302_409)"/>
    <path fill-rule="evenodd" clip-rule="evenodd" d="M45.6677 672.697C37.8524 630.873 29.3612 562.493 21.4614 524.013C20.7948 521.286 19.8701 518.715 18.7155 516.38C15.9696 510.072 13.1392 513.794 10.4777 517.2L9.37947 518.525L0.296875 530.069C0.296875 533.601 0.296875 537.134 0.296875 540.666C2.20051 555.003 3.19056 569.577 3.25393 584.193C2.51779 605.259 3.12601 626.381 5.07042 647.275C6.84896 655.472 9.85391 662.958 13.8574 669.164C14.7392 670.575 15.7659 671.768 16.899 672.697C26.5871 672.697 36.1908 672.697 45.71 672.697H45.6677Z" fill="url(#paint8_radial_302_409)"/>
    <path fill-rule="evenodd" clip-rule="evenodd" d="M233.825 468.122C233.694 475.281 234.769 482.373 236.951 488.75C247.88 525.699 260.719 561.322 275.352 595.295C292.185 618.013 306.778 644.179 318.695 673.012H325.707C326.624 672.534 327.45 671.734 328.115 670.678C332.335 664.122 335.511 656.23 337.409 647.59C335.458 629.321 334.638 610.823 334.959 592.33C334.748 536.377 335.635 486.795 338.127 430.904C335.255 377.032 333.903 323.223 334.494 269.352L328.58 270.109C324.356 270.676 320.131 271.244 316.118 271.686C312.577 272.055 309.076 273.028 305.683 274.587C297.234 272.443 288.785 271.559 280.336 270.487C273.49 269.657 266.61 269.657 259.763 270.487C257.154 270.548 254.58 271.406 252.201 273.01C249.824 275.411 248.113 279.021 247.386 283.166C239.148 328.018 235.135 405.167 234.079 468.122H233.825Z" fill="url(#paint9_radial_302_409)"/>
    <path fill-rule="evenodd" clip-rule="evenodd" d="M314.386 269.352L328.538 267.459L334.452 266.765C336.126 251.104 337.156 235.304 337.536 219.454C333.311 228.664 329.087 238.379 328.073 240.397H327.82C321.488 246.889 316.123 255.265 312.062 264.999C309.823 269.793 310.964 269.415 314.386 269.099V269.352Z" fill="url(#paint10_radial_302_409)"/>
    <path fill-rule="evenodd" clip-rule="evenodd" d="M273.62 597.188C259.647 565.201 247.602 531.424 237.628 496.257C234.206 483.641 232.769 486.479 230.023 495.5C217.654 535.483 207.262 576.765 198.931 619.014C197.749 626.079 197.284 650.934 196.523 671.057C234.079 673.959 275.944 673.517 314.555 672.949C311.978 660.333 289.208 614.536 273.62 597.251V597.188Z" fill="url(#paint11_radial_302_409)"/>
    <path fill-rule="evenodd" clip-rule="evenodd" d="M195.595 630.621C195.595 626.458 196.102 623.872 192.384 623.43C189.385 623.052 165.348 633.334 160.701 634.974C142.921 650.962 124.13 664.295 104.6 674.779C116.006 675.473 127.37 676.419 138.607 677.491C153.225 673.26 168.041 670.729 182.921 669.921L195.595 671.12C195.595 657.053 195.595 639.074 195.595 630.621Z" fill="url(#paint12_radial_302_409)"/>
    <path style="mix-blend-mode:multiply" fill-rule="evenodd" clip-rule="evenodd" d="M241.767 31.8489C225.207 23.459 104.387 25.2253 36.9219 32.6059C34.6735 32.8478 32.5734 34.3708 31.0559 36.86C29.5384 39.3491 28.7195 42.6139 28.7687 45.9792C28.7687 53.1074 28.9799 59.3525 29.1066 68.6256L53.2285 72.9782L29.2756 80.4849C30.1205 148.803 30.2895 217.625 29.6981 286.573L42.3715 293.954L29.4868 299.82C28.5997 398.228 26.1073 496.446 21.8828 594.286C24.8024 617.319 31.1871 639.062 40.555 657.873C41.4413 659.747 42.6529 661.225 44.0597 662.147C45.4666 663.07 47.0153 663.402 48.5392 663.108C77.8148 658.314 224.615 660.585 292.46 669.416C293.076 669.51 293.698 669.4 294.282 669.094C294.866 668.789 295.398 668.296 295.84 667.65C296.288 667.02 296.644 666.256 296.884 665.409C297.124 664.562 297.243 663.649 297.234 662.73C296.755 633.292 296.459 604.064 296.347 575.046L287.18 565.647L291.404 557.446L290.728 551.138L296.136 545.776C296.136 443.542 298.389 341.77 302.895 240.46L296.093 234.215L299.811 224.501L289.968 216.363L304.331 211.506C306.359 169.493 308.555 131.392 311.47 89.5687C289.204 67.8295 265.908 48.5386 241.767 31.8489Z" fill="url(#paint13_radial_302_409)"/>
    <path fill-rule="evenodd" clip-rule="evenodd" d="M252.97 43.2443C233.631 35.79 91.4387 33.0736 16.4613 36.9271C16.7604 50.4459 17.0296 63.9647 17.2689 77.4836L44.1908 81.7793L17.3138 89.1072C18.3907 154.68 18.6749 220.589 18.1663 286.836L32.3452 293.974L18.0766 299.597C17.1792 393.849 14.5767 488.292 10 582.102L42.7998 651.023C47.2868 653.992 238.881 656.772 315.698 655.95C315.07 625.544 314.651 595.158 314.442 564.793L304.48 555.507L309.326 547.673L308.608 541.356L314.576 536.176C314.576 438.091 316.879 340.448 321.486 243.247L313.768 237.562L317.896 228.275L306.993 220.442L322.922 215.83C325.076 175.527 327.009 120.906 330 80.7706L253.194 43.2443H252.97Z" fill="url(#paint14_linear_302_409)"/>
    <path style="mix-blend-mode:multiply" fill-rule="evenodd" clip-rule="evenodd" d="M248 43.676L329.5 80.59C327.725 85.9118 302.528 104.606 299.4 104.876C296.272 105.147 255.482 50.7566 248 43.6309V43.676Z" fill="url(#paint15_radial_302_409)"/>
    <path fill-rule="evenodd" clip-rule="evenodd" d="M296.483 96.4296C281.222 77.8779 265.037 60.2518 248 43.6309C253.411 43.6309 330.169 75.507 330 81.118C322.329 87.0291 305.112 92.3723 296.483 96.4296Z" fill="url(#paint16_linear_302_409)"/>
    <path style="mix-blend-mode:screen" opacity="0.5" fill-rule="evenodd" clip-rule="evenodd" d="M273.128 109.356C280.663 120.441 287.066 133.164 286.805 144.249C286.108 178.072 314.158 159.24 304.793 206.542C299.392 234.003 312.546 238.349 310.847 259.701C309.628 274.943 300.743 278.596 298.957 304.861C297.171 331.126 297.694 369.232 303.312 381.703C316.379 410.298 296.779 457.663 301.309 485.439C304.623 506.86 306.519 528.688 306.971 550.629L304.401 554.912L306.927 557.242C306.94 561.765 306.485 566.266 305.577 570.595C299.305 594.088 295.124 577.334 287.719 608.386C282.885 628.478 266.682 631.753 250.044 628.226C223.344 622.558 205.312 597.364 182.576 597.301C162.541 597.301 153.83 622.117 132.88 625.455C120.641 627.407 108.14 622.243 95.3783 627.848C66.3267 640.445 81.0921 584.892 46.0299 575.193C20.7677 568.201 41.6744 491.486 42.197 470.386C43.373 413.132 31.5695 412.314 34.7491 342.085C35.3588 328.292 41.8485 320.859 35.4894 296.295L40.5855 294.217L34.3571 291.131C26.7784 253.34 53.957 208.116 42.0228 144.124C37.9825 125.702 36.43 106.329 37.4495 87.0591L51.91 83.0911L38.2771 80.8236C41.8051 60.1645 52.8246 47.8195 76.0832 50.2759C121.337 55.1257 134.448 61.8021 177.916 74.6511C193.291 79.186 211.236 83.5319 225.348 85.4845C251.873 89.1376 260.192 90.4603 273.259 109.608L273.128 109.356Z" fill="url(#paint17_radial_302_409)"/>
    <path style="mix-blend-mode:screen" opacity="0.5" fill-rule="evenodd" clip-rule="evenodd" d="M221.278 108.682C250.385 109.313 272.183 136.754 273.662 182.551C274.718 214.723 297.192 227.213 268.761 285.311C253.891 315.78 288.912 371.797 277.759 408.132C268.761 437.465 286.208 457.714 280.548 482.757C274.084 510.955 296.769 538.269 277.21 570.63C259.298 600.216 252.581 615.734 220.771 600.657C214.35 597.629 190.946 584.824 167.374 593.908C163.487 595.358 155.968 597.566 148.955 600.216C95.1353 621.096 123.059 584.571 83.0956 580.66C72.7457 579.588 73.2527 565.332 64.846 563.944C38.1473 559.528 43.4701 511.334 54.1158 478.089C61.2129 455.948 59.7344 427.119 51.8768 403.211C30.7545 339.751 50.863 302.28 68.7747 268.658C80.1386 247.652 68.1411 188.292 64.0433 169.935C54.3693 126.724 67.7609 121.677 78.2798 88.4963C84.9967 67.3639 117.314 70.3288 129.227 84.5852C152.799 112.72 212.322 108.43 221.278 108.619V108.682Z" fill="url(#paint18_radial_302_409)"/>
    <path style="mix-blend-mode:screen" fill-rule="evenodd" clip-rule="evenodd" d="M263.188 51.6083C266.964 68.5316 302.173 91.1797 313.5 89.5658C308.847 92.5296 301.529 94.1109 296.576 96.4297C281.309 77.8523 265.091 60.2248 248 43.6309C253.031 45.0509 257.941 46.9329 262.679 49.2566C262.733 50.0188 262.847 50.7747 263.018 51.5161L263.188 51.6083Z" fill="url(#paint19_radial_302_409)"/>
    <path style="mix-blend-mode:multiply" opacity="0.4" fill-rule="evenodd" clip-rule="evenodd" d="M271.074 651.264C302.512 650.826 311.594 626.24 314.083 596.962C314.083 616.293 314.607 635.562 315 654.893C258.237 655.518 136.851 654.079 80 652.077C124.668 649.262 139.951 642.068 178.55 632.121C204.748 625.364 209.639 630.932 234.658 642.568C246.352 648.479 258.675 651.421 271.074 651.264Z" fill="url(#paint20_radial_302_409)"/>
    <path style="mix-blend-mode:multiply" opacity="0.35" fill-rule="evenodd" clip-rule="evenodd" d="M242.909 42.2575C231.719 44.3048 220.618 47.3167 209.662 51.2782C198.084 55.0678 186.093 55.0678 174.514 51.2782C149.007 43.8067 123.218 38.6665 97.291 35.8862C157.025 35.8862 221.786 38.031 242.909 42.1944V42.2575Z" fill="url(#paint21_radial_302_409)"/>
    <defs>
        <radialGradient id="paint0_radial_302_409" cx="0" cy="0" r="1" gradientUnits="userSpaceOnUse" gradientTransform="translate(169.825 -11.5513) scale(492.193 734.966)">
            <stop stop-color="#9DA9AB"/>
            <stop offset="1" stop-color="#555763"/>
        </radialGradient>
        <radialGradient id="paint1_radial_302_409" cx="0" cy="0" r="1" gradientUnits="userSpaceOnUse" gradientTransform="translate(41.5696 -272.079) scale(752.674 1123.93)">
            <stop stop-color="#E2F1F7"/>
            <stop offset="1" stop-color="#9A9DB5"/>
        </radialGradient>
        <radialGradient id="paint2_radial_302_409" cx="0" cy="0" r="1" gradientUnits="userSpaceOnUse" gradientTransform="translate(-32.9505 -226.913) scale(272.14 406.373)">
            <stop stop-color="#717485"/>
            <stop offset="1" stop-color="#9DA9AB"/>
        </radialGradient>
        <radialGradient id="paint3_radial_302_409" cx="0" cy="0" r="1" gradientUnits="userSpaceOnUse" gradientTransform="translate(245.104 194.095) scale(273.365 408.202)">
            <stop stop-color="#AAB4B8"/>
            <stop offset="1" stop-color="#828599"/>
        </radialGradient>
        <radialGradient id="paint4_radial_302_409" cx="0" cy="0" r="1" gradientUnits="userSpaceOnUse" gradientTransform="translate(329.932 315.843) scale(374.922 559.851)">
            <stop stop-color="#9DA9AB"/>
            <stop offset="1" stop-color="#717485"/>
        </radialGradient>
        <radialGradient id="paint5_radial_302_409" cx="0" cy="0" r="1" gradientUnits="userSpaceOnUse" gradientTransform="translate(398.157 15.195) scale(158.249 236.304)">
            <stop stop-color="#717485"/>
            <stop offset="1" stop-color="#9DA9AB"/>
        </radialGradient>
        <radialGradient id="paint6_radial_302_409" cx="0" cy="0" r="1" gradientUnits="userSpaceOnUse" gradientTransform="translate(-35.9919 16.8983) scale(497.854 743.419)">
            <stop stop-color="#717485"/>
            <stop offset="1" stop-color="#9DA9AB"/>
        </radialGradient>
        <radialGradient id="paint7_radial_302_409" cx="0" cy="0" r="1" gradientUnits="userSpaceOnUse" gradientTransform="translate(-135.478 172.648) scale(398.326 594.798)">
            <stop stop-color="#717485"/>
            <stop offset="1" stop-color="#9DA9AB"/>
        </radialGradient>
        <radialGradient id="paint8_radial_302_409" cx="0" cy="0" r="1" gradientUnits="userSpaceOnUse" gradientTransform="translate(-40.8495 676.86) scale(201.634 301.089)">
            <stop stop-color="#717485"/>
            <stop offset="1" stop-color="#9DA9AB"/>
        </radialGradient>
        <radialGradient id="paint9_radial_302_409" cx="0" cy="0" r="1" gradientUnits="userSpaceOnUse" gradientTransform="translate(441.796 189.616) scale(504.908 753.954)">
            <stop stop-color="#717485"/>
            <stop offset="1" stop-color="#9DA9AB"/>
        </radialGradient>
        <radialGradient id="paint10_radial_302_409" cx="0" cy="0" r="1" gradientUnits="userSpaceOnUse" gradientTransform="translate(389.539 263.738) scale(173.668 259.329)">
            <stop stop-color="#717485"/>
            <stop offset="1" stop-color="#9DA9AB"/>
        </radialGradient>
        <radialGradient id="paint11_radial_302_409" cx="0" cy="0" r="1" gradientUnits="userSpaceOnUse" gradientTransform="translate(212.027 770.032) scale(269.183 401.957)">
            <stop stop-color="#717485"/>
            <stop offset="1" stop-color="#9DA9AB"/>
        </radialGradient>
        <radialGradient id="paint12_radial_302_409" cx="0" cy="0" r="1" gradientUnits="userSpaceOnUse" gradientTransform="translate(177.514 755.902) scale(269.859 402.967)">
            <stop stop-color="#717485"/>
            <stop offset="1" stop-color="#9DA9AB"/>
        </radialGradient>
        <radialGradient id="paint13_radial_302_409" cx="0" cy="0" r="1" gradientUnits="userSpaceOnUse" gradientTransform="translate(162.515 474.431) scale(454.553 678.76)">
            <stop stop-color="#706F6F"/>
            <stop offset="1" stop-color="white"/>
        </radialGradient>
        <linearGradient id="paint14_linear_302_409" x1="170.275" y1="655.887" x2="170.275" y2="35.2846" gradientUnits="userSpaceOnUse">
            <stop stop-color="#EDD6B9"/>
            <stop offset="1" stop-color="#D4B492"/>
        </linearGradient>
        <radialGradient id="paint15_radial_302_409" cx="0" cy="0" r="1" gradientUnits="userSpaceOnUse" gradientTransform="translate(303.669 52.1998) scale(94.2617 100.573)">
            <stop stop-color="#A48A7B"/>
            <stop offset="1" stop-color="white"/>
        </radialGradient>
        <linearGradient id="paint16_linear_302_409" x1="286.719" y1="60.096" x2="253.028" y2="90.6396" gradientUnits="userSpaceOnUse">
            <stop stop-color="#BF9F7E"/>
            <stop offset="1" stop-color="#EDD6B9"/>
        </linearGradient>
        <radialGradient id="paint17_radial_302_409" cx="0" cy="0" r="1" gradientUnits="userSpaceOnUse" gradientTransform="translate(171.992 339.692) scale(316.518 457.712)">
            <stop stop-color="#CA9E67"/>
            <stop offset="1"/>
        </radialGradient>
        <radialGradient id="paint18_radial_302_409" cx="0" cy="0" r="1" gradientUnits="userSpaceOnUse" gradientTransform="translate(164.121 340.003) scale(261.833 390.981)">
            <stop stop-color="#CA9E67"/>
            <stop offset="1"/>
        </radialGradient>
        <radialGradient id="paint19_radial_302_409" cx="0" cy="0" r="1" gradientUnits="userSpaceOnUse" gradientTransform="translate(284.103 21.8658) scale(78.8667 85.7231)">
            <stop/>
            <stop offset="1" stop-color="#A3805F"/>
        </radialGradient>
        <radialGradient id="paint20_radial_302_409" cx="0" cy="0" r="1" gradientUnits="userSpaceOnUse" gradientTransform="translate(222.345 490.422) scale(278.708 399.322)">
            <stop stop-color="white"/>
            <stop offset="1" stop-color="#A48A7B"/>
        </radialGradient>
        <radialGradient id="paint21_radial_302_409" cx="0" cy="0" r="1" gradientUnits="userSpaceOnUse" gradientTransform="translate(178.612 -151.782) scale(235.768 352.059)">
            <stop stop-color="#A48A7B"/>
            <stop offset="1" stop-color="white"/>
        </radialGradient>
    </defs>
</svg>
