<svg width="319" height="35" viewBox="0 0 319 35" fill="none" xmlns="http://www.w3.org/2000/svg">
    <path fill-rule="evenodd" clip-rule="evenodd" d="M318.942 3.25272C319.024 12.2563 318.577 21.2571 317.602 30.2091C316.349 32.1062 314.724 33.7353 312.825 35H6.58261C4.67921 33.7402 3.05404 32.1102 1.80577 30.2091C0.480527 21.8865 -0.123644 13.4668 -0.000120196 5.04214L318.942 3.25272Z" fill="url(#paint0_radial_214_1011)"/>
    <path fill-rule="evenodd" clip-rule="evenodd" d="M4.77673 0.251181H314.165C315.928 0.956311 317.546 1.97338 318.942 3.25272C318.903 10.9669 318.455 18.6738 317.602 26.3416C316.349 28.2388 314.724 29.8679 312.825 31.1326H6.58262C4.66511 29.8898 3.03672 28.2566 1.80577 26.3416C0.479804 19.2815 -0.125217 12.107 -0.000114724 4.92667C1.05521 2.87962 2.72375 1.20613 4.77673 0.135712V0.251181Z" fill="url(#paint1_linear_214_1011)"/>
    <g style="mix-blend-mode:screen" opacity="0.5">
        <path fill-rule="evenodd" clip-rule="evenodd" d="M2.15541 3.19501H316.728L318.884 4.17628V3.2527C317.488 1.97336 315.87 0.956289 314.107 0.25116H4.77683C2.9907 1.1987 1.4848 2.59135 0.407768 4.2917C0.959534 3.88006 1.544 3.51333 2.15541 3.19501Z" fill="#EDF5F7"/>
    </g>
    <path d="M16.9 18.546C16.1309 18.546 15.3932 18.2299 14.8494 17.6673C14.3055 17.1047 14 16.3416 14 15.546C14 14.7503 14.3055 13.9873 14.8494 13.4247C15.3932 12.8621 16.1309 12.546 16.9 12.546H301.1C301.869 12.546 302.607 12.8621 303.151 13.4247C303.694 13.9873 304 14.7503 304 15.546C304 16.3416 303.694 17.1047 303.151 17.6673C302.607 18.2299 301.869 18.546 301.1 18.546H16.9Z" fill="url(#paint2_linear_214_1011)"/>
    <g style="mix-blend-mode:screen" opacity="0.5">
        <path fill-rule="evenodd" clip-rule="evenodd" d="M16.6494 18.1243C15.9414 18.103 15.2652 17.8472 14.7435 17.4033C14.2217 16.9593 13.8892 16.3567 13.8063 15.7049V17.8555C13.8063 18.5542 14.1058 19.2242 14.639 19.7183C15.1722 20.2123 15.8953 20.4899 16.6494 20.4899H300.963C301.717 20.4899 302.44 20.2123 302.974 19.7183C303.507 19.2242 303.806 18.5542 303.806 17.8555V15.4899C303.806 16.1886 303.507 16.8586 302.974 17.3527C302.44 17.8467 301.717 18.1243 300.963 18.1243H16.6494Z" fill="#EDF5F7"/>
    </g>
    <defs>
        <radialGradient id="paint0_radial_214_1011" cx="0" cy="0" r="1" gradientUnits="userSpaceOnUse" gradientTransform="translate(159.5 19.1264) scale(113.363 112.328)">
            <stop stop-color="#697173"/>
            <stop offset="1" stop-color="#4D4E59"/>
        </radialGradient>
        <linearGradient id="paint1_linear_214_1011" x1="159.5" y1="31.2481" x2="159.5" y2="0.251155" gradientUnits="userSpaceOnUse">
            <stop stop-color="#717485"/>
            <stop offset="1" stop-color="#9DA9AB"/>
        </linearGradient>
        <linearGradient id="paint2_linear_214_1011" x1="159.116" y1="18.546" x2="159.116" y2="12.666" gradientUnits="userSpaceOnUse">
            <stop stop-color="#697173"/>
            <stop offset="1" stop-color="#4D4E59"/>
        </linearGradient>
    </defs>
</svg>
