<svg width="167" height="129" viewBox="0 0 167 129" fill="none" xmlns="http://www.w3.org/2000/svg">
    <path d="M35.0643 128.409C49.0701 128.268 53.4909 127.922 49.5314 121.804C47.2153 118.042 45.9826 113.715 45.9691 109.298C45.8819 106.766 46.3024 104.241 47.2061 101.874C48.1097 99.506 49.4781 97.3426 51.2309 95.5109C52.9836 93.6791 55.0854 92.2159 57.4125 91.2073C59.7396 90.1987 62.2451 89.6651 64.7816 89.6378C67.3182 89.6105 69.8346 90.09 72.183 91.0483C74.5313 92.0066 76.6641 93.4242 78.456 95.2178C80.2479 97.0114 81.6626 99.1447 82.6171 101.492C83.5716 103.84 84.0466 106.355 84.014 108.889C84.0907 113.306 82.9468 117.66 80.708 121.471C76.8638 127.666 81.2975 127.871 95.3161 127.781L128.633 127.436L128.287 94.1557C128.146 80.1525 128.402 75.7493 134.604 79.5637C138.419 81.8 142.777 82.9426 147.2 82.8661C149.737 82.9011 152.256 82.4289 154.607 81.4774C156.959 80.5259 159.096 79.1142 160.893 77.3254C162.691 75.5366 164.112 73.4069 165.073 71.0614C166.034 68.7159 166.516 66.2021 166.491 63.6679C166.465 61.1336 165.932 58.63 164.924 56.3045C163.915 53.9789 162.451 51.8782 160.618 50.1261C158.785 48.374 156.62 47.0057 154.249 46.1018C151.879 45.198 149.352 44.7767 146.816 44.8629C142.39 44.8748 138.054 46.1061 134.284 48.4213C128.159 52.3765 127.877 47.9733 127.672 33.9701V31.5381L127.326 0.728516L13.2804 0.728516C9.88188 0.728516 6.62257 2.07708 4.21946 4.47755C1.81636 6.87801 0.466309 10.1337 0.466309 13.5285L0.466309 128.729L35.0643 128.409Z" fill="white"/>
    <path d="M35.0643 128.409C49.0701 128.268 53.4909 127.922 49.5314 121.804C47.2153 118.042 45.9826 113.715 45.9691 109.298C45.8819 106.766 46.3024 104.241 47.2061 101.874C48.1097 99.506 49.4781 97.3426 51.2309 95.5109C52.9836 93.6791 55.0854 92.2159 57.4125 91.2073C59.7396 90.1987 62.2451 89.6651 64.7816 89.6378C67.3182 89.6105 69.8346 90.09 72.183 91.0483C74.5313 92.0066 76.6641 93.4242 78.456 95.2178C80.2479 97.0114 81.6626 99.1447 82.6171 101.492C83.5716 103.84 84.0466 106.355 84.014 108.889C84.0907 113.306 82.9468 117.66 80.708 121.471C76.8638 127.666 81.2975 127.871 95.3161 127.781L128.633 127.436L128.287 94.1557C128.146 80.1525 128.402 75.7493 134.604 79.5637C138.419 81.8 142.777 82.9426 147.2 82.8661C149.737 82.9011 152.256 82.4289 154.607 81.4774C156.959 80.5259 159.096 79.1142 160.893 77.3254C162.691 75.5366 164.112 73.4069 165.073 71.0614C166.034 68.7159 166.516 66.2021 166.491 63.6679C166.465 61.1336 165.932 58.63 164.924 56.3045C163.915 53.9789 162.451 51.8782 160.618 50.1261C158.785 48.374 156.62 47.0057 154.249 46.1018C151.879 45.198 149.352 44.7767 146.816 44.8629C142.39 44.8748 138.054 46.1061 134.284 48.4213C128.159 52.3765 127.877 47.9733 127.672 33.9701V31.5381L127.326 0.728516L13.2804 0.728516C9.88188 0.728516 6.62257 2.07708 4.21946 4.47755C1.81636 6.87801 0.466309 10.1337 0.466309 13.5285L0.466309 128.729L35.0643 128.409Z" fill="url(#paint0_linear_224_679)"/>
    <mask id="mask0_224_679" style="mask-type:alpha" maskUnits="userSpaceOnUse" x="0" y="0" width="167" height="129">
        <path d="M35.0643 128.409C49.0701 128.268 53.4909 127.922 49.5314 121.804C47.2153 118.042 45.9826 113.715 45.9691 109.298C45.8819 106.766 46.3024 104.241 47.2061 101.874C48.1097 99.506 49.4781 97.3426 51.2309 95.5109C52.9836 93.6791 55.0854 92.2159 57.4125 91.2073C59.7396 90.1987 62.2451 89.6651 64.7816 89.6378C67.3182 89.6105 69.8346 90.09 72.183 91.0483C74.5313 92.0066 76.6641 93.4242 78.456 95.2178C80.2479 97.0114 81.6626 99.1447 82.6171 101.492C83.5716 103.84 84.0466 106.355 84.014 108.889C84.0907 113.306 82.9468 117.66 80.708 121.471C76.8638 127.666 81.2975 127.871 95.3161 127.781L128.633 127.436L128.287 94.1557C128.146 80.1525 128.402 75.7493 134.604 79.5637C138.419 81.8 142.777 82.9426 147.2 82.8661C149.737 82.9011 152.256 82.4289 154.607 81.4774C156.959 80.5259 159.096 79.1142 160.893 77.3254C162.691 75.5366 164.112 73.4069 165.073 71.0614C166.034 68.7159 166.516 66.2021 166.491 63.6679C166.465 61.1336 165.932 58.63 164.924 56.3045C163.915 53.9789 162.451 51.8782 160.618 50.1261C158.785 48.374 156.62 47.0057 154.249 46.1018C151.879 45.198 149.352 44.7767 146.816 44.8629C142.39 44.8748 138.054 46.1061 134.284 48.4213C128.159 52.3765 127.877 47.9733 127.672 33.9701V31.5381L127.326 0.728516L13.2804 0.728516C9.88188 0.728516 6.62257 2.07708 4.21946 4.47755C1.81636 6.87801 0.466309 10.1337 0.466309 13.5285L0.466309 128.729L35.0643 128.409Z" fill="white"/>
        <path d="M35.0643 128.409C49.0701 128.268 53.4909 127.922 49.5314 121.804C47.2153 118.042 45.9826 113.715 45.9691 109.298C45.8819 106.766 46.3024 104.241 47.2061 101.874C48.1097 99.506 49.4781 97.3426 51.2309 95.5109C52.9836 93.6791 55.0854 92.2159 57.4125 91.2073C59.7396 90.1987 62.2451 89.6651 64.7816 89.6378C67.3182 89.6105 69.8346 90.09 72.183 91.0483C74.5313 92.0066 76.6641 93.4242 78.456 95.2178C80.2479 97.0114 81.6626 99.1447 82.6171 101.492C83.5716 103.84 84.0466 106.355 84.014 108.889C84.0907 113.306 82.9468 117.66 80.708 121.471C76.8638 127.666 81.2975 127.871 95.3161 127.781L128.633 127.436L128.287 94.1557C128.146 80.1525 128.402 75.7493 134.604 79.5637C138.419 81.8 142.777 82.9426 147.2 82.8661C149.737 82.9011 152.256 82.4289 154.607 81.4774C156.959 80.5259 159.096 79.1142 160.893 77.3254C162.691 75.5366 164.112 73.4069 165.073 71.0614C166.034 68.7159 166.516 66.2021 166.491 63.6679C166.465 61.1336 165.932 58.63 164.924 56.3045C163.915 53.9789 162.451 51.8782 160.618 50.1261C158.785 48.374 156.62 47.0057 154.249 46.1018C151.879 45.198 149.352 44.7767 146.816 44.8629C142.39 44.8748 138.054 46.1061 134.284 48.4213C128.159 52.3765 127.877 47.9733 127.672 33.9701V31.5381L127.326 0.728516L13.2804 0.728516C9.88188 0.728516 6.62257 2.07708 4.21946 4.47755C1.81636 6.87801 0.466309 10.1337 0.466309 13.5285L0.466309 128.729L35.0643 128.409Z" fill="url(#paint1_linear_224_679)"/>
    </mask>
    <g mask="url(#mask0_224_679)">
        <g filter="url(#filter0_f_224_679)">
            <path d="M36.7499 68.2686C36.7499 68.9299 36.8326 69.3356 36.9981 69.4859C37.1636 69.6362 37.6149 69.7114 38.3521 69.7114V70.2524H32.3947V69.7114C33.1319 69.7114 33.5832 69.6362 33.7487 69.4859C33.9142 69.3356 33.9969 68.9299 33.9969 68.2686V62.1367C32.8385 62.1367 31.9209 62.1217 31.2439 62.0916C30.582 62.0465 29.9576 61.9413 29.3709 61.776C28.7842 61.6107 28.363 61.4228 28.1073 61.2124C27.8515 60.987 27.6259 60.6188 27.4303 60.1078C27.2347 59.5968 27.1144 59.0557 27.0693 58.4846C27.0392 57.8985 27.0241 57.102 27.0241 56.095C27.0241 55.4337 26.9414 55.0279 26.7759 54.8777C26.6104 54.7123 26.1591 54.6297 25.422 54.6297V54.0886H31.3567V54.6297C30.6346 54.6297 30.1908 54.7048 30.0253 54.8551C29.8599 55.0054 29.7771 55.4187 29.7771 56.095C29.7771 57.0118 29.7846 57.7257 29.7997 58.2367C29.8298 58.7476 29.8975 59.2361 30.0028 59.702C30.1231 60.1679 30.2585 60.506 30.409 60.7165C30.5744 60.9118 30.8302 61.0922 31.1762 61.2575C31.5222 61.4078 31.8983 61.498 32.3045 61.528C32.7257 61.5581 33.2898 61.5731 33.9969 61.5731V56.095C33.9969 55.4337 33.9142 55.0279 33.7487 54.8777C33.5832 54.7123 33.1319 54.6297 32.3947 54.6297V54.0886H38.3521V54.6297C37.6149 54.6297 37.1636 54.7123 36.9981 54.8777C36.8326 55.0279 36.7499 55.4337 36.7499 56.095V68.2686Z" fill="#374A4B"/>
            <path d="M42.8101 70.2524V59.2737C42.2084 59.2737 41.7646 59.2962 41.4787 59.3413C41.1929 59.3864 40.9296 59.5066 40.6889 59.702C40.4633 59.8974 40.3204 60.1829 40.2602 60.5587C40.2 60.9344 40.1699 61.4754 40.1699 62.1818H39.6058C39.6058 61.6107 39.5456 61.0847 39.4253 60.6037C39.3049 60.1078 39.1846 59.7621 39.0642 59.5667L38.8837 59.2737V58.7101L49.0382 58.7101V59.2737C48.5418 59.9199 48.2936 60.8893 48.2936 62.1818H47.752C47.752 61.4754 47.7219 60.9344 47.6617 60.5587C47.6015 60.1829 47.4511 59.8974 47.2104 59.702C46.9847 59.5066 46.729 59.3864 46.4432 59.3413C46.1573 59.2962 45.7136 59.2737 45.1118 59.2737V70.2524H42.8101Z" fill="#374A4B"/>
            <path d="M55.4144 69.1478C56.0612 68.6669 56.49 68.1934 56.7006 67.7275C56.9112 67.2616 57.0165 66.6304 57.0165 65.8339C57.0165 65.1876 56.8736 64.5489 56.5878 63.9177C56.317 63.2714 56.0086 62.7379 55.6626 62.3171C55.3166 61.8962 54.933 61.4379 54.5117 60.9419C54.0905 60.4459 53.8047 60.0702 53.6542 59.8147C52.9472 60.2806 52.4733 60.7465 52.2326 61.2124C51.9919 61.6783 51.8716 62.3095 51.8716 63.1061C51.8716 63.7674 52.0295 64.4286 52.3454 65.0899C52.6614 65.7362 53.0074 66.2697 53.3835 66.6905C53.7746 67.0963 54.1732 67.5397 54.5794 68.0206C55.0007 68.4865 55.279 68.8622 55.4144 69.1478ZM54.6697 58.4846C55.9785 59.0557 57.0993 59.9725 58.032 61.235C58.9797 62.4824 59.4536 63.5795 59.4536 64.5263C59.4536 65.0974 59.2881 65.7512 58.9572 66.4876C58.6412 67.209 58.0696 67.9755 57.2422 68.7871C56.4298 69.5836 55.4595 70.1773 54.3312 70.568C53.0224 69.9969 51.8941 69.0877 50.9464 67.8402C50.0137 66.5778 49.5473 65.4732 49.5473 64.5263C49.5473 63.9552 49.7053 63.309 50.0212 62.5876C50.3521 61.8512 50.9238 61.0847 51.7362 60.2881C52.5636 59.4766 53.5414 58.8754 54.6697 58.4846Z" fill="#374A4B"/>
            <path d="M69.0792 70.2524H60.7525V58.7101H68.2894V59.2737C67.7929 59.9199 67.5447 60.8893 67.5447 62.1818H67.0031C67.0031 60.9344 66.8527 60.1378 66.5518 59.7922C66.266 59.4465 65.6116 59.2737 64.5886 59.2737H63.0767V63.6922C64.7315 63.7373 65.9651 63.9402 66.7775 64.3009C67.6049 64.6616 68.1916 65.3003 68.5376 66.2171C68.8987 67.1189 69.0792 68.464 69.0792 70.2524ZM63.0767 69.6888H66.7775C66.7474 67.8853 66.4691 66.5703 65.9426 65.7437C65.416 64.9171 64.4608 64.4362 63.0767 64.3009V69.6888Z" fill="#374A4B"/>
            <path d="M81.1418 58.7101H83.4661V70.2524H81.1418V58.7101ZM70.6037 58.7101H72.928V62.8581L74.6881 61.8436C75.335 62.3697 76.1624 63.3841 77.1703 64.887C78.1933 66.3899 79.1034 68.1784 79.9007 70.2524L70.6037 70.2524V58.7101ZM72.928 69.6888H76.8544C76.4783 68.246 76.0044 66.9235 75.4328 65.7211C74.8611 64.5188 74.3346 63.602 73.8532 62.9708L72.928 63.4893V69.6888Z" fill="#374A4B"/>
            <path d="M93.0366 70.2524H90.7124V58.7101H93.0366V62.1818L96.963 64.9096V58.7101H99.2647V70.2524H96.963V65.8113L93.0366 63.0835V70.2524Z" fill="#374A4B"/>
            <path d="M106.95 59.0933L108.913 70.2524H106.566L106.295 68.8547C105.393 69.9368 104.219 70.4779 102.775 70.4779C101.918 70.4779 101.301 70.2148 100.925 69.6888C100.564 69.1628 100.383 68.5692 100.383 67.9079C100.383 65.9691 101.91 63.7223 104.964 61.1673L104.513 58.7101H106.408C106.724 58.7101 106.905 58.8378 106.95 59.0933ZM106.137 67.8628L105.054 61.776C103.384 63.1737 102.549 64.6541 102.549 66.2171C102.549 66.8032 102.7 67.3743 103.001 67.9304C103.302 68.4715 103.76 68.742 104.377 68.742C105.129 68.742 105.716 68.4489 106.137 67.8628Z" fill="#374A4B"/>
            <path d="M114.183 57.2898C111.972 57.2898 110.866 56.854 110.866 55.9823C110.866 55.6667 110.941 55.4187 111.092 55.2383C111.242 55.043 111.43 54.9453 111.656 54.9453C111.972 54.9453 112.19 55.058 112.31 55.2834C112.431 55.5089 112.491 55.8621 112.491 56.343C112.912 56.5985 113.476 56.7262 114.183 56.7262C114.499 56.7262 114.8 56.6962 115.086 56.6361C115.387 56.5759 115.597 56.5158 115.718 56.4557L115.898 56.343C115.898 55.8621 115.958 55.5089 116.079 55.2834C116.199 55.058 116.417 54.9453 116.733 54.9453C116.959 54.9453 117.147 55.043 117.297 55.2383C117.448 55.4187 117.523 55.6667 117.523 55.9823C117.523 56.854 116.41 57.2898 114.183 57.2898ZM116.169 58.7101H118.471V70.2524H116.169V62.6327L112.243 67.3217V70.2524H109.918V58.7101H112.243V66.172L116.169 61.5055V58.7101Z" fill="#374A4B"/>
            <path d="M122.929 70.2524V59.2737C122.327 59.2737 121.883 59.2962 121.597 59.3413C121.312 59.3864 121.048 59.5066 120.808 59.702C120.582 59.8974 120.439 60.1829 120.379 60.5587C120.319 60.9344 120.289 61.4754 120.289 62.1818H119.725C119.725 61.6107 119.664 61.0847 119.544 60.6037C119.424 60.1078 119.303 59.7621 119.183 59.5667L119.002 59.2737V58.7101H129.157V59.2737C128.66 59.9199 128.412 60.8893 128.412 62.1818H127.871C127.871 61.4754 127.841 60.9344 127.78 60.5587C127.72 60.1829 127.57 59.8974 127.329 59.702C127.103 59.5066 126.848 59.3864 126.562 59.3413C126.276 59.2962 125.832 59.2737 125.231 59.2737V70.2524H122.929Z" fill="#374A4B"/>
            <path d="M136.052 58.7101H138.354V70.2524H136.052V62.6327L132.126 67.3217V70.2524H129.801V58.7101H132.126V66.172L136.052 61.5055V58.7101Z" fill="#374A4B"/>
            <path d="M157.176 59.0933L159.139 70.2524H156.77L155.236 61.4379C155.07 61.7084 154.784 62.1142 154.378 62.6552C153.987 63.1963 153.648 63.7148 153.363 64.2107C153.077 64.7067 152.859 65.2177 152.708 65.7437L153.498 70.2524H151.151L149.662 61.8436C148.157 64.0078 147.405 66.5102 147.405 69.3507C147.405 69.7114 147.435 70.012 147.496 70.2524H145.036C145.066 69.2004 145.119 68.3963 145.194 67.8402C145.269 67.2842 145.45 66.6229 145.735 65.8564C146.021 65.0899 146.458 64.3234 147.044 63.557C147.631 62.7754 148.443 61.8436 149.481 60.7615L149.098 58.7101H150.993C151.309 58.7101 151.49 58.8378 151.535 59.0933L152.37 63.85C152.46 63.7448 152.648 63.5344 152.934 63.2188C153.235 62.8882 153.453 62.6402 153.588 62.4749C153.724 62.3095 153.897 62.0916 154.107 61.8211C154.333 61.5506 154.521 61.3026 154.671 61.0772C154.822 60.8517 154.95 60.6263 155.055 60.4008L154.739 58.7101H156.68C156.966 58.7101 157.131 58.8378 157.176 59.0933Z" fill="#374A4B"/>
            <path d="M166.012 69.1478C166.659 68.6669 167.088 68.1934 167.298 67.7275C167.509 67.2616 167.614 66.6304 167.614 65.8339C167.614 65.1876 167.471 64.5489 167.185 63.9177C166.915 63.2714 166.606 62.7379 166.26 62.3171C165.914 61.8962 165.531 61.4379 165.109 60.9419C164.688 60.4459 164.402 60.0702 164.252 59.8147C163.545 60.2806 163.071 60.7465 162.83 61.2124C162.59 61.6783 162.469 62.3095 162.469 63.1061C162.469 63.7674 162.627 64.4286 162.943 65.0899C163.259 65.7362 163.605 66.2697 163.981 66.6905C164.372 67.0963 164.771 67.5397 165.177 68.0206C165.598 68.4865 165.877 68.8622 166.012 69.1478ZM165.267 58.4846C166.576 59.0557 167.697 59.9725 168.63 61.235C169.577 62.4824 170.051 63.5795 170.051 64.5263C170.051 65.0974 169.886 65.7512 169.555 66.4876C169.239 67.209 168.667 67.9755 167.84 68.7871C167.027 69.5836 166.057 70.1773 164.929 70.568C163.62 69.9969 162.492 69.0877 161.544 67.8402C160.611 66.5778 160.145 65.4732 160.145 64.5263C160.145 63.9552 160.303 63.309 160.619 62.5876C160.95 61.8512 161.521 61.0847 162.334 60.2881C163.161 59.4766 164.139 58.8754 165.267 58.4846Z" fill="#374A4B"/>
            <path d="M178.187 59.0933L180.151 70.2524H177.781L176.292 61.7084C174.442 64.0078 173.516 66.5928 173.516 69.4634C173.516 69.8241 173.524 70.0871 173.539 70.2524H171.079C171.139 68.4339 171.47 66.931 172.072 65.7437C172.689 64.5564 174.035 62.8957 176.111 60.7615L175.75 58.7101H177.646C177.962 58.7101 178.142 58.8378 178.187 59.0933Z" fill="#374A4B"/>
            <path d="M187.001 69.1478C187.648 68.6669 188.076 68.1934 188.287 67.7275C188.498 67.2616 188.603 66.6304 188.603 65.8339C188.603 65.1876 188.46 64.5489 188.174 63.9177C187.903 63.2714 187.595 62.7379 187.249 62.3171C186.903 61.8962 186.519 61.4379 186.098 60.9419C185.677 60.4459 185.391 60.0702 185.241 59.8147C184.534 60.2806 184.06 60.7465 183.819 61.2124C183.578 61.6783 183.458 62.3095 183.458 63.1061C183.458 63.7674 183.616 64.4286 183.932 65.0899C184.248 65.7362 184.594 66.2697 184.97 66.6905C185.361 67.0963 185.76 67.5397 186.166 68.0206C186.587 68.4865 186.865 68.8622 187.001 69.1478ZM186.256 58.4846C187.565 59.0557 188.686 59.9725 189.618 61.235C190.566 62.4824 191.04 63.5795 191.04 64.5263C191.04 65.0974 190.874 65.7512 190.543 66.4876C190.228 67.209 189.656 67.9755 188.828 68.7871C188.016 69.5836 187.046 70.1773 185.918 70.568C184.609 69.9969 183.48 69.0877 182.533 67.8402C181.6 66.5778 181.134 65.4732 181.134 64.5263C181.134 63.9552 181.292 63.309 181.607 62.5876C181.938 61.8512 182.51 61.0847 183.322 60.2881C184.15 59.4766 185.128 58.8754 186.256 58.4846Z" fill="#374A4B"/>
            <path d="M201.613 70.2524H195.34C194.829 70.6732 194.415 71.2218 194.099 71.8981C193.798 72.5894 193.648 73.2282 193.648 73.8143H193.083C193.083 73.2432 192.986 72.6571 192.79 72.0559C192.595 71.4547 192.391 71.0039 192.181 70.7033L191.888 70.2524V69.6888H194.483L197.439 58.7101H199.785L202.742 69.6888H205.066V70.2524C204.976 70.3727 204.863 70.538 204.727 70.7484C204.592 70.9738 204.411 71.3946 204.186 72.0108C203.96 72.642 203.847 73.2432 203.847 73.8143H203.306C203.306 73.2282 203.148 72.5894 202.832 71.8981C202.531 71.2218 202.125 70.6732 201.613 70.2524ZM195.024 69.6888H200.35L197.687 59.7922L195.024 69.6888Z" fill="#374A4B"/>
            <path d="M216.88 58.7101H219.205V70.2524H216.88V58.7101ZM206.342 58.7101H208.666V62.8581L210.426 61.8436C211.073 62.3697 211.901 63.3841 212.909 64.887C213.932 66.3899 214.842 68.1784 215.639 70.2524H206.342V58.7101ZM208.666 69.6888H212.593C212.217 68.246 211.743 66.9235 211.171 65.7211C210.599 64.5188 210.073 63.602 209.592 62.9708L208.666 63.4893V69.6888Z" fill="#374A4B"/>
            <path d="M221.835 58.7101H223.234L225.287 62.2494L227.025 59.2286C227.1 59.0933 227.175 59.0031 227.25 58.9581C227.326 58.8979 227.536 58.8453 227.882 58.8002C228.228 58.7401 228.74 58.7101 229.417 58.7101C229.642 58.7101 229.755 58.8002 229.755 58.9806C229.755 59.2661 229.703 59.7546 229.597 60.4459C229.507 61.1222 229.402 61.4604 229.281 61.4604H227.95C226.972 61.4604 226.401 61.6257 226.235 61.9564L225.671 62.9483L229.913 70.2524H227.25L224.385 65.2928L221.609 70.2524H220.684L223.978 64.5489L221.293 59.9274C221.173 59.7321 221.113 59.5292 221.113 59.3187C221.113 58.913 221.353 58.7101 221.835 58.7101Z" fill="#374A4B"/>
            <path d="M40.7779 79.9056C40.0407 79.0339 39.612 78.4929 39.4916 78.2825C38.7846 78.7484 38.3107 79.2143 38.07 79.6802C37.8293 80.1461 37.7089 80.7773 37.7089 81.5738C37.7089 82.2351 37.8669 82.8964 38.1828 83.5577C38.4987 84.2039 38.8523 84.7375 39.2434 85.1583C39.6345 85.5641 40.0332 86.0074 40.4394 86.4884C40.8606 86.9543 41.1389 87.33 41.2743 87.6155C42.0415 87.0444 42.5154 86.4583 42.6959 85.8571L43.9596 86.3306C43.0118 87.578 41.7557 88.4797 40.1911 89.0358C38.8823 88.4647 37.7541 87.5554 36.8063 86.308C35.8736 85.0456 35.4072 83.9409 35.4072 82.9941C35.4072 82.423 35.5652 81.7767 35.8811 81.0553C36.2121 80.3189 36.7837 79.5524 37.5961 78.7559C38.4085 77.9443 39.3788 77.3431 40.5071 76.9524C41.3796 77.3281 42.2221 77.9218 43.0344 78.7333L40.7779 79.9056Z" fill="#374A4B"/>
            <path d="M47.2894 88.7202H44.9651L44.9651 77.1778H53.5175L53.5175 88.7202H51.2158L51.2158 77.7414H47.2894L47.2894 88.7202Z" fill="#374A4B"/>
            <path d="M61.3153 77.7414L57.4791 79.5224V82.1149L59.9162 80.9877L60.8414 82.3178L57.4791 83.8958V86.6462C57.4791 87.1271 57.6446 87.3676 57.9755 87.3676C58.0809 87.3676 58.1561 87.3525 58.2012 87.3225L60.4803 86.2178L61.9471 87.345L58.7879 88.8104C58.4269 88.9757 58.0508 89.0583 57.6596 89.0583C56.9827 89.0583 56.396 88.8329 55.8995 88.382C55.4181 87.9312 55.1774 87.2999 55.1774 86.4884V79.8154C55.1774 79.1391 55.4632 78.6807 56.0349 78.4403L59.3295 76.9073L61.3153 77.7414Z" fill="#374A4B"/>
            <path d="M69.9931 77.1778H72.3173V88.1566H75.7473V88.7202C75.6571 88.8404 75.5442 89.0057 75.4088 89.2161C75.2734 89.4416 75.0929 89.8624 74.8673 90.4786C74.6566 91.1098 74.5513 91.711 74.5513 92.2821H74.0098C74.0098 91.6959 73.8518 91.0572 73.5359 90.3659C73.235 89.6896 72.8288 89.141 72.3173 88.7202H63.765V77.1778H66.0667V88.1566H69.9931V77.1778Z" fill="#374A4B"/>
            <path d="M82.7327 77.1778H85.0344V88.7202H82.7327V81.1004L78.8063 85.7895V88.7202H76.4821V77.1778L78.8063 77.1778V84.6398L82.7327 79.9732V77.1778Z" fill="#374A4B"/>
            <path d="M92.7194 77.5611L94.6826 88.7202H92.3357L92.065 87.3225C91.1623 88.4046 89.9889 88.9456 88.5447 88.9456C87.6872 88.9456 87.0704 88.6826 86.6943 88.1566C86.3333 87.6306 86.1528 87.0369 86.1528 86.3756C86.1528 84.4369 87.6797 82.19 90.7336 79.6351L90.2823 77.1778H92.1778C92.4937 77.1778 92.6742 77.3056 92.7194 77.5611ZM91.907 86.3306L90.8238 80.2438C89.154 81.6415 88.3191 83.1218 88.3191 84.6849C88.3191 85.271 88.4695 85.8421 88.7704 86.3982C89.0713 86.9392 89.5301 87.2098 90.1469 87.2098C90.8991 87.2098 91.4858 86.9167 91.907 86.3306Z" fill="#374A4B"/>
            <path d="M102.525 77.5611L104.489 88.7202H102.119L100.63 80.1761C98.7796 82.4756 97.8544 85.0606 97.8544 87.9312C97.8544 88.2918 97.8619 88.5549 97.8769 88.7202H95.4173C95.4775 86.9017 95.8084 85.3987 96.4102 84.2114C97.027 83.0241 98.3734 81.3634 100.449 79.2293L100.088 77.1778H101.984C102.3 77.1778 102.48 77.3056 102.525 77.5611Z" fill="#374A4B"/>
            <path d="M111.858 77.1778H114.159V88.7202H111.858V81.1004L107.931 85.7895V88.7202H105.607V77.1778H107.931V84.6398L111.858 79.9732V77.1778Z" fill="#374A4B"/>
            <path d="M120.49 79.9056C119.753 79.0339 119.325 78.4929 119.204 78.2825C118.497 78.7484 118.023 79.2143 117.783 79.6802C117.542 80.1461 117.421 80.7773 117.421 81.5738C117.421 82.2351 117.579 82.8964 117.895 83.5577C118.211 84.2039 118.565 84.7375 118.956 85.1583C119.347 85.5641 119.746 86.0074 120.152 86.4884C120.573 86.9543 120.851 87.33 120.987 87.6155C121.754 87.0444 122.228 86.4583 122.408 85.8571L123.672 86.3306C122.724 87.578 121.468 88.4797 119.904 89.0358C118.595 88.4647 117.467 87.5554 116.519 86.308C115.586 85.0456 115.12 83.9409 115.12 82.9941C115.12 82.423 115.278 81.7767 115.594 81.0553C115.925 80.3189 116.496 79.5524 117.309 78.7559C118.121 77.9443 119.091 77.3431 120.22 76.9524C121.092 77.3281 121.935 77.9218 122.747 78.7333L120.49 79.9056Z" fill="#374A4B"/>
            <path d="M127.769 88.7202V77.7414C127.167 77.7414 126.724 77.764 126.438 77.8091C126.152 77.8541 125.889 77.9744 125.648 78.1698C125.422 78.3651 125.279 78.6507 125.219 79.0264C125.159 79.4021 125.129 79.9432 125.129 80.6496H124.565C124.565 80.0784 124.505 79.5524 124.384 79.0715C124.264 78.5755 124.144 78.2299 124.023 78.0345L123.843 77.7414V77.1778H133.997V77.7414C133.501 78.3877 133.253 79.357 133.253 80.6496H132.711C132.711 79.9432 132.681 79.4021 132.621 79.0264C132.561 78.6507 132.41 78.3651 132.169 78.1698C131.944 77.9744 131.688 77.8541 131.402 77.8091C131.116 77.764 130.673 77.7414 130.071 77.7414V88.7202H127.769Z" fill="#374A4B"/>
            <path d="M140.373 87.6155C141.02 87.1346 141.449 86.6612 141.66 86.1953C141.87 85.7294 141.976 85.0982 141.976 84.3016C141.976 83.6554 141.833 83.0166 141.547 82.3854C141.276 81.7392 140.968 81.2056 140.622 80.7848C140.276 80.364 139.892 79.9056 139.471 79.4097C139.05 78.9137 138.764 78.538 138.613 78.2825C137.906 78.7484 137.432 79.2143 137.192 79.6802C136.951 80.1461 136.831 80.7773 136.831 81.5738C136.831 82.2351 136.989 82.8964 137.304 83.5577C137.62 84.2039 137.966 84.7375 138.342 85.1583C138.734 85.5641 139.132 86.0074 139.538 86.4884C139.96 86.9543 140.238 87.33 140.373 87.6155ZM139.629 76.9524C140.938 77.5235 142.058 78.4403 142.991 79.7027C143.939 80.9501 144.413 82.0473 144.413 82.9941C144.413 83.5652 144.247 84.219 143.916 84.9554C143.6 85.6768 143.029 86.4433 142.201 87.2548C141.389 88.0514 140.419 88.645 139.29 89.0358C137.981 88.4647 136.853 87.5554 135.905 86.308C134.973 85.0456 134.506 83.9409 134.506 82.9941C134.506 82.423 134.664 81.7767 134.98 81.0553C135.311 80.3189 135.883 79.5524 136.695 78.7559C137.523 77.9443 138.5 77.3431 139.629 76.9524Z" fill="#374A4B"/>
            <path d="M154.422 88.7202H146.118V77.1778H153.835C153.835 78.4553 153.512 79.5299 152.865 80.4016C152.218 81.2582 151.338 81.8819 150.225 82.2727C151.864 82.4681 152.97 83.0166 153.542 83.9184C154.128 84.8201 154.422 86.4207 154.422 88.7202ZM148.419 88.1566H152.12C152.09 86.3531 151.812 85.038 151.285 84.2114C150.759 83.3848 149.803 82.9039 148.419 82.7687V88.1566ZM148.419 77.7414V82.1149C149.503 81.9947 150.277 81.5889 150.744 80.8975C151.21 80.2062 151.466 79.1542 151.511 77.7414H148.419Z" fill="#374A4B"/>
            <path d="M157.661 87.097C157.661 87.8485 157.526 88.5849 157.255 89.3063C156.999 90.0277 156.766 90.5387 156.556 90.8393C156.345 91.1399 156.157 91.3728 155.991 91.5381H155.427C155.773 90.7717 155.946 90.0878 155.946 89.4867C155.946 89.3063 155.849 88.9156 155.653 88.3144C155.472 87.7132 155.382 87.1572 155.382 86.6462C155.382 86.4959 155.457 86.4207 155.608 86.4207H157.436C157.586 86.4207 157.661 86.4959 157.661 86.6462V87.097Z" fill="#374A4B"/>
            <path d="M166.555 88.7202H164.231V77.1778H166.555V80.6496L170.481 83.3773V77.1778H172.783V88.7202H170.481V84.2791L166.555 81.5513V88.7202Z" fill="#374A4B"/>
            <path d="M180.942 89.7346C180.942 90.8919 181.055 91.7936 181.28 92.4399C181.506 93.0861 181.619 93.5069 181.619 93.7023C181.619 93.8676 181.574 94.0029 181.483 94.1081C181.408 94.2133 181.31 94.2659 181.19 94.2659C180.633 94.2659 180.355 92.7254 180.355 89.6445V88.7202H177.986L173.856 77.7414C173.811 77.6062 173.789 77.4934 173.789 77.4033C173.789 77.2379 173.909 77.1553 174.15 77.1553H175.413C175.684 77.1553 175.872 77.1929 175.977 77.268C176.083 77.3281 176.173 77.4709 176.248 77.6963L180.107 87.9988H180.378C180.453 85.2935 180.671 83.0392 181.032 81.2357C181.393 79.4322 181.754 78.2449 182.115 77.6738C182.311 77.3431 183.033 77.1703 184.282 77.1553C184.477 77.1553 184.575 77.2455 184.575 77.4258C184.575 77.7264 184.53 78.2148 184.439 78.8911C184.349 79.5675 184.244 79.9056 184.124 79.9056H183.424C182.958 79.9056 182.634 79.9582 182.454 80.0634C182.273 80.1536 182.115 80.349 181.98 80.6496C181.844 80.9351 181.702 81.3634 181.551 81.9345C181.416 82.5056 181.28 83.4901 181.145 84.8878C181.01 86.2855 180.942 87.9011 180.942 89.7346Z" fill="#374A4B"/>
            <path d="M191.402 77.1778H193.727V81.9571C194.84 81.5814 195.667 81.0178 196.209 80.2663C196.765 79.5149 197.044 78.4854 197.044 77.1778H199.368V77.7414C199.368 78.9287 198.962 79.8605 198.149 80.5368C197.352 81.2131 196.171 81.7993 194.607 82.2952C196.141 82.5958 197.322 83.2421 198.149 84.234C198.992 85.2259 199.413 86.7213 199.413 88.7202H197.089C197.089 86.8415 196.758 85.4288 196.096 84.482C195.449 83.5201 194.659 82.9415 193.727 82.7461V88.7202H191.402V82.7461C190.47 82.9415 189.672 83.5201 189.01 84.482C188.364 85.4288 188.04 86.8415 188.04 88.7202H185.738C185.738 86.7213 186.152 85.2259 186.979 84.234C187.822 83.2421 189.01 82.5958 190.545 82.2952C188.98 81.7993 187.792 81.2131 186.979 80.5368C186.182 79.8605 185.784 78.9287 185.784 77.7414V77.1778H188.085C188.085 78.4854 188.356 79.5149 188.898 80.2663C189.454 81.0178 190.289 81.5814 191.402 81.9571V77.1778Z" fill="#374A4B"/>
            <path d="M203.194 88.7202H200.87V77.1778H203.194V80.6496L207.121 83.3773V77.1778H209.422V88.7202H207.121V84.2791L203.194 81.5513V88.7202Z" fill="#374A4B"/>
            <path d="M216.521 87.6155C217.167 87.1346 217.596 86.6612 217.807 86.1953C218.017 85.7294 218.123 85.0982 218.123 84.3016C218.123 83.6554 217.98 83.0166 217.694 82.3854C217.423 81.7392 217.115 81.2056 216.769 80.7848C216.423 80.364 216.039 79.9056 215.618 79.4097C215.197 78.9137 214.911 78.538 214.76 78.2825C214.053 78.7484 213.579 79.2143 213.339 79.6802C213.098 80.1461 212.978 80.7773 212.978 81.5738C212.978 82.2351 213.136 82.8964 213.452 83.5577C213.768 84.2039 214.114 84.7375 214.49 85.1583C214.881 85.5641 215.279 86.0074 215.686 86.4884C216.107 86.9543 216.385 87.33 216.521 87.6155ZM215.776 76.9524C217.085 77.5235 218.205 78.4403 219.138 79.7027C220.086 80.9501 220.56 82.0473 220.56 82.9941C220.56 83.5652 220.394 84.219 220.063 84.9554C219.747 85.6768 219.176 86.4433 218.348 87.2548C217.536 88.0514 216.566 88.645 215.437 89.0358C214.129 88.4647 213 87.5554 212.053 86.308C211.12 85.0456 210.653 83.9409 210.653 82.9941C210.653 82.423 210.811 81.7767 211.127 81.0553C211.458 80.3189 212.03 79.5524 212.842 78.7559C213.67 77.9443 214.648 77.3431 215.776 76.9524Z" fill="#374A4B"/>
            <path d="M41.3257 107.188H35.0525C34.541 107.609 34.1273 108.157 33.8114 108.834C33.5105 109.525 33.3601 110.164 33.3601 110.75H32.796C32.796 110.179 32.6982 109.593 32.5026 108.991C32.307 108.39 32.1039 107.939 31.8933 107.639L31.6 107.188V106.624H34.195L37.1511 95.6456H39.4979L42.454 106.624H44.7783V107.188C44.688 107.308 44.5752 107.473 44.4398 107.684C44.3044 107.909 44.1239 108.33 43.8982 108.946C43.6726 109.578 43.5597 110.179 43.5597 110.75H43.0182C43.0182 110.164 42.8602 109.525 42.5443 108.834C42.2434 108.157 41.8372 107.609 41.3257 107.188ZM34.7366 106.624H40.0621L37.3993 96.7277L34.7366 106.624Z" fill="#374A4B"/>
            <path d="M52.4632 108.202C52.4632 109.36 52.5761 110.261 52.8017 110.908C53.0274 111.554 53.1402 111.975 53.1402 112.17C53.1402 112.335 53.0951 112.471 53.0048 112.576C52.9296 112.681 52.8318 112.734 52.7114 112.734C52.1548 112.734 51.8765 111.193 51.8765 108.112V107.188H49.5071L45.3776 96.2092C45.3325 96.0739 45.3099 95.9612 45.3099 95.871C45.3099 95.7057 45.4303 95.623 45.671 95.623H46.9347C47.2054 95.623 47.3935 95.6606 47.4988 95.7358C47.6041 95.7959 47.6944 95.9387 47.7696 96.1641L51.6283 106.467H51.8991C51.9743 103.761 52.1924 101.507 52.5535 99.7034C52.9145 97.9 53.2756 96.7127 53.6366 96.1415C53.8322 95.8109 54.5543 95.6381 55.8029 95.623C55.9985 95.623 56.0963 95.7132 56.0963 95.8936C56.0963 96.1941 56.0512 96.6826 55.9609 97.3589C55.8706 98.0352 55.7653 98.3734 55.645 98.3734H54.9454C54.4791 98.3734 54.1556 98.426 53.9751 98.5312C53.7946 98.6213 53.6366 98.8167 53.5012 99.1173C53.3659 99.4029 53.2229 99.8312 53.0725 100.402C52.9371 100.973 52.8017 101.958 52.6663 103.356C52.5309 104.753 52.4632 106.369 52.4632 108.202Z" fill="#374A4B"/>
            <path d="M69.0164 96.0288L70.9797 107.188H68.6103L67.0758 98.3734C66.9103 98.6439 66.6245 99.0497 66.2183 99.5907C65.8272 100.132 65.4887 100.65 65.2029 101.146C64.917 101.642 64.6989 102.153 64.5485 102.679L65.3383 107.188H62.9914L61.5021 98.7792C59.9977 100.943 59.2455 103.446 59.2455 106.286C59.2455 106.647 59.2756 106.947 59.3358 107.188H56.8762C56.9062 106.136 56.9589 105.332 57.0341 104.776C57.1093 104.22 57.2899 103.558 57.5757 102.792C57.8615 102.025 58.2978 101.259 58.8845 100.492C59.4712 99.711 60.2836 98.7792 61.3216 97.6971L60.938 95.6456H62.8335C63.1494 95.6456 63.3299 95.7733 63.375 96.0288L64.21 100.786C64.3002 100.68 64.4883 100.47 64.7741 100.154C65.075 99.8237 65.2931 99.5757 65.4285 99.4104C65.5639 99.2451 65.7369 99.0271 65.9475 98.7566C66.1732 98.4861 66.3612 98.2381 66.5117 98.0127C66.6621 97.7872 66.79 97.5618 66.8953 97.3364L66.5794 95.6456H68.52C68.8058 95.6456 68.9713 95.7733 69.0164 96.0288Z" fill="#374A4B"/>
            <path d="M78.4389 96.0288L80.4022 107.188H78.0553L77.7845 105.79C76.8819 106.872 75.7085 107.413 74.2643 107.413C73.4068 107.413 72.79 107.15 72.4139 106.624C72.0529 106.098 71.8724 105.505 71.8724 104.843C71.8724 102.905 73.3993 100.658 76.4532 98.1028L76.0019 95.6456H77.8974C78.2133 95.6456 78.3938 95.7733 78.4389 96.0288ZM77.6266 104.798L76.5434 98.7115C74.8736 100.109 74.0387 101.59 74.0387 103.153C74.0387 103.739 74.1891 104.31 74.49 104.866C74.7908 105.407 75.2497 105.678 75.8665 105.678C76.6187 105.678 77.2054 105.384 77.6266 104.798Z" fill="#374A4B"/>
            <path d="M84.4992 107.188V96.2092C83.8974 96.2092 83.4536 96.2317 83.1678 96.2768C82.882 96.3219 82.6187 96.4421 82.378 96.6375C82.1523 96.8329 82.0094 97.1184 81.9492 97.4942C81.8891 97.8699 81.859 98.4109 81.859 99.1173H81.2948C81.2948 98.5462 81.2347 98.0202 81.1143 97.5393C80.994 97.0433 80.8736 96.6976 80.7533 96.5022L80.5727 96.2092V95.6456L90.7273 95.6456V96.2092C90.2308 96.8554 89.9826 97.8248 89.9826 99.1173H89.441C89.441 98.4109 89.4109 97.8699 89.3508 97.4942C89.2906 97.1184 89.1402 96.8329 88.8995 96.6375C88.6738 96.4421 88.4181 96.3219 88.1322 96.2768C87.8464 96.2317 87.4026 96.2092 86.8009 96.2092V107.188H84.4992Z" fill="#374A4B"/>
            <path d="M91.3717 95.6456H93.696L93.696 99.7936L95.4561 98.7792C96.103 99.3052 96.9304 100.32 97.9383 101.823C98.9613 103.325 99.8715 105.114 100.669 107.188H91.3717L91.3717 95.6456ZM93.696 106.624H97.6224C97.2463 105.182 96.7724 103.859 96.2008 102.657C95.6291 101.454 95.1026 100.538 94.6212 99.9063L93.696 100.425V106.624Z" fill="#374A4B"/>
            <path d="M107.419 95.6456H109.72L109.72 100.425C110.834 100.049 111.668 99.4855 112.225 98.7341C112.782 97.9826 113.06 96.9531 113.06 95.6456H115.362V96.2092C115.362 97.3965 114.955 98.3283 114.143 99.0046C113.346 99.6809 112.165 100.267 110.6 100.763C112.135 101.064 113.316 101.71 114.143 102.702C114.986 103.694 115.407 105.189 115.407 107.188H113.105C113.105 105.309 112.774 103.897 112.112 102.95C111.45 101.988 110.653 101.409 109.72 101.214V107.188H107.419L107.419 95.6456Z" fill="#374A4B"/>
            <path d="M123.182 96.0288L125.145 107.188H122.798L122.528 105.79C121.625 106.872 120.452 107.413 119.007 107.413C118.15 107.413 117.533 107.15 117.157 106.624C116.796 106.098 116.615 105.505 116.615 104.843C116.615 102.905 118.142 100.658 121.196 98.1028L120.745 95.6456H122.64C122.956 95.6456 123.137 95.7733 123.182 96.0288ZM122.37 104.798L121.287 98.7115C119.617 100.109 118.782 101.59 118.782 103.153C118.782 103.739 118.932 104.31 119.233 104.866C119.534 105.407 119.993 105.678 120.61 105.678C121.362 105.678 121.948 105.384 122.37 104.798Z" fill="#374A4B"/>
            <path d="M126.557 95.6456H128.859V100.425C129.972 100.049 130.807 99.4855 131.363 98.7341C131.92 97.9826 132.198 96.9531 132.198 95.6456L134.5 95.6456V96.2092C134.5 97.3965 134.094 98.3283 133.281 99.0046C132.484 99.6809 131.303 100.267 129.739 100.763C131.273 101.064 132.454 101.71 133.281 102.702C134.124 103.694 134.545 105.189 134.545 107.188L132.243 107.188C132.243 105.309 131.912 103.897 131.251 102.95C130.589 101.988 129.791 101.409 128.859 101.214V107.188H126.557L126.557 95.6456Z" fill="#374A4B"/>
            <path d="M153.458 96.0288L155.421 107.188H153.052L151.517 98.3734C151.352 98.6439 151.066 99.0497 150.66 99.5907C150.269 100.132 149.93 100.65 149.644 101.146C149.358 101.642 149.14 102.153 148.99 102.679L149.78 107.188H147.433L145.943 98.7792C144.439 100.943 143.687 103.446 143.687 106.286C143.687 106.647 143.717 106.947 143.777 107.188H141.318C141.348 106.136 141.4 105.332 141.476 104.776C141.551 104.22 141.731 103.558 142.017 102.792C142.303 102.025 142.739 101.259 143.326 100.492C143.913 99.711 144.725 98.7792 145.763 97.6971L145.379 95.6456H147.275C147.591 95.6456 147.771 95.7733 147.816 96.0288L148.651 100.786C148.742 100.68 148.93 100.47 149.216 100.154C149.516 99.8237 149.735 99.5757 149.87 99.4104C150.005 99.2451 150.178 99.0271 150.389 98.7566C150.615 98.4861 150.803 98.2381 150.953 98.0127C151.103 97.7872 151.231 97.5618 151.337 97.3364L151.021 95.6456H152.961C153.247 95.6456 153.413 95.7733 153.458 96.0288Z" fill="#374A4B"/>
            <path d="M162.294 106.083C162.94 105.602 163.369 105.129 163.58 104.663C163.79 104.197 163.896 103.566 163.896 102.769C163.896 102.123 163.753 101.484 163.467 100.853C163.196 100.207 162.888 99.6734 162.542 99.2526C162.196 98.8318 161.812 98.3734 161.391 97.8774C160.97 97.3814 160.684 97.0057 160.534 96.7502C159.826 97.2161 159.353 97.682 159.112 98.1479C158.871 98.6138 158.751 99.2451 158.751 100.042C158.751 100.703 158.909 101.364 159.225 102.025C159.541 102.672 159.887 103.205 160.263 103.626C160.654 104.032 161.053 104.475 161.459 104.956C161.88 105.422 162.158 105.798 162.294 106.083ZM161.549 95.4202C162.858 95.9913 163.979 96.908 164.911 98.1705C165.859 99.4179 166.333 100.515 166.333 101.462C166.333 102.033 166.167 102.687 165.836 103.423C165.52 104.145 164.949 104.911 164.121 105.723C163.309 106.519 162.339 107.113 161.21 107.504C159.902 106.932 158.773 106.023 157.826 104.776C156.893 103.513 156.427 102.409 156.427 101.462C156.427 100.891 156.585 100.244 156.9 99.5231C157.231 98.7867 157.803 98.0202 158.615 97.2236C159.443 96.4121 160.421 95.8109 161.549 95.4202Z" fill="#374A4B"/>
            <path d="M174.469 96.0288L176.432 107.188H174.063L172.574 98.6439C170.723 100.943 169.798 103.528 169.798 106.399C169.798 106.76 169.806 107.023 169.821 107.188H167.361C167.421 105.369 167.752 103.867 168.354 102.679C168.971 101.492 170.317 99.8312 172.393 97.6971L172.032 95.6456H173.928C174.243 95.6456 174.424 95.7733 174.469 96.0288Z" fill="#374A4B"/>
            <path d="M183.282 106.083C183.929 105.602 184.358 105.129 184.569 104.663C184.779 104.197 184.884 103.566 184.884 102.769C184.884 102.123 184.742 101.484 184.456 100.853C184.185 100.207 183.877 99.6734 183.531 99.2526C183.185 98.8318 182.801 98.3734 182.38 97.8774C181.958 97.3814 181.673 97.0057 181.522 96.7502C180.815 97.2161 180.341 97.682 180.101 98.1479C179.86 98.6138 179.74 99.2451 179.74 100.042C179.74 100.703 179.897 101.364 180.213 102.025C180.529 102.672 180.875 103.205 181.251 103.626C181.643 104.032 182.041 104.475 182.447 104.956C182.869 105.422 183.147 105.798 183.282 106.083ZM182.538 95.4202C183.846 95.9913 184.967 96.908 185.9 98.1705C186.848 99.4179 187.322 100.515 187.322 101.462C187.322 102.033 187.156 102.687 186.825 103.423C186.509 104.145 185.938 104.911 185.11 105.723C184.298 106.519 183.327 107.113 182.199 107.504C180.89 106.932 179.762 106.023 178.814 104.776C177.882 103.513 177.415 102.409 177.415 101.462C177.415 100.891 177.573 100.244 177.889 99.5231C178.22 98.7867 178.792 98.0202 179.604 97.2236C180.432 96.4121 181.409 95.8109 182.538 95.4202Z" fill="#374A4B"/>
            <path d="M197.895 107.188H191.622C191.11 107.609 190.697 108.157 190.381 108.834C190.08 109.525 189.929 110.164 189.929 110.75H189.365C189.365 110.179 189.267 109.593 189.072 108.991C188.876 108.39 188.673 107.939 188.463 107.639L188.169 107.188V106.624H190.764L193.72 95.6456H196.067L199.023 106.624H201.347V107.188C201.257 107.308 201.144 107.473 201.009 107.684C200.874 107.909 200.693 108.33 200.467 108.946C200.242 109.578 200.129 110.179 200.129 110.75H199.587C199.587 110.164 199.429 109.525 199.113 108.834C198.813 108.157 198.406 107.609 197.895 107.188ZM191.306 106.624H196.631L193.969 96.7277L191.306 106.624Z" fill="#374A4B"/>
            <path d="M213.162 95.6456H215.486V107.188H213.162V95.6456ZM202.624 95.6456H204.948V99.7936L206.708 98.7792C207.355 99.3052 208.182 100.32 209.19 101.823C210.213 103.325 211.123 105.114 211.921 107.188H202.624V95.6456ZM204.948 106.624H208.874C208.498 105.182 208.024 103.859 207.453 102.657C206.881 101.454 206.355 100.538 205.873 99.9063L204.948 100.425V106.624Z" fill="#374A4B"/>
            <path d="M223.622 96.2092L219.786 97.9901V100.583L222.223 99.4555L223.149 100.786L219.786 102.364V105.114C219.786 105.595 219.952 105.835 220.283 105.835C220.388 105.835 220.463 105.82 220.508 105.79L222.788 104.686L224.254 105.813L221.095 107.278C220.734 107.443 220.358 107.526 219.967 107.526C219.29 107.526 218.703 107.301 218.207 106.85C217.725 106.399 217.485 105.768 217.485 104.956V98.2832C217.485 97.6069 217.77 97.1485 218.342 96.908L221.637 95.3751L223.622 96.2092Z" fill="#374A4B"/>
            <path d="M71.1164 116.841C70.3793 115.969 69.9505 115.428 69.8302 115.218C69.1231 115.684 68.6492 116.15 68.4085 116.616C68.1678 117.082 68.0475 117.713 68.0475 118.509C68.0475 119.171 68.2054 119.832 68.5214 120.493C68.8373 121.139 69.1908 121.673 69.5819 122.094C69.9731 122.5 70.3717 122.943 70.7779 123.424C71.1991 123.89 71.4775 124.266 71.6128 124.551C72.3801 123.98 72.854 123.394 73.0345 122.793L74.2982 123.266C73.3504 124.513 72.0942 125.415 70.5297 125.971C69.2209 125.4 68.0926 124.491 67.1449 123.244C66.2121 121.981 65.7458 120.876 65.7458 119.93C65.7458 119.359 65.9037 118.712 66.2197 117.991C66.5506 117.254 67.1223 116.488 67.9347 115.691C68.747 114.88 69.7173 114.279 70.8456 113.888C71.7182 114.264 72.5606 114.857 73.373 115.669L71.1164 116.841Z" fill="#374A4B"/>
            <path d="M77.6279 125.656H75.3037L75.3037 114.113H83.856L83.856 125.656H81.5543L81.5543 114.677H77.6279L77.6279 125.656Z" fill="#374A4B"/>
            <path d="M91.6538 114.677L87.8177 116.458V119.05L90.2547 117.923L91.1799 119.253L87.8177 120.831V123.582C87.8177 124.063 87.9831 124.303 88.3141 124.303C88.4194 124.303 88.4946 124.288 88.5398 124.258L90.8189 123.153L92.2856 124.281L89.1265 125.746C88.7654 125.911 88.3893 125.994 87.9982 125.994C87.3212 125.994 86.7345 125.768 86.2381 125.318C85.7567 124.867 85.516 124.235 85.516 123.424L85.516 116.751C85.516 116.075 85.8018 115.616 86.3735 115.376L89.668 113.843L91.6538 114.677Z" fill="#374A4B"/>
            <path d="M100.332 114.113H102.656V125.092H106.086V125.656C105.996 125.776 105.883 125.941 105.747 126.152C105.612 126.377 105.431 126.798 105.206 127.414C104.995 128.045 104.89 128.646 104.89 129.218H104.348C104.348 128.631 104.19 127.993 103.874 127.301C103.574 126.625 103.167 126.077 102.656 125.656H94.1035V114.113H96.4052V125.092H100.332V114.113Z" fill="#374A4B"/>
            <path d="M113.071 114.113H115.373V125.656H113.071V118.036L109.145 122.725V125.656H106.821V114.113H109.145V121.575L113.071 116.909V114.113Z" fill="#374A4B"/>
            <path d="M123.058 114.497L125.021 125.656H122.674L122.403 124.258C121.501 125.34 120.327 125.881 118.883 125.881C118.026 125.881 117.409 125.618 117.033 125.092C116.672 124.566 116.491 123.972 116.491 123.311C116.491 121.372 118.018 119.126 121.072 116.571L120.621 114.113H122.516C122.832 114.113 123.013 114.241 123.058 114.497ZM122.246 123.266L121.162 117.179C119.493 118.577 118.658 120.057 118.658 121.62C118.658 122.207 118.808 122.778 119.109 123.334C119.41 123.875 119.869 124.145 120.485 124.145C121.238 124.145 121.824 123.852 122.246 123.266Z" fill="#374A4B"/>
            <path d="M132.864 114.497L134.827 125.656H132.458L130.969 117.112C129.118 119.411 128.193 121.996 128.193 124.867C128.193 125.227 128.2 125.49 128.215 125.656H125.756C125.816 123.837 126.147 122.334 126.749 121.147C127.366 119.96 128.712 118.299 130.788 116.165L130.427 114.113H132.322C132.638 114.113 132.819 114.241 132.864 114.497Z" fill="#374A4B"/>
            <path d="M142.196 114.113H144.498V125.656H142.196V118.036L138.27 122.725V125.656H135.946V114.113H138.27V121.575L142.196 116.909V114.113Z" fill="#374A4B"/>
            <path d="M150.829 116.841C150.092 115.969 149.663 115.428 149.543 115.218C148.836 115.684 148.362 116.15 148.121 116.616C147.88 117.082 147.76 117.713 147.76 118.509C147.76 119.171 147.918 119.832 148.234 120.493C148.55 121.139 148.903 121.673 149.294 122.094C149.686 122.5 150.084 122.943 150.49 123.424C150.912 123.89 151.19 124.266 151.325 124.551C152.093 123.98 152.566 123.394 152.747 122.793L154.011 123.266C153.063 124.513 151.807 125.415 150.242 125.971C148.933 125.4 147.805 124.491 146.857 123.244C145.925 121.981 145.458 120.876 145.458 119.93C145.458 119.359 145.616 118.712 145.932 117.991C146.263 117.254 146.835 116.488 147.647 115.691C148.46 114.88 149.43 114.279 150.558 113.888C151.431 114.264 152.273 114.857 153.086 115.669L150.829 116.841Z" fill="#374A4B"/>
            <path d="M158.108 125.656V114.677C157.506 114.677 157.062 114.699 156.776 114.745C156.49 114.79 156.227 114.91 155.987 115.105C155.761 115.301 155.618 115.586 155.558 115.962C155.498 116.338 155.468 116.879 155.468 117.585H154.903C154.903 117.014 154.843 116.488 154.723 116.007C154.603 115.511 154.482 115.165 154.362 114.97L154.181 114.677V114.113H164.336V114.677C163.839 115.323 163.591 116.293 163.591 117.585H163.05C163.05 116.879 163.019 116.338 162.959 115.962C162.899 115.586 162.749 115.301 162.508 115.105C162.282 114.91 162.027 114.79 161.741 114.745C161.455 114.699 161.011 114.677 160.409 114.677V125.656H158.108Z" fill="#374A4B"/>
            <path d="M175.902 114.113H178.226V125.656H175.902V114.113ZM165.364 114.113H167.688V118.261L169.448 117.247C170.095 117.773 170.923 118.787 171.93 120.29C172.953 121.793 173.864 123.582 174.661 125.656H165.364V114.113ZM167.688 125.092H171.615C171.238 123.649 170.765 122.327 170.193 121.124C169.621 119.922 169.095 119.005 168.613 118.374L167.688 118.893V125.092Z" fill="#374A4B"/>
            <path d="M180.36 109.492H182.865L182.414 121.959H180.811L180.36 109.492ZM180.811 125.656C180.661 125.656 180.586 125.581 180.586 125.43V123.807C180.586 123.657 180.661 123.582 180.811 123.582H182.414C182.564 123.582 182.639 123.657 182.639 123.807V125.43C182.639 125.581 182.564 125.656 182.414 125.656H180.811Z" fill="#374A4B"/>
            <path d="M27.271 128.501V127.96H33.2057V128.501C32.2279 128.501 31.739 128.659 31.739 128.974C31.739 129.154 31.754 129.29 31.7841 129.38L35.2366 143.56H37.6963V144.123C37.606 144.244 37.4932 144.409 37.3578 144.619C37.2224 144.845 37.0419 145.266 36.8162 145.882C36.6056 146.513 36.5003 147.114 36.5003 147.685H35.9362C35.9362 147.099 35.7782 146.46 35.4623 145.769C35.1614 145.093 34.7552 144.544 34.2438 144.123H26.2555C25.744 144.544 25.3303 145.093 25.0144 145.769C24.7136 146.46 24.5631 147.099 24.5631 147.685H24.0215C24.0215 147.114 23.9238 146.528 23.7282 145.927C23.5176 145.326 23.3145 144.875 23.1189 144.574L22.8256 144.123V143.56H25.3755L28.7829 129.673C28.828 129.508 28.8506 129.312 28.8506 129.087C28.8506 128.696 28.324 128.501 27.271 128.501ZM26.0299 143.56H32.3934L29.1891 130.349L26.0299 143.56Z" fill="#374A4B"/>
            <path d="M44.095 143.019C44.7419 142.538 45.1706 142.064 45.3812 141.599C45.5918 141.133 45.6972 140.501 45.6972 139.705C45.6972 139.059 45.5542 138.42 45.2684 137.789C44.9976 137.142 44.6892 136.609 44.3432 136.188C43.9972 135.767 43.6136 135.309 43.1924 134.813C42.7711 134.317 42.4853 133.941 42.3349 133.686C41.6278 134.152 41.1539 134.618 40.9132 135.083C40.6725 135.549 40.5522 136.181 40.5522 136.977C40.5522 137.638 40.7102 138.3 41.0261 138.961C41.342 139.607 41.688 140.141 42.0641 140.562C42.4552 140.967 42.8539 141.411 43.2601 141.892C43.6813 142.358 43.9596 142.733 44.095 143.019ZM43.3503 132.356C44.6591 132.927 45.7799 133.844 46.7126 135.106C47.6604 136.353 48.1342 137.451 48.1342 138.397C48.1342 138.968 47.9688 139.622 47.6378 140.359C47.3219 141.08 46.7502 141.847 45.9228 142.658C45.1104 143.455 44.1401 144.048 43.0118 144.439C41.703 143.868 40.5748 142.959 39.627 141.711C38.6943 140.449 38.2279 139.344 38.2279 138.397C38.2279 137.826 38.3859 137.18 38.7018 136.459C39.0328 135.722 39.6044 134.956 40.4168 134.159C41.2442 133.348 42.222 132.746 43.3503 132.356Z" fill="#374A4B"/>
            <path d="M63.6846 144.123H55.3805V132.581H63.0979C63.0979 133.859 62.7745 134.933 62.1276 135.805C61.4807 136.662 60.6007 137.285 59.4874 137.676C61.1272 137.871 62.2329 138.42 62.8046 139.322C63.3913 140.223 63.6846 141.824 63.6846 144.123ZM57.6822 143.56H61.383C61.3529 141.756 61.0746 140.441 60.548 139.615C60.0215 138.788 59.0662 138.307 57.6822 138.172V143.56ZM57.6822 133.145V137.518C58.7653 137.398 59.5401 136.992 60.0065 136.301C60.4728 135.609 60.7286 134.557 60.7737 133.145H57.6822Z" fill="#374A4B"/>
            <path d="M69.9705 135.309C69.2334 134.437 68.8046 133.896 68.6843 133.686C67.9772 134.152 67.5033 134.618 67.2626 135.083C67.0219 135.549 66.9016 136.181 66.9016 136.977C66.9016 137.638 67.0596 138.3 67.3755 138.961C67.6914 139.607 68.0449 140.141 68.4361 140.562C68.8272 140.967 69.2259 141.411 69.632 141.892C70.0533 142.358 70.3316 142.733 70.467 143.019C71.2342 142.448 71.7081 141.862 71.8886 141.26L73.1523 141.734C72.2045 142.981 70.9484 143.883 69.3838 144.439C68.075 143.868 66.9467 142.959 65.999 141.711C65.0663 140.449 64.5999 139.344 64.5999 138.397C64.5999 137.826 64.7579 137.18 65.0738 136.459C65.4047 135.722 65.9764 134.956 66.7888 134.159C67.6011 133.348 68.5715 132.746 69.6997 132.356C70.5723 132.731 71.4147 133.325 72.2271 134.137L69.9705 135.309Z" fill="#374A4B"/>
            <path d="M77.2493 144.123V133.145C76.6475 133.145 76.2037 133.167 75.9179 133.212C75.6321 133.257 75.3688 133.378 75.1281 133.573C74.9025 133.768 74.7595 134.054 74.6994 134.43C74.6392 134.805 74.6091 135.346 74.6091 136.053H74.045C74.045 135.482 73.9848 134.956 73.8644 134.475C73.7441 133.979 73.6237 133.633 73.5034 133.438L73.3229 133.145V132.581H83.4774V133.145C82.9809 133.791 82.7327 134.76 82.7327 136.053H82.1911C82.1911 135.346 82.1611 134.805 82.1009 134.43C82.0407 134.054 81.8903 133.768 81.6496 133.573C81.4239 133.378 81.1682 133.257 80.8823 133.212C80.5965 133.167 80.1527 133.145 79.551 133.145V144.123H77.2493Z" fill="#374A4B"/>
            <path d="M87.4616 144.574C87.6722 145.626 87.7775 146.566 87.7775 147.392C87.7775 147.828 87.6872 148.241 87.5067 148.632C87.3412 149.023 87.1306 149.346 86.8749 149.602C86.6191 149.857 86.3709 150.082 86.1302 150.278C85.8895 150.473 85.6789 150.616 85.4984 150.706L85.2276 150.841L84.5732 149.917C84.6333 149.872 84.7086 149.797 84.7988 149.692C84.8891 149.602 85.0094 149.384 85.1599 149.038C85.3103 148.692 85.3855 148.324 85.3855 147.933C85.3855 146.551 85.1298 144.988 84.6183 143.244C84.1068 141.501 83.8511 139.885 83.8511 138.397C83.8511 137.826 84.009 137.18 84.3249 136.459C84.6559 135.722 85.2276 134.956 86.0399 134.159C86.8523 133.348 87.8226 132.746 88.9509 132.356C90.2597 132.927 91.3805 133.844 92.3132 135.106C93.2609 136.353 93.7348 137.451 93.7348 138.397C93.7348 139.194 93.464 140.058 92.9224 140.99C92.3959 141.922 91.6287 142.748 90.6208 143.47C89.6279 144.191 88.5748 144.559 87.4616 144.574ZM87.2133 143.582C89.9513 143.462 91.3203 142.17 91.3203 139.705C91.3203 139.059 91.1774 138.42 90.8915 137.789C90.6057 137.142 90.2898 136.609 89.9438 136.188C89.6128 135.767 89.2292 135.309 88.7929 134.813C88.3717 134.317 88.0859 133.941 87.9354 133.686C87.2284 134.152 86.7545 134.618 86.5138 135.083C86.2882 135.534 86.1753 136.166 86.1753 136.977C86.1753 137.428 86.1904 137.879 86.2205 138.33C86.2656 138.781 86.3032 139.171 86.3333 139.502C86.3784 139.818 86.4461 140.201 86.5364 140.652C86.6266 141.103 86.6943 141.433 86.7395 141.644C86.7846 141.839 86.8673 142.185 86.9877 142.681C87.108 143.162 87.1833 143.462 87.2133 143.582Z" fill="#374A4B"/>
            <path d="M101.126 133.145L97.2902 134.926V137.518L99.7273 136.391L100.653 137.721L97.2902 139.299V142.049C97.2902 142.53 97.4557 142.771 97.7867 142.771C97.892 142.771 97.9672 142.756 98.0123 142.726L100.291 141.621L101.758 142.748L98.599 144.214C98.238 144.379 97.8619 144.462 97.4708 144.462C96.7938 144.462 96.2071 144.236 95.7106 143.785C95.2292 143.334 94.9885 142.703 94.9885 141.892V135.219C94.9885 134.542 95.2744 134.084 95.846 133.844L99.1406 132.311L101.126 133.145Z" fill="#374A4B"/>
            <path d="M108.653 132.581H110.978V144.123H108.653V139.457C108.112 139.637 107.533 139.727 106.916 139.727C105.757 139.727 104.795 139.412 104.027 138.781C103.26 138.134 102.877 137.097 102.877 135.67V132.581H105.201V136.414C105.201 137.045 105.253 137.563 105.359 137.969C105.464 138.375 105.615 138.66 105.81 138.826C106.006 138.976 106.179 139.074 106.329 139.119C106.495 139.164 106.69 139.186 106.916 139.186C107.141 139.186 107.33 139.164 107.48 139.119C107.645 139.074 107.826 138.976 108.022 138.826C108.232 138.66 108.39 138.375 108.495 137.969C108.601 137.563 108.653 137.045 108.653 136.414V132.581Z" fill="#374A4B"/>
            <path d="M118.933 132.581H121.235V144.123H118.933V136.504L115.007 141.193V144.123H112.683V132.581H115.007V140.043L118.933 135.377V132.581Z" fill="#374A4B"/>
            <path d="M130.467 144.123H128.143V132.581H130.467V136.053L134.394 138.781V132.581H136.695V144.123H134.394V139.682L130.467 136.955V144.123Z" fill="#374A4B"/>
            <path d="M144.38 132.964L146.343 144.123H143.997L143.726 142.726C142.823 143.808 141.65 144.349 140.205 144.349C139.348 144.349 138.731 144.086 138.355 143.56C137.994 143.034 137.814 142.44 137.814 141.779C137.814 139.84 139.34 137.593 142.394 135.038L141.943 132.581H143.839C144.154 132.581 144.335 132.709 144.38 132.964ZM143.568 141.734L142.485 135.647C140.815 137.045 139.98 138.525 139.98 140.088C139.98 140.674 140.13 141.245 140.431 141.801C140.732 142.343 141.191 142.613 141.808 142.613C142.56 142.613 143.147 142.32 143.568 141.734Z" fill="#374A4B"/>
            <path d="M154.492 129.966C154.492 129.305 154.409 128.899 154.244 128.749C154.079 128.583 153.627 128.501 152.89 128.501V127.96L158.847 127.96V128.501C158.11 128.501 157.659 128.583 157.493 128.749C157.328 128.899 157.245 129.305 157.245 129.966V135.76H157.426C158.795 135.76 159.87 135.159 160.653 133.956C161.435 132.754 161.826 131.424 161.826 129.966C161.826 129.305 161.743 128.899 161.578 128.749C161.412 128.583 160.961 128.501 160.224 128.501V127.96H166.159V128.501C166.008 128.501 165.873 128.508 165.752 128.523C165.647 128.523 165.542 128.523 165.437 128.523C165.346 128.523 165.271 128.538 165.211 128.568C165.151 128.598 165.091 128.621 165.03 128.636C164.985 128.651 164.94 128.689 164.895 128.749C164.865 128.809 164.835 128.854 164.805 128.884C164.79 128.914 164.767 128.982 164.737 129.087C164.722 129.177 164.707 129.252 164.692 129.312C164.692 129.357 164.677 129.455 164.647 129.605C164.617 129.756 164.594 129.876 164.579 129.966C164.444 130.687 164.271 131.334 164.06 131.905C163.864 132.476 163.586 133.055 163.225 133.641C162.879 134.212 162.413 134.708 161.826 135.129C161.239 135.534 160.555 135.842 159.773 136.053C160.555 136.263 161.239 136.579 161.826 137C162.413 137.405 162.879 137.894 163.225 138.465C163.586 139.036 163.864 139.607 164.06 140.178C164.271 140.749 164.444 141.396 164.579 142.117C164.594 142.207 164.617 142.327 164.647 142.478C164.677 142.628 164.692 142.733 164.692 142.793C164.707 142.838 164.722 142.914 164.737 143.019C164.767 143.109 164.79 143.169 164.805 143.199C164.835 143.229 164.865 143.274 164.895 143.334C164.94 143.395 164.985 143.432 165.03 143.447C165.091 143.462 165.151 143.485 165.211 143.515C165.271 143.545 165.346 143.56 165.437 143.56C165.542 143.56 165.647 143.567 165.752 143.582C165.873 143.582 166.008 143.582 166.159 143.582V144.123H160.224V143.582C160.961 143.582 161.412 143.507 161.578 143.357C161.743 143.192 161.826 142.778 161.826 142.117C161.826 140.659 161.435 139.329 160.653 138.127C159.87 136.925 158.795 136.323 157.426 136.323H157.245V142.14C157.245 142.801 157.328 143.207 157.493 143.357C157.659 143.507 158.11 143.582 158.847 143.582V144.123L152.89 144.123V143.582C153.627 143.582 154.079 143.507 154.244 143.357C154.409 143.207 154.492 142.801 154.492 142.14V129.966Z" fill="#374A4B"/>
            <path d="M170.842 144.574C171.053 145.626 171.158 146.566 171.158 147.392C171.158 147.828 171.068 148.241 170.887 148.632C170.722 149.023 170.511 149.346 170.256 149.602C170 149.857 169.752 150.082 169.511 150.278C169.27 150.473 169.06 150.616 168.879 150.706L168.608 150.841L167.954 149.917C168.014 149.872 168.089 149.797 168.18 149.692C168.27 149.602 168.39 149.384 168.541 149.038C168.691 148.692 168.766 148.324 168.766 147.933C168.766 146.551 168.511 144.988 167.999 143.244C167.488 141.501 167.232 139.885 167.232 138.397C167.232 137.826 167.39 137.18 167.706 136.459C168.037 135.722 168.608 134.956 169.421 134.159C170.233 133.348 171.203 132.746 172.332 132.356C173.641 132.927 174.761 133.844 175.694 135.106C176.642 136.353 177.116 137.451 177.116 138.397C177.116 139.194 176.845 140.058 176.303 140.99C175.777 141.922 175.009 142.748 174.002 143.47C173.009 144.191 171.956 144.559 170.842 144.574ZM170.594 143.582C173.332 143.462 174.701 142.17 174.701 139.705C174.701 139.059 174.558 138.42 174.272 137.789C173.987 137.142 173.671 136.609 173.325 136.188C172.994 135.767 172.61 135.309 172.174 134.813C171.753 134.317 171.467 133.941 171.316 133.686C170.609 134.152 170.135 134.618 169.895 135.083C169.669 135.534 169.556 136.166 169.556 136.977C169.556 137.428 169.571 137.879 169.601 138.33C169.646 138.781 169.684 139.171 169.714 139.502C169.759 139.818 169.827 140.201 169.917 140.652C170.007 141.103 170.075 141.433 170.12 141.644C170.165 141.839 170.248 142.185 170.368 142.681C170.489 143.162 170.564 143.462 170.594 143.582Z" fill="#374A4B"/>
            <path d="M184.868 145.138C184.868 146.295 184.981 147.197 185.207 147.843C185.432 148.489 185.545 148.91 185.545 149.106C185.545 149.271 185.5 149.406 185.41 149.511C185.335 149.617 185.237 149.669 185.116 149.669C184.56 149.669 184.282 148.129 184.282 145.048V144.123H181.912L177.783 133.145C177.737 133.009 177.715 132.897 177.715 132.807C177.715 132.641 177.835 132.559 178.076 132.559H179.34C179.61 132.559 179.798 132.596 179.904 132.671C180.009 132.731 180.099 132.874 180.175 133.1L184.033 143.402H184.304C184.379 140.697 184.597 138.442 184.958 136.639C185.32 134.835 185.681 133.648 186.042 133.077C186.237 132.746 186.959 132.574 188.208 132.559C188.404 132.559 188.501 132.649 188.501 132.829C188.501 133.13 188.456 133.618 188.366 134.294C188.276 134.971 188.17 135.309 188.05 135.309H187.35C186.884 135.309 186.561 135.361 186.38 135.467C186.2 135.557 186.042 135.752 185.906 136.053C185.771 136.338 185.628 136.767 185.477 137.338C185.342 137.909 185.207 138.893 185.071 140.291C184.936 141.689 184.868 143.304 184.868 145.138Z" fill="#374A4B"/>
            <path d="M191.831 133.145L191.831 144.123H189.507L189.507 132.581H197.044V133.145C196.547 133.791 196.299 134.76 196.299 136.053H195.758C195.758 134.805 195.607 134.009 195.306 133.663C195.02 133.318 194.366 133.145 193.343 133.145H191.831Z" fill="#374A4B"/>
            <path d="M204.796 132.964L206.76 144.123H204.39L202.901 135.579C201.05 137.879 200.125 140.464 200.125 143.334C200.125 143.695 200.133 143.958 200.148 144.123H197.688C197.748 142.305 198.079 140.802 198.681 139.615C199.298 138.427 200.644 136.767 202.72 134.633L202.359 132.581H204.255C204.571 132.581 204.751 132.709 204.796 132.964Z" fill="#374A4B"/>
            <path d="M213.61 143.019C214.256 142.538 214.685 142.064 214.896 141.599C215.106 141.133 215.212 140.501 215.212 139.705C215.212 139.059 215.069 138.42 214.783 137.789C214.512 137.142 214.204 136.609 213.858 136.188C213.512 135.767 213.128 135.309 212.707 134.813C212.286 134.317 212 133.941 211.849 133.686C211.142 134.152 210.669 134.618 210.428 135.083C210.187 135.549 210.067 136.181 210.067 136.977C210.067 137.638 210.225 138.3 210.541 138.961C210.857 139.607 211.203 140.141 211.579 140.562C211.97 140.967 212.368 141.411 212.775 141.892C213.196 142.358 213.474 142.733 213.61 143.019ZM212.865 132.356C214.174 132.927 215.294 133.844 216.227 135.106C217.175 136.353 217.649 137.451 217.649 138.397C217.649 138.968 217.483 139.622 217.152 140.359C216.836 141.08 216.265 141.847 215.437 142.658C214.625 143.455 213.655 144.048 212.526 144.439C211.218 143.868 210.089 142.959 209.142 141.711C208.209 140.449 207.743 139.344 207.743 138.397C207.743 137.826 207.9 137.18 208.216 136.459C208.547 135.722 209.119 134.956 209.931 134.159C210.759 133.348 211.737 132.746 212.865 132.356Z" fill="#374A4B"/>
            <path d="M230.862 132.964L232.826 144.123H230.456L228.922 135.309C228.756 135.579 228.47 135.985 228.064 136.526C227.673 137.067 227.335 137.586 227.049 138.082C226.763 138.578 226.545 139.089 226.394 139.615L227.184 144.123H224.837L223.348 135.715C221.844 137.879 221.091 140.381 221.091 143.222C221.091 143.582 221.122 143.883 221.182 144.123H218.722C218.752 143.071 218.805 142.267 218.88 141.711C218.955 141.155 219.136 140.494 219.422 139.727C219.707 138.961 220.144 138.194 220.73 137.428C221.317 136.646 222.129 135.715 223.167 134.633L222.784 132.581H224.679C224.995 132.581 225.176 132.709 225.221 132.964L226.056 137.721C226.146 137.616 226.334 137.405 226.62 137.09C226.921 136.759 227.139 136.511 227.274 136.346C227.41 136.181 227.583 135.963 227.793 135.692C228.019 135.422 228.207 135.174 228.358 134.948C228.508 134.723 228.636 134.497 228.741 134.272L228.425 132.581H230.366C230.652 132.581 230.817 132.709 230.862 132.964Z" fill="#374A4B"/>
            <path d="M42.3137 153.777C41.5765 152.905 41.1478 152.364 41.0274 152.154C40.3204 152.619 39.8465 153.085 39.6058 153.551C39.3651 154.017 39.2447 154.648 39.2447 155.445C39.2447 156.106 39.4027 156.767 39.7186 157.429C40.0345 158.075 40.3881 158.608 40.7792 159.029C41.1703 159.435 41.569 159.878 41.9752 160.359C42.3964 160.825 42.6747 161.201 42.8101 161.487C43.5773 160.915 44.0512 160.329 44.2317 159.728L45.4954 160.202C44.5477 161.449 43.2915 162.351 41.727 162.907C40.4182 162.336 39.2899 161.426 38.3421 160.179C37.4094 158.917 36.9431 157.812 36.9431 156.865C36.9431 156.294 37.101 155.648 37.4169 154.926C37.7479 154.19 38.3196 153.423 39.1319 152.627C39.9443 151.815 40.9146 151.214 42.0429 150.823C42.9154 151.199 43.7579 151.793 44.5702 152.604L42.3137 153.777Z" fill="#374A4B"/>
            <path d="M49.5924 162.591V151.612C48.9907 151.612 48.5469 151.635 48.2611 151.68C47.9752 151.725 47.712 151.845 47.4713 152.041C47.2456 152.236 47.1027 152.522 47.0425 152.897C46.9823 153.273 46.9522 153.814 46.9522 154.521H46.3881C46.3881 153.949 46.3279 153.423 46.2076 152.943C46.0872 152.447 45.9669 152.101 45.8465 151.906L45.666 151.612V151.049H55.8205V151.612C55.3241 152.259 55.0759 153.228 55.0759 154.521H54.5343C54.5343 153.814 54.5042 153.273 54.444 152.897C54.3839 152.522 54.2334 152.236 53.9927 152.041C53.7671 151.845 53.5113 151.725 53.2255 151.68C52.9397 151.635 52.4959 151.612 51.8941 151.612V162.591H49.5924Z" fill="#374A4B"/>
            <path d="M62.1967 161.487C62.8435 161.006 63.2723 160.532 63.4829 160.066C63.6935 159.6 63.7988 158.969 63.7988 158.173C63.7988 157.526 63.6559 156.888 63.3701 156.256C63.0993 155.61 62.7909 155.077 62.4449 154.656C62.0989 154.235 61.7153 153.777 61.294 153.281C60.8728 152.785 60.587 152.409 60.4365 152.154C59.7295 152.619 59.2556 153.085 59.0149 153.551C58.7742 154.017 58.6539 154.648 58.6539 155.445C58.6539 156.106 58.8118 156.767 59.1277 157.429C59.4437 158.075 59.7897 158.608 60.1658 159.029C60.5569 159.435 60.9556 159.878 61.3617 160.359C61.783 160.825 62.0613 161.201 62.1967 161.487ZM61.452 150.823C62.7608 151.395 63.8816 152.311 64.8143 153.574C65.762 154.821 66.2359 155.918 66.2359 156.865C66.2359 157.436 66.0704 158.09 65.7395 158.826C65.4235 159.548 64.8519 160.314 64.0245 161.126C63.2121 161.922 62.2418 162.516 61.1135 162.907C59.8047 162.336 58.6764 161.426 57.7287 160.179C56.796 158.917 56.3296 157.812 56.3296 156.865C56.3296 156.294 56.4876 155.648 56.8035 154.926C57.1344 154.19 57.7061 153.423 58.5185 152.627C59.3459 151.815 60.3237 151.214 61.452 150.823Z" fill="#374A4B"/>
            <path d="M74.3722 151.432L76.3354 162.591H73.966L72.4767 154.047C70.6263 156.347 69.7011 158.932 69.7011 161.802C69.7011 162.163 69.7086 162.426 69.7237 162.591H67.264C67.3242 160.773 67.6551 159.27 68.2569 158.082C68.8737 156.895 70.2201 155.234 72.2961 153.1L71.9351 151.049H73.8306C74.1465 151.049 74.327 151.177 74.3722 151.432Z" fill="#374A4B"/>
            <path d="M83.8849 151.612L80.0488 153.393V155.986L82.4859 154.859L83.411 156.189L80.0488 157.767V160.517C80.0488 160.998 80.2142 161.239 80.5452 161.239C80.6505 161.239 80.7257 161.224 80.7709 161.194L83.05 160.089L84.5168 161.216L81.3576 162.681C80.9965 162.847 80.6204 162.929 80.2293 162.929C79.5523 162.929 78.9656 162.704 78.4692 162.253C77.9878 161.802 77.7471 161.171 77.7471 160.359V153.686C77.7471 153.01 78.0329 152.552 78.6046 152.311L81.8991 150.778L83.8849 151.612Z" fill="#374A4B"/>
            <path d="M97.0885 154.07C96.3363 154.07 95.712 154.167 95.2156 154.363C94.7191 154.558 94.4182 154.656 94.3129 154.656C94.1926 154.656 93.9895 154.528 93.7037 154.273C93.4178 154.017 93.2749 153.837 93.2749 153.732C93.2749 153.611 93.4103 153.446 93.6811 153.236C93.9669 153.01 94.2001 152.897 94.3806 152.897C94.4258 152.897 94.5235 152.943 94.674 153.033C94.8395 153.123 95.0952 153.213 95.4412 153.303C95.7872 153.393 96.2235 153.438 96.75 153.438C97.6677 153.438 98.3597 153.1 98.8261 152.424C99.2924 151.748 99.5256 150.936 99.5256 149.989C99.5256 148.982 99.2999 148.193 98.8486 147.622C98.4124 147.051 97.8332 146.766 97.1111 146.766C96.2536 146.766 95.6217 147.111 95.2156 147.803C94.8244 148.479 94.6289 149.561 94.6289 151.049C94.6289 151.259 94.17 151.364 93.2524 151.364C92.3347 151.364 91.8759 151.259 91.8759 151.049C91.8759 150.448 91.9661 149.869 92.1466 149.313C92.3422 148.757 92.6356 148.246 93.0267 147.78C93.4178 147.299 93.9594 146.916 94.6514 146.63C95.3585 146.345 96.1784 146.202 97.1111 146.202C98.8411 146.202 100.127 146.54 100.97 147.216C101.827 147.893 102.256 148.967 102.256 150.44C102.256 152.108 101.436 153.213 99.7964 153.754C100.97 154.115 101.827 154.716 102.369 155.558C102.91 156.384 103.181 157.301 103.181 158.308C103.181 159.811 102.752 160.938 101.895 161.689C101.053 162.441 99.8265 162.817 98.2168 162.817C97.5097 162.817 96.9005 162.659 96.389 162.343C95.8775 162.013 95.3735 161.847 94.8771 161.847C94.6966 161.847 94.3731 162.065 93.9068 162.501C93.4554 162.937 93.117 163.155 92.8913 163.155C92.5152 163.155 92.1166 162.967 91.6953 162.591C91.2891 162.231 91.0861 161.832 91.0861 161.396C91.0861 161.216 91.3117 160.908 91.763 160.472C92.2143 160.036 92.6205 159.818 92.9816 159.818C93.3426 159.818 93.7262 159.939 94.1324 160.179C94.5536 160.42 94.9297 160.683 95.2607 160.968C95.6067 161.239 96.058 161.494 96.6146 161.735C97.1712 161.975 97.7655 162.095 98.3973 162.095C98.9539 162.095 99.4278 161.742 99.8189 161.036C100.225 160.314 100.428 159.382 100.428 158.24C100.428 157.068 100.165 156.084 99.6384 155.287C99.1119 154.475 98.2619 154.07 97.0885 154.07Z" fill="#374A4B"/>
            <path d="M110.64 146.743C109.994 146.743 109.46 146.923 109.038 147.284C108.617 147.63 108.301 148.171 108.091 148.907C107.88 149.629 107.73 150.425 107.639 151.297C107.564 152.169 107.526 153.243 107.526 154.521C107.526 155.543 107.549 156.422 107.594 157.158C107.639 157.895 107.73 158.601 107.865 159.277C108 159.954 108.181 160.502 108.407 160.923C108.632 161.344 108.933 161.674 109.309 161.915C109.685 162.155 110.129 162.276 110.64 162.276C111.272 162.276 111.799 162.103 112.22 161.757C112.641 161.396 112.957 160.855 113.168 160.134C113.394 159.398 113.544 158.593 113.619 157.722C113.709 156.85 113.755 155.776 113.755 154.498C113.755 153.221 113.709 152.146 113.619 151.274C113.544 150.388 113.394 149.584 113.168 148.862C112.957 148.141 112.641 147.607 112.22 147.262C111.799 146.916 111.272 146.743 110.64 146.743ZM106.127 148.434C107.12 146.931 108.625 146.179 110.64 146.179C112.656 146.179 114.161 146.938 115.154 148.456C116.147 149.959 116.643 151.981 116.643 154.521C116.643 157.061 116.147 159.082 115.154 160.585C114.161 162.073 112.656 162.817 110.64 162.817C108.625 162.817 107.12 162.065 106.127 160.562C105.134 159.059 104.638 157.038 104.638 154.498C104.638 151.958 105.134 149.937 106.127 148.434Z" fill="#374A4B"/>
            <path d="M135.578 151.432L137.541 162.591H135.172L133.638 153.777C133.472 154.047 133.186 154.453 132.78 154.994C132.389 155.535 132.05 156.054 131.765 156.55C131.479 157.045 131.261 157.556 131.11 158.082L131.9 162.591H129.553L128.064 154.182C126.559 156.347 125.807 158.849 125.807 161.689C125.807 162.05 125.837 162.351 125.898 162.591H123.438C123.468 161.539 123.521 160.735 123.596 160.179C123.671 159.623 123.852 158.962 124.137 158.195C124.423 157.429 124.86 156.662 125.446 155.896C126.033 155.114 126.845 154.182 127.883 153.1L127.5 151.049H129.395C129.711 151.049 129.892 151.177 129.937 151.432L130.772 156.189C130.862 156.084 131.05 155.873 131.336 155.558C131.637 155.227 131.855 154.979 131.99 154.814C132.126 154.648 132.299 154.43 132.509 154.16C132.735 153.889 132.923 153.641 133.073 153.416C133.224 153.191 133.352 152.965 133.457 152.74L133.141 151.049H135.082C135.368 151.049 135.533 151.177 135.578 151.432Z" fill="#374A4B"/>
            <path d="M145.001 151.432L146.964 162.591H144.617L144.346 161.194C143.444 162.276 142.27 162.817 140.826 162.817C139.969 162.817 139.352 162.554 138.976 162.028C138.615 161.502 138.434 160.908 138.434 160.247C138.434 158.308 139.961 156.061 143.015 153.506L142.564 151.049H144.459C144.775 151.049 144.956 151.177 145.001 151.432ZM144.188 160.202L143.105 154.115C141.435 155.513 140.6 156.993 140.6 158.556C140.6 159.142 140.751 159.713 141.052 160.269C141.353 160.81 141.811 161.081 142.428 161.081C143.18 161.081 143.767 160.788 144.188 160.202Z" fill="#374A4B"/>
            <path d="M153.882 151.612H150.181C150.241 154.363 151.475 155.851 153.882 156.076V151.612ZM153.882 162.591V156.685C152.949 156.685 152.099 157.188 151.332 158.195C150.564 159.187 150.181 160.652 150.181 162.591H147.857C147.857 159.405 149.105 157.376 151.602 156.504C150.173 156.264 149.188 155.738 148.646 154.926C148.12 154.1 147.857 152.807 147.857 151.049L156.183 151.049V162.591L153.882 162.591Z" fill="#374A4B"/>
            <path d="M162.639 157.305V155.504H183.897V157.305H162.639Z" fill="#374A4B"/>
            <path d="M202.268 151.432L204.231 162.591H201.862L200.327 153.777C200.162 154.047 199.876 154.453 199.47 154.994C199.078 155.535 198.74 156.054 198.454 156.55C198.168 157.045 197.95 157.556 197.8 158.082L198.589 162.591H196.243L194.753 154.182C193.249 156.347 192.497 158.849 192.497 161.689C192.497 162.05 192.527 162.351 192.587 162.591H190.127C190.157 161.539 190.21 160.735 190.285 160.179C190.361 159.623 190.541 158.962 190.827 158.195C191.113 157.429 191.549 156.662 192.136 155.896C192.722 155.114 193.535 154.182 194.573 153.1L194.189 151.049H196.085C196.401 151.049 196.581 151.177 196.626 151.432L197.461 156.189C197.551 156.084 197.74 155.873 198.025 155.558C198.326 155.227 198.544 154.979 198.68 154.814C198.815 154.648 198.988 154.43 199.199 154.16C199.424 153.889 199.612 153.641 199.763 153.416C199.913 153.191 200.041 152.965 200.147 152.74L199.831 151.049H201.771C202.057 151.049 202.223 151.177 202.268 151.432Z" fill="#374A4B"/>
            <path d="M216.294 151.049H218.618V162.591H216.294V151.049ZM205.755 151.049H208.08V155.197L209.84 154.182C210.487 154.708 211.314 155.723 212.322 157.226C213.345 158.729 214.255 160.517 215.052 162.591H205.755V151.049ZM208.08 162.028H212.006C211.63 160.585 211.156 159.262 210.584 158.06C210.013 156.858 209.486 155.941 209.005 155.31L208.08 155.828V162.028Z" fill="#374A4B"/>
            <path d="M47.3169 181.51C47.5275 182.562 47.6328 183.501 47.6328 184.328C47.6328 184.764 47.5426 185.177 47.362 185.568C47.1966 185.958 46.986 186.282 46.7302 186.537C46.4745 186.793 46.2262 187.018 45.9855 187.213C45.7448 187.409 45.5342 187.552 45.3537 187.642L45.0829 187.777L44.4285 186.853C44.4887 186.808 44.5639 186.732 44.6542 186.627C44.7444 186.537 44.8648 186.319 45.0152 185.973C45.1657 185.628 45.2409 185.26 45.2409 184.869C45.2409 183.486 44.9851 181.923 44.4737 180.18C43.9622 178.436 43.7064 176.821 43.7064 175.333C43.7064 174.762 43.8644 174.116 44.1803 173.394C44.5113 172.658 45.0829 171.891 45.8953 171.095C46.7076 170.283 47.678 169.682 48.8062 169.291C50.1151 169.862 51.2358 170.779 52.1685 172.042C53.1163 173.289 53.5902 174.386 53.5902 175.333C53.5902 176.129 53.3194 176.994 52.7778 177.925C52.2513 178.857 51.484 179.684 50.4761 180.405C49.4832 181.127 48.4302 181.495 47.3169 181.51ZM47.0687 180.518C49.8067 180.398 51.1756 179.105 51.1756 176.64C51.1756 175.994 51.0327 175.355 50.7469 174.724C50.4611 174.078 50.1451 173.544 49.7991 173.124C49.4682 172.703 49.0846 172.244 48.6483 171.748C48.2271 171.252 47.9412 170.877 47.7908 170.621C47.0837 171.087 46.6099 171.553 46.3692 172.019C46.1435 172.47 46.0307 173.101 46.0307 173.913C46.0307 174.364 46.0457 174.814 46.0758 175.265C46.1209 175.716 46.1585 176.107 46.1886 176.438C46.2338 176.753 46.3015 177.136 46.3917 177.587C46.482 178.038 46.5497 178.369 46.5948 178.579C46.6399 178.775 46.7227 179.12 46.843 179.616C46.9634 180.097 47.0386 180.398 47.0687 180.518Z" fill="#374A4B"/>
            <path d="M60.8689 169.9L62.8321 181.059H60.4853L60.2145 179.661C59.3119 180.743 58.1385 181.284 56.6943 181.284C55.8368 181.284 55.22 181.021 54.8439 180.495C54.4828 179.969 54.3023 179.376 54.3023 178.714C54.3023 176.776 55.8293 174.529 58.8831 171.974L58.4318 169.517H60.3273C60.6433 169.517 60.8238 169.644 60.8689 169.9ZM60.0566 178.669L58.9734 172.583C57.3035 173.98 56.4686 175.461 56.4686 177.024C56.4686 177.61 56.6191 178.181 56.9199 178.737C57.2208 179.278 57.6796 179.549 58.2964 179.549C59.0486 179.549 59.6353 179.255 60.0566 178.669Z" fill="#374A4B"/>
            <path d="M68.8021 172.244C68.0649 171.373 67.6362 170.832 67.5158 170.621C66.8088 171.087 66.3349 171.553 66.0942 172.019C65.8535 172.485 65.7332 173.116 65.7332 173.913C65.7332 174.574 65.8911 175.235 66.207 175.896C66.5229 176.543 66.8765 177.076 67.2676 177.497C67.6588 177.903 68.0574 178.346 68.4636 178.827C68.8848 179.293 69.1631 179.669 69.2985 179.954C70.0657 179.383 70.5396 178.797 70.7202 178.196L71.9838 178.669C71.0361 179.917 69.7799 180.819 68.2154 181.375C66.9066 180.803 65.7783 179.894 64.8305 178.647C63.8978 177.384 63.4315 176.28 63.4315 175.333C63.4315 174.762 63.5894 174.116 63.9053 173.394C64.2363 172.658 64.808 171.891 65.6203 171.095C66.4327 170.283 67.403 169.682 68.5313 169.291C69.4038 169.667 70.2463 170.261 71.0586 171.072L68.8021 172.244Z" fill="#374A4B"/>
            <path d="M77.9538 172.244C77.2166 171.373 76.7879 170.832 76.6675 170.621C75.9605 171.087 75.4866 171.553 75.2459 172.019C75.0052 172.485 74.8849 173.116 74.8849 173.913C74.8849 174.574 75.0428 175.235 75.3587 175.896C75.6747 176.543 76.0282 177.076 76.4193 177.497C76.8105 177.903 77.2091 178.346 77.6153 178.827C78.0365 179.293 78.3148 179.669 78.4502 179.954C79.2175 179.383 79.6913 178.797 79.8719 178.196L81.1355 178.669C80.1878 179.917 78.9316 180.819 77.3671 181.375C76.0583 180.803 74.93 179.894 73.9822 178.647C73.0495 177.384 72.5832 176.28 72.5832 175.333C72.5832 174.762 72.7411 174.116 73.057 173.394C73.388 172.658 73.9597 171.891 74.772 171.095C75.5844 170.283 76.5547 169.682 77.683 169.291C78.5555 169.667 79.398 170.261 80.2103 171.072L77.9538 172.244Z" fill="#374A4B"/>
            <path d="M82.5472 169.517H84.8489V174.296C85.9622 173.92 86.7971 173.357 87.3537 172.605C87.9103 171.854 88.1886 170.824 88.1886 169.517H90.4903V170.08C90.4903 171.268 90.0841 172.199 89.2718 172.876C88.4745 173.552 87.2935 174.138 85.729 174.634C87.2634 174.935 88.4444 175.581 89.2718 176.573C90.1142 177.565 90.5355 179.06 90.5355 181.059H88.2338C88.2338 179.18 87.9028 177.768 87.2409 176.821C86.579 175.859 85.7816 175.28 84.8489 175.085V181.059H82.5472V169.517Z" fill="#374A4B"/>
            <path d="M98.3107 169.9L100.274 181.059H97.927L97.6563 179.661C96.7536 180.743 95.5802 181.284 94.136 181.284C93.2785 181.284 92.6617 181.021 92.2856 180.495C91.9246 179.969 91.7441 179.376 91.7441 178.714C91.7441 176.776 93.271 174.529 96.3249 171.974L95.8736 169.517H97.7691C98.085 169.517 98.2655 169.644 98.3107 169.9ZM97.4983 178.669L96.4152 172.583C94.7453 173.98 93.9104 175.461 93.9104 177.024C93.9104 177.61 94.0608 178.181 94.3617 178.737C94.6626 179.278 95.1214 179.549 95.7382 179.549C96.4904 179.549 97.0771 179.255 97.4983 178.669Z" fill="#374A4B"/>
            <path d="M107.101 169.517H109.426V174.296C110.539 173.92 111.366 173.357 111.908 172.605C112.464 171.854 112.743 170.824 112.743 169.517H115.067V170.08C115.067 171.268 114.661 172.199 113.848 172.876C113.051 173.552 111.87 174.138 110.306 174.634C111.84 174.935 113.021 175.581 113.848 176.573C114.691 177.565 115.112 179.06 115.112 181.059H112.788C112.788 179.18 112.457 177.768 111.795 176.821C111.148 175.859 110.358 175.28 109.426 175.085V181.059H107.101V175.085C106.169 175.28 105.371 175.859 104.709 176.821C104.062 177.768 103.739 179.18 103.739 181.059H101.437C101.437 179.06 101.851 177.565 102.678 176.573C103.521 175.581 104.709 174.935 106.244 174.634C104.679 174.138 103.491 173.552 102.678 172.876C101.881 172.199 101.482 171.268 101.482 170.08V169.517H103.784C103.784 170.824 104.055 171.854 104.597 172.605C105.153 173.357 105.988 173.92 107.101 174.296V169.517Z" fill="#374A4B"/>
            <path d="M123 170.08L119.164 171.861V174.454L121.601 173.326L122.526 174.657L119.164 176.235V178.985C119.164 179.466 119.329 179.706 119.66 179.706C119.766 179.706 119.841 179.691 119.886 179.661L122.165 178.557L123.632 179.684L120.473 181.149C120.112 181.314 119.736 181.397 119.345 181.397C118.668 181.397 118.081 181.172 117.584 180.721C117.103 180.27 116.862 179.639 116.862 178.827V172.154C116.862 171.478 117.148 171.02 117.72 170.779L121.014 169.246L123 170.08Z" fill="#374A4B"/>
            <path d="M136.913 169.9L138.876 181.059H136.507L134.973 172.244C134.807 172.515 134.521 172.921 134.115 173.462C133.724 174.003 133.385 174.521 133.1 175.017C132.814 175.513 132.596 176.024 132.445 176.55L133.235 181.059H130.888L129.399 172.65C127.894 174.814 127.142 177.317 127.142 180.157C127.142 180.518 127.172 180.819 127.233 181.059H124.773C124.803 180.007 124.856 179.203 124.931 178.647C125.006 178.091 125.187 177.429 125.472 176.663C125.758 175.896 126.195 175.13 126.781 174.364C127.368 173.582 128.18 172.65 129.218 171.568L128.835 169.517H130.73C131.046 169.517 131.227 169.644 131.272 169.9L132.107 174.657C132.197 174.551 132.385 174.341 132.671 174.025C132.972 173.695 133.19 173.447 133.325 173.281C133.461 173.116 133.634 172.898 133.844 172.628C134.07 172.357 134.258 172.109 134.408 171.884C134.559 171.658 134.687 171.433 134.792 171.207L134.476 169.517H136.417C136.703 169.517 136.868 169.644 136.913 169.9Z" fill="#374A4B"/>
            <path d="M141.935 179.436C141.935 180.187 141.8 180.924 141.529 181.645C141.273 182.367 141.04 182.877 140.83 183.178C140.619 183.479 140.431 183.712 140.266 183.877H139.701C140.047 183.11 140.22 182.427 140.22 181.825C140.22 181.645 140.123 181.254 139.927 180.653C139.747 180.052 139.656 179.496 139.656 178.985C139.656 178.835 139.731 178.76 139.882 178.76H141.71C141.86 178.76 141.935 178.835 141.935 178.985V179.436Z" fill="#374A4B"/>
            <path d="M148.911 169.517H151.213V174.296C152.326 173.92 153.161 173.357 153.717 172.605C154.274 171.854 154.552 170.824 154.552 169.517L156.854 169.517V170.08C156.854 171.268 156.448 172.199 155.635 172.876C154.838 173.552 153.657 174.138 152.093 174.634C153.627 174.935 154.808 175.581 155.635 176.573C156.478 177.565 156.899 179.06 156.899 181.059L154.597 181.059C154.597 179.18 154.266 177.768 153.605 176.821C152.943 175.859 152.145 175.28 151.213 175.085V181.059H148.911V169.517Z" fill="#374A4B"/>
            <path d="M164.674 169.9L166.637 181.059H164.291L164.02 179.661C163.117 180.743 161.944 181.284 160.5 181.284C159.642 181.284 159.025 181.021 158.649 180.495C158.288 179.969 158.108 179.376 158.108 178.714C158.108 176.776 159.635 174.529 162.689 171.974L162.237 169.517H164.133C164.449 169.517 164.629 169.644 164.674 169.9ZM163.862 178.669L162.779 172.583C161.109 173.98 160.274 175.461 160.274 177.024C160.274 177.61 160.424 178.181 160.725 178.737C161.026 179.278 161.485 179.549 162.102 179.549C162.854 179.549 163.441 179.255 163.862 178.669Z" fill="#374A4B"/>
            <path d="M168.049 169.517H170.351V174.296C171.464 173.92 172.299 173.357 172.856 172.605C173.412 171.854 173.691 170.824 173.691 169.517H175.992V170.08C175.992 171.268 175.586 172.199 174.774 172.876C173.976 173.552 172.796 174.138 171.231 174.634C172.765 174.935 173.946 175.581 174.774 176.573C175.616 177.565 176.037 179.06 176.037 181.059H173.736C173.736 179.18 173.405 177.768 172.743 176.821C172.081 175.859 171.284 175.28 170.351 175.085V181.059H168.049V169.517Z" fill="#374A4B"/>
            <path d="M185.969 172.244L183.712 171.072C184.525 170.261 185.367 169.667 186.24 169.291C187.368 169.682 188.338 170.283 189.151 171.095C189.963 171.891 190.527 172.658 190.843 173.394C191.174 174.116 191.34 174.762 191.34 175.333C191.34 176.28 190.866 177.384 189.918 178.647C188.985 179.894 187.865 180.803 186.556 181.375C184.991 180.819 183.735 179.917 182.787 178.669L184.051 178.196C184.231 178.797 184.705 179.383 185.473 179.954C185.608 179.654 185.916 179.248 186.398 178.737C186.879 178.226 187.353 177.662 187.819 177.046C188.301 176.43 188.639 175.806 188.835 175.175H184.344V174.611H188.97C189.015 174.386 189.038 174.153 189.038 173.913C189.038 173.116 188.918 172.485 188.677 172.019C188.436 171.553 187.962 171.087 187.255 170.621C187.135 170.832 186.706 171.373 185.969 172.244Z" fill="#374A4B"/>
            <path d="M195.753 181.059V170.08C195.151 170.08 194.707 170.103 194.421 170.148C194.135 170.193 193.872 170.313 193.631 170.509C193.406 170.704 193.263 170.989 193.203 171.365C193.142 171.741 193.112 172.282 193.112 172.988H192.548C192.548 172.417 192.488 171.891 192.368 171.41C192.247 170.914 192.127 170.569 192.007 170.373L191.826 170.08V169.517H201.981V170.08C201.484 170.726 201.236 171.696 201.236 172.988H200.694C200.694 172.282 200.664 171.741 200.604 171.365C200.544 170.989 200.394 170.704 200.153 170.509C199.927 170.313 199.671 170.193 199.386 170.148C199.1 170.103 198.656 170.08 198.054 170.08V181.059H195.753Z" fill="#374A4B"/>
            <path d="M208.357 179.954C209.004 179.473 209.432 179 209.643 178.534C209.854 178.068 209.959 177.437 209.959 176.64C209.959 175.994 209.816 175.355 209.53 174.724C209.259 174.078 208.951 173.544 208.605 173.124C208.259 172.703 207.875 172.244 207.454 171.748C207.033 171.252 206.747 170.877 206.597 170.621C205.89 171.087 205.416 171.553 205.175 172.019C204.934 172.485 204.814 173.116 204.814 173.913C204.814 174.574 204.972 175.235 205.288 175.896C205.604 176.543 205.95 177.076 206.326 177.497C206.717 177.903 207.116 178.346 207.522 178.827C207.943 179.293 208.221 179.669 208.357 179.954ZM207.612 169.291C208.921 169.862 210.042 170.779 210.974 172.042C211.922 173.289 212.396 174.386 212.396 175.333C212.396 175.904 212.231 176.558 211.9 177.294C211.584 178.016 211.012 178.782 210.185 179.594C209.372 180.39 208.402 180.984 207.274 181.375C205.965 180.803 204.837 179.894 203.889 178.647C202.956 177.384 202.49 176.28 202.49 175.333C202.49 174.762 202.648 174.116 202.964 173.394C203.295 172.658 203.866 171.891 204.679 171.095C205.506 170.283 206.484 169.682 207.612 169.291Z" fill="#374A4B"/>
            <path d="M97.872 190.712C97.1348 189.84 96.7061 189.299 96.5857 189.089C95.8787 189.555 95.4048 190.021 95.1641 190.487C94.9234 190.953 94.8031 191.584 94.8031 192.38C94.8031 193.042 94.961 193.703 95.2769 194.364C95.5929 195.01 95.9464 195.544 96.3375 195.965C96.7287 196.371 97.1273 196.814 97.5335 197.295C97.9547 197.761 98.233 198.137 98.3684 198.422C99.1357 197.851 99.6095 197.265 99.7901 196.664L101.054 197.137C100.106 198.385 98.8498 199.286 97.2853 199.842C95.9765 199.271 94.8482 198.362 93.9004 197.115C92.9677 195.852 92.5014 194.747 92.5014 193.801C92.5014 193.23 92.6593 192.583 92.9752 191.862C93.3062 191.125 93.8779 190.359 94.6902 189.562C95.5026 188.751 96.4729 188.15 97.6012 187.759C98.4737 188.135 99.3162 188.728 100.129 189.54L97.872 190.712Z" fill="#374A4B"/>
            <path d="M111.334 199.527L105.06 199.527C104.549 199.948 104.135 200.496 103.819 201.172C103.519 201.864 103.368 202.502 103.368 203.089H102.804C102.804 202.518 102.706 201.931 102.511 201.33C102.315 200.729 102.112 200.278 101.901 199.978L101.608 199.527V198.963H104.203L107.159 187.984H109.506L112.462 198.963H114.786V199.527C114.696 199.647 114.583 199.812 114.448 200.023C114.312 200.248 114.132 200.669 113.906 201.285C113.681 201.916 113.568 202.518 113.568 203.089H113.026C113.026 202.502 112.868 201.864 112.552 201.172C112.251 200.496 111.845 199.948 111.334 199.527ZM104.745 198.963H110.07L107.407 189.066L104.745 198.963Z" fill="#374A4B"/>
            <path d="M122.11 188.548L118.274 190.329V192.921L120.711 191.794L121.636 193.124L118.274 194.702V197.453C118.274 197.934 118.439 198.174 118.77 198.174C118.876 198.174 118.951 198.159 118.996 198.129L121.275 197.024L122.742 198.152L119.583 199.617C119.222 199.782 118.846 199.865 118.455 199.865C117.778 199.865 117.191 199.639 116.694 199.189C116.213 198.738 115.972 198.106 115.972 197.295V190.622C115.972 189.946 116.258 189.487 116.83 189.247L120.124 187.714L122.11 188.548Z" fill="#374A4B"/>
            <path d="M130.946 188.368L132.909 199.527H130.54L129.05 190.983C127.2 193.282 126.275 195.867 126.275 198.738C126.275 199.098 126.282 199.361 126.297 199.527H123.838C123.898 197.708 124.229 196.205 124.831 195.018C125.447 193.831 126.794 192.17 128.87 190.036L128.509 187.984H130.404C130.72 187.984 130.901 188.112 130.946 188.368Z" fill="#374A4B"/>
            <path d="M140.346 188.368L142.309 199.527H139.962L139.691 198.129C138.789 199.211 137.615 199.752 136.171 199.752C135.314 199.752 134.697 199.489 134.321 198.963C133.96 198.437 133.779 197.843 133.779 197.182C133.779 195.243 135.306 192.997 138.36 190.442L137.909 187.984H139.804C140.12 187.984 140.301 188.112 140.346 188.368ZM139.534 197.137L138.45 191.05C136.78 192.448 135.946 193.928 135.946 195.491C135.946 196.078 136.096 196.649 136.397 197.205C136.698 197.746 137.157 198.016 137.773 198.016C138.526 198.016 139.112 197.723 139.534 197.137Z" fill="#374A4B"/>
            <path d="M146.406 199.527V188.548C145.804 188.548 145.361 188.571 145.075 188.616C144.789 188.661 144.526 188.781 144.285 188.976C144.059 189.172 143.916 189.457 143.856 189.833C143.796 190.209 143.766 190.75 143.766 191.456H143.202C143.202 190.885 143.142 190.359 143.021 189.878C142.901 189.382 142.781 189.036 142.66 188.841L142.48 188.548V187.984H152.634V188.548C152.138 189.194 151.89 190.164 151.89 191.456H151.348C151.348 190.75 151.318 190.209 151.258 189.833C151.198 189.457 151.047 189.172 150.806 188.976C150.581 188.781 150.325 188.661 150.039 188.616C149.753 188.571 149.31 188.548 148.708 188.548V199.527H146.406Z" fill="#374A4B"/>
            <path d="M153.279 187.984H155.603V192.132L157.363 191.118C158.01 191.644 158.837 192.658 159.845 194.161C160.868 195.664 161.778 197.453 162.576 199.527H153.279V187.984ZM155.603 198.963H159.529C159.153 197.52 158.679 196.198 158.108 194.995C157.536 193.793 157.009 192.876 156.528 192.245L155.603 192.764V198.963Z" fill="#374A4B"/>
        </g>
    </g>
    <defs>
        <filter id="filter0_f_224_679" x="19.8256" y="51.0886" width="216" height="155" filterUnits="userSpaceOnUse" color-interpolation-filters="sRGB">
            <feFlood flood-opacity="0" result="BackgroundImageFix"/>
            <feBlend mode="normal" in="SourceGraphic" in2="BackgroundImageFix" result="shape"/>
            <feGaussianBlur stdDeviation="1.5" result="effect1_foregroundBlur_224_679"/>
        </filter>
        <linearGradient id="paint0_linear_224_679" x1="83.5128" y1="256.089" x2="83.5128" y2="0.795621" gradientUnits="userSpaceOnUse">
            <stop stop-color="#EDD6B9"/>
            <stop offset="1" stop-color="#D4B492"/>
        </linearGradient>
        <linearGradient id="paint1_linear_224_679" x1="83.5128" y1="256.089" x2="83.5128" y2="0.795621" gradientUnits="userSpaceOnUse">
            <stop stop-color="#EDD6B9"/>
            <stop offset="1" stop-color="#D4B492"/>
        </linearGradient>
    </defs>
</svg>
