<svg width="159" height="48" viewBox="0 0 159 48" fill="none" xmlns="http://www.w3.org/2000/svg">
    <g clip-path="url(#clip0_101_471)">
        <path d="M0 18.2925H6.18589L5.96368 19.4707H1.42148V23.3364H5.19576V24.4981H1.42148V30.1609H0V18.2925Z" fill="#374A4B"/>
        <path d="M11.2084 18.2395H12.5972V25.8517C12.5852 26.462 12.6257 27.0722 12.7181 27.6753C12.924 28.612 13.7802 29.1316 15.1004 29.1316C16.0807 29.1316 16.8159 28.8734 17.1754 28.3869C17.5348 27.9004 17.6198 27.4668 17.6198 26.3581V18.2395H19.0086V26.5137C19.0086 28.2181 18.8387 28.7874 18.1165 29.4328C17.3943 30.0782 16.4565 30.3495 15.035 30.3495C13.2181 30.3495 12.094 29.7637 11.5548 28.6351C11.2934 28.1122 11.2084 27.8673 11.2084 26.5501V18.2395Z" fill="#374A4B"/>
        <path d="M24.1161 18.2395H31.9L31.8118 19.4343H28.6257V30.1477H27.2728V19.4343H24.1161V18.2395Z" fill="#374A4B"/>
        <path d="M37.0958 18.2395H38.4715V25.8517C38.4595 26.462 38.4999 27.0722 38.5924 27.6753C38.7983 28.612 39.6544 29.1316 40.9746 29.1316C41.9549 29.1316 42.6902 28.8734 43.0496 28.3869C43.4091 27.9004 43.4941 27.4668 43.4941 26.3581V18.2395H44.8829V26.5137C44.8829 28.2181 44.7097 28.7874 43.994 29.4328C43.2784 30.0782 42.3275 30.3495 40.906 30.3495C39.0891 30.3495 37.965 29.7637 37.4258 28.6351C37.1709 28.1122 37.099 27.8673 37.099 26.5501L37.0958 18.2395Z" fill="#374A4B"/>
        <path d="M51.1668 18.2561H53.9084C55.5227 18.2561 56.307 18.5507 56.8723 19.0206C57.2442 19.3183 57.543 19.699 57.7454 20.1331C57.9478 20.5672 58.0482 21.0428 58.0389 21.5227C58.0389 23.4821 56.7874 24.7828 54.9182 24.7828H54.7483C55.1963 25.1716 55.5938 25.6164 55.9312 26.1066C56.1697 26.4376 56.4802 26.9109 56.8919 27.5C57.3037 28.0891 58.6402 30.1477 58.6402 30.1477H56.8723C56.6287 29.5655 56.3253 29.0108 55.9671 28.4929C55.2286 27.3643 54.5097 26.3217 53.8758 25.5407C53.4117 24.9515 53.1536 24.7894 52.5687 24.7761V30.1411H51.1635L51.1668 18.2561ZM52.5883 19.4509V23.8991H53.83C54.879 23.8991 55.5325 23.727 55.9606 23.2901C56.3527 22.926 56.5586 22.2806 56.5586 21.5029C56.5613 21.1218 56.4543 20.7482 56.2505 20.4279C56.0468 20.1075 55.7553 19.8542 55.4116 19.6991C54.9405 19.5175 54.4383 19.4331 53.9346 19.4509H52.5883Z" fill="#374A4B"/>
        <path d="M64.4012 18.3256H70.8224L70.6362 19.5071H65.8227V23.3629H69.8421V24.5908H65.8227V28.9132H70.9956V30.1477H64.4012V18.3256Z" fill="#374A4B"/>
        <path d="M97.8339 18.2395H105.618L105.529 19.4343H102.34V30.1477H100.984V19.4343H97.8339V18.2395Z" fill="#374A4B"/>
        <path d="M114.8 18.0409C115.53 18.0147 116.254 18.1794 116.902 18.5191C117.551 18.8588 118.102 19.3621 118.503 19.9804C119.241 21.0957 119.568 22.4825 119.568 24.3955C119.568 26.6857 119.055 28.1254 117.852 29.2342C117.456 29.6176 116.989 29.9168 116.477 30.114C115.965 30.3113 115.419 30.4026 114.872 30.3826C114.239 30.3968 113.611 30.2687 113.033 30.0078C112.455 29.7468 111.942 29.3594 111.529 28.8734C110.604 27.7945 110.121 26.1794 110.121 24.1505C110.121 20.3577 111.905 18.0409 114.8 18.0409ZM114.8 19.1861C114.296 19.1669 113.797 19.2852 113.353 19.5285C112.91 19.7719 112.54 20.1314 112.281 20.5695C111.872 21.3539 111.679 22.3832 111.679 23.8593C111.679 25.6432 111.973 27.2087 112.438 28.0063C112.902 28.8039 113.98 29.2938 114.937 29.2938C115.358 29.3141 115.778 29.2311 116.16 29.0519C116.542 28.8727 116.876 28.6025 117.133 28.2645C117.715 27.5198 117.989 26.5633 117.989 24.6007C117.989 22.8499 117.816 21.6551 117.424 20.8177C117.197 20.3116 116.826 19.8853 116.358 19.593C115.891 19.3007 115.349 19.1556 114.8 19.1761V19.1861Z" fill="#374A4B"/>
        <path d="M124.996 18.3422H127.355C129.155 18.3422 129.969 18.4282 131.123 19.2656C132.459 20.2353 133.113 21.9331 133.113 24.2598C133.113 26.3416 132.564 27.7846 131.776 28.6716C130.747 29.8366 129.907 30.1477 128.074 30.1477H125.005L124.996 18.3422ZM126.401 19.5072V28.9629H127.652C128.134 28.9797 128.617 28.9509 129.093 28.8768C129.44 28.8189 129.771 28.6868 130.063 28.4894C130.356 28.2919 130.603 28.0336 130.789 27.7317C131.347 26.7228 131.62 25.5776 131.577 24.422C131.577 22.6282 131.355 21.5194 130.567 20.5629C129.78 19.6065 129.041 19.4906 127.806 19.4906L126.401 19.5072Z" fill="#374A4B"/>
        <path d="M142.972 18.2395L146.86 30.1543H145.269L144.155 26.4905H139.772L138.642 30.1543H137.22L141.142 18.2395H142.972ZM140.161 25.3222H143.795C143.795 25.3222 142.87 22.3435 142.56 21.3307L141.995 19.4872L141.406 21.2447C141.344 21.483 140.161 25.3222 140.161 25.3222Z" fill="#374A4B"/>
        <path d="M149.929 18.2395H151.664L153.892 22.787C154.082 23.1676 154.337 23.7269 154.49 24.1108C154.66 23.7137 154.886 23.2569 155.124 22.787L157.386 18.2395H159L155.177 25.5208V30.1543H153.723V25.4281L149.929 18.2395Z" fill="#374A4B"/>
        <path d="M86.2333 24.3988C86.1562 24.6848 85.9969 24.9411 85.7757 25.1353C85.5545 25.3294 85.2813 25.4526 84.9909 25.4893C84.7004 25.5259 84.4057 25.4743 84.1443 25.341C83.8828 25.2077 83.6664 24.9987 83.5224 24.7406C83.3784 24.4825 83.3134 24.1869 83.3356 23.8913C83.3578 23.5957 83.4662 23.3134 83.6471 23.0804C83.828 22.8473 84.0731 22.6739 84.3515 22.5822C84.6298 22.4905 84.9288 22.4846 85.2104 22.5653C85.5856 22.6719 85.9039 22.9246 86.0955 23.2682C86.2872 23.6118 86.3367 24.0183 86.2333 24.3988V24.3988Z" fill="#374A4B"/>
        <path d="M81.8446 23.161C81.6801 23.7556 81.6935 24.3862 81.883 24.9731C82.0725 25.5601 82.4296 26.0768 82.9092 26.4581C83.3888 26.8394 83.9692 27.068 84.5771 27.115C85.185 27.1621 85.7931 27.0254 86.3242 26.7224C86.8554 26.4193 87.2859 25.9635 87.5613 25.4125C87.8366 24.8616 87.9444 24.2403 87.8709 23.6273C87.7975 23.0143 87.5462 22.4371 87.1488 21.9688C86.7515 21.5005 86.2258 21.1621 85.6385 20.9965C84.852 20.7747 84.0108 20.878 83.2995 21.2838C82.5881 21.6897 82.0649 22.3648 81.8446 23.161V23.161Z" fill="#374A4B"/>
        <path d="M74.7437 13.0764C74.5384 13.8184 74.555 14.6054 74.7914 15.3379C75.0278 16.0703 75.4734 16.7153 76.0717 17.1912C76.6701 17.6672 77.3944 17.9527 78.153 18.0116C78.9116 18.0706 79.6705 17.9003 80.3335 17.5224C80.9966 17.1445 81.5341 16.5759 81.878 15.8885C82.2219 15.2011 82.3569 14.4259 82.2657 13.6609C82.1746 12.8958 81.8614 12.1754 81.3659 11.5906C80.8704 11.0058 80.2148 10.583 79.482 10.3757C78.9958 10.2377 78.4875 10.1981 77.9862 10.2592C77.4849 10.3202 77.0003 10.4807 76.5603 10.7315C76.1202 10.9824 75.7333 11.3185 75.4216 11.7209C75.1099 12.1232 74.8796 12.5839 74.7437 13.0764V13.0764Z" fill="#374A4B"/>
        <path d="M67.022 5.63308C66.8401 6.29387 66.8557 6.99446 67.0669 7.64627C67.2781 8.29807 67.6754 8.87179 68.2086 9.2949C68.7417 9.71801 69.3868 9.9715 70.0622 10.0233C70.7376 10.0751 71.413 9.92291 72.0029 9.58595C72.5929 9.24899 73.071 8.74241 73.3767 8.13026C73.6825 7.51811 73.8021 6.82789 73.7205 6.14688C73.6389 5.46587 73.3598 4.82466 72.9184 4.30432C72.477 3.78399 71.8931 3.40792 71.2407 3.22365C70.3658 2.97745 69.4303 3.09289 68.6393 3.54461C67.8484 3.99634 67.2667 4.74745 67.022 5.63308V5.63308Z" fill="#374A4B"/>
        <path d="M57.3756 2.22413C57.2164 2.80296 57.2303 3.41659 57.4155 3.98743C57.6007 4.55826 57.9488 5.06068 58.4158 5.43115C58.8829 5.80162 59.4479 6.02351 60.0395 6.06876C60.6311 6.11401 61.2226 5.9806 61.7393 5.68538C62.256 5.39017 62.6747 4.94642 62.9424 4.41022C63.2101 3.87403 63.3149 3.26948 63.2434 2.67301C63.1719 2.07653 62.9274 1.51491 62.5408 1.05916C62.1542 0.603414 61.6429 0.273999 61.0714 0.112564C60.6918 0.00533484 60.2951 -0.0250976 59.904 0.0229951C59.5128 0.0710878 59.1348 0.196768 58.7916 0.392857C58.4484 0.588946 58.1466 0.851606 57.9037 1.16582C57.6607 1.48004 57.4813 1.83965 57.3756 2.22413V2.22413Z" fill="#374A4B"/>
        <path d="M47.5493 2.54185C47.4123 3.03933 47.424 3.56678 47.583 4.05751C47.742 4.54824 48.0411 4.9802 48.4424 5.29878C48.8438 5.61735 49.3294 5.80823 49.8379 5.84728C50.3463 5.88633 50.8548 5.7718 51.299 5.51815C51.7432 5.26451 52.1032 4.88316 52.3334 4.42231C52.5636 3.96147 52.6537 3.44184 52.5923 2.92913C52.531 2.41642 52.3208 1.93365 51.9886 1.54188C51.6563 1.15012 51.2168 0.866934 50.7256 0.728155C50.3995 0.635555 50.0585 0.609035 49.7222 0.650111C49.3859 0.691186 49.061 0.799044 48.7659 0.967522C48.4709 1.136 48.2115 1.36178 48.0028 1.63193C47.794 1.90208 47.6399 2.2113 47.5493 2.54185V2.54185Z" fill="#374A4B"/>
        <path d="M39.1741 5.21934C39.059 5.63558 39.0684 6.07704 39.2012 6.48785C39.3339 6.89865 39.584 7.26034 39.9198 7.52711C40.2556 7.79389 40.662 7.95376 41.0876 7.98648C41.5132 8.01921 41.9387 7.92333 42.3105 7.71097C42.6822 7.49861 42.9834 7.17934 43.1758 6.79354C43.3683 6.40775 43.4435 5.97279 43.3918 5.54372C43.34 5.11465 43.1638 4.71077 42.8854 4.38319C42.6069 4.05561 42.2388 3.81907 41.8275 3.70351C41.2772 3.54978 40.6892 3.62293 40.192 3.90697C39.6948 4.19101 39.3288 4.66284 39.1741 5.21934V5.21934Z" fill="#374A4B"/>
        <path d="M32.6287 8.86663C32.5358 9.20083 32.5429 9.55544 32.6491 9.88555C32.7553 10.2157 32.9558 10.5064 33.2253 10.721C33.4948 10.9356 33.8211 11.0644 34.1629 11.0911C34.5047 11.1177 34.8466 11.041 35.1453 10.8707C35.444 10.7004 35.6861 10.4441 35.841 10.1344C35.9958 9.8246 36.0564 9.47526 36.015 9.1306C35.9737 8.78593 35.8323 8.46145 35.6088 8.19823C35.3852 7.93501 35.0896 7.7449 34.7593 7.65198C34.3178 7.52867 33.846 7.58717 33.4469 7.8147C33.0478 8.04224 32.7537 8.42036 32.6287 8.86663V8.86663Z" fill="#374A4B"/>
        <path d="M27.1911 12.9507C27.1452 13.1182 27.1323 13.2933 27.1532 13.4659C27.1741 13.6385 27.2283 13.8052 27.3128 13.9566C27.3974 14.108 27.5105 14.241 27.6457 14.3481C27.781 14.4551 27.9358 14.5342 28.1012 14.5807C28.4353 14.6746 28.7925 14.6303 29.0944 14.4574C29.3962 14.2846 29.6178 13.9973 29.7106 13.659C29.8033 13.3206 29.7595 12.9587 29.5888 12.6531C29.4182 12.3474 29.1346 12.1229 28.8005 12.029C28.4664 11.935 28.1091 11.9794 27.8073 12.1522C27.5055 12.3251 27.2839 12.6123 27.1911 12.9507V12.9507Z" fill="#374A4B"/>
        <path d="M83.3903 23.5979C83.4947 23.2161 83.7446 22.8919 84.085 22.6967C84.2536 22.6 84.4393 22.538 84.6316 22.514C84.8238 22.49 85.0188 22.5047 85.2055 22.557C85.3922 22.6094 85.5668 22.6985 85.7195 22.8192C85.8722 22.94 85.9999 23.09 86.0953 23.2607C86.1908 23.4314 86.2521 23.6195 86.2757 23.8142C86.2994 24.009 86.2849 24.2065 86.2332 24.3955C86.1288 24.7774 85.8789 25.1016 85.5385 25.2968C85.198 25.492 84.795 25.5422 84.418 25.4364C84.041 25.3307 83.7209 25.0775 83.5282 24.7327C83.3354 24.388 83.2858 23.9798 83.3903 23.5979V23.5979Z" fill="#374A4B"/>
        <path d="M88.988 25.1567C89.2157 24.3325 89.1969 23.4585 88.934 22.6452C88.671 21.8318 88.1758 21.1158 87.511 20.5876C86.8461 20.0594 86.0415 19.7428 85.199 19.6779C84.3564 19.613 83.5138 19.8026 82.7777 20.2229C82.0416 20.6431 81.4451 21.2751 81.0638 22.0388C80.6824 22.8025 80.5333 23.6636 80.6352 24.5131C80.7372 25.3627 81.0857 26.1625 81.6366 26.8114C82.1875 27.4603 82.9161 27.9292 83.7302 28.1586C84.27 28.3139 84.8349 28.3593 85.3922 28.2922C85.9494 28.2252 86.4881 28.0469 86.977 27.7678C87.4658 27.4887 87.8953 27.1142 88.2405 26.6661C88.5856 26.2179 88.8397 25.7049 88.988 25.1567Z" fill="#374A4B"/>
        <path d="M95.0039 34.9203C95.2093 34.1783 95.1927 33.3912 94.9563 32.6588C94.7199 31.9263 94.2743 31.2814 93.6759 30.8054C93.0776 30.3295 92.3533 30.044 91.5947 29.985C90.8361 29.9261 90.0772 30.0964 89.4142 30.4743C88.7511 30.8522 88.2136 31.4208 87.8697 32.1082C87.5258 32.7955 87.3908 33.5708 87.482 34.3358C87.5731 35.1008 87.8863 35.8213 88.3818 36.4061C88.8773 36.9908 89.5329 37.4136 90.2657 37.6209C90.7519 37.7594 91.2603 37.7994 91.7618 37.7385C92.2632 37.6776 92.7479 37.5172 93.1881 37.2663C93.6282 37.0154 94.0152 36.6791 94.3268 36.2765C94.6384 35.8739 94.8685 35.413 95.0039 34.9203Z" fill="#374A4B"/>
        <path d="M102.722 42.3636C102.905 41.7027 102.889 41.0019 102.678 40.35C102.467 39.698 102.069 39.1241 101.536 38.7009C101.003 38.2777 100.357 38.0242 99.6819 37.9725C99.0063 37.9208 98.3308 38.0732 97.7408 38.4105C97.1507 38.7477 96.6727 39.2546 96.3672 39.8671C96.0617 40.4795 95.9424 41.17 96.0245 41.8511C96.1065 42.5323 96.3861 43.1734 96.8281 43.6936C97.27 44.2137 97.8543 44.5894 98.507 44.7731C98.94 44.8958 99.3927 44.9309 99.839 44.8762C100.285 44.8215 100.717 44.6781 101.108 44.4543C101.5 44.2304 101.844 43.9306 102.121 43.5718C102.398 43.2131 102.602 42.8025 102.722 42.3636V42.3636Z" fill="#374A4B"/>
        <path d="M112.372 45.7726C112.531 45.1937 112.517 44.5801 112.332 44.0093C112.147 43.4384 111.799 42.936 111.332 42.5656C110.865 42.1951 110.3 41.9732 109.708 41.9279C109.117 41.8827 108.525 42.0161 108.008 42.3113C107.492 42.6065 107.073 43.0503 106.805 43.5865C106.538 44.1227 106.433 44.7272 106.504 45.3237C106.576 45.9202 106.82 46.4818 107.207 46.9375C107.594 47.3933 108.105 47.7227 108.676 47.8841C109.443 48.0998 110.263 47.9985 110.956 47.6027C111.648 47.2068 112.158 46.5486 112.372 45.7726V45.7726Z" fill="#374A4B"/>
        <path d="M122.195 45.4549C122.332 44.9573 122.321 44.4296 122.162 43.9387C122.003 43.4478 121.704 43.0157 121.302 42.697C120.901 42.3784 120.415 42.1875 119.906 42.1485C119.397 42.1096 118.889 42.2244 118.445 42.4783C118 42.7322 117.64 43.1139 117.41 43.575C117.181 44.0362 117.091 44.5561 117.153 45.0689C117.214 45.5817 117.425 46.0645 117.758 46.456C118.091 46.8476 118.531 47.1304 119.022 47.2686C119.68 47.4537 120.384 47.3666 120.979 47.0266C121.574 46.6865 122.011 46.1213 122.195 45.4549V45.4549Z" fill="#374A4B"/>
        <path d="M130.57 42.7741C130.684 42.3584 130.674 41.9178 130.54 41.5081C130.407 41.0984 130.156 40.738 129.821 40.4725C129.485 40.2069 129.079 40.0481 128.655 40.0162C128.23 39.9843 127.805 40.0807 127.435 40.2932C127.064 40.5057 126.764 40.8247 126.572 41.21C126.38 41.5952 126.306 42.0294 126.358 42.4576C126.41 42.8857 126.586 43.2887 126.864 43.6154C127.142 43.9421 127.51 44.178 127.92 44.2932C128.193 44.3701 128.478 44.3918 128.758 44.3571C129.039 44.3223 129.31 44.2318 129.557 44.0907C129.803 43.9495 130.019 43.7606 130.193 43.5347C130.367 43.3088 130.495 43.0503 130.57 42.7741V42.7741Z" fill="#374A4B"/>
        <path d="M137.119 39.1301C137.212 38.796 137.204 38.4416 137.098 38.1117C136.992 37.7818 136.792 37.4911 136.522 37.2766C136.253 37.0621 135.927 36.9333 135.585 36.9066C135.244 36.8798 134.902 36.9563 134.603 37.1263C134.304 37.2963 134.062 37.5523 133.907 37.8617C133.752 38.1712 133.691 38.5203 133.732 38.8648C133.773 39.2094 133.914 39.5339 134.137 39.7973C134.36 40.0608 134.655 40.2513 134.985 40.3448C135.427 40.4691 135.9 40.4111 136.3 40.1835C136.699 39.9558 136.994 39.5771 137.119 39.1301V39.1301Z" fill="#374A4B"/>
        <path d="M139.609 35.0063C139.54 35.2587 139.547 35.5261 139.628 35.7747C139.709 36.0233 139.861 36.242 140.065 36.403C140.269 36.564 140.515 36.6602 140.773 36.6793C141.031 36.6985 141.289 36.6398 141.514 36.5106C141.739 36.3814 141.921 36.1876 142.037 35.9537C142.153 35.7197 142.198 35.4562 142.166 35.1963C142.134 34.9364 142.027 34.6919 141.858 34.4938C141.689 34.2956 141.466 34.1526 141.217 34.0829C140.883 33.9895 140.526 34.0343 140.224 34.2074C139.923 34.3806 139.701 34.668 139.609 35.0063V35.0063Z" fill="#374A4B"/>
    </g>
    <defs>
        <clipPath id="clip0_101_471">
            <rect width="159" height="48" fill="#374A4B"/>
        </clipPath>
    </defs>
</svg>
