<svg width="603" height="631" viewBox="0 0 603 631" fill="none" xmlns="http://www.w3.org/2000/svg">
    <path d="M126.446 612.599C126.517 612.532 126.605 612.484 126.699 612.46C126.794 612.436 126.894 612.436 126.988 612.461C127.083 612.485 127.17 612.533 127.241 612.6C127.313 612.667 127.366 612.751 127.397 612.845C128.225 616.747 128.869 620.68 129.605 624.613C168.195 623.445 262.43 622.462 308.076 622.278C308.445 621.245 309.083 620.329 309.925 619.627C310.766 618.925 311.78 618.461 312.861 618.283C315.223 618.283 316.788 620.127 317.677 622.247C320.223 622.247 322.739 622.247 325.285 622.247C325.622 621.878 325.929 621.479 326.266 621.141C327.877 619.225 329.77 617.567 331.88 616.225C333.486 615.164 335.389 614.647 337.31 614.75C338.323 614.927 339.289 615.311 340.149 615.876C341.009 616.442 341.744 617.177 342.31 618.037C343.255 619.342 344 620.782 344.518 622.309C393.078 622.524 440.043 623.568 480.32 624.859L480.32 624.367C481.179 618.744 482.161 613.152 483.388 607.59C483.572 606.853 484.554 607.099 484.615 607.59C484.799 609.434 485.075 611.247 485.413 613.029C486.149 617.054 487.161 621.018 488.235 624.951C555.998 627.194 602.901 629.929 602.901 629.929L602.901 3.05176e-05C602.901 3.05176e-05 565.753 2.18168 509.831 4.2404C508.921 8.89811 508.439 13.6293 508.389 18.375C508.389 18.5624 508.314 18.7421 508.182 18.8747C508.05 19.0072 507.87 19.0817 507.683 19.0817C507.407 19.0817 507.1 19.0817 506.824 19.0817C506.548 19.0817 505.904 18.2521 505.597 17.7297C504.83 16.4699 504.125 15.21 503.389 13.9195L497.867 4.70129C449.307 6.39129 388.661 7.77402 326.45 7.77401C311.113 7.77401 301.542 7.77408 286.572 7.55899L285.376 42.7724C285.376 43.4177 273.565 9.31042 273.105 7.43606C270.835 7.43606 268.627 7.43606 266.387 7.43606L266.387 11.6457C266.387 13.0284 266.08 14.3804 265.958 15.7631C265.958 16.224 265.252 16.5313 265.037 16.0397C264.271 14.3497 263.688 12.5675 263.074 10.8161L261.878 7.37454C212.643 6.63709 116.967 5.19295 80.7387 3.7795C79.9275 8.7801 78.8524 13.7341 77.5178 18.6207C77.4671 18.7909 77.357 18.937 77.2075 19.0323C77.0579 19.1276 76.8791 19.1657 76.7038 19.1396C76.5285 19.1134 76.3684 19.0248 76.2531 18.8899C76.1378 18.7551 76.0749 18.5832 76.076 18.4057C75.6159 14.4726 75.1864 10.5395 74.6342 6.63711L74.1741 3.56438C28.9273 1.75147 -2.68892e-09 0.0615187 -2.68892e-09 0.0615187L-2.75431e-05 630.113C-2.75431e-05 630.113 47.3021 627.348 115.494 625.105C118.811 620.654 122.473 616.473 126.446 612.599Z" fill="#F5D3A6"/>
</svg>
