<svg width="1280" height="720" viewBox="0 0 1280 720" fill="none" xmlns="http://www.w3.org/2000/svg">
    <g clip-path="url(#clip0_203_803)">
        <rect width="1280" height="720" fill="#182326"/>
        <path d="M212.116 -1H262.752V75.0838L236.7 49.9857L212.116 75.0838V-1Z" fill="#C41A3F"/>
        <path d="M212.116 33.1496C214.741 32.9844 217.403 32.8742 220.084 32.8742C234.67 32.8165 249.139 35.475 262.752 40.7139V75.0838L236.718 49.9857L212.116 75.0838V33.1496Z" fill="#E02B4A"/>
        <path d="M481.082 -1H531.719V75.0838L505.666 49.9857L481.082 75.0838V-1Z" fill="#C41A3F"/>
        <path d="M481.082 33.1496C483.708 32.9844 486.37 32.8742 489.05 32.8742C503.637 32.8165 518.106 35.475 531.719 40.7139V75.0838L505.685 49.9857L481.082 75.0838V33.1496Z" fill="#E02B4A"/>
        <path d="M750.067 -1H800.704V75.0838L774.651 49.9857L750.067 75.0838V-1Z" fill="#C41A3F"/>
        <path d="M750.067 33.1496C752.692 32.9844 755.355 32.8742 758.035 32.8742C772.621 32.8165 787.091 35.475 800.704 40.7139V75.0838L774.669 49.9857L750.067 75.0838V33.1496Z" fill="#E02B4A"/>
        <path d="M1019.03 -1H1069.67V75.0838L1043.62 49.9857L1019.03 75.0838V-1Z" fill="#C41A3F"/>
        <path d="M1019.03 33.1496C1021.66 32.9844 1024.32 32.8742 1027 32.8742C1041.59 32.8165 1056.06 35.475 1069.67 40.7139V75.0838L1043.64 49.9857L1019.03 75.0838V33.1496Z" fill="#E02B4A"/>
        <path d="M401.082 -1H342.752V118.634L372.753 79.1598L401.082 118.634V-1Z" fill="#FFBF4D"/>
        <path d="M381.345 18.5901C388.622 18.768 395.604 21.5048 401.064 26.3197V-1H342.789V53.823C351.657 32.3418 365.647 18.5901 381.345 18.5901Z" fill="#FF9B40"/>
        <path d="M132.116 -1H73.7858V118.634L103.786 79.1598L132.116 118.634V-1Z" fill="#FFBF4D"/>
        <path d="M112.379 18.5901C119.656 18.768 126.638 21.5048 132.097 26.3197V-1H73.8227V53.823C82.6905 32.3418 96.6809 18.5901 112.379 18.5901Z" fill="#FF9B40"/>
        <path d="M670.067 -1H611.719V118.634L641.719 79.1598L670.067 118.634V-1Z" fill="#FFBF4D"/>
        <path d="M650.33 20.7844C657.613 20.961 664.601 23.6977 670.067 28.5139V1.19424H611.719V56.0172C620.642 34.536 634.614 20.7844 650.33 20.7844Z" fill="#FF9B40"/>
        <path d="M1208 -1H1149.67V118.634L1179.67 79.1598L1208 118.634V-1Z" fill="#FFBF4D"/>
        <path d="M1188.28 18.5901C1195.56 18.7711 1202.54 21.5075 1208 26.3197V-1H1149.67V53.823C1158.57 32.3418 1172.55 18.5901 1188.28 18.5901Z" fill="#FF9B40"/>
        <path d="M939.033 -1H880.704V118.634L910.704 79.1598L939.033 118.634V-1Z" fill="#FFBF4D"/>
        <path d="M919.315 18.5901C926.592 18.768 933.574 21.5048 939.033 26.3197V-1H880.704V53.823C889.627 32.3418 903.599 18.5901 919.315 18.5901Z" fill="#FF9B40"/>
        <g style="mix-blend-mode:overlay" opacity="0.33">
            <path d="M961.649 217.489H1022.59C1027.5 217.489 1031.49 221.475 1031.49 226.393V255.935C1031.49 260.852 1027.5 264.839 1022.59 264.839H961.649C956.731 264.839 952.745 260.852 952.745 255.935V226.393C952.745 221.475 956.731 217.489 961.649 217.489Z" fill="#DDAF9B"/>
            <path d="M987.904 575.399H1048.84C1053.76 575.399 1057.75 579.385 1057.75 584.303V613.844C1057.75 618.762 1053.76 622.749 1048.84 622.749H987.904C982.986 622.749 979 618.762 979 613.844V584.303C979 579.385 982.986 575.399 987.904 575.399Z" fill="#DDAF9B"/>
            <path d="M498.5 137.237H559.437C564.355 137.237 568.341 141.224 568.341 146.142V175.683C568.341 180.601 564.355 184.588 559.437 184.588H498.5C493.582 184.588 489.595 180.601 489.595 175.683V146.142C489.595 141.224 493.582 137.237 498.5 137.237Z" fill="#DDAF9B"/>
            <path d="M194.752 98.7178H255.689C260.607 98.7178 264.594 102.705 264.594 107.622V137.164C264.594 142.082 260.607 146.068 255.689 146.068H194.752C189.834 146.068 185.847 142.082 185.847 137.164V107.622C185.847 102.705 189.834 98.7178 194.752 98.7178Z" fill="#DDAF9B"/>
            <path d="M85.9874 435.771H146.924C151.842 435.771 155.829 439.757 155.829 444.675V474.217C155.829 479.134 151.842 483.121 146.924 483.121H85.9874C81.0695 483.121 77.0828 479.134 77.0828 474.217V444.675C77.0828 439.757 81.0695 435.771 85.9874 435.771Z" fill="#DDAF9B"/>
            <path d="M751.629 181.632H812.566C817.484 181.632 821.471 185.618 821.471 190.536V220.077C821.471 224.995 817.484 228.982 812.566 228.982H751.629C746.711 228.982 742.725 224.995 742.725 220.077V190.536C742.725 185.618 746.711 181.632 751.629 181.632Z" fill="#DDAF9B"/>
            <path d="M1104.14 81.1657H1165.08C1170 81.1657 1173.98 85.1524 1173.98 90.0703V119.612C1173.98 124.529 1170 128.516 1165.08 128.516H1104.14C1099.22 128.516 1095.24 124.529 1095.24 119.612V90.0703C1095.24 85.1524 1099.22 81.1657 1104.14 81.1657Z" fill="#DDAF9B"/>
            <path d="M98.105 275.782H246.307C251.225 275.782 255.212 279.768 255.212 284.686V366.682C255.212 371.6 251.225 375.587 246.307 375.587H98.105C93.1871 375.587 89.2003 371.6 89.2003 366.682V284.686C89.2003 279.768 93.1871 275.782 98.105 275.782Z" fill="#DDAF9B"/>
            <path d="M512.49 421.835H660.692C665.61 421.835 669.597 425.822 669.597 430.74V512.736C669.597 517.654 665.61 521.64 660.692 521.64H512.49C507.572 521.64 503.586 517.654 503.586 512.736V430.74C503.586 425.822 507.572 421.835 512.49 421.835Z" fill="#DDAF9B"/>
            <path d="M816.256 282.189H964.458C969.376 282.189 973.363 286.176 973.363 291.094V373.09C973.363 378.008 969.376 381.994 964.458 381.994H816.256C811.339 381.994 807.352 378.008 807.352 373.09V291.094C807.352 286.176 811.339 282.189 816.256 282.189Z" fill="#DDAF9B"/>
            <path d="M825.473 475.704H934.458C939.376 475.704 943.363 479.69 943.363 484.608V543.03C943.363 547.948 939.376 551.934 934.458 551.934H825.473C820.555 551.934 816.569 547.948 816.569 543.03V484.608C816.569 479.69 820.555 475.704 825.473 475.704Z" fill="#DDAF9B"/>
            <path d="M1232.35 546.628H1341.33C1346.25 546.628 1350.24 550.615 1350.24 555.533V613.955C1350.24 618.872 1346.25 622.859 1341.33 622.859H1232.35C1227.43 622.859 1223.44 618.872 1223.44 613.955V555.533C1223.44 550.615 1227.43 546.628 1232.35 546.628Z" fill="#DDAF9B"/>
            <path d="M-97.0619 344.191H11.9231C16.841 344.191 20.8276 348.178 20.8276 353.096V411.517C20.8276 416.435 16.841 420.422 11.9231 420.422H-97.0619C-101.98 420.422 -105.967 416.435 -105.967 411.517V353.096C-105.967 348.178 -101.98 344.191 -97.0619 344.191Z" fill="#DDAF9B"/>
            <path d="M1221.26 156.992H1369.46C1374.38 156.992 1378.37 160.979 1378.37 165.897V247.893C1378.37 252.811 1374.38 256.797 1369.46 256.797H1221.26C1216.34 256.797 1212.36 252.811 1212.36 247.893V165.897C1212.36 160.979 1216.34 156.992 1221.26 156.992Z" fill="#DDAF9B"/>
            <path d="M-8.76865 96.0189H139.433C144.351 96.0189 148.338 100.006 148.338 104.924V186.919C148.338 191.837 144.351 195.824 139.433 195.824H-8.76865C-13.6865 195.824 -17.6732 191.837 -17.6732 186.919V104.924C-17.6732 100.006 -13.6865 96.0189 -8.76865 96.0189Z" fill="#DDAF9B"/>
            <path d="M379.435 92.2918H426.308C431.226 92.2918 435.213 96.2786 435.213 101.196V116.288C435.213 121.206 431.226 125.193 426.308 125.193H379.435C374.517 125.193 370.531 121.206 370.531 116.288V101.196C370.531 96.2786 374.517 92.2918 379.435 92.2918Z" fill="#DDAF9B"/>
            <path d="M583.819 101.931H630.692C635.61 101.931 639.596 105.918 639.596 110.835V125.927C639.596 130.845 635.61 134.832 630.692 134.832H583.819C578.901 134.832 574.914 130.845 574.914 125.927V110.835C574.914 105.918 578.901 101.931 583.819 101.931Z" fill="#DDAF9B"/>
            <path d="M1187.13 409.681H1234C1238.92 409.681 1242.91 413.668 1242.91 418.586V433.678C1242.91 438.596 1238.92 442.582 1234 442.582H1187.13C1182.21 442.582 1178.22 438.596 1178.22 433.678V418.586C1178.22 413.668 1182.21 409.681 1187.13 409.681Z" fill="#DDAF9B"/>
            <path d="M1241.97 599.487H1288.84C1293.76 599.487 1297.75 603.474 1297.75 608.391V623.483C1297.75 628.401 1293.76 632.388 1288.84 632.388H1241.97C1237.05 632.388 1233.07 628.401 1233.07 623.483V608.391C1233.07 603.474 1237.05 599.487 1241.97 599.487Z" fill="#DDAF9B"/>
            <path d="M868.821 107.531H915.694C920.612 107.531 924.599 111.517 924.599 116.435V131.527C924.599 136.445 920.612 140.432 915.694 140.432H868.821C863.903 140.432 859.917 136.445 859.917 131.527V116.435C859.917 111.517 863.903 107.531 868.821 107.531Z" fill="#DDAF9B"/>
            <path d="M433.34 234.729H480.213C485.131 234.729 489.118 238.715 489.118 243.633V258.725C489.118 263.643 485.131 267.63 480.213 267.63H433.34C428.422 267.63 424.436 263.643 424.436 258.725V243.633C424.436 238.715 428.422 234.729 433.34 234.729Z" fill="#DDAF9B"/>
            <path d="M581.946 239.961H628.819C633.737 239.961 637.724 243.948 637.724 248.866V263.958C637.724 268.876 633.737 272.862 628.819 272.862H581.946C577.028 272.862 573.041 268.876 573.041 263.958V248.866C573.041 243.948 577.028 239.961 581.946 239.961Z" fill="#DDAF9B"/>
            <path d="M270.212 448.219H317.085C322.002 448.219 325.989 452.205 325.989 457.123V472.215C325.989 477.133 322.002 481.12 317.085 481.12H270.212C265.294 481.12 261.307 477.133 261.307 472.215V457.123C261.307 452.205 265.294 448.219 270.212 448.219Z" fill="#DDAF9B"/>
            <path d="M1082.11 290.102H1128.98C1133.9 290.102 1137.89 294.089 1137.89 299.007V314.099C1137.89 319.017 1133.9 323.004 1128.98 323.004H1082.11C1077.19 323.004 1073.2 319.017 1073.2 314.099V299.007C1073.2 294.089 1077.19 290.102 1082.11 290.102Z" fill="#DDAF9B"/>
            <path d="M1001.97 467.515H1048.84C1053.76 467.515 1057.75 471.502 1057.75 476.42V491.512C1057.75 496.43 1053.76 500.416 1048.84 500.416H1001.97C997.05 500.416 993.063 496.43 993.063 491.512V476.42C993.063 471.502 997.05 467.515 1001.97 467.515Z" fill="#DDAF9B"/>
            <path d="M505.073 368.353H551.946C556.864 368.353 560.85 372.339 560.85 377.257V392.349C560.85 397.267 556.864 401.254 551.946 401.254H505.073C500.155 401.254 496.168 397.267 496.168 392.349V377.257C496.168 372.339 500.155 368.353 505.073 368.353Z" fill="#DDAF9B"/>
            <path d="M456.308 583.422H503.182C508.1 583.422 512.086 587.409 512.086 592.326V607.418C512.086 612.336 508.1 616.323 503.182 616.323H456.308C451.391 616.323 447.404 612.336 447.404 607.418V592.326C447.404 587.409 451.391 583.422 456.308 583.422Z" fill="#DDAF9B"/>
            <path d="M-29.3319 593.061H17.5412C22.4591 593.061 26.4458 597.048 26.4458 601.965V617.057C26.4458 621.975 22.4591 625.962 17.5412 625.962H-29.3319C-34.2498 625.962 -38.2364 621.975 -38.2364 617.057V601.965C-38.2364 597.048 -34.2498 593.061 -29.3319 593.061Z" fill="#DDAF9B"/>
        </g>
    </g>
    <defs>
        <clipPath id="clip0_203_803">
            <rect width="1280" height="720" fill="white"/>
        </clipPath>
    </defs>
</svg>
