<svg width="339" height="632" viewBox="0 0 339 632" fill="none" xmlns="http://www.w3.org/2000/svg">
    <path d="M303.449 498.02C303.382 497.949 303.334 497.861 303.31 497.767C303.286 497.672 303.286 497.572 303.311 497.478C303.335 497.383 303.383 497.296 303.45 497.225C303.517 497.153 303.601 497.1 303.694 497.069C307.597 496.241 311.53 495.597 315.463 494.861C314.295 456.27 313.312 362.036 313.128 316.39C312.094 316.021 311.179 315.383 310.477 314.541C309.774 313.7 309.31 312.686 309.133 311.605C309.133 309.243 310.977 307.678 313.097 306.789C313.097 304.243 313.097 301.727 313.097 299.181C312.728 298.844 312.329 298.537 311.991 298.2C310.075 296.589 308.417 294.696 307.074 292.586C306.013 290.98 305.496 289.077 305.599 287.156C305.777 286.143 306.161 285.177 306.726 284.317C307.291 283.457 308.027 282.722 308.887 282.156C310.192 281.211 311.632 280.466 313.158 279.947C313.373 231.388 314.418 184.423 315.709 144.146H315.217C309.594 143.287 304.002 142.305 298.44 141.078C297.703 140.894 297.948 139.912 298.44 139.851C300.284 139.667 302.097 139.391 303.879 139.053C307.904 138.317 311.868 137.305 315.801 136.231C318.044 68.4684 320.779 21.5651 320.779 21.5651H20.8498C20.8498 21.5651 23.0314 58.7135 25.0902 114.635C29.7479 115.545 34.4791 116.027 39.2247 116.077C39.4122 116.077 39.5919 116.152 39.7244 116.284C39.857 116.416 39.9315 116.596 39.9315 116.783C39.9315 117.059 39.9315 117.366 39.9315 117.642C39.9315 117.918 39.1019 118.562 38.5795 118.869C37.3197 119.636 36.0598 120.341 34.7692 121.077L25.5511 126.599C27.2411 175.159 28.6238 235.805 28.6238 298.016C28.6238 313.353 28.6239 322.924 28.4088 337.894L63.6222 339.09C64.2675 339.09 30.1602 350.901 28.2858 351.361C28.2858 353.631 28.2858 355.839 28.2858 358.079H32.4955C33.8782 358.079 35.2302 358.386 36.6129 358.508C37.0738 358.508 37.3811 359.214 36.8894 359.429C35.1994 360.195 33.4173 360.778 31.6659 361.392L28.2243 362.588C27.4869 411.823 26.0427 507.499 24.6293 543.727C29.6299 544.538 34.5839 545.614 39.4705 546.948C39.6407 546.999 39.7868 547.109 39.8821 547.259C39.9774 547.408 40.0155 547.587 39.9894 547.762C39.9632 547.938 39.8745 548.098 39.7397 548.213C39.6049 548.328 39.433 548.391 39.2555 548.39C35.3224 548.85 31.3893 549.28 27.4869 549.832L24.4142 550.292C22.6013 595.539 20.9113 624.466 20.9113 624.466H320.963C320.963 624.466 318.198 577.164 315.955 508.972C311.504 505.655 307.322 501.993 303.449 498.02Z" fill="#DFC4A4"/>
    <path d="M316.907 98.6534C318.751 51.7194 320.533 21.5344 320.533 21.5344H20.4811C20.4811 21.5344 22.294 46.5659 23.9225 85.2788C151.994 72.8551 243.745 85.2788 316.907 98.6534Z" fill="#D9BA99"/>
    <path d="M2.75146 579.189C2.82763 583.123 3.16634 587.048 3.76542 590.937C8.22088 592.379 12.9836 593.177 17.4391 594.404C17.5589 594.452 17.6615 594.534 17.7338 594.641C17.8062 594.747 17.8449 594.873 17.8449 595.002C17.8449 595.131 17.8062 595.257 17.7338 595.363C17.6615 595.47 17.5589 595.552 17.4391 595.6C15.849 596.422 14.2067 597.139 12.5227 597.747C10.183 598.586 7.79162 599.272 5.3633 599.803C8.98912 614.251 17.3776 631 36.8894 631H304.555C338.846 631 338.846 579.189 338.846 579.189H2.75146Z" fill="#EAD2B5"/>
    <path d="M258.802 609.435C228.628 611.091 198.392 611.736 168.187 611.981C137.982 612.226 108.607 612.134 78.8015 612.226C59.6584 612.226 40.3616 612.226 21.2185 610.815C20.7576 619.589 20.4811 624.435 20.4811 624.435H320.564C320.564 624.435 320.133 617.257 319.488 604.465C299.3 606.705 279.051 608.3 258.802 609.435Z" fill="#E0AC73"/>
    <path d="M258.802 609.435C228.628 611.091 198.392 611.736 168.187 611.981C137.982 612.226 108.607 612.134 78.8015 612.226C55.2851 612.692 31.7612 611.822 8.34387 609.619C13.0759 620.908 21.5258 631.092 36.6743 631.092H304.34C322.622 631.092 331.134 616.398 335.067 602.656C309.778 605.846 284.305 607.993 258.802 609.435Z" fill="#D9BA99"/>
    <g style="mix-blend-mode:screen" opacity="0.5">
        <path d="M305.692 544.586C305.292 536.028 305.323 527.285 304.309 518.788C303.515 512.652 300.628 506.975 296.135 502.714C292.124 499.187 288.701 495.045 285.995 490.443C292.199 490.368 298.378 489.648 304.432 488.296C304.759 488.203 305.047 488.006 305.252 487.734C305.457 487.463 305.568 487.133 305.569 486.793C304.422 451.454 303.295 366.116 302.189 330.777C301.434 320.865 301.743 310.9 303.111 301.052C303.182 300.772 303.18 300.478 303.104 300.199C303.029 299.919 302.883 299.664 302.68 299.457C300.701 297.811 299.136 295.724 298.111 293.363C297.086 291.003 296.631 288.436 296.781 285.868C296.904 283.544 297.555 281.278 298.686 279.242C300.399 276.769 301.697 274.034 302.527 271.144C302.946 268.198 303.121 265.222 303.049 262.248L303.233 251.91C303.387 245.038 303.51 238.167 303.664 231.296C303.95 217.246 304.217 203.207 304.463 189.178C304.585 182.306 304.719 175.425 304.862 168.533L305.046 158.226C305.346 155.717 304.964 153.174 303.94 150.864C302.8 149.282 301.352 147.946 299.684 146.935C298.016 145.923 296.162 145.256 294.23 144.974C290.912 144.084 286.733 143.44 284.459 140.679C290.577 138.003 295.977 133.925 300.222 128.777C302.302 126.155 303.692 123.056 304.266 119.761C304.84 116.466 304.581 113.08 303.51 109.911C303.378 109.586 303.159 109.302 302.878 109.092C302.596 108.881 302.262 108.751 301.912 108.715C258.894 98.6227 83.7486 89.8188 33.9397 99.5123C33.6608 99.5379 33.3903 99.6208 33.1451 99.7558C32.9 99.8909 32.6855 100.075 32.5152 100.297C32.3448 100.519 32.2224 100.774 32.1555 101.045C32.0887 101.317 32.0789 101.599 32.1268 101.874C32.4033 103.531 32.6491 105.218 32.9257 106.875C32.9981 107.188 33.1575 107.476 33.3857 107.704C33.6139 107.931 33.9017 108.091 34.2162 108.163L44.7864 110.77C45.0421 110.839 45.31 110.85 45.5704 110.802C45.8308 110.754 46.0773 110.649 46.292 110.494L58.798 113.562L50.5939 119.39C47.1783 121.409 43.9943 123.796 41.0991 126.507C38.6102 129.299 38.8867 133.01 38.8867 136.507V149.545C38.8867 167.398 38.8867 185.251 38.8867 203.105C38.8867 238.504 38.8867 273.904 38.8867 309.304C38.8867 311.82 38.8867 314.366 38.8867 316.881C38.8149 318.666 39.2291 320.436 40.0851 322.004C42.1746 325.286 47.1524 325.961 50.5324 327.035L76.4969 335.225C68.5831 343.851 58.0825 349.684 46.5685 351.852C46.1486 351.981 45.7814 352.242 45.5205 352.595C45.2597 352.949 45.119 353.376 45.119 353.815C45.119 354.254 45.2597 354.681 45.5205 355.034C45.7814 355.388 46.1486 355.648 46.5685 355.778L59.5048 359.429C52.7458 362.68 45.7509 365.418 38.5795 367.619C38.1565 367.751 37.7847 368.011 37.5152 368.363C37.2457 368.714 37.0915 369.14 37.0738 369.582C36.0598 388.939 35.4452 458.326 35.0458 477.713C34.8307 487.314 34.7078 496.947 34.6157 506.548C34.6157 511.456 34.6157 516.334 34.6157 521.211C34.1101 525.32 34.4128 529.488 35.5068 533.482C37.0739 537.224 41.1299 538.543 44.725 539.862C48.6342 541.301 52.6383 542.47 56.7086 543.359C50.2251 548.758 43.6802 554.096 37.1353 559.464C36.9282 559.681 36.7802 559.947 36.7056 560.237C36.6311 560.527 36.6324 560.831 36.7095 561.121C36.7866 561.41 36.9369 561.675 37.146 561.89C37.3551 562.105 37.6159 562.262 37.9035 562.347C53.4822 568.053 70.3822 568.483 86.7598 569.158C104.438 569.996 122.106 570.691 139.764 571.244C175.101 572.327 210.458 572.839 245.835 572.777C265.685 572.777 285.524 572.563 305.354 572.133C305.813 572.118 306.25 571.929 306.575 571.604C306.9 571.279 307.09 570.843 307.105 570.385C306.644 561.857 306.122 553.237 305.692 544.586Z" fill="#CA9E67"/>
    </g>
    <path d="M329.567 13.436C329.567 13.436 6.93037 17.3932 6.31582 17.5772C2.96655 23.7124 -2.90236 42.7928 8.52819 67.8856C12.2769 67.5482 16.0256 66.9653 19.7436 66.4131C20.0816 66.4131 20.3889 66.7506 20.1123 66.996C18.9702 68.0825 17.7701 69.1065 16.5172 70.0636C14.9247 71.3262 13.2518 72.4841 11.5087 73.53C13.1408 76.324 14.9685 78.9994 16.9782 81.5363C16.9782 81.5363 111.618 71.8121 178.235 72.6097C244.852 73.4072 326.094 85.2174 326.094 85.2174C329.032 80.1689 331.314 74.7674 332.885 69.1433C328.307 67.2721 323.821 65.0941 319.365 63.0081C319.307 62.9674 319.263 62.9095 319.24 62.8425C319.217 62.7755 319.215 62.7029 319.236 62.635C319.256 62.5671 319.297 62.5073 319.354 62.4641C319.41 62.421 319.479 62.3967 319.55 62.3946C321.332 62.3946 323.114 62.3946 324.896 62.3946C327.969 62.3946 331.042 62.1492 334.299 62.0265H334.606C337.39 45.6738 335.647 28.8726 329.567 13.436Z" fill="#E3CAA8"/>
    <path d="M321.977 3.68109C321.977 3.68109 225.186 10.9206 177.897 10.3377C125.661 9.72422 20.3892 0 20.3892 0C16.4691 2.28006 13.1261 5.4286 10.6179 9.20275L11.0481 9.50952C11.9699 10.1844 12.9532 10.8286 13.9058 11.4421C14.8583 12.0556 15.8109 12.6691 16.7941 13.1906C16.8451 13.2203 16.8874 13.2629 16.9168 13.314C16.9462 13.3651 16.9617 13.4231 16.9617 13.482C16.9617 13.541 16.9462 13.5989 16.9168 13.65C16.8874 13.7012 16.8451 13.7437 16.7941 13.7735C14.8662 14.6517 12.8856 15.4098 10.8637 16.0434L6.31612 17.4852C1.79921 22.516 -3.14796 42.5474 6.7155 63.4989C6.7155 63.4989 99.8192 50.9219 181.646 53.2226C258.833 55.3699 334.606 61.8731 334.606 61.8731C342.257 15.522 321.977 3.68109 321.977 3.68109Z" fill="#F0DDC0"/>
    <path d="M28.4087 9.90757L28.8696 9.6936L28.3472 9.90757H28.4087Z" fill="#FFE9C7"/>
    <path d="M316.262 21.9332C315.442 21.2034 314.508 20.6127 313.496 20.1847C312.121 19.985 310.724 19.985 309.348 20.1847C308.45 20.2948 307.542 20.2948 306.644 20.1847C305.125 19.8123 303.569 19.6066 302.004 19.5712H301.175C301.175 19.5712 301.974 19.5712 301.328 19.5712L299.731 19.3258C298.169 18.8956 296.577 18.5879 294.968 18.4055C292.614 18.2675 290.254 18.2675 287.9 18.4055C278.406 18.9577 268.911 19.3258 259.416 19.6019C240.365 20.154 221.314 20.3381 202.264 20.1541C183.213 19.97 164.141 19.4383 145.049 18.5589C125.876 17.7204 106.712 16.6468 87.5587 15.3379C78.3405 14.7244 69.1224 14.0802 59.9042 13.344L53.5128 12.7918L50.4401 12.4237L48.9037 12.1783C46.8143 11.8409 44.7556 11.4421 42.7583 10.9206C40.761 10.3991 38.057 9.5402 35.6603 9.20276L34.6463 9.04938H33.6323H33.4787C32.8048 8.97312 32.1245 8.97312 31.4507 9.04938C30.6469 9.14121 29.8604 9.34782 29.1154 9.66288C28.966 9.76387 28.7994 9.83667 28.6237 9.87764H28.4394C27.4011 10.1514 26.514 10.8251 25.9725 11.7509C25.4311 12.6768 25.2795 13.7792 25.551 14.8164C25.8628 15.817 26.2532 16.7914 26.7187 17.7306C27.5074 18.9295 28.4588 20.0135 29.5456 20.9516C30.2659 21.5833 31.0861 22.0912 31.973 22.4547H32.2803H32.0037H32.311C33.448 22.9456 32.8334 22.6695 32.311 22.4547L34.7078 23.467C35.7525 23.8658 36.7972 24.2033 37.7805 24.51C41.947 25.6855 46.1863 26.5872 50.4709 27.2095C59.9963 28.6512 69.5525 29.2034 79.1394 29.8476C98.3951 31.1769 117.651 32.3119 136.907 33.2526C156.162 34.1933 175.428 34.8069 194.705 35.0932C213.971 35.3999 233.206 35.3386 252.411 34.6637C262.018 34.3365 271.615 33.8661 281.202 33.2526C286.474 33.0806 291.729 32.5682 296.934 31.7188C297.996 31.4782 299.027 31.118 300.007 30.6452L300.714 30.3691C301.359 30.0623 300.437 30.3691 300.407 30.3691C301.486 29.8401 302.651 29.5077 303.848 29.3875C305.173 29.1475 306.463 28.7457 307.689 28.1911C308.614 27.8739 309.573 27.6679 310.546 27.5776C311.819 27.5088 313.079 27.2821 314.295 26.9027C315.362 26.3388 316.278 25.529 316.968 24.5407C317.095 24.3234 317.177 24.0833 317.209 23.8343C317.242 23.5854 317.225 23.3323 317.159 23.0899C317.094 22.8475 316.981 22.6205 316.826 22.422C316.672 22.2234 316.481 22.0573 316.262 21.9332Z" fill="#E6CFB0"/>
    <path d="M305.2 8.58923C303.387 8.58923 301.543 8.58924 299.731 8.92667L294.568 9.6322C291.158 10.0923 287.778 10.5218 284.367 10.9206C277.586 11.6977 270.765 12.3317 263.903 12.8225C250.045 13.8041 236.248 14.0802 222.329 14.3563H210.837C208.954 14.2325 207.065 14.2325 205.183 14.3563C203.063 14.6017 201.004 14.8164 198.884 14.9391C198.331 14.9391 198.146 15.8287 198.884 15.9208C202.294 16.4116 205.613 17.2091 209.085 17.3932C212.557 17.5772 216.091 17.7306 219.625 17.8533C226.63 18.0988 233.667 18.0374 240.673 17.8533C254.623 17.6079 268.542 16.7797 282.4 15.6447C290.334 15.2622 298.23 14.3191 306.03 12.8225C306.416 12.568 306.719 12.2046 306.898 11.7782C307.077 11.3519 307.125 10.8819 307.036 10.4282C306.947 9.97439 306.725 9.55729 306.398 9.22984C306.071 8.90239 305.654 8.6794 305.2 8.58923Z" fill="#F0DDC0"/>
    <path d="M41.1605 30.5531C40.0439 29.9163 38.8713 29.3823 37.6576 28.9579C36.3724 28.392 35.0477 27.9204 33.6938 27.5468C31.0374 26.9547 28.3325 26.6056 25.6126 26.5039C25.4108 26.4777 25.2058 26.4914 25.0094 26.5443C24.813 26.5972 24.6289 26.6882 24.4677 26.8121C24.3065 26.936 24.1713 27.0904 24.0698 27.2665C23.9684 27.4426 23.9027 27.6368 23.8765 27.8383C23.8502 28.0397 23.864 28.2443 23.917 28.4404C23.9699 28.6365 24.061 28.8203 24.1852 28.9812C24.3093 29.1422 24.464 29.2772 24.6403 29.3784C24.8167 29.4797 25.0113 29.5453 25.2131 29.5715C27.7327 30.369 30.1909 31.1666 32.8027 31.7801C34.0011 32.0562 35.2609 32.1482 36.4899 32.3323C37.8263 32.6114 39.1824 32.7858 40.546 32.8538C40.8395 32.9017 41.1403 32.8389 41.39 32.6776C41.6397 32.5164 41.8205 32.2682 41.8971 31.9813C41.9738 31.6945 41.9408 31.3894 41.8047 31.1254C41.6685 30.8615 41.439 30.6575 41.1605 30.5531Z" fill="#E6CFB0"/>
    <path d="M265.623 63.4683C263.749 63.1702 261.9 62.7292 260.092 62.1492C258.094 61.5544 256.03 61.2042 253.947 61.1062C250.106 60.6461 246.296 60.2167 242.455 59.8179C234.712 58.9896 226.907 58.4375 219.164 58.008C203.718 57.1491 188.273 56.6992 172.827 56.6583C157.381 56.6174 141.925 56.8832 126.459 57.4558C110.911 58.0387 95.3634 59.3884 79.9076 60.8915C71.304 61.7505 62.6696 62.5787 54.0967 63.7444C49.7642 64.3272 45.4317 65.0021 41.1606 65.861L34.6771 67.1494C32.5749 67.6496 30.5191 68.3269 28.5316 69.174C28.3354 69.2472 28.17 69.3849 28.0627 69.5644C27.9553 69.744 27.9123 69.9547 27.941 70.1618C27.9696 70.369 28.0681 70.5603 28.2201 70.7041C28.3722 70.8479 28.5688 70.9358 28.7775 70.9532C30.6674 71.2651 32.5775 71.4394 34.4927 71.4747L40.208 71.2906C44.0182 71.2906 47.8283 71.0145 51.6693 70.8305C59.4125 70.401 67.0329 69.7262 74.8991 69.2354C90.2832 68.2742 105.698 67.5789 121.144 67.1494C136.507 66.7199 151.871 66.1371 167.235 66.0757C182.598 66.0144 197.962 66.0757 213.325 66.5359C221.991 66.7199 230.656 66.8733 239.352 67.1494C243.561 67.1494 247.802 67.3028 252.042 67.3948C254.252 67.548 256.469 67.548 258.679 67.3948C260.922 67.1494 263.073 66.904 265.347 66.7813C267.621 66.6586 267.621 63.8671 265.623 63.4683Z" fill="#F0DDC0"/>
    <path d="M311.069 72.8551C308.324 71.2189 305.321 70.0574 302.189 69.4195C299.116 68.5299 295.736 67.7323 292.479 67.0574C289.222 66.3825 286.118 65.9837 282.923 65.6156C281.376 65.371 279.817 65.2174 278.252 65.1555C276.606 65.229 274.975 65.5072 273.397 65.9837C272.691 66.1371 272.844 66.9961 273.397 67.2108C274.791 67.8936 276.241 68.458 277.73 68.898C279.235 69.2354 280.803 69.3581 282.37 69.6035C285.442 70.125 288.73 70.7692 291.895 71.3827C295.06 71.9962 298.041 72.6711 301.113 73.438C304.101 74.428 307.195 75.0663 310.332 75.3399C310.624 75.3411 310.909 75.2476 311.144 75.0734C311.379 74.8992 311.55 74.6536 311.634 74.3736C311.717 74.0936 311.707 73.7942 311.605 73.5204C311.503 73.2466 311.315 73.0132 311.069 72.8551Z" fill="#F0DDC0"/>
    <path d="M309.072 584.281C299.515 583.667 289.867 583.759 280.249 583.637C270.632 583.514 261.444 583.422 252.042 583.36C233.011 583.36 214.001 583.309 195.012 583.207C157.187 583.207 119.331 582.962 81.5361 583.545C70.9045 583.698 60.2728 583.79 49.6412 584.005L33.6938 584.311C30.9898 584.311 28.4087 584.587 25.7047 584.864C23.0007 585.14 20.6347 585.201 18.0843 585.508C17.9107 585.543 17.7545 585.637 17.6424 585.774C17.5302 585.911 17.469 586.082 17.469 586.259C17.469 586.436 17.5302 586.608 17.6424 586.745C17.7545 586.882 17.9107 586.976 18.0843 587.011C20.4503 587.318 22.8471 587.471 25.2131 587.747C27.5791 588.023 30.0065 588.361 32.4647 588.453L46.5685 589.036C55.971 589.404 65.3736 589.68 74.7762 589.956C93.7964 590.539 112.816 590.784 131.837 591.029C169.631 591.52 207.446 591.52 245.282 591.029C255.913 590.876 266.545 590.753 277.177 590.477C287.808 590.201 298.501 590.201 309.072 589.404C313.343 589.128 313.404 584.557 309.072 584.281Z" fill="#F0DDC0"/>
    <path d="M265.009 595.048C261.302 594.45 257.544 594.234 253.793 594.404H242.455C234.988 594.404 227.522 594.404 220.055 594.22C205.398 593.821 190.618 594.036 175.93 594.22C161.243 594.404 146.094 594.527 131.161 594.619C116.227 594.711 101.724 594.895 87.0056 595.109C78.6171 595.109 70.2593 595.631 61.8708 595.968L49.5798 596.459C47.5211 596.459 45.4931 596.459 43.4344 596.735C42.3282 596.735 41.1299 596.735 40.0237 596.95C38.9631 597.18 37.9322 597.53 36.951 597.993C36.6997 598.098 36.4851 598.275 36.3342 598.501C36.1834 598.728 36.1029 598.994 36.1029 599.266C36.1029 599.538 36.1834 599.804 36.3342 600.03C36.4851 600.257 36.6997 600.434 36.951 600.539C37.6941 600.913 38.4645 601.231 39.2555 601.49C40.1976 601.678 41.1531 601.791 42.1131 601.827L47.644 602.195L58.9824 602.84C66.4491 603.238 73.9159 603.76 81.3826 604.005C96.0702 604.435 110.819 604.588 125.507 604.557C155.159 604.557 184.811 604.558 214.432 603.238C222.82 602.901 231.178 602.441 239.567 602.042C243.653 601.858 247.74 601.613 251.858 601.367C256.241 601.409 260.618 600.998 264.917 600.14C265.593 600.152 266.247 599.896 266.733 599.427C267.22 598.958 267.501 598.315 267.513 597.64C267.525 596.965 267.268 596.312 266.799 595.826C266.329 595.34 265.685 595.06 265.009 595.048Z" fill="#F0DDC0"/>
</svg>
