<svg width="1280" height="720" viewBox="0 0 1280 720" fill="none" xmlns="http://www.w3.org/2000/svg">
    <g clip-path="url(#clip0_203_803)">
        <g clip-path="url(#clip1_203_803)">
            <path d="M1151.31 279.968C1152.73 279.968 1154.1 280.535 1155.11 281.543C1156.12 282.552 1156.69 283.921 1156.69 285.347V318.726H1145.91V285.347C1145.92 283.919 1146.49 282.551 1147.5 281.542C1148.51 280.534 1149.88 279.968 1151.31 279.968Z" fill="#FFA73E"/>
            <path d="M1145.91 285.421C1145.91 283.979 1146.47 282.594 1147.48 281.564C1148.49 280.535 1149.87 279.942 1151.31 279.913H1151.82C1151.99 282.648 1152.08 285.623 1152.08 288.744C1152.08 301.596 1150.52 311.896 1148.57 311.896C1147.51 311.896 1146.55 308.775 1145.91 303.872V285.421Z" fill="#FFBF4D"/>
            <path d="M1186.16 279.968C1186.86 279.968 1187.56 280.107 1188.21 280.377C1188.87 280.648 1189.46 281.044 1189.96 281.543C1190.46 282.043 1190.85 282.636 1191.13 283.289C1191.4 283.941 1191.53 284.641 1191.53 285.347V318.726H1180.76V285.347C1180.76 284.639 1180.9 283.938 1181.17 283.284C1181.44 282.63 1181.84 282.037 1182.34 281.537C1182.84 281.037 1183.44 280.641 1184.09 280.372C1184.75 280.103 1185.45 279.965 1186.16 279.968Z" fill="#FFA73E"/>
            <path d="M1073.99 619.573L1048.95 714.659H1042.71L1049.28 619.573H1073.99Z" fill="#662330"/>
            <path d="M1078.68 619.573L1053.65 714.659H1047.39L1053.96 619.573H1078.68Z" fill="#511826"/>
            <path d="M1057.08 567.008C1078.97 563.703 1126.45 573.214 1126.45 573.214L1125.79 581.421H1055.73C1041.13 581.329 1041 569.358 1057.08 567.008Z" fill="#FFBF4D"/>
            <path d="M1059.95 580.007C1068.72 577.583 1074.88 571.671 1074.47 566.365C1097.57 567.338 1126.45 573.122 1126.45 573.122L1125.79 581.329H1055.73C1054.6 581.318 1053.48 581.226 1052.37 581.053C1054.93 581.059 1057.48 580.707 1059.95 580.007Z" fill="#FFA73E"/>
            <path d="M1052.44 580.576H1132.08L1131.74 590.013H1052.09L1052.44 580.576Z" fill="#662330"/>
            <path d="M1060.57 580.576H1125.44L1125.14 590.013H1060.28L1060.57 580.576Z" fill="#511826"/>
            <path d="M1065.33 580.594L1061.56 632.278H1055.21L1058.52 580.594H1065.33Z" fill="#662330"/>
            <path d="M1146.46 315.641H1192.27L1181.66 362.257H1146.46V315.641Z" fill="#662330"/>
            <path d="M1148.06 315.66L1128.45 639.181L1116.22 637.933L1133.65 329.485C1133.8 325.767 1135.39 322.252 1138.07 319.676C1140.76 317.1 1144.34 315.661 1148.06 315.66Z" fill="#662330"/>
            <path d="M1126.04 679.151L1123.88 714.659H1119.84L1113.52 685.816L1113.91 679.151H1126.04Z" fill="#511826"/>
            <path d="M1128.85 679.151L1126.71 714.659H1122.65L1116.33 685.816L1116.72 679.151H1128.85Z" fill="#511826"/>
            <path d="M1180.1 679.151L1177.95 714.659H1173.89L1167.59 685.816L1167.96 679.151H1180.1Z" fill="#511826"/>
            <path d="M1131.08 542.057C1126.15 513.25 1128.25 439.057 1134.1 418.843C1133.41 359.87 1138.05 333.193 1150.87 333.928C1156.28 334.368 1152.96 401.86 1148.15 481.671C1143.34 561.482 1139.89 623.924 1134.38 623.502C1128.87 623.079 1115.41 638.392 1131.08 542.057Z" fill="#FFBF4D"/>
            <path d="M1149.12 333.928H1174.9L1160.84 620.876H1135.06L1149.12 333.928Z" fill="#FFBF4D"/>
            <path d="M1064.61 602.939C1103.81 601.91 1170.82 603.526 1170.82 603.526L1167.74 618.838L1057.58 620.399C1034.69 620.729 1039.11 603.6 1064.61 602.939Z" fill="#FFBF4D"/>
            <path d="M1103.99 602.939C1128.67 601.91 1170.84 603.526 1170.84 603.526L1168.9 618.838L1099.61 620.399C1085.16 620.729 1087.95 603.6 1103.99 602.939Z" fill="#FFA73E"/>
            <path d="M1161.42 542.461C1158.03 503.501 1160.6 446.658 1166.23 422.643C1162.95 402.19 1162.87 332.386 1176.19 333.818C1181.69 334.277 1179.86 401.915 1177.03 481.964C1174.2 562.014 1172.11 624.53 1166.69 624.089C1161.28 623.649 1148.08 638.998 1161.42 542.461Z" fill="#FFA73E"/>
            <path d="M1188.84 315.66L1179.84 638.337L1167.56 637.621L1174.9 329.43C1174.93 325.758 1176.41 322.247 1179.02 319.667C1181.64 317.086 1185.16 315.645 1188.84 315.66Z" fill="#662330"/>
            <path d="M1192.27 315.66L1181.14 714.659H1177.09L1169.83 685.816L1182.24 329.43C1182.43 321.645 1184.58 315.66 1192.27 315.66Z" fill="#511826"/>
            <path d="M1049.28 619.573H1176.77L1170.97 702.138H1044.27L1049.28 619.573Z" fill="#662330"/>
            <path d="M1121.18 619.573L1096.15 714.659H1089.89L1096.47 619.573H1121.18Z" fill="#662330"/>
            <path d="M1126.03 619.573L1100.98 714.659H1094.74L1102.4 619.573H1126.03Z" fill="#511826"/>
            <path d="M1101.52 619.573H1176.77L1176.53 702.138H1095.71L1101.52 619.573Z" fill="#511826"/>
            <path d="M1153.57 537.632C1152.19 528.781 1151.48 519.839 1151.45 510.881C1151.45 510.881 1149.73 533.593 1148.02 536.328C1149.37 543.141 1149.98 550.077 1149.86 557.02C1151.11 548.207 1150.52 541.561 1153.57 537.632Z" fill="#FFA73E"/>
            <path d="M1159.88 422.294C1158.52 413.436 1157.82 404.488 1157.79 395.526C1157.79 395.526 1156.06 418.237 1154.36 420.973C1155.7 427.785 1156.32 434.721 1156.19 441.664C1157.44 432.87 1156.85 426.224 1159.88 422.294Z" fill="#FFA73E"/>
            <path d="M1141.52 537.32C1140.16 529.177 1139.46 520.937 1139.43 512.681C1139.43 512.681 1137.7 533.593 1136 536.126C1137.34 542.387 1137.96 548.782 1137.83 555.184C1139.08 547.069 1138.49 540.955 1141.52 537.32Z" fill="#FFA73E"/>
            <path d="M1144.81 420.33C1143.44 412.187 1142.74 403.947 1142.72 395.691C1142.72 395.691 1140.88 416.603 1139.26 419.118C1140.62 425.377 1141.23 431.773 1141.1 438.176C1142.37 430.079 1141.72 423.947 1144.81 420.33Z" fill="#FFA73E"/>
            <path d="M1180.76 285.421C1180.76 283.979 1181.32 282.594 1182.33 281.564C1183.34 280.535 1184.71 279.942 1186.16 279.913H1186.67C1186.83 282.648 1186.93 285.623 1186.93 288.744C1186.93 301.596 1185.35 311.896 1183.42 311.896C1182.35 311.896 1181.4 308.775 1180.76 303.872V285.421Z" fill="#FFBF4D"/>
            <path d="M1056.68 624.181H1089.25C1089.66 624.185 1090.06 624.272 1090.43 624.438C1090.8 624.603 1091.14 624.843 1091.41 625.142C1091.69 625.441 1091.9 625.794 1092.03 626.178C1092.17 626.563 1092.22 626.97 1092.19 627.376L1087.8 694.39C1087.75 695.14 1087.43 695.845 1086.88 696.363C1086.34 696.88 1085.61 697.173 1084.86 697.18H1052.6C1051.87 697.175 1051.14 697.018 1050.47 696.721C1049.8 696.423 1049.19 695.991 1048.69 695.451C1048.19 694.911 1047.81 694.274 1047.57 693.58C1047.33 692.886 1047.23 692.149 1047.28 691.415L1051.37 629.23C1051.45 627.871 1052.04 626.592 1053.03 625.653C1054.01 624.715 1055.32 624.188 1056.68 624.181Z" fill="#511826"/>
            <path d="M1055.32 623.594H1087.19C1087.59 623.598 1087.99 623.683 1088.35 623.844C1088.71 624.006 1089.04 624.24 1089.31 624.532C1089.58 624.824 1089.79 625.169 1089.92 625.544C1090.05 625.919 1090.1 626.318 1090.08 626.715L1085.78 692.186C1085.74 692.924 1085.42 693.617 1084.88 694.125C1084.35 694.634 1083.64 694.919 1082.9 694.922H1051.32C1050.6 694.917 1049.89 694.763 1049.23 694.472C1048.58 694.181 1047.99 693.759 1047.5 693.23C1047.01 692.702 1046.64 692.079 1046.4 691.401C1046.17 690.722 1046.07 690.002 1046.12 689.286L1050.11 628.514C1050.19 627.184 1050.77 625.935 1051.74 625.02C1052.71 624.106 1053.99 623.596 1055.32 623.594Z" fill="#FFBF4D"/>
            <path d="M1079.15 693.967C1079.88 693.974 1080.59 693.702 1081.12 693.207C1081.66 692.713 1081.98 692.032 1082.04 691.305L1086.33 627.339C1086.35 626.947 1086.3 626.554 1086.16 626.185C1086.03 625.816 1085.82 625.478 1085.55 625.193C1085.28 624.908 1084.95 624.68 1084.59 624.525C1084.23 624.37 1083.84 624.291 1083.45 624.291H1052.73C1053.52 623.836 1054.41 623.596 1055.32 623.594H1087.19C1087.59 623.598 1087.99 623.683 1088.35 623.844C1088.71 624.006 1089.04 624.24 1089.31 624.532C1089.58 624.824 1089.79 625.169 1089.92 625.544C1090.05 625.919 1090.1 626.318 1090.08 626.715L1085.78 692.186C1085.74 692.924 1085.42 693.617 1084.88 694.125C1084.35 694.634 1083.64 694.919 1082.9 694.922H1051.32C1050.25 694.924 1049.21 694.59 1048.34 693.967H1079.15Z" fill="#FFA73E"/>
            <path d="M1076.84 643.698C1074.69 640.595 1076 629.561 1076 629.561C1076 629.561 1074.51 642.009 1072.95 643.698C1072.95 643.698 1074.51 646.378 1073.99 655.173C1075.06 646.525 1075.11 645.956 1076.84 643.698Z" fill="#FFA73E"/>
            <g clip-path="url(#clip2_203_803)">
                <path d="M881.926 644.938H849.682V712H861.738L881.926 644.938Z" fill="#4F1926"/>
                <path d="M917.423 655.774H949.667V712H937.631L917.423 655.774Z" fill="#4F1926"/>
                <path d="M845.3 280H849.127C850.619 280 852.05 280.598 853.105 281.663C854.16 282.728 854.753 284.173 854.753 285.679V309.958H839.674V285.679C839.674 284.173 840.267 282.728 841.322 281.663C842.377 280.598 843.808 280 845.3 280Z" fill="#FFA73E"/>
                <path d="M854.753 284.23C854.753 281.893 851.385 280 847.214 280H846.487C846.243 282.264 846.121 284.54 846.123 286.818C846.123 296.707 848.324 304.723 851.041 304.723C852.533 304.723 853.854 302.309 854.753 298.523V284.23Z" fill="#FFBF4D"/>
                <path d="M949.839 280H953.667C955.159 280 956.59 280.598 957.645 281.663C958.7 282.728 959.293 284.173 959.293 285.679V309.958H944.233V285.679C944.233 284.176 944.823 282.734 945.874 281.67C946.925 280.606 948.351 280.005 949.839 280Z" fill="#FFA73E"/>
                <path d="M959.312 284.23C959.312 281.893 955.925 280 951.772 280H951.045C950.801 282.264 950.68 284.54 950.681 286.818C950.681 296.707 952.882 304.723 955.599 304.723C957.073 304.723 958.412 302.309 959.312 298.523V284.23Z" fill="#FFBF4D"/>
                <path d="M964 304.665H836V629.158H964V304.665Z" fill="#662330"/>
                <path d="M964 623.885H836V690.947H964V623.885Z" fill="#662330"/>
                <path d="M868.244 644.938H836V712H848.056L868.244 644.938Z" fill="#662330"/>
                <path d="M931.756 644.938H964V712H951.963L931.756 644.938Z" fill="#662330"/>
                <path d="M943.659 313.531H856.361C850.876 313.531 846.429 318.019 846.429 323.555V616.816C846.429 622.352 850.876 626.84 856.361 626.84H943.659C949.144 626.84 953.59 622.352 953.59 616.816V323.555C953.59 318.019 949.144 313.531 943.659 313.531Z" fill="#E29A3B"/>
                <path d="M907.74 356.603C922.8 356.603 936.884 364.329 949.017 377.85V322.493C949.017 321.177 948.76 319.873 948.261 318.657C947.761 317.441 947.03 316.336 946.108 315.405C945.186 314.474 944.091 313.735 942.886 313.232C941.681 312.728 940.389 312.469 939.085 312.469H860.915C858.281 312.469 855.755 313.525 853.892 315.405C852.03 317.285 850.983 319.834 850.983 322.493V399.946C865.756 373.137 885.734 356.603 907.74 356.603Z" fill="#FFBF4D"/>
            </g>
            <path d="M1058.92 643.698C1056.77 640.595 1058.06 629.561 1058.06 629.561C1058.06 629.561 1056.57 642.009 1055.01 643.698C1055.01 643.698 1056.57 646.378 1056.07 655.173C1057.12 646.525 1057.27 645.956 1058.92 643.698Z" fill="#FFA73E"/>
            <path d="M1074.73 679.133C1072.6 676.011 1073.88 664.995 1073.88 664.995C1073.88 664.995 1072.4 677.443 1070.84 679.133C1070.84 679.133 1072.4 681.813 1071.88 690.608C1072.95 681.96 1073 681.317 1074.73 679.133Z" fill="#FFA73E"/>
            <path d="M1056.81 679.133C1054.66 676.011 1055.95 664.995 1055.95 664.995C1055.95 664.995 1054.46 677.443 1052.9 679.133C1052.9 679.133 1054.46 681.813 1053.96 690.608C1055.01 681.96 1055.08 681.317 1056.81 679.133Z" fill="#FFA73E"/>
            <path d="M1099.5 567.008C1120.7 563.703 1166.71 573.214 1166.71 573.214L1166.09 581.421H1098.16C1084.06 581.329 1083.93 569.358 1099.5 567.008Z" fill="#FFBF4D"/>
            <path d="M1099.73 580.392C1108.71 580.392 1115.98 576.023 1115.98 570.643C1115.95 569.036 1115.34 567.494 1114.28 566.292C1136.97 566.971 1166.75 573.122 1166.75 573.122L1166.12 581.329H1098.19C1093.09 581.329 1089.84 579.75 1088.46 577.657C1091.92 579.524 1095.8 580.467 1099.73 580.392Z" fill="#FFA73E"/>
            <path d="M1092.76 580.576H1172.4L1172.04 590.013H1092.39L1092.76 580.576Z" fill="#662330"/>
            <path d="M1103.5 580.576H1175.14L1174.81 590.013H1103.17L1103.5 580.576Z" fill="#511826"/>
            <path d="M1105.65 580.594L1101.86 632.278H1095.53L1098.83 580.594H1105.65Z" fill="#662330"/>
            <path d="M988.308 598.606H1027.87L1013.13 714.053H1010.3L988.308 598.606Z" fill="#662330"/>
            <path d="M958.748 598.293H998.314L986.178 714.696H983.351L958.748 598.293Z" fill="#662330"/>
            <path d="M497.405 599.487H459.767L476.97 714.053H479.889L497.405 599.487Z" fill="#662330"/>
            <path d="M529.424 599.175H497.423L506.162 714.053H509.1L529.424 599.175Z" fill="#662330"/>
            <path d="M464.927 554.001H1034.02C1035.25 553.984 1036.47 554.272 1037.6 554.847C1038.73 555.421 1039.75 556.27 1040.59 557.338C1041.44 558.407 1042.08 559.672 1042.49 561.054C1042.9 562.437 1043.07 563.905 1042.98 565.367L1035.89 661.952C856.176 676.008 681.864 647.565 462.255 664.642L456.018 565.239C455.94 563.791 456.113 562.34 456.526 560.976C456.94 559.612 457.584 558.364 458.42 557.309C459.256 556.255 460.265 555.417 461.385 554.848C462.504 554.278 463.71 553.99 464.927 554.001Z" fill="#C41A3F"/>
            <path d="M464.91 554H1033.87C1035.25 553.995 1036.6 554.364 1037.84 555.08C1039.07 555.796 1040.15 556.84 1041 558.132H511.181C509.924 558.162 508.686 558.499 507.543 559.123C506.4 559.746 505.375 560.643 504.532 561.757C503.689 562.872 503.046 564.18 502.641 565.603C502.237 567.026 502.081 568.533 502.182 570.03L507.649 662.062C492.722 662.833 477.59 663.813 462.253 665L456.018 565.275C455.94 563.824 456.113 562.37 456.525 561.002C456.937 559.635 457.58 558.384 458.414 557.326C459.248 556.269 460.255 555.428 461.373 554.855C462.49 554.283 463.694 553.992 464.91 554Z" fill="#E02B4A"/>
            <path d="M1036 661.959C879.098 674.218 726.359 654.098 544 660.127C726.128 620.401 734.348 564 831.457 564C933.083 564 1013.16 631.102 1036 661.959Z" fill="#CC1F49"/>
            <path d="M1039 622.049L1038.06 634.894C856.528 649.15 680.625 620.304 458.908 637.604L458 623.015C678.979 607.385 856.882 634.43 1039 622.049Z" fill="#FFA73E"/>
            <path d="M507 634.015C491.197 634.816 475.17 635.811 458.92 637L458 622.694C474.198 621.577 490.168 620.68 505.909 620L507 634.015Z" fill="#FFBF4D"/>
            <path d="M-160 712.402H1676V789H-160V712.402Z" fill="#FFCA6C"/>
            <path d="M352.703 714.402H942.224L1283.1 791H501.786L352.703 714.402Z" fill="#FFE3B6"/>
            <g style="mix-blend-mode:multiply" opacity="0.72">
                <path d="M1202.11 712.145C1134.27 724.63 958.271 724.501 751.831 724.501C545.391 724.501 369.374 724.63 301.534 712.145H1202.11Z" fill="#7F2F2F"/>
            </g>
            <g style="mix-blend-mode:multiply" opacity="0.72">
                <path d="M1452.74 711.888C1435.26 718.222 1371.44 718.167 1336.73 718.167C1302.01 718.167 1238.19 718.167 1220.71 711.888H1452.74Z" fill="#7F2F2F"/>
            </g>
        </g>
        <g clip-path="url(#clip3_203_803)">
            <path d="M708.484 451.972C702.646 451.972 705.655 440.267 708.379 435C710.438 437.959 711.815 441.336 712.412 444.889C712.983 449.931 711.313 451.972 708.484 451.972Z" fill="#FFA943"/>
            <path d="M731.341 467.234C727.88 465.163 728.828 457.66 731.236 453.353C732.103 456.179 733.3 458.893 734.802 461.441C736.833 465.058 733.493 468.509 731.341 467.234Z" fill="#FFA943"/>
            <path d="M708.74 452.047C705.851 452.047 707.341 445.7 708.74 442.833C709.769 444.469 710.45 446.297 710.741 448.206C710.952 450.952 710.14 452.047 708.74 452.047Z" fill="#FFDC9F"/>
            <path d="M686.952 464.367C681.384 462.176 682.528 456.864 684.785 452.767C685.454 451.614 685.863 450.329 685.982 449.002C686.102 447.675 685.93 446.338 685.477 445.084C687.124 446.294 688.491 447.841 689.488 449.622C690.484 451.403 691.087 453.376 691.255 455.409C692.053 462.657 686.952 464.367 686.952 464.367Z" fill="#FFA943"/>
            <path d="M731.537 468.989C730.438 468.719 728.527 470.115 727.684 471.51C726.18 473.806 727.233 499.497 727.233 499.497H736.261C736.261 499.497 736.592 485.106 736.487 474.497C736.517 472.771 733.056 469.349 731.537 468.989Z" fill="#F4D4B5"/>
            <path d="M733.688 492.804C730.438 492.804 727.67 486.457 726.962 477.873C726.707 486.202 727.233 499.497 727.233 499.497H736.261C736.261 499.497 736.261 496.001 736.412 491.184C736.107 491.639 735.705 492.021 735.234 492.301C734.763 492.581 734.235 492.753 733.688 492.804Z" fill="#EDBF98"/>
            <path d="M687.885 465.553C684.619 467.504 682.091 474.332 682.107 476.207C682.107 483.906 682.332 499.962 682.332 499.962H691.361C691.361 499.962 692.263 476.447 691.24 467.729C691.09 466.018 691.3 463.497 687.885 465.553Z" fill="#F4D4B5"/>
            <path d="M685.161 488.167C684.539 488.107 683.942 487.898 683.418 487.558C682.894 487.219 682.46 486.758 682.152 486.217C682.152 493.089 682.287 499.902 682.287 499.902H691.316C691.316 499.902 691.887 484.896 691.601 474.392C690.864 482.435 688.261 488.167 685.161 488.167Z" fill="#EDBF98"/>
            <path d="M708.183 453.653C704.211 453.503 703.293 455.664 703.308 457.539C703.308 465.238 704.557 499.992 704.557 499.992H713.585C713.585 499.992 715.286 466.603 714.262 457.885C714.112 456.159 714.308 453.848 708.183 453.653Z" fill="#F4D4B5"/>
            <path d="M709.959 487.462C706.709 487.462 704.061 474.992 704.061 459.625C704.061 458.02 704.061 456.459 704.151 454.928C703.573 455.662 703.274 456.577 703.308 457.509C703.308 465.208 704.557 499.962 704.557 499.962H713.585C713.585 499.962 714.157 488.648 714.443 477.453C713.405 483.575 711.78 487.462 709.959 487.462Z" fill="#EDBF98"/>
            <path d="M730.965 554C730.273 550.789 720.928 548.253 709.508 548.253C698.087 548.253 688.742 550.789 688.035 554H730.965Z" fill="#FFBF4D"/>
            <path d="M711.449 503.069H707.551L708.8 548.268H710.2L711.449 503.069Z" fill="#FFBF4D"/>
            <path d="M733.312 505.335V501.403H685.688V505.335H733.312Z" fill="#FFBF4D"/>
            <path d="M733.312 502.573V501.088H685.688V502.573H733.312Z" fill="#FFD073"/>
            <path d="M704.587 548.793C704.599 549.761 704.898 550.703 705.445 551.502C705.993 552.302 706.766 552.921 707.666 553.283C708.566 553.646 709.553 553.734 710.504 553.538C711.454 553.342 712.325 552.87 713.007 552.181C713.69 551.493 714.152 550.618 714.337 549.668C714.522 548.718 714.421 547.734 714.047 546.841C713.673 545.948 713.043 545.185 712.235 544.649C711.427 544.112 710.478 543.826 709.507 543.826C708.857 543.83 708.214 543.961 707.615 544.213C707.016 544.465 706.473 544.832 706.016 545.293C705.559 545.754 705.197 546.301 704.952 546.901C704.707 547.502 704.583 548.144 704.587 548.793Z" fill="#FFBF4D"/>
            <path d="M709.47 530.059C711.389 530.056 712.943 528.482 712.941 526.543C712.938 524.603 711.379 523.033 709.46 523.036C707.54 523.039 705.986 524.613 705.989 526.552C705.992 528.492 707.55 530.062 709.47 530.059Z" fill="#FFBF4D"/>
            <path d="M705.053 505.815C705.053 506.705 705.318 507.576 705.814 508.316C706.31 509.056 707.015 509.633 707.84 509.974C708.665 510.315 709.573 510.404 710.448 510.23C711.324 510.056 712.128 509.628 712.76 508.998C713.391 508.368 713.821 507.566 713.995 506.693C714.169 505.82 714.08 504.915 713.738 504.092C713.397 503.269 712.818 502.566 712.076 502.072C711.333 501.577 710.46 501.313 709.568 501.313C708.37 501.313 707.222 501.787 706.376 502.631C705.529 503.476 705.053 504.621 705.053 505.815Z" fill="#FFBF4D"/>
            <path d="M680 498.372C679.925 499.261 680.036 500.157 680.327 501.001C680.617 501.846 681.079 502.621 681.685 503.278C682.291 503.935 683.028 504.46 683.847 504.819C684.667 505.178 685.552 505.363 686.448 505.363C687.343 505.363 688.228 505.178 689.048 504.819C689.868 504.46 690.604 503.935 691.21 503.278C691.816 502.621 692.279 501.846 692.569 501.001C692.859 500.157 692.97 499.261 692.895 498.372H680Z" fill="#FFD073"/>
            <path d="M726.12 498.372C726.059 499.252 726.181 500.135 726.477 500.967C726.774 501.798 727.238 502.56 727.842 503.205C728.446 503.85 729.176 504.364 729.988 504.716C730.8 505.067 731.675 505.249 732.56 505.249C733.445 505.249 734.32 505.067 735.132 504.716C735.943 504.364 736.674 503.85 737.277 503.205C737.881 502.56 738.346 501.798 738.642 500.967C738.939 500.135 739.06 499.252 739 498.372H726.12Z" fill="#FFD073"/>
            <path d="M703.052 498.372C702.978 499.261 703.089 500.157 703.379 501.001C703.669 501.846 704.132 502.621 704.738 503.278C705.344 503.935 706.08 504.46 706.9 504.819C707.719 505.178 708.605 505.363 709.5 505.363C710.395 505.363 711.281 505.178 712.1 504.819C712.92 504.46 713.656 503.935 714.262 503.278C714.868 502.621 715.331 501.846 715.621 501.001C715.911 500.157 716.022 499.261 715.948 498.372H703.052Z" fill="#FFD073"/>
            <path d="M687.057 464.067C684.665 464.067 685.898 459.13 687.057 456.909C687.907 458.165 688.476 459.587 688.727 461.081C688.908 463.197 688.171 464.067 687.057 464.067Z" fill="#FFDC9F"/>
            <path d="M731.928 467.429C730.092 467.429 730.875 463.482 731.657 461.711C732.344 462.716 732.82 463.849 733.056 465.043C733.312 466.738 732.816 467.429 731.928 467.429Z" fill="#FFDC9F"/>
            <path d="M709.237 525.548C710.212 525.538 711.173 525.787 712.02 526.268C712.028 526.199 712.028 526.128 712.02 526.058C712.02 525.378 711.749 524.725 711.267 524.244C710.784 523.763 710.13 523.492 709.447 523.492C708.765 523.492 708.11 523.763 707.628 524.244C707.145 524.725 706.874 525.378 706.874 526.058C707.617 525.725 708.422 525.551 709.237 525.548Z" fill="#FFD073"/>
        </g>
        <g clip-path="url(#clip4_203_803)">
            <path d="M930.391 497.479C932.412 497.479 934.05 495.805 934.05 493.74C934.05 491.674 932.412 490 930.391 490C928.371 490 926.733 491.674 926.733 493.74C926.733 495.805 928.371 497.479 930.391 497.479Z" fill="#BECECC"/>
            <path d="M984.649 549.652C982.797 520.191 959.221 496.886 930.452 496.886C901.682 496.886 878.046 520.191 876.254 549.652H984.649Z" fill="#A1B7B4"/>
            <path d="M930.391 496.886C920.546 496.879 910.895 499.648 902.525 504.883C903.955 517.546 916.932 532.915 936.172 543.07C941.294 545.792 946.67 547.997 952.221 549.652H984.649C982.858 520.191 959.221 496.886 930.391 496.886Z" fill="#B3C6C3"/>
            <path d="M873.364 548.543L877.474 554H983.038L988.684 548.543H873.364Z" fill="#A1B7B4"/>
            <path d="M989 547.296H871V549.455H989V547.296Z" fill="#C1D3D0"/>
            <path d="M933.718 499.212C933.417 504.989 941.366 515.174 953.38 523.733C963.03 530.604 972.726 534.618 978.853 534.724C975.71 524.925 969.729 516.304 961.683 509.973C953.637 503.643 943.896 499.894 933.718 499.212Z" fill="#CAD8D6"/>
        </g>
    </g>
    <defs>
        <clipPath id="clip0_203_803">
            <rect width="1280" height="720" fill="white"/>
        </clipPath>
        <clipPath id="clip1_203_803">
            <rect width="1280" height="720" fill="white" transform="matrix(-1 0 0 1 1280 0)"/>
        </clipPath>
        <clipPath id="clip2_203_803">
            <rect width="128" height="432" fill="white" transform="translate(836 280)"/>
        </clipPath>
        <clipPath id="clip3_203_803">
            <rect width="59" height="119" fill="white" transform="translate(680 435)"/>
        </clipPath>
        <clipPath id="clip4_203_803">
            <rect width="118" height="64" fill="white" transform="translate(871 490)"/>
        </clipPath>
    </defs>
</svg>
